<?xml version="1.0" encoding="utf-8" standalone="no"?>
<!DOCTYPE svg PUBLIC "-//W3C//DTD SVG 1.1//EN"
 "http://www.w3.org/Graphics/SVG/1.1/DTD/svg11.dtd">
<svg xmlns:xlink="http://www.w3.org/1999/xlink" width="246.70pt" height="180.21pt" viewBox="0 0 246.70 180.21" xmlns="http://www.w3.org/2000/svg" version="1.1">
 <g>
 <g>
 <path d="M 0 180.21 
L 246.70 180.21 
L 246.70 0 
L 0 0 
L 0 180.21 
z
" style="fill: none"/>
 </g>
 <g>
 <g>
 <path d="M 39.75 148.46 
L 235.05 148.46 
L 235.05 9.86 
L 39.75 9.86 
L 39.75 148.46 
z
" style="fill: none"/>
 </g>
 <g>
 <g>
 <g>
 <path d="M 39.75 148.46 
L 39.75 9.86 
" style="fill: none; stroke: #e5e7eb; stroke-opacity: 0.6; stroke-width: 0.5; stroke-linecap: square"/>
 </g>
 <g>
 <defs>
 <path d="M 0 0 
L 0 3.5 
" style="stroke: #9ca3af; stroke-width: 0.8"/>
 </defs>
 <g>
 <use xlink:href="#md676737ceb" x="39.75" y="148.46" style="fill: #9ca3af; stroke: #9ca3af; stroke-width: 0.8"/>
 </g>
 </g>
 <g>
 <text style="fill: #9ca3af; font: 7px 'DejaVu Sans', 'Bitstream Vera Sans', 'Computer Modern Sans Serif', 'Lucida Grande', 'Verdana', 'Geneva', 'Lucid', 'Arial', 'Helvetica', 'Avant Garde', sans-serif; text-anchor: middle" x="39.75" y="160.78" transform="rotate(-0 39.75 160.78)">−10</text>
 </g>
 </g>
 <g>
 <g>
 <path d="M 88.57 148.46 
L 88.57 9.86 
" style="fill: none; stroke: #e5e7eb; stroke-opacity: 0.6; stroke-width: 0.5; stroke-linecap: square"/>
 </g>
 <g>
 <g>
 <use xlink:href="#md676737ceb" x="88.57" y="148.46" style="fill: #9ca3af; stroke: #9ca3af; stroke-width: 0.8"/>
 </g>
 </g>
 <g>
 <text style="fill: #9ca3af; font: 7px 'DejaVu Sans', 'Bitstream Vera Sans', 'Computer Modern Sans Serif', 'Lucida Grande', 'Verdana', 'Geneva', 'Lucid', 'Arial', 'Helvetica', 'Avant Garde', sans-serif; text-anchor: middle" x="88.57" y="160.78" transform="rotate(-0 88.57 160.78)">−5</text>
 </g>
 </g>
 <g>
 <g>
 <path d="M 137.40 148.46 
L 137.40 9.86 
" style="fill: none; stroke: #e5e7eb; stroke-opacity: 0.6; stroke-width: 0.5; stroke-linecap: square"/>
 </g>
 <g>
 <g>
 <use xlink:href="#md676737ceb" x="137.40" y="148.46" style="fill: #9ca3af; stroke: #9ca3af; stroke-width: 0.8"/>
 </g>
 </g>
 <g>
 <text style="fill: #9ca3af; font: 7px 'DejaVu Sans', 'Bitstream Vera Sans', 'Computer Modern Sans Serif', 'Lucida Grande', 'Verdana', 'Geneva', 'Lucid', 'Arial', 'Helvetica', 'Avant Garde', sans-serif; text-anchor: middle" x="137.40" y="160.78" transform="rotate(-0 137.40 160.78)">0</text>
 </g>
 </g>
 <g>
 <g>
 <path d="M 186.22 148.46 
L 186.22 9.86 
" style="fill: none; stroke: #e5e7eb; stroke-opacity: 0.6; stroke-width: 0.5; stroke-linecap: square"/>
 </g>
 <g>
 <g>
 <use xlink:href="#md676737ceb" x="186.22" y="148.46" style="fill: #9ca3af; stroke: #9ca3af; stroke-width: 0.8"/>
 </g>
 </g>
 <g>
 <text style="fill: #9ca3af; font: 7px 'DejaVu Sans', 'Bitstream Vera Sans', 'Computer Modern Sans Serif', 'Lucida Grande', 'Verdana', 'Geneva', 'Lucid', 'Arial', 'Helvetica', 'Avant Garde', sans-serif; text-anchor: middle" x="186.22" y="160.78" transform="rotate(-0 186.22 160.78)">5</text>
 </g>
 </g>
 <g>
 <g>
 <path d="M 235.05 148.46 
L 235.05 9.86 
" style="fill: none; stroke: #e5e7eb; stroke-opacity: 0.6; stroke-width: 0.5; stroke-linecap: square"/>
 </g>
 <g>
 <g>
 <use xlink:href="#md676737ceb" x="235.05" y="148.46" style="fill: #9ca3af; stroke: #9ca3af; stroke-width: 0.8"/>
 </g>
 </g>
 <g>
 <text style="fill: #9ca3af; font: 7px 'DejaVu Sans', 'Bitstream Vera Sans', 'Computer Modern Sans Serif', 'Lucida Grande', 'Verdana', 'Geneva', 'Lucid', 'Arial', 'Helvetica', 'Avant Garde', sans-serif; text-anchor: middle" x="235.05" y="160.78" transform="rotate(-0 235.05 160.78)">10</text>
 </g>
 </g>
 <g>
 <text style="fill: #9ca3af; font: 7px 'DejaVu Sans', 'Bitstream Vera Sans', 'Computer Modern Sans Serif', 'Lucida Grande', 'Verdana', 'Geneva', 'Lucid', 'Arial', 'Helvetica', 'Avant Garde', sans-serif; text-anchor: middle" x="137.40" y="171.55" transform="rotate(-0 137.40 171.55)">x</text>
 </g>
 </g>
 <g>
 <g>
 <g>
 <path d="M 39.75 148.46 
L 235.05 148.46 
" style="fill: none; stroke: #e5e7eb; stroke-opacity: 0.6; stroke-width: 0.5; stroke-linecap: square"/>
 </g>
 <g>
 <defs>
 <path d="M 0 0 
L -3.5 0 
" style="stroke: #9ca3af; stroke-width: 0.8"/>
 </defs>
 <g>
 <use xlink:href="#md048e61e35" x="39.75" y="148.46" style="fill: #9ca3af; stroke: #9ca3af; stroke-width: 0.8"/>
 </g>
 </g>
 <g>
 <text style="fill: #9ca3af; font: 7px 'DejaVu Sans', 'Bitstream Vera Sans', 'Computer Modern Sans Serif', 'Lucida Grande', 'Verdana', 'Geneva', 'Lucid', 'Arial', 'Helvetica', 'Avant Garde', sans-serif; text-anchor: end" x="32.75" y="151.12" transform="rotate(-0 32.75 151.12)">−10</text>
 </g>
 </g>
 <g>
 <g>
 <path d="M 39.75 113.81 
L 235.05 113.81 
" style="fill: none; stroke: #e5e7eb; stroke-opacity: 0.6; stroke-width: 0.5; stroke-linecap: square"/>
 </g>
 <g>
 <g>
 <use xlink:href="#md048e61e35" x="39.75" y="113.81" style="fill: #9ca3af; stroke: #9ca3af; stroke-width: 0.8"/>
 </g>
 </g>
 <g>
 <text style="fill: #9ca3af; font: 7px 'DejaVu Sans', 'Bitstream Vera Sans', 'Computer Modern Sans Serif', 'Lucida Grande', 'Verdana', 'Geneva', 'Lucid', 'Arial', 'Helvetica', 'Avant Garde', sans-serif; text-anchor: end" x="32.75" y="116.47" transform="rotate(-0 32.75 116.47)">−5</text>
 </g>
 </g>
 <g>
 <g>
 <path d="M 39.75 79.16 
L 235.05 79.16 
" style="fill: none; stroke: #e5e7eb; stroke-opacity: 0.6; stroke-width: 0.5; stroke-linecap: square"/>
 </g>
 <g>
 <g>
 <use xlink:href="#md048e61e35" x="39.75" y="79.16" style="fill: #9ca3af; stroke: #9ca3af; stroke-width: 0.8"/>
 </g>
 </g>
 <g>
 <text style="fill: #9ca3af; font: 7px 'DejaVu Sans', 'Bitstream Vera Sans', 'Computer Modern Sans Serif', 'Lucida Grande', 'Verdana', 'Geneva', 'Lucid', 'Arial', 'Helvetica', 'Avant Garde', sans-serif; text-anchor: end" x="32.75" y="81.82" transform="rotate(-0 32.75 81.82)">0</text>
 </g>
 </g>
 <g>
 <g>
 <path d="M 39.75 44.51 
L 235.05 44.51 
" style="fill: none; stroke: #e5e7eb; stroke-opacity: 0.6; stroke-width: 0.5; stroke-linecap: square"/>
 </g>
 <g>
 <g>
 <use xlink:href="#md048e61e35" x="39.75" y="44.51" style="fill: #9ca3af; stroke: #9ca3af; stroke-width: 0.8"/>
 </g>
 </g>
 <g>
 <text style="fill: #9ca3af; font: 7px 'DejaVu Sans', 'Bitstream Vera Sans', 'Computer Modern Sans Serif', 'Lucida Grande', 'Verdana', 'Geneva', 'Lucid', 'Arial', 'Helvetica', 'Avant Garde', sans-serif; text-anchor: end" x="32.75" y="47.17" transform="rotate(-0 32.75 47.17)">5</text>
 </g>
 </g>
 <g>
 <g>
 <path d="M 39.75 9.86 
L 235.05 9.86 
" style="fill: none; stroke: #e5e7eb; stroke-opacity: 0.6; stroke-width: 0.5; stroke-linecap: square"/>
 </g>
 <g>
 <g>
 <use xlink:href="#md048e61e35" x="39.75" y="9.86" style="fill: #9ca3af; stroke: #9ca3af; stroke-width: 0.8"/>
 </g>
 </g>
 <g>
 <text style="fill: #9ca3af; font: 7px 'DejaVu Sans', 'Bitstream Vera Sans', 'Computer Modern Sans Serif', 'Lucida Grande', 'Verdana', 'Geneva', 'Lucid', 'Arial', 'Helvetica', 'Avant Garde', sans-serif; text-anchor: end" x="32.75" y="12.52" transform="rotate(-0 32.75 12.52)">10</text>
 </g>
 </g>
 <g>
 <text style="fill: #9ca3af; font: 7px 'DejaVu Sans', 'Bitstream Vera Sans', 'Computer Modern Sans Serif', 'Lucida Grande', 'Verdana', 'Geneva', 'Lucid', 'Arial', 'Helvetica', 'Avant Garde', sans-serif; text-anchor: middle" x="12.52" y="79.16" transform="rotate(-90 12.52 79.16)">y</text>
 </g>
 </g>
 <g>
 <path d="M 80.92 -1 
L 81.77 0.21 
L 84.25 3.72 
L 86.72 7.23 
L 89.19 10.74 
L 91.66 14.25 
L 94.14 17.75 
L 96.61 21.26 
L 99.08 24.77 
L 101.55 28.28 
L 104.02 31.79 
L 106.50 35.30 
L 108.97 38.81 
L 111.44 42.32 
L 113.91 45.83 
L 116.38 49.33 
L 118.86 52.84 
L 121.33 56.35 
L 123.80 59.86 
L 126.27 63.37 
L 128.75 66.88 
L 131.22 70.39 
L 133.69 73.90 
L 136.16 77.41 
L 138.63 80.91 
L 141.11 84.42 
L 143.58 87.93 
L 146.05 91.44 
L 148.52 94.95 
L 150.99 98.46 
L 153.47 101.97 
L 155.94 105.48 
L 158.41 108.98 
L 160.88 112.49 
L 163.36 116.00 
L 165.83 119.51 
L 168.30 123.02 
L 170.77 126.53 
L 173.24 130.04 
L 175.72 133.55 
L 178.19 137.06 
L 180.66 140.56 
L 183.13 144.07 
L 185.60 147.58 
L 188.08 151.09 
L 190.55 154.60 
L 193.02 158.11 
L 195.49 161.62 
L 197.97 165.13 
L 200.44 168.64 
L 202.91 172.14 
L 205.38 175.65 
L 207.85 179.16 
L 209.30 181.21 
" style="fill: none; stroke: #2563eb; stroke-width: 1.8; stroke-linecap: square"/>
 </g>
 <g>
 <path d="M 39.75 127.67 
L 42.22 125.92 
L 44.69 124.16 
L 47.16 122.41 
L 49.64 120.65 
L 52.11 118.90 
L 54.58 117.14 
L 57.05 115.39 
L 59.53 113.63 
L 62.00 111.88 
L 64.47 110.13 
L 66.94 108.37 
L 69.41 106.62 
L 71.89 104.86 
L 74.36 103.11 
L 76.83 101.35 
L 79.30 99.60 
L 81.77 97.84 
L 84.25 96.09 
L 86.72 94.34 
L 89.19 92.58 
L 91.66 90.83 
L 94.14 89.07 
L 96.61 87.32 
L 99.08 85.56 
L 101.55 83.81 
L 104.02 82.05 
L 106.50 80.30 
L 108.97 78.55 
L 111.44 76.79 
L 113.91 75.04 
L 116.38 73.28 
L 118.86 71.53 
L 121.33 69.77 
L 123.80 68.02 
L 126.27 66.26 
L 128.75 64.51 
L 131.22 62.76 
L 133.69 61.00 
L 136.16 59.25 
L 138.63 57.49 
L 141.11 55.74 
L 143.58 53.98 
L 146.05 52.23 
L 148.52 50.47 
L 150.99 48.72 
L 153.47 46.97 
L 155.94 45.21 
L 158.41 43.46 
L 160.88 41.70 
L 163.36 39.95 
L 165.83 38.19 
L 168.30 36.44 
L 170.77 34.68 
L 173.24 32.93 
L 175.72 31.18 
L 178.19 29.42 
L 180.66 27.67 
L 183.13 25.91 
L 185.60 24.16 
L 188.08 22.40 
L 190.55 20.65 
L 193.02 18.89 
L 195.49 17.14 
L 197.97 15.39 
L 200.44 13.63 
L 202.91 11.88 
L 205.38 10.12 
L 207.85 8.37 
L 210.33 6.61 
L 212.80 4.86 
L 215.27 3.10 
L 217.74 1.35 
L 220.22 -0.40 
L 221.05 -1 
" style="fill: none; stroke: #16a34a; stroke-width: 1.8; stroke-linecap: square"/>
 </g>
 <g>
 <path d="M 39.75 148.46 
L 39.75 9.86 
" style="fill: none; stroke: #9ca3af; stroke-width: 0.6; stroke-linejoin: miter; stroke-linecap: square"/>
 </g>
 <g>
 <path d="M 235.05 148.46 
L 235.05 9.86 
" style="fill: none; stroke: #9ca3af; stroke-width: 0.6; stroke-linejoin: miter; stroke-linecap: square"/>
 </g>
 <g>
 <path d="M 39.75 148.46 
L 235.05 148.46 
" style="fill: none; stroke: #9ca3af; stroke-width: 0.6; stroke-linejoin: miter; stroke-linecap: square"/>
 </g>
 <g>
 <path d="M 39.75 9.86 
L 235.05 9.86 
" style="fill: none; stroke: #9ca3af; stroke-width: 0.6; stroke-linejoin: miter; stroke-linecap: square"/>
 </g>
 <g>
 <text style="fill: #111827; font: 700 6.5px 'DejaVu Sans', 'Bitstream Vera Sans', 'Computer Modern Sans Serif', 'Lucida Grande', 'Verdana', 'Geneva', 'Lucid', 'Arial', 'Helvetica', 'Avant Garde', sans-serif; text-anchor: start" x="132.63" y="57.30" transform="rotate(-0 132.63 57.30)">(-1, 2)</text>
 </g>
 <g>
 <defs>
 <path d="M 0 2.5 
C 0.66 2.5 1.30 2.24 1.77 1.77 
C 2.24 1.30 2.5 0.66 2.5 0 
C 2.5 -0.66 2.24 -1.30 1.77 -1.77 
C 1.30 -2.24 0.66 -2.5 0 -2.5 
C -0.66 -2.5 -1.30 -2.24 -1.77 -1.77 
C -2.24 -1.30 -2.5 -0.66 -2.5 0 
C -2.5 0.66 -2.24 1.30 -1.77 1.77 
C -1.30 2.24 -0.66 2.5 0 2.5 
z
" style="stroke: #111827"/>
 </defs>
 <g>
 <use xlink:href="#m7845e5a4c0" x="127.63" y="65.30" style="fill: #111827; stroke: #111827"/>
 </g>
 </g>
 </g>
 </g>
 <defs>
 </defs>
</svg>