<?xml version="1.0" encoding="utf-8" standalone="no"?>
<!DOCTYPE svg PUBLIC "-//W3C//DTD SVG 1.1//EN"
 "http://www.w3.org/Graphics/SVG/1.1/DTD/svg11.dtd">
<svg xmlns:xlink="http://www.w3.org/1999/xlink" width="246.70pt" height="180.21pt" viewBox="0 0 246.70 180.21" xmlns="http://www.w3.org/2000/svg" version="1.1">
 <g>
 <g>
 <path d="M 0 180.21 
L 246.70 180.21 
L 246.70 0 
L 0 0 
L 0 180.21 
z
" style="fill: none"/>
 </g>
 <g>
 <g>
 <path d="M 39.75 148.46 
L 235.05 148.46 
L 235.05 9.86 
L 39.75 9.86 
L 39.75 148.46 
z
" style="fill: none"/>
 </g>
 <g>
 <g>
 <g>
 <path d="M 39.75 148.46 
L 39.75 9.86 
" style="fill: none; stroke: #e5e7eb; stroke-opacity: 0.6; stroke-width: 0.5; stroke-linecap: square"/>
 </g>
 <g>
 <defs>
 <path d="M 0 0 
L 0 3.5 
" style="stroke: #9ca3af; stroke-width: 0.8"/>
 </defs>
 <g>
 <use xlink:href="#me950d1bb2d" x="39.75" y="148.46" style="fill: #9ca3af; stroke: #9ca3af; stroke-width: 0.8"/>
 </g>
 </g>
 <g>
 <text style="fill: #9ca3af; font: 7px 'DejaVu Sans', 'Bitstream Vera Sans', 'Computer Modern Sans Serif', 'Lucida Grande', 'Verdana', 'Geneva', 'Lucid', 'Arial', 'Helvetica', 'Avant Garde', sans-serif; text-anchor: middle" x="39.75" y="160.78" transform="rotate(-0 39.75 160.78)">−10</text>
 </g>
 </g>
 <g>
 <g>
 <path d="M 88.57 148.46 
L 88.57 9.86 
" style="fill: none; stroke: #e5e7eb; stroke-opacity: 0.6; stroke-width: 0.5; stroke-linecap: square"/>
 </g>
 <g>
 <g>
 <use xlink:href="#me950d1bb2d" x="88.57" y="148.46" style="fill: #9ca3af; stroke: #9ca3af; stroke-width: 0.8"/>
 </g>
 </g>
 <g>
 <text style="fill: #9ca3af; font: 7px 'DejaVu Sans', 'Bitstream Vera Sans', 'Computer Modern Sans Serif', 'Lucida Grande', 'Verdana', 'Geneva', 'Lucid', 'Arial', 'Helvetica', 'Avant Garde', sans-serif; text-anchor: middle" x="88.57" y="160.78" transform="rotate(-0 88.57 160.78)">−5</text>
 </g>
 </g>
 <g>
 <g>
 <path d="M 137.40 148.46 
L 137.40 9.86 
" style="fill: none; stroke: #e5e7eb; stroke-opacity: 0.6; stroke-width: 0.5; stroke-linecap: square"/>
 </g>
 <g>
 <g>
 <use xlink:href="#me950d1bb2d" x="137.40" y="148.46" style="fill: #9ca3af; stroke: #9ca3af; stroke-width: 0.8"/>
 </g>
 </g>
 <g>
 <text style="fill: #9ca3af; font: 7px 'DejaVu Sans', 'Bitstream Vera Sans', 'Computer Modern Sans Serif', 'Lucida Grande', 'Verdana', 'Geneva', 'Lucid', 'Arial', 'Helvetica', 'Avant Garde', sans-serif; text-anchor: middle" x="137.40" y="160.78" transform="rotate(-0 137.40 160.78)">0</text>
 </g>
 </g>
 <g>
 <g>
 <path d="M 186.22 148.46 
L 186.22 9.86 
" style="fill: none; stroke: #e5e7eb; stroke-opacity: 0.6; stroke-width: 0.5; stroke-linecap: square"/>
 </g>
 <g>
 <g>
 <use xlink:href="#me950d1bb2d" x="186.22" y="148.46" style="fill: #9ca3af; stroke: #9ca3af; stroke-width: 0.8"/>
 </g>
 </g>
 <g>
 <text style="fill: #9ca3af; font: 7px 'DejaVu Sans', 'Bitstream Vera Sans', 'Computer Modern Sans Serif', 'Lucida Grande', 'Verdana', 'Geneva', 'Lucid', 'Arial', 'Helvetica', 'Avant Garde', sans-serif; text-anchor: middle" x="186.22" y="160.78" transform="rotate(-0 186.22 160.78)">5</text>
 </g>
 </g>
 <g>
 <g>
 <path d="M 235.05 148.46 
L 235.05 9.86 
" style="fill: none; stroke: #e5e7eb; stroke-opacity: 0.6; stroke-width: 0.5; stroke-linecap: square"/>
 </g>
 <g>
 <g>
 <use xlink:href="#me950d1bb2d" x="235.05" y="148.46" style="fill: #9ca3af; stroke: #9ca3af; stroke-width: 0.8"/>
 </g>
 </g>
 <g>
 <text style="fill: #9ca3af; font: 7px 'DejaVu Sans', 'Bitstream Vera Sans', 'Computer Modern Sans Serif', 'Lucida Grande', 'Verdana', 'Geneva', 'Lucid', 'Arial', 'Helvetica', 'Avant Garde', sans-serif; text-anchor: middle" x="235.05" y="160.78" transform="rotate(-0 235.05 160.78)">10</text>
 </g>
 </g>
 <g>
 <text style="fill: #9ca3af; font: 7px 'DejaVu Sans', 'Bitstream Vera Sans', 'Computer Modern Sans Serif', 'Lucida Grande', 'Verdana', 'Geneva', 'Lucid', 'Arial', 'Helvetica', 'Avant Garde', sans-serif; text-anchor: middle" x="137.40" y="171.55" transform="rotate(-0 137.40 171.55)">x</text>
 </g>
 </g>
 <g>
 <g>
 <g>
 <path d="M 39.75 148.46 
L 235.05 148.46 
" style="fill: none; stroke: #e5e7eb; stroke-opacity: 0.6; stroke-width: 0.5; stroke-linecap: square"/>
 </g>
 <g>
 <defs>
 <path d="M 0 0 
L -3.5 0 
" style="stroke: #9ca3af; stroke-width: 0.8"/>
 </defs>
 <g>
 <use xlink:href="#m5f9e16fb13" x="39.75" y="148.46" style="fill: #9ca3af; stroke: #9ca3af; stroke-width: 0.8"/>
 </g>
 </g>
 <g>
 <text style="fill: #9ca3af; font: 7px 'DejaVu Sans', 'Bitstream Vera Sans', 'Computer Modern Sans Serif', 'Lucida Grande', 'Verdana', 'Geneva', 'Lucid', 'Arial', 'Helvetica', 'Avant Garde', sans-serif; text-anchor: end" x="32.75" y="151.12" transform="rotate(-0 32.75 151.12)">−10</text>
 </g>
 </g>
 <g>
 <g>
 <path d="M 39.75 113.81 
L 235.05 113.81 
" style="fill: none; stroke: #e5e7eb; stroke-opacity: 0.6; stroke-width: 0.5; stroke-linecap: square"/>
 </g>
 <g>
 <g>
 <use xlink:href="#m5f9e16fb13" x="39.75" y="113.81" style="fill: #9ca3af; stroke: #9ca3af; stroke-width: 0.8"/>
 </g>
 </g>
 <g>
 <text style="fill: #9ca3af; font: 7px 'DejaVu Sans', 'Bitstream Vera Sans', 'Computer Modern Sans Serif', 'Lucida Grande', 'Verdana', 'Geneva', 'Lucid', 'Arial', 'Helvetica', 'Avant Garde', sans-serif; text-anchor: end" x="32.75" y="116.47" transform="rotate(-0 32.75 116.47)">−5</text>
 </g>
 </g>
 <g>
 <g>
 <path d="M 39.75 79.16 
L 235.05 79.16 
" style="fill: none; stroke: #e5e7eb; stroke-opacity: 0.6; stroke-width: 0.5; stroke-linecap: square"/>
 </g>
 <g>
 <g>
 <use xlink:href="#m5f9e16fb13" x="39.75" y="79.16" style="fill: #9ca3af; stroke: #9ca3af; stroke-width: 0.8"/>
 </g>
 </g>
 <g>
 <text style="fill: #9ca3af; font: 7px 'DejaVu Sans', 'Bitstream Vera Sans', 'Computer Modern Sans Serif', 'Lucida Grande', 'Verdana', 'Geneva', 'Lucid', 'Arial', 'Helvetica', 'Avant Garde', sans-serif; text-anchor: end" x="32.75" y="81.82" transform="rotate(-0 32.75 81.82)">0</text>
 </g>
 </g>
 <g>
 <g>
 <path d="M 39.75 44.51 
L 235.05 44.51 
" style="fill: none; stroke: #e5e7eb; stroke-opacity: 0.6; stroke-width: 0.5; stroke-linecap: square"/>
 </g>
 <g>
 <g>
 <use xlink:href="#m5f9e16fb13" x="39.75" y="44.51" style="fill: #9ca3af; stroke: #9ca3af; stroke-width: 0.8"/>
 </g>
 </g>
 <g>
 <text style="fill: #9ca3af; font: 7px 'DejaVu Sans', 'Bitstream Vera Sans', 'Computer Modern Sans Serif', 'Lucida Grande', 'Verdana', 'Geneva', 'Lucid', 'Arial', 'Helvetica', 'Avant Garde', sans-serif; text-anchor: end" x="32.75" y="47.17" transform="rotate(-0 32.75 47.17)">5</text>
 </g>
 </g>
 <g>
 <g>
 <path d="M 39.75 9.86 
L 235.05 9.86 
" style="fill: none; stroke: #e5e7eb; stroke-opacity: 0.6; stroke-width: 0.5; stroke-linecap: square"/>
 </g>
 <g>
 <g>
 <use xlink:href="#m5f9e16fb13" x="39.75" y="9.86" style="fill: #9ca3af; stroke: #9ca3af; stroke-width: 0.8"/>
 </g>
 </g>
 <g>
 <text style="fill: #9ca3af; font: 7px 'DejaVu Sans', 'Bitstream Vera Sans', 'Computer Modern Sans Serif', 'Lucida Grande', 'Verdana', 'Geneva', 'Lucid', 'Arial', 'Helvetica', 'Avant Garde', sans-serif; text-anchor: end" x="32.75" y="12.52" transform="rotate(-0 32.75 12.52)">10</text>
 </g>
 </g>
 <g>
 <text style="fill: #9ca3af; font: 7px 'DejaVu Sans', 'Bitstream Vera Sans', 'Computer Modern Sans Serif', 'Lucida Grande', 'Verdana', 'Geneva', 'Lucid', 'Arial', 'Helvetica', 'Avant Garde', sans-serif; text-anchor: middle" x="12.52" y="79.16" transform="rotate(-90 12.52 79.16)">y</text>
 </g>
 </g>
 <g>
 <path d="M 99.68 181.21 
L 101.55 178.55 
L 104.02 175.04 
L 106.50 171.53 
L 108.97 168.02 
L 111.44 164.51 
L 113.91 161.00 
L 116.38 157.49 
L 118.86 153.99 
L 121.33 150.48 
L 123.80 146.97 
L 126.27 143.46 
L 128.75 139.95 
L 131.22 136.44 
L 133.69 132.93 
L 136.16 129.42 
L 138.63 125.92 
L 141.11 122.41 
L 143.58 118.90 
L 146.05 115.39 
L 148.52 111.88 
L 150.99 108.37 
L 153.47 104.86 
L 155.94 101.35 
L 158.41 97.84 
L 160.88 94.34 
L 163.36 90.83 
L 165.83 87.32 
L 168.30 83.81 
L 170.77 80.30 
L 173.24 76.79 
L 175.72 73.28 
L 178.19 69.77 
L 180.66 66.26 
L 183.13 62.76 
L 185.60 59.25 
L 188.08 55.74 
L 190.55 52.23 
L 193.02 48.72 
L 195.49 45.21 
L 197.97 41.70 
L 200.44 38.19 
L 202.91 34.68 
L 205.38 31.18 
L 207.85 27.67 
L 210.33 24.16 
L 212.80 20.65 
L 215.27 17.14 
L 217.74 13.63 
L 220.22 10.12 
L 222.69 6.61 
L 225.16 3.10 
L 227.63 -0.40 
L 228.05 -1 
" style="fill: none; stroke: #2563eb; stroke-width: 1.8; stroke-linecap: square"/>
 </g>
 <g>
 <path d="M 42.43 181.21 
L 44.69 179.60 
L 47.16 177.85 
L 49.64 176.09 
L 52.11 174.34 
L 54.58 172.58 
L 57.05 170.83 
L 59.53 169.07 
L 62.00 167.32 
L 64.47 165.57 
L 66.94 163.81 
L 69.41 162.06 
L 71.89 160.30 
L 74.36 158.55 
L 76.83 156.79 
L 79.30 155.04 
L 81.77 153.28 
L 84.25 151.53 
L 86.72 149.78 
L 89.19 148.02 
L 91.66 146.27 
L 94.14 144.51 
L 96.61 142.76 
L 99.08 141.00 
L 101.55 139.25 
L 104.02 137.49 
L 106.50 135.74 
L 108.97 133.99 
L 111.44 132.23 
L 113.91 130.48 
L 116.38 128.72 
L 118.86 126.97 
L 121.33 125.21 
L 123.80 123.46 
L 126.27 121.70 
L 128.75 119.95 
L 131.22 118.20 
L 133.69 116.44 
L 136.16 114.69 
L 138.63 112.93 
L 141.11 111.18 
L 143.58 109.42 
L 146.05 107.67 
L 148.52 105.91 
L 150.99 104.16 
L 153.47 102.41 
L 155.94 100.65 
L 158.41 98.90 
L 160.88 97.14 
L 163.36 95.39 
L 165.83 93.63 
L 168.30 91.88 
L 170.77 90.12 
L 173.24 88.37 
L 175.72 86.62 
L 178.19 84.86 
L 180.66 83.11 
L 183.13 81.35 
L 185.60 79.60 
L 188.08 77.84 
L 190.55 76.09 
L 193.02 74.33 
L 195.49 72.58 
L 197.97 70.83 
L 200.44 69.07 
L 202.91 67.32 
L 205.38 65.56 
L 207.85 63.81 
L 210.33 62.05 
L 212.80 60.30 
L 215.27 58.54 
L 217.74 56.79 
L 220.22 55.04 
L 222.69 53.28 
L 225.16 51.53 
L 227.63 49.77 
L 230.10 48.02 
L 232.58 46.26 
L 235.05 44.51 
" style="fill: none; stroke: #16a34a; stroke-width: 1.8; stroke-linecap: square"/>
 </g>
 <g>
 <path d="M 39.75 148.46 
L 39.75 9.86 
" style="fill: none; stroke: #9ca3af; stroke-width: 0.6; stroke-linejoin: miter; stroke-linecap: square"/>
 </g>
 <g>
 <path d="M 235.05 148.46 
L 235.05 9.86 
" style="fill: none; stroke: #9ca3af; stroke-width: 0.6; stroke-linejoin: miter; stroke-linecap: square"/>
 </g>
 <g>
 <path d="M 39.75 148.46 
L 235.05 148.46 
" style="fill: none; stroke: #9ca3af; stroke-width: 0.6; stroke-linejoin: miter; stroke-linecap: square"/>
 </g>
 <g>
 <path d="M 39.75 9.86 
L 235.05 9.86 
" style="fill: none; stroke: #9ca3af; stroke-width: 0.6; stroke-linejoin: miter; stroke-linecap: square"/>
 </g>
 <g>
 <text style="fill: #111827; font: 700 6.5px 'DejaVu Sans', 'Bitstream Vera Sans', 'Computer Modern Sans Serif', 'Lucida Grande', 'Verdana', 'Geneva', 'Lucid', 'Arial', 'Helvetica', 'Avant Garde', sans-serif; text-anchor: start" x="161.93" y="91.95" transform="rotate(-0 161.93 91.95)">(2, -3)</text>
 </g>
 <g>
 <defs>
 <path d="M 0 2.5 
C 0.66 2.5 1.30 2.24 1.77 1.77 
C 2.24 1.30 2.5 0.66 2.5 0 
C 2.5 -0.66 2.24 -1.30 1.77 -1.77 
C 1.30 -2.24 0.66 -2.5 0 -2.5 
C -0.66 -2.5 -1.30 -2.24 -1.77 -1.77 
C -2.24 -1.30 -2.5 -0.66 -2.5 0 
C -2.5 0.66 -2.24 1.30 -1.77 1.77 
C -1.30 2.24 -0.66 2.5 0 2.5 
z
" style="stroke: #111827"/>
 </defs>
 <g>
 <use xlink:href="#mfdcc151376" x="156.93" y="99.95" style="fill: #111827; stroke: #111827"/>
 </g>
 </g>
 </g>
 </g>
 <defs>
 </defs>
</svg>