<?xml version="1.0" encoding="utf-8" standalone="no"?>
<!DOCTYPE svg PUBLIC "-//W3C//DTD SVG 1.1//EN"
 "http://www.w3.org/Graphics/SVG/1.1/DTD/svg11.dtd">
<svg xmlns:xlink="http://www.w3.org/1999/xlink" width="246.70pt" height="180.21pt" viewBox="0 0 246.70 180.21" xmlns="http://www.w3.org/2000/svg" version="1.1">
 <g>
 <g>
 <path d="M 0 180.21 
L 246.70 180.21 
L 246.70 0 
L 0 0 
L 0 180.21 
z
" style="fill: none"/>
 </g>
 <g>
 <g>
 <path d="M 39.75 148.46 
L 235.05 148.46 
L 235.05 9.86 
L 39.75 9.86 
L 39.75 148.46 
z
" style="fill: none"/>
 </g>
 <g>
 <g>
 <g>
 <path d="M 39.75 148.46 
L 39.75 9.86 
" style="fill: none; stroke: #e5e7eb; stroke-opacity: 0.6; stroke-width: 0.5; stroke-linecap: square"/>
 </g>
 <g>
 <defs>
 <path d="M 0 0 
L 0 3.5 
" style="stroke: #9ca3af; stroke-width: 0.8"/>
 </defs>
 <g>
 <use xlink:href="#mfe8641f365" x="39.75" y="148.46" style="fill: #9ca3af; stroke: #9ca3af; stroke-width: 0.8"/>
 </g>
 </g>
 <g>
 <text style="fill: #9ca3af; font: 7px 'DejaVu Sans', 'Bitstream Vera Sans', 'Computer Modern Sans Serif', 'Lucida Grande', 'Verdana', 'Geneva', 'Lucid', 'Arial', 'Helvetica', 'Avant Garde', sans-serif; text-anchor: middle" x="39.75" y="160.78" transform="rotate(-0 39.75 160.78)">−10</text>
 </g>
 </g>
 <g>
 <g>
 <path d="M 88.57 148.46 
L 88.57 9.86 
" style="fill: none; stroke: #e5e7eb; stroke-opacity: 0.6; stroke-width: 0.5; stroke-linecap: square"/>
 </g>
 <g>
 <g>
 <use xlink:href="#mfe8641f365" x="88.57" y="148.46" style="fill: #9ca3af; stroke: #9ca3af; stroke-width: 0.8"/>
 </g>
 </g>
 <g>
 <text style="fill: #9ca3af; font: 7px 'DejaVu Sans', 'Bitstream Vera Sans', 'Computer Modern Sans Serif', 'Lucida Grande', 'Verdana', 'Geneva', 'Lucid', 'Arial', 'Helvetica', 'Avant Garde', sans-serif; text-anchor: middle" x="88.57" y="160.78" transform="rotate(-0 88.57 160.78)">−5</text>
 </g>
 </g>
 <g>
 <g>
 <path d="M 137.40 148.46 
L 137.40 9.86 
" style="fill: none; stroke: #e5e7eb; stroke-opacity: 0.6; stroke-width: 0.5; stroke-linecap: square"/>
 </g>
 <g>
 <g>
 <use xlink:href="#mfe8641f365" x="137.40" y="148.46" style="fill: #9ca3af; stroke: #9ca3af; stroke-width: 0.8"/>
 </g>
 </g>
 <g>
 <text style="fill: #9ca3af; font: 7px 'DejaVu Sans', 'Bitstream Vera Sans', 'Computer Modern Sans Serif', 'Lucida Grande', 'Verdana', 'Geneva', 'Lucid', 'Arial', 'Helvetica', 'Avant Garde', sans-serif; text-anchor: middle" x="137.40" y="160.78" transform="rotate(-0 137.40 160.78)">0</text>
 </g>
 </g>
 <g>
 <g>
 <path d="M 186.22 148.46 
L 186.22 9.86 
" style="fill: none; stroke: #e5e7eb; stroke-opacity: 0.6; stroke-width: 0.5; stroke-linecap: square"/>
 </g>
 <g>
 <g>
 <use xlink:href="#mfe8641f365" x="186.22" y="148.46" style="fill: #9ca3af; stroke: #9ca3af; stroke-width: 0.8"/>
 </g>
 </g>
 <g>
 <text style="fill: #9ca3af; font: 7px 'DejaVu Sans', 'Bitstream Vera Sans', 'Computer Modern Sans Serif', 'Lucida Grande', 'Verdana', 'Geneva', 'Lucid', 'Arial', 'Helvetica', 'Avant Garde', sans-serif; text-anchor: middle" x="186.22" y="160.78" transform="rotate(-0 186.22 160.78)">5</text>
 </g>
 </g>
 <g>
 <g>
 <path d="M 235.05 148.46 
L 235.05 9.86 
" style="fill: none; stroke: #e5e7eb; stroke-opacity: 0.6; stroke-width: 0.5; stroke-linecap: square"/>
 </g>
 <g>
 <g>
 <use xlink:href="#mfe8641f365" x="235.05" y="148.46" style="fill: #9ca3af; stroke: #9ca3af; stroke-width: 0.8"/>
 </g>
 </g>
 <g>
 <text style="fill: #9ca3af; font: 7px 'DejaVu Sans', 'Bitstream Vera Sans', 'Computer Modern Sans Serif', 'Lucida Grande', 'Verdana', 'Geneva', 'Lucid', 'Arial', 'Helvetica', 'Avant Garde', sans-serif; text-anchor: middle" x="235.05" y="160.78" transform="rotate(-0 235.05 160.78)">10</text>
 </g>
 </g>
 <g>
 <text style="fill: #9ca3af; font: 7px 'DejaVu Sans', 'Bitstream Vera Sans', 'Computer Modern Sans Serif', 'Lucida Grande', 'Verdana', 'Geneva', 'Lucid', 'Arial', 'Helvetica', 'Avant Garde', sans-serif; text-anchor: middle" x="137.40" y="171.55" transform="rotate(-0 137.40 171.55)">x</text>
 </g>
 </g>
 <g>
 <g>
 <g>
 <path d="M 39.75 148.46 
L 235.05 148.46 
" style="fill: none; stroke: #e5e7eb; stroke-opacity: 0.6; stroke-width: 0.5; stroke-linecap: square"/>
 </g>
 <g>
 <defs>
 <path d="M 0 0 
L -3.5 0 
" style="stroke: #9ca3af; stroke-width: 0.8"/>
 </defs>
 <g>
 <use xlink:href="#m58bc2b3a9f" x="39.75" y="148.46" style="fill: #9ca3af; stroke: #9ca3af; stroke-width: 0.8"/>
 </g>
 </g>
 <g>
 <text style="fill: #9ca3af; font: 7px 'DejaVu Sans', 'Bitstream Vera Sans', 'Computer Modern Sans Serif', 'Lucida Grande', 'Verdana', 'Geneva', 'Lucid', 'Arial', 'Helvetica', 'Avant Garde', sans-serif; text-anchor: end" x="32.75" y="151.12" transform="rotate(-0 32.75 151.12)">−10</text>
 </g>
 </g>
 <g>
 <g>
 <path d="M 39.75 113.81 
L 235.05 113.81 
" style="fill: none; stroke: #e5e7eb; stroke-opacity: 0.6; stroke-width: 0.5; stroke-linecap: square"/>
 </g>
 <g>
 <g>
 <use xlink:href="#m58bc2b3a9f" x="39.75" y="113.81" style="fill: #9ca3af; stroke: #9ca3af; stroke-width: 0.8"/>
 </g>
 </g>
 <g>
 <text style="fill: #9ca3af; font: 7px 'DejaVu Sans', 'Bitstream Vera Sans', 'Computer Modern Sans Serif', 'Lucida Grande', 'Verdana', 'Geneva', 'Lucid', 'Arial', 'Helvetica', 'Avant Garde', sans-serif; text-anchor: end" x="32.75" y="116.47" transform="rotate(-0 32.75 116.47)">−5</text>
 </g>
 </g>
 <g>
 <g>
 <path d="M 39.75 79.16 
L 235.05 79.16 
" style="fill: none; stroke: #e5e7eb; stroke-opacity: 0.6; stroke-width: 0.5; stroke-linecap: square"/>
 </g>
 <g>
 <g>
 <use xlink:href="#m58bc2b3a9f" x="39.75" y="79.16" style="fill: #9ca3af; stroke: #9ca3af; stroke-width: 0.8"/>
 </g>
 </g>
 <g>
 <text style="fill: #9ca3af; font: 7px 'DejaVu Sans', 'Bitstream Vera Sans', 'Computer Modern Sans Serif', 'Lucida Grande', 'Verdana', 'Geneva', 'Lucid', 'Arial', 'Helvetica', 'Avant Garde', sans-serif; text-anchor: end" x="32.75" y="81.82" transform="rotate(-0 32.75 81.82)">0</text>
 </g>
 </g>
 <g>
 <g>
 <path d="M 39.75 44.51 
L 235.05 44.51 
" style="fill: none; stroke: #e5e7eb; stroke-opacity: 0.6; stroke-width: 0.5; stroke-linecap: square"/>
 </g>
 <g>
 <g>
 <use xlink:href="#m58bc2b3a9f" x="39.75" y="44.51" style="fill: #9ca3af; stroke: #9ca3af; stroke-width: 0.8"/>
 </g>
 </g>
 <g>
 <text style="fill: #9ca3af; font: 7px 'DejaVu Sans', 'Bitstream Vera Sans', 'Computer Modern Sans Serif', 'Lucida Grande', 'Verdana', 'Geneva', 'Lucid', 'Arial', 'Helvetica', 'Avant Garde', sans-serif; text-anchor: end" x="32.75" y="47.17" transform="rotate(-0 32.75 47.17)">5</text>
 </g>
 </g>
 <g>
 <g>
 <path d="M 39.75 9.86 
L 235.05 9.86 
" style="fill: none; stroke: #e5e7eb; stroke-opacity: 0.6; stroke-width: 0.5; stroke-linecap: square"/>
 </g>
 <g>
 <g>
 <use xlink:href="#m58bc2b3a9f" x="39.75" y="9.86" style="fill: #9ca3af; stroke: #9ca3af; stroke-width: 0.8"/>
 </g>
 </g>
 <g>
 <text style="fill: #9ca3af; font: 7px 'DejaVu Sans', 'Bitstream Vera Sans', 'Computer Modern Sans Serif', 'Lucida Grande', 'Verdana', 'Geneva', 'Lucid', 'Arial', 'Helvetica', 'Avant Garde', sans-serif; text-anchor: end" x="32.75" y="12.52" transform="rotate(-0 32.75 12.52)">10</text>
 </g>
 </g>
 <g>
 <text style="fill: #9ca3af; font: 7px 'DejaVu Sans', 'Bitstream Vera Sans', 'Computer Modern Sans Serif', 'Lucida Grande', 'Verdana', 'Geneva', 'Lucid', 'Arial', 'Helvetica', 'Avant Garde', sans-serif; text-anchor: middle" x="12.52" y="79.16" transform="rotate(-90 12.52 79.16)">y</text>
 </g>
 </g>
 <g>
 <path d="M 39.75 93.02 
L 42.22 93.60 
L 44.69 94.19 
L 47.16 94.77 
L 49.64 95.36 
L 52.11 95.94 
L 54.58 96.53 
L 57.05 97.11 
L 59.53 97.70 
L 62.00 98.28 
L 64.47 98.87 
L 66.94 99.45 
L 69.41 100.04 
L 71.89 100.62 
L 74.36 101.21 
L 76.83 101.79 
L 79.30 102.38 
L 81.77 102.96 
L 84.25 103.55 
L 86.72 104.13 
L 89.19 104.72 
L 91.66 105.30 
L 94.14 105.89 
L 96.61 106.47 
L 99.08 107.05 
L 101.55 107.64 
L 104.02 108.22 
L 106.50 108.81 
L 108.97 109.39 
L 111.44 109.98 
L 113.91 110.56 
L 116.38 111.15 
L 118.86 111.73 
L 121.33 112.32 
L 123.80 112.90 
L 126.27 113.49 
L 128.75 114.07 
L 131.22 114.66 
L 133.69 115.24 
L 136.16 115.83 
L 138.63 116.41 
L 141.11 117.00 
L 143.58 117.58 
L 146.05 118.17 
L 148.52 118.75 
L 150.99 119.34 
L 153.47 119.92 
L 155.94 120.51 
L 158.41 121.09 
L 160.88 121.68 
L 163.36 122.26 
L 165.83 122.84 
L 168.30 123.43 
L 170.77 124.01 
L 173.24 124.60 
L 175.72 125.18 
L 178.19 125.77 
L 180.66 126.35 
L 183.13 126.94 
L 185.60 127.52 
L 188.08 128.11 
L 190.55 128.69 
L 193.02 129.28 
L 195.49 129.86 
L 197.97 130.45 
L 200.44 131.03 
L 202.91 131.62 
L 205.38 132.20 
L 207.85 132.79 
L 210.33 133.37 
L 212.80 133.96 
L 215.27 134.54 
L 217.74 135.13 
L 220.22 135.71 
L 222.69 136.30 
L 225.16 136.88 
L 227.63 137.47 
L 230.10 138.05 
L 232.58 138.63 
L 235.05 139.22 
" style="fill: none; stroke: #2563eb; stroke-width: 1.8; stroke-linecap: square"/>
 </g>
 <g>
 <path d="M 39.75 79.16 
L 42.22 80.33 
L 44.69 81.50 
L 47.16 82.67 
L 49.64 83.84 
L 52.11 85.01 
L 54.58 86.18 
L 57.05 87.35 
L 59.53 88.52 
L 62.00 89.69 
L 64.47 90.86 
L 66.94 92.03 
L 69.41 93.19 
L 71.89 94.36 
L 74.36 95.53 
L 76.83 96.70 
L 79.30 97.87 
L 81.77 99.04 
L 84.25 100.21 
L 86.72 101.38 
L 89.19 102.55 
L 91.66 103.72 
L 94.14 104.89 
L 96.61 106.06 
L 99.08 107.23 
L 101.55 108.40 
L 104.02 109.57 
L 106.50 110.74 
L 108.97 111.91 
L 111.44 113.08 
L 113.91 114.25 
L 116.38 115.42 
L 118.86 116.59 
L 121.33 117.76 
L 123.80 118.93 
L 126.27 120.10 
L 128.75 121.27 
L 131.22 122.44 
L 133.69 123.61 
L 136.16 124.77 
L 138.63 125.94 
L 141.11 127.11 
L 143.58 128.28 
L 146.05 129.45 
L 148.52 130.62 
L 150.99 131.79 
L 153.47 132.96 
L 155.94 134.13 
L 158.41 135.30 
L 160.88 136.47 
L 163.36 137.64 
L 165.83 138.81 
L 168.30 139.98 
L 170.77 141.15 
L 173.24 142.32 
L 175.72 143.49 
L 178.19 144.66 
L 180.66 145.83 
L 183.13 147.00 
L 185.60 148.17 
L 188.08 149.34 
L 190.55 150.51 
L 193.02 151.68 
L 195.49 152.85 
L 197.97 154.02 
L 200.44 155.18 
L 202.91 156.35 
L 205.38 157.52 
L 207.85 158.69 
L 210.33 159.86 
L 212.80 161.03 
L 215.27 162.20 
L 217.74 163.37 
L 220.22 164.54 
L 222.69 165.71 
L 225.16 166.88 
L 227.63 168.05 
L 230.10 169.22 
L 232.58 170.39 
L 235.05 171.56 
" style="fill: none; stroke: #16a34a; stroke-width: 1.8; stroke-linecap: square"/>
 </g>
 <g>
 <path d="M 39.75 148.46 
L 39.75 9.86 
" style="fill: none; stroke: #9ca3af; stroke-width: 0.6; stroke-linejoin: miter; stroke-linecap: square"/>
 </g>
 <g>
 <path d="M 235.05 148.46 
L 235.05 9.86 
" style="fill: none; stroke: #9ca3af; stroke-width: 0.6; stroke-linejoin: miter; stroke-linecap: square"/>
 </g>
 <g>
 <path d="M 39.75 148.46 
L 235.05 148.46 
" style="fill: none; stroke: #9ca3af; stroke-width: 0.6; stroke-linejoin: miter; stroke-linecap: square"/>
 </g>
 <g>
 <path d="M 39.75 9.86 
L 235.05 9.86 
" style="fill: none; stroke: #9ca3af; stroke-width: 0.6; stroke-linejoin: miter; stroke-linecap: square"/>
 </g>
 <g>
 <text style="fill: #111827; font: 700 6.5px 'DejaVu Sans', 'Bitstream Vera Sans', 'Computer Modern Sans Serif', 'Lucida Grande', 'Verdana', 'Geneva', 'Lucid', 'Arial', 'Helvetica', 'Avant Garde', sans-serif; text-anchor: start" x="103.34" y="98.88" transform="rotate(-0 103.34 98.88)">(-4, -4)</text>
 </g>
 <g>
 <defs>
 <path d="M 0 2.5 
C 0.66 2.5 1.30 2.24 1.77 1.77 
C 2.24 1.30 2.5 0.66 2.5 0 
C 2.5 -0.66 2.24 -1.30 1.77 -1.77 
C 1.30 -2.24 0.66 -2.5 0 -2.5 
C -0.66 -2.5 -1.30 -2.24 -1.77 -1.77 
C -2.24 -1.30 -2.5 -0.66 -2.5 0 
C -2.5 0.66 -2.24 1.30 -1.77 1.77 
C -1.30 2.24 -0.66 2.5 0 2.5 
z
" style="stroke: #111827"/>
 </defs>
 <g>
 <use xlink:href="#m5a5b2b6f3b" x="98.34" y="106.88" style="fill: #111827; stroke: #111827"/>
 </g>
 </g>
 </g>
 </g>
 <defs>
 </defs>
</svg>