<?xml version="1.0" encoding="utf-8" standalone="no"?>
<!DOCTYPE svg PUBLIC "-//W3C//DTD SVG 1.1//EN"
 "http://www.w3.org/Graphics/SVG/1.1/DTD/svg11.dtd">
<svg xmlns:xlink="http://www.w3.org/1999/xlink" width="246.70pt" height="180.21pt" viewBox="0 0 246.70 180.21" xmlns="http://www.w3.org/2000/svg" version="1.1">
 <g>
 <g>
 <path d="M 0 180.21 
L 246.70 180.21 
L 246.70 0 
L 0 0 
L 0 180.21 
z
" style="fill: none"/>
 </g>
 <g>
 <g>
 <path d="M 39.75 148.46 
L 235.05 148.46 
L 235.05 9.86 
L 39.75 9.86 
L 39.75 148.46 
z
" style="fill: none"/>
 </g>
 <g>
 <g>
 <g>
 <path d="M 39.75 148.46 
L 39.75 9.86 
" style="fill: none; stroke: #e5e7eb; stroke-opacity: 0.6; stroke-width: 0.5; stroke-linecap: square"/>
 </g>
 <g>
 <defs>
 <path d="M 0 0 
L 0 3.5 
" style="stroke: #9ca3af; stroke-width: 0.8"/>
 </defs>
 <g>
 <use xlink:href="#m6c351e5ea7" x="39.75" y="148.46" style="fill: #9ca3af; stroke: #9ca3af; stroke-width: 0.8"/>
 </g>
 </g>
 <g>
 <text style="fill: #9ca3af; font: 7px 'DejaVu Sans', 'Bitstream Vera Sans', 'Computer Modern Sans Serif', 'Lucida Grande', 'Verdana', 'Geneva', 'Lucid', 'Arial', 'Helvetica', 'Avant Garde', sans-serif; text-anchor: middle" x="39.75" y="160.78" transform="rotate(-0 39.75 160.78)">−10</text>
 </g>
 </g>
 <g>
 <g>
 <path d="M 88.57 148.46 
L 88.57 9.86 
" style="fill: none; stroke: #e5e7eb; stroke-opacity: 0.6; stroke-width: 0.5; stroke-linecap: square"/>
 </g>
 <g>
 <g>
 <use xlink:href="#m6c351e5ea7" x="88.57" y="148.46" style="fill: #9ca3af; stroke: #9ca3af; stroke-width: 0.8"/>
 </g>
 </g>
 <g>
 <text style="fill: #9ca3af; font: 7px 'DejaVu Sans', 'Bitstream Vera Sans', 'Computer Modern Sans Serif', 'Lucida Grande', 'Verdana', 'Geneva', 'Lucid', 'Arial', 'Helvetica', 'Avant Garde', sans-serif; text-anchor: middle" x="88.57" y="160.78" transform="rotate(-0 88.57 160.78)">−5</text>
 </g>
 </g>
 <g>
 <g>
 <path d="M 137.40 148.46 
L 137.40 9.86 
" style="fill: none; stroke: #e5e7eb; stroke-opacity: 0.6; stroke-width: 0.5; stroke-linecap: square"/>
 </g>
 <g>
 <g>
 <use xlink:href="#m6c351e5ea7" x="137.40" y="148.46" style="fill: #9ca3af; stroke: #9ca3af; stroke-width: 0.8"/>
 </g>
 </g>
 <g>
 <text style="fill: #9ca3af; font: 7px 'DejaVu Sans', 'Bitstream Vera Sans', 'Computer Modern Sans Serif', 'Lucida Grande', 'Verdana', 'Geneva', 'Lucid', 'Arial', 'Helvetica', 'Avant Garde', sans-serif; text-anchor: middle" x="137.40" y="160.78" transform="rotate(-0 137.40 160.78)">0</text>
 </g>
 </g>
 <g>
 <g>
 <path d="M 186.22 148.46 
L 186.22 9.86 
" style="fill: none; stroke: #e5e7eb; stroke-opacity: 0.6; stroke-width: 0.5; stroke-linecap: square"/>
 </g>
 <g>
 <g>
 <use xlink:href="#m6c351e5ea7" x="186.22" y="148.46" style="fill: #9ca3af; stroke: #9ca3af; stroke-width: 0.8"/>
 </g>
 </g>
 <g>
 <text style="fill: #9ca3af; font: 7px 'DejaVu Sans', 'Bitstream Vera Sans', 'Computer Modern Sans Serif', 'Lucida Grande', 'Verdana', 'Geneva', 'Lucid', 'Arial', 'Helvetica', 'Avant Garde', sans-serif; text-anchor: middle" x="186.22" y="160.78" transform="rotate(-0 186.22 160.78)">5</text>
 </g>
 </g>
 <g>
 <g>
 <path d="M 235.05 148.46 
L 235.05 9.86 
" style="fill: none; stroke: #e5e7eb; stroke-opacity: 0.6; stroke-width: 0.5; stroke-linecap: square"/>
 </g>
 <g>
 <g>
 <use xlink:href="#m6c351e5ea7" x="235.05" y="148.46" style="fill: #9ca3af; stroke: #9ca3af; stroke-width: 0.8"/>
 </g>
 </g>
 <g>
 <text style="fill: #9ca3af; font: 7px 'DejaVu Sans', 'Bitstream Vera Sans', 'Computer Modern Sans Serif', 'Lucida Grande', 'Verdana', 'Geneva', 'Lucid', 'Arial', 'Helvetica', 'Avant Garde', sans-serif; text-anchor: middle" x="235.05" y="160.78" transform="rotate(-0 235.05 160.78)">10</text>
 </g>
 </g>
 <g>
 <text style="fill: #9ca3af; font: 7px 'DejaVu Sans', 'Bitstream Vera Sans', 'Computer Modern Sans Serif', 'Lucida Grande', 'Verdana', 'Geneva', 'Lucid', 'Arial', 'Helvetica', 'Avant Garde', sans-serif; text-anchor: middle" x="137.40" y="171.55" transform="rotate(-0 137.40 171.55)">x</text>
 </g>
 </g>
 <g>
 <g>
 <g>
 <path d="M 39.75 148.46 
L 235.05 148.46 
" style="fill: none; stroke: #e5e7eb; stroke-opacity: 0.6; stroke-width: 0.5; stroke-linecap: square"/>
 </g>
 <g>
 <defs>
 <path d="M 0 0 
L -3.5 0 
" style="stroke: #9ca3af; stroke-width: 0.8"/>
 </defs>
 <g>
 <use xlink:href="#m6d30926467" x="39.75" y="148.46" style="fill: #9ca3af; stroke: #9ca3af; stroke-width: 0.8"/>
 </g>
 </g>
 <g>
 <text style="fill: #9ca3af; font: 7px 'DejaVu Sans', 'Bitstream Vera Sans', 'Computer Modern Sans Serif', 'Lucida Grande', 'Verdana', 'Geneva', 'Lucid', 'Arial', 'Helvetica', 'Avant Garde', sans-serif; text-anchor: end" x="32.75" y="151.12" transform="rotate(-0 32.75 151.12)">−10</text>
 </g>
 </g>
 <g>
 <g>
 <path d="M 39.75 113.81 
L 235.05 113.81 
" style="fill: none; stroke: #e5e7eb; stroke-opacity: 0.6; stroke-width: 0.5; stroke-linecap: square"/>
 </g>
 <g>
 <g>
 <use xlink:href="#m6d30926467" x="39.75" y="113.81" style="fill: #9ca3af; stroke: #9ca3af; stroke-width: 0.8"/>
 </g>
 </g>
 <g>
 <text style="fill: #9ca3af; font: 7px 'DejaVu Sans', 'Bitstream Vera Sans', 'Computer Modern Sans Serif', 'Lucida Grande', 'Verdana', 'Geneva', 'Lucid', 'Arial', 'Helvetica', 'Avant Garde', sans-serif; text-anchor: end" x="32.75" y="116.47" transform="rotate(-0 32.75 116.47)">−5</text>
 </g>
 </g>
 <g>
 <g>
 <path d="M 39.75 79.16 
L 235.05 79.16 
" style="fill: none; stroke: #e5e7eb; stroke-opacity: 0.6; stroke-width: 0.5; stroke-linecap: square"/>
 </g>
 <g>
 <g>
 <use xlink:href="#m6d30926467" x="39.75" y="79.16" style="fill: #9ca3af; stroke: #9ca3af; stroke-width: 0.8"/>
 </g>
 </g>
 <g>
 <text style="fill: #9ca3af; font: 7px 'DejaVu Sans', 'Bitstream Vera Sans', 'Computer Modern Sans Serif', 'Lucida Grande', 'Verdana', 'Geneva', 'Lucid', 'Arial', 'Helvetica', 'Avant Garde', sans-serif; text-anchor: end" x="32.75" y="81.82" transform="rotate(-0 32.75 81.82)">0</text>
 </g>
 </g>
 <g>
 <g>
 <path d="M 39.75 44.51 
L 235.05 44.51 
" style="fill: none; stroke: #e5e7eb; stroke-opacity: 0.6; stroke-width: 0.5; stroke-linecap: square"/>
 </g>
 <g>
 <g>
 <use xlink:href="#m6d30926467" x="39.75" y="44.51" style="fill: #9ca3af; stroke: #9ca3af; stroke-width: 0.8"/>
 </g>
 </g>
 <g>
 <text style="fill: #9ca3af; font: 7px 'DejaVu Sans', 'Bitstream Vera Sans', 'Computer Modern Sans Serif', 'Lucida Grande', 'Verdana', 'Geneva', 'Lucid', 'Arial', 'Helvetica', 'Avant Garde', sans-serif; text-anchor: end" x="32.75" y="47.17" transform="rotate(-0 32.75 47.17)">5</text>
 </g>
 </g>
 <g>
 <g>
 <path d="M 39.75 9.86 
L 235.05 9.86 
" style="fill: none; stroke: #e5e7eb; stroke-opacity: 0.6; stroke-width: 0.5; stroke-linecap: square"/>
 </g>
 <g>
 <g>
 <use xlink:href="#m6d30926467" x="39.75" y="9.86" style="fill: #9ca3af; stroke: #9ca3af; stroke-width: 0.8"/>
 </g>
 </g>
 <g>
 <text style="fill: #9ca3af; font: 7px 'DejaVu Sans', 'Bitstream Vera Sans', 'Computer Modern Sans Serif', 'Lucida Grande', 'Verdana', 'Geneva', 'Lucid', 'Arial', 'Helvetica', 'Avant Garde', sans-serif; text-anchor: end" x="32.75" y="12.52" transform="rotate(-0 32.75 12.52)">10</text>
 </g>
 </g>
 <g>
 <text style="fill: #9ca3af; font: 7px 'DejaVu Sans', 'Bitstream Vera Sans', 'Computer Modern Sans Serif', 'Lucida Grande', 'Verdana', 'Geneva', 'Lucid', 'Arial', 'Helvetica', 'Avant Garde', sans-serif; text-anchor: middle" x="12.52" y="79.16" transform="rotate(-90 12.52 79.16)">y</text>
 </g>
 </g>
 <g>
 <path d="M 39.75 16.79 
L 42.22 18.54 
L 44.69 20.30 
L 47.16 22.05 
L 49.64 23.81 
L 52.11 25.56 
L 54.58 27.32 
L 57.05 29.07 
L 59.53 30.82 
L 62.00 32.58 
L 64.47 34.33 
L 66.94 36.09 
L 69.41 37.84 
L 71.89 39.60 
L 74.36 41.35 
L 76.83 43.11 
L 79.30 44.86 
L 81.77 46.61 
L 84.25 48.37 
L 86.72 50.12 
L 89.19 51.88 
L 91.66 53.63 
L 94.14 55.39 
L 96.61 57.14 
L 99.08 58.90 
L 101.55 60.65 
L 104.02 62.40 
L 106.50 64.16 
L 108.97 65.91 
L 111.44 67.67 
L 113.91 69.42 
L 116.38 71.18 
L 118.86 72.93 
L 121.33 74.69 
L 123.80 76.44 
L 126.27 78.19 
L 128.75 79.95 
L 131.22 81.70 
L 133.69 83.46 
L 136.16 85.21 
L 138.63 86.97 
L 141.11 88.72 
L 143.58 90.48 
L 146.05 92.23 
L 148.52 93.98 
L 150.99 95.74 
L 153.47 97.49 
L 155.94 99.25 
L 158.41 101.00 
L 160.88 102.76 
L 163.36 104.51 
L 165.83 106.27 
L 168.30 108.02 
L 170.77 109.77 
L 173.24 111.53 
L 175.72 113.28 
L 178.19 115.04 
L 180.66 116.79 
L 183.13 118.55 
L 185.60 120.30 
L 188.08 122.06 
L 190.55 123.81 
L 193.02 125.56 
L 195.49 127.32 
L 197.97 129.07 
L 200.44 130.83 
L 202.91 132.58 
L 205.38 134.34 
L 207.85 136.09 
L 210.33 137.85 
L 212.80 139.60 
L 215.27 141.35 
L 217.74 143.11 
L 220.22 144.86 
L 222.69 146.62 
L 225.16 148.37 
L 227.63 150.13 
L 230.10 151.88 
L 232.58 153.64 
L 235.05 155.39 
" style="fill: none; stroke: #2563eb; stroke-width: 1.8; stroke-linecap: square"/>
 </g>
 <g>
 <path d="M 39.75 120.74 
L 42.22 117.23 
L 44.69 113.72 
L 47.16 110.21 
L 49.64 106.70 
L 52.11 103.20 
L 54.58 99.69 
L 57.05 96.18 
L 59.53 92.67 
L 62.00 89.16 
L 64.47 85.65 
L 66.94 82.14 
L 69.41 78.63 
L 71.89 75.12 
L 74.36 71.62 
L 76.83 68.11 
L 79.30 64.60 
L 81.77 61.09 
L 84.25 57.58 
L 86.72 54.07 
L 89.19 50.56 
L 91.66 47.05 
L 94.14 43.54 
L 96.61 40.04 
L 99.08 36.53 
L 101.55 33.02 
L 104.02 29.51 
L 106.50 26.00 
L 108.97 22.49 
L 111.44 18.98 
L 113.91 15.47 
L 116.38 11.96 
L 118.86 8.46 
L 121.33 4.95 
L 123.80 1.44 
L 125.52 -1 
" style="fill: none; stroke: #16a34a; stroke-width: 1.8; stroke-linecap: square"/>
 </g>
 <g>
 <path d="M 39.75 148.46 
L 39.75 9.86 
" style="fill: none; stroke: #9ca3af; stroke-width: 0.6; stroke-linejoin: miter; stroke-linecap: square"/>
 </g>
 <g>
 <path d="M 235.05 148.46 
L 235.05 9.86 
" style="fill: none; stroke: #9ca3af; stroke-width: 0.6; stroke-linejoin: miter; stroke-linecap: square"/>
 </g>
 <g>
 <path d="M 39.75 148.46 
L 235.05 148.46 
" style="fill: none; stroke: #9ca3af; stroke-width: 0.6; stroke-linejoin: miter; stroke-linecap: square"/>
 </g>
 <g>
 <path d="M 39.75 9.86 
L 235.05 9.86 
" style="fill: none; stroke: #9ca3af; stroke-width: 0.6; stroke-linejoin: miter; stroke-linecap: square"/>
 </g>
 <g>
 <text style="fill: #111827; font: 700 6.5px 'DejaVu Sans', 'Bitstream Vera Sans', 'Computer Modern Sans Serif', 'Lucida Grande', 'Verdana', 'Geneva', 'Lucid', 'Arial', 'Helvetica', 'Avant Garde', sans-serif; text-anchor: start" x="93.57" y="43.44" transform="rotate(-0 93.57 43.44)">(-5, 4)</text>
 </g>
 <g>
 <defs>
 <path d="M 0 2.5 
C 0.66 2.5 1.30 2.24 1.77 1.77 
C 2.24 1.30 2.5 0.66 2.5 0 
C 2.5 -0.66 2.24 -1.30 1.77 -1.77 
C 1.30 -2.24 0.66 -2.5 0 -2.5 
C -0.66 -2.5 -1.30 -2.24 -1.77 -1.77 
C -2.24 -1.30 -2.5 -0.66 -2.5 0 
C -2.5 0.66 -2.24 1.30 -1.77 1.77 
C -1.30 2.24 -0.66 2.5 0 2.5 
z
" style="stroke: #111827"/>
 </defs>
 <g>
 <use xlink:href="#mf4deb83471" x="88.57" y="51.44" style="fill: #111827; stroke: #111827"/>
 </g>
 </g>
 </g>
 </g>
 <defs>
 </defs>
</svg>