<?xml version="1.0" encoding="utf-8" standalone="no"?>
<!DOCTYPE svg PUBLIC "-//W3C//DTD SVG 1.1//EN"
 "http://www.w3.org/Graphics/SVG/1.1/DTD/svg11.dtd">
<svg xmlns:xlink="http://www.w3.org/1999/xlink" width="244.47pt" height="178.82pt" viewBox="0 0 244.47 178.82" xmlns="http://www.w3.org/2000/svg" version="1.1">
 <g>
 <g>
 <path d="M 0 178.82 
L 244.47 178.82 
L 244.47 0 
L 0 0 
L 0 178.82 
z
" style="fill: none"/>
 </g>
 <g>
 <g>
 <path d="M 41.97 147.07 
L 237.27 147.07 
L 237.27 8.47 
L 41.97 8.47 
L 41.97 147.07 
z
" style="fill: none"/>
 </g>
 <g>
 <g>
 <g>
 <path d="M 60.90 147.07 
L 60.90 8.47 
" style="fill: none; stroke: #e5e7eb; stroke-opacity: 0.6; stroke-width: 0.5; stroke-linecap: square"/>
 </g>
 <g>
 <defs>
 <path d="M 0 0 
L 0 3.5 
" style="stroke: #9ca3af; stroke-width: 0.8"/>
 </defs>
 <g>
 <use xlink:href="#mff4a24b5c2" x="60.90" y="147.07" style="fill: #9ca3af; stroke: #9ca3af; stroke-width: 0.8"/>
 </g>
 </g>
 <g>
 <text style="fill: #9ca3af; font: 7px 'DejaVu Sans', 'Bitstream Vera Sans', 'Computer Modern Sans Serif', 'Lucida Grande', 'Verdana', 'Geneva', 'Lucid', 'Arial', 'Helvetica', 'Avant Garde', sans-serif; text-anchor: middle" x="60.90" y="159.38" transform="rotate(-0 60.90 159.38)">0</text>
 </g>
 </g>
 <g>
 <g>
 <path d="M 105.57 147.07 
L 105.57 8.47 
" style="fill: none; stroke: #e5e7eb; stroke-opacity: 0.6; stroke-width: 0.5; stroke-linecap: square"/>
 </g>
 <g>
 <g>
 <use xlink:href="#mff4a24b5c2" x="105.57" y="147.07" style="fill: #9ca3af; stroke: #9ca3af; stroke-width: 0.8"/>
 </g>
 </g>
 <g>
 <text style="fill: #9ca3af; font: 7px 'DejaVu Sans', 'Bitstream Vera Sans', 'Computer Modern Sans Serif', 'Lucida Grande', 'Verdana', 'Geneva', 'Lucid', 'Arial', 'Helvetica', 'Avant Garde', sans-serif; text-anchor: middle" x="105.57" y="159.38" transform="rotate(-0 105.57 159.38)">2</text>
 </g>
 </g>
 <g>
 <g>
 <path d="M 150.23 147.07 
L 150.23 8.47 
" style="fill: none; stroke: #e5e7eb; stroke-opacity: 0.6; stroke-width: 0.5; stroke-linecap: square"/>
 </g>
 <g>
 <g>
 <use xlink:href="#mff4a24b5c2" x="150.23" y="147.07" style="fill: #9ca3af; stroke: #9ca3af; stroke-width: 0.8"/>
 </g>
 </g>
 <g>
 <text style="fill: #9ca3af; font: 7px 'DejaVu Sans', 'Bitstream Vera Sans', 'Computer Modern Sans Serif', 'Lucida Grande', 'Verdana', 'Geneva', 'Lucid', 'Arial', 'Helvetica', 'Avant Garde', sans-serif; text-anchor: middle" x="150.23" y="159.38" transform="rotate(-0 150.23 159.38)">4</text>
 </g>
 </g>
 <g>
 <g>
 <path d="M 194.90 147.07 
L 194.90 8.47 
" style="fill: none; stroke: #e5e7eb; stroke-opacity: 0.6; stroke-width: 0.5; stroke-linecap: square"/>
 </g>
 <g>
 <g>
 <use xlink:href="#mff4a24b5c2" x="194.90" y="147.07" style="fill: #9ca3af; stroke: #9ca3af; stroke-width: 0.8"/>
 </g>
 </g>
 <g>
 <text style="fill: #9ca3af; font: 7px 'DejaVu Sans', 'Bitstream Vera Sans', 'Computer Modern Sans Serif', 'Lucida Grande', 'Verdana', 'Geneva', 'Lucid', 'Arial', 'Helvetica', 'Avant Garde', sans-serif; text-anchor: middle" x="194.90" y="159.38" transform="rotate(-0 194.90 159.38)">6</text>
 </g>
 </g>
 <g>
 <text style="fill: #9ca3af; font: 7px 'DejaVu Sans', 'Bitstream Vera Sans', 'Computer Modern Sans Serif', 'Lucida Grande', 'Verdana', 'Geneva', 'Lucid', 'Arial', 'Helvetica', 'Avant Garde', sans-serif; text-anchor: middle" x="139.62" y="170.16" transform="rotate(-0 139.62 170.16)">x</text>
 </g>
 </g>
 <g>
 <g>
 <g>
 <path d="M 41.97 121.01 
L 237.27 121.01 
" style="fill: none; stroke: #e5e7eb; stroke-opacity: 0.6; stroke-width: 0.5; stroke-linecap: square"/>
 </g>
 <g>
 <defs>
 <path d="M 0 0 
L -3.5 0 
" style="stroke: #9ca3af; stroke-width: 0.8"/>
 </defs>
 <g>
 <use xlink:href="#m483223abe1" x="41.97" y="121.01" style="fill: #9ca3af; stroke: #9ca3af; stroke-width: 0.8"/>
 </g>
 </g>
 <g>
 <text style="fill: #9ca3af; font: 7px 'DejaVu Sans', 'Bitstream Vera Sans', 'Computer Modern Sans Serif', 'Lucida Grande', 'Verdana', 'Geneva', 'Lucid', 'Arial', 'Helvetica', 'Avant Garde', sans-serif; text-anchor: end" x="34.97" y="123.67" transform="rotate(-0 34.97 123.67)">−7.5</text>
 </g>
 </g>
 <g>
 <g>
 <path d="M 41.97 93.22 
L 237.27 93.22 
" style="fill: none; stroke: #e5e7eb; stroke-opacity: 0.6; stroke-width: 0.5; stroke-linecap: square"/>
 </g>
 <g>
 <g>
 <use xlink:href="#m483223abe1" x="41.97" y="93.22" style="fill: #9ca3af; stroke: #9ca3af; stroke-width: 0.8"/>
 </g>
 </g>
 <g>
 <text style="fill: #9ca3af; font: 7px 'DejaVu Sans', 'Bitstream Vera Sans', 'Computer Modern Sans Serif', 'Lucida Grande', 'Verdana', 'Geneva', 'Lucid', 'Arial', 'Helvetica', 'Avant Garde', sans-serif; text-anchor: end" x="34.97" y="95.88" transform="rotate(-0 34.97 95.88)">−5.0</text>
 </g>
 </g>
 <g>
 <g>
 <path d="M 41.97 65.44 
L 237.27 65.44 
" style="fill: none; stroke: #e5e7eb; stroke-opacity: 0.6; stroke-width: 0.5; stroke-linecap: square"/>
 </g>
 <g>
 <g>
 <use xlink:href="#m483223abe1" x="41.97" y="65.44" style="fill: #9ca3af; stroke: #9ca3af; stroke-width: 0.8"/>
 </g>
 </g>
 <g>
 <text style="fill: #9ca3af; font: 7px 'DejaVu Sans', 'Bitstream Vera Sans', 'Computer Modern Sans Serif', 'Lucida Grande', 'Verdana', 'Geneva', 'Lucid', 'Arial', 'Helvetica', 'Avant Garde', sans-serif; text-anchor: end" x="34.97" y="68.10" transform="rotate(-0 34.97 68.10)">−2.5</text>
 </g>
 </g>
 <g>
 <g>
 <path d="M 41.97 37.65 
L 237.27 37.65 
" style="fill: none; stroke: #e5e7eb; stroke-opacity: 0.6; stroke-width: 0.5; stroke-linecap: square"/>
 </g>
 <g>
 <g>
 <use xlink:href="#m483223abe1" x="41.97" y="37.65" style="fill: #9ca3af; stroke: #9ca3af; stroke-width: 0.8"/>
 </g>
 </g>
 <g>
 <text style="fill: #9ca3af; font: 7px 'DejaVu Sans', 'Bitstream Vera Sans', 'Computer Modern Sans Serif', 'Lucida Grande', 'Verdana', 'Geneva', 'Lucid', 'Arial', 'Helvetica', 'Avant Garde', sans-serif; text-anchor: end" x="34.97" y="40.31" transform="rotate(-0 34.97 40.31)">0.0</text>
 </g>
 </g>
 <g>
 <g>
 <path d="M 41.97 9.86 
L 237.27 9.86 
" style="fill: none; stroke: #e5e7eb; stroke-opacity: 0.6; stroke-width: 0.5; stroke-linecap: square"/>
 </g>
 <g>
 <g>
 <use xlink:href="#m483223abe1" x="41.97" y="9.86" style="fill: #9ca3af; stroke: #9ca3af; stroke-width: 0.8"/>
 </g>
 </g>
 <g>
 <text style="fill: #9ca3af; font: 7px 'DejaVu Sans', 'Bitstream Vera Sans', 'Computer Modern Sans Serif', 'Lucida Grande', 'Verdana', 'Geneva', 'Lucid', 'Arial', 'Helvetica', 'Avant Garde', sans-serif; text-anchor: end" x="34.97" y="12.52" transform="rotate(-0 34.97 12.52)">2.5</text>
 </g>
 </g>
 <g>
 <text style="fill: #9ca3af; font: 7px 'DejaVu Sans', 'Bitstream Vera Sans', 'Computer Modern Sans Serif', 'Lucida Grande', 'Verdana', 'Geneva', 'Lucid', 'Arial', 'Helvetica', 'Avant Garde', sans-serif; text-anchor: middle" x="12.52" y="77.77" transform="rotate(-90 12.52 77.77)">f(x)</text>
 </g>
 </g>
 <g>
 <path d="M 50.98 -1 
L 53.10 22.09 
L 55.34 33.47 
L 57.59 40.95 
L 59.84 46.55 
L 62.09 51.01 
L 64.33 54.72 
L 66.58 57.91 
L 68.83 60.69 
L 71.08 63.16 
L 73.32 65.39 
L 75.57 67.41 
L 77.82 69.27 
L 80.07 70.98 
L 82.31 72.57 
L 84.56 74.05 
L 86.81 75.44 
L 89.06 76.75 
L 91.30 77.98 
L 93.55 79.15 
L 95.80 80.27 
L 98.05 81.33 
L 100.29 82.34 
L 102.54 83.30 
L 104.79 84.23 
L 107.04 85.12 
L 109.28 85.97 
L 111.53 86.80 
L 113.78 87.59 
L 116.02 88.36 
L 118.27 89.10 
L 120.52 89.82 
L 122.77 90.51 
L 125.01 91.19 
L 127.26 91.84 
L 129.51 92.47 
L 131.76 93.09 
L 134.00 93.69 
L 136.25 94.28 
L 138.50 94.85 
L 140.75 95.40 
L 142.99 95.95 
L 145.24 96.48 
L 147.49 96.99 
L 149.74 97.50 
L 151.98 97.99 
L 154.23 98.48 
L 156.48 98.95 
L 158.73 99.41 
L 160.97 99.87 
L 163.22 100.31 
L 165.47 100.75 
L 167.72 101.17 
L 169.96 101.59 
L 172.21 102.01 
L 174.46 102.41 
L 176.70 102.81 
L 178.95 103.20 
L 181.20 103.58 
L 183.45 103.96 
L 185.69 104.33 
L 187.94 104.69 
L 190.19 105.05 
L 192.44 105.40 
L 194.68 105.75 
L 196.93 106.09 
L 199.18 106.43 
L 201.43 106.76 
L 203.67 107.09 
L 205.92 107.41 
L 208.17 107.73 
L 210.42 108.04 
L 212.66 108.35 
L 214.91 108.65 
L 217.16 108.95 
L 219.41 109.25 
L 221.65 109.54 
L 223.90 109.83 
L 226.15 110.12 
L 228.40 110.40 
" style="fill: none; stroke: #2563eb; stroke-width: 1.8; stroke-linecap: square"/>
 </g>
 <g>
 <path d="M 49.73 147.07 
L 49.73 8.47 
" style="fill: none; stroke-dasharray: 1.5,2.48; stroke-dashoffset: 0; stroke: #ef4444; stroke-opacity: 0.8; stroke-width: 1.5"/>
 </g>
 <g>
 <path d="M 41.97 147.07 
L 41.97 8.47 
" style="fill: none; stroke: #9ca3af; stroke-width: 0.6; stroke-linejoin: miter; stroke-linecap: square"/>
 </g>
 <g>
 <path d="M 237.27 147.07 
L 237.27 8.47 
" style="fill: none; stroke: #9ca3af; stroke-width: 0.6; stroke-linejoin: miter; stroke-linecap: square"/>
 </g>
 <g>
 <path d="M 41.97 147.07 
L 237.27 147.07 
" style="fill: none; stroke: #9ca3af; stroke-width: 0.6; stroke-linejoin: miter; stroke-linecap: square"/>
 </g>
 <g>
 <path d="M 41.97 8.47 
L 237.27 8.47 
" style="fill: none; stroke: #9ca3af; stroke-width: 0.6; stroke-linejoin: miter; stroke-linecap: square"/>
 </g>
 <g>
 <text style="fill: #ef4444; font: 7px 'DejaVu Sans', 'Bitstream Vera Sans', 'Computer Modern Sans Serif', 'Lucida Grande', 'Verdana', 'Geneva', 'Lucid', 'Arial', 'Helvetica', 'Avant Garde', sans-serif; text-anchor: start" x="53.73" y="12.84" transform="rotate(-0 53.73 12.84)">x = -0.5</text>
 </g>
 </g>
 </g>
 <defs>
 </defs>
</svg>