<?xml version="1.0" encoding="utf-8" standalone="no"?>
<!DOCTYPE svg PUBLIC "-//W3C//DTD SVG 1.1//EN"
 "http://www.w3.org/Graphics/SVG/1.1/DTD/svg11.dtd">
<svg xmlns:xlink="http://www.w3.org/1999/xlink" width="242.25pt" height="179.14pt" viewBox="0 0 242.25 179.14" xmlns="http://www.w3.org/2000/svg" version="1.1">
 <g>
 <g>
 <path d="M 0 179.14 
L 242.25 179.14 
L 242.25 0 
L 0 0 
L 0 179.14 
z
" style="fill: none"/>
 </g>
 <g>
 <g>
 <path d="M 39.75 147.39 
L 235.05 147.39 
L 235.05 8.79 
L 39.75 8.79 
L 39.75 147.39 
z
" style="fill: none"/>
 </g>
 <g>
 <g>
 <g>
 <path d="M 48.63 147.39 
L 48.63 8.79 
" style="fill: none; stroke: #e5e7eb; stroke-opacity: 0.6; stroke-width: 0.5; stroke-linecap: square"/>
 </g>
 <g>
 <defs>
 <path d="M 0 0 
L 0 3.5 
" style="stroke: #9ca3af; stroke-width: 0.8"/>
 </defs>
 <g>
 <use xlink:href="#m5e1b17cc86" x="48.63" y="147.39" style="fill: #9ca3af; stroke: #9ca3af; stroke-width: 0.8"/>
 </g>
 </g>
 <g>
 <text style="fill: #9ca3af; font: 7px 'DejaVu Sans', 'Bitstream Vera Sans', 'Computer Modern Sans Serif', 'Lucida Grande', 'Verdana', 'Geneva', 'Lucid', 'Arial', 'Helvetica', 'Avant Garde', sans-serif; text-anchor: middle" x="48.63" y="159.70" transform="rotate(-0 48.63 159.70)">−6</text>
 </g>
 </g>
 <g>
 <g>
 <path d="M 93.29 147.39 
L 93.29 8.79 
" style="fill: none; stroke: #e5e7eb; stroke-opacity: 0.6; stroke-width: 0.5; stroke-linecap: square"/>
 </g>
 <g>
 <g>
 <use xlink:href="#m5e1b17cc86" x="93.29" y="147.39" style="fill: #9ca3af; stroke: #9ca3af; stroke-width: 0.8"/>
 </g>
 </g>
 <g>
 <text style="fill: #9ca3af; font: 7px 'DejaVu Sans', 'Bitstream Vera Sans', 'Computer Modern Sans Serif', 'Lucida Grande', 'Verdana', 'Geneva', 'Lucid', 'Arial', 'Helvetica', 'Avant Garde', sans-serif; text-anchor: middle" x="93.29" y="159.70" transform="rotate(-0 93.29 159.70)">−4</text>
 </g>
 </g>
 <g>
 <g>
 <path d="M 137.96 147.39 
L 137.96 8.79 
" style="fill: none; stroke: #e5e7eb; stroke-opacity: 0.6; stroke-width: 0.5; stroke-linecap: square"/>
 </g>
 <g>
 <g>
 <use xlink:href="#m5e1b17cc86" x="137.96" y="147.39" style="fill: #9ca3af; stroke: #9ca3af; stroke-width: 0.8"/>
 </g>
 </g>
 <g>
 <text style="fill: #9ca3af; font: 7px 'DejaVu Sans', 'Bitstream Vera Sans', 'Computer Modern Sans Serif', 'Lucida Grande', 'Verdana', 'Geneva', 'Lucid', 'Arial', 'Helvetica', 'Avant Garde', sans-serif; text-anchor: middle" x="137.96" y="159.70" transform="rotate(-0 137.96 159.70)">−2</text>
 </g>
 </g>
 <g>
 <g>
 <path d="M 182.62 147.39 
L 182.62 8.79 
" style="fill: none; stroke: #e5e7eb; stroke-opacity: 0.6; stroke-width: 0.5; stroke-linecap: square"/>
 </g>
 <g>
 <g>
 <use xlink:href="#m5e1b17cc86" x="182.62" y="147.39" style="fill: #9ca3af; stroke: #9ca3af; stroke-width: 0.8"/>
 </g>
 </g>
 <g>
 <text style="fill: #9ca3af; font: 7px 'DejaVu Sans', 'Bitstream Vera Sans', 'Computer Modern Sans Serif', 'Lucida Grande', 'Verdana', 'Geneva', 'Lucid', 'Arial', 'Helvetica', 'Avant Garde', sans-serif; text-anchor: middle" x="182.62" y="159.70" transform="rotate(-0 182.62 159.70)">0</text>
 </g>
 </g>
 <g>
 <g>
 <path d="M 227.29 147.39 
L 227.29 8.79 
" style="fill: none; stroke: #e5e7eb; stroke-opacity: 0.6; stroke-width: 0.5; stroke-linecap: square"/>
 </g>
 <g>
 <g>
 <use xlink:href="#m5e1b17cc86" x="227.29" y="147.39" style="fill: #9ca3af; stroke: #9ca3af; stroke-width: 0.8"/>
 </g>
 </g>
 <g>
 <text style="fill: #9ca3af; font: 7px 'DejaVu Sans', 'Bitstream Vera Sans', 'Computer Modern Sans Serif', 'Lucida Grande', 'Verdana', 'Geneva', 'Lucid', 'Arial', 'Helvetica', 'Avant Garde', sans-serif; text-anchor: middle" x="227.29" y="159.70" transform="rotate(-0 227.29 159.70)">2</text>
 </g>
 </g>
 <g>
 <text style="fill: #9ca3af; font: 7px 'DejaVu Sans', 'Bitstream Vera Sans', 'Computer Modern Sans Serif', 'Lucida Grande', 'Verdana', 'Geneva', 'Lucid', 'Arial', 'Helvetica', 'Avant Garde', sans-serif; text-anchor: middle" x="137.40" y="170.48" transform="rotate(-0 137.40 170.48)">x</text>
 </g>
 </g>
 <g>
 <g>
 <g>
 <path d="M 39.75 110.72 
L 235.05 110.72 
" style="fill: none; stroke: #e5e7eb; stroke-opacity: 0.6; stroke-width: 0.5; stroke-linecap: square"/>
 </g>
 <g>
 <defs>
 <path d="M 0 0 
L -3.5 0 
" style="stroke: #9ca3af; stroke-width: 0.8"/>
 </defs>
 <g>
 <use xlink:href="#m36bf58a0ce" x="39.75" y="110.72" style="fill: #9ca3af; stroke: #9ca3af; stroke-width: 0.8"/>
 </g>
 </g>
 <g>
 <text style="fill: #9ca3af; font: 7px 'DejaVu Sans', 'Bitstream Vera Sans', 'Computer Modern Sans Serif', 'Lucida Grande', 'Verdana', 'Geneva', 'Lucid', 'Arial', 'Helvetica', 'Avant Garde', sans-serif; text-anchor: end" x="32.75" y="113.38" transform="rotate(-0 32.75 113.38)">−10</text>
 </g>
 </g>
 <g>
 <g>
 <path d="M 39.75 72.20 
L 235.05 72.20 
" style="fill: none; stroke: #e5e7eb; stroke-opacity: 0.6; stroke-width: 0.5; stroke-linecap: square"/>
 </g>
 <g>
 <g>
 <use xlink:href="#m36bf58a0ce" x="39.75" y="72.20" style="fill: #9ca3af; stroke: #9ca3af; stroke-width: 0.8"/>
 </g>
 </g>
 <g>
 <text style="fill: #9ca3af; font: 7px 'DejaVu Sans', 'Bitstream Vera Sans', 'Computer Modern Sans Serif', 'Lucida Grande', 'Verdana', 'Geneva', 'Lucid', 'Arial', 'Helvetica', 'Avant Garde', sans-serif; text-anchor: end" x="32.75" y="74.86" transform="rotate(-0 32.75 74.86)">−5</text>
 </g>
 </g>
 <g>
 <g>
 <path d="M 39.75 33.67 
L 235.05 33.67 
" style="fill: none; stroke: #e5e7eb; stroke-opacity: 0.6; stroke-width: 0.5; stroke-linecap: square"/>
 </g>
 <g>
 <g>
 <use xlink:href="#m36bf58a0ce" x="39.75" y="33.67" style="fill: #9ca3af; stroke: #9ca3af; stroke-width: 0.8"/>
 </g>
 </g>
 <g>
 <text style="fill: #9ca3af; font: 7px 'DejaVu Sans', 'Bitstream Vera Sans', 'Computer Modern Sans Serif', 'Lucida Grande', 'Verdana', 'Geneva', 'Lucid', 'Arial', 'Helvetica', 'Avant Garde', sans-serif; text-anchor: end" x="32.75" y="36.33" transform="rotate(-0 32.75 36.33)">0</text>
 </g>
 </g>
 <g>
 <text style="fill: #9ca3af; font: 7px 'DejaVu Sans', 'Bitstream Vera Sans', 'Computer Modern Sans Serif', 'Lucida Grande', 'Verdana', 'Geneva', 'Lucid', 'Arial', 'Helvetica', 'Avant Garde', sans-serif; text-anchor: middle" x="12.52" y="78.09" transform="rotate(-90 12.52 78.09)">f(x)</text>
 </g>
 </g>
 <g>
 <path d="M 48.63 110.72 
L 50.87 110.44 
L 53.12 110.15 
L 55.37 109.86 
L 57.61 109.57 
L 59.86 109.27 
L 62.11 108.97 
L 64.36 108.67 
L 66.60 108.36 
L 68.85 108.05 
L 71.10 107.73 
L 73.35 107.41 
L 75.59 107.08 
L 77.84 106.75 
L 80.09 106.41 
L 82.34 106.07 
L 84.58 105.72 
L 86.83 105.37 
L 89.08 105.01 
L 91.33 104.65 
L 93.57 104.28 
L 95.82 103.90 
L 98.07 103.52 
L 100.32 103.13 
L 102.56 102.73 
L 104.81 102.33 
L 107.06 101.91 
L 109.31 101.49 
L 111.55 101.07 
L 113.80 100.63 
L 116.05 100.19 
L 118.29 99.73 
L 120.54 99.27 
L 122.79 98.80 
L 125.04 98.31 
L 127.28 97.82 
L 129.53 97.31 
L 131.78 96.80 
L 134.03 96.27 
L 136.27 95.72 
L 138.52 95.17 
L 140.77 94.60 
L 143.02 94.01 
L 145.26 93.41 
L 147.51 92.79 
L 149.76 92.16 
L 152.01 91.51 
L 154.25 90.83 
L 156.50 90.14 
L 158.75 89.42 
L 161.00 88.68 
L 163.24 87.91 
L 165.49 87.12 
L 167.74 86.29 
L 169.99 85.44 
L 172.23 84.55 
L 174.48 83.62 
L 176.73 82.66 
L 178.98 81.65 
L 181.22 80.59 
L 183.47 79.47 
L 185.72 78.30 
L 187.96 77.07 
L 190.21 75.76 
L 192.46 74.37 
L 194.71 72.89 
L 196.95 71.30 
L 199.20 69.59 
L 201.45 67.73 
L 203.70 65.71 
L 205.94 63.48 
L 208.19 61.01 
L 210.44 58.23 
L 212.69 55.04 
L 214.93 51.33 
L 217.18 46.87 
L 219.43 41.27 
L 221.68 33.79 
L 223.92 22.41 
L 226.07 -1 
" style="fill: none; stroke: #2563eb; stroke-width: 1.8; stroke-linecap: square"/>
 </g>
 <g>
 <path d="M 227.29 147.39 
L 227.29 8.79 
" style="fill: none; stroke-dasharray: 1.5,2.48; stroke-dashoffset: 0; stroke: #ef4444; stroke-opacity: 0.8; stroke-width: 1.5"/>
 </g>
 <g>
 <path d="M 39.75 147.39 
L 39.75 8.79 
" style="fill: none; stroke: #9ca3af; stroke-width: 0.6; stroke-linejoin: miter; stroke-linecap: square"/>
 </g>
 <g>
 <path d="M 235.05 147.39 
L 235.05 8.79 
" style="fill: none; stroke: #9ca3af; stroke-width: 0.6; stroke-linejoin: miter; stroke-linecap: square"/>
 </g>
 <g>
 <path d="M 39.75 147.39 
L 235.05 147.39 
" style="fill: none; stroke: #9ca3af; stroke-width: 0.6; stroke-linejoin: miter; stroke-linecap: square"/>
 </g>
 <g>
 <path d="M 39.75 8.79 
L 235.05 8.79 
" style="fill: none; stroke: #9ca3af; stroke-width: 0.6; stroke-linejoin: miter; stroke-linecap: square"/>
 </g>
 <g>
 <text style="fill: #ef4444; font: 7px 'DejaVu Sans', 'Bitstream Vera Sans', 'Computer Modern Sans Serif', 'Lucida Grande', 'Verdana', 'Geneva', 'Lucid', 'Arial', 'Helvetica', 'Avant Garde', sans-serif; text-anchor: end" x="223.29" y="12.52" transform="rotate(-0 223.29 12.52)">x = 2</text>
 </g>
 </g>
 </g>
 <defs>
 </defs>
</svg>