<?xml version="1.0" encoding="utf-8" standalone="no"?>
<!DOCTYPE svg PUBLIC "-//W3C//DTD SVG 1.1//EN"
 "http://www.w3.org/Graphics/SVG/1.1/DTD/svg11.dtd">
<svg xmlns:xlink="http://www.w3.org/1999/xlink" width="242.25pt" height="180.29pt" viewBox="0 0 242.25 180.29" xmlns="http://www.w3.org/2000/svg" version="1.1">
 <g>
 <g>
 <path d="M 0 180.29 
L 242.25 180.29 
L 242.25 -0 
L 0 -0 
L 0 180.29 
z
" style="fill: none"/>
 </g>
 <g>
 <g>
 <path d="M 39.75 148.54 
L 235.05 148.54 
L 235.05 9.94 
L 39.75 9.94 
L 39.75 148.54 
z
" style="fill: none"/>
 </g>
 <g>
 <g>
 <g>
 <path d="M 81.01 148.54 
L 81.01 9.94 
" style="fill: none; stroke: #e5e7eb; stroke-opacity: 0.6; stroke-width: 0.5; stroke-linecap: square"/>
 </g>
 <g>
 <defs>
 <path d="M 0 0 
L 0 3.5 
" style="stroke: #9ca3af; stroke-width: 0.8"/>
 </defs>
 <g>
 <use xlink:href="#m5f17340616" x="81.01" y="148.54" style="fill: #9ca3af; stroke: #9ca3af; stroke-width: 0.8"/>
 </g>
 </g>
 <g>
 <text style="fill: #9ca3af; font: 7px 'DejaVu Sans', 'Bitstream Vera Sans', 'Computer Modern Sans Serif', 'Lucida Grande', 'Verdana', 'Geneva', 'Lucid', 'Arial', 'Helvetica', 'Avant Garde', sans-serif; text-anchor: middle" x="81.01" y="160.86" transform="rotate(-0 81.01 160.86)">4</text>
 </g>
 </g>
 <g>
 <g>
 <path d="M 125.67 148.54 
L 125.67 9.94 
" style="fill: none; stroke: #e5e7eb; stroke-opacity: 0.6; stroke-width: 0.5; stroke-linecap: square"/>
 </g>
 <g>
 <g>
 <use xlink:href="#m5f17340616" x="125.67" y="148.54" style="fill: #9ca3af; stroke: #9ca3af; stroke-width: 0.8"/>
 </g>
 </g>
 <g>
 <text style="fill: #9ca3af; font: 7px 'DejaVu Sans', 'Bitstream Vera Sans', 'Computer Modern Sans Serif', 'Lucida Grande', 'Verdana', 'Geneva', 'Lucid', 'Arial', 'Helvetica', 'Avant Garde', sans-serif; text-anchor: middle" x="125.67" y="160.86" transform="rotate(-0 125.67 160.86)">6</text>
 </g>
 </g>
 <g>
 <g>
 <path d="M 170.34 148.54 
L 170.34 9.94 
" style="fill: none; stroke: #e5e7eb; stroke-opacity: 0.6; stroke-width: 0.5; stroke-linecap: square"/>
 </g>
 <g>
 <g>
 <use xlink:href="#m5f17340616" x="170.34" y="148.54" style="fill: #9ca3af; stroke: #9ca3af; stroke-width: 0.8"/>
 </g>
 </g>
 <g>
 <text style="fill: #9ca3af; font: 7px 'DejaVu Sans', 'Bitstream Vera Sans', 'Computer Modern Sans Serif', 'Lucida Grande', 'Verdana', 'Geneva', 'Lucid', 'Arial', 'Helvetica', 'Avant Garde', sans-serif; text-anchor: middle" x="170.34" y="160.86" transform="rotate(-0 170.34 160.86)">8</text>
 </g>
 </g>
 <g>
 <g>
 <path d="M 215.00 148.54 
L 215.00 9.94 
" style="fill: none; stroke: #e5e7eb; stroke-opacity: 0.6; stroke-width: 0.5; stroke-linecap: square"/>
 </g>
 <g>
 <g>
 <use xlink:href="#m5f17340616" x="215.00" y="148.54" style="fill: #9ca3af; stroke: #9ca3af; stroke-width: 0.8"/>
 </g>
 </g>
 <g>
 <text style="fill: #9ca3af; font: 7px 'DejaVu Sans', 'Bitstream Vera Sans', 'Computer Modern Sans Serif', 'Lucida Grande', 'Verdana', 'Geneva', 'Lucid', 'Arial', 'Helvetica', 'Avant Garde', sans-serif; text-anchor: middle" x="215.00" y="160.86" transform="rotate(-0 215.00 160.86)">10</text>
 </g>
 </g>
 <g>
 <text style="fill: #9ca3af; font: 7px 'DejaVu Sans', 'Bitstream Vera Sans', 'Computer Modern Sans Serif', 'Lucida Grande', 'Verdana', 'Geneva', 'Lucid', 'Arial', 'Helvetica', 'Avant Garde', sans-serif; text-anchor: middle" x="137.40" y="171.63" transform="rotate(-0 137.40 171.63)">x</text>
 </g>
 </g>
 <g>
 <g>
 <g>
 <path d="M 39.75 142.69 
L 235.05 142.69 
" style="fill: none; stroke: #e5e7eb; stroke-opacity: 0.6; stroke-width: 0.5; stroke-linecap: square"/>
 </g>
 <g>
 <defs>
 <path d="M 0 0 
L -3.5 0 
" style="stroke: #9ca3af; stroke-width: 0.8"/>
 </defs>
 <g>
 <use xlink:href="#m9f617f5317" x="39.75" y="142.69" style="fill: #9ca3af; stroke: #9ca3af; stroke-width: 0.8"/>
 </g>
 </g>
 <g>
 <text style="fill: #9ca3af; font: 7px 'DejaVu Sans', 'Bitstream Vera Sans', 'Computer Modern Sans Serif', 'Lucida Grande', 'Verdana', 'Geneva', 'Lucid', 'Arial', 'Helvetica', 'Avant Garde', sans-serif; text-anchor: end" x="32.75" y="145.35" transform="rotate(-0 32.75 145.35)">−15</text>
 </g>
 </g>
 <g>
 <g>
 <path d="M 39.75 104.17 
L 235.05 104.17 
" style="fill: none; stroke: #e5e7eb; stroke-opacity: 0.6; stroke-width: 0.5; stroke-linecap: square"/>
 </g>
 <g>
 <g>
 <use xlink:href="#m9f617f5317" x="39.75" y="104.17" style="fill: #9ca3af; stroke: #9ca3af; stroke-width: 0.8"/>
 </g>
 </g>
 <g>
 <text style="fill: #9ca3af; font: 7px 'DejaVu Sans', 'Bitstream Vera Sans', 'Computer Modern Sans Serif', 'Lucida Grande', 'Verdana', 'Geneva', 'Lucid', 'Arial', 'Helvetica', 'Avant Garde', sans-serif; text-anchor: end" x="32.75" y="106.83" transform="rotate(-0 32.75 106.83)">−10</text>
 </g>
 </g>
 <g>
 <g>
 <path d="M 39.75 65.65 
L 235.05 65.65 
" style="fill: none; stroke: #e5e7eb; stroke-opacity: 0.6; stroke-width: 0.5; stroke-linecap: square"/>
 </g>
 <g>
 <g>
 <use xlink:href="#m9f617f5317" x="39.75" y="65.65" style="fill: #9ca3af; stroke: #9ca3af; stroke-width: 0.8"/>
 </g>
 </g>
 <g>
 <text style="fill: #9ca3af; font: 7px 'DejaVu Sans', 'Bitstream Vera Sans', 'Computer Modern Sans Serif', 'Lucida Grande', 'Verdana', 'Geneva', 'Lucid', 'Arial', 'Helvetica', 'Avant Garde', sans-serif; text-anchor: end" x="32.75" y="68.31" transform="rotate(-0 32.75 68.31)">−5</text>
 </g>
 </g>
 <g>
 <g>
 <path d="M 39.75 27.12 
L 235.05 27.12 
" style="fill: none; stroke: #e5e7eb; stroke-opacity: 0.6; stroke-width: 0.5; stroke-linecap: square"/>
 </g>
 <g>
 <g>
 <use xlink:href="#m9f617f5317" x="39.75" y="27.12" style="fill: #9ca3af; stroke: #9ca3af; stroke-width: 0.8"/>
 </g>
 </g>
 <g>
 <text style="fill: #9ca3af; font: 7px 'DejaVu Sans', 'Bitstream Vera Sans', 'Computer Modern Sans Serif', 'Lucida Grande', 'Verdana', 'Geneva', 'Lucid', 'Arial', 'Helvetica', 'Avant Garde', sans-serif; text-anchor: end" x="32.75" y="29.78" transform="rotate(-0 32.75 29.78)">0</text>
 </g>
 </g>
 <g>
 <text style="fill: #9ca3af; font: 7px 'DejaVu Sans', 'Bitstream Vera Sans', 'Computer Modern Sans Serif', 'Lucida Grande', 'Verdana', 'Geneva', 'Lucid', 'Arial', 'Helvetica', 'Avant Garde', sans-serif; text-anchor: middle" x="12.52" y="79.24" transform="rotate(-90 12.52 79.24)">f(x)</text>
 </g>
 </g>
 <g>
 <path d="M 48.63 -0.95 
L 50.87 23.57 
L 53.12 34.94 
L 55.37 42.43 
L 57.61 48.02 
L 59.86 52.48 
L 62.11 56.20 
L 64.36 59.38 
L 66.60 62.17 
L 68.85 64.64 
L 71.10 66.87 
L 73.35 68.89 
L 75.59 70.74 
L 77.84 72.45 
L 80.09 74.04 
L 82.34 75.53 
L 84.58 76.92 
L 86.83 78.22 
L 89.08 79.46 
L 91.33 80.63 
L 93.57 81.74 
L 95.82 82.80 
L 98.07 83.81 
L 100.32 84.78 
L 102.56 85.71 
L 104.81 86.59 
L 107.06 87.45 
L 109.31 88.27 
L 111.55 89.07 
L 113.80 89.83 
L 116.05 90.58 
L 118.29 91.29 
L 120.54 91.99 
L 122.79 92.66 
L 125.04 93.32 
L 127.28 93.95 
L 129.53 94.57 
L 131.78 95.17 
L 134.03 95.75 
L 136.27 96.32 
L 138.52 96.88 
L 140.77 97.42 
L 143.02 97.95 
L 145.26 98.47 
L 147.51 98.97 
L 149.76 99.47 
L 152.01 99.95 
L 154.25 100.42 
L 156.50 100.89 
L 158.75 101.34 
L 161.00 101.79 
L 163.24 102.22 
L 165.49 102.65 
L 167.74 103.07 
L 169.99 103.48 
L 172.23 103.88 
L 174.48 104.28 
L 176.73 104.67 
L 178.98 105.06 
L 181.22 105.43 
L 183.47 105.80 
L 185.72 106.17 
L 187.96 106.53 
L 190.21 106.88 
L 192.46 107.23 
L 194.71 107.57 
L 196.95 107.90 
L 199.20 108.24 
L 201.45 108.56 
L 203.70 108.89 
L 205.94 109.20 
L 208.19 109.52 
L 210.44 109.83 
L 212.69 110.13 
L 214.93 110.43 
L 217.18 110.73 
L 219.43 111.02 
L 221.68 111.31 
L 223.92 111.59 
L 226.17 111.87 
" style="fill: none; stroke: #2563eb; stroke-width: 1.8; stroke-linecap: square"/>
 </g>
 <g>
 <path d="M 47.51 148.54 
L 47.51 9.94 
" style="fill: none; stroke-dasharray: 1.5,2.48; stroke-dashoffset: 0; stroke: #ef4444; stroke-opacity: 0.8; stroke-width: 1.5"/>
 </g>
 <g>
 <path d="M 39.75 148.54 
L 39.75 9.94 
" style="fill: none; stroke: #9ca3af; stroke-width: 0.6; stroke-linejoin: miter; stroke-linecap: square"/>
 </g>
 <g>
 <path d="M 235.05 148.54 
L 235.05 9.94 
" style="fill: none; stroke: #9ca3af; stroke-width: 0.6; stroke-linejoin: miter; stroke-linecap: square"/>
 </g>
 <g>
 <path d="M 39.75 148.54 
L 235.05 148.54 
" style="fill: none; stroke: #9ca3af; stroke-width: 0.6; stroke-linejoin: miter; stroke-linecap: square"/>
 </g>
 <g>
 <path d="M 39.75 9.94 
L 235.05 9.94 
" style="fill: none; stroke: #9ca3af; stroke-width: 0.6; stroke-linejoin: miter; stroke-linecap: square"/>
 </g>
 <g>
 <text style="fill: #ef4444; font: 7px 'DejaVu Sans', 'Bitstream Vera Sans', 'Computer Modern Sans Serif', 'Lucida Grande', 'Verdana', 'Geneva', 'Lucid', 'Arial', 'Helvetica', 'Avant Garde', sans-serif; text-anchor: start" x="51.51" y="12.52" transform="rotate(-0 51.51 12.52)">x = 2.5</text>
 </g>
 </g>
 </g>
 <defs>
 </defs>
</svg>