<?xml version="1.0" encoding="utf-8" standalone="no"?>
<!DOCTYPE svg PUBLIC "-//W3C//DTD SVG 1.1//EN"
 "http://www.w3.org/Graphics/SVG/1.1/DTD/svg11.dtd">
<svg xmlns:xlink="http://www.w3.org/1999/xlink" width="241.38pt" height="136.81pt" viewBox="0 0 241.38 136.81" xmlns="http://www.w3.org/2000/svg" version="1.1">
 <g>
 <g>
 <path d="M 0 136.81 
L 241.38 136.81 
L 241.38 0 
L 0 0 
L 0 136.81 
z
" style="fill: none"/>
 </g>
 <g>
 <g>
 <path d="M 29.01 111.26 
L 224.31 111.26 
" style="fill: none; stroke: #a8a29e; stroke-width: 1.2; stroke-linecap: square"/>
 </g>
 <g>
 <path d="M 201.77 111.26 
L 201.77 24.54 
" style="fill: none; stroke: #1c1917; stroke-width: 2.5; stroke-linecap: square"/>
 </g>
 <g>
 <path d="M 51.54 111.26 
L 51.54 24.54 
" style="fill: none; stroke: #1c1917; stroke-width: 2.5; stroke-linecap: square"/>
 </g>
 <g>
 <path d="M 51.54 24.54 
L 201.77 111.26 
" style="fill: none; stroke-dasharray: 6.66,2.88; stroke-dashoffset: 0; stroke: #15803d; stroke-width: 1.8"/>
 </g>
 <g>
 <path d="M 67.15 24.54 
L 67.15 24.82 
L 67.14 25.09 
L 67.13 25.36 
L 67.11 25.63 
L 67.09 25.90 
L 67.06 26.17 
L 67.03 26.44 
L 67.00 26.71 
L 66.96 26.98 
L 66.91 27.25 
L 66.86 27.52 
L 66.81 27.79 
L 66.75 28.05 
L 66.68 28.32 
L 66.62 28.58 
L 66.54 28.84 
L 66.47 29.11 
L 66.38 29.37 
L 66.30 29.62 
L 66.21 29.88 
L 66.11 30.14 
L 66.01 30.39 
L 65.91 30.64 
L 65.80 30.89 
L 65.69 31.14 
L 65.57 31.38 
L 65.45 31.63 
L 65.32 31.87 
L 65.19 32.11 
L 65.06 32.35 
" style="fill: none; stroke: #15803d; stroke-width: 1.4; stroke-linecap: square"/>
 </g>
 <g>
 <text style="fill: #1c1917; font: 10px 'DejaVu Sans', 'Bitstream Vera Sans', 'Computer Modern Sans Serif', 'Lucida Grande', 'Verdana', 'Geneva', 'Lucid', 'Arial', 'Helvetica', 'Avant Garde', sans-serif; text-anchor: end" x="51.32" y="22.25" transform="rotate(-0 51.32 22.25)">observer</text>
 </g>
 <g>
 <text style="fill: #1c1917; font: 10px 'DejaVu Sans', 'Bitstream Vera Sans', 'Computer Modern Sans Serif', 'Lucida Grande', 'Verdana', 'Geneva', 'Lucid', 'Arial', 'Helvetica', 'Avant Garde', sans-serif; text-anchor: middle" x="126.66" y="127.53" transform="rotate(-0 126.66 127.53)">69.3 m</text>
 </g>
 <g>
 <text style="fill: #1c1917; font: 10px 'DejaVu Sans', 'Bitstream Vera Sans', 'Computer Modern Sans Serif', 'Lucida Grande', 'Verdana', 'Geneva', 'Lucid', 'Arial', 'Helvetica', 'Avant Garde', sans-serif; text-anchor: start" x="208.53" y="70.66" transform="rotate(-0 208.53 70.66)">40 m</text>
 </g>
 <g>
 <text style="fill: #15803d; font: 700 11px 'DejaVu Sans', 'Bitstream Vera Sans', 'Computer Modern Sans Serif', 'Lucida Grande', 'Verdana', 'Geneva', 'Lucid', 'Arial', 'Helvetica', 'Avant Garde', sans-serif; text-anchor: middle" x="74.16" y="33.64" transform="rotate(-0 74.16 33.64)">30°</text>
 </g>
 </g>
 </g>
 <defs>
 </defs>
</svg>