<?xml version="1.0" encoding="utf-8" standalone="no"?>
<!DOCTYPE svg PUBLIC "-//W3C//DTD SVG 1.1//EN"
 "http://www.w3.org/Graphics/SVG/1.1/DTD/svg11.dtd">
<svg xmlns:xlink="http://www.w3.org/1999/xlink" width="153pt" height="153pt" viewBox="0 0 153 153" xmlns="http://www.w3.org/2000/svg" version="1.1">
 <g>
 <g>
 <path d="M 0 153 
L 153 153 
L 153 0 
L 0 0 
L 0 153 
z
" style="fill: none"/>
 </g>
 <g>
 <g>
 <path d="M 7.2 76.5 
L 145.8 76.5 
" style="fill: none; stroke: #a8a29e; stroke-width: 0.8; stroke-linecap: square"/>
 </g>
 <g>
 <path d="M 76.5 145.8 
L 76.5 7.2 
" style="fill: none; stroke: #a8a29e; stroke-width: 0.8; stroke-linecap: square"/>
 </g>
 <g>
 <path d="M 126 76.5 
L 125.90 73.39 
L 125.61 70.30 
L 125.12 67.22 
L 124.44 64.19 
L 123.58 61.20 
L 122.52 58.28 
L 121.29 55.42 
L 119.88 52.65 
L 118.29 49.98 
L 116.55 47.40 
L 114.64 44.95 
L 112.58 42.61 
L 110.39 40.42 
L 108.05 38.36 
L 105.60 36.45 
L 103.02 34.71 
L 100.35 33.12 
L 97.58 31.71 
L 94.72 30.48 
L 91.80 29.42 
L 88.81 28.56 
L 85.78 27.88 
L 82.70 27.39 
L 79.61 27.10 
L 76.5 27 
L 73.39 27.10 
L 70.30 27.39 
L 67.22 27.88 
L 64.19 28.56 
L 61.20 29.42 
L 58.28 30.48 
L 55.42 31.71 
L 52.65 33.12 
L 49.98 34.71 
L 47.40 36.45 
L 44.95 38.36 
L 42.61 40.42 
L 40.42 42.61 
L 38.36 44.95 
L 36.45 47.40 
L 34.71 49.98 
L 33.12 52.65 
L 31.71 55.42 
L 30.48 58.28 
L 29.42 61.20 
L 28.56 64.19 
L 27.88 67.22 
L 27.39 70.30 
L 27.10 73.39 
L 27 76.5 
L 27.10 79.61 
L 27.39 82.70 
L 27.88 85.78 
L 28.56 88.81 
L 29.42 91.80 
L 30.48 94.72 
L 31.71 97.58 
L 33.12 100.35 
L 34.71 103.02 
L 36.45 105.60 
L 38.36 108.05 
L 40.42 110.39 
L 42.61 112.58 
L 44.95 114.64 
L 47.40 116.55 
L 49.98 118.29 
L 52.65 119.88 
L 55.42 121.29 
L 58.28 122.52 
L 61.20 123.58 
L 64.19 124.44 
L 67.22 125.12 
L 70.30 125.61 
L 73.39 125.90 
L 76.5 126 
L 79.61 125.90 
L 82.70 125.61 
L 85.78 125.12 
L 88.81 124.44 
L 91.80 123.58 
L 94.72 122.52 
L 97.58 121.29 
L 100.35 119.88 
L 103.02 118.29 
L 105.60 116.55 
L 108.05 114.64 
L 110.39 112.58 
L 112.58 110.39 
L 114.64 108.05 
L 116.55 105.60 
L 118.29 103.02 
L 119.88 100.35 
L 121.29 97.58 
L 122.52 94.72 
L 123.58 91.80 
L 124.44 88.81 
L 125.12 85.78 
L 125.61 82.70 
L 125.90 79.61 
L 126 76.5 
L 126 76.5 
" style="fill: none; stroke: #1c1917; stroke-width: 1.2; stroke-linecap: square"/>
 </g>
 <g>
 <path d="M 88.88 76.5 
L 88.84 75.64 
L 88.75 74.78 
L 88.60 73.93 
L 88.40 73.09 
L 88.13 72.27 
L 87.81 71.47 
L 87.43 70.69 
L 86.99 69.94 
L 86.51 69.23 
L 85.98 68.55 
L 85.40 67.90 
L 84.78 67.30 
L 84.12 66.75 
L 83.42 66.24 
L 82.69 65.78 
L 81.92 65.38 
L 81.14 65.03 
L 80.32 64.73 
L 79.49 64.49 
L 78.65 64.31 
L 77.79 64.19 
L 76.93 64.13 
L 76.07 64.13 
L 75.21 64.19 
L 74.35 64.31 
L 73.51 64.49 
L 72.68 64.73 
L 71.86 65.03 
L 71.08 65.38 
L 70.31 65.78 
L 69.58 66.24 
L 68.88 66.75 
L 68.22 67.30 
L 67.60 67.90 
L 67.02 68.55 
L 66.49 69.23 
L 66.01 69.94 
L 65.57 70.69 
L 65.19 71.47 
L 64.87 72.27 
L 64.60 73.09 
L 64.40 73.93 
L 64.25 74.78 
L 64.16 75.64 
L 64.12 76.5 
L 64.16 77.36 
L 64.25 78.22 
L 64.40 79.07 
L 64.60 79.91 
L 64.87 80.73 
L 65.19 81.53 
L 65.57 82.31 
L 66.01 83.06 
L 66.49 83.77 
L 67.02 84.45 
L 67.60 85.10 
L 68.22 85.70 
L 68.88 86.25 
L 69.58 86.76 
L 70.31 87.22 
" style="fill: none; stroke: #15803d; stroke-width: 1.6; stroke-linecap: square"/>
 </g>
 <g>
 <path d="M 76.5 76.5 
L 51.75 119.37 
" style="fill: none; stroke: #15803d; stroke-width: 1.6; stroke-linecap: square"/>
 </g>
 <g>
 <defs>
 <path d="M 0 3.5 
C 0.93 3.5 1.82 3.13 2.47 2.47 
C 3.13 1.82 3.5 0.93 3.5 0 
C 3.5 -0.93 3.13 -1.82 2.47 -2.47 
C 1.82 -3.13 0.93 -3.5 0 -3.5 
C -0.93 -3.5 -1.82 -3.13 -2.47 -2.47 
C -3.13 -1.82 -3.5 -0.93 -3.5 0 
C -3.5 0.93 -3.13 1.82 -2.47 2.47 
C -1.82 3.13 -0.93 3.5 0 3.5 
z
" style="stroke: #15803d"/>
 </defs>
 <g>
 <use xlink:href="#m3b5fb1566c" x="51.75" y="119.37" style="fill: #15803d; stroke: #15803d"/>
 </g>
 </g>
 <g>
 <path d="M 27 78.48 
L 27 74.52 
" style="fill: none; stroke: #1c1917; stroke-width: 0.8; stroke-linecap: square"/>
 </g>
 <g>
 <path d="M 74.52 126 
L 78.48 126 
" style="fill: none; stroke: #1c1917; stroke-width: 0.8; stroke-linecap: square"/>
 </g>
 <g>
 <path d="M 126 78.48 
L 126 74.52 
" style="fill: none; stroke: #1c1917; stroke-width: 0.8; stroke-linecap: square"/>
 </g>
 <g>
 <path d="M 74.52 27 
L 78.48 27 
" style="fill: none; stroke: #1c1917; stroke-width: 0.8; stroke-linecap: square"/>
 </g>
 <g>
 <text style="fill: #15803d; font: 10px 'DejaVu Sans', 'Bitstream Vera Sans', 'Computer Modern Sans Serif', 'Lucida Grande', 'Verdana', 'Geneva', 'Lucid', 'Arial', 'Helvetica', 'Avant Garde', sans-serif; text-anchor: start" x="59.75" y="111.37" transform="rotate(-0 59.75 111.37)">(-0.5, -0.87)</text>
 </g>
 <g>
 <g style="fill: #15803d" transform="translate(63.50 63.74)">
 <text>
 <tspan style="font: oblique 12px 'DejaVu Sans'" x="0" y="-0.78">θ</tspan>
 </text>
 </g>
 </g>
 </g>
 </g>
 <defs>
 </defs>
</svg>