<?xml version="1.0" encoding="utf-8" standalone="no"?>
<!DOCTYPE svg PUBLIC "-//W3C//DTD SVG 1.1//EN"
 "http://www.w3.org/Graphics/SVG/1.1/DTD/svg11.dtd">
<svg xmlns:xlink="http://www.w3.org/1999/xlink" width="293.59pt" height="205.27pt" viewBox="0 0 293.59 205.27" xmlns="http://www.w3.org/2000/svg" version="1.1">
 <g>
 <g>
 <path d="M 0 205.27 
L 293.59 205.27 
L 293.59 0 
L 0 0 
L 0 205.27 
z
" style="fill: none"/>
 </g>
 <g>
 <g>
 <path d="M 35.29 173.52 
L 286.39 173.52 
L 286.39 7.2 
L 35.29 7.2 
L 35.29 173.52 
z
" style="fill: none"/>
 </g>
 <g>
 <g>
 <g>
 <path d="M 46.71 173.52 
L 46.71 7.2 
" style="fill: none; stroke: #e5e7eb; stroke-opacity: 0.5; stroke-width: 0.4; stroke-linecap: square"/>
 </g>
 <g>
 <defs>
 <path d="M 0 0 
L 0 3.5 
" style="stroke: #9ca3af; stroke-width: 0.8"/>
 </defs>
 <g>
 <use xlink:href="#m48c97ba383" x="46.71" y="173.52" style="fill: #9ca3af; stroke: #9ca3af; stroke-width: 0.8"/>
 </g>
 </g>
 <g>
 <text style="fill: #9ca3af; font: 7px 'DejaVu Sans', 'Bitstream Vera Sans', 'Computer Modern Sans Serif', 'Lucida Grande', 'Verdana', 'Geneva', 'Lucid', 'Arial', 'Helvetica', 'Avant Garde', sans-serif; text-anchor: middle" x="46.71" y="185.84" transform="rotate(-0 46.71 185.84)">−4</text>
 </g>
 </g>
 <g>
 <g>
 <path d="M 92.36 173.52 
L 92.36 7.2 
" style="fill: none; stroke: #e5e7eb; stroke-opacity: 0.5; stroke-width: 0.4; stroke-linecap: square"/>
 </g>
 <g>
 <g>
 <use xlink:href="#m48c97ba383" x="92.36" y="173.52" style="fill: #9ca3af; stroke: #9ca3af; stroke-width: 0.8"/>
 </g>
 </g>
 <g>
 <text style="fill: #9ca3af; font: 7px 'DejaVu Sans', 'Bitstream Vera Sans', 'Computer Modern Sans Serif', 'Lucida Grande', 'Verdana', 'Geneva', 'Lucid', 'Arial', 'Helvetica', 'Avant Garde', sans-serif; text-anchor: middle" x="92.36" y="185.84" transform="rotate(-0 92.36 185.84)">−2</text>
 </g>
 </g>
 <g>
 <g>
 <path d="M 138.02 173.52 
L 138.02 7.2 
" style="fill: none; stroke: #e5e7eb; stroke-opacity: 0.5; stroke-width: 0.4; stroke-linecap: square"/>
 </g>
 <g>
 <g>
 <use xlink:href="#m48c97ba383" x="138.02" y="173.52" style="fill: #9ca3af; stroke: #9ca3af; stroke-width: 0.8"/>
 </g>
 </g>
 <g>
 <text style="fill: #9ca3af; font: 7px 'DejaVu Sans', 'Bitstream Vera Sans', 'Computer Modern Sans Serif', 'Lucida Grande', 'Verdana', 'Geneva', 'Lucid', 'Arial', 'Helvetica', 'Avant Garde', sans-serif; text-anchor: middle" x="138.02" y="185.84" transform="rotate(-0 138.02 185.84)">0</text>
 </g>
 </g>
 <g>
 <g>
 <path d="M 183.67 173.52 
L 183.67 7.2 
" style="fill: none; stroke: #e5e7eb; stroke-opacity: 0.5; stroke-width: 0.4; stroke-linecap: square"/>
 </g>
 <g>
 <g>
 <use xlink:href="#m48c97ba383" x="183.67" y="173.52" style="fill: #9ca3af; stroke: #9ca3af; stroke-width: 0.8"/>
 </g>
 </g>
 <g>
 <text style="fill: #9ca3af; font: 7px 'DejaVu Sans', 'Bitstream Vera Sans', 'Computer Modern Sans Serif', 'Lucida Grande', 'Verdana', 'Geneva', 'Lucid', 'Arial', 'Helvetica', 'Avant Garde', sans-serif; text-anchor: middle" x="183.67" y="185.84" transform="rotate(-0 183.67 185.84)">2</text>
 </g>
 </g>
 <g>
 <g>
 <path d="M 229.33 173.52 
L 229.33 7.2 
" style="fill: none; stroke: #e5e7eb; stroke-opacity: 0.5; stroke-width: 0.4; stroke-linecap: square"/>
 </g>
 <g>
 <g>
 <use xlink:href="#m48c97ba383" x="229.33" y="173.52" style="fill: #9ca3af; stroke: #9ca3af; stroke-width: 0.8"/>
 </g>
 </g>
 <g>
 <text style="fill: #9ca3af; font: 7px 'DejaVu Sans', 'Bitstream Vera Sans', 'Computer Modern Sans Serif', 'Lucida Grande', 'Verdana', 'Geneva', 'Lucid', 'Arial', 'Helvetica', 'Avant Garde', sans-serif; text-anchor: middle" x="229.33" y="185.84" transform="rotate(-0 229.33 185.84)">4</text>
 </g>
 </g>
 <g>
 <g>
 <path d="M 274.98 173.52 
L 274.98 7.2 
" style="fill: none; stroke: #e5e7eb; stroke-opacity: 0.5; stroke-width: 0.4; stroke-linecap: square"/>
 </g>
 <g>
 <g>
 <use xlink:href="#m48c97ba383" x="274.98" y="173.52" style="fill: #9ca3af; stroke: #9ca3af; stroke-width: 0.8"/>
 </g>
 </g>
 <g>
 <text style="fill: #9ca3af; font: 7px 'DejaVu Sans', 'Bitstream Vera Sans', 'Computer Modern Sans Serif', 'Lucida Grande', 'Verdana', 'Geneva', 'Lucid', 'Arial', 'Helvetica', 'Avant Garde', sans-serif; text-anchor: middle" x="274.98" y="185.84" transform="rotate(-0 274.98 185.84)">6</text>
 </g>
 </g>
 <g>
 <text style="fill: #9ca3af; font: 7px 'DejaVu Sans', 'Bitstream Vera Sans', 'Computer Modern Sans Serif', 'Lucida Grande', 'Verdana', 'Geneva', 'Lucid', 'Arial', 'Helvetica', 'Avant Garde', sans-serif; text-anchor: middle" x="160.84" y="196.61" transform="rotate(-0 160.84 196.61)">x</text>
 </g>
 </g>
 <g>
 <g>
 <g>
 <path d="M 35.29 167.12 
L 286.39 167.12 
" style="fill: none; stroke: #e5e7eb; stroke-opacity: 0.5; stroke-width: 0.4; stroke-linecap: square"/>
 </g>
 <g>
 <defs>
 <path d="M 0 0 
L -3.5 0 
" style="stroke: #9ca3af; stroke-width: 0.8"/>
 </defs>
 <g>
 <use xlink:href="#mf5c75d61fc" x="35.29" y="167.12" style="fill: #9ca3af; stroke: #9ca3af; stroke-width: 0.8"/>
 </g>
 </g>
 <g>
 <text style="fill: #9ca3af; font: 7px 'DejaVu Sans', 'Bitstream Vera Sans', 'Computer Modern Sans Serif', 'Lucida Grande', 'Verdana', 'Geneva', 'Lucid', 'Arial', 'Helvetica', 'Avant Garde', sans-serif; text-anchor: end" x="28.29" y="169.78" transform="rotate(-0 28.29 169.78)">−4</text>
 </g>
 </g>
 <g>
 <g>
 <path d="M 35.29 141.54 
L 286.39 141.54 
" style="fill: none; stroke: #e5e7eb; stroke-opacity: 0.5; stroke-width: 0.4; stroke-linecap: square"/>
 </g>
 <g>
 <g>
 <use xlink:href="#mf5c75d61fc" x="35.29" y="141.54" style="fill: #9ca3af; stroke: #9ca3af; stroke-width: 0.8"/>
 </g>
 </g>
 <g>
 <text style="fill: #9ca3af; font: 7px 'DejaVu Sans', 'Bitstream Vera Sans', 'Computer Modern Sans Serif', 'Lucida Grande', 'Verdana', 'Geneva', 'Lucid', 'Arial', 'Helvetica', 'Avant Garde', sans-serif; text-anchor: end" x="28.29" y="144.19" transform="rotate(-0 28.29 144.19)">−2</text>
 </g>
 </g>
 <g>
 <g>
 <path d="M 35.29 115.95 
L 286.39 115.95 
" style="fill: none; stroke: #e5e7eb; stroke-opacity: 0.5; stroke-width: 0.4; stroke-linecap: square"/>
 </g>
 <g>
 <g>
 <use xlink:href="#mf5c75d61fc" x="35.29" y="115.95" style="fill: #9ca3af; stroke: #9ca3af; stroke-width: 0.8"/>
 </g>
 </g>
 <g>
 <text style="fill: #9ca3af; font: 7px 'DejaVu Sans', 'Bitstream Vera Sans', 'Computer Modern Sans Serif', 'Lucida Grande', 'Verdana', 'Geneva', 'Lucid', 'Arial', 'Helvetica', 'Avant Garde', sans-serif; text-anchor: end" x="28.29" y="118.61" transform="rotate(-0 28.29 118.61)">0</text>
 </g>
 </g>
 <g>
 <g>
 <path d="M 35.29 90.36 
L 286.39 90.36 
" style="fill: none; stroke: #e5e7eb; stroke-opacity: 0.5; stroke-width: 0.4; stroke-linecap: square"/>
 </g>
 <g>
 <g>
 <use xlink:href="#mf5c75d61fc" x="35.29" y="90.36" style="fill: #9ca3af; stroke: #9ca3af; stroke-width: 0.8"/>
 </g>
 </g>
 <g>
 <text style="fill: #9ca3af; font: 7px 'DejaVu Sans', 'Bitstream Vera Sans', 'Computer Modern Sans Serif', 'Lucida Grande', 'Verdana', 'Geneva', 'Lucid', 'Arial', 'Helvetica', 'Avant Garde', sans-serif; text-anchor: end" x="28.29" y="93.02" transform="rotate(-0 28.29 93.02)">2</text>
 </g>
 </g>
 <g>
 <g>
 <path d="M 35.29 64.77 
L 286.39 64.77 
" style="fill: none; stroke: #e5e7eb; stroke-opacity: 0.5; stroke-width: 0.4; stroke-linecap: square"/>
 </g>
 <g>
 <g>
 <use xlink:href="#mf5c75d61fc" x="35.29" y="64.77" style="fill: #9ca3af; stroke: #9ca3af; stroke-width: 0.8"/>
 </g>
 </g>
 <g>
 <text style="fill: #9ca3af; font: 7px 'DejaVu Sans', 'Bitstream Vera Sans', 'Computer Modern Sans Serif', 'Lucida Grande', 'Verdana', 'Geneva', 'Lucid', 'Arial', 'Helvetica', 'Avant Garde', sans-serif; text-anchor: end" x="28.29" y="67.43" transform="rotate(-0 28.29 67.43)">4</text>
 </g>
 </g>
 <g>
 <g>
 <path d="M 35.29 39.18 
L 286.39 39.18 
" style="fill: none; stroke: #e5e7eb; stroke-opacity: 0.5; stroke-width: 0.4; stroke-linecap: square"/>
 </g>
 <g>
 <g>
 <use xlink:href="#mf5c75d61fc" x="35.29" y="39.18" style="fill: #9ca3af; stroke: #9ca3af; stroke-width: 0.8"/>
 </g>
 </g>
 <g>
 <text style="fill: #9ca3af; font: 7px 'DejaVu Sans', 'Bitstream Vera Sans', 'Computer Modern Sans Serif', 'Lucida Grande', 'Verdana', 'Geneva', 'Lucid', 'Arial', 'Helvetica', 'Avant Garde', sans-serif; text-anchor: end" x="28.29" y="41.84" transform="rotate(-0 28.29 41.84)">6</text>
 </g>
 </g>
 <g>
 <g>
 <path d="M 35.29 13.60 
L 286.39 13.60 
" style="fill: none; stroke: #e5e7eb; stroke-opacity: 0.5; stroke-width: 0.4; stroke-linecap: square"/>
 </g>
 <g>
 <g>
 <use xlink:href="#mf5c75d61fc" x="35.29" y="13.60" style="fill: #9ca3af; stroke: #9ca3af; stroke-width: 0.8"/>
 </g>
 </g>
 <g>
 <text style="fill: #9ca3af; font: 7px 'DejaVu Sans', 'Bitstream Vera Sans', 'Computer Modern Sans Serif', 'Lucida Grande', 'Verdana', 'Geneva', 'Lucid', 'Arial', 'Helvetica', 'Avant Garde', sans-serif; text-anchor: end" x="28.29" y="16.26" transform="rotate(-0 28.29 16.26)">8</text>
 </g>
 </g>
 <g>
 <text style="fill: #9ca3af; font: 7px 'DejaVu Sans', 'Bitstream Vera Sans', 'Computer Modern Sans Serif', 'Lucida Grande', 'Verdana', 'Geneva', 'Lucid', 'Arial', 'Helvetica', 'Avant Garde', sans-serif; text-anchor: middle" x="12.52" y="90.36" transform="rotate(-90 12.52 90.36)">y</text>
 </g>
 </g>
 <g>
 <path d="M 35.29 115.95 
L 286.39 115.95 
" style="fill: none; stroke: #9ca3af; stroke-width: 0.4; stroke-linecap: square"/>
 </g>
 <g>
 <path d="M 138.02 173.52 
L 138.02 7.2 
" style="fill: none; stroke: #9ca3af; stroke-width: 0.4; stroke-linecap: square"/>
 </g>
 <g>
 <path d="M 115.19 173.52 
L 115.19 7.2 
" style="fill: none; stroke-dasharray: 0.5,0.82; stroke-dashoffset: 0; stroke: #e5e7eb; stroke-opacity: 0.4; stroke-width: 0.5"/>
 </g>
 <g>
 <path d="M 206.50 173.52 
L 206.50 7.2 
" style="fill: none; stroke-dasharray: 0.5,0.82; stroke-dashoffset: 0; stroke: #e5e7eb; stroke-opacity: 0.4; stroke-width: 0.5"/>
 </g>
 <g>
 <path d="M 46.71 64.77 
L 49.56 64.24 
L 52.41 63.71 
L 55.27 63.17 
L 58.12 62.64 
L 60.97 62.11 
L 63.83 61.57 
L 66.68 61.04 
L 69.54 60.51 
L 72.39 59.97 
L 75.24 59.44 
L 78.10 58.91 
L 80.95 58.38 
L 83.80 57.84 
L 86.66 57.31 
L 89.51 56.78 
L 92.36 56.24 
L 95.22 55.71 
L 98.07 55.18 
L 100.92 54.64 
L 103.78 54.11 
L 106.63 53.58 
L 109.48 53.04 
L 112.34 52.51 
L 115.19 51.98 
" style="fill: none; stroke: #2563eb; stroke-width: 1.8; stroke-linecap: square"/>
 </g>
 <g>
 <path d="M 115.19 90.36 
L 118.99 93.03 
L 122.80 95.69 
L 126.60 98.36 
L 130.41 101.02 
L 134.21 103.69 
L 138.02 106.35 
L 141.82 109.02 
L 145.63 111.68 
L 149.43 114.35 
L 153.24 117.01 
L 157.04 119.68 
L 160.84 122.34 
L 164.65 125.01 
L 168.45 127.68 
L 172.26 130.34 
L 176.06 133.01 
L 179.87 135.67 
L 183.67 138.34 
L 187.48 141.00 
L 191.28 143.67 
L 195.09 146.33 
L 198.89 149.00 
L 202.69 151.66 
L 206.50 154.33 
" style="fill: none; stroke: #2563eb; stroke-width: 1.8; stroke-linecap: square"/>
 </g>
 <g>
 <path d="M 206.50 26.39 
L 209.35 30.12 
L 212.21 33.85 
L 215.06 37.59 
L 217.91 41.32 
L 220.77 45.05 
L 223.62 48.78 
L 226.47 52.51 
L 229.33 56.24 
L 232.18 59.97 
L 235.03 63.71 
L 237.89 67.44 
L 240.74 71.17 
L 243.59 74.90 
L 246.45 78.63 
L 249.30 82.36 
L 252.15 86.10 
L 255.01 89.83 
L 257.86 93.56 
L 260.71 97.29 
L 263.57 101.02 
L 266.42 104.75 
L 269.27 108.48 
L 272.13 112.22 
L 274.98 115.95 
" style="fill: none; stroke: #2563eb; stroke-width: 1.8; stroke-linecap: square"/>
 </g>
 <g>
 <path d="M 35.29 173.52 
L 35.29 7.2 
" style="fill: none; stroke: #9ca3af; stroke-width: 0.5; stroke-linejoin: miter; stroke-linecap: square"/>
 </g>
 <g>
 <path d="M 286.39 173.52 
L 286.39 7.2 
" style="fill: none; stroke: #9ca3af; stroke-width: 0.5; stroke-linejoin: miter; stroke-linecap: square"/>
 </g>
 <g>
 <path d="M 35.29 173.52 
L 286.39 173.52 
" style="fill: none; stroke: #9ca3af; stroke-width: 0.5; stroke-linejoin: miter; stroke-linecap: square"/>
 </g>
 <g>
 <path d="M 35.29 7.2 
L 286.39 7.2 
" style="fill: none; stroke: #9ca3af; stroke-width: 0.5; stroke-linejoin: miter; stroke-linecap: square"/>
 </g>
 <g>
 <defs>
 <path d="M 0 3 
C 0.80 3 1.56 2.68 2.12 2.12 
C 2.68 1.56 3 0.80 3 0 
C 3 -0.80 2.68 -1.56 2.12 -2.12 
C 1.56 -2.68 0.80 -3 0 -3 
C -0.80 -3 -1.56 -2.68 -2.12 -2.12 
C -2.68 -1.56 -3 -0.80 -3 0 
C -3 0.80 -2.68 1.56 -2.12 2.12 
C -1.56 2.68 -0.80 3 0 3 
z
" style="stroke: #2563eb"/>
 </defs>
 <g>
 <use xlink:href="#m7eac1d9bb4" x="46.71" y="64.77" style="fill: #2563eb; stroke: #2563eb"/>
 </g>
 </g>
 <g>
 <g>
 <use xlink:href="#m7eac1d9bb4" x="115.19" y="51.98" style="fill: #2563eb; stroke: #2563eb"/>
 </g>
 </g>
 <g>
 <defs>
 <path d="M 0 3 
C 0.80 3 1.56 2.68 2.12 2.12 
C 2.68 1.56 3 0.80 3 0 
C 3 -0.80 2.68 -1.56 2.12 -2.12 
C 1.56 -2.68 0.80 -3 0 -3 
C -0.80 -3 -1.56 -2.68 -2.12 -2.12 
C -2.68 -1.56 -3 -0.80 -3 0 
C -3 0.80 -2.68 1.56 -2.12 2.12 
C -1.56 2.68 -0.80 3 0 3 
z
" style="stroke: #2563eb; stroke-width: 1.5"/>
 </defs>
 <g>
 <use xlink:href="#m6e6cc45280" x="115.19" y="90.36" style="fill: #ffffff; stroke: #2563eb; stroke-width: 1.5"/>
 </g>
 </g>
 <g>
 <g>
 <use xlink:href="#m7eac1d9bb4" x="206.50" y="154.33" style="fill: #2563eb; stroke: #2563eb"/>
 </g>
 </g>
 <g>
 <g>
 <use xlink:href="#m6e6cc45280" x="206.50" y="26.39" style="fill: #ffffff; stroke: #2563eb; stroke-width: 1.5"/>
 </g>
 </g>
 <g>
 <g>
 <use xlink:href="#m7eac1d9bb4" x="274.98" y="115.95" style="fill: #2563eb; stroke: #2563eb"/>
 </g>
 </g>
 </g>
 </g>
 <defs>
 </defs>
</svg>