<?xml version="1.0" encoding="utf-8" standalone="no"?>
<!DOCTYPE svg PUBLIC "-//W3C//DTD SVG 1.1//EN"
 "http://www.w3.org/Graphics/SVG/1.1/DTD/svg11.dtd">
<svg xmlns:xlink="http://www.w3.org/1999/xlink" width="293.59pt" height="205.27pt" viewBox="0 0 293.59 205.27" xmlns="http://www.w3.org/2000/svg" version="1.1">
 <g>
 <g>
 <path d="M 0 205.27 
L 293.59 205.27 
L 293.59 0 
L 0 0 
L 0 205.27 
z
" style="fill: none"/>
 </g>
 <g>
 <g>
 <path d="M 35.29 173.52 
L 286.39 173.52 
L 286.39 7.2 
L 35.29 7.2 
L 35.29 173.52 
z
" style="fill: none"/>
 </g>
 <g>
 <g>
 <g>
 <path d="M 46.71 173.52 
L 46.71 7.2 
" style="fill: none; stroke: #e5e7eb; stroke-opacity: 0.5; stroke-width: 0.4; stroke-linecap: square"/>
 </g>
 <g>
 <defs>
 <path d="M 0 0 
L 0 3.5 
" style="stroke: #9ca3af; stroke-width: 0.8"/>
 </defs>
 <g>
 <use xlink:href="#m856feb0862" x="46.71" y="173.52" style="fill: #9ca3af; stroke: #9ca3af; stroke-width: 0.8"/>
 </g>
 </g>
 <g>
 <text style="fill: #9ca3af; font: 7px 'DejaVu Sans', 'Bitstream Vera Sans', 'Computer Modern Sans Serif', 'Lucida Grande', 'Verdana', 'Geneva', 'Lucid', 'Arial', 'Helvetica', 'Avant Garde', sans-serif; text-anchor: middle" x="46.71" y="185.84" transform="rotate(-0 46.71 185.84)">−4</text>
 </g>
 </g>
 <g>
 <g>
 <path d="M 92.36 173.52 
L 92.36 7.2 
" style="fill: none; stroke: #e5e7eb; stroke-opacity: 0.5; stroke-width: 0.4; stroke-linecap: square"/>
 </g>
 <g>
 <g>
 <use xlink:href="#m856feb0862" x="92.36" y="173.52" style="fill: #9ca3af; stroke: #9ca3af; stroke-width: 0.8"/>
 </g>
 </g>
 <g>
 <text style="fill: #9ca3af; font: 7px 'DejaVu Sans', 'Bitstream Vera Sans', 'Computer Modern Sans Serif', 'Lucida Grande', 'Verdana', 'Geneva', 'Lucid', 'Arial', 'Helvetica', 'Avant Garde', sans-serif; text-anchor: middle" x="92.36" y="185.84" transform="rotate(-0 92.36 185.84)">−2</text>
 </g>
 </g>
 <g>
 <g>
 <path d="M 138.02 173.52 
L 138.02 7.2 
" style="fill: none; stroke: #e5e7eb; stroke-opacity: 0.5; stroke-width: 0.4; stroke-linecap: square"/>
 </g>
 <g>
 <g>
 <use xlink:href="#m856feb0862" x="138.02" y="173.52" style="fill: #9ca3af; stroke: #9ca3af; stroke-width: 0.8"/>
 </g>
 </g>
 <g>
 <text style="fill: #9ca3af; font: 7px 'DejaVu Sans', 'Bitstream Vera Sans', 'Computer Modern Sans Serif', 'Lucida Grande', 'Verdana', 'Geneva', 'Lucid', 'Arial', 'Helvetica', 'Avant Garde', sans-serif; text-anchor: middle" x="138.02" y="185.84" transform="rotate(-0 138.02 185.84)">0</text>
 </g>
 </g>
 <g>
 <g>
 <path d="M 183.67 173.52 
L 183.67 7.2 
" style="fill: none; stroke: #e5e7eb; stroke-opacity: 0.5; stroke-width: 0.4; stroke-linecap: square"/>
 </g>
 <g>
 <g>
 <use xlink:href="#m856feb0862" x="183.67" y="173.52" style="fill: #9ca3af; stroke: #9ca3af; stroke-width: 0.8"/>
 </g>
 </g>
 <g>
 <text style="fill: #9ca3af; font: 7px 'DejaVu Sans', 'Bitstream Vera Sans', 'Computer Modern Sans Serif', 'Lucida Grande', 'Verdana', 'Geneva', 'Lucid', 'Arial', 'Helvetica', 'Avant Garde', sans-serif; text-anchor: middle" x="183.67" y="185.84" transform="rotate(-0 183.67 185.84)">2</text>
 </g>
 </g>
 <g>
 <g>
 <path d="M 229.33 173.52 
L 229.33 7.2 
" style="fill: none; stroke: #e5e7eb; stroke-opacity: 0.5; stroke-width: 0.4; stroke-linecap: square"/>
 </g>
 <g>
 <g>
 <use xlink:href="#m856feb0862" x="229.33" y="173.52" style="fill: #9ca3af; stroke: #9ca3af; stroke-width: 0.8"/>
 </g>
 </g>
 <g>
 <text style="fill: #9ca3af; font: 7px 'DejaVu Sans', 'Bitstream Vera Sans', 'Computer Modern Sans Serif', 'Lucida Grande', 'Verdana', 'Geneva', 'Lucid', 'Arial', 'Helvetica', 'Avant Garde', sans-serif; text-anchor: middle" x="229.33" y="185.84" transform="rotate(-0 229.33 185.84)">4</text>
 </g>
 </g>
 <g>
 <g>
 <path d="M 274.98 173.52 
L 274.98 7.2 
" style="fill: none; stroke: #e5e7eb; stroke-opacity: 0.5; stroke-width: 0.4; stroke-linecap: square"/>
 </g>
 <g>
 <g>
 <use xlink:href="#m856feb0862" x="274.98" y="173.52" style="fill: #9ca3af; stroke: #9ca3af; stroke-width: 0.8"/>
 </g>
 </g>
 <g>
 <text style="fill: #9ca3af; font: 7px 'DejaVu Sans', 'Bitstream Vera Sans', 'Computer Modern Sans Serif', 'Lucida Grande', 'Verdana', 'Geneva', 'Lucid', 'Arial', 'Helvetica', 'Avant Garde', sans-serif; text-anchor: middle" x="274.98" y="185.84" transform="rotate(-0 274.98 185.84)">6</text>
 </g>
 </g>
 <g>
 <text style="fill: #9ca3af; font: 7px 'DejaVu Sans', 'Bitstream Vera Sans', 'Computer Modern Sans Serif', 'Lucida Grande', 'Verdana', 'Geneva', 'Lucid', 'Arial', 'Helvetica', 'Avant Garde', sans-serif; text-anchor: middle" x="160.84" y="196.61" transform="rotate(-0 160.84 196.61)">x</text>
 </g>
 </g>
 <g>
 <g>
 <g>
 <path d="M 35.29 162.79 
L 286.39 162.79 
" style="fill: none; stroke: #e5e7eb; stroke-opacity: 0.5; stroke-width: 0.4; stroke-linecap: square"/>
 </g>
 <g>
 <defs>
 <path d="M 0 0 
L -3.5 0 
" style="stroke: #9ca3af; stroke-width: 0.8"/>
 </defs>
 <g>
 <use xlink:href="#m96b20c6a94" x="35.29" y="162.79" style="fill: #9ca3af; stroke: #9ca3af; stroke-width: 0.8"/>
 </g>
 </g>
 <g>
 <text style="fill: #9ca3af; font: 7px 'DejaVu Sans', 'Bitstream Vera Sans', 'Computer Modern Sans Serif', 'Lucida Grande', 'Verdana', 'Geneva', 'Lucid', 'Arial', 'Helvetica', 'Avant Garde', sans-serif; text-anchor: end" x="28.29" y="165.45" transform="rotate(-0 28.29 165.45)">−6</text>
 </g>
 </g>
 <g>
 <g>
 <path d="M 35.29 141.33 
L 286.39 141.33 
" style="fill: none; stroke: #e5e7eb; stroke-opacity: 0.5; stroke-width: 0.4; stroke-linecap: square"/>
 </g>
 <g>
 <g>
 <use xlink:href="#m96b20c6a94" x="35.29" y="141.33" style="fill: #9ca3af; stroke: #9ca3af; stroke-width: 0.8"/>
 </g>
 </g>
 <g>
 <text style="fill: #9ca3af; font: 7px 'DejaVu Sans', 'Bitstream Vera Sans', 'Computer Modern Sans Serif', 'Lucida Grande', 'Verdana', 'Geneva', 'Lucid', 'Arial', 'Helvetica', 'Avant Garde', sans-serif; text-anchor: end" x="28.29" y="143.99" transform="rotate(-0 28.29 143.99)">−4</text>
 </g>
 </g>
 <g>
 <g>
 <path d="M 35.29 119.87 
L 286.39 119.87 
" style="fill: none; stroke: #e5e7eb; stroke-opacity: 0.5; stroke-width: 0.4; stroke-linecap: square"/>
 </g>
 <g>
 <g>
 <use xlink:href="#m96b20c6a94" x="35.29" y="119.87" style="fill: #9ca3af; stroke: #9ca3af; stroke-width: 0.8"/>
 </g>
 </g>
 <g>
 <text style="fill: #9ca3af; font: 7px 'DejaVu Sans', 'Bitstream Vera Sans', 'Computer Modern Sans Serif', 'Lucida Grande', 'Verdana', 'Geneva', 'Lucid', 'Arial', 'Helvetica', 'Avant Garde', sans-serif; text-anchor: end" x="28.29" y="122.53" transform="rotate(-0 28.29 122.53)">−2</text>
 </g>
 </g>
 <g>
 <g>
 <path d="M 35.29 98.41 
L 286.39 98.41 
" style="fill: none; stroke: #e5e7eb; stroke-opacity: 0.5; stroke-width: 0.4; stroke-linecap: square"/>
 </g>
 <g>
 <g>
 <use xlink:href="#m96b20c6a94" x="35.29" y="98.41" style="fill: #9ca3af; stroke: #9ca3af; stroke-width: 0.8"/>
 </g>
 </g>
 <g>
 <text style="fill: #9ca3af; font: 7px 'DejaVu Sans', 'Bitstream Vera Sans', 'Computer Modern Sans Serif', 'Lucida Grande', 'Verdana', 'Geneva', 'Lucid', 'Arial', 'Helvetica', 'Avant Garde', sans-serif; text-anchor: end" x="28.29" y="101.07" transform="rotate(-0 28.29 101.07)">0</text>
 </g>
 </g>
 <g>
 <g>
 <path d="M 35.29 76.95 
L 286.39 76.95 
" style="fill: none; stroke: #e5e7eb; stroke-opacity: 0.5; stroke-width: 0.4; stroke-linecap: square"/>
 </g>
 <g>
 <g>
 <use xlink:href="#m96b20c6a94" x="35.29" y="76.95" style="fill: #9ca3af; stroke: #9ca3af; stroke-width: 0.8"/>
 </g>
 </g>
 <g>
 <text style="fill: #9ca3af; font: 7px 'DejaVu Sans', 'Bitstream Vera Sans', 'Computer Modern Sans Serif', 'Lucida Grande', 'Verdana', 'Geneva', 'Lucid', 'Arial', 'Helvetica', 'Avant Garde', sans-serif; text-anchor: end" x="28.29" y="79.61" transform="rotate(-0 28.29 79.61)">2</text>
 </g>
 </g>
 <g>
 <g>
 <path d="M 35.29 55.49 
L 286.39 55.49 
" style="fill: none; stroke: #e5e7eb; stroke-opacity: 0.5; stroke-width: 0.4; stroke-linecap: square"/>
 </g>
 <g>
 <g>
 <use xlink:href="#m96b20c6a94" x="35.29" y="55.49" style="fill: #9ca3af; stroke: #9ca3af; stroke-width: 0.8"/>
 </g>
 </g>
 <g>
 <text style="fill: #9ca3af; font: 7px 'DejaVu Sans', 'Bitstream Vera Sans', 'Computer Modern Sans Serif', 'Lucida Grande', 'Verdana', 'Geneva', 'Lucid', 'Arial', 'Helvetica', 'Avant Garde', sans-serif; text-anchor: end" x="28.29" y="58.15" transform="rotate(-0 28.29 58.15)">4</text>
 </g>
 </g>
 <g>
 <g>
 <path d="M 35.29 34.03 
L 286.39 34.03 
" style="fill: none; stroke: #e5e7eb; stroke-opacity: 0.5; stroke-width: 0.4; stroke-linecap: square"/>
 </g>
 <g>
 <g>
 <use xlink:href="#m96b20c6a94" x="35.29" y="34.03" style="fill: #9ca3af; stroke: #9ca3af; stroke-width: 0.8"/>
 </g>
 </g>
 <g>
 <text style="fill: #9ca3af; font: 7px 'DejaVu Sans', 'Bitstream Vera Sans', 'Computer Modern Sans Serif', 'Lucida Grande', 'Verdana', 'Geneva', 'Lucid', 'Arial', 'Helvetica', 'Avant Garde', sans-serif; text-anchor: end" x="28.29" y="36.69" transform="rotate(-0 28.29 36.69)">6</text>
 </g>
 </g>
 <g>
 <g>
 <path d="M 35.29 12.57 
L 286.39 12.57 
" style="fill: none; stroke: #e5e7eb; stroke-opacity: 0.5; stroke-width: 0.4; stroke-linecap: square"/>
 </g>
 <g>
 <g>
 <use xlink:href="#m96b20c6a94" x="35.29" y="12.57" style="fill: #9ca3af; stroke: #9ca3af; stroke-width: 0.8"/>
 </g>
 </g>
 <g>
 <text style="fill: #9ca3af; font: 7px 'DejaVu Sans', 'Bitstream Vera Sans', 'Computer Modern Sans Serif', 'Lucida Grande', 'Verdana', 'Geneva', 'Lucid', 'Arial', 'Helvetica', 'Avant Garde', sans-serif; text-anchor: end" x="28.29" y="15.22" transform="rotate(-0 28.29 15.22)">8</text>
 </g>
 </g>
 <g>
 <text style="fill: #9ca3af; font: 7px 'DejaVu Sans', 'Bitstream Vera Sans', 'Computer Modern Sans Serif', 'Lucida Grande', 'Verdana', 'Geneva', 'Lucid', 'Arial', 'Helvetica', 'Avant Garde', sans-serif; text-anchor: middle" x="12.52" y="90.36" transform="rotate(-90 12.52 90.36)">y</text>
 </g>
 </g>
 <g>
 <path d="M 35.29 98.41 
L 286.39 98.41 
" style="fill: none; stroke: #9ca3af; stroke-width: 0.4; stroke-linecap: square"/>
 </g>
 <g>
 <path d="M 138.02 173.52 
L 138.02 7.2 
" style="fill: none; stroke: #9ca3af; stroke-width: 0.4; stroke-linecap: square"/>
 </g>
 <g>
 <path d="M 69.54 173.52 
L 69.54 7.2 
" style="fill: none; stroke-dasharray: 1,1.65; stroke-dashoffset: 0; stroke: #ef4444; stroke-opacity: 0.8"/>
 </g>
 <g>
 <path d="M 229.33 173.52 
L 229.33 7.2 
" style="fill: none; stroke-dasharray: 0.5,0.82; stroke-dashoffset: 0; stroke: #e5e7eb; stroke-opacity: 0.4; stroke-width: 0.5"/>
 </g>
 <g>
 <path d="M 46.71 44.76 
L 47.66 45.22 
L 48.61 45.73 
L 49.56 46.29 
L 50.51 46.90 
L 51.46 47.58 
L 52.41 48.33 
L 53.37 49.17 
L 54.32 50.12 
L 55.27 51.19 
L 56.22 52.42 
L 57.17 53.84 
L 58.12 55.49 
L 59.07 57.44 
L 60.02 59.78 
L 60.97 62.64 
L 61.93 66.22 
L 62.88 70.82 
L 63.83 76.95 
L 64.78 85.53 
L 65.73 98.41 
L 66.68 119.87 
L 67.63 162.79 
L 67.95 206.27 
" style="fill: none; stroke: #2563eb; stroke-width: 1.8; stroke-linecap: square"/>
 </g>
 <g>
 <path d="M 76.19 60.09 
L 82.85 41.69 
L 89.51 35.56 
L 96.17 32.49 
L 102.82 30.65 
L 109.48 29.43 
L 116.14 28.55 
L 122.80 27.89 
L 129.46 27.38 
L 136.11 26.97 
L 142.77 26.64 
L 149.43 26.36 
L 156.09 26.13 
L 162.75 25.92 
L 169.40 25.75 
L 176.06 25.59 
L 182.72 25.46 
L 189.38 25.34 
L 196.04 25.23 
L 202.69 25.13 
L 209.35 25.05 
L 216.01 24.97 
L 222.67 24.90 
L 229.33 24.83 
" style="fill: none; stroke: #2563eb; stroke-width: 1.8; stroke-linecap: square"/>
 </g>
 <g>
 <path d="M 229.33 23.30 
L 231.23 27.80 
L 233.13 32.39 
L 235.03 37.04 
L 236.94 41.78 
L 238.84 46.58 
L 240.74 51.46 
L 242.64 56.42 
L 244.54 61.45 
L 246.45 66.55 
L 248.35 71.73 
L 250.25 76.98 
L 252.15 82.31 
L 254.06 87.71 
L 255.96 93.19 
L 257.86 98.74 
L 259.76 104.37 
L 261.66 110.07 
L 263.57 115.84 
L 265.47 121.69 
L 267.37 127.62 
L 269.27 133.62 
L 271.18 139.69 
L 273.08 145.84 
L 274.98 152.06 
" style="fill: none; stroke: #2563eb; stroke-width: 1.8; stroke-linecap: square"/>
 </g>
 <g>
 <path d="M 35.29 173.52 
L 35.29 7.2 
" style="fill: none; stroke: #9ca3af; stroke-width: 0.5; stroke-linejoin: miter; stroke-linecap: square"/>
 </g>
 <g>
 <path d="M 286.39 173.52 
L 286.39 7.2 
" style="fill: none; stroke: #9ca3af; stroke-width: 0.5; stroke-linejoin: miter; stroke-linecap: square"/>
 </g>
 <g>
 <path d="M 35.29 173.52 
L 286.39 173.52 
" style="fill: none; stroke: #9ca3af; stroke-width: 0.5; stroke-linejoin: miter; stroke-linecap: square"/>
 </g>
 <g>
 <path d="M 35.29 7.2 
L 286.39 7.2 
" style="fill: none; stroke: #9ca3af; stroke-width: 0.5; stroke-linejoin: miter; stroke-linecap: square"/>
 </g>
 <g>
 <defs>
 <path d="M 0 3 
C 0.80 3 1.56 2.68 2.12 2.12 
C 2.68 1.56 3 0.80 3 0 
C 3 -0.80 2.68 -1.56 2.12 -2.12 
C 1.56 -2.68 0.80 -3 0 -3 
C -0.80 -3 -1.56 -2.68 -2.12 -2.12 
C -2.68 -1.56 -3 -0.80 -3 0 
C -3 0.80 -2.68 1.56 -2.12 2.12 
C -1.56 2.68 -0.80 3 0 3 
z
" style="stroke: #2563eb"/>
 </defs>
 <g>
 <use xlink:href="#m4820f9c6e3" x="46.71" y="44.76" style="fill: #2563eb; stroke: #2563eb"/>
 </g>
 </g>
 <g>
 <g>
 <use xlink:href="#m4820f9c6e3" x="229.33" y="24.83" style="fill: #2563eb; stroke: #2563eb"/>
 </g>
 </g>
 <g>
 <g>
 <use xlink:href="#m4820f9c6e3" x="229.33" y="23.30" style="fill: #2563eb; stroke: #2563eb"/>
 </g>
 </g>
 <g>
 <g>
 <use xlink:href="#m4820f9c6e3" x="274.98" y="152.06" style="fill: #2563eb; stroke: #2563eb"/>
 </g>
 </g>
 </g>
 </g>
 <defs>
 </defs>
</svg>