<?xml version="1.0" encoding="utf-8" standalone="no"?>
<!DOCTYPE svg PUBLIC "-//W3C//DTD SVG 1.1//EN"
 "http://www.w3.org/Graphics/SVG/1.1/DTD/svg11.dtd">
<svg xmlns:xlink="http://www.w3.org/1999/xlink" width="293.59pt" height="205.27pt" viewBox="0 0 293.59 205.27" xmlns="http://www.w3.org/2000/svg" version="1.1">
 <g>
 <g>
 <path d="M 0 205.27 
L 293.59 205.27 
L 293.59 0 
L 0 0 
L 0 205.27 
z
" style="fill: none"/>
 </g>
 <g>
 <g>
 <path d="M 35.29 173.52 
L 286.39 173.52 
L 286.39 7.2 
L 35.29 7.2 
L 35.29 173.52 
z
" style="fill: none"/>
 </g>
 <g>
 <g>
 <g>
 <path d="M 46.71 173.52 
L 46.71 7.2 
" style="fill: none; stroke: #e5e7eb; stroke-opacity: 0.5; stroke-width: 0.4; stroke-linecap: square"/>
 </g>
 <g>
 <defs>
 <path d="M 0 0 
L 0 3.5 
" style="stroke: #9ca3af; stroke-width: 0.8"/>
 </defs>
 <g>
 <use xlink:href="#m468dd0f73a" x="46.71" y="173.52" style="fill: #9ca3af; stroke: #9ca3af; stroke-width: 0.8"/>
 </g>
 </g>
 <g>
 <text style="fill: #9ca3af; font: 7px 'DejaVu Sans', 'Bitstream Vera Sans', 'Computer Modern Sans Serif', 'Lucida Grande', 'Verdana', 'Geneva', 'Lucid', 'Arial', 'Helvetica', 'Avant Garde', sans-serif; text-anchor: middle" x="46.71" y="185.84" transform="rotate(-0 46.71 185.84)">−4</text>
 </g>
 </g>
 <g>
 <g>
 <path d="M 92.36 173.52 
L 92.36 7.2 
" style="fill: none; stroke: #e5e7eb; stroke-opacity: 0.5; stroke-width: 0.4; stroke-linecap: square"/>
 </g>
 <g>
 <g>
 <use xlink:href="#m468dd0f73a" x="92.36" y="173.52" style="fill: #9ca3af; stroke: #9ca3af; stroke-width: 0.8"/>
 </g>
 </g>
 <g>
 <text style="fill: #9ca3af; font: 7px 'DejaVu Sans', 'Bitstream Vera Sans', 'Computer Modern Sans Serif', 'Lucida Grande', 'Verdana', 'Geneva', 'Lucid', 'Arial', 'Helvetica', 'Avant Garde', sans-serif; text-anchor: middle" x="92.36" y="185.84" transform="rotate(-0 92.36 185.84)">−2</text>
 </g>
 </g>
 <g>
 <g>
 <path d="M 138.02 173.52 
L 138.02 7.2 
" style="fill: none; stroke: #e5e7eb; stroke-opacity: 0.5; stroke-width: 0.4; stroke-linecap: square"/>
 </g>
 <g>
 <g>
 <use xlink:href="#m468dd0f73a" x="138.02" y="173.52" style="fill: #9ca3af; stroke: #9ca3af; stroke-width: 0.8"/>
 </g>
 </g>
 <g>
 <text style="fill: #9ca3af; font: 7px 'DejaVu Sans', 'Bitstream Vera Sans', 'Computer Modern Sans Serif', 'Lucida Grande', 'Verdana', 'Geneva', 'Lucid', 'Arial', 'Helvetica', 'Avant Garde', sans-serif; text-anchor: middle" x="138.02" y="185.84" transform="rotate(-0 138.02 185.84)">0</text>
 </g>
 </g>
 <g>
 <g>
 <path d="M 183.67 173.52 
L 183.67 7.2 
" style="fill: none; stroke: #e5e7eb; stroke-opacity: 0.5; stroke-width: 0.4; stroke-linecap: square"/>
 </g>
 <g>
 <g>
 <use xlink:href="#m468dd0f73a" x="183.67" y="173.52" style="fill: #9ca3af; stroke: #9ca3af; stroke-width: 0.8"/>
 </g>
 </g>
 <g>
 <text style="fill: #9ca3af; font: 7px 'DejaVu Sans', 'Bitstream Vera Sans', 'Computer Modern Sans Serif', 'Lucida Grande', 'Verdana', 'Geneva', 'Lucid', 'Arial', 'Helvetica', 'Avant Garde', sans-serif; text-anchor: middle" x="183.67" y="185.84" transform="rotate(-0 183.67 185.84)">2</text>
 </g>
 </g>
 <g>
 <g>
 <path d="M 229.33 173.52 
L 229.33 7.2 
" style="fill: none; stroke: #e5e7eb; stroke-opacity: 0.5; stroke-width: 0.4; stroke-linecap: square"/>
 </g>
 <g>
 <g>
 <use xlink:href="#m468dd0f73a" x="229.33" y="173.52" style="fill: #9ca3af; stroke: #9ca3af; stroke-width: 0.8"/>
 </g>
 </g>
 <g>
 <text style="fill: #9ca3af; font: 7px 'DejaVu Sans', 'Bitstream Vera Sans', 'Computer Modern Sans Serif', 'Lucida Grande', 'Verdana', 'Geneva', 'Lucid', 'Arial', 'Helvetica', 'Avant Garde', sans-serif; text-anchor: middle" x="229.33" y="185.84" transform="rotate(-0 229.33 185.84)">4</text>
 </g>
 </g>
 <g>
 <g>
 <path d="M 274.98 173.52 
L 274.98 7.2 
" style="fill: none; stroke: #e5e7eb; stroke-opacity: 0.5; stroke-width: 0.4; stroke-linecap: square"/>
 </g>
 <g>
 <g>
 <use xlink:href="#m468dd0f73a" x="274.98" y="173.52" style="fill: #9ca3af; stroke: #9ca3af; stroke-width: 0.8"/>
 </g>
 </g>
 <g>
 <text style="fill: #9ca3af; font: 7px 'DejaVu Sans', 'Bitstream Vera Sans', 'Computer Modern Sans Serif', 'Lucida Grande', 'Verdana', 'Geneva', 'Lucid', 'Arial', 'Helvetica', 'Avant Garde', sans-serif; text-anchor: middle" x="274.98" y="185.84" transform="rotate(-0 274.98 185.84)">6</text>
 </g>
 </g>
 <g>
 <text style="fill: #9ca3af; font: 7px 'DejaVu Sans', 'Bitstream Vera Sans', 'Computer Modern Sans Serif', 'Lucida Grande', 'Verdana', 'Geneva', 'Lucid', 'Arial', 'Helvetica', 'Avant Garde', sans-serif; text-anchor: middle" x="160.84" y="196.61" transform="rotate(-0 160.84 196.61)">x</text>
 </g>
 </g>
 <g>
 <g>
 <g>
 <path d="M 35.29 167.98 
L 286.39 167.98 
" style="fill: none; stroke: #e5e7eb; stroke-opacity: 0.5; stroke-width: 0.4; stroke-linecap: square"/>
 </g>
 <g>
 <defs>
 <path d="M 0 0 
L -3.5 0 
" style="stroke: #9ca3af; stroke-width: 0.8"/>
 </defs>
 <g>
 <use xlink:href="#m81c972dc44" x="35.29" y="167.98" style="fill: #9ca3af; stroke: #9ca3af; stroke-width: 0.8"/>
 </g>
 </g>
 <g>
 <text style="fill: #9ca3af; font: 7px 'DejaVu Sans', 'Bitstream Vera Sans', 'Computer Modern Sans Serif', 'Lucida Grande', 'Verdana', 'Geneva', 'Lucid', 'Arial', 'Helvetica', 'Avant Garde', sans-serif; text-anchor: end" x="28.29" y="170.64" transform="rotate(-0 28.29 170.64)">−6</text>
 </g>
 </g>
 <g>
 <g>
 <path d="M 35.29 145.8 
L 286.39 145.8 
" style="fill: none; stroke: #e5e7eb; stroke-opacity: 0.5; stroke-width: 0.4; stroke-linecap: square"/>
 </g>
 <g>
 <g>
 <use xlink:href="#m81c972dc44" x="35.29" y="145.8" style="fill: #9ca3af; stroke: #9ca3af; stroke-width: 0.8"/>
 </g>
 </g>
 <g>
 <text style="fill: #9ca3af; font: 7px 'DejaVu Sans', 'Bitstream Vera Sans', 'Computer Modern Sans Serif', 'Lucida Grande', 'Verdana', 'Geneva', 'Lucid', 'Arial', 'Helvetica', 'Avant Garde', sans-serif; text-anchor: end" x="28.29" y="148.46" transform="rotate(-0 28.29 148.46)">−4</text>
 </g>
 </g>
 <g>
 <g>
 <path d="M 35.29 123.62 
L 286.39 123.62 
" style="fill: none; stroke: #e5e7eb; stroke-opacity: 0.5; stroke-width: 0.4; stroke-linecap: square"/>
 </g>
 <g>
 <g>
 <use xlink:href="#m81c972dc44" x="35.29" y="123.62" style="fill: #9ca3af; stroke: #9ca3af; stroke-width: 0.8"/>
 </g>
 </g>
 <g>
 <text style="fill: #9ca3af; font: 7px 'DejaVu Sans', 'Bitstream Vera Sans', 'Computer Modern Sans Serif', 'Lucida Grande', 'Verdana', 'Geneva', 'Lucid', 'Arial', 'Helvetica', 'Avant Garde', sans-serif; text-anchor: end" x="28.29" y="126.28" transform="rotate(-0 28.29 126.28)">−2</text>
 </g>
 </g>
 <g>
 <g>
 <path d="M 35.29 101.45 
L 286.39 101.45 
" style="fill: none; stroke: #e5e7eb; stroke-opacity: 0.5; stroke-width: 0.4; stroke-linecap: square"/>
 </g>
 <g>
 <g>
 <use xlink:href="#m81c972dc44" x="35.29" y="101.45" style="fill: #9ca3af; stroke: #9ca3af; stroke-width: 0.8"/>
 </g>
 </g>
 <g>
 <text style="fill: #9ca3af; font: 7px 'DejaVu Sans', 'Bitstream Vera Sans', 'Computer Modern Sans Serif', 'Lucida Grande', 'Verdana', 'Geneva', 'Lucid', 'Arial', 'Helvetica', 'Avant Garde', sans-serif; text-anchor: end" x="28.29" y="104.11" transform="rotate(-0 28.29 104.11)">0</text>
 </g>
 </g>
 <g>
 <g>
 <path d="M 35.29 79.27 
L 286.39 79.27 
" style="fill: none; stroke: #e5e7eb; stroke-opacity: 0.5; stroke-width: 0.4; stroke-linecap: square"/>
 </g>
 <g>
 <g>
 <use xlink:href="#m81c972dc44" x="35.29" y="79.27" style="fill: #9ca3af; stroke: #9ca3af; stroke-width: 0.8"/>
 </g>
 </g>
 <g>
 <text style="fill: #9ca3af; font: 7px 'DejaVu Sans', 'Bitstream Vera Sans', 'Computer Modern Sans Serif', 'Lucida Grande', 'Verdana', 'Geneva', 'Lucid', 'Arial', 'Helvetica', 'Avant Garde', sans-serif; text-anchor: end" x="28.29" y="81.93" transform="rotate(-0 28.29 81.93)">2</text>
 </g>
 </g>
 <g>
 <g>
 <path d="M 35.29 57.10 
L 286.39 57.10 
" style="fill: none; stroke: #e5e7eb; stroke-opacity: 0.5; stroke-width: 0.4; stroke-linecap: square"/>
 </g>
 <g>
 <g>
 <use xlink:href="#m81c972dc44" x="35.29" y="57.10" style="fill: #9ca3af; stroke: #9ca3af; stroke-width: 0.8"/>
 </g>
 </g>
 <g>
 <text style="fill: #9ca3af; font: 7px 'DejaVu Sans', 'Bitstream Vera Sans', 'Computer Modern Sans Serif', 'Lucida Grande', 'Verdana', 'Geneva', 'Lucid', 'Arial', 'Helvetica', 'Avant Garde', sans-serif; text-anchor: end" x="28.29" y="59.76" transform="rotate(-0 28.29 59.76)">4</text>
 </g>
 </g>
 <g>
 <g>
 <path d="M 35.29 34.92 
L 286.39 34.92 
" style="fill: none; stroke: #e5e7eb; stroke-opacity: 0.5; stroke-width: 0.4; stroke-linecap: square"/>
 </g>
 <g>
 <g>
 <use xlink:href="#m81c972dc44" x="35.29" y="34.92" style="fill: #9ca3af; stroke: #9ca3af; stroke-width: 0.8"/>
 </g>
 </g>
 <g>
 <text style="fill: #9ca3af; font: 7px 'DejaVu Sans', 'Bitstream Vera Sans', 'Computer Modern Sans Serif', 'Lucida Grande', 'Verdana', 'Geneva', 'Lucid', 'Arial', 'Helvetica', 'Avant Garde', sans-serif; text-anchor: end" x="28.29" y="37.58" transform="rotate(-0 28.29 37.58)">6</text>
 </g>
 </g>
 <g>
 <g>
 <path d="M 35.29 12.74 
L 286.39 12.74 
" style="fill: none; stroke: #e5e7eb; stroke-opacity: 0.5; stroke-width: 0.4; stroke-linecap: square"/>
 </g>
 <g>
 <g>
 <use xlink:href="#m81c972dc44" x="35.29" y="12.74" style="fill: #9ca3af; stroke: #9ca3af; stroke-width: 0.8"/>
 </g>
 </g>
 <g>
 <text style="fill: #9ca3af; font: 7px 'DejaVu Sans', 'Bitstream Vera Sans', 'Computer Modern Sans Serif', 'Lucida Grande', 'Verdana', 'Geneva', 'Lucid', 'Arial', 'Helvetica', 'Avant Garde', sans-serif; text-anchor: end" x="28.29" y="15.40" transform="rotate(-0 28.29 15.40)">8</text>
 </g>
 </g>
 <g>
 <text style="fill: #9ca3af; font: 7px 'DejaVu Sans', 'Bitstream Vera Sans', 'Computer Modern Sans Serif', 'Lucida Grande', 'Verdana', 'Geneva', 'Lucid', 'Arial', 'Helvetica', 'Avant Garde', sans-serif; text-anchor: middle" x="12.52" y="90.36" transform="rotate(-90 12.52 90.36)">y</text>
 </g>
 </g>
 <g>
 <path d="M 35.29 101.45 
L 286.39 101.45 
" style="fill: none; stroke: #9ca3af; stroke-width: 0.4; stroke-linecap: square"/>
 </g>
 <g>
 <path d="M 138.02 173.52 
L 138.02 7.2 
" style="fill: none; stroke: #9ca3af; stroke-width: 0.4; stroke-linecap: square"/>
 </g>
 <g>
 <path d="M 115.19 173.52 
L 115.19 7.2 
" style="fill: none; stroke-dasharray: 1,1.65; stroke-dashoffset: 0; stroke: #ef4444; stroke-opacity: 0.8"/>
 </g>
 <g>
 <path d="M 229.33 173.52 
L 229.33 7.2 
" style="fill: none; stroke-dasharray: 0.5,0.82; stroke-dashoffset: 0; stroke: #e5e7eb; stroke-opacity: 0.4; stroke-width: 0.5"/>
 </g>
 <g>
 <path d="M 252.15 173.52 
L 252.15 7.2 
" style="fill: none; stroke-dasharray: 0.5,0.82; stroke-dashoffset: 0; stroke: #e5e7eb; stroke-opacity: 0.4; stroke-width: 0.5"/>
 </g>
 <g>
 <path d="M 46.71 60.79 
L 49.56 60.95 
L 52.41 61.13 
L 55.27 61.32 
L 58.12 61.53 
L 60.97 61.76 
L 63.83 62.02 
L 66.68 62.31 
L 69.54 62.64 
L 72.39 63.01 
L 75.24 63.43 
L 78.10 63.92 
L 80.95 64.49 
L 83.80 65.16 
L 86.66 65.97 
L 89.51 66.95 
L 92.36 68.18 
L 95.22 69.77 
L 98.07 71.88 
L 100.92 74.84 
L 103.78 79.27 
L 106.63 86.66 
L 109.48 101.45 
L 112.34 145.8 
" style="fill: none; stroke: #2563eb; stroke-width: 1.8; stroke-linecap: square"/>
 </g>
 <g>
 <path d="M 119.95 154.67 
L 124.70 128.06 
L 129.46 119.19 
L 134.21 114.75 
L 138.97 112.09 
L 143.72 110.32 
L 148.48 109.05 
L 153.24 108.10 
L 157.99 107.36 
L 162.75 106.77 
L 167.50 106.29 
L 172.26 105.88 
L 177.01 105.54 
L 181.77 105.25 
L 186.52 105.00 
L 191.28 104.77 
L 196.04 104.58 
L 200.79 104.40 
L 205.55 104.25 
L 210.30 104.11 
L 215.06 103.98 
L 219.81 103.87 
L 224.57 103.76 
L 229.33 103.67 
" style="fill: none; stroke: #2563eb; stroke-width: 1.8; stroke-linecap: square"/>
 </g>
 <g>
 <path d="M 229.33 101.45 
L 230.28 103.76 
L 231.23 106.07 
L 232.18 108.38 
L 233.13 110.69 
L 234.08 113.00 
L 235.03 115.31 
L 235.98 117.62 
L 236.94 119.93 
L 237.89 122.24 
L 238.84 124.55 
L 239.79 126.86 
L 240.74 129.17 
L 241.69 131.48 
L 242.64 133.79 
L 243.59 136.10 
L 244.54 138.41 
L 245.50 140.72 
L 246.45 143.03 
L 247.40 145.34 
L 248.35 147.65 
L 249.30 149.96 
L 250.25 152.27 
L 251.20 154.58 
L 252.15 156.89 
" style="fill: none; stroke: #2563eb; stroke-width: 1.8; stroke-linecap: square"/>
 </g>
 <g>
 <path d="M 252.15 156.89 
L 253.10 151.57 
L 254.06 146.22 
L 255.01 140.86 
L 255.96 135.48 
L 256.91 130.08 
L 257.86 124.66 
L 258.81 119.23 
L 259.76 113.77 
L 260.71 108.29 
L 261.66 102.80 
L 262.62 97.28 
L 263.57 91.75 
L 264.52 86.19 
L 265.47 80.62 
L 266.42 75.03 
L 267.37 69.42 
L 268.32 63.79 
L 269.27 58.14 
L 270.22 52.47 
L 271.18 46.78 
L 272.13 41.07 
L 273.08 35.34 
L 274.03 29.60 
L 274.98 23.83 
" style="fill: none; stroke: #2563eb; stroke-width: 1.8; stroke-linecap: square"/>
 </g>
 <g>
 <path d="M 35.29 173.52 
L 35.29 7.2 
" style="fill: none; stroke: #9ca3af; stroke-width: 0.5; stroke-linejoin: miter; stroke-linecap: square"/>
 </g>
 <g>
 <path d="M 286.39 173.52 
L 286.39 7.2 
" style="fill: none; stroke: #9ca3af; stroke-width: 0.5; stroke-linejoin: miter; stroke-linecap: square"/>
 </g>
 <g>
 <path d="M 35.29 173.52 
L 286.39 173.52 
" style="fill: none; stroke: #9ca3af; stroke-width: 0.5; stroke-linejoin: miter; stroke-linecap: square"/>
 </g>
 <g>
 <path d="M 35.29 7.2 
L 286.39 7.2 
" style="fill: none; stroke: #9ca3af; stroke-width: 0.5; stroke-linejoin: miter; stroke-linecap: square"/>
 </g>
 <g>
 <defs>
 <path d="M 0 3 
C 0.80 3 1.56 2.68 2.12 2.12 
C 2.68 1.56 3 0.80 3 0 
C 3 -0.80 2.68 -1.56 2.12 -2.12 
C 1.56 -2.68 0.80 -3 0 -3 
C -0.80 -3 -1.56 -2.68 -2.12 -2.12 
C -2.68 -1.56 -3 -0.80 -3 0 
C -3 0.80 -2.68 1.56 -2.12 2.12 
C -1.56 2.68 -0.80 3 0 3 
z
" style="stroke: #2563eb"/>
 </defs>
 <g>
 <use xlink:href="#ma51e8056d9" x="46.71" y="60.79" style="fill: #2563eb; stroke: #2563eb"/>
 </g>
 </g>
 <g>
 <defs>
 <path d="M 0 3 
C 0.80 3 1.56 2.68 2.12 2.12 
C 2.68 1.56 3 0.80 3 0 
C 3 -0.80 2.68 -1.56 2.12 -2.12 
C 1.56 -2.68 0.80 -3 0 -3 
C -0.80 -3 -1.56 -2.68 -2.12 -2.12 
C -2.68 -1.56 -3 -0.80 -3 0 
C -3 0.80 -2.68 1.56 -2.12 2.12 
C -1.56 2.68 -0.80 3 0 3 
z
" style="stroke: #2563eb; stroke-width: 1.5"/>
 </defs>
 <g>
 <use xlink:href="#m37e98ce8f4" x="229.33" y="103.67" style="fill: #ffffff; stroke: #2563eb; stroke-width: 1.5"/>
 </g>
 </g>
 <g>
 <g>
 <use xlink:href="#m37e98ce8f4" x="229.33" y="101.45" style="fill: #ffffff; stroke: #2563eb; stroke-width: 1.5"/>
 </g>
 </g>
 <g>
 <g>
 <use xlink:href="#m37e98ce8f4" x="252.15" y="156.89" style="fill: #ffffff; stroke: #2563eb; stroke-width: 1.5"/>
 </g>
 </g>
 <g>
 <g>
 <use xlink:href="#m37e98ce8f4" x="252.15" y="156.89" style="fill: #ffffff; stroke: #2563eb; stroke-width: 1.5"/>
 </g>
 </g>
 <g>
 <g>
 <use xlink:href="#ma51e8056d9" x="274.98" y="23.83" style="fill: #2563eb; stroke: #2563eb"/>
 </g>
 </g>
 <g>
 <g>
 <use xlink:href="#ma51e8056d9" x="229.33" y="145.8" style="fill: #2563eb; stroke: #2563eb"/>
 </g>
 </g>
 <g>
 <g>
 <use xlink:href="#ma51e8056d9" x="252.15" y="68.18" style="fill: #2563eb; stroke: #2563eb"/>
 </g>
 </g>
 </g>
 </g>
 <defs>
 </defs>
</svg>