<?xml version="1.0" encoding="utf-8" standalone="no"?>
<!DOCTYPE svg PUBLIC "-//W3C//DTD SVG 1.1//EN"
 "http://www.w3.org/Graphics/SVG/1.1/DTD/svg11.dtd">
<svg xmlns:xlink="http://www.w3.org/1999/xlink" width="237.79pt" height="177.55pt" viewBox="0 0 237.79 177.55" xmlns="http://www.w3.org/2000/svg" version="1.1">
 <g>
 <g>
 <path d="M 0 177.55 
L 237.79 177.55 
L 237.79 0 
L 0 0 
L 0 177.55 
z
" style="fill: none"/>
 </g>
 <g>
 <g>
 <path d="M 35.29 145.8 
L 230.59 145.8 
L 230.59 7.2 
L 35.29 7.2 
L 35.29 145.8 
z
" style="fill: none"/>
 </g>
 <g>
 <defs>
 <path d="M 88.56 -71.00 
L 88.56 -91.83 
L 90.37 -91.83 
L 92.18 -91.83 
L 93.99 -91.83 
L 95.80 -91.83 
L 97.62 -91.83 
L 99.43 -91.83 
L 101.24 -91.83 
L 103.05 -91.83 
L 104.86 -91.83 
L 106.67 -91.83 
L 108.49 -91.83 
L 110.30 -91.83 
L 112.11 -91.83 
L 113.92 -91.83 
L 115.73 -91.83 
L 117.54 -91.83 
L 119.36 -91.83 
L 121.17 -91.83 
L 122.98 -91.83 
L 124.79 -91.83 
L 126.60 -91.83 
L 128.41 -91.83 
L 130.23 -91.83 
L 132.04 -91.83 
L 133.85 -91.83 
L 135.66 -91.83 
L 137.47 -91.83 
L 139.29 -91.83 
L 141.10 -91.83 
L 142.91 -91.83 
L 144.72 -91.83 
L 146.53 -91.83 
L 148.34 -91.83 
L 150.16 -91.83 
L 151.97 -91.83 
L 153.78 -91.83 
L 155.59 -91.83 
L 157.40 -91.83 
L 159.21 -91.83 
L 161.03 -91.83 
L 162.84 -91.83 
L 164.65 -91.83 
L 166.46 -91.83 
L 168.27 -91.83 
L 170.08 -91.83 
L 171.90 -91.83 
L 173.71 -91.83 
L 175.52 -91.83 
L 177.33 -91.83 
L 177.33 -75.06 
L 177.33 -75.06 
L 175.52 -73.25 
L 173.71 -71.57 
L 171.90 -70.01 
L 170.08 -68.57 
L 168.27 -67.23 
L 166.46 -65.99 
L 164.65 -64.86 
L 162.84 -63.82 
L 161.03 -62.88 
L 159.21 -62.02 
L 157.40 -61.25 
L 155.59 -60.56 
L 153.78 -59.95 
L 151.97 -59.42 
L 150.16 -58.95 
L 148.34 -58.56 
L 146.53 -58.23 
L 144.72 -57.97 
L 142.91 -57.77 
L 141.10 -57.63 
L 139.29 -57.54 
L 137.47 -57.51 
L 135.66 -57.53 
L 133.85 -57.61 
L 132.04 -57.73 
L 130.23 -57.89 
L 128.41 -58.10 
L 126.60 -58.35 
L 124.79 -58.65 
L 122.98 -58.98 
L 121.17 -59.35 
L 119.36 -59.76 
L 117.54 -60.20 
L 115.73 -60.67 
L 113.92 -61.18 
L 112.11 -61.72 
L 110.30 -62.29 
L 108.49 -62.88 
L 106.67 -63.50 
L 104.86 -64.15 
L 103.05 -64.83 
L 101.24 -65.52 
L 99.43 -66.24 
L 97.62 -66.99 
L 95.80 -67.75 
L 93.99 -68.54 
L 92.18 -69.34 
L 90.37 -70.16 
L 88.56 -71.00 
z
" style="stroke: #2563eb; stroke-opacity: 0.15"/>
 </defs>
 <g>
 <use xlink:href="#mf887339d47" x="0" y="177.55" style="fill: #2563eb; fill-opacity: 0.15; stroke: #2563eb; stroke-opacity: 0.15"/>
 </g>
 </g>
 <g>
 <g>
 <g>
 <path d="M 44.17 145.8 
L 44.17 7.2 
" style="fill: none; stroke: #e5e7eb; stroke-opacity: 0.6; stroke-width: 0.5; stroke-linecap: square"/>
 </g>
 <g>
 <defs>
 <path d="M 0 0 
L 0 3.5 
" style="stroke: #9ca3af; stroke-width: 0.8"/>
 </defs>
 <g>
 <use xlink:href="#m85c8ded854" x="44.17" y="145.8" style="fill: #9ca3af; stroke: #9ca3af; stroke-width: 0.8"/>
 </g>
 </g>
 <g>
 <text style="fill: #9ca3af; font: 7px 'DejaVu Sans', 'Bitstream Vera Sans', 'Computer Modern Sans Serif', 'Lucida Grande', 'Verdana', 'Geneva', 'Lucid', 'Arial', 'Helvetica', 'Avant Garde', sans-serif; text-anchor: middle" x="44.17" y="158.12" transform="rotate(-0 44.17 158.12)">−1</text>
 </g>
 </g>
 <g>
 <g>
 <path d="M 88.56 145.8 
L 88.56 7.2 
" style="fill: none; stroke: #e5e7eb; stroke-opacity: 0.6; stroke-width: 0.5; stroke-linecap: square"/>
 </g>
 <g>
 <g>
 <use xlink:href="#m85c8ded854" x="88.56" y="145.8" style="fill: #9ca3af; stroke: #9ca3af; stroke-width: 0.8"/>
 </g>
 </g>
 <g>
 <text style="fill: #9ca3af; font: 7px 'DejaVu Sans', 'Bitstream Vera Sans', 'Computer Modern Sans Serif', 'Lucida Grande', 'Verdana', 'Geneva', 'Lucid', 'Arial', 'Helvetica', 'Avant Garde', sans-serif; text-anchor: middle" x="88.56" y="158.12" transform="rotate(-0 88.56 158.12)">0</text>
 </g>
 </g>
 <g>
 <g>
 <path d="M 132.94 145.8 
L 132.94 7.2 
" style="fill: none; stroke: #e5e7eb; stroke-opacity: 0.6; stroke-width: 0.5; stroke-linecap: square"/>
 </g>
 <g>
 <g>
 <use xlink:href="#m85c8ded854" x="132.94" y="145.8" style="fill: #9ca3af; stroke: #9ca3af; stroke-width: 0.8"/>
 </g>
 </g>
 <g>
 <text style="fill: #9ca3af; font: 7px 'DejaVu Sans', 'Bitstream Vera Sans', 'Computer Modern Sans Serif', 'Lucida Grande', 'Verdana', 'Geneva', 'Lucid', 'Arial', 'Helvetica', 'Avant Garde', sans-serif; text-anchor: middle" x="132.94" y="158.12" transform="rotate(-0 132.94 158.12)">1</text>
 </g>
 </g>
 <g>
 <g>
 <path d="M 177.33 145.8 
L 177.33 7.2 
" style="fill: none; stroke: #e5e7eb; stroke-opacity: 0.6; stroke-width: 0.5; stroke-linecap: square"/>
 </g>
 <g>
 <g>
 <use xlink:href="#m85c8ded854" x="177.33" y="145.8" style="fill: #9ca3af; stroke: #9ca3af; stroke-width: 0.8"/>
 </g>
 </g>
 <g>
 <text style="fill: #9ca3af; font: 7px 'DejaVu Sans', 'Bitstream Vera Sans', 'Computer Modern Sans Serif', 'Lucida Grande', 'Verdana', 'Geneva', 'Lucid', 'Arial', 'Helvetica', 'Avant Garde', sans-serif; text-anchor: middle" x="177.33" y="158.12" transform="rotate(-0 177.33 158.12)">2</text>
 </g>
 </g>
 <g>
 <g>
 <path d="M 221.72 145.8 
L 221.72 7.2 
" style="fill: none; stroke: #e5e7eb; stroke-opacity: 0.6; stroke-width: 0.5; stroke-linecap: square"/>
 </g>
 <g>
 <g>
 <use xlink:href="#m85c8ded854" x="221.72" y="145.8" style="fill: #9ca3af; stroke: #9ca3af; stroke-width: 0.8"/>
 </g>
 </g>
 <g>
 <text style="fill: #9ca3af; font: 7px 'DejaVu Sans', 'Bitstream Vera Sans', 'Computer Modern Sans Serif', 'Lucida Grande', 'Verdana', 'Geneva', 'Lucid', 'Arial', 'Helvetica', 'Avant Garde', sans-serif; text-anchor: middle" x="221.72" y="158.12" transform="rotate(-0 221.72 158.12)">3</text>
 </g>
 </g>
 <g>
 <text style="fill: #9ca3af; font: 7px 'DejaVu Sans', 'Bitstream Vera Sans', 'Computer Modern Sans Serif', 'Lucida Grande', 'Verdana', 'Geneva', 'Lucid', 'Arial', 'Helvetica', 'Avant Garde', sans-serif; text-anchor: middle" x="132.94" y="168.89" transform="rotate(-0 132.94 168.89)">x</text>
 </g>
 </g>
 <g>
 <g>
 <g>
 <path d="M 35.29 137.78 
L 230.59 137.78 
" style="fill: none; stroke: #e5e7eb; stroke-opacity: 0.6; stroke-width: 0.5; stroke-linecap: square"/>
 </g>
 <g>
 <defs>
 <path d="M 0 0 
L -3.5 0 
" style="stroke: #9ca3af; stroke-width: 0.8"/>
 </defs>
 <g>
 <use xlink:href="#m912cc72619" x="35.29" y="137.78" style="fill: #9ca3af; stroke: #9ca3af; stroke-width: 0.8"/>
 </g>
 </g>
 <g>
 <text style="fill: #9ca3af; font: 7px 'DejaVu Sans', 'Bitstream Vera Sans', 'Computer Modern Sans Serif', 'Lucida Grande', 'Verdana', 'Geneva', 'Lucid', 'Arial', 'Helvetica', 'Avant Garde', sans-serif; text-anchor: end" x="28.29" y="140.44" transform="rotate(-0 28.29 140.44)">−5</text>
 </g>
 </g>
 <g>
 <g>
 <path d="M 35.29 85.72 
L 230.59 85.72 
" style="fill: none; stroke: #e5e7eb; stroke-opacity: 0.6; stroke-width: 0.5; stroke-linecap: square"/>
 </g>
 <g>
 <g>
 <use xlink:href="#m912cc72619" x="35.29" y="85.72" style="fill: #9ca3af; stroke: #9ca3af; stroke-width: 0.8"/>
 </g>
 </g>
 <g>
 <text style="fill: #9ca3af; font: 7px 'DejaVu Sans', 'Bitstream Vera Sans', 'Computer Modern Sans Serif', 'Lucida Grande', 'Verdana', 'Geneva', 'Lucid', 'Arial', 'Helvetica', 'Avant Garde', sans-serif; text-anchor: end" x="28.29" y="88.38" transform="rotate(-0 28.29 88.38)">0</text>
 </g>
 </g>
 <g>
 <g>
 <path d="M 35.29 33.66 
L 230.59 33.66 
" style="fill: none; stroke: #e5e7eb; stroke-opacity: 0.6; stroke-width: 0.5; stroke-linecap: square"/>
 </g>
 <g>
 <g>
 <use xlink:href="#m912cc72619" x="35.29" y="33.66" style="fill: #9ca3af; stroke: #9ca3af; stroke-width: 0.8"/>
 </g>
 </g>
 <g>
 <text style="fill: #9ca3af; font: 7px 'DejaVu Sans', 'Bitstream Vera Sans', 'Computer Modern Sans Serif', 'Lucida Grande', 'Verdana', 'Geneva', 'Lucid', 'Arial', 'Helvetica', 'Avant Garde', sans-serif; text-anchor: end" x="28.29" y="36.32" transform="rotate(-0 28.29 36.32)">5</text>
 </g>
 </g>
 <g>
 <text style="fill: #9ca3af; font: 7px 'DejaVu Sans', 'Bitstream Vera Sans', 'Computer Modern Sans Serif', 'Lucida Grande', 'Verdana', 'Geneva', 'Lucid', 'Arial', 'Helvetica', 'Avant Garde', sans-serif; text-anchor: middle" x="12.52" y="76.5" transform="rotate(-90 12.52 76.5)">y</text>
 </g>
 </g>
 <g>
 <path d="M 44.17 81.89 
L 46.42 83.27 
L 48.67 84.65 
L 50.91 86.01 
L 53.16 87.36 
L 55.41 88.70 
L 57.66 90.02 
L 59.90 91.33 
L 62.15 92.63 
L 64.40 93.91 
L 66.65 95.18 
L 68.89 96.43 
L 71.14 97.67 
L 73.39 98.88 
L 75.64 100.08 
L 77.88 101.26 
L 80.13 102.41 
L 82.38 103.55 
L 84.62 104.66 
L 86.87 105.75 
L 89.12 106.81 
L 91.37 107.84 
L 93.61 108.85 
L 95.86 109.82 
L 98.11 110.77 
L 100.36 111.68 
L 102.60 112.55 
L 104.85 113.39 
L 107.10 114.19 
L 109.35 114.95 
L 111.59 115.67 
L 113.84 116.34 
L 116.09 116.97 
L 118.34 117.55 
L 120.58 118.07 
L 122.83 118.54 
L 125.08 118.95 
L 127.33 119.30 
L 129.57 119.59 
L 131.82 119.81 
L 134.07 119.95 
L 136.32 120.03 
L 138.56 120.02 
L 140.81 119.94 
L 143.06 119.76 
L 145.30 119.50 
L 147.55 119.14 
L 149.80 118.68 
L 152.05 118.11 
L 154.29 117.43 
L 156.54 116.63 
L 158.79 115.72 
L 161.04 114.67 
L 163.28 113.48 
L 165.53 112.15 
L 167.78 110.67 
L 170.03 109.03 
L 172.27 107.22 
L 174.52 105.24 
L 176.77 103.07 
L 179.02 100.70 
L 181.26 98.13 
L 183.51 95.35 
L 185.76 92.34 
L 188.01 89.09 
L 190.25 85.59 
L 192.50 81.82 
L 194.75 77.78 
L 197.00 73.45 
L 199.24 68.81 
L 201.49 63.84 
L 203.74 58.54 
L 205.99 52.87 
L 208.23 46.84 
L 210.48 40.40 
L 212.73 33.55 
L 214.97 26.26 
L 217.22 18.51 
L 219.47 10.28 
L 221.72 1.54 
" style="fill: none; stroke: #2563eb; stroke-width: 1.5; stroke-linecap: square"/>
 </g>
 <g>
 <path d="M 35.29 85.72 
L 230.59 85.72 
" style="fill: none; stroke: #9ca3af; stroke-width: 0.6; stroke-linecap: square"/>
 </g>
 <g>
 <path d="M 88.56 145.8 
L 88.56 7.2 
" style="fill: none; stroke-dasharray: 0.6,0.99; stroke-dashoffset: 0; stroke: #6b7280; stroke-width: 0.6"/>
 </g>
 <g>
 <path d="M 177.33 145.8 
L 177.33 7.2 
" style="fill: none; stroke-dasharray: 0.6,0.99; stroke-dashoffset: 0; stroke: #6b7280; stroke-width: 0.6"/>
 </g>
 <g>
 <path d="M 35.29 145.8 
L 35.29 7.2 
" style="fill: none; stroke: #9ca3af; stroke-width: 0.6; stroke-linejoin: miter; stroke-linecap: square"/>
 </g>
 <g>
 <path d="M 230.59 145.8 
L 230.59 7.2 
" style="fill: none; stroke: #9ca3af; stroke-width: 0.6; stroke-linejoin: miter; stroke-linecap: square"/>
 </g>
 <g>
 <path d="M 35.29 145.8 
L 230.59 145.8 
" style="fill: none; stroke: #9ca3af; stroke-width: 0.6; stroke-linejoin: miter; stroke-linecap: square"/>
 </g>
 <g>
 <path d="M 35.29 7.2 
L 230.59 7.2 
" style="fill: none; stroke: #9ca3af; stroke-width: 0.6; stroke-linejoin: miter; stroke-linecap: square"/>
 </g>
 <g>
 <text style="fill: #111827; font: 6px 'DejaVu Sans', 'Bitstream Vera Sans', 'Computer Modern Sans Serif', 'Lucida Grande', 'Verdana', 'Geneva', 'Lucid', 'Arial', 'Helvetica', 'Avant Garde', sans-serif; text-anchor: end" x="83.56" y="98.54" transform="rotate(-0 83.56 98.54)">f(a)=-2</text>
 </g>
 <g>
 <text style="fill: #111827; font: 6px 'DejaVu Sans', 'Bitstream Vera Sans', 'Computer Modern Sans Serif', 'Lucida Grande', 'Verdana', 'Geneva', 'Lucid', 'Arial', 'Helvetica', 'Avant Garde', sans-serif; text-anchor: start" x="182.33" y="94.49" transform="rotate(-0 182.33 94.49)">f(b)=-1.61</text>
 </g>
 <g>
 <defs>
 <path d="M 0 2.5 
C 0.66 2.5 1.30 2.24 1.77 1.77 
C 2.24 1.30 2.5 0.66 2.5 0 
C 2.5 -0.66 2.24 -1.30 1.77 -1.77 
C 1.30 -2.24 0.66 -2.5 0 -2.5 
C -0.66 -2.5 -1.30 -2.24 -1.77 -1.77 
C -2.24 -1.30 -2.5 -0.66 -2.5 0 
C -2.5 0.66 -2.24 1.30 -1.77 1.77 
C -1.30 2.24 -0.66 2.5 0 2.5 
z
" style="stroke: #111827"/>
 </defs>
 <g>
 <use xlink:href="#m1e90caecf9" x="88.56" y="106.54" style="fill: #111827; stroke: #111827"/>
 </g>
 </g>
 <g>
 <g>
 <use xlink:href="#m1e90caecf9" x="177.33" y="102.49" style="fill: #111827; stroke: #111827"/>
 </g>
 </g>
 </g>
 </g>
 <defs>
 </defs>
</svg>