<?xml version="1.0" encoding="utf-8" standalone="no"?>
<!DOCTYPE svg PUBLIC "-//W3C//DTD SVG 1.1//EN"
 "http://www.w3.org/Graphics/SVG/1.1/DTD/svg11.dtd">
<svg xmlns:xlink="http://www.w3.org/1999/xlink" width="237.79pt" height="177.55pt" viewBox="0 0 237.79 177.55" xmlns="http://www.w3.org/2000/svg" version="1.1">
 <g>
 <g>
 <path d="M 0 177.55 
L 237.79 177.55 
L 237.79 0 
L 0 0 
L 0 177.55 
z
" style="fill: none"/>
 </g>
 <g>
 <g>
 <path d="M 35.29 145.8 
L 230.59 145.8 
L 230.59 7.2 
L 35.29 7.2 
L 35.29 145.8 
z
" style="fill: none"/>
 </g>
 <g>
 <defs>
 <path d="M 88.56 -60.89 
L 88.56 -77.85 
L 90.37 -77.85 
L 92.18 -77.85 
L 93.99 -77.85 
L 95.80 -77.85 
L 97.62 -77.85 
L 99.43 -77.85 
L 101.24 -77.85 
L 103.05 -77.85 
L 104.86 -77.85 
L 106.67 -77.85 
L 108.49 -77.85 
L 110.30 -77.85 
L 112.11 -77.85 
L 113.92 -77.85 
L 115.73 -77.85 
L 117.54 -77.85 
L 119.36 -77.85 
L 121.17 -77.85 
L 122.98 -77.85 
L 124.79 -77.85 
L 126.60 -77.85 
L 128.41 -77.85 
L 130.23 -77.85 
L 132.04 -77.85 
L 133.85 -77.85 
L 135.66 -77.85 
L 137.47 -77.85 
L 139.29 -77.85 
L 141.10 -77.85 
L 142.91 -77.85 
L 144.72 -77.85 
L 146.53 -77.85 
L 148.34 -77.85 
L 150.16 -77.85 
L 151.97 -77.85 
L 153.78 -77.85 
L 155.59 -77.85 
L 157.40 -77.85 
L 159.21 -77.85 
L 161.03 -77.85 
L 162.84 -77.85 
L 164.65 -77.85 
L 166.46 -77.85 
L 168.27 -77.85 
L 170.08 -77.85 
L 171.90 -77.85 
L 173.71 -77.85 
L 175.52 -77.85 
L 177.33 -77.85 
L 177.33 -81.15 
L 177.33 -81.15 
L 175.52 -79.33 
L 173.71 -77.62 
L 171.90 -76.00 
L 170.08 -74.48 
L 168.27 -73.04 
L 166.46 -71.69 
L 164.65 -70.42 
L 162.84 -69.23 
L 161.03 -68.12 
L 159.21 -67.07 
L 157.40 -66.10 
L 155.59 -65.19 
L 153.78 -64.35 
L 151.97 -63.57 
L 150.16 -62.84 
L 148.34 -62.18 
L 146.53 -61.57 
L 144.72 -61.01 
L 142.91 -60.50 
L 141.10 -60.03 
L 139.29 -59.62 
L 137.47 -59.25 
L 135.66 -58.92 
L 133.85 -58.63 
L 132.04 -58.38 
L 130.23 -58.17 
L 128.41 -58.00 
L 126.60 -57.86 
L 124.79 -57.75 
L 122.98 -57.68 
L 121.17 -57.63 
L 119.36 -57.62 
L 117.54 -57.63 
L 115.73 -57.67 
L 113.92 -57.74 
L 112.11 -57.83 
L 110.30 -57.94 
L 108.49 -58.08 
L 106.67 -58.24 
L 104.86 -58.43 
L 103.05 -58.63 
L 101.24 -58.85 
L 99.43 -59.09 
L 97.62 -59.35 
L 95.80 -59.63 
L 93.99 -59.92 
L 92.18 -60.23 
L 90.37 -60.55 
L 88.56 -60.89 
z
" style="stroke: #2563eb; stroke-opacity: 0.15"/>
 </defs>
 <g>
 <use xlink:href="#me24a9547bd" x="0" y="177.55" style="fill: #2563eb; fill-opacity: 0.15; stroke: #2563eb; stroke-opacity: 0.15"/>
 </g>
 </g>
 <g>
 <g>
 <g>
 <path d="M 44.17 145.8 
L 44.17 7.2 
" style="fill: none; stroke: #e5e7eb; stroke-opacity: 0.6; stroke-width: 0.5; stroke-linecap: square"/>
 </g>
 <g>
 <defs>
 <path d="M 0 0 
L 0 3.5 
" style="stroke: #9ca3af; stroke-width: 0.8"/>
 </defs>
 <g>
 <use xlink:href="#m9df2700262" x="44.17" y="145.8" style="fill: #9ca3af; stroke: #9ca3af; stroke-width: 0.8"/>
 </g>
 </g>
 <g>
 <text style="fill: #9ca3af; font: 7px 'DejaVu Sans', 'Bitstream Vera Sans', 'Computer Modern Sans Serif', 'Lucida Grande', 'Verdana', 'Geneva', 'Lucid', 'Arial', 'Helvetica', 'Avant Garde', sans-serif; text-anchor: middle" x="44.17" y="158.12" transform="rotate(-0 44.17 158.12)">−1</text>
 </g>
 </g>
 <g>
 <g>
 <path d="M 88.56 145.8 
L 88.56 7.2 
" style="fill: none; stroke: #e5e7eb; stroke-opacity: 0.6; stroke-width: 0.5; stroke-linecap: square"/>
 </g>
 <g>
 <g>
 <use xlink:href="#m9df2700262" x="88.56" y="145.8" style="fill: #9ca3af; stroke: #9ca3af; stroke-width: 0.8"/>
 </g>
 </g>
 <g>
 <text style="fill: #9ca3af; font: 7px 'DejaVu Sans', 'Bitstream Vera Sans', 'Computer Modern Sans Serif', 'Lucida Grande', 'Verdana', 'Geneva', 'Lucid', 'Arial', 'Helvetica', 'Avant Garde', sans-serif; text-anchor: middle" x="88.56" y="158.12" transform="rotate(-0 88.56 158.12)">0</text>
 </g>
 </g>
 <g>
 <g>
 <path d="M 132.94 145.8 
L 132.94 7.2 
" style="fill: none; stroke: #e5e7eb; stroke-opacity: 0.6; stroke-width: 0.5; stroke-linecap: square"/>
 </g>
 <g>
 <g>
 <use xlink:href="#m9df2700262" x="132.94" y="145.8" style="fill: #9ca3af; stroke: #9ca3af; stroke-width: 0.8"/>
 </g>
 </g>
 <g>
 <text style="fill: #9ca3af; font: 7px 'DejaVu Sans', 'Bitstream Vera Sans', 'Computer Modern Sans Serif', 'Lucida Grande', 'Verdana', 'Geneva', 'Lucid', 'Arial', 'Helvetica', 'Avant Garde', sans-serif; text-anchor: middle" x="132.94" y="158.12" transform="rotate(-0 132.94 158.12)">1</text>
 </g>
 </g>
 <g>
 <g>
 <path d="M 177.33 145.8 
L 177.33 7.2 
" style="fill: none; stroke: #e5e7eb; stroke-opacity: 0.6; stroke-width: 0.5; stroke-linecap: square"/>
 </g>
 <g>
 <g>
 <use xlink:href="#m9df2700262" x="177.33" y="145.8" style="fill: #9ca3af; stroke: #9ca3af; stroke-width: 0.8"/>
 </g>
 </g>
 <g>
 <text style="fill: #9ca3af; font: 7px 'DejaVu Sans', 'Bitstream Vera Sans', 'Computer Modern Sans Serif', 'Lucida Grande', 'Verdana', 'Geneva', 'Lucid', 'Arial', 'Helvetica', 'Avant Garde', sans-serif; text-anchor: middle" x="177.33" y="158.12" transform="rotate(-0 177.33 158.12)">2</text>
 </g>
 </g>
 <g>
 <g>
 <path d="M 221.72 145.8 
L 221.72 7.2 
" style="fill: none; stroke: #e5e7eb; stroke-opacity: 0.6; stroke-width: 0.5; stroke-linecap: square"/>
 </g>
 <g>
 <g>
 <use xlink:href="#m9df2700262" x="221.72" y="145.8" style="fill: #9ca3af; stroke: #9ca3af; stroke-width: 0.8"/>
 </g>
 </g>
 <g>
 <text style="fill: #9ca3af; font: 7px 'DejaVu Sans', 'Bitstream Vera Sans', 'Computer Modern Sans Serif', 'Lucida Grande', 'Verdana', 'Geneva', 'Lucid', 'Arial', 'Helvetica', 'Avant Garde', sans-serif; text-anchor: middle" x="221.72" y="158.12" transform="rotate(-0 221.72 158.12)">3</text>
 </g>
 </g>
 <g>
 <text style="fill: #9ca3af; font: 7px 'DejaVu Sans', 'Bitstream Vera Sans', 'Computer Modern Sans Serif', 'Lucida Grande', 'Verdana', 'Geneva', 'Lucid', 'Arial', 'Helvetica', 'Avant Garde', sans-serif; text-anchor: middle" x="132.94" y="168.89" transform="rotate(-0 132.94 168.89)">x</text>
 </g>
 </g>
 <g>
 <g>
 <g>
 <path d="M 35.29 142.09 
L 230.59 142.09 
" style="fill: none; stroke: #e5e7eb; stroke-opacity: 0.6; stroke-width: 0.5; stroke-linecap: square"/>
 </g>
 <g>
 <defs>
 <path d="M 0 0 
L -3.5 0 
" style="stroke: #9ca3af; stroke-width: 0.8"/>
 </defs>
 <g>
 <use xlink:href="#m2ade54f617" x="35.29" y="142.09" style="fill: #9ca3af; stroke: #9ca3af; stroke-width: 0.8"/>
 </g>
 </g>
 <g>
 <text style="fill: #9ca3af; font: 7px 'DejaVu Sans', 'Bitstream Vera Sans', 'Computer Modern Sans Serif', 'Lucida Grande', 'Verdana', 'Geneva', 'Lucid', 'Arial', 'Helvetica', 'Avant Garde', sans-serif; text-anchor: end" x="28.29" y="144.75" transform="rotate(-0 28.29 144.75)">−5</text>
 </g>
 </g>
 <g>
 <g>
 <path d="M 35.29 99.70 
L 230.59 99.70 
" style="fill: none; stroke: #e5e7eb; stroke-opacity: 0.6; stroke-width: 0.5; stroke-linecap: square"/>
 </g>
 <g>
 <g>
 <use xlink:href="#m2ade54f617" x="35.29" y="99.70" style="fill: #9ca3af; stroke: #9ca3af; stroke-width: 0.8"/>
 </g>
 </g>
 <g>
 <text style="fill: #9ca3af; font: 7px 'DejaVu Sans', 'Bitstream Vera Sans', 'Computer Modern Sans Serif', 'Lucida Grande', 'Verdana', 'Geneva', 'Lucid', 'Arial', 'Helvetica', 'Avant Garde', sans-serif; text-anchor: end" x="28.29" y="102.36" transform="rotate(-0 28.29 102.36)">0</text>
 </g>
 </g>
 <g>
 <g>
 <path d="M 35.29 57.31 
L 230.59 57.31 
" style="fill: none; stroke: #e5e7eb; stroke-opacity: 0.6; stroke-width: 0.5; stroke-linecap: square"/>
 </g>
 <g>
 <g>
 <use xlink:href="#m2ade54f617" x="35.29" y="57.31" style="fill: #9ca3af; stroke: #9ca3af; stroke-width: 0.8"/>
 </g>
 </g>
 <g>
 <text style="fill: #9ca3af; font: 7px 'DejaVu Sans', 'Bitstream Vera Sans', 'Computer Modern Sans Serif', 'Lucida Grande', 'Verdana', 'Geneva', 'Lucid', 'Arial', 'Helvetica', 'Avant Garde', sans-serif; text-anchor: end" x="28.29" y="59.97" transform="rotate(-0 28.29 59.97)">5</text>
 </g>
 </g>
 <g>
 <g>
 <path d="M 35.29 14.92 
L 230.59 14.92 
" style="fill: none; stroke: #e5e7eb; stroke-opacity: 0.6; stroke-width: 0.5; stroke-linecap: square"/>
 </g>
 <g>
 <g>
 <use xlink:href="#m2ade54f617" x="35.29" y="14.92" style="fill: #9ca3af; stroke: #9ca3af; stroke-width: 0.8"/>
 </g>
 </g>
 <g>
 <text style="fill: #9ca3af; font: 7px 'DejaVu Sans', 'Bitstream Vera Sans', 'Computer Modern Sans Serif', 'Lucida Grande', 'Verdana', 'Geneva', 'Lucid', 'Arial', 'Helvetica', 'Avant Garde', sans-serif; text-anchor: end" x="28.29" y="17.58" transform="rotate(-0 28.29 17.58)">10</text>
 </g>
 </g>
 <g>
 <text style="fill: #9ca3af; font: 7px 'DejaVu Sans', 'Bitstream Vera Sans', 'Computer Modern Sans Serif', 'Lucida Grande', 'Verdana', 'Geneva', 'Lucid', 'Arial', 'Helvetica', 'Avant Garde', sans-serif; text-anchor: middle" x="12.52" y="76.5" transform="rotate(-90 12.52 76.5)">y</text>
 </g>
 </g>
 <g>
 <path d="M 44.17 105.06 
L 46.42 105.76 
L 48.67 106.45 
L 50.91 107.13 
L 53.16 107.80 
L 55.41 108.46 
L 57.66 109.11 
L 59.90 109.74 
L 62.15 110.37 
L 64.40 110.99 
L 66.65 111.59 
L 68.89 112.18 
L 71.14 112.76 
L 73.39 113.32 
L 75.64 113.86 
L 77.88 114.39 
L 80.13 114.90 
L 82.38 115.40 
L 84.62 115.87 
L 86.87 116.33 
L 89.12 116.76 
L 91.37 117.18 
L 93.61 117.57 
L 95.86 117.93 
L 98.11 118.27 
L 100.36 118.58 
L 102.60 118.87 
L 104.85 119.12 
L 107.10 119.35 
L 109.35 119.54 
L 111.59 119.69 
L 113.84 119.81 
L 116.09 119.89 
L 118.34 119.93 
L 120.58 119.93 
L 122.83 119.88 
L 125.08 119.78 
L 127.33 119.64 
L 129.57 119.44 
L 131.82 119.19 
L 134.07 118.89 
L 136.32 118.52 
L 138.56 118.08 
L 140.81 117.58 
L 143.06 117.01 
L 145.30 116.37 
L 147.55 115.65 
L 149.80 114.84 
L 152.05 113.95 
L 154.29 112.97 
L 156.54 111.89 
L 158.79 110.71 
L 161.04 109.43 
L 163.28 108.03 
L 165.53 106.52 
L 167.78 104.88 
L 170.03 103.12 
L 172.27 101.22 
L 174.52 99.17 
L 176.77 96.98 
L 179.02 94.62 
L 181.26 92.10 
L 183.51 89.41 
L 185.76 86.52 
L 188.01 83.45 
L 190.25 80.17 
L 192.50 76.68 
L 194.75 72.95 
L 197.00 69.00 
L 199.24 64.79 
L 201.49 60.32 
L 203.74 55.57 
L 205.99 50.53 
L 208.23 45.18 
L 210.48 39.51 
L 212.73 33.51 
L 214.97 27.14 
L 217.22 20.40 
L 219.47 13.27 
L 221.72 5.72 
" style="fill: none; stroke: #2563eb; stroke-width: 1.5; stroke-linecap: square"/>
 </g>
 <g>
 <path d="M 35.29 99.70 
L 230.59 99.70 
" style="fill: none; stroke: #9ca3af; stroke-width: 0.6; stroke-linecap: square"/>
 </g>
 <g>
 <path d="M 88.56 145.8 
L 88.56 7.2 
" style="fill: none; stroke-dasharray: 0.6,0.99; stroke-dashoffset: 0; stroke: #6b7280; stroke-width: 0.6"/>
 </g>
 <g>
 <path d="M 177.33 145.8 
L 177.33 7.2 
" style="fill: none; stroke-dasharray: 0.6,0.99; stroke-dashoffset: 0; stroke: #6b7280; stroke-width: 0.6"/>
 </g>
 <g>
 <path d="M 35.29 145.8 
L 35.29 7.2 
" style="fill: none; stroke: #9ca3af; stroke-width: 0.6; stroke-linejoin: miter; stroke-linecap: square"/>
 </g>
 <g>
 <path d="M 230.59 145.8 
L 230.59 7.2 
" style="fill: none; stroke: #9ca3af; stroke-width: 0.6; stroke-linejoin: miter; stroke-linecap: square"/>
 </g>
 <g>
 <path d="M 35.29 145.8 
L 230.59 145.8 
" style="fill: none; stroke: #9ca3af; stroke-width: 0.6; stroke-linejoin: miter; stroke-linecap: square"/>
 </g>
 <g>
 <path d="M 35.29 7.2 
L 230.59 7.2 
" style="fill: none; stroke: #9ca3af; stroke-width: 0.6; stroke-linejoin: miter; stroke-linecap: square"/>
 </g>
 <g>
 <text style="fill: #111827; font: 6px 'DejaVu Sans', 'Bitstream Vera Sans', 'Computer Modern Sans Serif', 'Lucida Grande', 'Verdana', 'Geneva', 'Lucid', 'Arial', 'Helvetica', 'Avant Garde', sans-serif; text-anchor: end" x="83.56" y="108.66" transform="rotate(-0 83.56 108.66)">f(a)=-2</text>
 </g>
 <g>
 <text style="fill: #111827; font: 6px 'DejaVu Sans', 'Bitstream Vera Sans', 'Computer Modern Sans Serif', 'Lucida Grande', 'Verdana', 'Geneva', 'Lucid', 'Arial', 'Helvetica', 'Avant Garde', sans-serif; text-anchor: start" x="182.33" y="88.40" transform="rotate(-0 182.33 88.40)">f(b)=0.39</text>
 </g>
 <g>
 <defs>
 <path d="M 0 2.5 
C 0.66 2.5 1.30 2.24 1.77 1.77 
C 2.24 1.30 2.5 0.66 2.5 0 
C 2.5 -0.66 2.24 -1.30 1.77 -1.77 
C 1.30 -2.24 0.66 -2.5 0 -2.5 
C -0.66 -2.5 -1.30 -2.24 -1.77 -1.77 
C -2.24 -1.30 -2.5 -0.66 -2.5 0 
C -2.5 0.66 -2.24 1.30 -1.77 1.77 
C -1.30 2.24 -0.66 2.5 0 2.5 
z
" style="stroke: #111827"/>
 </defs>
 <g>
 <use xlink:href="#m84a08c11f3" x="88.56" y="116.66" style="fill: #111827; stroke: #111827"/>
 </g>
 </g>
 <g>
 <g>
 <use xlink:href="#m84a08c11f3" x="177.33" y="96.40" style="fill: #111827; stroke: #111827"/>
 </g>
 </g>
 </g>
 </g>
 <defs>
 </defs>
</svg>