<?xml version="1.0" encoding="utf-8" standalone="no"?>
<!DOCTYPE svg PUBLIC "-//W3C//DTD SVG 1.1//EN"
 "http://www.w3.org/Graphics/SVG/1.1/DTD/svg11.dtd">
<svg xmlns:xlink="http://www.w3.org/1999/xlink" width="236.38pt" height="177.55pt" viewBox="0 0 236.38 177.55" xmlns="http://www.w3.org/2000/svg" version="1.1">
 <g>
 <g>
 <path d="M 0 177.55 
L 236.38 177.55 
L 236.38 0 
L 0 0 
L 0 177.55 
z
" style="fill: none"/>
 </g>
 <g>
 <g>
 <path d="M 33.88 145.8 
L 229.18 145.8 
L 229.18 7.2 
L 33.88 7.2 
L 33.88 145.8 
z
" style="fill: none"/>
 </g>
 <g>
 <defs>
 <path d="M 87.15 -59.25 
L 87.15 -62.03 
L 88.96 -62.03 
L 90.77 -62.03 
L 92.58 -62.03 
L 94.39 -62.03 
L 96.20 -62.03 
L 98.02 -62.03 
L 99.83 -62.03 
L 101.64 -62.03 
L 103.45 -62.03 
L 105.26 -62.03 
L 107.07 -62.03 
L 108.89 -62.03 
L 110.70 -62.03 
L 112.51 -62.03 
L 114.32 -62.03 
L 116.13 -62.03 
L 117.94 -62.03 
L 119.76 -62.03 
L 121.57 -62.03 
L 123.38 -62.03 
L 125.19 -62.03 
L 127.00 -62.03 
L 128.81 -62.03 
L 130.63 -62.03 
L 132.44 -62.03 
L 134.25 -62.03 
L 136.06 -62.03 
L 137.87 -62.03 
L 139.68 -62.03 
L 141.50 -62.03 
L 143.31 -62.03 
L 145.12 -62.03 
L 146.93 -62.03 
L 148.74 -62.03 
L 150.55 -62.03 
L 152.37 -62.03 
L 154.18 -62.03 
L 155.99 -62.03 
L 157.80 -62.03 
L 159.61 -62.03 
L 161.43 -62.03 
L 163.24 -62.03 
L 165.05 -62.03 
L 166.86 -62.03 
L 168.67 -62.03 
L 170.48 -62.03 
L 172.30 -62.03 
L 174.11 -62.03 
L 175.92 -62.03 
L 175.92 -92.63 
L 175.92 -92.63 
L 174.11 -90.97 
L 172.30 -89.39 
L 170.48 -87.87 
L 168.67 -86.41 
L 166.86 -85.02 
L 165.05 -83.68 
L 163.24 -82.41 
L 161.43 -81.18 
L 159.61 -80.01 
L 157.80 -78.89 
L 155.99 -77.82 
L 154.18 -76.80 
L 152.37 -75.82 
L 150.55 -74.88 
L 148.74 -73.98 
L 146.93 -73.13 
L 145.12 -72.31 
L 143.31 -71.52 
L 141.50 -70.77 
L 139.68 -70.06 
L 137.87 -69.38 
L 136.06 -68.73 
L 134.25 -68.10 
L 132.44 -67.51 
L 130.63 -66.94 
L 128.81 -66.40 
L 127.00 -65.89 
L 125.19 -65.40 
L 123.38 -64.93 
L 121.57 -64.48 
L 119.76 -64.06 
L 117.94 -63.66 
L 116.13 -63.27 
L 114.32 -62.91 
L 112.51 -62.56 
L 110.70 -62.23 
L 108.89 -61.92 
L 107.07 -61.62 
L 105.26 -61.34 
L 103.45 -61.07 
L 101.64 -60.82 
L 99.83 -60.58 
L 98.02 -60.36 
L 96.20 -60.14 
L 94.39 -59.94 
L 92.58 -59.75 
L 90.77 -59.58 
L 88.96 -59.41 
L 87.15 -59.25 
z
" style="stroke: #2563eb; stroke-opacity: 0.15"/>
 </defs>
 <g>
 <use xlink:href="#mf61e01d5da" x="0" y="177.55" style="fill: #2563eb; fill-opacity: 0.15; stroke: #2563eb; stroke-opacity: 0.15"/>
 </g>
 </g>
 <g>
 <g>
 <g>
 <path d="M 42.76 145.8 
L 42.76 7.2 
" style="fill: none; stroke: #e5e7eb; stroke-opacity: 0.6; stroke-width: 0.5; stroke-linecap: square"/>
 </g>
 <g>
 <defs>
 <path d="M 0 0 
L 0 3.5 
" style="stroke: #9ca3af; stroke-width: 0.8"/>
 </defs>
 <g>
 <use xlink:href="#m6fa6519f1b" x="42.76" y="145.8" style="fill: #9ca3af; stroke: #9ca3af; stroke-width: 0.8"/>
 </g>
 </g>
 <g>
 <text style="fill: #9ca3af; font: 7px 'DejaVu Sans', 'Bitstream Vera Sans', 'Computer Modern Sans Serif', 'Lucida Grande', 'Verdana', 'Geneva', 'Lucid', 'Arial', 'Helvetica', 'Avant Garde', sans-serif; text-anchor: middle" x="42.76" y="158.12" transform="rotate(-0 42.76 158.12)">0</text>
 </g>
 </g>
 <g>
 <g>
 <path d="M 87.15 145.8 
L 87.15 7.2 
" style="fill: none; stroke: #e5e7eb; stroke-opacity: 0.6; stroke-width: 0.5; stroke-linecap: square"/>
 </g>
 <g>
 <g>
 <use xlink:href="#m6fa6519f1b" x="87.15" y="145.8" style="fill: #9ca3af; stroke: #9ca3af; stroke-width: 0.8"/>
 </g>
 </g>
 <g>
 <text style="fill: #9ca3af; font: 7px 'DejaVu Sans', 'Bitstream Vera Sans', 'Computer Modern Sans Serif', 'Lucida Grande', 'Verdana', 'Geneva', 'Lucid', 'Arial', 'Helvetica', 'Avant Garde', sans-serif; text-anchor: middle" x="87.15" y="158.12" transform="rotate(-0 87.15 158.12)">1</text>
 </g>
 </g>
 <g>
 <g>
 <path d="M 131.53 145.8 
L 131.53 7.2 
" style="fill: none; stroke: #e5e7eb; stroke-opacity: 0.6; stroke-width: 0.5; stroke-linecap: square"/>
 </g>
 <g>
 <g>
 <use xlink:href="#m6fa6519f1b" x="131.53" y="145.8" style="fill: #9ca3af; stroke: #9ca3af; stroke-width: 0.8"/>
 </g>
 </g>
 <g>
 <text style="fill: #9ca3af; font: 7px 'DejaVu Sans', 'Bitstream Vera Sans', 'Computer Modern Sans Serif', 'Lucida Grande', 'Verdana', 'Geneva', 'Lucid', 'Arial', 'Helvetica', 'Avant Garde', sans-serif; text-anchor: middle" x="131.53" y="158.12" transform="rotate(-0 131.53 158.12)">2</text>
 </g>
 </g>
 <g>
 <g>
 <path d="M 175.92 145.8 
L 175.92 7.2 
" style="fill: none; stroke: #e5e7eb; stroke-opacity: 0.6; stroke-width: 0.5; stroke-linecap: square"/>
 </g>
 <g>
 <g>
 <use xlink:href="#m6fa6519f1b" x="175.92" y="145.8" style="fill: #9ca3af; stroke: #9ca3af; stroke-width: 0.8"/>
 </g>
 </g>
 <g>
 <text style="fill: #9ca3af; font: 7px 'DejaVu Sans', 'Bitstream Vera Sans', 'Computer Modern Sans Serif', 'Lucida Grande', 'Verdana', 'Geneva', 'Lucid', 'Arial', 'Helvetica', 'Avant Garde', sans-serif; text-anchor: middle" x="175.92" y="158.12" transform="rotate(-0 175.92 158.12)">3</text>
 </g>
 </g>
 <g>
 <g>
 <path d="M 220.30 145.8 
L 220.30 7.2 
" style="fill: none; stroke: #e5e7eb; stroke-opacity: 0.6; stroke-width: 0.5; stroke-linecap: square"/>
 </g>
 <g>
 <g>
 <use xlink:href="#m6fa6519f1b" x="220.30" y="145.8" style="fill: #9ca3af; stroke: #9ca3af; stroke-width: 0.8"/>
 </g>
 </g>
 <g>
 <text style="fill: #9ca3af; font: 7px 'DejaVu Sans', 'Bitstream Vera Sans', 'Computer Modern Sans Serif', 'Lucida Grande', 'Verdana', 'Geneva', 'Lucid', 'Arial', 'Helvetica', 'Avant Garde', sans-serif; text-anchor: middle" x="220.30" y="158.12" transform="rotate(-0 220.30 158.12)">4</text>
 </g>
 </g>
 <g>
 <text style="fill: #9ca3af; font: 7px 'DejaVu Sans', 'Bitstream Vera Sans', 'Computer Modern Sans Serif', 'Lucida Grande', 'Verdana', 'Geneva', 'Lucid', 'Arial', 'Helvetica', 'Avant Garde', sans-serif; text-anchor: middle" x="131.53" y="168.89" transform="rotate(-0 131.53 168.89)">x</text>
 </g>
 </g>
 <g>
 <g>
 <g>
 <path d="M 33.88 115.52 
L 229.18 115.52 
" style="fill: none; stroke: #e5e7eb; stroke-opacity: 0.6; stroke-width: 0.5; stroke-linecap: square"/>
 </g>
 <g>
 <defs>
 <path d="M 0 0 
L -3.5 0 
" style="stroke: #9ca3af; stroke-width: 0.8"/>
 </defs>
 <g>
 <use xlink:href="#m6e46e7075b" x="33.88" y="115.52" style="fill: #9ca3af; stroke: #9ca3af; stroke-width: 0.8"/>
 </g>
 </g>
 <g>
 <text style="fill: #9ca3af; font: 7px 'DejaVu Sans', 'Bitstream Vera Sans', 'Computer Modern Sans Serif', 'Lucida Grande', 'Verdana', 'Geneva', 'Lucid', 'Arial', 'Helvetica', 'Avant Garde', sans-serif; text-anchor: end" x="26.88" y="118.17" transform="rotate(-0 26.88 118.17)">0</text>
 </g>
 </g>
 <g>
 <g>
 <path d="M 33.88 72.07 
L 229.18 72.07 
" style="fill: none; stroke: #e5e7eb; stroke-opacity: 0.6; stroke-width: 0.5; stroke-linecap: square"/>
 </g>
 <g>
 <g>
 <use xlink:href="#m6e46e7075b" x="33.88" y="72.07" style="fill: #9ca3af; stroke: #9ca3af; stroke-width: 0.8"/>
 </g>
 </g>
 <g>
 <text style="fill: #9ca3af; font: 7px 'DejaVu Sans', 'Bitstream Vera Sans', 'Computer Modern Sans Serif', 'Lucida Grande', 'Verdana', 'Geneva', 'Lucid', 'Arial', 'Helvetica', 'Avant Garde', sans-serif; text-anchor: end" x="26.88" y="74.73" transform="rotate(-0 26.88 74.73)">20</text>
 </g>
 </g>
 <g>
 <g>
 <path d="M 33.88 28.63 
L 229.18 28.63 
" style="fill: none; stroke: #e5e7eb; stroke-opacity: 0.6; stroke-width: 0.5; stroke-linecap: square"/>
 </g>
 <g>
 <g>
 <use xlink:href="#m6e46e7075b" x="33.88" y="28.63" style="fill: #9ca3af; stroke: #9ca3af; stroke-width: 0.8"/>
 </g>
 </g>
 <g>
 <text style="fill: #9ca3af; font: 7px 'DejaVu Sans', 'Bitstream Vera Sans', 'Computer Modern Sans Serif', 'Lucida Grande', 'Verdana', 'Geneva', 'Lucid', 'Arial', 'Helvetica', 'Avant Garde', sans-serif; text-anchor: end" x="26.88" y="31.29" transform="rotate(-0 26.88 31.29)">40</text>
 </g>
 </g>
 <g>
 <text style="fill: #9ca3af; font: 7px 'DejaVu Sans', 'Bitstream Vera Sans', 'Computer Modern Sans Serif', 'Lucida Grande', 'Verdana', 'Geneva', 'Lucid', 'Arial', 'Helvetica', 'Avant Garde', sans-serif; text-anchor: middle" x="12.52" y="76.5" transform="rotate(-90 12.52 76.5)">y</text>
 </g>
 </g>
 <g>
 <path d="M 42.76 119.86 
L 45.01 119.86 
L 47.25 119.85 
L 49.50 119.83 
L 51.75 119.81 
L 54.00 119.78 
L 56.24 119.75 
L 58.49 119.71 
L 60.74 119.65 
L 62.99 119.60 
L 65.23 119.53 
L 67.48 119.45 
L 69.73 119.36 
L 71.98 119.27 
L 74.22 119.16 
L 76.47 119.04 
L 78.72 118.91 
L 80.97 118.76 
L 83.21 118.61 
L 85.46 118.44 
L 87.71 118.25 
L 89.96 118.05 
L 92.20 117.83 
L 94.45 117.60 
L 96.70 117.35 
L 98.94 117.08 
L 101.19 116.79 
L 103.44 116.48 
L 105.69 116.15 
L 107.93 115.79 
L 110.18 115.41 
L 112.43 115.00 
L 114.68 114.57 
L 116.92 114.11 
L 119.17 113.62 
L 121.42 113.10 
L 123.67 112.55 
L 125.91 111.96 
L 128.16 111.33 
L 130.41 110.67 
L 132.66 109.97 
L 134.90 109.22 
L 137.15 108.44 
L 139.40 107.60 
L 141.65 106.71 
L 143.89 105.78 
L 146.14 104.79 
L 148.39 103.74 
L 150.64 102.63 
L 152.88 101.46 
L 155.13 100.22 
L 157.38 98.91 
L 159.62 97.53 
L 161.87 96.07 
L 164.12 94.53 
L 166.37 92.90 
L 168.61 91.18 
L 170.86 89.37 
L 173.11 87.46 
L 175.36 85.44 
L 177.60 83.32 
L 179.85 81.07 
L 182.10 78.71 
L 184.35 76.21 
L 186.59 73.58 
L 188.84 70.81 
L 191.09 67.89 
L 193.34 64.81 
L 195.58 61.57 
L 197.83 58.15 
L 200.08 54.54 
L 202.33 50.75 
L 204.57 46.75 
L 206.82 42.54 
L 209.07 38.11 
L 211.32 33.43 
L 213.56 28.51 
L 215.81 23.33 
L 218.06 17.88 
L 220.30 12.13 
" style="fill: none; stroke: #2563eb; stroke-width: 1.5; stroke-linecap: square"/>
 </g>
 <g>
 <path d="M 33.88 115.52 
L 229.18 115.52 
" style="fill: none; stroke: #9ca3af; stroke-width: 0.6; stroke-linecap: square"/>
 </g>
 <g>
 <path d="M 87.15 145.8 
L 87.15 7.2 
" style="fill: none; stroke-dasharray: 0.6,0.99; stroke-dashoffset: 0; stroke: #6b7280; stroke-width: 0.6"/>
 </g>
 <g>
 <path d="M 175.92 145.8 
L 175.92 7.2 
" style="fill: none; stroke-dasharray: 0.6,0.99; stroke-dashoffset: 0; stroke: #6b7280; stroke-width: 0.6"/>
 </g>
 <g>
 <path d="M 33.88 145.8 
L 33.88 7.2 
" style="fill: none; stroke: #9ca3af; stroke-width: 0.6; stroke-linejoin: miter; stroke-linecap: square"/>
 </g>
 <g>
 <path d="M 229.18 145.8 
L 229.18 7.2 
" style="fill: none; stroke: #9ca3af; stroke-width: 0.6; stroke-linejoin: miter; stroke-linecap: square"/>
 </g>
 <g>
 <path d="M 33.88 145.8 
L 229.18 145.8 
" style="fill: none; stroke: #9ca3af; stroke-width: 0.6; stroke-linejoin: miter; stroke-linecap: square"/>
 </g>
 <g>
 <path d="M 33.88 7.2 
L 229.18 7.2 
" style="fill: none; stroke: #9ca3af; stroke-width: 0.6; stroke-linejoin: miter; stroke-linecap: square"/>
 </g>
 <g>
 <text style="fill: #111827; font: 6px 'DejaVu Sans', 'Bitstream Vera Sans', 'Computer Modern Sans Serif', 'Lucida Grande', 'Verdana', 'Geneva', 'Lucid', 'Arial', 'Helvetica', 'Avant Garde', sans-serif; text-anchor: end" x="82.15" y="110.30" transform="rotate(-0 82.15 110.30)">f(a)=-1.28</text>
 </g>
 <g>
 <text style="fill: #111827; font: 6px 'DejaVu Sans', 'Bitstream Vera Sans', 'Computer Modern Sans Serif', 'Lucida Grande', 'Verdana', 'Geneva', 'Lucid', 'Arial', 'Helvetica', 'Avant Garde', sans-serif; text-anchor: start" x="180.92" y="76.92" transform="rotate(-0 180.92 76.92)">f(b)=14.1</text>
 </g>
 <g>
 <defs>
 <path d="M 0 2.5 
C 0.66 2.5 1.30 2.24 1.77 1.77 
C 2.24 1.30 2.5 0.66 2.5 0 
C 2.5 -0.66 2.24 -1.30 1.77 -1.77 
C 1.30 -2.24 0.66 -2.5 0 -2.5 
C -0.66 -2.5 -1.30 -2.24 -1.77 -1.77 
C -2.24 -1.30 -2.5 -0.66 -2.5 0 
C -2.5 0.66 -2.24 1.30 -1.77 1.77 
C -1.30 2.24 -0.66 2.5 0 2.5 
z
" style="stroke: #111827"/>
 </defs>
 <g>
 <use xlink:href="#m02157e4775" x="87.15" y="118.30" style="fill: #111827; stroke: #111827"/>
 </g>
 </g>
 <g>
 <g>
 <use xlink:href="#m02157e4775" x="175.92" y="84.92" style="fill: #111827; stroke: #111827"/>
 </g>
 </g>
 </g>
 </g>
 <defs>
 </defs>
</svg>