<?xml version="1.0" encoding="utf-8" standalone="no"?>
<!DOCTYPE svg PUBLIC "-//W3C//DTD SVG 1.1//EN"
 "http://www.w3.org/Graphics/SVG/1.1/DTD/svg11.dtd">
<svg xmlns:xlink="http://www.w3.org/1999/xlink" width="242.25pt" height="177.55pt" viewBox="0 0 242.25 177.55" xmlns="http://www.w3.org/2000/svg" version="1.1">
 <g>
 <g>
 <path d="M 0 177.55 
L 242.25 177.55 
L 242.25 0 
L 0 0 
L 0 177.55 
z
" style="fill: none"/>
 </g>
 <g>
 <g>
 <path d="M 39.75 145.8 
L 235.05 145.8 
L 235.05 7.2 
L 39.75 7.2 
L 39.75 145.8 
z
" style="fill: none"/>
 </g>
 <g>
 <defs>
 <path d="M 93.01 -72.27 
L 93.01 -100.59 
L 94.82 -100.59 
L 96.63 -100.59 
L 98.45 -100.59 
L 100.26 -100.59 
L 102.07 -100.59 
L 103.88 -100.59 
L 105.69 -100.59 
L 107.51 -100.59 
L 109.32 -100.59 
L 111.13 -100.59 
L 112.94 -100.59 
L 114.75 -100.59 
L 116.56 -100.59 
L 118.38 -100.59 
L 120.19 -100.59 
L 122.00 -100.59 
L 123.81 -100.59 
L 125.62 -100.59 
L 127.43 -100.59 
L 129.25 -100.59 
L 131.06 -100.59 
L 132.87 -100.59 
L 134.68 -100.59 
L 136.49 -100.59 
L 138.30 -100.59 
L 140.12 -100.59 
L 141.93 -100.59 
L 143.74 -100.59 
L 145.55 -100.59 
L 147.36 -100.59 
L 149.17 -100.59 
L 150.99 -100.59 
L 152.80 -100.59 
L 154.61 -100.59 
L 156.42 -100.59 
L 158.23 -100.59 
L 160.04 -100.59 
L 161.86 -100.59 
L 163.67 -100.59 
L 165.48 -100.59 
L 167.29 -100.59 
L 169.10 -100.59 
L 170.91 -100.59 
L 172.73 -100.59 
L 174.54 -100.59 
L 176.35 -100.59 
L 178.16 -100.59 
L 179.97 -100.59 
L 181.78 -100.59 
L 181.78 -116.47 
L 181.78 -116.47 
L 179.97 -115.31 
L 178.16 -114.16 
L 176.35 -113.04 
L 174.54 -111.93 
L 172.73 -110.84 
L 170.91 -109.76 
L 169.10 -108.70 
L 167.29 -107.66 
L 165.48 -106.62 
L 163.67 -105.61 
L 161.86 -104.6 
L 160.04 -103.61 
L 158.23 -102.62 
L 156.42 -101.65 
L 154.61 -100.70 
L 152.80 -99.75 
L 150.99 -98.81 
L 149.17 -97.88 
L 147.36 -96.96 
L 145.55 -96.05 
L 143.74 -95.14 
L 141.93 -94.25 
L 140.12 -93.36 
L 138.30 -92.49 
L 136.49 -91.61 
L 134.68 -90.75 
L 132.87 -89.89 
L 131.06 -89.04 
L 129.25 -88.19 
L 127.43 -87.36 
L 125.62 -86.52 
L 123.81 -85.69 
L 122.00 -84.87 
L 120.19 -84.05 
L 118.38 -83.24 
L 116.56 -82.43 
L 114.75 -81.63 
L 112.94 -80.83 
L 111.13 -80.03 
L 109.32 -79.24 
L 107.51 -78.45 
L 105.69 -77.67 
L 103.88 -76.89 
L 102.07 -76.11 
L 100.26 -75.33 
L 98.45 -74.56 
L 96.63 -73.80 
L 94.82 -73.03 
L 93.01 -72.27 
z
" style="stroke: #2563eb; stroke-opacity: 0.15"/>
 </defs>
 <g>
 <use xlink:href="#m1a2372b2ca" x="0" y="177.55" style="fill: #2563eb; fill-opacity: 0.15; stroke: #2563eb; stroke-opacity: 0.15"/>
 </g>
 </g>
 <g>
 <g>
 <g>
 <path d="M 48.63 145.8 
L 48.63 7.2 
" style="fill: none; stroke: #e5e7eb; stroke-opacity: 0.6; stroke-width: 0.5; stroke-linecap: square"/>
 </g>
 <g>
 <defs>
 <path d="M 0 0 
L 0 3.5 
" style="stroke: #9ca3af; stroke-width: 0.8"/>
 </defs>
 <g>
 <use xlink:href="#ma53b836fb4" x="48.63" y="145.8" style="fill: #9ca3af; stroke: #9ca3af; stroke-width: 0.8"/>
 </g>
 </g>
 <g>
 <text style="fill: #9ca3af; font: 7px 'DejaVu Sans', 'Bitstream Vera Sans', 'Computer Modern Sans Serif', 'Lucida Grande', 'Verdana', 'Geneva', 'Lucid', 'Arial', 'Helvetica', 'Avant Garde', sans-serif; text-anchor: middle" x="48.63" y="158.12" transform="rotate(-0 48.63 158.12)">−2</text>
 </g>
 </g>
 <g>
 <g>
 <path d="M 93.01 145.8 
L 93.01 7.2 
" style="fill: none; stroke: #e5e7eb; stroke-opacity: 0.6; stroke-width: 0.5; stroke-linecap: square"/>
 </g>
 <g>
 <g>
 <use xlink:href="#ma53b836fb4" x="93.01" y="145.8" style="fill: #9ca3af; stroke: #9ca3af; stroke-width: 0.8"/>
 </g>
 </g>
 <g>
 <text style="fill: #9ca3af; font: 7px 'DejaVu Sans', 'Bitstream Vera Sans', 'Computer Modern Sans Serif', 'Lucida Grande', 'Verdana', 'Geneva', 'Lucid', 'Arial', 'Helvetica', 'Avant Garde', sans-serif; text-anchor: middle" x="93.01" y="158.12" transform="rotate(-0 93.01 158.12)">−1</text>
 </g>
 </g>
 <g>
 <g>
 <path d="M 137.40 145.8 
L 137.40 7.2 
" style="fill: none; stroke: #e5e7eb; stroke-opacity: 0.6; stroke-width: 0.5; stroke-linecap: square"/>
 </g>
 <g>
 <g>
 <use xlink:href="#ma53b836fb4" x="137.40" y="145.8" style="fill: #9ca3af; stroke: #9ca3af; stroke-width: 0.8"/>
 </g>
 </g>
 <g>
 <text style="fill: #9ca3af; font: 7px 'DejaVu Sans', 'Bitstream Vera Sans', 'Computer Modern Sans Serif', 'Lucida Grande', 'Verdana', 'Geneva', 'Lucid', 'Arial', 'Helvetica', 'Avant Garde', sans-serif; text-anchor: middle" x="137.40" y="158.12" transform="rotate(-0 137.40 158.12)">0</text>
 </g>
 </g>
 <g>
 <g>
 <path d="M 181.78 145.8 
L 181.78 7.2 
" style="fill: none; stroke: #e5e7eb; stroke-opacity: 0.6; stroke-width: 0.5; stroke-linecap: square"/>
 </g>
 <g>
 <g>
 <use xlink:href="#ma53b836fb4" x="181.78" y="145.8" style="fill: #9ca3af; stroke: #9ca3af; stroke-width: 0.8"/>
 </g>
 </g>
 <g>
 <text style="fill: #9ca3af; font: 7px 'DejaVu Sans', 'Bitstream Vera Sans', 'Computer Modern Sans Serif', 'Lucida Grande', 'Verdana', 'Geneva', 'Lucid', 'Arial', 'Helvetica', 'Avant Garde', sans-serif; text-anchor: middle" x="181.78" y="158.12" transform="rotate(-0 181.78 158.12)">1</text>
 </g>
 </g>
 <g>
 <g>
 <path d="M 226.17 145.8 
L 226.17 7.2 
" style="fill: none; stroke: #e5e7eb; stroke-opacity: 0.6; stroke-width: 0.5; stroke-linecap: square"/>
 </g>
 <g>
 <g>
 <use xlink:href="#ma53b836fb4" x="226.17" y="145.8" style="fill: #9ca3af; stroke: #9ca3af; stroke-width: 0.8"/>
 </g>
 </g>
 <g>
 <text style="fill: #9ca3af; font: 7px 'DejaVu Sans', 'Bitstream Vera Sans', 'Computer Modern Sans Serif', 'Lucida Grande', 'Verdana', 'Geneva', 'Lucid', 'Arial', 'Helvetica', 'Avant Garde', sans-serif; text-anchor: middle" x="226.17" y="158.12" transform="rotate(-0 226.17 158.12)">2</text>
 </g>
 </g>
 <g>
 <text style="fill: #9ca3af; font: 7px 'DejaVu Sans', 'Bitstream Vera Sans', 'Computer Modern Sans Serif', 'Lucida Grande', 'Verdana', 'Geneva', 'Lucid', 'Arial', 'Helvetica', 'Avant Garde', sans-serif; text-anchor: middle" x="137.40" y="168.89" transform="rotate(-0 137.40 168.89)">x</text>
 </g>
 </g>
 <g>
 <g>
 <g>
 <path d="M 39.75 119.66 
L 235.05 119.66 
" style="fill: none; stroke: #e5e7eb; stroke-opacity: 0.6; stroke-width: 0.5; stroke-linecap: square"/>
 </g>
 <g>
 <defs>
 <path d="M 0 0 
L -3.5 0 
" style="stroke: #9ca3af; stroke-width: 0.8"/>
 </defs>
 <g>
 <use xlink:href="#mac23c461ba" x="39.75" y="119.66" style="fill: #9ca3af; stroke: #9ca3af; stroke-width: 0.8"/>
 </g>
 </g>
 <g>
 <text style="fill: #9ca3af; font: 7px 'DejaVu Sans', 'Bitstream Vera Sans', 'Computer Modern Sans Serif', 'Lucida Grande', 'Verdana', 'Geneva', 'Lucid', 'Arial', 'Helvetica', 'Avant Garde', sans-serif; text-anchor: end" x="32.75" y="122.32" transform="rotate(-0 32.75 122.32)">−10</text>
 </g>
 </g>
 <g>
 <g>
 <path d="M 39.75 76.96 
L 235.05 76.96 
" style="fill: none; stroke: #e5e7eb; stroke-opacity: 0.6; stroke-width: 0.5; stroke-linecap: square"/>
 </g>
 <g>
 <g>
 <use xlink:href="#mac23c461ba" x="39.75" y="76.96" style="fill: #9ca3af; stroke: #9ca3af; stroke-width: 0.8"/>
 </g>
 </g>
 <g>
 <text style="fill: #9ca3af; font: 7px 'DejaVu Sans', 'Bitstream Vera Sans', 'Computer Modern Sans Serif', 'Lucida Grande', 'Verdana', 'Geneva', 'Lucid', 'Arial', 'Helvetica', 'Avant Garde', sans-serif; text-anchor: end" x="32.75" y="79.62" transform="rotate(-0 32.75 79.62)">0</text>
 </g>
 </g>
 <g>
 <g>
 <path d="M 39.75 34.26 
L 235.05 34.26 
" style="fill: none; stroke: #e5e7eb; stroke-opacity: 0.6; stroke-width: 0.5; stroke-linecap: square"/>
 </g>
 <g>
 <g>
 <use xlink:href="#mac23c461ba" x="39.75" y="34.26" style="fill: #9ca3af; stroke: #9ca3af; stroke-width: 0.8"/>
 </g>
 </g>
 <g>
 <text style="fill: #9ca3af; font: 7px 'DejaVu Sans', 'Bitstream Vera Sans', 'Computer Modern Sans Serif', 'Lucida Grande', 'Verdana', 'Geneva', 'Lucid', 'Arial', 'Helvetica', 'Avant Garde', sans-serif; text-anchor: end" x="32.75" y="36.91" transform="rotate(-0 32.75 36.91)">10</text>
 </g>
 </g>
 <g>
 <text style="fill: #9ca3af; font: 7px 'DejaVu Sans', 'Bitstream Vera Sans', 'Computer Modern Sans Serif', 'Lucida Grande', 'Verdana', 'Geneva', 'Lucid', 'Arial', 'Helvetica', 'Avant Garde', sans-serif; text-anchor: middle" x="12.52" y="76.5" transform="rotate(-90 12.52 76.5)">y</text>
 </g>
 </g>
 <g>
 <path d="M 48.63 123.36 
L 50.87 122.46 
L 53.12 121.57 
L 55.37 120.67 
L 57.61 119.77 
L 59.86 118.87 
L 62.11 117.96 
L 64.36 117.06 
L 66.60 116.15 
L 68.85 115.24 
L 71.10 114.33 
L 73.35 113.41 
L 75.59 112.49 
L 77.84 111.57 
L 80.09 110.65 
L 82.34 109.73 
L 84.58 108.80 
L 86.83 107.86 
L 89.08 106.93 
L 91.33 105.99 
L 93.57 105.05 
L 95.82 104.10 
L 98.07 103.15 
L 100.32 102.19 
L 102.56 101.23 
L 104.81 100.26 
L 107.06 99.29 
L 109.31 98.31 
L 111.55 97.33 
L 113.80 96.34 
L 116.05 95.35 
L 118.29 94.35 
L 120.54 93.34 
L 122.79 92.32 
L 125.04 91.30 
L 127.28 90.26 
L 129.53 89.22 
L 131.78 88.17 
L 134.03 87.11 
L 136.27 86.04 
L 138.52 84.96 
L 140.77 83.87 
L 143.02 82.76 
L 145.26 81.65 
L 147.51 80.52 
L 149.76 79.37 
L 152.01 78.21 
L 154.25 77.04 
L 156.50 75.85 
L 158.75 74.65 
L 161.00 73.42 
L 163.24 72.18 
L 165.49 70.92 
L 167.74 69.64 
L 169.99 68.33 
L 172.23 67.00 
L 174.48 65.65 
L 176.73 64.28 
L 178.98 62.87 
L 181.22 61.44 
L 183.47 59.98 
L 185.72 58.49 
L 187.96 56.97 
L 190.21 55.41 
L 192.46 53.82 
L 194.71 52.18 
L 196.95 50.51 
L 199.20 48.80 
L 201.45 47.04 
L 203.70 45.24 
L 205.94 43.39 
L 208.19 41.48 
L 210.44 39.52 
L 212.69 37.51 
L 214.93 35.43 
L 217.18 33.30 
L 219.43 31.09 
L 221.68 28.82 
L 223.92 26.48 
L 226.17 24.05 
" style="fill: none; stroke: #2563eb; stroke-width: 1.5; stroke-linecap: square"/>
 </g>
 <g>
 <path d="M 39.75 76.96 
L 235.05 76.96 
" style="fill: none; stroke: #9ca3af; stroke-width: 0.6; stroke-linecap: square"/>
 </g>
 <g>
 <path d="M 93.01 145.8 
L 93.01 7.2 
" style="fill: none; stroke-dasharray: 0.6,0.99; stroke-dashoffset: 0; stroke: #6b7280; stroke-width: 0.6"/>
 </g>
 <g>
 <path d="M 181.78 145.8 
L 181.78 7.2 
" style="fill: none; stroke-dasharray: 0.6,0.99; stroke-dashoffset: 0; stroke: #6b7280; stroke-width: 0.6"/>
 </g>
 <g>
 <path d="M 39.75 145.8 
L 39.75 7.2 
" style="fill: none; stroke: #9ca3af; stroke-width: 0.6; stroke-linejoin: miter; stroke-linecap: square"/>
 </g>
 <g>
 <path d="M 235.05 145.8 
L 235.05 7.2 
" style="fill: none; stroke: #9ca3af; stroke-width: 0.6; stroke-linejoin: miter; stroke-linecap: square"/>
 </g>
 <g>
 <path d="M 39.75 145.8 
L 235.05 145.8 
" style="fill: none; stroke: #9ca3af; stroke-width: 0.6; stroke-linejoin: miter; stroke-linecap: square"/>
 </g>
 <g>
 <path d="M 39.75 7.2 
L 235.05 7.2 
" style="fill: none; stroke: #9ca3af; stroke-width: 0.6; stroke-linejoin: miter; stroke-linecap: square"/>
 </g>
 <g>
 <text style="fill: #111827; font: 6px 'DejaVu Sans', 'Bitstream Vera Sans', 'Computer Modern Sans Serif', 'Lucida Grande', 'Verdana', 'Geneva', 'Lucid', 'Arial', 'Helvetica', 'Avant Garde', sans-serif; text-anchor: end" x="88.01" y="97.28" transform="rotate(-0 88.01 97.28)">f(a)=-6.63</text>
 </g>
 <g>
 <text style="fill: #111827; font: 6px 'DejaVu Sans', 'Bitstream Vera Sans', 'Computer Modern Sans Serif', 'Lucida Grande', 'Verdana', 'Geneva', 'Lucid', 'Arial', 'Helvetica', 'Avant Garde', sans-serif; text-anchor: start" x="186.78" y="53.08" transform="rotate(-0 186.78 53.08)">f(b)=3.72</text>
 </g>
 <g>
 <defs>
 <path d="M 0 2.5 
C 0.66 2.5 1.30 2.24 1.77 1.77 
C 2.24 1.30 2.5 0.66 2.5 0 
C 2.5 -0.66 2.24 -1.30 1.77 -1.77 
C 1.30 -2.24 0.66 -2.5 0 -2.5 
C -0.66 -2.5 -1.30 -2.24 -1.77 -1.77 
C -2.24 -1.30 -2.5 -0.66 -2.5 0 
C -2.5 0.66 -2.24 1.30 -1.77 1.77 
C -1.30 2.24 -0.66 2.5 0 2.5 
z
" style="stroke: #111827"/>
 </defs>
 <g>
 <use xlink:href="#md490b8857d" x="93.01" y="105.28" style="fill: #111827; stroke: #111827"/>
 </g>
 </g>
 <g>
 <g>
 <use xlink:href="#md490b8857d" x="181.78" y="61.08" style="fill: #111827; stroke: #111827"/>
 </g>
 </g>
 </g>
 </g>
 <defs>
 </defs>
</svg>