<?xml version="1.0" encoding="utf-8" standalone="no"?>
<!DOCTYPE svg PUBLIC "-//W3C//DTD SVG 1.1//EN"
 "http://www.w3.org/Graphics/SVG/1.1/DTD/svg11.dtd">
<svg xmlns:xlink="http://www.w3.org/1999/xlink" width="242.25pt" height="177.55pt" viewBox="0 0 242.25 177.55" xmlns="http://www.w3.org/2000/svg" version="1.1">
 <g>
 <g>
 <path d="M 0 177.55 
L 242.25 177.55 
L 242.25 0 
L 0 0 
L 0 177.55 
z
" style="fill: none"/>
 </g>
 <g>
 <g>
 <path d="M 39.75 145.8 
L 235.05 145.8 
L 235.05 7.2 
L 39.75 7.2 
L 39.75 145.8 
z
" style="fill: none"/>
 </g>
 <g>
 <defs>
 <path d="M 93.01 -69.67 
L 93.01 -100.34 
L 94.82 -100.34 
L 96.63 -100.34 
L 98.45 -100.34 
L 100.26 -100.34 
L 102.07 -100.34 
L 103.88 -100.34 
L 105.69 -100.34 
L 107.51 -100.34 
L 109.32 -100.34 
L 111.13 -100.34 
L 112.94 -100.34 
L 114.75 -100.34 
L 116.56 -100.34 
L 118.38 -100.34 
L 120.19 -100.34 
L 122.00 -100.34 
L 123.81 -100.34 
L 125.62 -100.34 
L 127.43 -100.34 
L 129.25 -100.34 
L 131.06 -100.34 
L 132.87 -100.34 
L 134.68 -100.34 
L 136.49 -100.34 
L 138.30 -100.34 
L 140.12 -100.34 
L 141.93 -100.34 
L 143.74 -100.34 
L 145.55 -100.34 
L 147.36 -100.34 
L 149.17 -100.34 
L 150.99 -100.34 
L 152.80 -100.34 
L 154.61 -100.34 
L 156.42 -100.34 
L 158.23 -100.34 
L 160.04 -100.34 
L 161.86 -100.34 
L 163.67 -100.34 
L 165.48 -100.34 
L 167.29 -100.34 
L 169.10 -100.34 
L 170.91 -100.34 
L 172.73 -100.34 
L 174.54 -100.34 
L 176.35 -100.34 
L 178.16 -100.34 
L 179.97 -100.34 
L 181.78 -100.34 
L 181.78 -111.71 
L 181.78 -111.71 
L 179.97 -110.45 
L 178.16 -109.22 
L 176.35 -108.02 
L 174.54 -106.84 
L 172.73 -105.69 
L 170.91 -104.56 
L 169.10 -103.46 
L 167.29 -102.38 
L 165.48 -101.32 
L 163.67 -100.28 
L 161.86 -99.26 
L 160.04 -98.26 
L 158.23 -97.28 
L 156.42 -96.31 
L 154.61 -95.37 
L 152.80 -94.44 
L 150.99 -93.52 
L 149.17 -92.62 
L 147.36 -91.73 
L 145.55 -90.86 
L 143.74 -90.00 
L 141.93 -89.16 
L 140.12 -88.32 
L 138.30 -87.50 
L 136.49 -86.69 
L 134.68 -85.89 
L 132.87 -85.10 
L 131.06 -84.32 
L 129.25 -83.55 
L 127.43 -82.79 
L 125.62 -82.04 
L 123.81 -81.30 
L 122.00 -80.56 
L 120.19 -79.83 
L 118.38 -79.11 
L 116.56 -78.40 
L 114.75 -77.69 
L 112.94 -77.00 
L 111.13 -76.30 
L 109.32 -75.62 
L 107.51 -74.93 
L 105.69 -74.26 
L 103.88 -73.59 
L 102.07 -72.92 
L 100.26 -72.26 
L 98.45 -71.61 
L 96.63 -70.96 
L 94.82 -70.31 
L 93.01 -69.67 
z
" style="stroke: #2563eb; stroke-opacity: 0.15"/>
 </defs>
 <g>
 <use xlink:href="#m20142e98fa" x="0" y="177.55" style="fill: #2563eb; fill-opacity: 0.15; stroke: #2563eb; stroke-opacity: 0.15"/>
 </g>
 </g>
 <g>
 <g>
 <g>
 <path d="M 48.63 145.8 
L 48.63 7.2 
" style="fill: none; stroke: #e5e7eb; stroke-opacity: 0.6; stroke-width: 0.5; stroke-linecap: square"/>
 </g>
 <g>
 <defs>
 <path d="M 0 0 
L 0 3.5 
" style="stroke: #9ca3af; stroke-width: 0.8"/>
 </defs>
 <g>
 <use xlink:href="#m514f17e602" x="48.63" y="145.8" style="fill: #9ca3af; stroke: #9ca3af; stroke-width: 0.8"/>
 </g>
 </g>
 <g>
 <text style="fill: #9ca3af; font: 7px 'DejaVu Sans', 'Bitstream Vera Sans', 'Computer Modern Sans Serif', 'Lucida Grande', 'Verdana', 'Geneva', 'Lucid', 'Arial', 'Helvetica', 'Avant Garde', sans-serif; text-anchor: middle" x="48.63" y="158.12" transform="rotate(-0 48.63 158.12)">−2</text>
 </g>
 </g>
 <g>
 <g>
 <path d="M 93.01 145.8 
L 93.01 7.2 
" style="fill: none; stroke: #e5e7eb; stroke-opacity: 0.6; stroke-width: 0.5; stroke-linecap: square"/>
 </g>
 <g>
 <g>
 <use xlink:href="#m514f17e602" x="93.01" y="145.8" style="fill: #9ca3af; stroke: #9ca3af; stroke-width: 0.8"/>
 </g>
 </g>
 <g>
 <text style="fill: #9ca3af; font: 7px 'DejaVu Sans', 'Bitstream Vera Sans', 'Computer Modern Sans Serif', 'Lucida Grande', 'Verdana', 'Geneva', 'Lucid', 'Arial', 'Helvetica', 'Avant Garde', sans-serif; text-anchor: middle" x="93.01" y="158.12" transform="rotate(-0 93.01 158.12)">−1</text>
 </g>
 </g>
 <g>
 <g>
 <path d="M 137.40 145.8 
L 137.40 7.2 
" style="fill: none; stroke: #e5e7eb; stroke-opacity: 0.6; stroke-width: 0.5; stroke-linecap: square"/>
 </g>
 <g>
 <g>
 <use xlink:href="#m514f17e602" x="137.40" y="145.8" style="fill: #9ca3af; stroke: #9ca3af; stroke-width: 0.8"/>
 </g>
 </g>
 <g>
 <text style="fill: #9ca3af; font: 7px 'DejaVu Sans', 'Bitstream Vera Sans', 'Computer Modern Sans Serif', 'Lucida Grande', 'Verdana', 'Geneva', 'Lucid', 'Arial', 'Helvetica', 'Avant Garde', sans-serif; text-anchor: middle" x="137.40" y="158.12" transform="rotate(-0 137.40 158.12)">0</text>
 </g>
 </g>
 <g>
 <g>
 <path d="M 181.78 145.8 
L 181.78 7.2 
" style="fill: none; stroke: #e5e7eb; stroke-opacity: 0.6; stroke-width: 0.5; stroke-linecap: square"/>
 </g>
 <g>
 <g>
 <use xlink:href="#m514f17e602" x="181.78" y="145.8" style="fill: #9ca3af; stroke: #9ca3af; stroke-width: 0.8"/>
 </g>
 </g>
 <g>
 <text style="fill: #9ca3af; font: 7px 'DejaVu Sans', 'Bitstream Vera Sans', 'Computer Modern Sans Serif', 'Lucida Grande', 'Verdana', 'Geneva', 'Lucid', 'Arial', 'Helvetica', 'Avant Garde', sans-serif; text-anchor: middle" x="181.78" y="158.12" transform="rotate(-0 181.78 158.12)">1</text>
 </g>
 </g>
 <g>
 <g>
 <path d="M 226.17 145.8 
L 226.17 7.2 
" style="fill: none; stroke: #e5e7eb; stroke-opacity: 0.6; stroke-width: 0.5; stroke-linecap: square"/>
 </g>
 <g>
 <g>
 <use xlink:href="#m514f17e602" x="226.17" y="145.8" style="fill: #9ca3af; stroke: #9ca3af; stroke-width: 0.8"/>
 </g>
 </g>
 <g>
 <text style="fill: #9ca3af; font: 7px 'DejaVu Sans', 'Bitstream Vera Sans', 'Computer Modern Sans Serif', 'Lucida Grande', 'Verdana', 'Geneva', 'Lucid', 'Arial', 'Helvetica', 'Avant Garde', sans-serif; text-anchor: middle" x="226.17" y="158.12" transform="rotate(-0 226.17 158.12)">2</text>
 </g>
 </g>
 <g>
 <text style="fill: #9ca3af; font: 7px 'DejaVu Sans', 'Bitstream Vera Sans', 'Computer Modern Sans Serif', 'Lucida Grande', 'Verdana', 'Geneva', 'Lucid', 'Arial', 'Helvetica', 'Avant Garde', sans-serif; text-anchor: middle" x="137.40" y="168.89" transform="rotate(-0 137.40 168.89)">x</text>
 </g>
 </g>
 <g>
 <g>
 <g>
 <path d="M 39.75 143.42 
L 235.05 143.42 
" style="fill: none; stroke: #e5e7eb; stroke-opacity: 0.6; stroke-width: 0.5; stroke-linecap: square"/>
 </g>
 <g>
 <defs>
 <path d="M 0 0 
L -3.5 0 
" style="stroke: #9ca3af; stroke-width: 0.8"/>
 </defs>
 <g>
 <use xlink:href="#m60844f606f" x="39.75" y="143.42" style="fill: #9ca3af; stroke: #9ca3af; stroke-width: 0.8"/>
 </g>
 </g>
 <g>
 <text style="fill: #9ca3af; font: 7px 'DejaVu Sans', 'Bitstream Vera Sans', 'Computer Modern Sans Serif', 'Lucida Grande', 'Verdana', 'Geneva', 'Lucid', 'Arial', 'Helvetica', 'Avant Garde', sans-serif; text-anchor: end" x="32.75" y="146.08" transform="rotate(-0 32.75 146.08)">−10</text>
 </g>
 </g>
 <g>
 <g>
 <path d="M 39.75 110.31 
L 235.05 110.31 
" style="fill: none; stroke: #e5e7eb; stroke-opacity: 0.6; stroke-width: 0.5; stroke-linecap: square"/>
 </g>
 <g>
 <g>
 <use xlink:href="#m60844f606f" x="39.75" y="110.31" style="fill: #9ca3af; stroke: #9ca3af; stroke-width: 0.8"/>
 </g>
 </g>
 <g>
 <text style="fill: #9ca3af; font: 7px 'DejaVu Sans', 'Bitstream Vera Sans', 'Computer Modern Sans Serif', 'Lucida Grande', 'Verdana', 'Geneva', 'Lucid', 'Arial', 'Helvetica', 'Avant Garde', sans-serif; text-anchor: end" x="32.75" y="112.97" transform="rotate(-0 32.75 112.97)">−5</text>
 </g>
 </g>
 <g>
 <g>
 <path d="M 39.75 77.21 
L 235.05 77.21 
" style="fill: none; stroke: #e5e7eb; stroke-opacity: 0.6; stroke-width: 0.5; stroke-linecap: square"/>
 </g>
 <g>
 <g>
 <use xlink:href="#m60844f606f" x="39.75" y="77.21" style="fill: #9ca3af; stroke: #9ca3af; stroke-width: 0.8"/>
 </g>
 </g>
 <g>
 <text style="fill: #9ca3af; font: 7px 'DejaVu Sans', 'Bitstream Vera Sans', 'Computer Modern Sans Serif', 'Lucida Grande', 'Verdana', 'Geneva', 'Lucid', 'Arial', 'Helvetica', 'Avant Garde', sans-serif; text-anchor: end" x="32.75" y="79.87" transform="rotate(-0 32.75 79.87)">0</text>
 </g>
 </g>
 <g>
 <g>
 <path d="M 39.75 44.11 
L 235.05 44.11 
" style="fill: none; stroke: #e5e7eb; stroke-opacity: 0.6; stroke-width: 0.5; stroke-linecap: square"/>
 </g>
 <g>
 <g>
 <use xlink:href="#m60844f606f" x="39.75" y="44.11" style="fill: #9ca3af; stroke: #9ca3af; stroke-width: 0.8"/>
 </g>
 </g>
 <g>
 <text style="fill: #9ca3af; font: 7px 'DejaVu Sans', 'Bitstream Vera Sans', 'Computer Modern Sans Serif', 'Lucida Grande', 'Verdana', 'Geneva', 'Lucid', 'Arial', 'Helvetica', 'Avant Garde', sans-serif; text-anchor: end" x="32.75" y="46.77" transform="rotate(-0 32.75 46.77)">5</text>
 </g>
 </g>
 <g>
 <g>
 <path d="M 39.75 11.01 
L 235.05 11.01 
" style="fill: none; stroke: #e5e7eb; stroke-opacity: 0.6; stroke-width: 0.5; stroke-linecap: square"/>
 </g>
 <g>
 <g>
 <use xlink:href="#m60844f606f" x="39.75" y="11.01" style="fill: #9ca3af; stroke: #9ca3af; stroke-width: 0.8"/>
 </g>
 </g>
 <g>
 <text style="fill: #9ca3af; font: 7px 'DejaVu Sans', 'Bitstream Vera Sans', 'Computer Modern Sans Serif', 'Lucida Grande', 'Verdana', 'Geneva', 'Lucid', 'Arial', 'Helvetica', 'Avant Garde', sans-serif; text-anchor: end" x="32.75" y="13.67" transform="rotate(-0 32.75 13.67)">10</text>
 </g>
 </g>
 <g>
 <text style="fill: #9ca3af; font: 7px 'DejaVu Sans', 'Bitstream Vera Sans', 'Computer Modern Sans Serif', 'Lucida Grande', 'Verdana', 'Geneva', 'Lucid', 'Arial', 'Helvetica', 'Avant Garde', sans-serif; text-anchor: middle" x="12.52" y="76.5" transform="rotate(-90 12.52 76.5)">y</text>
 </g>
 </g>
 <g>
 <path d="M 48.63 122.66 
L 50.87 121.94 
L 53.12 121.22 
L 55.37 120.50 
L 57.61 119.78 
L 59.86 119.05 
L 62.11 118.32 
L 64.36 117.59 
L 66.60 116.85 
L 68.85 116.11 
L 71.10 115.36 
L 73.35 114.62 
L 75.59 113.87 
L 77.84 113.11 
L 80.09 112.35 
L 82.34 111.58 
L 84.58 110.81 
L 86.83 110.04 
L 89.08 109.26 
L 91.33 108.47 
L 93.57 107.68 
L 95.82 106.88 
L 98.07 106.08 
L 100.32 105.26 
L 102.56 104.44 
L 104.81 103.62 
L 107.06 102.78 
L 109.31 101.94 
L 111.55 101.09 
L 113.80 100.22 
L 116.05 99.35 
L 118.29 98.47 
L 120.54 97.57 
L 122.79 96.67 
L 125.04 95.75 
L 127.28 94.82 
L 129.53 93.88 
L 131.78 92.92 
L 134.03 91.94 
L 136.27 90.95 
L 138.52 89.95 
L 140.77 88.93 
L 143.02 87.88 
L 145.26 86.82 
L 147.51 85.74 
L 149.76 84.64 
L 152.01 83.52 
L 154.25 82.37 
L 156.50 81.19 
L 158.75 80.00 
L 161.00 78.77 
L 163.24 77.51 
L 165.49 76.23 
L 167.74 74.91 
L 169.99 73.56 
L 172.23 72.17 
L 174.48 70.75 
L 176.73 69.28 
L 178.98 67.78 
L 181.22 66.23 
L 183.47 64.64 
L 185.72 63.00 
L 187.96 61.30 
L 190.21 59.56 
L 192.46 57.76 
L 194.71 55.90 
L 196.95 53.98 
L 199.20 51.99 
L 201.45 49.94 
L 203.70 47.81 
L 205.94 45.61 
L 208.19 43.33 
L 210.44 40.97 
L 212.69 38.51 
L 214.93 35.97 
L 217.18 33.32 
L 219.43 30.58 
L 221.68 27.73 
L 223.92 24.76 
L 226.17 21.67 
" style="fill: none; stroke: #2563eb; stroke-width: 1.5; stroke-linecap: square"/>
 </g>
 <g>
 <path d="M 39.75 77.21 
L 235.05 77.21 
" style="fill: none; stroke: #9ca3af; stroke-width: 0.6; stroke-linecap: square"/>
 </g>
 <g>
 <path d="M 93.01 145.8 
L 93.01 7.2 
" style="fill: none; stroke-dasharray: 0.6,0.99; stroke-dashoffset: 0; stroke: #6b7280; stroke-width: 0.6"/>
 </g>
 <g>
 <path d="M 181.78 145.8 
L 181.78 7.2 
" style="fill: none; stroke-dasharray: 0.6,0.99; stroke-dashoffset: 0; stroke: #6b7280; stroke-width: 0.6"/>
 </g>
 <g>
 <path d="M 39.75 145.8 
L 39.75 7.2 
" style="fill: none; stroke: #9ca3af; stroke-width: 0.6; stroke-linejoin: miter; stroke-linecap: square"/>
 </g>
 <g>
 <path d="M 235.05 145.8 
L 235.05 7.2 
" style="fill: none; stroke: #9ca3af; stroke-width: 0.6; stroke-linejoin: miter; stroke-linecap: square"/>
 </g>
 <g>
 <path d="M 39.75 145.8 
L 235.05 145.8 
" style="fill: none; stroke: #9ca3af; stroke-width: 0.6; stroke-linejoin: miter; stroke-linecap: square"/>
 </g>
 <g>
 <path d="M 39.75 7.2 
L 235.05 7.2 
" style="fill: none; stroke: #9ca3af; stroke-width: 0.6; stroke-linejoin: miter; stroke-linecap: square"/>
 </g>
 <g>
 <text style="fill: #111827; font: 6px 'DejaVu Sans', 'Bitstream Vera Sans', 'Computer Modern Sans Serif', 'Lucida Grande', 'Verdana', 'Geneva', 'Lucid', 'Arial', 'Helvetica', 'Avant Garde', sans-serif; text-anchor: end" x="88.01" y="99.88" transform="rotate(-0 88.01 99.88)">f(a)=-4.63</text>
 </g>
 <g>
 <text style="fill: #111827; font: 6px 'DejaVu Sans', 'Bitstream Vera Sans', 'Computer Modern Sans Serif', 'Lucida Grande', 'Verdana', 'Geneva', 'Lucid', 'Arial', 'Helvetica', 'Avant Garde', sans-serif; text-anchor: start" x="186.78" y="57.84" transform="rotate(-0 186.78 57.84)">f(b)=1.72</text>
 </g>
 <g>
 <defs>
 <path d="M 0 2.5 
C 0.66 2.5 1.30 2.24 1.77 1.77 
C 2.24 1.30 2.5 0.66 2.5 0 
C 2.5 -0.66 2.24 -1.30 1.77 -1.77 
C 1.30 -2.24 0.66 -2.5 0 -2.5 
C -0.66 -2.5 -1.30 -2.24 -1.77 -1.77 
C -2.24 -1.30 -2.5 -0.66 -2.5 0 
C -2.5 0.66 -2.24 1.30 -1.77 1.77 
C -1.30 2.24 -0.66 2.5 0 2.5 
z
" style="stroke: #111827"/>
 </defs>
 <g>
 <use xlink:href="#m5a91f2bde0" x="93.01" y="107.88" style="fill: #111827; stroke: #111827"/>
 </g>
 </g>
 <g>
 <g>
 <use xlink:href="#m5a91f2bde0" x="181.78" y="65.84" style="fill: #111827; stroke: #111827"/>
 </g>
 </g>
 </g>
 </g>
 <defs>
 </defs>
</svg>