<?xml version="1.0" encoding="utf-8" standalone="no"?>
<!DOCTYPE svg PUBLIC "-//W3C//DTD SVG 1.1//EN"
 "http://www.w3.org/Graphics/SVG/1.1/DTD/svg11.dtd">
<svg xmlns:xlink="http://www.w3.org/1999/xlink" width="231.93pt" height="177.55pt" viewBox="0 0 231.93 177.55" xmlns="http://www.w3.org/2000/svg" version="1.1">
 <g>
 <g>
 <path d="M 0 177.55 
L 231.93 177.55 
L 231.93 0 
L 0 0 
L 0 177.55 
z
" style="fill: none"/>
 </g>
 <g>
 <g>
 <path d="M 29.43 145.8 
L 224.73 145.8 
L 224.73 7.2 
L 29.43 7.2 
L 29.43 145.8 
z
" style="fill: none"/>
 </g>
 <g>
 <g>
 <g>
 <path d="M 63.67 145.8 
L 63.67 7.2 
" style="fill: none; stroke: #e5e7eb; stroke-opacity: 0.6; stroke-width: 0.5; stroke-linecap: square"/>
 </g>
 <g>
 <defs>
 <path d="M 0 0 
L 0 3.5 
" style="stroke: #9ca3af; stroke-width: 0.8"/>
 </defs>
 <g>
 <use xlink:href="#mf81549810f" x="63.67" y="145.8" style="fill: #9ca3af; stroke: #9ca3af; stroke-width: 0.8"/>
 </g>
 </g>
 <g>
 <text style="fill: #9ca3af; font: 7px 'DejaVu Sans', 'Bitstream Vera Sans', 'Computer Modern Sans Serif', 'Lucida Grande', 'Verdana', 'Geneva', 'Lucid', 'Arial', 'Helvetica', 'Avant Garde', sans-serif; text-anchor: middle" x="63.67" y="158.12" transform="rotate(-0 63.67 158.12)">0</text>
 </g>
 </g>
 <g>
 <g>
 <path d="M 114.40 145.8 
L 114.40 7.2 
" style="fill: none; stroke: #e5e7eb; stroke-opacity: 0.6; stroke-width: 0.5; stroke-linecap: square"/>
 </g>
 <g>
 <g>
 <use xlink:href="#mf81549810f" x="114.40" y="145.8" style="fill: #9ca3af; stroke: #9ca3af; stroke-width: 0.8"/>
 </g>
 </g>
 <g>
 <text style="fill: #9ca3af; font: 7px 'DejaVu Sans', 'Bitstream Vera Sans', 'Computer Modern Sans Serif', 'Lucida Grande', 'Verdana', 'Geneva', 'Lucid', 'Arial', 'Helvetica', 'Avant Garde', sans-serif; text-anchor: middle" x="114.40" y="158.12" transform="rotate(-0 114.40 158.12)">2</text>
 </g>
 </g>
 <g>
 <g>
 <path d="M 165.12 145.8 
L 165.12 7.2 
" style="fill: none; stroke: #e5e7eb; stroke-opacity: 0.6; stroke-width: 0.5; stroke-linecap: square"/>
 </g>
 <g>
 <g>
 <use xlink:href="#mf81549810f" x="165.12" y="145.8" style="fill: #9ca3af; stroke: #9ca3af; stroke-width: 0.8"/>
 </g>
 </g>
 <g>
 <text style="fill: #9ca3af; font: 7px 'DejaVu Sans', 'Bitstream Vera Sans', 'Computer Modern Sans Serif', 'Lucida Grande', 'Verdana', 'Geneva', 'Lucid', 'Arial', 'Helvetica', 'Avant Garde', sans-serif; text-anchor: middle" x="165.12" y="158.12" transform="rotate(-0 165.12 158.12)">4</text>
 </g>
 </g>
 <g>
 <g>
 <path d="M 215.85 145.8 
L 215.85 7.2 
" style="fill: none; stroke: #e5e7eb; stroke-opacity: 0.6; stroke-width: 0.5; stroke-linecap: square"/>
 </g>
 <g>
 <g>
 <use xlink:href="#mf81549810f" x="215.85" y="145.8" style="fill: #9ca3af; stroke: #9ca3af; stroke-width: 0.8"/>
 </g>
 </g>
 <g>
 <text style="fill: #9ca3af; font: 7px 'DejaVu Sans', 'Bitstream Vera Sans', 'Computer Modern Sans Serif', 'Lucida Grande', 'Verdana', 'Geneva', 'Lucid', 'Arial', 'Helvetica', 'Avant Garde', sans-serif; text-anchor: middle" x="215.85" y="158.12" transform="rotate(-0 215.85 158.12)">6</text>
 </g>
 </g>
 <g>
 <text style="fill: #9ca3af; font: 7px 'DejaVu Sans', 'Bitstream Vera Sans', 'Computer Modern Sans Serif', 'Lucida Grande', 'Verdana', 'Geneva', 'Lucid', 'Arial', 'Helvetica', 'Avant Garde', sans-serif; text-anchor: middle" x="127.08" y="168.89" transform="rotate(-0 127.08 168.89)">x</text>
 </g>
 </g>
 <g>
 <g>
 <g>
 <path d="M 29.43 120.83 
L 224.73 120.83 
" style="fill: none; stroke: #e5e7eb; stroke-opacity: 0.6; stroke-width: 0.5; stroke-linecap: square"/>
 </g>
 <g>
 <defs>
 <path d="M 0 0 
L -3.5 0 
" style="stroke: #9ca3af; stroke-width: 0.8"/>
 </defs>
 <g>
 <use xlink:href="#mfacc466b5f" x="29.43" y="120.83" style="fill: #9ca3af; stroke: #9ca3af; stroke-width: 0.8"/>
 </g>
 </g>
 <g>
 <text style="fill: #9ca3af; font: 7px 'DejaVu Sans', 'Bitstream Vera Sans', 'Computer Modern Sans Serif', 'Lucida Grande', 'Verdana', 'Geneva', 'Lucid', 'Arial', 'Helvetica', 'Avant Garde', sans-serif; text-anchor: end" x="22.43" y="123.49" transform="rotate(-0 22.43 123.49)">3</text>
 </g>
 </g>
 <g>
 <g>
 <path d="M 29.43 76.66 
L 224.73 76.66 
" style="fill: none; stroke: #e5e7eb; stroke-opacity: 0.6; stroke-width: 0.5; stroke-linecap: square"/>
 </g>
 <g>
 <g>
 <use xlink:href="#mfacc466b5f" x="29.43" y="76.66" style="fill: #9ca3af; stroke: #9ca3af; stroke-width: 0.8"/>
 </g>
 </g>
 <g>
 <text style="fill: #9ca3af; font: 7px 'DejaVu Sans', 'Bitstream Vera Sans', 'Computer Modern Sans Serif', 'Lucida Grande', 'Verdana', 'Geneva', 'Lucid', 'Arial', 'Helvetica', 'Avant Garde', sans-serif; text-anchor: end" x="22.43" y="79.32" transform="rotate(-0 22.43 79.32)">4</text>
 </g>
 </g>
 <g>
 <g>
 <path d="M 29.43 32.49 
L 224.73 32.49 
" style="fill: none; stroke: #e5e7eb; stroke-opacity: 0.6; stroke-width: 0.5; stroke-linecap: square"/>
 </g>
 <g>
 <g>
 <use xlink:href="#mfacc466b5f" x="29.43" y="32.49" style="fill: #9ca3af; stroke: #9ca3af; stroke-width: 0.8"/>
 </g>
 </g>
 <g>
 <text style="fill: #9ca3af; font: 7px 'DejaVu Sans', 'Bitstream Vera Sans', 'Computer Modern Sans Serif', 'Lucida Grande', 'Verdana', 'Geneva', 'Lucid', 'Arial', 'Helvetica', 'Avant Garde', sans-serif; text-anchor: end" x="22.43" y="35.15" transform="rotate(-0 22.43 35.15)">5</text>
 </g>
 </g>
 <g>
 <text style="fill: #9ca3af; font: 7px 'DejaVu Sans', 'Bitstream Vera Sans', 'Computer Modern Sans Serif', 'Lucida Grande', 'Verdana', 'Geneva', 'Lucid', 'Arial', 'Helvetica', 'Avant Garde', sans-serif; text-anchor: middle" x="12.52" y="76.5" transform="rotate(-90 12.52 76.5)">y</text>
 </g>
 </g>
 <g>
 <path d="M 38.31 113.83 
L 40.55 111.57 
L 42.80 109.04 
L 45.05 106.25 
L 47.30 103.24 
L 49.54 100.01 
L 51.79 96.60 
L 54.04 93.03 
L 56.28 89.34 
L 58.53 85.55 
L 60.78 81.68 
L 63.03 77.78 
L 65.27 73.87 
L 67.52 69.98 
L 69.77 66.14 
L 72.02 62.38 
L 74.26 58.74 
L 76.51 55.24 
L 78.76 51.90 
L 81.01 48.76 
L 83.25 45.84 
L 85.50 43.16 
L 87.75 40.75 
L 90.00 38.61 
L 92.24 36.77 
L 94.49 35.25 
L 96.74 34.05 
L 98.99 33.19 
L 101.23 32.67 
L 103.48 32.49 
L 105.73 32.66 
L 107.98 33.17 
L 110.22 34.03 
L 112.47 35.21 
L 114.72 36.73 
L 116.97 38.56 
L 119.21 40.69 
L 121.46 43.09 
L 123.71 45.77 
L 125.95 48.68 
L 128.20 51.82 
L 130.45 55.15 
L 132.70 58.65 
L 134.94 62.28 
L 137.19 66.04 
L 139.44 69.87 
L 141.69 73.76 
L 143.93 77.67 
L 146.18 81.58 
L 148.43 85.44 
L 150.68 89.24 
L 152.92 92.94 
L 155.17 96.51 
L 157.42 99.92 
L 159.67 103.15 
L 161.91 106.18 
L 164.16 108.97 
L 166.41 111.51 
L 168.66 113.77 
L 170.90 115.75 
L 173.15 117.42 
L 175.40 118.76 
L 177.65 119.78 
L 179.89 120.46 
L 182.14 120.79 
L 184.39 120.78 
L 186.63 120.43 
L 188.88 119.73 
L 191.13 118.69 
L 193.38 117.32 
L 195.62 115.63 
L 197.87 113.64 
L 200.12 111.36 
L 202.37 108.80 
L 204.61 105.99 
L 206.86 102.96 
L 209.11 99.71 
L 211.36 96.29 
L 213.60 92.71 
L 215.85 89.00 
" style="fill: none; stroke: #2563eb; stroke-width: 1.5; stroke-linecap: square"/>
 </g>
 <g>
 <path d="M 86.37 -1 
L 215.85 172.22 
" style="fill: none; stroke-dasharray: 4.44,1.92; stroke-dashoffset: 0; stroke: #f59e0b; stroke-width: 1.2"/>
 </g>
 <g>
 <path d="M 29.43 145.8 
L 29.43 7.2 
" style="fill: none; stroke: #9ca3af; stroke-width: 0.6; stroke-linejoin: miter; stroke-linecap: square"/>
 </g>
 <g>
 <path d="M 224.73 145.8 
L 224.73 7.2 
" style="fill: none; stroke: #9ca3af; stroke-width: 0.6; stroke-linejoin: miter; stroke-linecap: square"/>
 </g>
 <g>
 <path d="M 29.43 145.8 
L 224.73 145.8 
" style="fill: none; stroke: #9ca3af; stroke-width: 0.6; stroke-linejoin: miter; stroke-linecap: square"/>
 </g>
 <g>
 <path d="M 29.43 7.2 
L 224.73 7.2 
" style="fill: none; stroke: #9ca3af; stroke-width: 0.6; stroke-linejoin: miter; stroke-linecap: square"/>
 </g>
 <g>
 <text style="fill: #111827; font: 6px 'DejaVu Sans', 'Bitstream Vera Sans', 'Computer Modern Sans Serif', 'Lucida Grande', 'Verdana', 'Geneva', 'Lucid', 'Arial', 'Helvetica', 'Avant Garde', sans-serif; text-anchor: start" x="119.40" y="28.49" transform="rotate(-0 119.40 28.49)">(2, 4.91)</text>
 </g>
 <g>
 <text style="fill: #111827; font: 6px 'DejaVu Sans', 'Bitstream Vera Sans', 'Computer Modern Sans Serif', 'Lucida Grande', 'Verdana', 'Geneva', 'Lucid', 'Arial', 'Helvetica', 'Avant Garde', sans-serif; text-anchor: start" x="144.76" y="82.43" transform="rotate(-0 144.76 82.43)">(3, 4.14)</text>
 </g>
 <g>
 <defs>
 <path d="M 0 2.5 
C 0.66 2.5 1.30 2.24 1.77 1.77 
C 2.24 1.30 2.5 0.66 2.5 0 
C 2.5 -0.66 2.24 -1.30 1.77 -1.77 
C 1.30 -2.24 0.66 -2.5 0 -2.5 
C -0.66 -2.5 -1.30 -2.24 -1.77 -1.77 
C -2.24 -1.30 -2.5 -0.66 -2.5 0 
C -2.5 0.66 -2.24 1.30 -1.77 1.77 
C -1.30 2.24 -0.66 2.5 0 2.5 
z
" style="stroke: #111827"/>
 </defs>
 <g>
 <use xlink:href="#me2fb290498" x="114.40" y="36.49" style="fill: #111827; stroke: #111827"/>
 </g>
 </g>
 <g>
 <g>
 <use xlink:href="#me2fb290498" x="139.76" y="70.43" style="fill: #111827; stroke: #111827"/>
 </g>
 </g>
 </g>
 </g>
 <defs>
 </defs>
</svg>