<?xml version="1.0" encoding="utf-8" standalone="no"?>
<!DOCTYPE svg PUBLIC "-//W3C//DTD SVG 1.1//EN"
 "http://www.w3.org/Graphics/SVG/1.1/DTD/svg11.dtd">
<svg xmlns:xlink="http://www.w3.org/1999/xlink" width="238.61pt" height="177.55pt" viewBox="0 0 238.61 177.55" xmlns="http://www.w3.org/2000/svg" version="1.1">
 <g>
 <g>
 <path d="M 0 177.55 
L 238.61 177.55 
L 238.61 0 
L 0 0 
L 0 177.55 
z
" style="fill: none"/>
 </g>
 <g>
 <g>
 <path d="M 36.11 145.8 
L 231.41 145.8 
L 231.41 7.2 
L 36.11 7.2 
L 36.11 145.8 
z
" style="fill: none"/>
 </g>
 <g>
 <g>
 <g>
 <path d="M 44.98 145.8 
L 44.98 7.2 
" style="fill: none; stroke: #e5e7eb; stroke-opacity: 0.6; stroke-width: 0.5; stroke-linecap: square"/>
 </g>
 <g>
 <defs>
 <path d="M 0 0 
L 0 3.5 
" style="stroke: #9ca3af; stroke-width: 0.8"/>
 </defs>
 <g>
 <use xlink:href="#m290615bfef" x="44.98" y="145.8" style="fill: #9ca3af; stroke: #9ca3af; stroke-width: 0.8"/>
 </g>
 </g>
 <g>
 <text style="fill: #9ca3af; font: 7px 'DejaVu Sans', 'Bitstream Vera Sans', 'Computer Modern Sans Serif', 'Lucida Grande', 'Verdana', 'Geneva', 'Lucid', 'Arial', 'Helvetica', 'Avant Garde', sans-serif; text-anchor: middle" x="44.98" y="158.12" transform="rotate(-0 44.98 158.12)">−4</text>
 </g>
 </g>
 <g>
 <g>
 <path d="M 95.71 145.8 
L 95.71 7.2 
" style="fill: none; stroke: #e5e7eb; stroke-opacity: 0.6; stroke-width: 0.5; stroke-linecap: square"/>
 </g>
 <g>
 <g>
 <use xlink:href="#m290615bfef" x="95.71" y="145.8" style="fill: #9ca3af; stroke: #9ca3af; stroke-width: 0.8"/>
 </g>
 </g>
 <g>
 <text style="fill: #9ca3af; font: 7px 'DejaVu Sans', 'Bitstream Vera Sans', 'Computer Modern Sans Serif', 'Lucida Grande', 'Verdana', 'Geneva', 'Lucid', 'Arial', 'Helvetica', 'Avant Garde', sans-serif; text-anchor: middle" x="95.71" y="158.12" transform="rotate(-0 95.71 158.12)">−2</text>
 </g>
 </g>
 <g>
 <g>
 <path d="M 146.44 145.8 
L 146.44 7.2 
" style="fill: none; stroke: #e5e7eb; stroke-opacity: 0.6; stroke-width: 0.5; stroke-linecap: square"/>
 </g>
 <g>
 <g>
 <use xlink:href="#m290615bfef" x="146.44" y="145.8" style="fill: #9ca3af; stroke: #9ca3af; stroke-width: 0.8"/>
 </g>
 </g>
 <g>
 <text style="fill: #9ca3af; font: 7px 'DejaVu Sans', 'Bitstream Vera Sans', 'Computer Modern Sans Serif', 'Lucida Grande', 'Verdana', 'Geneva', 'Lucid', 'Arial', 'Helvetica', 'Avant Garde', sans-serif; text-anchor: middle" x="146.44" y="158.12" transform="rotate(-0 146.44 158.12)">0</text>
 </g>
 </g>
 <g>
 <g>
 <path d="M 197.17 145.8 
L 197.17 7.2 
" style="fill: none; stroke: #e5e7eb; stroke-opacity: 0.6; stroke-width: 0.5; stroke-linecap: square"/>
 </g>
 <g>
 <g>
 <use xlink:href="#m290615bfef" x="197.17" y="145.8" style="fill: #9ca3af; stroke: #9ca3af; stroke-width: 0.8"/>
 </g>
 </g>
 <g>
 <text style="fill: #9ca3af; font: 7px 'DejaVu Sans', 'Bitstream Vera Sans', 'Computer Modern Sans Serif', 'Lucida Grande', 'Verdana', 'Geneva', 'Lucid', 'Arial', 'Helvetica', 'Avant Garde', sans-serif; text-anchor: middle" x="197.17" y="158.12" transform="rotate(-0 197.17 158.12)">2</text>
 </g>
 </g>
 <g>
 <text style="fill: #9ca3af; font: 7px 'DejaVu Sans', 'Bitstream Vera Sans', 'Computer Modern Sans Serif', 'Lucida Grande', 'Verdana', 'Geneva', 'Lucid', 'Arial', 'Helvetica', 'Avant Garde', sans-serif; text-anchor: middle" x="133.76" y="168.89" transform="rotate(-0 133.76 168.89)">x</text>
 </g>
 </g>
 <g>
 <g>
 <g>
 <path d="M 36.11 131.90 
L 231.41 131.90 
" style="fill: none; stroke: #e5e7eb; stroke-opacity: 0.6; stroke-width: 0.5; stroke-linecap: square"/>
 </g>
 <g>
 <defs>
 <path d="M 0 0 
L -3.5 0 
" style="stroke: #9ca3af; stroke-width: 0.8"/>
 </defs>
 <g>
 <use xlink:href="#md1ea94e949" x="36.11" y="131.90" style="fill: #9ca3af; stroke: #9ca3af; stroke-width: 0.8"/>
 </g>
 </g>
 <g>
 <text style="fill: #9ca3af; font: 7px 'DejaVu Sans', 'Bitstream Vera Sans', 'Computer Modern Sans Serif', 'Lucida Grande', 'Verdana', 'Geneva', 'Lucid', 'Arial', 'Helvetica', 'Avant Garde', sans-serif; text-anchor: end" x="29.11" y="134.56" transform="rotate(-0 29.11 134.56)">0.0</text>
 </g>
 </g>
 <g>
 <g>
 <path d="M 36.11 97.89 
L 231.41 97.89 
" style="fill: none; stroke: #e5e7eb; stroke-opacity: 0.6; stroke-width: 0.5; stroke-linecap: square"/>
 </g>
 <g>
 <g>
 <use xlink:href="#md1ea94e949" x="36.11" y="97.89" style="fill: #9ca3af; stroke: #9ca3af; stroke-width: 0.8"/>
 </g>
 </g>
 <g>
 <text style="fill: #9ca3af; font: 7px 'DejaVu Sans', 'Bitstream Vera Sans', 'Computer Modern Sans Serif', 'Lucida Grande', 'Verdana', 'Geneva', 'Lucid', 'Arial', 'Helvetica', 'Avant Garde', sans-serif; text-anchor: end" x="29.11" y="100.55" transform="rotate(-0 29.11 100.55)">2.5</text>
 </g>
 </g>
 <g>
 <g>
 <path d="M 36.11 63.89 
L 231.41 63.89 
" style="fill: none; stroke: #e5e7eb; stroke-opacity: 0.6; stroke-width: 0.5; stroke-linecap: square"/>
 </g>
 <g>
 <g>
 <use xlink:href="#md1ea94e949" x="36.11" y="63.89" style="fill: #9ca3af; stroke: #9ca3af; stroke-width: 0.8"/>
 </g>
 </g>
 <g>
 <text style="fill: #9ca3af; font: 7px 'DejaVu Sans', 'Bitstream Vera Sans', 'Computer Modern Sans Serif', 'Lucida Grande', 'Verdana', 'Geneva', 'Lucid', 'Arial', 'Helvetica', 'Avant Garde', sans-serif; text-anchor: end" x="29.11" y="66.55" transform="rotate(-0 29.11 66.55)">5.0</text>
 </g>
 </g>
 <g>
 <g>
 <path d="M 36.11 29.88 
L 231.41 29.88 
" style="fill: none; stroke: #e5e7eb; stroke-opacity: 0.6; stroke-width: 0.5; stroke-linecap: square"/>
 </g>
 <g>
 <g>
 <use xlink:href="#md1ea94e949" x="36.11" y="29.88" style="fill: #9ca3af; stroke: #9ca3af; stroke-width: 0.8"/>
 </g>
 </g>
 <g>
 <text style="fill: #9ca3af; font: 7px 'DejaVu Sans', 'Bitstream Vera Sans', 'Computer Modern Sans Serif', 'Lucida Grande', 'Verdana', 'Geneva', 'Lucid', 'Arial', 'Helvetica', 'Avant Garde', sans-serif; text-anchor: end" x="29.11" y="32.54" transform="rotate(-0 29.11 32.54)">7.5</text>
 </g>
 </g>
 <g>
 <text style="fill: #9ca3af; font: 7px 'DejaVu Sans', 'Bitstream Vera Sans', 'Computer Modern Sans Serif', 'Lucida Grande', 'Verdana', 'Geneva', 'Lucid', 'Arial', 'Helvetica', 'Avant Garde', sans-serif; text-anchor: middle" x="12.52" y="76.5" transform="rotate(-90 12.52 76.5)">y</text>
 </g>
 </g>
 <g>
 <path d="M 44.98 121.14 
L 47.23 120.82 
L 49.48 120.49 
L 51.73 120.15 
L 53.97 119.79 
L 56.22 119.43 
L 58.47 119.06 
L 60.72 118.67 
L 62.96 118.28 
L 65.21 117.87 
L 67.46 117.45 
L 69.71 117.01 
L 71.95 116.57 
L 74.20 116.11 
L 76.45 115.64 
L 78.70 115.15 
L 80.94 114.65 
L 83.19 114.13 
L 85.44 113.60 
L 87.68 113.05 
L 89.93 112.48 
L 92.18 111.90 
L 94.43 111.30 
L 96.67 110.68 
L 98.92 110.05 
L 101.17 109.39 
L 103.42 108.72 
L 105.66 108.02 
L 107.91 107.31 
L 110.16 106.57 
L 112.41 105.81 
L 114.65 105.03 
L 116.90 104.22 
L 119.15 103.39 
L 121.40 102.54 
L 123.64 101.66 
L 125.89 100.75 
L 128.14 99.82 
L 130.39 98.85 
L 132.63 97.86 
L 134.88 96.84 
L 137.13 95.79 
L 139.38 94.71 
L 141.62 93.60 
L 143.87 92.45 
L 146.12 91.26 
L 148.37 90.05 
L 150.61 88.79 
L 152.86 87.50 
L 155.11 86.17 
L 157.35 84.80 
L 159.60 83.39 
L 161.85 81.93 
L 164.10 80.43 
L 166.34 78.89 
L 168.59 77.30 
L 170.84 75.67 
L 173.09 73.98 
L 175.33 72.24 
L 177.58 70.46 
L 179.83 68.61 
L 182.08 66.72 
L 184.32 64.76 
L 186.57 62.75 
L 188.82 60.68 
L 191.07 58.54 
L 193.31 56.34 
L 195.56 54.08 
L 197.81 51.75 
L 200.06 49.34 
L 202.30 46.87 
L 204.55 44.32 
L 206.80 41.69 
L 209.05 38.99 
L 211.29 36.20 
L 213.54 33.34 
L 215.79 30.38 
L 218.03 27.34 
L 220.28 24.20 
L 222.53 20.97 
" style="fill: none; stroke: #2563eb; stroke-width: 1.5; stroke-linecap: square"/>
 </g>
 <g>
 <path d="M 44.98 137.36 
L 222.53 56.39 
" style="fill: none; stroke-dasharray: 4.44,1.92; stroke-dashoffset: 0; stroke: #f59e0b; stroke-width: 1.2"/>
 </g>
 <g>
 <path d="M 36.11 145.8 
L 36.11 7.2 
" style="fill: none; stroke: #9ca3af; stroke-width: 0.6; stroke-linejoin: miter; stroke-linecap: square"/>
 </g>
 <g>
 <path d="M 231.41 145.8 
L 231.41 7.2 
" style="fill: none; stroke: #9ca3af; stroke-width: 0.6; stroke-linejoin: miter; stroke-linecap: square"/>
 </g>
 <g>
 <path d="M 36.11 145.8 
L 231.41 145.8 
" style="fill: none; stroke: #9ca3af; stroke-width: 0.6; stroke-linejoin: miter; stroke-linecap: square"/>
 </g>
 <g>
 <path d="M 36.11 7.2 
L 231.41 7.2 
" style="fill: none; stroke: #9ca3af; stroke-width: 0.6; stroke-linejoin: miter; stroke-linecap: square"/>
 </g>
 <g>
 <text style="fill: #111827; font: 6px 'DejaVu Sans', 'Bitstream Vera Sans', 'Computer Modern Sans Serif', 'Lucida Grande', 'Verdana', 'Geneva', 'Lucid', 'Arial', 'Helvetica', 'Avant Garde', sans-serif; text-anchor: start" x="126.08" y="94.66" transform="rotate(-0 126.08 94.66)">(-1, 2.15)</text>
 </g>
 <g>
 <text style="fill: #111827; font: 6px 'DejaVu Sans', 'Bitstream Vera Sans', 'Computer Modern Sans Serif', 'Lucida Grande', 'Verdana', 'Geneva', 'Lucid', 'Arial', 'Helvetica', 'Avant Garde', sans-serif; text-anchor: start" x="151.44" y="103.09" transform="rotate(-0 151.44 103.09)">(0, 3)</text>
 </g>
 <g>
 <defs>
 <path d="M 0 2.5 
C 0.66 2.5 1.30 2.24 1.77 1.77 
C 2.24 1.30 2.5 0.66 2.5 0 
C 2.5 -0.66 2.24 -1.30 1.77 -1.77 
C 1.30 -2.24 0.66 -2.5 0 -2.5 
C -0.66 -2.5 -1.30 -2.24 -1.77 -1.77 
C -2.24 -1.30 -2.5 -0.66 -2.5 0 
C -2.5 0.66 -2.24 1.30 -1.77 1.77 
C -1.30 2.24 -0.66 2.5 0 2.5 
z
" style="stroke: #111827"/>
 </defs>
 <g>
 <use xlink:href="#madbf241797" x="121.08" y="102.66" style="fill: #111827; stroke: #111827"/>
 </g>
 </g>
 <g>
 <g>
 <use xlink:href="#madbf241797" x="146.44" y="91.09" style="fill: #111827; stroke: #111827"/>
 </g>
 </g>
 </g>
 </g>
 <defs>
 </defs>
</svg>