<?xml version="1.0" encoding="utf-8" standalone="no"?>
<!DOCTYPE svg PUBLIC "-//W3C//DTD SVG 1.1//EN"
 "http://www.w3.org/Graphics/SVG/1.1/DTD/svg11.dtd">
<svg xmlns:xlink="http://www.w3.org/1999/xlink" width="237.79pt" height="179.70pt" viewBox="0 0 237.79 179.70" xmlns="http://www.w3.org/2000/svg" version="1.1">
 <g>
 <g>
 <path d="M 0 179.70 
L 237.79 179.70 
L 237.79 0 
L 0 0 
L 0 179.70 
z
" style="fill: none"/>
 </g>
 <g>
 <g>
 <path d="M 35.29 147.95 
L 230.59 147.95 
L 230.59 9.35 
L 35.29 9.35 
L 35.29 147.95 
z
" style="fill: none"/>
 </g>
 <g>
 <g>
 <g>
 <path d="M 44.17 147.95 
L 44.17 9.35 
" style="fill: none; stroke: #e5e7eb; stroke-opacity: 0.6; stroke-width: 0.5; stroke-linecap: square"/>
 </g>
 <g>
 <defs>
 <path d="M 0 0 
L 0 3.5 
" style="stroke: #9ca3af; stroke-width: 0.8"/>
 </defs>
 <g>
 <use xlink:href="#me14c535558" x="44.17" y="147.95" style="fill: #9ca3af; stroke: #9ca3af; stroke-width: 0.8"/>
 </g>
 </g>
 <g>
 <text style="fill: #9ca3af; font: 7px 'DejaVu Sans', 'Bitstream Vera Sans', 'Computer Modern Sans Serif', 'Lucida Grande', 'Verdana', 'Geneva', 'Lucid', 'Arial', 'Helvetica', 'Avant Garde', sans-serif; text-anchor: middle" x="44.17" y="160.27" transform="rotate(-0 44.17 160.27)">−4</text>
 </g>
 </g>
 <g>
 <g>
 <path d="M 94.90 147.95 
L 94.90 9.35 
" style="fill: none; stroke: #e5e7eb; stroke-opacity: 0.6; stroke-width: 0.5; stroke-linecap: square"/>
 </g>
 <g>
 <g>
 <use xlink:href="#me14c535558" x="94.90" y="147.95" style="fill: #9ca3af; stroke: #9ca3af; stroke-width: 0.8"/>
 </g>
 </g>
 <g>
 <text style="fill: #9ca3af; font: 7px 'DejaVu Sans', 'Bitstream Vera Sans', 'Computer Modern Sans Serif', 'Lucida Grande', 'Verdana', 'Geneva', 'Lucid', 'Arial', 'Helvetica', 'Avant Garde', sans-serif; text-anchor: middle" x="94.90" y="160.27" transform="rotate(-0 94.90 160.27)">−2</text>
 </g>
 </g>
 <g>
 <g>
 <path d="M 145.63 147.95 
L 145.63 9.35 
" style="fill: none; stroke: #e5e7eb; stroke-opacity: 0.6; stroke-width: 0.5; stroke-linecap: square"/>
 </g>
 <g>
 <g>
 <use xlink:href="#me14c535558" x="145.63" y="147.95" style="fill: #9ca3af; stroke: #9ca3af; stroke-width: 0.8"/>
 </g>
 </g>
 <g>
 <text style="fill: #9ca3af; font: 7px 'DejaVu Sans', 'Bitstream Vera Sans', 'Computer Modern Sans Serif', 'Lucida Grande', 'Verdana', 'Geneva', 'Lucid', 'Arial', 'Helvetica', 'Avant Garde', sans-serif; text-anchor: middle" x="145.63" y="160.27" transform="rotate(-0 145.63 160.27)">0</text>
 </g>
 </g>
 <g>
 <g>
 <path d="M 196.35 147.95 
L 196.35 9.35 
" style="fill: none; stroke: #e5e7eb; stroke-opacity: 0.6; stroke-width: 0.5; stroke-linecap: square"/>
 </g>
 <g>
 <g>
 <use xlink:href="#me14c535558" x="196.35" y="147.95" style="fill: #9ca3af; stroke: #9ca3af; stroke-width: 0.8"/>
 </g>
 </g>
 <g>
 <text style="fill: #9ca3af; font: 7px 'DejaVu Sans', 'Bitstream Vera Sans', 'Computer Modern Sans Serif', 'Lucida Grande', 'Verdana', 'Geneva', 'Lucid', 'Arial', 'Helvetica', 'Avant Garde', sans-serif; text-anchor: middle" x="196.35" y="160.27" transform="rotate(-0 196.35 160.27)">2</text>
 </g>
 </g>
 <g>
 <text style="fill: #9ca3af; font: 7px 'DejaVu Sans', 'Bitstream Vera Sans', 'Computer Modern Sans Serif', 'Lucida Grande', 'Verdana', 'Geneva', 'Lucid', 'Arial', 'Helvetica', 'Avant Garde', sans-serif; text-anchor: middle" x="132.94" y="171.04" transform="rotate(-0 132.94 171.04)">x</text>
 </g>
 </g>
 <g>
 <g>
 <g>
 <path d="M 35.29 146.04 
L 230.59 146.04 
" style="fill: none; stroke: #e5e7eb; stroke-opacity: 0.6; stroke-width: 0.5; stroke-linecap: square"/>
 </g>
 <g>
 <defs>
 <path d="M 0 0 
L -3.5 0 
" style="stroke: #9ca3af; stroke-width: 0.8"/>
 </defs>
 <g>
 <use xlink:href="#m2aa2cf0b40" x="35.29" y="146.04" style="fill: #9ca3af; stroke: #9ca3af; stroke-width: 0.8"/>
 </g>
 </g>
 <g>
 <text style="fill: #9ca3af; font: 7px 'DejaVu Sans', 'Bitstream Vera Sans', 'Computer Modern Sans Serif', 'Lucida Grande', 'Verdana', 'Geneva', 'Lucid', 'Arial', 'Helvetica', 'Avant Garde', sans-serif; text-anchor: end" x="28.29" y="148.70" transform="rotate(-0 28.29 148.70)">−4</text>
 </g>
 </g>
 <g>
 <g>
 <path d="M 35.29 111.99 
L 230.59 111.99 
" style="fill: none; stroke: #e5e7eb; stroke-opacity: 0.6; stroke-width: 0.5; stroke-linecap: square"/>
 </g>
 <g>
 <g>
 <use xlink:href="#m2aa2cf0b40" x="35.29" y="111.99" style="fill: #9ca3af; stroke: #9ca3af; stroke-width: 0.8"/>
 </g>
 </g>
 <g>
 <text style="fill: #9ca3af; font: 7px 'DejaVu Sans', 'Bitstream Vera Sans', 'Computer Modern Sans Serif', 'Lucida Grande', 'Verdana', 'Geneva', 'Lucid', 'Arial', 'Helvetica', 'Avant Garde', sans-serif; text-anchor: end" x="28.29" y="114.65" transform="rotate(-0 28.29 114.65)">−2</text>
 </g>
 </g>
 <g>
 <g>
 <path d="M 35.29 77.95 
L 230.59 77.95 
" style="fill: none; stroke: #e5e7eb; stroke-opacity: 0.6; stroke-width: 0.5; stroke-linecap: square"/>
 </g>
 <g>
 <g>
 <use xlink:href="#m2aa2cf0b40" x="35.29" y="77.95" style="fill: #9ca3af; stroke: #9ca3af; stroke-width: 0.8"/>
 </g>
 </g>
 <g>
 <text style="fill: #9ca3af; font: 7px 'DejaVu Sans', 'Bitstream Vera Sans', 'Computer Modern Sans Serif', 'Lucida Grande', 'Verdana', 'Geneva', 'Lucid', 'Arial', 'Helvetica', 'Avant Garde', sans-serif; text-anchor: end" x="28.29" y="80.61" transform="rotate(-0 28.29 80.61)">0</text>
 </g>
 </g>
 <g>
 <g>
 <path d="M 35.29 43.90 
L 230.59 43.90 
" style="fill: none; stroke: #e5e7eb; stroke-opacity: 0.6; stroke-width: 0.5; stroke-linecap: square"/>
 </g>
 <g>
 <g>
 <use xlink:href="#m2aa2cf0b40" x="35.29" y="43.90" style="fill: #9ca3af; stroke: #9ca3af; stroke-width: 0.8"/>
 </g>
 </g>
 <g>
 <text style="fill: #9ca3af; font: 7px 'DejaVu Sans', 'Bitstream Vera Sans', 'Computer Modern Sans Serif', 'Lucida Grande', 'Verdana', 'Geneva', 'Lucid', 'Arial', 'Helvetica', 'Avant Garde', sans-serif; text-anchor: end" x="28.29" y="46.56" transform="rotate(-0 28.29 46.56)">2</text>
 </g>
 </g>
 <g>
 <g>
 <path d="M 35.29 9.86 
L 230.59 9.86 
" style="fill: none; stroke: #e5e7eb; stroke-opacity: 0.6; stroke-width: 0.5; stroke-linecap: square"/>
 </g>
 <g>
 <g>
 <use xlink:href="#m2aa2cf0b40" x="35.29" y="9.86" style="fill: #9ca3af; stroke: #9ca3af; stroke-width: 0.8"/>
 </g>
 </g>
 <g>
 <text style="fill: #9ca3af; font: 7px 'DejaVu Sans', 'Bitstream Vera Sans', 'Computer Modern Sans Serif', 'Lucida Grande', 'Verdana', 'Geneva', 'Lucid', 'Arial', 'Helvetica', 'Avant Garde', sans-serif; text-anchor: end" x="28.29" y="12.52" transform="rotate(-0 28.29 12.52)">4</text>
 </g>
 </g>
 <g>
 <text style="fill: #9ca3af; font: 7px 'DejaVu Sans', 'Bitstream Vera Sans', 'Computer Modern Sans Serif', 'Lucida Grande', 'Verdana', 'Geneva', 'Lucid', 'Arial', 'Helvetica', 'Avant Garde', sans-serif; text-anchor: middle" x="12.52" y="78.65" transform="rotate(-90 12.52 78.65)">y</text>
 </g>
 </g>
 <g>
 <path d="M 44.17 69.44 
L 46.42 69.04 
L 48.67 68.61 
L 50.91 68.13 
L 53.16 67.60 
L 55.41 67.02 
L 57.66 66.36 
L 59.90 65.61 
L 62.15 64.77 
L 64.40 63.79 
L 66.65 62.67 
L 68.89 61.35 
L 71.14 59.78 
L 73.39 57.88 
L 75.64 55.54 
L 77.88 52.58 
L 80.13 48.72 
L 82.38 43.47 
L 84.62 35.93 
L 86.87 24.16 
L 89.12 3.24 
L 89.32 -1 
M 94.35 -1 
L 94.87 180.70 
M 99.40 180.70 
L 100.36 157.05 
L 102.60 133.98 
L 104.85 121.33 
L 107.10 113.34 
L 109.35 107.83 
L 111.59 103.81 
L 113.84 100.74 
L 116.09 98.32 
L 118.34 96.37 
L 120.58 94.76 
L 122.83 93.41 
L 125.08 92.26 
L 127.33 91.26 
L 129.57 90.40 
L 131.82 89.64 
L 134.07 88.97 
L 136.32 88.37 
L 138.56 87.84 
L 140.81 87.35 
L 143.06 86.91 
L 145.30 86.51 
L 147.55 86.15 
L 149.80 85.81 
L 152.05 85.50 
L 154.29 85.22 
L 156.54 84.95 
L 158.79 84.71 
L 161.04 84.48 
L 163.28 84.26 
L 165.53 84.06 
L 167.78 83.87 
L 170.03 83.70 
L 172.27 83.53 
L 174.52 83.37 
L 176.77 83.22 
L 179.02 83.08 
L 181.26 82.95 
L 183.51 82.82 
L 185.76 82.70 
L 188.01 82.59 
L 190.25 82.48 
L 192.50 82.37 
L 194.75 82.27 
L 197.00 82.18 
L 199.24 82.09 
L 201.49 82.00 
L 203.74 81.92 
L 205.99 81.84 
L 208.23 81.76 
L 210.48 81.68 
L 212.73 81.61 
L 214.97 81.54 
L 217.22 81.48 
L 219.47 81.42 
L 221.72 81.35 
" style="fill: none; stroke: #2563eb; stroke-width: 1.5; stroke-linecap: square"/>
 </g>
 <g>
 <path d="M 44.17 120.51 
L 221.72 60.93 
" style="fill: none; stroke-dasharray: 4.44,1.92; stroke-dashoffset: 0; stroke: #f59e0b; stroke-width: 1.2"/>
 </g>
 <g>
 <path d="M 35.29 147.95 
L 35.29 9.35 
" style="fill: none; stroke: #9ca3af; stroke-width: 0.6; stroke-linejoin: miter; stroke-linecap: square"/>
 </g>
 <g>
 <path d="M 230.59 147.95 
L 230.59 9.35 
" style="fill: none; stroke: #9ca3af; stroke-width: 0.6; stroke-linejoin: miter; stroke-linecap: square"/>
 </g>
 <g>
 <path d="M 35.29 147.95 
L 230.59 147.95 
" style="fill: none; stroke: #9ca3af; stroke-width: 0.6; stroke-linejoin: miter; stroke-linecap: square"/>
 </g>
 <g>
 <path d="M 35.29 9.35 
L 230.59 9.35 
" style="fill: none; stroke: #9ca3af; stroke-width: 0.6; stroke-linejoin: miter; stroke-linecap: square"/>
 </g>
 <g>
 <text style="fill: #111827; font: 6px 'DejaVu Sans', 'Bitstream Vera Sans', 'Computer Modern Sans Serif', 'Lucida Grande', 'Verdana', 'Geneva', 'Lucid', 'Arial', 'Helvetica', 'Avant Garde', sans-serif; text-anchor: start" x="125.26" y="86.97" transform="rotate(-0 125.26 86.97)">(-1, -1)</text>
 </g>
 <g>
 <text style="fill: #111827; font: 6px 'DejaVu Sans', 'Bitstream Vera Sans', 'Computer Modern Sans Serif', 'Lucida Grande', 'Verdana', 'Geneva', 'Lucid', 'Arial', 'Helvetica', 'Avant Garde', sans-serif; text-anchor: start" x="150.63" y="98.46" transform="rotate(-0 150.63 98.46)">(0, -0.5)</text>
 </g>
 <g>
 <defs>
 <path d="M 0 2.5 
C 0.66 2.5 1.30 2.24 1.77 1.77 
C 2.24 1.30 2.5 0.66 2.5 0 
C 2.5 -0.66 2.24 -1.30 1.77 -1.77 
C 1.30 -2.24 0.66 -2.5 0 -2.5 
C -0.66 -2.5 -1.30 -2.24 -1.77 -1.77 
C -2.24 -1.30 -2.5 -0.66 -2.5 0 
C -2.5 0.66 -2.24 1.30 -1.77 1.77 
C -1.30 2.24 -0.66 2.5 0 2.5 
z
" style="stroke: #111827"/>
 </defs>
 <g>
 <use xlink:href="#mcf14b4b71f" x="120.26" y="94.97" style="fill: #111827; stroke: #111827"/>
 </g>
 </g>
 <g>
 <g>
 <use xlink:href="#mcf14b4b71f" x="145.63" y="86.46" style="fill: #111827; stroke: #111827"/>
 </g>
 </g>
 </g>
 </g>
 <defs>
 </defs>
</svg>