<?xml version="1.0" encoding="utf-8" standalone="no"?>
<!DOCTYPE svg PUBLIC "-//W3C//DTD SVG 1.1//EN"
 "http://www.w3.org/Graphics/SVG/1.1/DTD/svg11.dtd">
<svg xmlns:xlink="http://www.w3.org/1999/xlink" width="244.47pt" height="177.55pt" viewBox="0 0 244.47 177.55" xmlns="http://www.w3.org/2000/svg" version="1.1">
 <g>
 <g>
 <path d="M 0 177.55 
L 244.47 177.55 
L 244.47 0 
L 0 0 
L 0 177.55 
z
" style="fill: none"/>
 </g>
 <g>
 <g>
 <path d="M 41.97 145.8 
L 237.27 145.8 
L 237.27 7.2 
L 41.97 7.2 
L 41.97 145.8 
z
" style="fill: none"/>
 </g>
 <g>
 <g>
 <g>
 <path d="M 76.21 145.8 
L 76.21 7.2 
" style="fill: none; stroke: #e5e7eb; stroke-opacity: 0.6; stroke-width: 0.5; stroke-linecap: square"/>
 </g>
 <g>
 <defs>
 <path d="M 0 0 
L 0 3.5 
" style="stroke: #9ca3af; stroke-width: 0.8"/>
 </defs>
 <g>
 <use xlink:href="#mad8e6cfce3" x="76.21" y="145.8" style="fill: #9ca3af; stroke: #9ca3af; stroke-width: 0.8"/>
 </g>
 </g>
 <g>
 <text style="fill: #9ca3af; font: 7px 'DejaVu Sans', 'Bitstream Vera Sans', 'Computer Modern Sans Serif', 'Lucida Grande', 'Verdana', 'Geneva', 'Lucid', 'Arial', 'Helvetica', 'Avant Garde', sans-serif; text-anchor: middle" x="76.21" y="158.12" transform="rotate(-0 76.21 158.12)">0</text>
 </g>
 </g>
 <g>
 <g>
 <path d="M 126.94 145.8 
L 126.94 7.2 
" style="fill: none; stroke: #e5e7eb; stroke-opacity: 0.6; stroke-width: 0.5; stroke-linecap: square"/>
 </g>
 <g>
 <g>
 <use xlink:href="#mad8e6cfce3" x="126.94" y="145.8" style="fill: #9ca3af; stroke: #9ca3af; stroke-width: 0.8"/>
 </g>
 </g>
 <g>
 <text style="fill: #9ca3af; font: 7px 'DejaVu Sans', 'Bitstream Vera Sans', 'Computer Modern Sans Serif', 'Lucida Grande', 'Verdana', 'Geneva', 'Lucid', 'Arial', 'Helvetica', 'Avant Garde', sans-serif; text-anchor: middle" x="126.94" y="158.12" transform="rotate(-0 126.94 158.12)">2</text>
 </g>
 </g>
 <g>
 <g>
 <path d="M 177.67 145.8 
L 177.67 7.2 
" style="fill: none; stroke: #e5e7eb; stroke-opacity: 0.6; stroke-width: 0.5; stroke-linecap: square"/>
 </g>
 <g>
 <g>
 <use xlink:href="#mad8e6cfce3" x="177.67" y="145.8" style="fill: #9ca3af; stroke: #9ca3af; stroke-width: 0.8"/>
 </g>
 </g>
 <g>
 <text style="fill: #9ca3af; font: 7px 'DejaVu Sans', 'Bitstream Vera Sans', 'Computer Modern Sans Serif', 'Lucida Grande', 'Verdana', 'Geneva', 'Lucid', 'Arial', 'Helvetica', 'Avant Garde', sans-serif; text-anchor: middle" x="177.67" y="158.12" transform="rotate(-0 177.67 158.12)">4</text>
 </g>
 </g>
 <g>
 <g>
 <path d="M 228.40 145.8 
L 228.40 7.2 
" style="fill: none; stroke: #e5e7eb; stroke-opacity: 0.6; stroke-width: 0.5; stroke-linecap: square"/>
 </g>
 <g>
 <g>
 <use xlink:href="#mad8e6cfce3" x="228.40" y="145.8" style="fill: #9ca3af; stroke: #9ca3af; stroke-width: 0.8"/>
 </g>
 </g>
 <g>
 <text style="fill: #9ca3af; font: 7px 'DejaVu Sans', 'Bitstream Vera Sans', 'Computer Modern Sans Serif', 'Lucida Grande', 'Verdana', 'Geneva', 'Lucid', 'Arial', 'Helvetica', 'Avant Garde', sans-serif; text-anchor: middle" x="228.40" y="158.12" transform="rotate(-0 228.40 158.12)">6</text>
 </g>
 </g>
 <g>
 <text style="fill: #9ca3af; font: 7px 'DejaVu Sans', 'Bitstream Vera Sans', 'Computer Modern Sans Serif', 'Lucida Grande', 'Verdana', 'Geneva', 'Lucid', 'Arial', 'Helvetica', 'Avant Garde', sans-serif; text-anchor: middle" x="139.62" y="168.89" transform="rotate(-0 139.62 168.89)">x</text>
 </g>
 </g>
 <g>
 <g>
 <g>
 <path d="M 41.97 129.90 
L 237.27 129.90 
" style="fill: none; stroke: #e5e7eb; stroke-opacity: 0.6; stroke-width: 0.5; stroke-linecap: square"/>
 </g>
 <g>
 <defs>
 <path d="M 0 0 
L -3.5 0 
" style="stroke: #9ca3af; stroke-width: 0.8"/>
 </defs>
 <g>
 <use xlink:href="#m1719b0bdaf" x="41.97" y="129.90" style="fill: #9ca3af; stroke: #9ca3af; stroke-width: 0.8"/>
 </g>
 </g>
 <g>
 <text style="fill: #9ca3af; font: 7px 'DejaVu Sans', 'Bitstream Vera Sans', 'Computer Modern Sans Serif', 'Lucida Grande', 'Verdana', 'Geneva', 'Lucid', 'Arial', 'Helvetica', 'Avant Garde', sans-serif; text-anchor: end" x="34.97" y="132.56" transform="rotate(-0 34.97 132.56)">−0.5</text>
 </g>
 </g>
 <g>
 <g>
 <path d="M 41.97 95.25 
L 237.27 95.25 
" style="fill: none; stroke: #e5e7eb; stroke-opacity: 0.6; stroke-width: 0.5; stroke-linecap: square"/>
 </g>
 <g>
 <g>
 <use xlink:href="#m1719b0bdaf" x="41.97" y="95.25" style="fill: #9ca3af; stroke: #9ca3af; stroke-width: 0.8"/>
 </g>
 </g>
 <g>
 <text style="fill: #9ca3af; font: 7px 'DejaVu Sans', 'Bitstream Vera Sans', 'Computer Modern Sans Serif', 'Lucida Grande', 'Verdana', 'Geneva', 'Lucid', 'Arial', 'Helvetica', 'Avant Garde', sans-serif; text-anchor: end" x="34.97" y="97.91" transform="rotate(-0 34.97 97.91)">0.0</text>
 </g>
 </g>
 <g>
 <g>
 <path d="M 41.97 60.60 
L 237.27 60.60 
" style="fill: none; stroke: #e5e7eb; stroke-opacity: 0.6; stroke-width: 0.5; stroke-linecap: square"/>
 </g>
 <g>
 <g>
 <use xlink:href="#m1719b0bdaf" x="41.97" y="60.60" style="fill: #9ca3af; stroke: #9ca3af; stroke-width: 0.8"/>
 </g>
 </g>
 <g>
 <text style="fill: #9ca3af; font: 7px 'DejaVu Sans', 'Bitstream Vera Sans', 'Computer Modern Sans Serif', 'Lucida Grande', 'Verdana', 'Geneva', 'Lucid', 'Arial', 'Helvetica', 'Avant Garde', sans-serif; text-anchor: end" x="34.97" y="63.26" transform="rotate(-0 34.97 63.26)">0.5</text>
 </g>
 </g>
 <g>
 <g>
 <path d="M 41.97 25.95 
L 237.27 25.95 
" style="fill: none; stroke: #e5e7eb; stroke-opacity: 0.6; stroke-width: 0.5; stroke-linecap: square"/>
 </g>
 <g>
 <g>
 <use xlink:href="#m1719b0bdaf" x="41.97" y="25.95" style="fill: #9ca3af; stroke: #9ca3af; stroke-width: 0.8"/>
 </g>
 </g>
 <g>
 <text style="fill: #9ca3af; font: 7px 'DejaVu Sans', 'Bitstream Vera Sans', 'Computer Modern Sans Serif', 'Lucida Grande', 'Verdana', 'Geneva', 'Lucid', 'Arial', 'Helvetica', 'Avant Garde', sans-serif; text-anchor: end" x="34.97" y="28.61" transform="rotate(-0 34.97 28.61)">1.0</text>
 </g>
 </g>
 <g>
 <text style="fill: #9ca3af; font: 7px 'DejaVu Sans', 'Bitstream Vera Sans', 'Computer Modern Sans Serif', 'Lucida Grande', 'Verdana', 'Geneva', 'Lucid', 'Arial', 'Helvetica', 'Avant Garde', sans-serif; text-anchor: middle" x="12.52" y="76.5" transform="rotate(-90 12.52 76.5)">y</text>
 </g>
 </g>
 <g>
 <path d="M 50.85 60.60 
L 53.10 62.07 
L 55.34 63.42 
L 57.59 64.67 
L 59.84 65.82 
L 62.09 66.89 
L 64.33 67.88 
L 66.58 68.80 
L 68.83 69.67 
L 71.08 70.48 
L 73.32 71.24 
L 75.57 71.95 
L 77.82 72.63 
L 80.07 73.26 
L 82.31 73.87 
L 84.56 74.44 
L 86.81 74.97 
L 89.06 75.49 
L 91.30 75.97 
L 93.55 76.44 
L 95.80 76.88 
L 98.05 77.30 
L 100.29 77.70 
L 102.54 78.09 
L 104.79 78.46 
L 107.04 78.81 
L 109.28 79.15 
L 111.53 79.47 
L 113.78 79.79 
L 116.02 80.09 
L 118.27 80.37 
L 120.52 80.65 
L 122.77 80.92 
L 125.01 81.18 
L 127.26 81.43 
L 129.51 81.67 
L 131.76 81.90 
L 134.00 82.12 
L 136.25 82.34 
L 138.50 82.55 
L 140.75 82.75 
L 142.99 82.95 
L 145.24 83.14 
L 147.49 83.32 
L 149.74 83.50 
L 151.98 83.68 
L 154.23 83.85 
L 156.48 84.01 
L 158.73 84.17 
L 160.97 84.32 
L 163.22 84.47 
L 165.47 84.62 
L 167.72 84.76 
L 169.96 84.90 
L 172.21 85.04 
L 174.46 85.17 
L 176.70 85.30 
L 178.95 85.42 
L 181.20 85.54 
L 183.45 85.66 
L 185.69 85.78 
L 187.94 85.89 
L 190.19 86.00 
L 192.44 86.11 
L 194.68 86.22 
L 196.93 86.32 
L 199.18 86.42 
L 201.43 86.52 
L 203.67 86.62 
L 205.92 86.71 
L 208.17 86.80 
L 210.42 86.89 
L 212.66 86.98 
L 214.91 87.07 
L 217.16 87.15 
L 219.41 87.24 
L 221.65 87.32 
L 223.90 87.40 
L 226.15 87.47 
L 228.40 87.55 
" style="fill: none; stroke: #2563eb; stroke-width: 1.5; stroke-linecap: square"/>
 </g>
 <g>
 <path d="M 50.85 74.46 
L 228.40 90.63 
" style="fill: none; stroke-dasharray: 4.44,1.92; stroke-dashoffset: 0; stroke: #f59e0b; stroke-width: 1.2"/>
 </g>
 <g>
 <path d="M 41.97 145.8 
L 41.97 7.2 
" style="fill: none; stroke: #9ca3af; stroke-width: 0.6; stroke-linejoin: miter; stroke-linecap: square"/>
 </g>
 <g>
 <path d="M 237.27 145.8 
L 237.27 7.2 
" style="fill: none; stroke: #9ca3af; stroke-width: 0.6; stroke-linejoin: miter; stroke-linecap: square"/>
 </g>
 <g>
 <path d="M 41.97 145.8 
L 237.27 145.8 
" style="fill: none; stroke: #9ca3af; stroke-width: 0.6; stroke-linejoin: miter; stroke-linecap: square"/>
 </g>
 <g>
 <path d="M 41.97 7.2 
L 237.27 7.2 
" style="fill: none; stroke: #9ca3af; stroke-width: 0.6; stroke-linejoin: miter; stroke-linecap: square"/>
 </g>
 <g>
 <text style="fill: #111827; font: 6px 'DejaVu Sans', 'Bitstream Vera Sans', 'Computer Modern Sans Serif', 'Lucida Grande', 'Verdana', 'Geneva', 'Lucid', 'Arial', 'Helvetica', 'Avant Garde', sans-serif; text-anchor: start" x="131.94" y="73.39" transform="rotate(-0 131.94 73.39)">(2, 0.2)</text>
 </g>
 <g>
 <text style="fill: #111827; font: 6px 'DejaVu Sans', 'Bitstream Vera Sans', 'Computer Modern Sans Serif', 'Lucida Grande', 'Verdana', 'Geneva', 'Lucid', 'Arial', 'Helvetica', 'Avant Garde', sans-serif; text-anchor: start" x="157.30" y="95.70" transform="rotate(-0 157.30 95.70)">(3, 0.17)</text>
 </g>
 <g>
 <defs>
 <path d="M 0 2.5 
C 0.66 2.5 1.30 2.24 1.77 1.77 
C 2.24 1.30 2.5 0.66 2.5 0 
C 2.5 -0.66 2.24 -1.30 1.77 -1.77 
C 1.30 -2.24 0.66 -2.5 0 -2.5 
C -0.66 -2.5 -1.30 -2.24 -1.77 -1.77 
C -2.24 -1.30 -2.5 -0.66 -2.5 0 
C -2.5 0.66 -2.24 1.30 -1.77 1.77 
C -1.30 2.24 -0.66 2.5 0 2.5 
z
" style="stroke: #111827"/>
 </defs>
 <g>
 <use xlink:href="#mb714ded01c" x="126.94" y="81.39" style="fill: #111827; stroke: #111827"/>
 </g>
 </g>
 <g>
 <g>
 <use xlink:href="#mb714ded01c" x="152.30" y="83.70" style="fill: #111827; stroke: #111827"/>
 </g>
 </g>
 </g>
 </g>
 <defs>
 </defs>
</svg>