<?xml version="1.0" encoding="utf-8" standalone="no"?>
<!DOCTYPE svg PUBLIC "-//W3C//DTD SVG 1.1//EN"
 "http://www.w3.org/Graphics/SVG/1.1/DTD/svg11.dtd">
<svg xmlns:xlink="http://www.w3.org/1999/xlink" width="231.93pt" height="177.93pt" viewBox="0 0 231.93 177.93" xmlns="http://www.w3.org/2000/svg" version="1.1">
 <g>
 <g>
 <path d="M 0 177.93 
L 231.93 177.93 
L 231.93 0 
L 0 0 
L 0 177.93 
z
" style="fill: none"/>
 </g>
 <g>
 <g>
 <path d="M 29.43 146.18 
L 224.73 146.18 
L 224.73 7.58 
L 29.43 7.58 
L 29.43 146.18 
z
" style="fill: none"/>
 </g>
 <g>
 <g>
 <g>
 <path d="M 38.31 146.18 
L 38.31 7.58 
" style="fill: none; stroke: #e5e7eb; stroke-opacity: 0.6; stroke-width: 0.5; stroke-linecap: square"/>
 </g>
 <g>
 <defs>
 <path d="M 0 0 
L 0 3.5 
" style="stroke: #9ca3af; stroke-width: 0.8"/>
 </defs>
 <g>
 <use xlink:href="#mbc0d935b99" x="38.31" y="146.18" style="fill: #9ca3af; stroke: #9ca3af; stroke-width: 0.8"/>
 </g>
 </g>
 <g>
 <text style="fill: #9ca3af; font: 7px 'DejaVu Sans', 'Bitstream Vera Sans', 'Computer Modern Sans Serif', 'Lucida Grande', 'Verdana', 'Geneva', 'Lucid', 'Arial', 'Helvetica', 'Avant Garde', sans-serif; text-anchor: middle" x="38.31" y="158.50" transform="rotate(-0 38.31 158.50)">−4</text>
 </g>
 </g>
 <g>
 <g>
 <path d="M 89.03 146.18 
L 89.03 7.58 
" style="fill: none; stroke: #e5e7eb; stroke-opacity: 0.6; stroke-width: 0.5; stroke-linecap: square"/>
 </g>
 <g>
 <g>
 <use xlink:href="#mbc0d935b99" x="89.03" y="146.18" style="fill: #9ca3af; stroke: #9ca3af; stroke-width: 0.8"/>
 </g>
 </g>
 <g>
 <text style="fill: #9ca3af; font: 7px 'DejaVu Sans', 'Bitstream Vera Sans', 'Computer Modern Sans Serif', 'Lucida Grande', 'Verdana', 'Geneva', 'Lucid', 'Arial', 'Helvetica', 'Avant Garde', sans-serif; text-anchor: middle" x="89.03" y="158.50" transform="rotate(-0 89.03 158.50)">−2</text>
 </g>
 </g>
 <g>
 <g>
 <path d="M 139.76 146.18 
L 139.76 7.58 
" style="fill: none; stroke: #e5e7eb; stroke-opacity: 0.6; stroke-width: 0.5; stroke-linecap: square"/>
 </g>
 <g>
 <g>
 <use xlink:href="#mbc0d935b99" x="139.76" y="146.18" style="fill: #9ca3af; stroke: #9ca3af; stroke-width: 0.8"/>
 </g>
 </g>
 <g>
 <text style="fill: #9ca3af; font: 7px 'DejaVu Sans', 'Bitstream Vera Sans', 'Computer Modern Sans Serif', 'Lucida Grande', 'Verdana', 'Geneva', 'Lucid', 'Arial', 'Helvetica', 'Avant Garde', sans-serif; text-anchor: middle" x="139.76" y="158.50" transform="rotate(-0 139.76 158.50)">0</text>
 </g>
 </g>
 <g>
 <g>
 <path d="M 190.49 146.18 
L 190.49 7.58 
" style="fill: none; stroke: #e5e7eb; stroke-opacity: 0.6; stroke-width: 0.5; stroke-linecap: square"/>
 </g>
 <g>
 <g>
 <use xlink:href="#mbc0d935b99" x="190.49" y="146.18" style="fill: #9ca3af; stroke: #9ca3af; stroke-width: 0.8"/>
 </g>
 </g>
 <g>
 <text style="fill: #9ca3af; font: 7px 'DejaVu Sans', 'Bitstream Vera Sans', 'Computer Modern Sans Serif', 'Lucida Grande', 'Verdana', 'Geneva', 'Lucid', 'Arial', 'Helvetica', 'Avant Garde', sans-serif; text-anchor: middle" x="190.49" y="158.50" transform="rotate(-0 190.49 158.50)">2</text>
 </g>
 </g>
 <g>
 <text style="fill: #9ca3af; font: 7px 'DejaVu Sans', 'Bitstream Vera Sans', 'Computer Modern Sans Serif', 'Lucida Grande', 'Verdana', 'Geneva', 'Lucid', 'Arial', 'Helvetica', 'Avant Garde', sans-serif; text-anchor: middle" x="127.08" y="169.27" transform="rotate(-0 127.08 169.27)">x</text>
 </g>
 </g>
 <g>
 <g>
 <g>
 <path d="M 29.43 132.28 
L 224.73 132.28 
" style="fill: none; stroke: #e5e7eb; stroke-opacity: 0.6; stroke-width: 0.5; stroke-linecap: square"/>
 </g>
 <g>
 <defs>
 <path d="M 0 0 
L -3.5 0 
" style="stroke: #9ca3af; stroke-width: 0.8"/>
 </defs>
 <g>
 <use xlink:href="#mffaccd8d3c" x="29.43" y="132.28" style="fill: #9ca3af; stroke: #9ca3af; stroke-width: 0.8"/>
 </g>
 </g>
 <g>
 <text style="fill: #9ca3af; font: 7px 'DejaVu Sans', 'Bitstream Vera Sans', 'Computer Modern Sans Serif', 'Lucida Grande', 'Verdana', 'Geneva', 'Lucid', 'Arial', 'Helvetica', 'Avant Garde', sans-serif; text-anchor: end" x="22.43" y="134.94" transform="rotate(-0 22.43 134.94)">0</text>
 </g>
 </g>
 <g>
 <g>
 <path d="M 29.43 91.47 
L 224.73 91.47 
" style="fill: none; stroke: #e5e7eb; stroke-opacity: 0.6; stroke-width: 0.5; stroke-linecap: square"/>
 </g>
 <g>
 <g>
 <use xlink:href="#mffaccd8d3c" x="29.43" y="91.47" style="fill: #9ca3af; stroke: #9ca3af; stroke-width: 0.8"/>
 </g>
 </g>
 <g>
 <text style="fill: #9ca3af; font: 7px 'DejaVu Sans', 'Bitstream Vera Sans', 'Computer Modern Sans Serif', 'Lucida Grande', 'Verdana', 'Geneva', 'Lucid', 'Arial', 'Helvetica', 'Avant Garde', sans-serif; text-anchor: end" x="22.43" y="94.13" transform="rotate(-0 22.43 94.13)">2</text>
 </g>
 </g>
 <g>
 <g>
 <path d="M 29.43 50.67 
L 224.73 50.67 
" style="fill: none; stroke: #e5e7eb; stroke-opacity: 0.6; stroke-width: 0.5; stroke-linecap: square"/>
 </g>
 <g>
 <g>
 <use xlink:href="#mffaccd8d3c" x="29.43" y="50.67" style="fill: #9ca3af; stroke: #9ca3af; stroke-width: 0.8"/>
 </g>
 </g>
 <g>
 <text style="fill: #9ca3af; font: 7px 'DejaVu Sans', 'Bitstream Vera Sans', 'Computer Modern Sans Serif', 'Lucida Grande', 'Verdana', 'Geneva', 'Lucid', 'Arial', 'Helvetica', 'Avant Garde', sans-serif; text-anchor: end" x="22.43" y="53.33" transform="rotate(-0 22.43 53.33)">4</text>
 </g>
 </g>
 <g>
 <g>
 <path d="M 29.43 9.86 
L 224.73 9.86 
" style="fill: none; stroke: #e5e7eb; stroke-opacity: 0.6; stroke-width: 0.5; stroke-linecap: square"/>
 </g>
 <g>
 <g>
 <use xlink:href="#mffaccd8d3c" x="29.43" y="9.86" style="fill: #9ca3af; stroke: #9ca3af; stroke-width: 0.8"/>
 </g>
 </g>
 <g>
 <text style="fill: #9ca3af; font: 7px 'DejaVu Sans', 'Bitstream Vera Sans', 'Computer Modern Sans Serif', 'Lucida Grande', 'Verdana', 'Geneva', 'Lucid', 'Arial', 'Helvetica', 'Avant Garde', sans-serif; text-anchor: end" x="22.43" y="12.52" transform="rotate(-0 22.43 12.52)">6</text>
 </g>
 </g>
 <g>
 <text style="fill: #9ca3af; font: 7px 'DejaVu Sans', 'Bitstream Vera Sans', 'Computer Modern Sans Serif', 'Lucida Grande', 'Verdana', 'Geneva', 'Lucid', 'Arial', 'Helvetica', 'Avant Garde', sans-serif; text-anchor: middle" x="12.52" y="76.88" transform="rotate(-90 12.52 76.88)">y</text>
 </g>
 </g>
 <g>
 <path d="M 38.31 121.52 
L 40.55 121.20 
L 42.80 120.87 
L 45.05 120.53 
L 47.30 120.18 
L 49.54 119.81 
L 51.79 119.44 
L 54.04 119.05 
L 56.28 118.66 
L 58.53 118.25 
L 60.78 117.83 
L 63.03 117.40 
L 65.27 116.95 
L 67.52 116.49 
L 69.77 116.02 
L 72.02 115.53 
L 74.26 115.03 
L 76.51 114.51 
L 78.76 113.98 
L 81.01 113.43 
L 83.25 112.86 
L 85.50 112.28 
L 87.75 111.68 
L 90.00 111.06 
L 92.24 110.43 
L 94.49 109.77 
L 96.74 109.10 
L 98.99 108.40 
L 101.23 107.69 
L 103.48 106.95 
L 105.73 106.19 
L 107.98 105.41 
L 110.22 104.60 
L 112.47 103.77 
L 114.72 102.92 
L 116.97 102.04 
L 119.21 101.13 
L 121.46 100.20 
L 123.71 99.24 
L 125.95 98.25 
L 128.20 97.22 
L 130.45 96.17 
L 132.70 95.09 
L 134.94 93.98 
L 137.19 92.83 
L 139.44 91.65 
L 141.69 90.43 
L 143.93 89.17 
L 146.18 87.88 
L 148.43 86.55 
L 150.68 85.18 
L 152.92 83.77 
L 155.17 82.31 
L 157.42 80.82 
L 159.67 79.27 
L 161.91 77.68 
L 164.16 76.05 
L 166.41 74.36 
L 168.66 72.62 
L 170.90 70.84 
L 173.15 68.99 
L 175.40 67.10 
L 177.65 65.14 
L 179.89 63.13 
L 182.14 61.06 
L 184.39 58.92 
L 186.63 56.72 
L 188.88 54.46 
L 191.13 52.13 
L 193.38 49.72 
L 195.62 47.25 
L 197.87 44.70 
L 200.12 42.07 
L 202.37 39.37 
L 204.61 36.58 
L 206.86 33.72 
L 209.11 30.76 
L 211.36 27.72 
L 213.60 24.58 
L 215.85 21.36 
" style="fill: none; stroke: #2563eb; stroke-width: 1.5; stroke-linecap: square"/>
 </g>
 <g>
 <path d="M 38.31 137.74 
L 215.85 56.77 
" style="fill: none; stroke-dasharray: 4.44,1.92; stroke-dashoffset: 0; stroke: #f59e0b; stroke-width: 1.2"/>
 </g>
 <g>
 <path d="M 29.43 146.18 
L 29.43 7.58 
" style="fill: none; stroke: #9ca3af; stroke-width: 0.6; stroke-linejoin: miter; stroke-linecap: square"/>
 </g>
 <g>
 <path d="M 224.73 146.18 
L 224.73 7.58 
" style="fill: none; stroke: #9ca3af; stroke-width: 0.6; stroke-linejoin: miter; stroke-linecap: square"/>
 </g>
 <g>
 <path d="M 29.43 146.18 
L 224.73 146.18 
" style="fill: none; stroke: #9ca3af; stroke-width: 0.6; stroke-linejoin: miter; stroke-linecap: square"/>
 </g>
 <g>
 <path d="M 29.43 7.58 
L 224.73 7.58 
" style="fill: none; stroke: #9ca3af; stroke-width: 0.6; stroke-linejoin: miter; stroke-linecap: square"/>
 </g>
 <g>
 <text style="fill: #111827; font: 6px 'DejaVu Sans', 'Bitstream Vera Sans', 'Computer Modern Sans Serif', 'Lucida Grande', 'Verdana', 'Geneva', 'Lucid', 'Arial', 'Helvetica', 'Avant Garde', sans-serif; text-anchor: start" x="119.40" y="95.04" transform="rotate(-0 119.40 95.04)">(-1, 1.43)</text>
 </g>
 <g>
 <text style="fill: #111827; font: 6px 'DejaVu Sans', 'Bitstream Vera Sans', 'Computer Modern Sans Serif', 'Lucida Grande', 'Verdana', 'Geneva', 'Lucid', 'Arial', 'Helvetica', 'Avant Garde', sans-serif; text-anchor: start" x="144.76" y="103.47" transform="rotate(-0 144.76 103.47)">(0, 2)</text>
 </g>
 <g>
 <defs>
 <path d="M 0 2.5 
C 0.66 2.5 1.30 2.24 1.77 1.77 
C 2.24 1.30 2.5 0.66 2.5 0 
C 2.5 -0.66 2.24 -1.30 1.77 -1.77 
C 1.30 -2.24 0.66 -2.5 0 -2.5 
C -0.66 -2.5 -1.30 -2.24 -1.77 -1.77 
C -2.24 -1.30 -2.5 -0.66 -2.5 0 
C -2.5 0.66 -2.24 1.30 -1.77 1.77 
C -1.30 2.24 -0.66 2.5 0 2.5 
z
" style="stroke: #111827"/>
 </defs>
 <g>
 <use xlink:href="#m9f46021625" x="114.40" y="103.04" style="fill: #111827; stroke: #111827"/>
 </g>
 </g>
 <g>
 <g>
 <use xlink:href="#m9f46021625" x="139.76" y="91.47" style="fill: #111827; stroke: #111827"/>
 </g>
 </g>
 </g>
 </g>
 <defs>
 </defs>
</svg>