<?xml version="1.0" encoding="utf-8" standalone="no"?>
<!DOCTYPE svg PUBLIC "-//W3C//DTD SVG 1.1//EN"
 "http://www.w3.org/Graphics/SVG/1.1/DTD/svg11.dtd">
<svg xmlns:xlink="http://www.w3.org/1999/xlink" width="238.61pt" height="177.55pt" viewBox="0 0 238.61 177.55" xmlns="http://www.w3.org/2000/svg" version="1.1">
 <g>
 <g>
 <path d="M 0 177.55 
L 238.61 177.55 
L 238.61 0 
L 0 0 
L 0 177.55 
z
" style="fill: none"/>
 </g>
 <g>
 <g>
 <path d="M 36.11 145.8 
L 231.41 145.8 
L 231.41 7.2 
L 36.11 7.2 
L 36.11 145.8 
z
" style="fill: none"/>
 </g>
 <g>
 <g>
 <g>
 <path d="M 44.98 145.8 
L 44.98 7.2 
" style="fill: none; stroke: #e5e7eb; stroke-opacity: 0.6; stroke-width: 0.5; stroke-linecap: square"/>
 </g>
 <g>
 <defs>
 <path d="M 0 0 
L 0 3.5 
" style="stroke: #9ca3af; stroke-width: 0.8"/>
 </defs>
 <g>
 <use xlink:href="#m6bfc5faa60" x="44.98" y="145.8" style="fill: #9ca3af; stroke: #9ca3af; stroke-width: 0.8"/>
 </g>
 </g>
 <g>
 <text style="fill: #9ca3af; font: 7px 'DejaVu Sans', 'Bitstream Vera Sans', 'Computer Modern Sans Serif', 'Lucida Grande', 'Verdana', 'Geneva', 'Lucid', 'Arial', 'Helvetica', 'Avant Garde', sans-serif; text-anchor: middle" x="44.98" y="158.12" transform="rotate(-0 44.98 158.12)">−2</text>
 </g>
 </g>
 <g>
 <g>
 <path d="M 95.71 145.8 
L 95.71 7.2 
" style="fill: none; stroke: #e5e7eb; stroke-opacity: 0.6; stroke-width: 0.5; stroke-linecap: square"/>
 </g>
 <g>
 <g>
 <use xlink:href="#m6bfc5faa60" x="95.71" y="145.8" style="fill: #9ca3af; stroke: #9ca3af; stroke-width: 0.8"/>
 </g>
 </g>
 <g>
 <text style="fill: #9ca3af; font: 7px 'DejaVu Sans', 'Bitstream Vera Sans', 'Computer Modern Sans Serif', 'Lucida Grande', 'Verdana', 'Geneva', 'Lucid', 'Arial', 'Helvetica', 'Avant Garde', sans-serif; text-anchor: middle" x="95.71" y="158.12" transform="rotate(-0 95.71 158.12)">0</text>
 </g>
 </g>
 <g>
 <g>
 <path d="M 146.44 145.8 
L 146.44 7.2 
" style="fill: none; stroke: #e5e7eb; stroke-opacity: 0.6; stroke-width: 0.5; stroke-linecap: square"/>
 </g>
 <g>
 <g>
 <use xlink:href="#m6bfc5faa60" x="146.44" y="145.8" style="fill: #9ca3af; stroke: #9ca3af; stroke-width: 0.8"/>
 </g>
 </g>
 <g>
 <text style="fill: #9ca3af; font: 7px 'DejaVu Sans', 'Bitstream Vera Sans', 'Computer Modern Sans Serif', 'Lucida Grande', 'Verdana', 'Geneva', 'Lucid', 'Arial', 'Helvetica', 'Avant Garde', sans-serif; text-anchor: middle" x="146.44" y="158.12" transform="rotate(-0 146.44 158.12)">2</text>
 </g>
 </g>
 <g>
 <g>
 <path d="M 197.17 145.8 
L 197.17 7.2 
" style="fill: none; stroke: #e5e7eb; stroke-opacity: 0.6; stroke-width: 0.5; stroke-linecap: square"/>
 </g>
 <g>
 <g>
 <use xlink:href="#m6bfc5faa60" x="197.17" y="145.8" style="fill: #9ca3af; stroke: #9ca3af; stroke-width: 0.8"/>
 </g>
 </g>
 <g>
 <text style="fill: #9ca3af; font: 7px 'DejaVu Sans', 'Bitstream Vera Sans', 'Computer Modern Sans Serif', 'Lucida Grande', 'Verdana', 'Geneva', 'Lucid', 'Arial', 'Helvetica', 'Avant Garde', sans-serif; text-anchor: middle" x="197.17" y="158.12" transform="rotate(-0 197.17 158.12)">4</text>
 </g>
 </g>
 <g>
 <text style="fill: #9ca3af; font: 7px 'DejaVu Sans', 'Bitstream Vera Sans', 'Computer Modern Sans Serif', 'Lucida Grande', 'Verdana', 'Geneva', 'Lucid', 'Arial', 'Helvetica', 'Avant Garde', sans-serif; text-anchor: middle" x="133.76" y="168.89" transform="rotate(-0 133.76 168.89)">x</text>
 </g>
 </g>
 <g>
 <g>
 <g>
 <path d="M 36.11 121.84 
L 231.41 121.84 
" style="fill: none; stroke: #e5e7eb; stroke-opacity: 0.6; stroke-width: 0.5; stroke-linecap: square"/>
 </g>
 <g>
 <defs>
 <path d="M 0 0 
L -3.5 0 
" style="stroke: #9ca3af; stroke-width: 0.8"/>
 </defs>
 <g>
 <use xlink:href="#m94162c5f96" x="36.11" y="121.84" style="fill: #9ca3af; stroke: #9ca3af; stroke-width: 0.8"/>
 </g>
 </g>
 <g>
 <text style="fill: #9ca3af; font: 7px 'DejaVu Sans', 'Bitstream Vera Sans', 'Computer Modern Sans Serif', 'Lucida Grande', 'Verdana', 'Geneva', 'Lucid', 'Arial', 'Helvetica', 'Avant Garde', sans-serif; text-anchor: end" x="29.11" y="124.50" transform="rotate(-0 29.11 124.50)">1.5</text>
 </g>
 </g>
 <g>
 <g>
 <path d="M 36.11 91.08 
L 231.41 91.08 
" style="fill: none; stroke: #e5e7eb; stroke-opacity: 0.6; stroke-width: 0.5; stroke-linecap: square"/>
 </g>
 <g>
 <g>
 <use xlink:href="#m94162c5f96" x="36.11" y="91.08" style="fill: #9ca3af; stroke: #9ca3af; stroke-width: 0.8"/>
 </g>
 </g>
 <g>
 <text style="fill: #9ca3af; font: 7px 'DejaVu Sans', 'Bitstream Vera Sans', 'Computer Modern Sans Serif', 'Lucida Grande', 'Verdana', 'Geneva', 'Lucid', 'Arial', 'Helvetica', 'Avant Garde', sans-serif; text-anchor: end" x="29.11" y="93.74" transform="rotate(-0 29.11 93.74)">2.0</text>
 </g>
 </g>
 <g>
 <g>
 <path d="M 36.11 60.32 
L 231.41 60.32 
" style="fill: none; stroke: #e5e7eb; stroke-opacity: 0.6; stroke-width: 0.5; stroke-linecap: square"/>
 </g>
 <g>
 <g>
 <use xlink:href="#m94162c5f96" x="36.11" y="60.32" style="fill: #9ca3af; stroke: #9ca3af; stroke-width: 0.8"/>
 </g>
 </g>
 <g>
 <text style="fill: #9ca3af; font: 7px 'DejaVu Sans', 'Bitstream Vera Sans', 'Computer Modern Sans Serif', 'Lucida Grande', 'Verdana', 'Geneva', 'Lucid', 'Arial', 'Helvetica', 'Avant Garde', sans-serif; text-anchor: end" x="29.11" y="62.98" transform="rotate(-0 29.11 62.98)">2.5</text>
 </g>
 </g>
 <g>
 <g>
 <path d="M 36.11 29.56 
L 231.41 29.56 
" style="fill: none; stroke: #e5e7eb; stroke-opacity: 0.6; stroke-width: 0.5; stroke-linecap: square"/>
 </g>
 <g>
 <g>
 <use xlink:href="#m94162c5f96" x="36.11" y="29.56" style="fill: #9ca3af; stroke: #9ca3af; stroke-width: 0.8"/>
 </g>
 </g>
 <g>
 <text style="fill: #9ca3af; font: 7px 'DejaVu Sans', 'Bitstream Vera Sans', 'Computer Modern Sans Serif', 'Lucida Grande', 'Verdana', 'Geneva', 'Lucid', 'Arial', 'Helvetica', 'Avant Garde', sans-serif; text-anchor: end" x="29.11" y="32.22" transform="rotate(-0 29.11 32.22)">3.0</text>
 </g>
 </g>
 <g>
 <text style="fill: #9ca3af; font: 7px 'DejaVu Sans', 'Bitstream Vera Sans', 'Computer Modern Sans Serif', 'Lucida Grande', 'Verdana', 'Geneva', 'Lucid', 'Arial', 'Helvetica', 'Avant Garde', sans-serif; text-anchor: middle" x="12.52" y="76.5" transform="rotate(-90 12.52 76.5)">y</text>
 </g>
 </g>
 <g>
 <path d="M 44.98 127.12 
L 47.23 125.21 
L 49.48 123.34 
L 51.73 121.52 
L 53.97 119.72 
L 56.22 117.96 
L 58.47 116.23 
L 60.72 114.54 
L 62.96 112.87 
L 65.21 111.22 
L 67.46 109.61 
L 69.71 108.02 
L 71.95 106.45 
L 74.20 104.90 
L 76.45 103.38 
L 78.70 101.87 
L 80.94 100.39 
L 83.19 98.92 
L 85.44 97.48 
L 87.68 96.05 
L 89.93 94.64 
L 92.18 93.24 
L 94.43 91.86 
L 96.67 90.50 
L 98.92 89.15 
L 101.17 87.81 
L 103.42 86.49 
L 105.66 85.19 
L 107.91 83.89 
L 110.16 82.61 
L 112.41 81.34 
L 114.65 80.09 
L 116.90 78.84 
L 119.15 77.61 
L 121.40 76.38 
L 123.64 75.17 
L 125.89 73.97 
L 128.14 72.78 
L 130.39 71.60 
L 132.63 70.43 
L 134.88 69.26 
L 137.13 68.11 
L 139.38 66.97 
L 141.62 65.83 
L 143.87 64.71 
L 146.12 63.59 
L 148.37 62.48 
L 150.61 61.38 
L 152.86 60.28 
L 155.11 59.20 
L 157.35 58.12 
L 159.60 57.05 
L 161.85 55.98 
L 164.10 54.93 
L 166.34 53.88 
L 168.59 52.83 
L 170.84 51.80 
L 173.09 50.77 
L 175.33 49.75 
L 177.58 48.73 
L 179.83 47.72 
L 182.08 46.71 
L 184.32 45.71 
L 186.57 44.72 
L 188.82 43.73 
L 191.07 42.75 
L 193.31 41.78 
L 195.56 40.81 
L 197.81 39.84 
L 200.06 38.88 
L 202.30 37.93 
L 204.55 36.98 
L 206.80 36.04 
L 209.05 35.10 
L 211.29 34.16 
L 213.54 33.23 
L 215.79 32.31 
L 218.03 31.39 
L 220.28 30.47 
L 222.53 29.56 
" style="fill: none; stroke: #2563eb; stroke-width: 1.5; stroke-linecap: square"/>
 </g>
 <g>
 <path d="M 44.98 115.95 
L 222.53 24.04 
" style="fill: none; stroke-dasharray: 4.44,1.92; stroke-dashoffset: 0; stroke: #f59e0b; stroke-width: 1.2"/>
 </g>
 <g>
 <path d="M 36.11 145.8 
L 36.11 7.2 
" style="fill: none; stroke: #9ca3af; stroke-width: 0.6; stroke-linejoin: miter; stroke-linecap: square"/>
 </g>
 <g>
 <path d="M 231.41 145.8 
L 231.41 7.2 
" style="fill: none; stroke: #9ca3af; stroke-width: 0.6; stroke-linejoin: miter; stroke-linecap: square"/>
 </g>
 <g>
 <path d="M 36.11 145.8 
L 231.41 145.8 
" style="fill: none; stroke: #9ca3af; stroke-width: 0.6; stroke-linejoin: miter; stroke-linecap: square"/>
 </g>
 <g>
 <path d="M 36.11 7.2 
L 231.41 7.2 
" style="fill: none; stroke: #9ca3af; stroke-width: 0.6; stroke-linejoin: miter; stroke-linecap: square"/>
 </g>
 <g>
 <text style="fill: #111827; font: 6px 'DejaVu Sans', 'Bitstream Vera Sans', 'Computer Modern Sans Serif', 'Lucida Grande', 'Verdana', 'Geneva', 'Lucid', 'Arial', 'Helvetica', 'Avant Garde', sans-serif; text-anchor: start" x="126.08" y="68.56" transform="rotate(-0 126.08 68.56)">(1, 2.24)</text>
 </g>
 <g>
 <text style="fill: #111827; font: 6px 'DejaVu Sans', 'Bitstream Vera Sans', 'Computer Modern Sans Serif', 'Lucida Grande', 'Verdana', 'Geneva', 'Lucid', 'Arial', 'Helvetica', 'Avant Garde', sans-serif; text-anchor: start" x="151.44" y="75.43" transform="rotate(-0 151.44 75.43)">(2, 2.45)</text>
 </g>
 <g>
 <defs>
 <path d="M 0 2.5 
C 0.66 2.5 1.30 2.24 1.77 1.77 
C 2.24 1.30 2.5 0.66 2.5 0 
C 2.5 -0.66 2.24 -1.30 1.77 -1.77 
C 1.30 -2.24 0.66 -2.5 0 -2.5 
C -0.66 -2.5 -1.30 -2.24 -1.77 -1.77 
C -2.24 -1.30 -2.5 -0.66 -2.5 0 
C -2.5 0.66 -2.24 1.30 -1.77 1.77 
C -1.30 2.24 -0.66 2.5 0 2.5 
z
" style="stroke: #111827"/>
 </defs>
 <g>
 <use xlink:href="#me5b389cabf" x="121.08" y="76.56" style="fill: #111827; stroke: #111827"/>
 </g>
 </g>
 <g>
 <g>
 <use xlink:href="#me5b389cabf" x="146.44" y="63.43" style="fill: #111827; stroke: #111827"/>
 </g>
 </g>
 </g>
 </g>
 <defs>
 </defs>
</svg>