<?xml version="1.0" encoding="utf-8" standalone="no"?>
<!DOCTYPE svg PUBLIC "-//W3C//DTD SVG 1.1//EN"
 "http://www.w3.org/Graphics/SVG/1.1/DTD/svg11.dtd">
<svg xmlns:xlink="http://www.w3.org/1999/xlink" width="231.93pt" height="177.55pt" viewBox="0 0 231.93 177.55" xmlns="http://www.w3.org/2000/svg" version="1.1">
 <g>
 <g>
 <path d="M 0 177.55 
L 231.93 177.55 
L 231.93 0 
L 0 0 
L 0 177.55 
z
" style="fill: none"/>
 </g>
 <g>
 <g>
 <path d="M 29.43 145.8 
L 224.73 145.8 
L 224.73 7.2 
L 29.43 7.2 
L 29.43 145.8 
z
" style="fill: none"/>
 </g>
 <g>
 <g>
 <g>
 <path d="M 63.67 145.8 
L 63.67 7.2 
" style="fill: none; stroke: #e5e7eb; stroke-opacity: 0.6; stroke-width: 0.5; stroke-linecap: square"/>
 </g>
 <g>
 <defs>
 <path d="M 0 0 
L 0 3.5 
" style="stroke: #9ca3af; stroke-width: 0.8"/>
 </defs>
 <g>
 <use xlink:href="#me8382fcc42" x="63.67" y="145.8" style="fill: #9ca3af; stroke: #9ca3af; stroke-width: 0.8"/>
 </g>
 </g>
 <g>
 <text style="fill: #9ca3af; font: 7px 'DejaVu Sans', 'Bitstream Vera Sans', 'Computer Modern Sans Serif', 'Lucida Grande', 'Verdana', 'Geneva', 'Lucid', 'Arial', 'Helvetica', 'Avant Garde', sans-serif; text-anchor: middle" x="63.67" y="158.12" transform="rotate(-0 63.67 158.12)">0</text>
 </g>
 </g>
 <g>
 <g>
 <path d="M 114.40 145.8 
L 114.40 7.2 
" style="fill: none; stroke: #e5e7eb; stroke-opacity: 0.6; stroke-width: 0.5; stroke-linecap: square"/>
 </g>
 <g>
 <g>
 <use xlink:href="#me8382fcc42" x="114.40" y="145.8" style="fill: #9ca3af; stroke: #9ca3af; stroke-width: 0.8"/>
 </g>
 </g>
 <g>
 <text style="fill: #9ca3af; font: 7px 'DejaVu Sans', 'Bitstream Vera Sans', 'Computer Modern Sans Serif', 'Lucida Grande', 'Verdana', 'Geneva', 'Lucid', 'Arial', 'Helvetica', 'Avant Garde', sans-serif; text-anchor: middle" x="114.40" y="158.12" transform="rotate(-0 114.40 158.12)">2</text>
 </g>
 </g>
 <g>
 <g>
 <path d="M 165.12 145.8 
L 165.12 7.2 
" style="fill: none; stroke: #e5e7eb; stroke-opacity: 0.6; stroke-width: 0.5; stroke-linecap: square"/>
 </g>
 <g>
 <g>
 <use xlink:href="#me8382fcc42" x="165.12" y="145.8" style="fill: #9ca3af; stroke: #9ca3af; stroke-width: 0.8"/>
 </g>
 </g>
 <g>
 <text style="fill: #9ca3af; font: 7px 'DejaVu Sans', 'Bitstream Vera Sans', 'Computer Modern Sans Serif', 'Lucida Grande', 'Verdana', 'Geneva', 'Lucid', 'Arial', 'Helvetica', 'Avant Garde', sans-serif; text-anchor: middle" x="165.12" y="158.12" transform="rotate(-0 165.12 158.12)">4</text>
 </g>
 </g>
 <g>
 <g>
 <path d="M 215.85 145.8 
L 215.85 7.2 
" style="fill: none; stroke: #e5e7eb; stroke-opacity: 0.6; stroke-width: 0.5; stroke-linecap: square"/>
 </g>
 <g>
 <g>
 <use xlink:href="#me8382fcc42" x="215.85" y="145.8" style="fill: #9ca3af; stroke: #9ca3af; stroke-width: 0.8"/>
 </g>
 </g>
 <g>
 <text style="fill: #9ca3af; font: 7px 'DejaVu Sans', 'Bitstream Vera Sans', 'Computer Modern Sans Serif', 'Lucida Grande', 'Verdana', 'Geneva', 'Lucid', 'Arial', 'Helvetica', 'Avant Garde', sans-serif; text-anchor: middle" x="215.85" y="158.12" transform="rotate(-0 215.85 158.12)">6</text>
 </g>
 </g>
 <g>
 <text style="fill: #9ca3af; font: 7px 'DejaVu Sans', 'Bitstream Vera Sans', 'Computer Modern Sans Serif', 'Lucida Grande', 'Verdana', 'Geneva', 'Lucid', 'Arial', 'Helvetica', 'Avant Garde', sans-serif; text-anchor: middle" x="127.08" y="168.89" transform="rotate(-0 127.08 168.89)">x</text>
 </g>
 </g>
 <g>
 <g>
 <g>
 <path d="M 29.43 125.83 
L 224.73 125.83 
" style="fill: none; stroke: #e5e7eb; stroke-opacity: 0.6; stroke-width: 0.5; stroke-linecap: square"/>
 </g>
 <g>
 <defs>
 <path d="M 0 0 
L -3.5 0 
" style="stroke: #9ca3af; stroke-width: 0.8"/>
 </defs>
 <g>
 <use xlink:href="#m46e5927f7a" x="29.43" y="125.83" style="fill: #9ca3af; stroke: #9ca3af; stroke-width: 0.8"/>
 </g>
 </g>
 <g>
 <text style="fill: #9ca3af; font: 7px 'DejaVu Sans', 'Bitstream Vera Sans', 'Computer Modern Sans Serif', 'Lucida Grande', 'Verdana', 'Geneva', 'Lucid', 'Arial', 'Helvetica', 'Avant Garde', sans-serif; text-anchor: end" x="22.43" y="128.49" transform="rotate(-0 22.43 128.49)">0</text>
 </g>
 </g>
 <g>
 <g>
 <path d="M 29.43 85.79 
L 224.73 85.79 
" style="fill: none; stroke: #e5e7eb; stroke-opacity: 0.6; stroke-width: 0.5; stroke-linecap: square"/>
 </g>
 <g>
 <g>
 <use xlink:href="#m46e5927f7a" x="29.43" y="85.79" style="fill: #9ca3af; stroke: #9ca3af; stroke-width: 0.8"/>
 </g>
 </g>
 <g>
 <text style="fill: #9ca3af; font: 7px 'DejaVu Sans', 'Bitstream Vera Sans', 'Computer Modern Sans Serif', 'Lucida Grande', 'Verdana', 'Geneva', 'Lucid', 'Arial', 'Helvetica', 'Avant Garde', sans-serif; text-anchor: end" x="22.43" y="88.45" transform="rotate(-0 22.43 88.45)">1</text>
 </g>
 </g>
 <g>
 <g>
 <path d="M 29.43 45.74 
L 224.73 45.74 
" style="fill: none; stroke: #e5e7eb; stroke-opacity: 0.6; stroke-width: 0.5; stroke-linecap: square"/>
 </g>
 <g>
 <g>
 <use xlink:href="#m46e5927f7a" x="29.43" y="45.74" style="fill: #9ca3af; stroke: #9ca3af; stroke-width: 0.8"/>
 </g>
 </g>
 <g>
 <text style="fill: #9ca3af; font: 7px 'DejaVu Sans', 'Bitstream Vera Sans', 'Computer Modern Sans Serif', 'Lucida Grande', 'Verdana', 'Geneva', 'Lucid', 'Arial', 'Helvetica', 'Avant Garde', sans-serif; text-anchor: end" x="22.43" y="48.40" transform="rotate(-0 22.43 48.40)">2</text>
 </g>
 </g>
 <g>
 <text style="fill: #9ca3af; font: 7px 'DejaVu Sans', 'Bitstream Vera Sans', 'Computer Modern Sans Serif', 'Lucida Grande', 'Verdana', 'Geneva', 'Lucid', 'Arial', 'Helvetica', 'Avant Garde', sans-serif; text-anchor: middle" x="12.52" y="76.5" transform="rotate(-90 12.52 76.5)">y</text>
 </g>
 </g>
 <g>
 <path d="M 46.47 -1 
L 47.30 12.85 
L 49.54 35.45 
L 51.79 50.51 
L 54.04 61.27 
L 56.28 69.34 
L 58.53 75.62 
L 60.78 80.64 
L 63.03 84.75 
L 65.27 88.17 
L 67.52 91.07 
L 69.77 93.55 
L 72.02 95.70 
L 74.26 97.59 
L 76.51 99.25 
L 78.76 100.72 
L 81.01 102.05 
L 83.25 103.23 
L 85.50 104.31 
L 87.75 105.29 
L 90.00 106.18 
L 92.24 107.00 
L 94.49 107.75 
L 96.74 108.45 
L 98.99 109.09 
L 101.23 109.69 
L 103.48 110.25 
L 105.73 110.77 
L 107.98 111.25 
L 110.22 111.71 
L 112.47 112.14 
L 114.72 112.54 
L 116.97 112.92 
L 119.21 113.28 
L 121.46 113.62 
L 123.71 113.94 
L 125.95 114.24 
L 128.20 114.53 
L 130.45 114.81 
L 132.70 115.07 
L 134.94 115.32 
L 137.19 115.56 
L 139.44 115.79 
L 141.69 116.01 
L 143.93 116.21 
L 146.18 116.42 
L 148.43 116.61 
L 150.68 116.79 
L 152.92 116.97 
L 155.17 117.14 
L 157.42 117.30 
L 159.67 117.46 
L 161.91 117.61 
L 164.16 117.76 
L 166.41 117.90 
L 168.66 118.04 
L 170.90 118.17 
L 173.15 118.30 
L 175.40 118.42 
L 177.65 118.54 
L 179.89 118.66 
L 182.14 118.77 
L 184.39 118.88 
L 186.63 118.98 
L 188.88 119.09 
L 191.13 119.18 
L 193.38 119.28 
L 195.62 119.37 
L 197.87 119.47 
L 200.12 119.55 
L 202.37 119.64 
L 204.61 119.72 
L 206.86 119.80 
L 209.11 119.88 
L 211.36 119.96 
L 213.60 120.04 
L 215.85 120.11 
" style="fill: none; stroke: #2563eb; stroke-width: 1.5; stroke-linecap: square"/>
 </g>
 <g>
 <path d="M 38.31 102.47 
L 215.85 125.83 
" style="fill: none; stroke-dasharray: 4.44,1.92; stroke-dashoffset: 0; stroke: #f59e0b; stroke-width: 1.2"/>
 </g>
 <g>
 <path d="M 29.43 145.8 
L 29.43 7.2 
" style="fill: none; stroke: #9ca3af; stroke-width: 0.6; stroke-linejoin: miter; stroke-linecap: square"/>
 </g>
 <g>
 <path d="M 224.73 145.8 
L 224.73 7.2 
" style="fill: none; stroke: #9ca3af; stroke-width: 0.6; stroke-linejoin: miter; stroke-linecap: square"/>
 </g>
 <g>
 <path d="M 29.43 145.8 
L 224.73 145.8 
" style="fill: none; stroke: #9ca3af; stroke-width: 0.6; stroke-linejoin: miter; stroke-linecap: square"/>
 </g>
 <g>
 <path d="M 29.43 7.2 
L 224.73 7.2 
" style="fill: none; stroke: #9ca3af; stroke-width: 0.6; stroke-linejoin: miter; stroke-linecap: square"/>
 </g>
 <g>
 <text style="fill: #111827; font: 6px 'DejaVu Sans', 'Bitstream Vera Sans', 'Computer Modern Sans Serif', 'Lucida Grande', 'Verdana', 'Geneva', 'Lucid', 'Arial', 'Helvetica', 'Avant Garde', sans-serif; text-anchor: start" x="119.40" y="104.48" transform="rotate(-0 119.40 104.48)">(2, 0.33)</text>
 </g>
 <g>
 <text style="fill: #111827; font: 6px 'DejaVu Sans', 'Bitstream Vera Sans', 'Computer Modern Sans Serif', 'Lucida Grande', 'Verdana', 'Geneva', 'Lucid', 'Arial', 'Helvetica', 'Avant Garde', sans-serif; text-anchor: start" x="144.76" y="127.82" transform="rotate(-0 144.76 127.82)">(3, 0.25)</text>
 </g>
 <g>
 <defs>
 <path d="M 0 2.5 
C 0.66 2.5 1.30 2.24 1.77 1.77 
C 2.24 1.30 2.5 0.66 2.5 0 
C 2.5 -0.66 2.24 -1.30 1.77 -1.77 
C 1.30 -2.24 0.66 -2.5 0 -2.5 
C -0.66 -2.5 -1.30 -2.24 -1.77 -1.77 
C -2.24 -1.30 -2.5 -0.66 -2.5 0 
C -2.5 0.66 -2.24 1.30 -1.77 1.77 
C -1.30 2.24 -0.66 2.5 0 2.5 
z
" style="stroke: #111827"/>
 </defs>
 <g>
 <use xlink:href="#m47acf5ef3b" x="114.40" y="112.48" style="fill: #111827; stroke: #111827"/>
 </g>
 </g>
 <g>
 <g>
 <use xlink:href="#m47acf5ef3b" x="139.76" y="115.82" style="fill: #111827; stroke: #111827"/>
 </g>
 </g>
 </g>
 </g>
 <defs>
 </defs>
</svg>