<?xml version="1.0" encoding="utf-8" standalone="no"?>
<!DOCTYPE svg PUBLIC "-//W3C//DTD SVG 1.1//EN"
 "http://www.w3.org/Graphics/SVG/1.1/DTD/svg11.dtd">
<svg xmlns:xlink="http://www.w3.org/1999/xlink" width="237.79pt" height="177.55pt" viewBox="0 0 237.79 177.55" xmlns="http://www.w3.org/2000/svg" version="1.1">
 <g>
 <g>
 <path d="M 0 177.55 
L 237.79 177.55 
L 237.79 0 
L 0 0 
L 0 177.55 
z
" style="fill: none"/>
 </g>
 <g>
 <g>
 <path d="M 35.29 145.8 
L 230.59 145.8 
L 230.59 7.2 
L 35.29 7.2 
L 35.29 145.8 
z
" style="fill: none"/>
 </g>
 <g>
 <defs>
 <path d="M 44.17 -150.25 
L 44.17 -51.85 
L 46.42 -54.31 
L 48.67 -56.70 
L 50.91 -59.04 
L 53.16 -61.31 
L 55.41 -63.51 
L 57.66 -65.66 
L 59.90 -67.74 
L 62.15 -69.76 
L 64.40 -71.71 
L 66.65 -73.61 
L 68.89 -75.43 
L 71.14 -77.20 
L 73.39 -78.90 
L 75.64 -80.54 
L 77.88 -82.12 
L 80.13 -83.63 
L 82.38 -85.08 
L 84.62 -86.47 
L 86.87 -87.80 
L 89.12 -89.06 
L 91.37 -90.26 
L 93.61 -91.39 
L 95.86 -92.46 
L 98.11 -93.47 
L 100.36 -94.42 
L 102.60 -95.30 
L 104.85 -96.12 
L 107.10 -96.88 
L 109.35 -97.57 
L 111.59 -98.20 
L 113.84 -98.77 
L 116.09 -99.28 
L 118.34 -99.72 
L 120.58 -100.10 
L 122.83 -100.41 
L 125.08 -100.66 
L 127.33 -100.85 
L 129.57 -100.98 
L 131.82 -101.04 
L 134.07 -101.04 
L 136.32 -100.98 
L 138.56 -100.85 
L 140.81 -100.66 
L 143.06 -100.41 
L 145.30 -100.10 
L 147.55 -99.72 
L 149.80 -99.28 
L 152.05 -98.77 
L 154.29 -98.20 
L 156.54 -97.57 
L 158.79 -96.88 
L 161.04 -96.12 
L 163.28 -95.30 
L 165.53 -94.42 
L 167.78 -93.47 
L 170.03 -92.46 
L 172.27 -91.39 
L 174.52 -90.26 
L 176.77 -89.06 
L 179.02 -87.80 
L 181.26 -86.47 
L 183.51 -85.08 
L 185.76 -83.63 
L 188.01 -82.12 
L 190.25 -80.54 
L 192.50 -78.90 
L 194.75 -77.20 
L 197.00 -75.43 
L 199.24 -73.61 
L 201.49 -71.71 
L 203.74 -69.76 
L 205.99 -67.74 
L 208.23 -65.66 
L 210.48 -63.51 
L 212.73 -61.31 
L 214.97 -59.04 
L 217.22 -56.70 
L 219.47 -54.31 
L 221.72 -51.85 
L 221.72 -150.25 
L 221.72 -150.25 
L 219.47 -147.79 
L 217.22 -145.40 
L 214.97 -143.06 
L 212.73 -140.79 
L 210.48 -138.58 
L 208.23 -136.44 
L 205.99 -134.36 
L 203.74 -132.34 
L 201.49 -130.39 
L 199.24 -128.49 
L 197.00 -126.66 
L 194.75 -124.90 
L 192.50 -123.20 
L 190.25 -121.56 
L 188.01 -119.98 
L 185.76 -118.47 
L 183.51 -117.01 
L 181.26 -115.63 
L 179.02 -114.30 
L 176.77 -113.04 
L 174.52 -111.84 
L 172.27 -110.71 
L 170.03 -109.64 
L 167.78 -108.63 
L 165.53 -107.68 
L 163.28 -106.80 
L 161.04 -105.98 
L 158.79 -105.22 
L 156.54 -104.53 
L 154.29 -103.90 
L 152.05 -103.33 
L 149.80 -102.82 
L 147.55 -102.38 
L 145.30 -102.00 
L 143.06 -101.69 
L 140.81 -101.44 
L 138.56 -101.25 
L 136.32 -101.12 
L 134.07 -101.06 
L 131.82 -101.06 
L 129.57 -101.12 
L 127.33 -101.25 
L 125.08 -101.44 
L 122.83 -101.69 
L 120.58 -102.00 
L 118.34 -102.38 
L 116.09 -102.82 
L 113.84 -103.33 
L 111.59 -103.90 
L 109.35 -104.53 
L 107.10 -105.22 
L 104.85 -105.98 
L 102.60 -106.80 
L 100.36 -107.68 
L 98.11 -108.63 
L 95.86 -109.64 
L 93.61 -110.71 
L 91.37 -111.84 
L 89.12 -113.04 
L 86.87 -114.30 
L 84.62 -115.63 
L 82.38 -117.01 
L 80.13 -118.47 
L 77.88 -119.98 
L 75.64 -121.56 
L 73.39 -123.20 
L 71.14 -124.90 
L 68.89 -126.66 
L 66.65 -128.49 
L 64.40 -130.39 
L 62.15 -132.34 
L 59.90 -134.36 
L 57.66 -136.44 
L 55.41 -138.58 
L 53.16 -140.79 
L 50.91 -143.06 
L 48.67 -145.40 
L 46.42 -147.79 
L 44.17 -150.25 
z
" style="stroke: #6b7280; stroke-opacity: 0.06"/>
 </defs>
 <g>
 <use xlink:href="#mc4d99287d5" x="0" y="177.55" style="fill: #6b7280; fill-opacity: 0.06; stroke: #6b7280; stroke-opacity: 0.06"/>
 </g>
 </g>
 <g>
 <g>
 <g>
 <path d="M 73.76 145.8 
L 73.76 7.2 
" style="fill: none; stroke: #e5e7eb; stroke-opacity: 0.6; stroke-width: 0.5; stroke-linecap: square"/>
 </g>
 <g>
 <defs>
 <path d="M 0 0 
L 0 3.5 
" style="stroke: #9ca3af; stroke-width: 0.8"/>
 </defs>
 <g>
 <use xlink:href="#m6371524a5d" x="73.76" y="145.8" style="fill: #9ca3af; stroke: #9ca3af; stroke-width: 0.8"/>
 </g>
 </g>
 <g>
 <text style="fill: #9ca3af; font: 7px 'DejaVu Sans', 'Bitstream Vera Sans', 'Computer Modern Sans Serif', 'Lucida Grande', 'Verdana', 'Geneva', 'Lucid', 'Arial', 'Helvetica', 'Avant Garde', sans-serif; text-anchor: middle" x="73.76" y="158.12" transform="rotate(-0 73.76 158.12)">−1</text>
 </g>
 </g>
 <g>
 <g>
 <path d="M 132.94 145.8 
L 132.94 7.2 
" style="fill: none; stroke: #e5e7eb; stroke-opacity: 0.6; stroke-width: 0.5; stroke-linecap: square"/>
 </g>
 <g>
 <g>
 <use xlink:href="#m6371524a5d" x="132.94" y="145.8" style="fill: #9ca3af; stroke: #9ca3af; stroke-width: 0.8"/>
 </g>
 </g>
 <g>
 <text style="fill: #9ca3af; font: 7px 'DejaVu Sans', 'Bitstream Vera Sans', 'Computer Modern Sans Serif', 'Lucida Grande', 'Verdana', 'Geneva', 'Lucid', 'Arial', 'Helvetica', 'Avant Garde', sans-serif; text-anchor: middle" x="132.94" y="158.12" transform="rotate(-0 132.94 158.12)">0</text>
 </g>
 </g>
 <g>
 <g>
 <path d="M 192.13 145.8 
L 192.13 7.2 
" style="fill: none; stroke: #e5e7eb; stroke-opacity: 0.6; stroke-width: 0.5; stroke-linecap: square"/>
 </g>
 <g>
 <g>
 <use xlink:href="#m6371524a5d" x="192.13" y="145.8" style="fill: #9ca3af; stroke: #9ca3af; stroke-width: 0.8"/>
 </g>
 </g>
 <g>
 <text style="fill: #9ca3af; font: 7px 'DejaVu Sans', 'Bitstream Vera Sans', 'Computer Modern Sans Serif', 'Lucida Grande', 'Verdana', 'Geneva', 'Lucid', 'Arial', 'Helvetica', 'Avant Garde', sans-serif; text-anchor: middle" x="192.13" y="158.12" transform="rotate(-0 192.13 158.12)">1</text>
 </g>
 </g>
 <g>
 <text style="fill: #9ca3af; font: 7px 'DejaVu Sans', 'Bitstream Vera Sans', 'Computer Modern Sans Serif', 'Lucida Grande', 'Verdana', 'Geneva', 'Lucid', 'Arial', 'Helvetica', 'Avant Garde', sans-serif; text-anchor: middle" x="132.94" y="168.89" transform="rotate(-0 132.94 168.89)">x</text>
 </g>
 </g>
 <g>
 <g>
 <g>
 <path d="M 35.29 120.24 
L 230.59 120.24 
" style="fill: none; stroke: #e5e7eb; stroke-opacity: 0.6; stroke-width: 0.5; stroke-linecap: square"/>
 </g>
 <g>
 <defs>
 <path d="M 0 0 
L -3.5 0 
" style="stroke: #9ca3af; stroke-width: 0.8"/>
 </defs>
 <g>
 <use xlink:href="#m2d0da61487" x="35.29" y="120.24" style="fill: #9ca3af; stroke: #9ca3af; stroke-width: 0.8"/>
 </g>
 </g>
 <g>
 <text style="fill: #9ca3af; font: 7px 'DejaVu Sans', 'Bitstream Vera Sans', 'Computer Modern Sans Serif', 'Lucida Grande', 'Verdana', 'Geneva', 'Lucid', 'Arial', 'Helvetica', 'Avant Garde', sans-serif; text-anchor: end" x="28.29" y="122.90" transform="rotate(-0 28.29 122.90)">−2</text>
 </g>
 </g>
 <g>
 <g>
 <path d="M 35.29 76.5 
L 230.59 76.5 
" style="fill: none; stroke: #e5e7eb; stroke-opacity: 0.6; stroke-width: 0.5; stroke-linecap: square"/>
 </g>
 <g>
 <g>
 <use xlink:href="#m2d0da61487" x="35.29" y="76.5" style="fill: #9ca3af; stroke: #9ca3af; stroke-width: 0.8"/>
 </g>
 </g>
 <g>
 <text style="fill: #9ca3af; font: 7px 'DejaVu Sans', 'Bitstream Vera Sans', 'Computer Modern Sans Serif', 'Lucida Grande', 'Verdana', 'Geneva', 'Lucid', 'Arial', 'Helvetica', 'Avant Garde', sans-serif; text-anchor: end" x="28.29" y="79.16" transform="rotate(-0 28.29 79.16)">0</text>
 </g>
 </g>
 <g>
 <g>
 <path d="M 35.29 32.76 
L 230.59 32.76 
" style="fill: none; stroke: #e5e7eb; stroke-opacity: 0.6; stroke-width: 0.5; stroke-linecap: square"/>
 </g>
 <g>
 <g>
 <use xlink:href="#m2d0da61487" x="35.29" y="32.76" style="fill: #9ca3af; stroke: #9ca3af; stroke-width: 0.8"/>
 </g>
 </g>
 <g>
 <text style="fill: #9ca3af; font: 7px 'DejaVu Sans', 'Bitstream Vera Sans', 'Computer Modern Sans Serif', 'Lucida Grande', 'Verdana', 'Geneva', 'Lucid', 'Arial', 'Helvetica', 'Avant Garde', sans-serif; text-anchor: end" x="28.29" y="35.42" transform="rotate(-0 28.29 35.42)">2</text>
 </g>
 </g>
 <g>
 <text style="fill: #9ca3af; font: 7px 'DejaVu Sans', 'Bitstream Vera Sans', 'Computer Modern Sans Serif', 'Lucida Grande', 'Verdana', 'Geneva', 'Lucid', 'Arial', 'Helvetica', 'Avant Garde', sans-serif; text-anchor: middle" x="12.52" y="76.5" transform="rotate(-90 12.52 76.5)">y</text>
 </g>
 </g>
 <g>
 <path d="M 44.17 27.30 
L 46.42 29.76 
L 48.67 32.15 
L 50.91 34.49 
L 53.16 36.76 
L 55.41 38.96 
L 57.66 41.11 
L 59.90 43.19 
L 62.15 45.21 
L 64.40 47.16 
L 66.65 49.06 
L 68.89 50.89 
L 71.14 52.65 
L 73.39 54.35 
L 75.64 55.99 
L 77.88 57.57 
L 80.13 59.08 
L 82.38 60.53 
L 84.62 61.92 
L 86.87 63.25 
L 89.12 64.51 
L 91.37 65.71 
L 93.61 66.84 
L 95.86 67.91 
L 98.11 68.92 
L 100.36 69.87 
L 102.60 70.75 
L 104.85 71.57 
L 107.10 72.33 
L 109.35 73.02 
L 111.59 73.65 
L 113.84 74.22 
L 116.09 74.73 
L 118.34 75.17 
L 120.58 75.55 
L 122.83 75.86 
L 125.08 76.11 
L 127.33 76.30 
L 129.57 76.43 
L 131.82 76.49 
L 134.07 76.49 
L 136.32 76.43 
L 138.56 76.30 
L 140.81 76.11 
L 143.06 75.86 
L 145.30 75.55 
L 147.55 75.17 
L 149.80 74.73 
L 152.05 74.22 
L 154.29 73.65 
L 156.54 73.02 
L 158.79 72.33 
L 161.04 71.57 
L 163.28 70.75 
L 165.53 69.87 
L 167.78 68.92 
L 170.03 67.91 
L 172.27 66.84 
L 174.52 65.71 
L 176.77 64.51 
L 179.02 63.25 
L 181.26 61.92 
L 183.51 60.53 
L 185.76 59.08 
L 188.01 57.57 
L 190.25 55.99 
L 192.50 54.35 
L 194.75 52.65 
L 197.00 50.89 
L 199.24 49.06 
L 201.49 47.16 
L 203.74 45.21 
L 205.99 43.19 
L 208.23 41.11 
L 210.48 38.96 
L 212.73 36.76 
L 214.97 34.49 
L 217.22 32.15 
L 219.47 29.76 
L 221.72 27.30 
" style="fill: none; stroke-dasharray: 3.7,1.6; stroke-dashoffset: 0; stroke: #6b7280; stroke-opacity: 0.7"/>
 </g>
 <g>
 <path d="M 44.17 125.70 
L 46.42 123.24 
L 48.67 120.85 
L 50.91 118.51 
L 53.16 116.24 
L 55.41 114.04 
L 57.66 111.89 
L 59.90 109.81 
L 62.15 107.79 
L 64.40 105.84 
L 66.65 103.94 
L 68.89 102.11 
L 71.14 100.35 
L 73.39 98.65 
L 75.64 97.01 
L 77.88 95.43 
L 80.13 93.92 
L 82.38 92.47 
L 84.62 91.08 
L 86.87 89.75 
L 89.12 88.49 
L 91.37 87.29 
L 93.61 86.16 
L 95.86 85.09 
L 98.11 84.08 
L 100.36 83.13 
L 102.60 82.25 
L 104.85 81.43 
L 107.10 80.67 
L 109.35 79.98 
L 111.59 79.35 
L 113.84 78.78 
L 116.09 78.27 
L 118.34 77.83 
L 120.58 77.45 
L 122.83 77.14 
L 125.08 76.89 
L 127.33 76.70 
L 129.57 76.57 
L 131.82 76.51 
L 134.07 76.51 
L 136.32 76.57 
L 138.56 76.70 
L 140.81 76.89 
L 143.06 77.14 
L 145.30 77.45 
L 147.55 77.83 
L 149.80 78.27 
L 152.05 78.78 
L 154.29 79.35 
L 156.54 79.98 
L 158.79 80.67 
L 161.04 81.43 
L 163.28 82.25 
L 165.53 83.13 
L 167.78 84.08 
L 170.03 85.09 
L 172.27 86.16 
L 174.52 87.29 
L 176.77 88.49 
L 179.02 89.75 
L 181.26 91.08 
L 183.51 92.47 
L 185.76 93.92 
L 188.01 95.43 
L 190.25 97.01 
L 192.50 98.65 
L 194.75 100.35 
L 197.00 102.11 
L 199.24 103.94 
L 201.49 105.84 
L 203.74 107.79 
L 205.99 109.81 
L 208.23 111.89 
L 210.48 114.04 
L 212.73 116.24 
L 214.97 118.51 
L 217.22 120.85 
L 219.47 123.24 
L 221.72 125.70 
" style="fill: none; stroke-dasharray: 3.7,1.6; stroke-dashoffset: 0; stroke: #6b7280; stroke-opacity: 0.7"/>
 </g>
 <g>
 <path d="M 44.17 28.68 
L 46.42 30.71 
L 48.67 32.76 
L 50.91 34.83 
L 53.16 36.91 
L 55.41 39.00 
L 57.66 41.11 
L 59.90 43.23 
L 62.15 45.37 
L 64.40 47.52 
L 66.65 49.68 
L 68.89 51.86 
L 71.14 54.05 
L 73.39 56.25 
L 75.64 58.45 
L 77.88 60.65 
L 80.13 62.85 
L 82.38 65.04 
L 84.62 67.20 
L 86.87 69.32 
L 89.12 71.38 
L 91.37 73.36 
L 93.61 75.23 
L 95.86 76.93 
L 98.11 78.42 
L 100.36 79.62 
L 102.60 80.46 
L 104.85 80.83 
L 107.10 80.63 
L 109.35 79.82 
L 111.59 78.42 
L 113.84 76.70 
L 116.09 75.31 
L 118.34 75.21 
L 120.58 76.64 
L 122.83 76.99 
L 125.08 76.26 
L 127.33 76.34 
L 129.57 76.54 
L 131.82 76.51 
L 134.07 76.49 
L 136.32 76.46 
L 138.56 76.66 
L 140.81 76.74 
L 143.06 76.01 
L 145.30 76.36 
L 147.55 77.79 
L 149.80 77.69 
L 152.05 76.30 
L 154.29 74.58 
L 156.54 73.18 
L 158.79 72.37 
L 161.04 72.17 
L 163.28 72.54 
L 165.53 73.38 
L 167.78 74.58 
L 170.03 76.07 
L 172.27 77.77 
L 174.52 79.64 
L 176.77 81.62 
L 179.02 83.68 
L 181.26 85.80 
L 183.51 87.96 
L 185.76 90.15 
L 188.01 92.35 
L 190.25 94.55 
L 192.50 96.75 
L 194.75 98.95 
L 197.00 101.14 
L 199.24 103.32 
L 201.49 105.48 
L 203.74 107.63 
L 205.99 109.77 
L 208.23 111.89 
L 210.48 114.00 
L 212.73 116.09 
L 214.97 118.17 
L 217.22 120.24 
L 219.47 122.29 
L 221.72 124.32 
" style="fill: none; stroke: #2563eb; stroke-width: 1.5; stroke-linecap: square"/>
 </g>
 <g>
 <path d="M 35.29 76.5 
L 230.59 76.5 
" style="fill: none; stroke: #9ca3af; stroke-width: 0.4; stroke-linecap: square"/>
 </g>
 <g>
 <path d="M 132.94 145.8 
L 132.94 7.2 
" style="fill: none; stroke: #9ca3af; stroke-width: 0.4; stroke-linecap: square"/>
 </g>
 <g>
 <path d="M 35.29 145.8 
L 35.29 7.2 
" style="fill: none; stroke: #9ca3af; stroke-width: 0.6; stroke-linejoin: miter; stroke-linecap: square"/>
 </g>
 <g>
 <path d="M 230.59 145.8 
L 230.59 7.2 
" style="fill: none; stroke: #9ca3af; stroke-width: 0.6; stroke-linejoin: miter; stroke-linecap: square"/>
 </g>
 <g>
 <path d="M 35.29 145.8 
L 230.59 145.8 
" style="fill: none; stroke: #9ca3af; stroke-width: 0.6; stroke-linejoin: miter; stroke-linecap: square"/>
 </g>
 <g>
 <path d="M 35.29 7.2 
L 230.59 7.2 
" style="fill: none; stroke: #9ca3af; stroke-width: 0.6; stroke-linejoin: miter; stroke-linecap: square"/>
 </g>
 <g>
 <text style="fill: #16a34a; font: 700 7px 'DejaVu Sans', 'Bitstream Vera Sans', 'Computer Modern Sans Serif', 'Lucida Grande', 'Verdana', 'Geneva', 'Lucid', 'Arial', 'Helvetica', 'Avant Garde', sans-serif; text-anchor: start" x="140.94" y="68.5" transform="rotate(-0 140.94 68.5)">Limit = 0</text>
 </g>
 <g>
 <defs>
 <path d="M 0 3 
C 0.80 3 1.56 2.68 2.12 2.12 
C 2.68 1.56 3 0.80 3 0 
C 3 -0.80 2.68 -1.56 2.12 -2.12 
C 1.56 -2.68 0.80 -3 0 -3 
C -0.80 -3 -1.56 -2.68 -2.12 -2.12 
C -2.68 -1.56 -3 -0.80 -3 0 
C -3 0.80 -2.68 1.56 -2.12 2.12 
C -1.56 2.68 -0.80 3 0 3 
z
" style="stroke: #16a34a"/>
 </defs>
 <g>
 <use xlink:href="#m1fba0c5a0b" x="132.94" y="76.5" style="fill: #16a34a; stroke: #16a34a"/>
 </g>
 </g>
 </g>
 </g>
 <defs>
 </defs>
</svg>