<?xml version="1.0" encoding="utf-8" standalone="no"?>
<!DOCTYPE svg PUBLIC "-//W3C//DTD SVG 1.1//EN"
 "http://www.w3.org/Graphics/SVG/1.1/DTD/svg11.dtd">
<svg xmlns:xlink="http://www.w3.org/1999/xlink" width="237.79pt" height="177.55pt" viewBox="0 0 237.79 177.55" xmlns="http://www.w3.org/2000/svg" version="1.1">
 <g>
 <g>
 <path d="M 0 177.55 
L 237.79 177.55 
L 237.79 0 
L 0 0 
L 0 177.55 
z
" style="fill: none"/>
 </g>
 <g>
 <g>
 <path d="M 35.29 145.8 
L 230.59 145.8 
L 230.59 7.2 
L 35.29 7.2 
L 35.29 145.8 
z
" style="fill: none"/>
 </g>
 <g>
 <defs>
 <path d="M 44.17 -152.76 
L 44.17 -49.34 
L 46.42 -53.17 
L 48.67 -56.81 
L 50.91 -60.25 
L 53.16 -63.51 
L 55.41 -66.60 
L 57.66 -69.51 
L 59.90 -72.25 
L 62.15 -74.83 
L 64.40 -77.24 
L 66.65 -79.51 
L 68.89 -81.63 
L 71.14 -83.60 
L 73.39 -85.44 
L 75.64 -87.14 
L 77.88 -88.71 
L 80.13 -90.16 
L 82.38 -91.49 
L 84.62 -92.71 
L 86.87 -93.82 
L 89.12 -94.83 
L 91.37 -95.74 
L 93.61 -96.55 
L 95.86 -97.28 
L 98.11 -97.93 
L 100.36 -98.49 
L 102.60 -98.99 
L 104.85 -99.41 
L 107.10 -99.77 
L 109.35 -100.08 
L 111.59 -100.33 
L 113.84 -100.53 
L 116.09 -100.70 
L 118.34 -100.82 
L 120.58 -100.91 
L 122.83 -100.97 
L 125.08 -101.01 
L 127.33 -101.04 
L 129.57 -101.05 
L 131.82 -101.05 
L 134.07 -101.05 
L 136.32 -101.05 
L 138.56 -101.04 
L 140.81 -101.01 
L 143.06 -100.97 
L 145.30 -100.91 
L 147.55 -100.82 
L 149.80 -100.70 
L 152.05 -100.53 
L 154.29 -100.33 
L 156.54 -100.08 
L 158.79 -99.77 
L 161.04 -99.41 
L 163.28 -98.99 
L 165.53 -98.49 
L 167.78 -97.93 
L 170.03 -97.28 
L 172.27 -96.55 
L 174.52 -95.74 
L 176.77 -94.83 
L 179.02 -93.82 
L 181.26 -92.71 
L 183.51 -91.49 
L 185.76 -90.16 
L 188.01 -88.71 
L 190.25 -87.14 
L 192.50 -85.44 
L 194.75 -83.60 
L 197.00 -81.63 
L 199.24 -79.51 
L 201.49 -77.24 
L 203.74 -74.83 
L 205.99 -72.25 
L 208.23 -69.51 
L 210.48 -66.60 
L 212.73 -63.51 
L 214.97 -60.25 
L 217.22 -56.81 
L 219.47 -53.17 
L 221.72 -49.34 
L 221.72 -152.76 
L 221.72 -152.76 
L 219.47 -148.93 
L 217.22 -145.29 
L 214.97 -141.85 
L 212.73 -138.59 
L 210.48 -135.50 
L 208.23 -132.59 
L 205.99 -129.85 
L 203.74 -127.27 
L 201.49 -124.85 
L 199.24 -122.59 
L 197.00 -120.47 
L 194.75 -118.50 
L 192.50 -116.66 
L 190.25 -114.96 
L 188.01 -113.39 
L 185.76 -111.94 
L 183.51 -110.61 
L 181.26 -109.39 
L 179.02 -108.28 
L 176.77 -107.27 
L 174.52 -106.36 
L 172.27 -105.55 
L 170.03 -104.82 
L 167.78 -104.17 
L 165.53 -103.61 
L 163.28 -103.11 
L 161.04 -102.69 
L 158.79 -102.33 
L 156.54 -102.02 
L 154.29 -101.77 
L 152.05 -101.56 
L 149.80 -101.40 
L 147.55 -101.28 
L 145.30 -101.19 
L 143.06 -101.13 
L 140.81 -101.09 
L 138.56 -101.06 
L 136.32 -101.05 
L 134.07 -101.05 
L 131.82 -101.05 
L 129.57 -101.05 
L 127.33 -101.06 
L 125.08 -101.09 
L 122.83 -101.13 
L 120.58 -101.19 
L 118.34 -101.28 
L 116.09 -101.40 
L 113.84 -101.56 
L 111.59 -101.77 
L 109.35 -102.02 
L 107.10 -102.33 
L 104.85 -102.69 
L 102.60 -103.11 
L 100.36 -103.61 
L 98.11 -104.17 
L 95.86 -104.82 
L 93.61 -105.55 
L 91.37 -106.36 
L 89.12 -107.27 
L 86.87 -108.28 
L 84.62 -109.39 
L 82.38 -110.61 
L 80.13 -111.94 
L 77.88 -113.39 
L 75.64 -114.96 
L 73.39 -116.66 
L 71.14 -118.50 
L 68.89 -120.47 
L 66.65 -122.59 
L 64.40 -124.85 
L 62.15 -127.27 
L 59.90 -129.85 
L 57.66 -132.59 
L 55.41 -135.50 
L 53.16 -138.59 
L 50.91 -141.85 
L 48.67 -145.29 
L 46.42 -148.93 
L 44.17 -152.76 
z
" style="stroke: #6b7280; stroke-opacity: 0.06"/>
 </defs>
 <g>
 <use xlink:href="#m797a037506" x="0" y="177.55" style="fill: #6b7280; fill-opacity: 0.06; stroke: #6b7280; stroke-opacity: 0.06"/>
 </g>
 </g>
 <g>
 <g>
 <g>
 <path d="M 73.76 145.8 
L 73.76 7.2 
" style="fill: none; stroke: #e5e7eb; stroke-opacity: 0.6; stroke-width: 0.5; stroke-linecap: square"/>
 </g>
 <g>
 <defs>
 <path d="M 0 0 
L 0 3.5 
" style="stroke: #9ca3af; stroke-width: 0.8"/>
 </defs>
 <g>
 <use xlink:href="#m5ead89e321" x="73.76" y="145.8" style="fill: #9ca3af; stroke: #9ca3af; stroke-width: 0.8"/>
 </g>
 </g>
 <g>
 <text style="fill: #9ca3af; font: 7px 'DejaVu Sans', 'Bitstream Vera Sans', 'Computer Modern Sans Serif', 'Lucida Grande', 'Verdana', 'Geneva', 'Lucid', 'Arial', 'Helvetica', 'Avant Garde', sans-serif; text-anchor: middle" x="73.76" y="158.12" transform="rotate(-0 73.76 158.12)">−1</text>
 </g>
 </g>
 <g>
 <g>
 <path d="M 132.94 145.8 
L 132.94 7.2 
" style="fill: none; stroke: #e5e7eb; stroke-opacity: 0.6; stroke-width: 0.5; stroke-linecap: square"/>
 </g>
 <g>
 <g>
 <use xlink:href="#m5ead89e321" x="132.94" y="145.8" style="fill: #9ca3af; stroke: #9ca3af; stroke-width: 0.8"/>
 </g>
 </g>
 <g>
 <text style="fill: #9ca3af; font: 7px 'DejaVu Sans', 'Bitstream Vera Sans', 'Computer Modern Sans Serif', 'Lucida Grande', 'Verdana', 'Geneva', 'Lucid', 'Arial', 'Helvetica', 'Avant Garde', sans-serif; text-anchor: middle" x="132.94" y="158.12" transform="rotate(-0 132.94 158.12)">0</text>
 </g>
 </g>
 <g>
 <g>
 <path d="M 192.13 145.8 
L 192.13 7.2 
" style="fill: none; stroke: #e5e7eb; stroke-opacity: 0.6; stroke-width: 0.5; stroke-linecap: square"/>
 </g>
 <g>
 <g>
 <use xlink:href="#m5ead89e321" x="192.13" y="145.8" style="fill: #9ca3af; stroke: #9ca3af; stroke-width: 0.8"/>
 </g>
 </g>
 <g>
 <text style="fill: #9ca3af; font: 7px 'DejaVu Sans', 'Bitstream Vera Sans', 'Computer Modern Sans Serif', 'Lucida Grande', 'Verdana', 'Geneva', 'Lucid', 'Arial', 'Helvetica', 'Avant Garde', sans-serif; text-anchor: middle" x="192.13" y="158.12" transform="rotate(-0 192.13 158.12)">1</text>
 </g>
 </g>
 <g>
 <text style="fill: #9ca3af; font: 7px 'DejaVu Sans', 'Bitstream Vera Sans', 'Computer Modern Sans Serif', 'Lucida Grande', 'Verdana', 'Geneva', 'Lucid', 'Arial', 'Helvetica', 'Avant Garde', sans-serif; text-anchor: middle" x="132.94" y="168.89" transform="rotate(-0 132.94 168.89)">x</text>
 </g>
 </g>
 <g>
 <g>
 <g>
 <path d="M 35.29 137.78 
L 230.59 137.78 
" style="fill: none; stroke: #e5e7eb; stroke-opacity: 0.6; stroke-width: 0.5; stroke-linecap: square"/>
 </g>
 <g>
 <defs>
 <path d="M 0 0 
L -3.5 0 
" style="stroke: #9ca3af; stroke-width: 0.8"/>
 </defs>
 <g>
 <use xlink:href="#m81d16e0c65" x="35.29" y="137.78" style="fill: #9ca3af; stroke: #9ca3af; stroke-width: 0.8"/>
 </g>
 </g>
 <g>
 <text style="fill: #9ca3af; font: 7px 'DejaVu Sans', 'Bitstream Vera Sans', 'Computer Modern Sans Serif', 'Lucida Grande', 'Verdana', 'Geneva', 'Lucid', 'Arial', 'Helvetica', 'Avant Garde', sans-serif; text-anchor: end" x="28.29" y="140.44" transform="rotate(-0 28.29 140.44)">−4</text>
 </g>
 </g>
 <g>
 <g>
 <path d="M 35.29 107.14 
L 230.59 107.14 
" style="fill: none; stroke: #e5e7eb; stroke-opacity: 0.6; stroke-width: 0.5; stroke-linecap: square"/>
 </g>
 <g>
 <g>
 <use xlink:href="#m81d16e0c65" x="35.29" y="107.14" style="fill: #9ca3af; stroke: #9ca3af; stroke-width: 0.8"/>
 </g>
 </g>
 <g>
 <text style="fill: #9ca3af; font: 7px 'DejaVu Sans', 'Bitstream Vera Sans', 'Computer Modern Sans Serif', 'Lucida Grande', 'Verdana', 'Geneva', 'Lucid', 'Arial', 'Helvetica', 'Avant Garde', sans-serif; text-anchor: end" x="28.29" y="109.80" transform="rotate(-0 28.29 109.80)">−2</text>
 </g>
 </g>
 <g>
 <g>
 <path d="M 35.29 76.5 
L 230.59 76.5 
" style="fill: none; stroke: #e5e7eb; stroke-opacity: 0.6; stroke-width: 0.5; stroke-linecap: square"/>
 </g>
 <g>
 <g>
 <use xlink:href="#m81d16e0c65" x="35.29" y="76.5" style="fill: #9ca3af; stroke: #9ca3af; stroke-width: 0.8"/>
 </g>
 </g>
 <g>
 <text style="fill: #9ca3af; font: 7px 'DejaVu Sans', 'Bitstream Vera Sans', 'Computer Modern Sans Serif', 'Lucida Grande', 'Verdana', 'Geneva', 'Lucid', 'Arial', 'Helvetica', 'Avant Garde', sans-serif; text-anchor: end" x="28.29" y="79.16" transform="rotate(-0 28.29 79.16)">0</text>
 </g>
 </g>
 <g>
 <g>
 <path d="M 35.29 45.86 
L 230.59 45.86 
" style="fill: none; stroke: #e5e7eb; stroke-opacity: 0.6; stroke-width: 0.5; stroke-linecap: square"/>
 </g>
 <g>
 <g>
 <use xlink:href="#m81d16e0c65" x="35.29" y="45.86" style="fill: #9ca3af; stroke: #9ca3af; stroke-width: 0.8"/>
 </g>
 </g>
 <g>
 <text style="fill: #9ca3af; font: 7px 'DejaVu Sans', 'Bitstream Vera Sans', 'Computer Modern Sans Serif', 'Lucida Grande', 'Verdana', 'Geneva', 'Lucid', 'Arial', 'Helvetica', 'Avant Garde', sans-serif; text-anchor: end" x="28.29" y="48.52" transform="rotate(-0 28.29 48.52)">2</text>
 </g>
 </g>
 <g>
 <g>
 <path d="M 35.29 15.22 
L 230.59 15.22 
" style="fill: none; stroke: #e5e7eb; stroke-opacity: 0.6; stroke-width: 0.5; stroke-linecap: square"/>
 </g>
 <g>
 <g>
 <use xlink:href="#m81d16e0c65" x="35.29" y="15.22" style="fill: #9ca3af; stroke: #9ca3af; stroke-width: 0.8"/>
 </g>
 </g>
 <g>
 <text style="fill: #9ca3af; font: 7px 'DejaVu Sans', 'Bitstream Vera Sans', 'Computer Modern Sans Serif', 'Lucida Grande', 'Verdana', 'Geneva', 'Lucid', 'Arial', 'Helvetica', 'Avant Garde', sans-serif; text-anchor: end" x="28.29" y="17.88" transform="rotate(-0 28.29 17.88)">4</text>
 </g>
 </g>
 <g>
 <text style="fill: #9ca3af; font: 7px 'DejaVu Sans', 'Bitstream Vera Sans', 'Computer Modern Sans Serif', 'Lucida Grande', 'Verdana', 'Geneva', 'Lucid', 'Arial', 'Helvetica', 'Avant Garde', sans-serif; text-anchor: middle" x="12.52" y="76.5" transform="rotate(-90 12.52 76.5)">y</text>
 </g>
 </g>
 <g>
 <path d="M 44.17 24.79 
L 46.42 28.62 
L 48.67 32.26 
L 50.91 35.70 
L 53.16 38.96 
L 55.41 42.05 
L 57.66 44.96 
L 59.90 47.70 
L 62.15 50.28 
L 64.40 52.70 
L 66.65 54.96 
L 68.89 57.08 
L 71.14 59.05 
L 73.39 60.89 
L 75.64 62.59 
L 77.88 64.16 
L 80.13 65.61 
L 82.38 66.94 
L 84.62 68.16 
L 86.87 69.27 
L 89.12 70.28 
L 91.37 71.19 
L 93.61 72.00 
L 95.86 72.73 
L 98.11 73.38 
L 100.36 73.94 
L 102.60 74.44 
L 104.85 74.86 
L 107.10 75.22 
L 109.35 75.53 
L 111.59 75.78 
L 113.84 75.98 
L 116.09 76.15 
L 118.34 76.27 
L 120.58 76.36 
L 122.83 76.42 
L 125.08 76.46 
L 127.33 76.49 
L 129.57 76.50 
L 131.82 76.50 
L 134.07 76.50 
L 136.32 76.50 
L 138.56 76.49 
L 140.81 76.46 
L 143.06 76.42 
L 145.30 76.36 
L 147.55 76.27 
L 149.80 76.15 
L 152.05 75.98 
L 154.29 75.78 
L 156.54 75.53 
L 158.79 75.22 
L 161.04 74.86 
L 163.28 74.44 
L 165.53 73.94 
L 167.78 73.38 
L 170.03 72.73 
L 172.27 72.00 
L 174.52 71.19 
L 176.77 70.28 
L 179.02 69.27 
L 181.26 68.16 
L 183.51 66.94 
L 185.76 65.61 
L 188.01 64.16 
L 190.25 62.59 
L 192.50 60.89 
L 194.75 59.05 
L 197.00 57.08 
L 199.24 54.96 
L 201.49 52.70 
L 203.74 50.28 
L 205.99 47.70 
L 208.23 44.96 
L 210.48 42.05 
L 212.73 38.96 
L 214.97 35.70 
L 217.22 32.26 
L 219.47 28.62 
L 221.72 24.79 
" style="fill: none; stroke-dasharray: 3.7,1.6; stroke-dashoffset: 0; stroke: #6b7280; stroke-opacity: 0.7"/>
 </g>
 <g>
 <path d="M 44.17 128.21 
L 46.42 124.38 
L 48.67 120.74 
L 50.91 117.30 
L 53.16 114.04 
L 55.41 110.95 
L 57.66 108.04 
L 59.90 105.30 
L 62.15 102.72 
L 64.40 100.30 
L 66.65 98.04 
L 68.89 95.92 
L 71.14 93.95 
L 73.39 92.11 
L 75.64 90.41 
L 77.88 88.84 
L 80.13 87.39 
L 82.38 86.06 
L 84.62 84.84 
L 86.87 83.73 
L 89.12 82.72 
L 91.37 81.81 
L 93.61 81.00 
L 95.86 80.27 
L 98.11 79.62 
L 100.36 79.06 
L 102.60 78.56 
L 104.85 78.14 
L 107.10 77.78 
L 109.35 77.47 
L 111.59 77.22 
L 113.84 77.02 
L 116.09 76.85 
L 118.34 76.73 
L 120.58 76.64 
L 122.83 76.58 
L 125.08 76.54 
L 127.33 76.51 
L 129.57 76.50 
L 131.82 76.50 
L 134.07 76.50 
L 136.32 76.50 
L 138.56 76.51 
L 140.81 76.54 
L 143.06 76.58 
L 145.30 76.64 
L 147.55 76.73 
L 149.80 76.85 
L 152.05 77.02 
L 154.29 77.22 
L 156.54 77.47 
L 158.79 77.78 
L 161.04 78.14 
L 163.28 78.56 
L 165.53 79.06 
L 167.78 79.62 
L 170.03 80.27 
L 172.27 81.00 
L 174.52 81.81 
L 176.77 82.72 
L 179.02 83.73 
L 181.26 84.84 
L 183.51 86.06 
L 185.76 87.39 
L 188.01 88.84 
L 190.25 90.41 
L 192.50 92.11 
L 194.75 93.95 
L 197.00 95.92 
L 199.24 98.04 
L 201.49 100.30 
L 203.74 102.72 
L 205.99 105.30 
L 208.23 108.04 
L 210.48 110.95 
L 212.73 114.04 
L 214.97 117.30 
L 217.22 120.74 
L 219.47 124.38 
L 221.72 128.21 
" style="fill: none; stroke-dasharray: 3.7,1.6; stroke-dashoffset: 0; stroke: #6b7280; stroke-opacity: 0.7"/>
 </g>
 <g>
 <path d="M 44.17 26.24 
L 46.42 29.60 
L 48.67 32.87 
L 50.91 36.03 
L 53.16 39.11 
L 55.41 42.08 
L 57.66 44.96 
L 59.90 47.73 
L 62.15 50.41 
L 64.40 52.98 
L 66.65 55.45 
L 68.89 57.82 
L 71.14 60.08 
L 73.39 62.22 
L 75.64 64.26 
L 77.88 66.17 
L 80.13 67.97 
L 82.38 69.64 
L 84.62 71.18 
L 86.87 72.58 
L 89.12 73.85 
L 91.37 74.96 
L 93.61 75.91 
L 95.86 76.69 
L 98.11 77.29 
L 100.36 77.71 
L 102.60 77.92 
L 104.85 77.94 
L 107.10 77.76 
L 109.35 77.43 
L 111.59 76.98 
L 113.84 76.54 
L 116.09 76.26 
L 118.34 76.28 
L 120.58 76.52 
L 122.83 76.56 
L 125.08 76.48 
L 127.33 76.49 
L 129.57 76.50 
L 131.82 76.50 
L 134.07 76.50 
L 136.32 76.50 
L 138.56 76.49 
L 140.81 76.48 
L 143.06 76.56 
L 145.30 76.52 
L 147.55 76.28 
L 149.80 76.26 
L 152.05 76.54 
L 154.29 76.98 
L 156.54 77.43 
L 158.79 77.76 
L 161.04 77.94 
L 163.28 77.92 
L 165.53 77.71 
L 167.78 77.29 
L 170.03 76.69 
L 172.27 75.91 
L 174.52 74.96 
L 176.77 73.85 
L 179.02 72.58 
L 181.26 71.18 
L 183.51 69.64 
L 185.76 67.97 
L 188.01 66.17 
L 190.25 64.26 
L 192.50 62.22 
L 194.75 60.08 
L 197.00 57.82 
L 199.24 55.45 
L 201.49 52.98 
L 203.74 50.41 
L 205.99 47.73 
L 208.23 44.96 
L 210.48 42.08 
L 212.73 39.11 
L 214.97 36.03 
L 217.22 32.87 
L 219.47 29.60 
L 221.72 26.24 
" style="fill: none; stroke: #2563eb; stroke-width: 1.5; stroke-linecap: square"/>
 </g>
 <g>
 <path d="M 35.29 76.5 
L 230.59 76.5 
" style="fill: none; stroke: #9ca3af; stroke-width: 0.4; stroke-linecap: square"/>
 </g>
 <g>
 <path d="M 132.94 145.8 
L 132.94 7.2 
" style="fill: none; stroke: #9ca3af; stroke-width: 0.4; stroke-linecap: square"/>
 </g>
 <g>
 <path d="M 35.29 145.8 
L 35.29 7.2 
" style="fill: none; stroke: #9ca3af; stroke-width: 0.6; stroke-linejoin: miter; stroke-linecap: square"/>
 </g>
 <g>
 <path d="M 230.59 145.8 
L 230.59 7.2 
" style="fill: none; stroke: #9ca3af; stroke-width: 0.6; stroke-linejoin: miter; stroke-linecap: square"/>
 </g>
 <g>
 <path d="M 35.29 145.8 
L 230.59 145.8 
" style="fill: none; stroke: #9ca3af; stroke-width: 0.6; stroke-linejoin: miter; stroke-linecap: square"/>
 </g>
 <g>
 <path d="M 35.29 7.2 
L 230.59 7.2 
" style="fill: none; stroke: #9ca3af; stroke-width: 0.6; stroke-linejoin: miter; stroke-linecap: square"/>
 </g>
 <g>
 <text style="fill: #16a34a; font: 700 7px 'DejaVu Sans', 'Bitstream Vera Sans', 'Computer Modern Sans Serif', 'Lucida Grande', 'Verdana', 'Geneva', 'Lucid', 'Arial', 'Helvetica', 'Avant Garde', sans-serif; text-anchor: start" x="140.94" y="68.5" transform="rotate(-0 140.94 68.5)">Limit = 0</text>
 </g>
 <g>
 <defs>
 <path d="M 0 3 
C 0.80 3 1.56 2.68 2.12 2.12 
C 2.68 1.56 3 0.80 3 0 
C 3 -0.80 2.68 -1.56 2.12 -2.12 
C 1.56 -2.68 0.80 -3 0 -3 
C -0.80 -3 -1.56 -2.68 -2.12 -2.12 
C -2.68 -1.56 -3 -0.80 -3 0 
C -3 0.80 -2.68 1.56 -2.12 2.12 
C -1.56 2.68 -0.80 3 0 3 
z
" style="stroke: #16a34a"/>
 </defs>
 <g>
 <use xlink:href="#me803039438" x="132.94" y="76.5" style="fill: #16a34a; stroke: #16a34a"/>
 </g>
 </g>
 </g>
 </g>
 <defs>
 </defs>
</svg>