<?xml version="1.0" encoding="utf-8" standalone="no"?>
<!DOCTYPE svg PUBLIC "-//W3C//DTD SVG 1.1//EN"
 "http://www.w3.org/Graphics/SVG/1.1/DTD/svg11.dtd">
<svg xmlns:xlink="http://www.w3.org/1999/xlink" width="236.38pt" height="177.55pt" viewBox="0 0 236.38 177.55" xmlns="http://www.w3.org/2000/svg" version="1.1">
 <g>
 <g>
 <path d="M 0 177.55 
L 236.38 177.55 
L 236.38 0 
L 0 0 
L 0 177.55 
z
" style="fill: none"/>
 </g>
 <g>
 <g>
 <path d="M 33.88 145.8 
L 229.18 145.8 
L 229.18 7.2 
L 33.88 7.2 
L 33.88 145.8 
z
" style="fill: none"/>
 </g>
 <g>
 <g>
 <g>
 <path d="M 64.95 145.8 
L 64.95 7.2 
" style="fill: none; stroke: #e5e7eb; stroke-opacity: 0.6; stroke-width: 0.5; stroke-linecap: square"/>
 </g>
 <g>
 <defs>
 <path d="M 0 0 
L 0 3.5 
" style="stroke: #9ca3af; stroke-width: 0.8"/>
 </defs>
 <g>
 <use xlink:href="#m6e6b8327c3" x="64.95" y="145.8" style="fill: #9ca3af; stroke: #9ca3af; stroke-width: 0.8"/>
 </g>
 </g>
 <g>
 <text style="fill: #9ca3af; font: 7px 'DejaVu Sans', 'Bitstream Vera Sans', 'Computer Modern Sans Serif', 'Lucida Grande', 'Verdana', 'Geneva', 'Lucid', 'Arial', 'Helvetica', 'Avant Garde', sans-serif; text-anchor: middle" x="64.95" y="158.12" transform="rotate(-0 64.95 158.12)">−4</text>
 </g>
 </g>
 <g>
 <g>
 <path d="M 109.34 145.8 
L 109.34 7.2 
" style="fill: none; stroke: #e5e7eb; stroke-opacity: 0.6; stroke-width: 0.5; stroke-linecap: square"/>
 </g>
 <g>
 <g>
 <use xlink:href="#m6e6b8327c3" x="109.34" y="145.8" style="fill: #9ca3af; stroke: #9ca3af; stroke-width: 0.8"/>
 </g>
 </g>
 <g>
 <text style="fill: #9ca3af; font: 7px 'DejaVu Sans', 'Bitstream Vera Sans', 'Computer Modern Sans Serif', 'Lucida Grande', 'Verdana', 'Geneva', 'Lucid', 'Arial', 'Helvetica', 'Avant Garde', sans-serif; text-anchor: middle" x="109.34" y="158.12" transform="rotate(-0 109.34 158.12)">−2</text>
 </g>
 </g>
 <g>
 <g>
 <path d="M 153.73 145.8 
L 153.73 7.2 
" style="fill: none; stroke: #e5e7eb; stroke-opacity: 0.6; stroke-width: 0.5; stroke-linecap: square"/>
 </g>
 <g>
 <g>
 <use xlink:href="#m6e6b8327c3" x="153.73" y="145.8" style="fill: #9ca3af; stroke: #9ca3af; stroke-width: 0.8"/>
 </g>
 </g>
 <g>
 <text style="fill: #9ca3af; font: 7px 'DejaVu Sans', 'Bitstream Vera Sans', 'Computer Modern Sans Serif', 'Lucida Grande', 'Verdana', 'Geneva', 'Lucid', 'Arial', 'Helvetica', 'Avant Garde', sans-serif; text-anchor: middle" x="153.73" y="158.12" transform="rotate(-0 153.73 158.12)">0</text>
 </g>
 </g>
 <g>
 <g>
 <path d="M 198.11 145.8 
L 198.11 7.2 
" style="fill: none; stroke: #e5e7eb; stroke-opacity: 0.6; stroke-width: 0.5; stroke-linecap: square"/>
 </g>
 <g>
 <g>
 <use xlink:href="#m6e6b8327c3" x="198.11" y="145.8" style="fill: #9ca3af; stroke: #9ca3af; stroke-width: 0.8"/>
 </g>
 </g>
 <g>
 <text style="fill: #9ca3af; font: 7px 'DejaVu Sans', 'Bitstream Vera Sans', 'Computer Modern Sans Serif', 'Lucida Grande', 'Verdana', 'Geneva', 'Lucid', 'Arial', 'Helvetica', 'Avant Garde', sans-serif; text-anchor: middle" x="198.11" y="158.12" transform="rotate(-0 198.11 158.12)">2</text>
 </g>
 </g>
 <g>
 <text style="fill: #9ca3af; font: 7px 'DejaVu Sans', 'Bitstream Vera Sans', 'Computer Modern Sans Serif', 'Lucida Grande', 'Verdana', 'Geneva', 'Lucid', 'Arial', 'Helvetica', 'Avant Garde', sans-serif; text-anchor: middle" x="131.53" y="168.89" transform="rotate(-0 131.53 168.89)">x</text>
 </g>
 </g>
 <g>
 <g>
 <g>
 <path d="M 33.88 111.43 
L 229.18 111.43 
" style="fill: none; stroke: #e5e7eb; stroke-opacity: 0.6; stroke-width: 0.5; stroke-linecap: square"/>
 </g>
 <g>
 <defs>
 <path d="M 0 0 
L -3.5 0 
" style="stroke: #9ca3af; stroke-width: 0.8"/>
 </defs>
 <g>
 <use xlink:href="#m1654a348b0" x="33.88" y="111.43" style="fill: #9ca3af; stroke: #9ca3af; stroke-width: 0.8"/>
 </g>
 </g>
 <g>
 <text style="fill: #9ca3af; font: 7px 'DejaVu Sans', 'Bitstream Vera Sans', 'Computer Modern Sans Serif', 'Lucida Grande', 'Verdana', 'Geneva', 'Lucid', 'Arial', 'Helvetica', 'Avant Garde', sans-serif; text-anchor: end" x="26.88" y="114.09" transform="rotate(-0 26.88 114.09)">0</text>
 </g>
 </g>
 <g>
 <g>
 <path d="M 33.88 70.69 
L 229.18 70.69 
" style="fill: none; stroke: #e5e7eb; stroke-opacity: 0.6; stroke-width: 0.5; stroke-linecap: square"/>
 </g>
 <g>
 <g>
 <use xlink:href="#m1654a348b0" x="33.88" y="70.69" style="fill: #9ca3af; stroke: #9ca3af; stroke-width: 0.8"/>
 </g>
 </g>
 <g>
 <text style="fill: #9ca3af; font: 7px 'DejaVu Sans', 'Bitstream Vera Sans', 'Computer Modern Sans Serif', 'Lucida Grande', 'Verdana', 'Geneva', 'Lucid', 'Arial', 'Helvetica', 'Avant Garde', sans-serif; text-anchor: end" x="26.88" y="73.35" transform="rotate(-0 26.88 73.35)">10</text>
 </g>
 </g>
 <g>
 <g>
 <path d="M 33.88 29.94 
L 229.18 29.94 
" style="fill: none; stroke: #e5e7eb; stroke-opacity: 0.6; stroke-width: 0.5; stroke-linecap: square"/>
 </g>
 <g>
 <g>
 <use xlink:href="#m1654a348b0" x="33.88" y="29.94" style="fill: #9ca3af; stroke: #9ca3af; stroke-width: 0.8"/>
 </g>
 </g>
 <g>
 <text style="fill: #9ca3af; font: 7px 'DejaVu Sans', 'Bitstream Vera Sans', 'Computer Modern Sans Serif', 'Lucida Grande', 'Verdana', 'Geneva', 'Lucid', 'Arial', 'Helvetica', 'Avant Garde', sans-serif; text-anchor: end" x="26.88" y="32.60" transform="rotate(-0 26.88 32.60)">20</text>
 </g>
 </g>
 <g>
 <text style="fill: #9ca3af; font: 7px 'DejaVu Sans', 'Bitstream Vera Sans', 'Computer Modern Sans Serif', 'Lucida Grande', 'Verdana', 'Geneva', 'Lucid', 'Arial', 'Helvetica', 'Avant Garde', sans-serif; text-anchor: middle" x="12.52" y="76.5" transform="rotate(-90 12.52 76.5)">y</text>
 </g>
 </g>
 <g>
 <path d="M 42.76 111.18 
L 45.01 111.16 
L 47.26 111.15 
L 49.50 111.13 
L 51.75 111.12 
L 54.00 111.10 
L 56.25 111.08 
L 58.49 111.06 
L 60.74 111.03 
L 62.99 111.00 
L 65.24 110.98 
L 67.48 110.94 
L 69.73 110.91 
L 71.98 110.87 
L 74.23 110.82 
L 76.48 110.77 
L 78.72 110.71 
L 80.97 110.65 
L 83.22 110.57 
L 85.47 110.49 
L 87.71 110.39 
L 89.96 110.27 
L 92.21 110.13 
L 94.46 109.97 
L 96.71 109.78 
L 98.95 109.54 
L 101.20 109.25 
L 103.45 108.89 
L 105.70 108.43 
L 107.94 107.82 
L 110.19 107.02 
L 112.44 105.93 
L 114.69 104.36 
L 116.94 102.01 
L 119.18 98.27 
L 121.43 91.76 
L 123.68 78.89 
L 125.93 47.56 
L 126.88 -1 
" style="fill: none; stroke: #2563eb; stroke-width: 1.5; stroke-linecap: square"/>
 </g>
 <g>
 <path d="M 136.18 -1 
L 137.14 47.56 
L 139.39 78.89 
L 141.63 91.76 
L 143.88 98.27 
L 146.13 102.01 
L 148.38 104.36 
L 150.62 105.93 
L 152.87 107.02 
L 155.12 107.82 
L 157.37 108.43 
L 159.62 108.89 
L 161.86 109.25 
L 164.11 109.54 
L 166.36 109.78 
L 168.61 109.97 
L 170.85 110.13 
L 173.10 110.27 
L 175.35 110.39 
L 177.60 110.49 
L 179.85 110.57 
L 182.09 110.65 
L 184.34 110.71 
L 186.59 110.77 
L 188.84 110.82 
L 191.08 110.87 
L 193.33 110.91 
L 195.58 110.94 
L 197.83 110.98 
L 200.07 111.00 
L 202.32 111.03 
L 204.57 111.06 
L 206.82 111.08 
L 209.07 111.10 
L 211.31 111.12 
L 213.56 111.13 
L 215.81 111.15 
L 218.06 111.16 
L 220.30 111.18 
" style="fill: none; stroke: #2563eb; stroke-width: 1.5; stroke-linecap: square"/>
 </g>
 <g>
 <path d="M 131.53 145.8 
L 131.53 7.2 
" style="fill: none; stroke-dasharray: 1,1.65; stroke-dashoffset: 0; stroke: #ef4444; stroke-opacity: 0.8"/>
 </g>
 <g>
 <path d="M 33.88 145.8 
L 33.88 7.2 
" style="fill: none; stroke: #9ca3af; stroke-width: 0.6; stroke-linejoin: miter; stroke-linecap: square"/>
 </g>
 <g>
 <path d="M 229.18 145.8 
L 229.18 7.2 
" style="fill: none; stroke: #9ca3af; stroke-width: 0.6; stroke-linejoin: miter; stroke-linecap: square"/>
 </g>
 <g>
 <path d="M 33.88 145.8 
L 229.18 145.8 
" style="fill: none; stroke: #9ca3af; stroke-width: 0.6; stroke-linejoin: miter; stroke-linecap: square"/>
 </g>
 <g>
 <path d="M 33.88 7.2 
L 229.18 7.2 
" style="fill: none; stroke: #9ca3af; stroke-width: 0.6; stroke-linejoin: miter; stroke-linecap: square"/>
 </g>
 <g>
 <text style="fill: #ef4444; font: 6px 'DejaVu Sans', 'Bitstream Vera Sans', 'Computer Modern Sans Serif', 'Lucida Grande', 'Verdana', 'Geneva', 'Lucid', 'Arial', 'Helvetica', 'Avant Garde', sans-serif; text-anchor: start" x="135.53" y="22.83" transform="rotate(-0 135.53 22.83)">x = -1</text>
 </g>
 <g>
 <path d="M 157.15 78.43 
Q 145.96 59.31 135.33 41.16 
" style="fill: none; stroke: #f59e0b; stroke-linecap: round"/>
 <path d="M 135.62 45.62 
L 135.33 41.16 
L 139.07 43.60 
" style="fill: none; stroke: #f59e0b; stroke-linecap: round"/>
 </g>
 </g>
 </g>
 <defs>
 </defs>
</svg>