<?xml version="1.0" encoding="utf-8" standalone="no"?>
<!DOCTYPE svg PUBLIC "-//W3C//DTD SVG 1.1//EN"
 "http://www.w3.org/Graphics/SVG/1.1/DTD/svg11.dtd">
<svg xmlns:xlink="http://www.w3.org/1999/xlink" width="231.93pt" height="178.64pt" viewBox="0 0 231.93 178.64" xmlns="http://www.w3.org/2000/svg" version="1.1">
 <g>
 <g>
 <path d="M 0 178.64 
L 231.93 178.64 
L 231.93 0 
L 0 0 
L 0 178.64 
z
" style="fill: none"/>
 </g>
 <g>
 <g>
 <path d="M 29.43 146.89 
L 224.73 146.89 
L 224.73 8.29 
L 29.43 8.29 
L 29.43 146.89 
z
" style="fill: none"/>
 </g>
 <g>
 <g>
 <g>
 <path d="M 60.50 146.89 
L 60.50 8.29 
" style="fill: none; stroke: #e5e7eb; stroke-opacity: 0.6; stroke-width: 0.5; stroke-linecap: square"/>
 </g>
 <g>
 <defs>
 <path d="M 0 0 
L 0 3.5 
" style="stroke: #9ca3af; stroke-width: 0.8"/>
 </defs>
 <g>
 <use xlink:href="#mebe698640b" x="60.50" y="146.89" style="fill: #9ca3af; stroke: #9ca3af; stroke-width: 0.8"/>
 </g>
 </g>
 <g>
 <text style="fill: #9ca3af; font: 7px 'DejaVu Sans', 'Bitstream Vera Sans', 'Computer Modern Sans Serif', 'Lucida Grande', 'Verdana', 'Geneva', 'Lucid', 'Arial', 'Helvetica', 'Avant Garde', sans-serif; text-anchor: middle" x="60.50" y="159.21" transform="rotate(-0 60.50 159.21)">−2</text>
 </g>
 </g>
 <g>
 <g>
 <path d="M 104.89 146.89 
L 104.89 8.29 
" style="fill: none; stroke: #e5e7eb; stroke-opacity: 0.6; stroke-width: 0.5; stroke-linecap: square"/>
 </g>
 <g>
 <g>
 <use xlink:href="#mebe698640b" x="104.89" y="146.89" style="fill: #9ca3af; stroke: #9ca3af; stroke-width: 0.8"/>
 </g>
 </g>
 <g>
 <text style="fill: #9ca3af; font: 7px 'DejaVu Sans', 'Bitstream Vera Sans', 'Computer Modern Sans Serif', 'Lucida Grande', 'Verdana', 'Geneva', 'Lucid', 'Arial', 'Helvetica', 'Avant Garde', sans-serif; text-anchor: middle" x="104.89" y="159.21" transform="rotate(-0 104.89 159.21)">0</text>
 </g>
 </g>
 <g>
 <g>
 <path d="M 149.27 146.89 
L 149.27 8.29 
" style="fill: none; stroke: #e5e7eb; stroke-opacity: 0.6; stroke-width: 0.5; stroke-linecap: square"/>
 </g>
 <g>
 <g>
 <use xlink:href="#mebe698640b" x="149.27" y="146.89" style="fill: #9ca3af; stroke: #9ca3af; stroke-width: 0.8"/>
 </g>
 </g>
 <g>
 <text style="fill: #9ca3af; font: 7px 'DejaVu Sans', 'Bitstream Vera Sans', 'Computer Modern Sans Serif', 'Lucida Grande', 'Verdana', 'Geneva', 'Lucid', 'Arial', 'Helvetica', 'Avant Garde', sans-serif; text-anchor: middle" x="149.27" y="159.21" transform="rotate(-0 149.27 159.21)">2</text>
 </g>
 </g>
 <g>
 <g>
 <path d="M 193.66 146.89 
L 193.66 8.29 
" style="fill: none; stroke: #e5e7eb; stroke-opacity: 0.6; stroke-width: 0.5; stroke-linecap: square"/>
 </g>
 <g>
 <g>
 <use xlink:href="#mebe698640b" x="193.66" y="146.89" style="fill: #9ca3af; stroke: #9ca3af; stroke-width: 0.8"/>
 </g>
 </g>
 <g>
 <text style="fill: #9ca3af; font: 7px 'DejaVu Sans', 'Bitstream Vera Sans', 'Computer Modern Sans Serif', 'Lucida Grande', 'Verdana', 'Geneva', 'Lucid', 'Arial', 'Helvetica', 'Avant Garde', sans-serif; text-anchor: middle" x="193.66" y="159.21" transform="rotate(-0 193.66 159.21)">4</text>
 </g>
 </g>
 <g>
 <text style="fill: #9ca3af; font: 7px 'DejaVu Sans', 'Bitstream Vera Sans', 'Computer Modern Sans Serif', 'Lucida Grande', 'Verdana', 'Geneva', 'Lucid', 'Arial', 'Helvetica', 'Avant Garde', sans-serif; text-anchor: middle" x="127.08" y="169.99" transform="rotate(-0 127.08 169.99)">x</text>
 </g>
 </g>
 <g>
 <g>
 <g>
 <path d="M 29.43 125.71 
L 224.73 125.71 
" style="fill: none; stroke: #e5e7eb; stroke-opacity: 0.6; stroke-width: 0.5; stroke-linecap: square"/>
 </g>
 <g>
 <defs>
 <path d="M 0 0 
L -3.5 0 
" style="stroke: #9ca3af; stroke-width: 0.8"/>
 </defs>
 <g>
 <use xlink:href="#ma28baa8027" x="29.43" y="125.71" style="fill: #9ca3af; stroke: #9ca3af; stroke-width: 0.8"/>
 </g>
 </g>
 <g>
 <text style="fill: #9ca3af; font: 7px 'DejaVu Sans', 'Bitstream Vera Sans', 'Computer Modern Sans Serif', 'Lucida Grande', 'Verdana', 'Geneva', 'Lucid', 'Arial', 'Helvetica', 'Avant Garde', sans-serif; text-anchor: end" x="22.43" y="128.37" transform="rotate(-0 22.43 128.37)">0</text>
 </g>
 </g>
 <g>
 <g>
 <path d="M 29.43 87.10 
L 224.73 87.10 
" style="fill: none; stroke: #e5e7eb; stroke-opacity: 0.6; stroke-width: 0.5; stroke-linecap: square"/>
 </g>
 <g>
 <g>
 <use xlink:href="#ma28baa8027" x="29.43" y="87.10" style="fill: #9ca3af; stroke: #9ca3af; stroke-width: 0.8"/>
 </g>
 </g>
 <g>
 <text style="fill: #9ca3af; font: 7px 'DejaVu Sans', 'Bitstream Vera Sans', 'Computer Modern Sans Serif', 'Lucida Grande', 'Verdana', 'Geneva', 'Lucid', 'Arial', 'Helvetica', 'Avant Garde', sans-serif; text-anchor: end" x="22.43" y="89.76" transform="rotate(-0 22.43 89.76)">1</text>
 </g>
 </g>
 <g>
 <g>
 <path d="M 29.43 48.48 
L 224.73 48.48 
" style="fill: none; stroke: #e5e7eb; stroke-opacity: 0.6; stroke-width: 0.5; stroke-linecap: square"/>
 </g>
 <g>
 <g>
 <use xlink:href="#ma28baa8027" x="29.43" y="48.48" style="fill: #9ca3af; stroke: #9ca3af; stroke-width: 0.8"/>
 </g>
 </g>
 <g>
 <text style="fill: #9ca3af; font: 7px 'DejaVu Sans', 'Bitstream Vera Sans', 'Computer Modern Sans Serif', 'Lucida Grande', 'Verdana', 'Geneva', 'Lucid', 'Arial', 'Helvetica', 'Avant Garde', sans-serif; text-anchor: end" x="22.43" y="51.14" transform="rotate(-0 22.43 51.14)">2</text>
 </g>
 </g>
 <g>
 <g>
 <path d="M 29.43 9.86 
L 224.73 9.86 
" style="fill: none; stroke: #e5e7eb; stroke-opacity: 0.6; stroke-width: 0.5; stroke-linecap: square"/>
 </g>
 <g>
 <g>
 <use xlink:href="#ma28baa8027" x="29.43" y="9.86" style="fill: #9ca3af; stroke: #9ca3af; stroke-width: 0.8"/>
 </g>
 </g>
 <g>
 <text style="fill: #9ca3af; font: 7px 'DejaVu Sans', 'Bitstream Vera Sans', 'Computer Modern Sans Serif', 'Lucida Grande', 'Verdana', 'Geneva', 'Lucid', 'Arial', 'Helvetica', 'Avant Garde', sans-serif; text-anchor: end" x="22.43" y="12.52" transform="rotate(-0 22.43 12.52)">3</text>
 </g>
 </g>
 <g>
 <text style="fill: #9ca3af; font: 7px 'DejaVu Sans', 'Bitstream Vera Sans', 'Computer Modern Sans Serif', 'Lucida Grande', 'Verdana', 'Geneva', 'Lucid', 'Arial', 'Helvetica', 'Avant Garde', sans-serif; text-anchor: middle" x="12.52" y="77.59" transform="rotate(-90 12.52 77.59)">y</text>
 </g>
 </g>
 <g>
 <path d="M 38.31 9.86 
L 40.55 20.51 
L 42.80 29.37 
L 45.05 36.86 
L 47.30 43.26 
L 49.54 48.81 
L 51.79 53.65 
L 54.04 57.92 
L 56.29 61.72 
L 58.54 65.11 
L 60.78 68.16 
L 63.03 70.91 
L 65.28 73.42 
L 67.53 75.71 
L 69.77 77.80 
L 72.02 79.73 
L 74.27 81.50 
L 76.52 83.15 
L 78.77 84.68 
L 81.01 86.10 
L 83.26 87.42 
L 85.51 88.66 
L 87.76 89.83 
L 90.00 90.92 
L 92.25 91.94 
L 94.50 92.91 
L 96.75 93.83 
L 99.00 94.69 
L 101.24 95.51 
L 103.49 96.29 
L 105.74 97.03 
L 107.99 97.73 
L 110.23 98.40 
L 112.48 99.03 
L 114.73 99.64 
L 116.98 100.22 
L 119.23 100.78 
L 121.47 101.31 
L 123.72 101.82 
L 125.97 102.31 
" style="fill: none; stroke: #2563eb; stroke-width: 1.5; stroke-linecap: square"/>
 </g>
 <g>
 <path d="M 128.19 102.77 
L 130.44 103.22 
L 132.68 103.66 
L 134.93 104.07 
L 137.18 104.48 
L 139.43 104.86 
L 141.67 105.24 
L 143.92 105.60 
L 146.17 105.94 
L 148.42 106.28 
L 150.67 106.61 
L 152.91 106.92 
L 155.16 107.22 
L 157.41 107.52 
L 159.66 107.80 
L 161.90 108.08 
L 164.15 108.35 
L 166.40 108.61 
L 168.65 108.86 
L 170.90 109.10 
L 173.14 109.34 
L 175.39 109.57 
L 177.64 109.80 
L 179.89 110.01 
L 182.13 110.23 
L 184.38 110.43 
L 186.63 110.64 
L 188.88 110.83 
L 191.13 111.02 
L 193.37 111.21 
L 195.62 111.39 
L 197.87 111.57 
L 200.12 111.74 
L 202.36 111.91 
L 204.61 112.07 
L 206.86 112.23 
L 209.11 112.39 
L 211.36 112.55 
L 213.60 112.70 
L 215.85 112.84 
" style="fill: none; stroke: #2563eb; stroke-width: 1.5; stroke-linecap: square"/>
 </g>
 <g>
 <path d="M 127.08 146.89 
L 127.08 8.29 
" style="fill: none; stroke-dasharray: 1,1.65; stroke-dashoffset: 0; stroke: #ef4444; stroke-opacity: 0.8"/>
 </g>
 <g>
 <path d="M 29.43 146.89 
L 29.43 8.29 
" style="fill: none; stroke: #9ca3af; stroke-width: 0.6; stroke-linejoin: miter; stroke-linecap: square"/>
 </g>
 <g>
 <path d="M 224.73 146.89 
L 224.73 8.29 
" style="fill: none; stroke: #9ca3af; stroke-width: 0.6; stroke-linejoin: miter; stroke-linecap: square"/>
 </g>
 <g>
 <path d="M 29.43 146.89 
L 224.73 146.89 
" style="fill: none; stroke: #9ca3af; stroke-width: 0.6; stroke-linejoin: miter; stroke-linecap: square"/>
 </g>
 <g>
 <path d="M 29.43 8.29 
L 224.73 8.29 
" style="fill: none; stroke: #9ca3af; stroke-width: 0.6; stroke-linejoin: miter; stroke-linecap: square"/>
 </g>
 <g>
 <text style="fill: #ef4444; font: 6px 'DejaVu Sans', 'Bitstream Vera Sans', 'Computer Modern Sans Serif', 'Lucida Grande', 'Verdana', 'Geneva', 'Lucid', 'Arial', 'Helvetica', 'Avant Garde', sans-serif; text-anchor: start" x="131.08" y="25.91" transform="rotate(-0 131.08 25.91)">x = 1</text>
 </g>
 <g>
 <path d="M 101.37 88.71 
Q 112.65 67.00 123.42 46.28 
" style="fill: none; stroke: #f59e0b; stroke-linecap: round"/>
 <path d="M 119.80 48.91 
L 123.42 46.28 
L 123.35 50.76 
" style="fill: none; stroke: #f59e0b; stroke-linecap: round"/>
 </g>
 </g>
 </g>
 <defs>
 </defs>
</svg>