<?xml version="1.0" encoding="utf-8" standalone="no"?>
<!DOCTYPE svg PUBLIC "-//W3C//DTD SVG 1.1//EN"
 "http://www.w3.org/Graphics/SVG/1.1/DTD/svg11.dtd">
<svg xmlns:xlink="http://www.w3.org/1999/xlink" width="244.47pt" height="177.55pt" viewBox="0 0 244.47 177.55" xmlns="http://www.w3.org/2000/svg" version="1.1">
 <g>
 <g>
 <path d="M 0 177.55 
L 244.47 177.55 
L 244.47 0 
L 0 0 
L 0 177.55 
z
" style="fill: none"/>
 </g>
 <g>
 <g>
 <path d="M 41.97 145.8 
L 237.27 145.8 
L 237.27 7.2 
L 41.97 7.2 
L 41.97 145.8 
z
" style="fill: none"/>
 </g>
 <g>
 <g>
 <g>
 <path d="M 50.85 145.8 
L 50.85 7.2 
" style="fill: none; stroke: #e5e7eb; stroke-opacity: 0.6; stroke-width: 0.5; stroke-linecap: square"/>
 </g>
 <g>
 <defs>
 <path d="M 0 0 
L 0 3.5 
" style="stroke: #9ca3af; stroke-width: 0.8"/>
 </defs>
 <g>
 <use xlink:href="#m1b3f4a2a28" x="50.85" y="145.8" style="fill: #9ca3af; stroke: #9ca3af; stroke-width: 0.8"/>
 </g>
 </g>
 <g>
 <text style="fill: #9ca3af; font: 7px 'DejaVu Sans', 'Bitstream Vera Sans', 'Computer Modern Sans Serif', 'Lucida Grande', 'Verdana', 'Geneva', 'Lucid', 'Arial', 'Helvetica', 'Avant Garde', sans-serif; text-anchor: middle" x="50.85" y="158.12" transform="rotate(-0 50.85 158.12)">−2</text>
 </g>
 </g>
 <g>
 <g>
 <path d="M 95.24 145.8 
L 95.24 7.2 
" style="fill: none; stroke: #e5e7eb; stroke-opacity: 0.6; stroke-width: 0.5; stroke-linecap: square"/>
 </g>
 <g>
 <g>
 <use xlink:href="#m1b3f4a2a28" x="95.24" y="145.8" style="fill: #9ca3af; stroke: #9ca3af; stroke-width: 0.8"/>
 </g>
 </g>
 <g>
 <text style="fill: #9ca3af; font: 7px 'DejaVu Sans', 'Bitstream Vera Sans', 'Computer Modern Sans Serif', 'Lucida Grande', 'Verdana', 'Geneva', 'Lucid', 'Arial', 'Helvetica', 'Avant Garde', sans-serif; text-anchor: middle" x="95.24" y="158.12" transform="rotate(-0 95.24 158.12)">0</text>
 </g>
 </g>
 <g>
 <g>
 <path d="M 139.62 145.8 
L 139.62 7.2 
" style="fill: none; stroke: #e5e7eb; stroke-opacity: 0.6; stroke-width: 0.5; stroke-linecap: square"/>
 </g>
 <g>
 <g>
 <use xlink:href="#m1b3f4a2a28" x="139.62" y="145.8" style="fill: #9ca3af; stroke: #9ca3af; stroke-width: 0.8"/>
 </g>
 </g>
 <g>
 <text style="fill: #9ca3af; font: 7px 'DejaVu Sans', 'Bitstream Vera Sans', 'Computer Modern Sans Serif', 'Lucida Grande', 'Verdana', 'Geneva', 'Lucid', 'Arial', 'Helvetica', 'Avant Garde', sans-serif; text-anchor: middle" x="139.62" y="158.12" transform="rotate(-0 139.62 158.12)">2</text>
 </g>
 </g>
 <g>
 <g>
 <path d="M 184.01 145.8 
L 184.01 7.2 
" style="fill: none; stroke: #e5e7eb; stroke-opacity: 0.6; stroke-width: 0.5; stroke-linecap: square"/>
 </g>
 <g>
 <g>
 <use xlink:href="#m1b3f4a2a28" x="184.01" y="145.8" style="fill: #9ca3af; stroke: #9ca3af; stroke-width: 0.8"/>
 </g>
 </g>
 <g>
 <text style="fill: #9ca3af; font: 7px 'DejaVu Sans', 'Bitstream Vera Sans', 'Computer Modern Sans Serif', 'Lucida Grande', 'Verdana', 'Geneva', 'Lucid', 'Arial', 'Helvetica', 'Avant Garde', sans-serif; text-anchor: middle" x="184.01" y="158.12" transform="rotate(-0 184.01 158.12)">4</text>
 </g>
 </g>
 <g>
 <g>
 <path d="M 228.40 145.8 
L 228.40 7.2 
" style="fill: none; stroke: #e5e7eb; stroke-opacity: 0.6; stroke-width: 0.5; stroke-linecap: square"/>
 </g>
 <g>
 <g>
 <use xlink:href="#m1b3f4a2a28" x="228.40" y="145.8" style="fill: #9ca3af; stroke: #9ca3af; stroke-width: 0.8"/>
 </g>
 </g>
 <g>
 <text style="fill: #9ca3af; font: 7px 'DejaVu Sans', 'Bitstream Vera Sans', 'Computer Modern Sans Serif', 'Lucida Grande', 'Verdana', 'Geneva', 'Lucid', 'Arial', 'Helvetica', 'Avant Garde', sans-serif; text-anchor: middle" x="228.40" y="158.12" transform="rotate(-0 228.40 158.12)">6</text>
 </g>
 </g>
 <g>
 <text style="fill: #9ca3af; font: 7px 'DejaVu Sans', 'Bitstream Vera Sans', 'Computer Modern Sans Serif', 'Lucida Grande', 'Verdana', 'Geneva', 'Lucid', 'Arial', 'Helvetica', 'Avant Garde', sans-serif; text-anchor: middle" x="139.62" y="168.89" transform="rotate(-0 139.62 168.89)">x</text>
 </g>
 </g>
 <g>
 <g>
 <g>
 <path d="M 41.97 137.36 
L 237.27 137.36 
" style="fill: none; stroke: #e5e7eb; stroke-opacity: 0.6; stroke-width: 0.5; stroke-linecap: square"/>
 </g>
 <g>
 <defs>
 <path d="M 0 0 
L -3.5 0 
" style="stroke: #9ca3af; stroke-width: 0.8"/>
 </defs>
 <g>
 <use xlink:href="#m2a43bfe6d2" x="41.97" y="137.36" style="fill: #9ca3af; stroke: #9ca3af; stroke-width: 0.8"/>
 </g>
 </g>
 <g>
 <text style="fill: #9ca3af; font: 7px 'DejaVu Sans', 'Bitstream Vera Sans', 'Computer Modern Sans Serif', 'Lucida Grande', 'Verdana', 'Geneva', 'Lucid', 'Arial', 'Helvetica', 'Avant Garde', sans-serif; text-anchor: end" x="34.97" y="140.02" transform="rotate(-0 34.97 140.02)">−0.5</text>
 </g>
 </g>
 <g>
 <g>
 <path d="M 41.97 95.01 
L 237.27 95.01 
" style="fill: none; stroke: #e5e7eb; stroke-opacity: 0.6; stroke-width: 0.5; stroke-linecap: square"/>
 </g>
 <g>
 <g>
 <use xlink:href="#m2a43bfe6d2" x="41.97" y="95.01" style="fill: #9ca3af; stroke: #9ca3af; stroke-width: 0.8"/>
 </g>
 </g>
 <g>
 <text style="fill: #9ca3af; font: 7px 'DejaVu Sans', 'Bitstream Vera Sans', 'Computer Modern Sans Serif', 'Lucida Grande', 'Verdana', 'Geneva', 'Lucid', 'Arial', 'Helvetica', 'Avant Garde', sans-serif; text-anchor: end" x="34.97" y="97.67" transform="rotate(-0 34.97 97.67)">0.0</text>
 </g>
 </g>
 <g>
 <g>
 <path d="M 41.97 52.66 
L 237.27 52.66 
" style="fill: none; stroke: #e5e7eb; stroke-opacity: 0.6; stroke-width: 0.5; stroke-linecap: square"/>
 </g>
 <g>
 <g>
 <use xlink:href="#m2a43bfe6d2" x="41.97" y="52.66" style="fill: #9ca3af; stroke: #9ca3af; stroke-width: 0.8"/>
 </g>
 </g>
 <g>
 <text style="fill: #9ca3af; font: 7px 'DejaVu Sans', 'Bitstream Vera Sans', 'Computer Modern Sans Serif', 'Lucida Grande', 'Verdana', 'Geneva', 'Lucid', 'Arial', 'Helvetica', 'Avant Garde', sans-serif; text-anchor: end" x="34.97" y="55.32" transform="rotate(-0 34.97 55.32)">0.5</text>
 </g>
 </g>
 <g>
 <g>
 <path d="M 41.97 10.31 
L 237.27 10.31 
" style="fill: none; stroke: #e5e7eb; stroke-opacity: 0.6; stroke-width: 0.5; stroke-linecap: square"/>
 </g>
 <g>
 <g>
 <use xlink:href="#m2a43bfe6d2" x="41.97" y="10.31" style="fill: #9ca3af; stroke: #9ca3af; stroke-width: 0.8"/>
 </g>
 </g>
 <g>
 <text style="fill: #9ca3af; font: 7px 'DejaVu Sans', 'Bitstream Vera Sans', 'Computer Modern Sans Serif', 'Lucida Grande', 'Verdana', 'Geneva', 'Lucid', 'Arial', 'Helvetica', 'Avant Garde', sans-serif; text-anchor: end" x="34.97" y="12.97" transform="rotate(-0 34.97 12.97)">1.0</text>
 </g>
 </g>
 <g>
 <text style="fill: #9ca3af; font: 7px 'DejaVu Sans', 'Bitstream Vera Sans', 'Computer Modern Sans Serif', 'Lucida Grande', 'Verdana', 'Geneva', 'Lucid', 'Arial', 'Helvetica', 'Avant Garde', sans-serif; text-anchor: middle" x="12.52" y="76.5" transform="rotate(-90 12.52 76.5)">y</text>
 </g>
 </g>
 <g>
 <path d="M 50.85 42.07 
L 53.10 44.36 
L 55.35 46.43 
L 57.59 48.30 
L 59.84 50.00 
L 62.09 51.54 
L 64.34 52.95 
L 66.58 54.24 
L 68.83 55.42 
L 71.08 56.50 
L 73.33 57.49 
L 75.58 58.39 
L 77.82 59.21 
L 80.07 59.96 
L 82.32 60.63 
L 84.57 61.24 
L 86.81 61.78 
L 89.06 62.26 
L 91.31 62.68 
L 93.56 63.03 
L 95.81 63.31 
L 98.05 63.53 
L 100.30 63.67 
L 102.55 63.74 
L 104.80 63.71 
L 107.04 63.59 
L 109.29 63.35 
L 111.54 62.98 
L 113.79 62.45 
L 116.04 61.71 
L 118.28 60.72 
L 120.53 59.37 
L 122.78 57.56 
L 125.03 55.05 
L 127.27 51.49 
L 129.52 46.17 
L 131.77 37.61 
L 134.02 21.92 
L 135.41 -1 
" style="fill: none; stroke: #2563eb; stroke-width: 1.5; stroke-linecap: square"/>
 </g>
 <g>
 <path d="M 142.91 178.55 
L 142.98 172.26 
L 145.23 135.10 
L 147.48 119.35 
L 149.72 110.72 
L 151.97 105.31 
L 154.22 101.63 
L 156.47 98.99 
L 158.71 97.02 
L 160.96 95.50 
L 163.21 94.30 
L 165.46 93.34 
L 167.71 92.56 
L 169.95 91.93 
L 172.20 91.39 
L 174.45 90.95 
L 176.70 90.58 
L 178.94 90.26 
L 181.19 90.00 
L 183.44 89.77 
L 185.69 89.57 
L 187.94 89.41 
L 190.18 89.27 
L 192.43 89.15 
L 194.68 89.05 
L 196.93 88.96 
L 199.17 88.89 
L 201.42 88.83 
L 203.67 88.78 
L 205.92 88.74 
L 208.17 88.71 
L 210.41 88.68 
L 212.66 88.66 
L 214.91 88.65 
L 217.16 88.64 
L 219.40 88.64 
L 221.65 88.64 
L 223.90 88.64 
L 226.15 88.65 
L 228.40 88.66 
" style="fill: none; stroke: #2563eb; stroke-width: 1.5; stroke-linecap: square"/>
 </g>
 <g>
 <path d="M 139.62 145.8 
L 139.62 7.2 
" style="fill: none; stroke-dasharray: 1,1.65; stroke-dashoffset: 0; stroke: #ef4444; stroke-opacity: 0.8"/>
 </g>
 <g>
 <path d="M 41.97 145.8 
L 41.97 7.2 
" style="fill: none; stroke: #9ca3af; stroke-width: 0.6; stroke-linejoin: miter; stroke-linecap: square"/>
 </g>
 <g>
 <path d="M 237.27 145.8 
L 237.27 7.2 
" style="fill: none; stroke: #9ca3af; stroke-width: 0.6; stroke-linejoin: miter; stroke-linecap: square"/>
 </g>
 <g>
 <path d="M 41.97 145.8 
L 237.27 145.8 
" style="fill: none; stroke: #9ca3af; stroke-width: 0.6; stroke-linejoin: miter; stroke-linecap: square"/>
 </g>
 <g>
 <path d="M 41.97 7.2 
L 237.27 7.2 
" style="fill: none; stroke: #9ca3af; stroke-width: 0.6; stroke-linejoin: miter; stroke-linecap: square"/>
 </g>
 <g>
 <text style="fill: #ef4444; font: 6px 'DejaVu Sans', 'Bitstream Vera Sans', 'Computer Modern Sans Serif', 'Lucida Grande', 'Verdana', 'Geneva', 'Lucid', 'Arial', 'Helvetica', 'Avant Garde', sans-serif; text-anchor: start" x="143.62" y="20.37" transform="rotate(-0 143.62 20.37)">x = 2</text>
 </g>
 <g>
 <path d="M 165.11 67.02 
Q 154.05 51.10 143.62 36.10 
" style="fill: none; stroke: #f59e0b; stroke-linecap: round"/>
 <path d="M 144.26 40.53 
L 143.62 36.10 
L 147.54 38.24 
" style="fill: none; stroke: #f59e0b; stroke-linecap: round"/>
 </g>
 </g>
 </g>
 <defs>
 </defs>
</svg>