<?xml version="1.0" encoding="utf-8" standalone="no"?>
<!DOCTYPE svg PUBLIC "-//W3C//DTD SVG 1.1//EN"
 "http://www.w3.org/Graphics/SVG/1.1/DTD/svg11.dtd">
<svg xmlns:xlink="http://www.w3.org/1999/xlink" width="236.38pt" height="178.58pt" viewBox="0 0 236.38 178.58" xmlns="http://www.w3.org/2000/svg" version="1.1">
 <g>
 <g>
 <path d="M 0 178.58 
L 236.38 178.58 
L 236.38 0 
L 0 0 
L 0 178.58 
z
" style="fill: none"/>
 </g>
 <g>
 <g>
 <path d="M 33.88 146.84 
L 229.18 146.84 
L 229.18 8.24 
L 33.88 8.24 
L 33.88 146.84 
z
" style="fill: none"/>
 </g>
 <g>
 <defs>
 <path d="M 76.05 -70.97 
L 76.05 -55.93 
L 78.31 -55.93 
L 80.58 -55.93 
L 82.84 -55.93 
L 85.11 -55.93 
L 87.37 -55.93 
L 89.64 -55.93 
L 91.90 -55.93 
L 94.17 -55.93 
L 96.43 -55.93 
L 98.70 -55.93 
L 100.96 -55.93 
L 103.22 -55.93 
L 105.49 -55.93 
L 107.75 -55.93 
L 110.02 -55.93 
L 112.28 -55.93 
L 114.55 -55.93 
L 116.81 -55.93 
L 119.08 -55.93 
L 121.34 -55.93 
L 123.61 -55.93 
L 125.87 -55.93 
L 128.14 -55.93 
L 130.40 -55.93 
L 132.66 -55.93 
L 134.93 -55.93 
L 137.19 -55.93 
L 139.46 -55.93 
L 141.72 -55.93 
L 143.99 -55.93 
L 146.25 -55.93 
L 148.52 -55.93 
L 150.78 -55.93 
L 153.05 -55.93 
L 155.31 -55.93 
L 157.58 -55.93 
L 159.84 -55.93 
L 162.10 -55.93 
L 164.37 -55.93 
L 166.63 -55.93 
L 168.90 -55.93 
L 171.16 -55.93 
L 173.43 -55.93 
L 175.69 -55.93 
L 177.96 -55.93 
L 180.22 -55.93 
L 182.49 -55.93 
L 184.75 -55.93 
L 187.02 -55.93 
L 187.02 -131.13 
L 187.02 -131.13 
L 184.75 -129.90 
L 182.49 -128.67 
L 180.22 -127.44 
L 177.96 -126.22 
L 175.69 -124.99 
L 173.43 -123.76 
L 171.16 -122.53 
L 168.90 -121.31 
L 166.63 -120.08 
L 164.37 -118.85 
L 162.10 -117.62 
L 159.84 -116.40 
L 157.58 -115.17 
L 155.31 -113.94 
L 153.05 -112.71 
L 150.78 -111.48 
L 148.52 -110.26 
L 146.25 -109.03 
L 143.99 -107.80 
L 141.72 -106.57 
L 139.46 -105.35 
L 137.19 -104.12 
L 134.93 -102.89 
L 132.66 -101.66 
L 130.40 -100.44 
L 128.14 -99.21 
L 125.87 -97.98 
L 123.61 -96.75 
L 121.34 -95.52 
L 119.08 -94.30 
L 116.81 -93.07 
L 114.55 -91.84 
L 112.28 -90.61 
L 110.02 -89.39 
L 107.75 -88.16 
L 105.49 -86.93 
L 103.22 -85.70 
L 100.96 -84.48 
L 98.70 -83.25 
L 96.43 -82.02 
L 94.17 -80.79 
L 91.90 -79.56 
L 89.64 -78.34 
L 87.37 -77.11 
L 85.11 -75.88 
L 82.84 -74.65 
L 80.58 -73.43 
L 78.31 -72.20 
L 76.05 -70.97 
z
" style="stroke: #2563eb; stroke-opacity: 0.15"/>
 </defs>
 <g>
 <use xlink:href="#m854f5d46fc" x="0" y="178.58" style="fill: #2563eb; fill-opacity: 0.15; stroke: #2563eb; stroke-opacity: 0.15"/>
 </g>
 </g>
 <g>
 <g>
 <g>
 <path d="M 76.05 146.84 
L 76.05 8.24 
" style="fill: none; stroke: #e5e7eb; stroke-opacity: 0.6; stroke-width: 0.5; stroke-linecap: square"/>
 </g>
 <g>
 <defs>
 <path d="M 0 0 
L 0 3.5 
" style="stroke: #9ca3af; stroke-width: 0.8"/>
 </defs>
 <g>
 <use xlink:href="#m88b661b042" x="76.05" y="146.84" style="fill: #9ca3af; stroke: #9ca3af; stroke-width: 0.8"/>
 </g>
 </g>
 <g>
 <text style="fill: #9ca3af; font: 7px 'DejaVu Sans', 'Bitstream Vera Sans', 'Computer Modern Sans Serif', 'Lucida Grande', 'Verdana', 'Geneva', 'Lucid', 'Arial', 'Helvetica', 'Avant Garde', sans-serif; text-anchor: middle" x="76.05" y="159.15" transform="rotate(-0 76.05 159.15)">0</text>
 </g>
 </g>
 <g>
 <g>
 <path d="M 131.53 146.84 
L 131.53 8.24 
" style="fill: none; stroke: #e5e7eb; stroke-opacity: 0.6; stroke-width: 0.5; stroke-linecap: square"/>
 </g>
 <g>
 <g>
 <use xlink:href="#m88b661b042" x="131.53" y="146.84" style="fill: #9ca3af; stroke: #9ca3af; stroke-width: 0.8"/>
 </g>
 </g>
 <g>
 <text style="fill: #9ca3af; font: 7px 'DejaVu Sans', 'Bitstream Vera Sans', 'Computer Modern Sans Serif', 'Lucida Grande', 'Verdana', 'Geneva', 'Lucid', 'Arial', 'Helvetica', 'Avant Garde', sans-serif; text-anchor: middle" x="131.53" y="159.15" transform="rotate(-0 131.53 159.15)">1</text>
 </g>
 </g>
 <g>
 <g>
 <path d="M 187.02 146.84 
L 187.02 8.24 
" style="fill: none; stroke: #e5e7eb; stroke-opacity: 0.6; stroke-width: 0.5; stroke-linecap: square"/>
 </g>
 <g>
 <g>
 <use xlink:href="#m88b661b042" x="187.02" y="146.84" style="fill: #9ca3af; stroke: #9ca3af; stroke-width: 0.8"/>
 </g>
 </g>
 <g>
 <text style="fill: #9ca3af; font: 7px 'DejaVu Sans', 'Bitstream Vera Sans', 'Computer Modern Sans Serif', 'Lucida Grande', 'Verdana', 'Geneva', 'Lucid', 'Arial', 'Helvetica', 'Avant Garde', sans-serif; text-anchor: middle" x="187.02" y="159.15" transform="rotate(-0 187.02 159.15)">2</text>
 </g>
 </g>
 <g>
 <text style="fill: #9ca3af; font: 7px 'DejaVu Sans', 'Bitstream Vera Sans', 'Computer Modern Sans Serif', 'Lucida Grande', 'Verdana', 'Geneva', 'Lucid', 'Arial', 'Helvetica', 'Avant Garde', sans-serif; text-anchor: middle" x="131.53" y="169.93" transform="rotate(-0 131.53 169.93)">x</text>
 </g>
 </g>
 <g>
 <g>
 <g>
 <path d="M 33.88 122.65 
L 229.18 122.65 
" style="fill: none; stroke: #e5e7eb; stroke-opacity: 0.6; stroke-width: 0.5; stroke-linecap: square"/>
 </g>
 <g>
 <defs>
 <path d="M 0 0 
L -3.5 0 
" style="stroke: #9ca3af; stroke-width: 0.8"/>
 </defs>
 <g>
 <use xlink:href="#mcedb1be765" x="33.88" y="122.65" style="fill: #9ca3af; stroke: #9ca3af; stroke-width: 0.8"/>
 </g>
 </g>
 <g>
 <text style="fill: #9ca3af; font: 7px 'DejaVu Sans', 'Bitstream Vera Sans', 'Computer Modern Sans Serif', 'Lucida Grande', 'Verdana', 'Geneva', 'Lucid', 'Arial', 'Helvetica', 'Avant Garde', sans-serif; text-anchor: end" x="26.88" y="125.31" transform="rotate(-0 26.88 125.31)">0</text>
 </g>
 </g>
 <g>
 <g>
 <path d="M 33.88 85.05 
L 229.18 85.05 
" style="fill: none; stroke: #e5e7eb; stroke-opacity: 0.6; stroke-width: 0.5; stroke-linecap: square"/>
 </g>
 <g>
 <g>
 <use xlink:href="#mcedb1be765" x="33.88" y="85.05" style="fill: #9ca3af; stroke: #9ca3af; stroke-width: 0.8"/>
 </g>
 </g>
 <g>
 <text style="fill: #9ca3af; font: 7px 'DejaVu Sans', 'Bitstream Vera Sans', 'Computer Modern Sans Serif', 'Lucida Grande', 'Verdana', 'Geneva', 'Lucid', 'Arial', 'Helvetica', 'Avant Garde', sans-serif; text-anchor: end" x="26.88" y="87.71" transform="rotate(-0 26.88 87.71)">5</text>
 </g>
 </g>
 <g>
 <g>
 <path d="M 33.88 47.46 
L 229.18 47.46 
" style="fill: none; stroke: #e5e7eb; stroke-opacity: 0.6; stroke-width: 0.5; stroke-linecap: square"/>
 </g>
 <g>
 <g>
 <use xlink:href="#mcedb1be765" x="33.88" y="47.46" style="fill: #9ca3af; stroke: #9ca3af; stroke-width: 0.8"/>
 </g>
 </g>
 <g>
 <text style="fill: #9ca3af; font: 7px 'DejaVu Sans', 'Bitstream Vera Sans', 'Computer Modern Sans Serif', 'Lucida Grande', 'Verdana', 'Geneva', 'Lucid', 'Arial', 'Helvetica', 'Avant Garde', sans-serif; text-anchor: end" x="26.88" y="50.12" transform="rotate(-0 26.88 50.12)">10</text>
 </g>
 </g>
 <g>
 <g>
 <path d="M 33.88 9.86 
L 229.18 9.86 
" style="fill: none; stroke: #e5e7eb; stroke-opacity: 0.6; stroke-width: 0.5; stroke-linecap: square"/>
 </g>
 <g>
 <g>
 <use xlink:href="#mcedb1be765" x="33.88" y="9.86" style="fill: #9ca3af; stroke: #9ca3af; stroke-width: 0.8"/>
 </g>
 </g>
 <g>
 <text style="fill: #9ca3af; font: 7px 'DejaVu Sans', 'Bitstream Vera Sans', 'Computer Modern Sans Serif', 'Lucida Grande', 'Verdana', 'Geneva', 'Lucid', 'Arial', 'Helvetica', 'Avant Garde', sans-serif; text-anchor: end" x="26.88" y="12.52" transform="rotate(-0 26.88 12.52)">15</text>
 </g>
 </g>
 <g>
 <text style="fill: #9ca3af; font: 7px 'DejaVu Sans', 'Bitstream Vera Sans', 'Computer Modern Sans Serif', 'Lucida Grande', 'Verdana', 'Geneva', 'Lucid', 'Arial', 'Helvetica', 'Avant Garde', sans-serif; text-anchor: middle" x="12.52" y="77.54" transform="rotate(-90 12.52 77.54)">y</text>
 </g>
 </g>
 <g>
 <path d="M 42.76 125.66 
L 45.01 124.44 
L 47.25 123.22 
L 49.50 122.01 
L 51.75 120.79 
L 54.00 119.57 
L 56.24 118.35 
L 58.49 117.13 
L 60.74 115.91 
L 62.99 114.70 
L 65.23 113.48 
L 67.48 112.26 
L 69.73 111.04 
L 71.98 109.82 
L 74.22 108.60 
L 76.47 107.38 
L 78.72 106.17 
L 80.97 104.95 
L 83.21 103.73 
L 85.46 102.51 
L 87.71 101.29 
L 89.96 100.07 
L 92.20 98.86 
L 94.45 97.64 
L 96.70 96.42 
L 98.94 95.20 
L 101.19 93.98 
L 103.44 92.76 
L 105.69 91.55 
L 107.93 90.33 
L 110.18 89.11 
L 112.43 87.89 
L 114.68 86.67 
L 116.92 85.45 
L 119.17 84.24 
L 121.42 83.02 
L 123.67 81.80 
L 125.91 80.58 
L 128.16 79.36 
L 130.41 78.14 
L 132.66 76.93 
L 134.90 75.71 
L 137.15 74.49 
L 139.40 73.27 
L 141.65 72.05 
L 143.89 70.83 
L 146.14 69.62 
L 148.39 68.40 
L 150.64 67.18 
L 152.88 65.96 
L 155.13 64.74 
L 157.38 63.52 
L 159.62 62.31 
L 161.87 61.09 
L 164.12 59.87 
L 166.37 58.65 
L 168.61 57.43 
L 170.86 56.21 
L 173.11 55.00 
L 175.36 53.78 
L 177.60 52.56 
L 179.85 51.34 
L 182.10 50.12 
L 184.35 48.90 
L 186.59 47.69 
L 188.84 46.47 
L 191.09 45.25 
L 193.34 44.03 
L 195.58 42.81 
L 197.83 41.59 
L 200.08 40.38 
L 202.33 39.16 
L 204.57 37.94 
L 206.82 36.72 
L 209.07 35.50 
L 211.32 34.28 
L 213.56 33.07 
L 215.81 31.85 
L 218.06 30.63 
L 220.30 29.41 
" style="fill: none; stroke: #2563eb; stroke-width: 1.5; stroke-linecap: square"/>
 </g>
 <g>
 <path d="M 33.88 122.65 
L 229.18 122.65 
" style="fill: none; stroke: #9ca3af; stroke-width: 0.6; stroke-linecap: square"/>
 </g>
 <g>
 <path d="M 76.05 146.84 
L 76.05 8.24 
" style="fill: none; stroke-dasharray: 0.6,0.99; stroke-dashoffset: 0; stroke: #6b7280; stroke-width: 0.6"/>
 </g>
 <g>
 <path d="M 187.02 146.84 
L 187.02 8.24 
" style="fill: none; stroke-dasharray: 0.6,0.99; stroke-dashoffset: 0; stroke: #6b7280; stroke-width: 0.6"/>
 </g>
 <g>
 <path d="M 33.88 146.84 
L 33.88 8.24 
" style="fill: none; stroke: #9ca3af; stroke-width: 0.6; stroke-linejoin: miter; stroke-linecap: square"/>
 </g>
 <g>
 <path d="M 229.18 146.84 
L 229.18 8.24 
" style="fill: none; stroke: #9ca3af; stroke-width: 0.6; stroke-linejoin: miter; stroke-linecap: square"/>
 </g>
 <g>
 <path d="M 33.88 146.84 
L 229.18 146.84 
" style="fill: none; stroke: #9ca3af; stroke-width: 0.6; stroke-linejoin: miter; stroke-linecap: square"/>
 </g>
 <g>
 <path d="M 33.88 8.24 
L 229.18 8.24 
" style="fill: none; stroke: #9ca3af; stroke-width: 0.6; stroke-linejoin: miter; stroke-linecap: square"/>
 </g>
 </g>
 </g>
 <defs>
 </defs>
</svg>