<?xml version="1.0" encoding="utf-8" standalone="no"?>
<!DOCTYPE svg PUBLIC "-//W3C//DTD SVG 1.1//EN"
 "http://www.w3.org/Graphics/SVG/1.1/DTD/svg11.dtd">
<svg xmlns:xlink="http://www.w3.org/1999/xlink" width="237.79pt" height="177.55pt" viewBox="0 0 237.79 177.55" xmlns="http://www.w3.org/2000/svg" version="1.1">
 <g>
 <g>
 <path d="M 0 177.55 
L 237.79 177.55 
L 237.79 0 
L 0 0 
L 0 177.55 
z
" style="fill: none"/>
 </g>
 <g>
 <g>
 <path d="M 35.29 145.8 
L 230.59 145.8 
L 230.59 7.2 
L 35.29 7.2 
L 35.29 145.8 
z
" style="fill: none"/>
 </g>
 <g>
 <defs>
 <path d="M 77.46 -131.13 
L 77.46 -86.01 
L 79.73 -86.01 
L 81.99 -86.01 
L 84.26 -86.01 
L 86.52 -86.01 
L 88.78 -86.01 
L 91.05 -86.01 
L 93.31 -86.01 
L 95.58 -86.01 
L 97.84 -86.01 
L 100.11 -86.01 
L 102.37 -86.01 
L 104.64 -86.01 
L 106.90 -86.01 
L 109.17 -86.01 
L 111.43 -86.01 
L 113.70 -86.01 
L 115.96 -86.01 
L 118.22 -86.01 
L 120.49 -86.01 
L 122.75 -86.01 
L 125.02 -86.01 
L 127.28 -86.01 
L 129.55 -86.01 
L 131.81 -86.01 
L 134.08 -86.01 
L 136.34 -86.01 
L 138.61 -86.01 
L 140.87 -86.01 
L 143.13 -86.01 
L 145.40 -86.01 
L 147.66 -86.01 
L 149.93 -86.01 
L 152.19 -86.01 
L 154.46 -86.01 
L 156.72 -86.01 
L 158.99 -86.01 
L 161.25 -86.01 
L 163.52 -86.01 
L 165.78 -86.01 
L 168.05 -86.01 
L 170.31 -86.01 
L 172.57 -86.01 
L 174.84 -86.01 
L 177.10 -86.01 
L 179.37 -86.01 
L 181.63 -86.01 
L 183.90 -86.01 
L 186.16 -86.01 
L 188.43 -86.01 
L 188.43 -70.97 
L 188.43 -70.97 
L 186.16 -72.20 
L 183.90 -73.43 
L 181.63 -74.65 
L 179.37 -75.88 
L 177.10 -77.11 
L 174.84 -78.34 
L 172.57 -79.56 
L 170.31 -80.79 
L 168.05 -82.02 
L 165.78 -83.25 
L 163.52 -84.48 
L 161.25 -85.70 
L 158.99 -86.93 
L 156.72 -88.16 
L 154.46 -89.39 
L 152.19 -90.61 
L 149.93 -91.84 
L 147.66 -93.07 
L 145.40 -94.30 
L 143.13 -95.52 
L 140.87 -96.75 
L 138.61 -97.98 
L 136.34 -99.21 
L 134.08 -100.44 
L 131.81 -101.66 
L 129.55 -102.89 
L 127.28 -104.12 
L 125.02 -105.35 
L 122.75 -106.57 
L 120.49 -107.80 
L 118.22 -109.03 
L 115.96 -110.26 
L 113.70 -111.48 
L 111.43 -112.71 
L 109.17 -113.94 
L 106.90 -115.17 
L 104.64 -116.40 
L 102.37 -117.62 
L 100.11 -118.85 
L 97.84 -120.08 
L 95.58 -121.31 
L 93.31 -122.53 
L 91.05 -123.76 
L 88.78 -124.99 
L 86.52 -126.22 
L 84.26 -127.44 
L 81.99 -128.67 
L 79.73 -129.90 
L 77.46 -131.13 
z
" style="stroke: #2563eb; stroke-opacity: 0.15"/>
 </defs>
 <g>
 <use xlink:href="#m0e780a5669" x="0" y="177.55" style="fill: #2563eb; fill-opacity: 0.15; stroke: #2563eb; stroke-opacity: 0.15"/>
 </g>
 </g>
 <g>
 <g>
 <g>
 <path d="M 77.46 145.8 
L 77.46 7.2 
" style="fill: none; stroke: #e5e7eb; stroke-opacity: 0.6; stroke-width: 0.5; stroke-linecap: square"/>
 </g>
 <g>
 <defs>
 <path d="M 0 0 
L 0 3.5 
" style="stroke: #9ca3af; stroke-width: 0.8"/>
 </defs>
 <g>
 <use xlink:href="#ma30f77959a" x="77.46" y="145.8" style="fill: #9ca3af; stroke: #9ca3af; stroke-width: 0.8"/>
 </g>
 </g>
 <g>
 <text style="fill: #9ca3af; font: 7px 'DejaVu Sans', 'Bitstream Vera Sans', 'Computer Modern Sans Serif', 'Lucida Grande', 'Verdana', 'Geneva', 'Lucid', 'Arial', 'Helvetica', 'Avant Garde', sans-serif; text-anchor: middle" x="77.46" y="158.12" transform="rotate(-0 77.46 158.12)">−1.0</text>
 </g>
 </g>
 <g>
 <g>
 <path d="M 132.94 145.8 
L 132.94 7.2 
" style="fill: none; stroke: #e5e7eb; stroke-opacity: 0.6; stroke-width: 0.5; stroke-linecap: square"/>
 </g>
 <g>
 <g>
 <use xlink:href="#ma30f77959a" x="132.94" y="145.8" style="fill: #9ca3af; stroke: #9ca3af; stroke-width: 0.8"/>
 </g>
 </g>
 <g>
 <text style="fill: #9ca3af; font: 7px 'DejaVu Sans', 'Bitstream Vera Sans', 'Computer Modern Sans Serif', 'Lucida Grande', 'Verdana', 'Geneva', 'Lucid', 'Arial', 'Helvetica', 'Avant Garde', sans-serif; text-anchor: middle" x="132.94" y="158.12" transform="rotate(-0 132.94 158.12)">−0.5</text>
 </g>
 </g>
 <g>
 <g>
 <path d="M 188.43 145.8 
L 188.43 7.2 
" style="fill: none; stroke: #e5e7eb; stroke-opacity: 0.6; stroke-width: 0.5; stroke-linecap: square"/>
 </g>
 <g>
 <g>
 <use xlink:href="#ma30f77959a" x="188.43" y="145.8" style="fill: #9ca3af; stroke: #9ca3af; stroke-width: 0.8"/>
 </g>
 </g>
 <g>
 <text style="fill: #9ca3af; font: 7px 'DejaVu Sans', 'Bitstream Vera Sans', 'Computer Modern Sans Serif', 'Lucida Grande', 'Verdana', 'Geneva', 'Lucid', 'Arial', 'Helvetica', 'Avant Garde', sans-serif; text-anchor: middle" x="188.43" y="158.12" transform="rotate(-0 188.43 158.12)">0.0</text>
 </g>
 </g>
 <g>
 <text style="fill: #9ca3af; font: 7px 'DejaVu Sans', 'Bitstream Vera Sans', 'Computer Modern Sans Serif', 'Lucida Grande', 'Verdana', 'Geneva', 'Lucid', 'Arial', 'Helvetica', 'Avant Garde', sans-serif; text-anchor: middle" x="132.94" y="168.89" transform="rotate(-0 132.94 168.89)">x</text>
 </g>
 </g>
 <g>
 <g>
 <g>
 <path d="M 35.29 121.62 
L 230.59 121.62 
" style="fill: none; stroke: #e5e7eb; stroke-opacity: 0.6; stroke-width: 0.5; stroke-linecap: square"/>
 </g>
 <g>
 <defs>
 <path d="M 0 0 
L -3.5 0 
" style="stroke: #9ca3af; stroke-width: 0.8"/>
 </defs>
 <g>
 <use xlink:href="#ma49d03dcad" x="35.29" y="121.62" style="fill: #9ca3af; stroke: #9ca3af; stroke-width: 0.8"/>
 </g>
 </g>
 <g>
 <text style="fill: #9ca3af; font: 7px 'DejaVu Sans', 'Bitstream Vera Sans', 'Computer Modern Sans Serif', 'Lucida Grande', 'Verdana', 'Geneva', 'Lucid', 'Arial', 'Helvetica', 'Avant Garde', sans-serif; text-anchor: end" x="28.29" y="124.28" transform="rotate(-0 28.29 124.28)">−2</text>
 </g>
 </g>
 <g>
 <g>
 <path d="M 35.29 91.54 
L 230.59 91.54 
" style="fill: none; stroke: #e5e7eb; stroke-opacity: 0.6; stroke-width: 0.5; stroke-linecap: square"/>
 </g>
 <g>
 <g>
 <use xlink:href="#ma49d03dcad" x="35.29" y="91.54" style="fill: #9ca3af; stroke: #9ca3af; stroke-width: 0.8"/>
 </g>
 </g>
 <g>
 <text style="fill: #9ca3af; font: 7px 'DejaVu Sans', 'Bitstream Vera Sans', 'Computer Modern Sans Serif', 'Lucida Grande', 'Verdana', 'Geneva', 'Lucid', 'Arial', 'Helvetica', 'Avant Garde', sans-serif; text-anchor: end" x="28.29" y="94.20" transform="rotate(-0 28.29 94.20)">0</text>
 </g>
 </g>
 <g>
 <g>
 <path d="M 35.29 61.46 
L 230.59 61.46 
" style="fill: none; stroke: #e5e7eb; stroke-opacity: 0.6; stroke-width: 0.5; stroke-linecap: square"/>
 </g>
 <g>
 <g>
 <use xlink:href="#ma49d03dcad" x="35.29" y="61.46" style="fill: #9ca3af; stroke: #9ca3af; stroke-width: 0.8"/>
 </g>
 </g>
 <g>
 <text style="fill: #9ca3af; font: 7px 'DejaVu Sans', 'Bitstream Vera Sans', 'Computer Modern Sans Serif', 'Lucida Grande', 'Verdana', 'Geneva', 'Lucid', 'Arial', 'Helvetica', 'Avant Garde', sans-serif; text-anchor: end" x="28.29" y="64.12" transform="rotate(-0 28.29 64.12)">2</text>
 </g>
 </g>
 <g>
 <g>
 <path d="M 35.29 31.38 
L 230.59 31.38 
" style="fill: none; stroke: #e5e7eb; stroke-opacity: 0.6; stroke-width: 0.5; stroke-linecap: square"/>
 </g>
 <g>
 <g>
 <use xlink:href="#ma49d03dcad" x="35.29" y="31.38" style="fill: #9ca3af; stroke: #9ca3af; stroke-width: 0.8"/>
 </g>
 </g>
 <g>
 <text style="fill: #9ca3af; font: 7px 'DejaVu Sans', 'Bitstream Vera Sans', 'Computer Modern Sans Serif', 'Lucida Grande', 'Verdana', 'Geneva', 'Lucid', 'Arial', 'Helvetica', 'Avant Garde', sans-serif; text-anchor: end" x="28.29" y="34.04" transform="rotate(-0 28.29 34.04)">4</text>
 </g>
 </g>
 <g>
 <text style="fill: #9ca3af; font: 7px 'DejaVu Sans', 'Bitstream Vera Sans', 'Computer Modern Sans Serif', 'Lucida Grande', 'Verdana', 'Geneva', 'Lucid', 'Arial', 'Helvetica', 'Avant Garde', sans-serif; text-anchor: middle" x="12.52" y="76.5" transform="rotate(-90 12.52 76.5)">y</text>
 </g>
 </g>
 <g>
 <path d="M 44.17 28.38 
L 46.42 29.59 
L 48.67 30.81 
L 50.91 32.03 
L 53.16 33.25 
L 55.41 34.47 
L 57.66 35.69 
L 59.90 36.90 
L 62.15 38.12 
L 64.40 39.34 
L 66.65 40.56 
L 68.89 41.78 
L 71.14 43.00 
L 73.39 44.21 
L 75.64 45.43 
L 77.88 46.65 
L 80.13 47.87 
L 82.38 49.09 
L 84.62 50.31 
L 86.87 51.52 
L 89.12 52.74 
L 91.37 53.96 
L 93.61 55.18 
L 95.86 56.40 
L 98.11 57.62 
L 100.36 58.83 
L 102.60 60.05 
L 104.85 61.27 
L 107.10 62.49 
L 109.35 63.71 
L 111.59 64.93 
L 113.84 66.14 
L 116.09 67.36 
L 118.34 68.58 
L 120.58 69.80 
L 122.83 71.02 
L 125.08 72.24 
L 127.33 73.45 
L 129.57 74.67 
L 131.82 75.89 
L 134.07 77.11 
L 136.32 78.33 
L 138.56 79.55 
L 140.81 80.76 
L 143.06 81.98 
L 145.30 83.20 
L 147.55 84.42 
L 149.80 85.64 
L 152.05 86.86 
L 154.29 88.07 
L 156.54 89.29 
L 158.79 90.51 
L 161.04 91.73 
L 163.28 92.95 
L 165.53 94.17 
L 167.78 95.38 
L 170.03 96.60 
L 172.27 97.82 
L 174.52 99.04 
L 176.77 100.26 
L 179.02 101.48 
L 181.26 102.69 
L 183.51 103.91 
L 185.76 105.13 
L 188.01 106.35 
L 190.25 107.57 
L 192.50 108.79 
L 194.75 110.00 
L 197.00 111.22 
L 199.24 112.44 
L 201.49 113.66 
L 203.74 114.88 
L 205.99 116.10 
L 208.23 117.31 
L 210.48 118.53 
L 212.73 119.75 
L 214.97 120.97 
L 217.22 122.19 
L 219.47 123.41 
L 221.72 124.62 
" style="fill: none; stroke: #2563eb; stroke-width: 1.5; stroke-linecap: square"/>
 </g>
 <g>
 <path d="M 35.29 91.54 
L 230.59 91.54 
" style="fill: none; stroke: #9ca3af; stroke-width: 0.6; stroke-linecap: square"/>
 </g>
 <g>
 <path d="M 77.46 145.8 
L 77.46 7.2 
" style="fill: none; stroke-dasharray: 0.6,0.99; stroke-dashoffset: 0; stroke: #6b7280; stroke-width: 0.6"/>
 </g>
 <g>
 <path d="M 188.43 145.8 
L 188.43 7.2 
" style="fill: none; stroke-dasharray: 0.6,0.99; stroke-dashoffset: 0; stroke: #6b7280; stroke-width: 0.6"/>
 </g>
 <g>
 <path d="M 35.29 145.8 
L 35.29 7.2 
" style="fill: none; stroke: #9ca3af; stroke-width: 0.6; stroke-linejoin: miter; stroke-linecap: square"/>
 </g>
 <g>
 <path d="M 230.59 145.8 
L 230.59 7.2 
" style="fill: none; stroke: #9ca3af; stroke-width: 0.6; stroke-linejoin: miter; stroke-linecap: square"/>
 </g>
 <g>
 <path d="M 35.29 145.8 
L 230.59 145.8 
" style="fill: none; stroke: #9ca3af; stroke-width: 0.6; stroke-linejoin: miter; stroke-linecap: square"/>
 </g>
 <g>
 <path d="M 35.29 7.2 
L 230.59 7.2 
" style="fill: none; stroke: #9ca3af; stroke-width: 0.6; stroke-linejoin: miter; stroke-linecap: square"/>
 </g>
 </g>
 </g>
 <defs>
 </defs>
</svg>