<?xml version="1.0" encoding="utf-8" standalone="no"?>
<!DOCTYPE svg PUBLIC "-//W3C//DTD SVG 1.1//EN"
 "http://www.w3.org/Graphics/SVG/1.1/DTD/svg11.dtd">
<svg xmlns:xlink="http://www.w3.org/1999/xlink" width="244.47pt" height="177.55pt" viewBox="0 0 244.47 177.55" xmlns="http://www.w3.org/2000/svg" version="1.1">
 <g>
 <g>
 <path d="M 0 177.55 
L 244.47 177.55 
L 244.47 0 
L 0 0 
L 0 177.55 
z
" style="fill: none"/>
 </g>
 <g>
 <g>
 <path d="M 41.97 145.8 
L 237.27 145.8 
L 237.27 7.2 
L 41.97 7.2 
L 41.97 145.8 
z
" style="fill: none"/>
 </g>
 <g>
 <defs>
 <path d="M 84.14 -70.97 
L 84.14 -191.28 
L 86.40 -191.28 
L 88.67 -191.28 
L 90.93 -191.28 
L 93.20 -191.28 
L 95.46 -191.28 
L 97.73 -191.28 
L 99.99 -191.28 
L 102.26 -191.28 
L 104.52 -191.28 
L 106.79 -191.28 
L 109.05 -191.28 
L 111.32 -191.28 
L 113.58 -191.28 
L 115.84 -191.28 
L 118.11 -191.28 
L 120.37 -191.28 
L 122.64 -191.28 
L 124.90 -191.28 
L 127.17 -191.28 
L 129.43 -191.28 
L 131.70 -191.28 
L 133.96 -191.28 
L 136.23 -191.28 
L 138.49 -191.28 
L 140.75 -191.28 
L 143.02 -191.28 
L 145.28 -191.28 
L 147.55 -191.28 
L 149.81 -191.28 
L 152.08 -191.28 
L 154.34 -191.28 
L 156.61 -191.28 
L 158.87 -191.28 
L 161.14 -191.28 
L 163.40 -191.28 
L 165.67 -191.28 
L 167.93 -191.28 
L 170.19 -191.28 
L 172.46 -191.28 
L 174.72 -191.28 
L 176.99 -191.28 
L 179.25 -191.28 
L 181.52 -191.28 
L 183.78 -191.28 
L 186.05 -191.28 
L 188.31 -191.28 
L 190.58 -191.28 
L 192.84 -191.28 
L 195.11 -191.28 
L 195.11 -131.13 
L 195.11 -131.13 
L 192.84 -129.90 
L 190.58 -128.67 
L 188.31 -127.44 
L 186.05 -126.22 
L 183.78 -124.99 
L 181.52 -123.76 
L 179.25 -122.53 
L 176.99 -121.31 
L 174.72 -120.08 
L 172.46 -118.85 
L 170.19 -117.62 
L 167.93 -116.40 
L 165.67 -115.17 
L 163.40 -113.94 
L 161.14 -112.71 
L 158.87 -111.48 
L 156.61 -110.26 
L 154.34 -109.03 
L 152.08 -107.80 
L 149.81 -106.57 
L 147.55 -105.35 
L 145.28 -104.12 
L 143.02 -102.89 
L 140.75 -101.66 
L 138.49 -100.44 
L 136.23 -99.21 
L 133.96 -97.98 
L 131.70 -96.75 
L 129.43 -95.52 
L 127.17 -94.30 
L 124.90 -93.07 
L 122.64 -91.84 
L 120.37 -90.61 
L 118.11 -89.39 
L 115.84 -88.16 
L 113.58 -86.93 
L 111.32 -85.70 
L 109.05 -84.48 
L 106.79 -83.25 
L 104.52 -82.02 
L 102.26 -80.79 
L 99.99 -79.56 
L 97.73 -78.34 
L 95.46 -77.11 
L 93.20 -75.88 
L 90.93 -74.65 
L 88.67 -73.43 
L 86.40 -72.20 
L 84.14 -70.97 
z
" style="stroke: #2563eb; stroke-opacity: 0.15"/>
 </defs>
 <g>
 <use xlink:href="#mff8add02d3" x="0" y="177.55" style="fill: #2563eb; fill-opacity: 0.15; stroke: #2563eb; stroke-opacity: 0.15"/>
 </g>
 </g>
 <g>
 <g>
 <g>
 <path d="M 84.14 145.8 
L 84.14 7.2 
" style="fill: none; stroke: #e5e7eb; stroke-opacity: 0.6; stroke-width: 0.5; stroke-linecap: square"/>
 </g>
 <g>
 <defs>
 <path d="M 0 0 
L 0 3.5 
" style="stroke: #9ca3af; stroke-width: 0.8"/>
 </defs>
 <g>
 <use xlink:href="#mc80f5dc570" x="84.14" y="145.8" style="fill: #9ca3af; stroke: #9ca3af; stroke-width: 0.8"/>
 </g>
 </g>
 <g>
 <text style="fill: #9ca3af; font: 7px 'DejaVu Sans', 'Bitstream Vera Sans', 'Computer Modern Sans Serif', 'Lucida Grande', 'Verdana', 'Geneva', 'Lucid', 'Arial', 'Helvetica', 'Avant Garde', sans-serif; text-anchor: middle" x="84.14" y="158.12" transform="rotate(-0 84.14 158.12)">−1.0</text>
 </g>
 </g>
 <g>
 <g>
 <path d="M 139.62 145.8 
L 139.62 7.2 
" style="fill: none; stroke: #e5e7eb; stroke-opacity: 0.6; stroke-width: 0.5; stroke-linecap: square"/>
 </g>
 <g>
 <g>
 <use xlink:href="#mc80f5dc570" x="139.62" y="145.8" style="fill: #9ca3af; stroke: #9ca3af; stroke-width: 0.8"/>
 </g>
 </g>
 <g>
 <text style="fill: #9ca3af; font: 7px 'DejaVu Sans', 'Bitstream Vera Sans', 'Computer Modern Sans Serif', 'Lucida Grande', 'Verdana', 'Geneva', 'Lucid', 'Arial', 'Helvetica', 'Avant Garde', sans-serif; text-anchor: middle" x="139.62" y="158.12" transform="rotate(-0 139.62 158.12)">−0.5</text>
 </g>
 </g>
 <g>
 <g>
 <path d="M 195.11 145.8 
L 195.11 7.2 
" style="fill: none; stroke: #e5e7eb; stroke-opacity: 0.6; stroke-width: 0.5; stroke-linecap: square"/>
 </g>
 <g>
 <g>
 <use xlink:href="#mc80f5dc570" x="195.11" y="145.8" style="fill: #9ca3af; stroke: #9ca3af; stroke-width: 0.8"/>
 </g>
 </g>
 <g>
 <text style="fill: #9ca3af; font: 7px 'DejaVu Sans', 'Bitstream Vera Sans', 'Computer Modern Sans Serif', 'Lucida Grande', 'Verdana', 'Geneva', 'Lucid', 'Arial', 'Helvetica', 'Avant Garde', sans-serif; text-anchor: middle" x="195.11" y="158.12" transform="rotate(-0 195.11 158.12)">0.0</text>
 </g>
 </g>
 <g>
 <text style="fill: #9ca3af; font: 7px 'DejaVu Sans', 'Bitstream Vera Sans', 'Computer Modern Sans Serif', 'Lucida Grande', 'Verdana', 'Geneva', 'Lucid', 'Arial', 'Helvetica', 'Avant Garde', sans-serif; text-anchor: middle" x="139.62" y="168.89" transform="rotate(-0 139.62 168.89)">x</text>
 </g>
 </g>
 <g>
 <g>
 <g>
 <path d="M 41.97 136.66 
L 237.27 136.66 
" style="fill: none; stroke: #e5e7eb; stroke-opacity: 0.6; stroke-width: 0.5; stroke-linecap: square"/>
 </g>
 <g>
 <defs>
 <path d="M 0 0 
L -3.5 0 
" style="stroke: #9ca3af; stroke-width: 0.8"/>
 </defs>
 <g>
 <use xlink:href="#mc2db9a9f1e" x="41.97" y="136.66" style="fill: #9ca3af; stroke: #9ca3af; stroke-width: 0.8"/>
 </g>
 </g>
 <g>
 <text style="fill: #9ca3af; font: 7px 'DejaVu Sans', 'Bitstream Vera Sans', 'Computer Modern Sans Serif', 'Lucida Grande', 'Verdana', 'Geneva', 'Lucid', 'Arial', 'Helvetica', 'Avant Garde', sans-serif; text-anchor: end" x="34.97" y="139.32" transform="rotate(-0 34.97 139.32)">−2.5</text>
 </g>
 </g>
 <g>
 <g>
 <path d="M 41.97 106.58 
L 237.27 106.58 
" style="fill: none; stroke: #e5e7eb; stroke-opacity: 0.6; stroke-width: 0.5; stroke-linecap: square"/>
 </g>
 <g>
 <g>
 <use xlink:href="#mc2db9a9f1e" x="41.97" y="106.58" style="fill: #9ca3af; stroke: #9ca3af; stroke-width: 0.8"/>
 </g>
 </g>
 <g>
 <text style="fill: #9ca3af; font: 7px 'DejaVu Sans', 'Bitstream Vera Sans', 'Computer Modern Sans Serif', 'Lucida Grande', 'Verdana', 'Geneva', 'Lucid', 'Arial', 'Helvetica', 'Avant Garde', sans-serif; text-anchor: end" x="34.97" y="109.24" transform="rotate(-0 34.97 109.24)">−2.0</text>
 </g>
 </g>
 <g>
 <g>
 <path d="M 41.97 76.5 
L 237.27 76.5 
" style="fill: none; stroke: #e5e7eb; stroke-opacity: 0.6; stroke-width: 0.5; stroke-linecap: square"/>
 </g>
 <g>
 <g>
 <use xlink:href="#mc2db9a9f1e" x="41.97" y="76.5" style="fill: #9ca3af; stroke: #9ca3af; stroke-width: 0.8"/>
 </g>
 </g>
 <g>
 <text style="fill: #9ca3af; font: 7px 'DejaVu Sans', 'Bitstream Vera Sans', 'Computer Modern Sans Serif', 'Lucida Grande', 'Verdana', 'Geneva', 'Lucid', 'Arial', 'Helvetica', 'Avant Garde', sans-serif; text-anchor: end" x="34.97" y="79.16" transform="rotate(-0 34.97 79.16)">−1.5</text>
 </g>
 </g>
 <g>
 <g>
 <path d="M 41.97 46.42 
L 237.27 46.42 
" style="fill: none; stroke: #e5e7eb; stroke-opacity: 0.6; stroke-width: 0.5; stroke-linecap: square"/>
 </g>
 <g>
 <g>
 <use xlink:href="#mc2db9a9f1e" x="41.97" y="46.42" style="fill: #9ca3af; stroke: #9ca3af; stroke-width: 0.8"/>
 </g>
 </g>
 <g>
 <text style="fill: #9ca3af; font: 7px 'DejaVu Sans', 'Bitstream Vera Sans', 'Computer Modern Sans Serif', 'Lucida Grande', 'Verdana', 'Geneva', 'Lucid', 'Arial', 'Helvetica', 'Avant Garde', sans-serif; text-anchor: end" x="34.97" y="49.08" transform="rotate(-0 34.97 49.08)">−1.0</text>
 </g>
 </g>
 <g>
 <g>
 <path d="M 41.97 16.34 
L 237.27 16.34 
" style="fill: none; stroke: #e5e7eb; stroke-opacity: 0.6; stroke-width: 0.5; stroke-linecap: square"/>
 </g>
 <g>
 <g>
 <use xlink:href="#mc2db9a9f1e" x="41.97" y="16.34" style="fill: #9ca3af; stroke: #9ca3af; stroke-width: 0.8"/>
 </g>
 </g>
 <g>
 <text style="fill: #9ca3af; font: 7px 'DejaVu Sans', 'Bitstream Vera Sans', 'Computer Modern Sans Serif', 'Lucida Grande', 'Verdana', 'Geneva', 'Lucid', 'Arial', 'Helvetica', 'Avant Garde', sans-serif; text-anchor: end" x="34.97" y="19.00" transform="rotate(-0 34.97 19.00)">−0.5</text>
 </g>
 </g>
 <g>
 <text style="fill: #9ca3af; font: 7px 'DejaVu Sans', 'Bitstream Vera Sans', 'Computer Modern Sans Serif', 'Lucida Grande', 'Verdana', 'Geneva', 'Lucid', 'Arial', 'Helvetica', 'Avant Garde', sans-serif; text-anchor: middle" x="12.52" y="76.5" transform="rotate(-90 12.52 76.5)">y</text>
 </g>
 </g>
 <g>
 <path d="M 50.85 124.62 
L 53.10 123.41 
L 55.34 122.19 
L 57.59 120.97 
L 59.84 119.75 
L 62.09 118.53 
L 64.33 117.31 
L 66.58 116.10 
L 68.83 114.88 
L 71.08 113.66 
L 73.32 112.44 
L 75.57 111.22 
L 77.82 110.00 
L 80.07 108.79 
L 82.31 107.57 
L 84.56 106.35 
L 86.81 105.13 
L 89.06 103.91 
L 91.30 102.69 
L 93.55 101.48 
L 95.80 100.26 
L 98.05 99.04 
L 100.29 97.82 
L 102.54 96.60 
L 104.79 95.38 
L 107.04 94.17 
L 109.28 92.95 
L 111.53 91.73 
L 113.78 90.51 
L 116.02 89.29 
L 118.27 88.07 
L 120.52 86.86 
L 122.77 85.64 
L 125.01 84.42 
L 127.26 83.20 
L 129.51 81.98 
L 131.76 80.76 
L 134.00 79.55 
L 136.25 78.33 
L 138.50 77.11 
L 140.75 75.89 
L 142.99 74.67 
L 145.24 73.45 
L 147.49 72.24 
L 149.74 71.02 
L 151.98 69.80 
L 154.23 68.58 
L 156.48 67.36 
L 158.73 66.14 
L 160.97 64.93 
L 163.22 63.71 
L 165.47 62.49 
L 167.72 61.27 
L 169.96 60.05 
L 172.21 58.83 
L 174.46 57.62 
L 176.70 56.40 
L 178.95 55.18 
L 181.20 53.96 
L 183.45 52.74 
L 185.69 51.52 
L 187.94 50.31 
L 190.19 49.09 
L 192.44 47.87 
L 194.68 46.65 
L 196.93 45.43 
L 199.18 44.21 
L 201.43 43.00 
L 203.67 41.78 
L 205.92 40.56 
L 208.17 39.34 
L 210.42 38.12 
L 212.66 36.90 
L 214.91 35.69 
L 217.16 34.47 
L 219.41 33.25 
L 221.65 32.03 
L 223.90 30.81 
L 226.15 29.59 
L 228.40 28.38 
" style="fill: none; stroke: #2563eb; stroke-width: 1.5; stroke-linecap: square"/>
 </g>
 <g>
 <path style="fill: none; stroke: #9ca3af; stroke-width: 0.6; stroke-linecap: square"/>
 </g>
 <g>
 <path d="M 84.14 145.8 
L 84.14 7.2 
" style="fill: none; stroke-dasharray: 0.6,0.99; stroke-dashoffset: 0; stroke: #6b7280; stroke-width: 0.6"/>
 </g>
 <g>
 <path d="M 195.11 145.8 
L 195.11 7.2 
" style="fill: none; stroke-dasharray: 0.6,0.99; stroke-dashoffset: 0; stroke: #6b7280; stroke-width: 0.6"/>
 </g>
 <g>
 <path d="M 41.97 145.8 
L 41.97 7.2 
" style="fill: none; stroke: #9ca3af; stroke-width: 0.6; stroke-linejoin: miter; stroke-linecap: square"/>
 </g>
 <g>
 <path d="M 237.27 145.8 
L 237.27 7.2 
" style="fill: none; stroke: #9ca3af; stroke-width: 0.6; stroke-linejoin: miter; stroke-linecap: square"/>
 </g>
 <g>
 <path d="M 41.97 145.8 
L 237.27 145.8 
" style="fill: none; stroke: #9ca3af; stroke-width: 0.6; stroke-linejoin: miter; stroke-linecap: square"/>
 </g>
 <g>
 <path d="M 41.97 7.2 
L 237.27 7.2 
" style="fill: none; stroke: #9ca3af; stroke-width: 0.6; stroke-linejoin: miter; stroke-linecap: square"/>
 </g>
 </g>
 </g>
 <defs>
 </defs>
</svg>