<?xml version="1.0" encoding="utf-8" standalone="no"?>
<!DOCTYPE svg PUBLIC "-//W3C//DTD SVG 1.1//EN"
 "http://www.w3.org/Graphics/SVG/1.1/DTD/svg11.dtd">
<svg xmlns:xlink="http://www.w3.org/1999/xlink" width="242.64pt" height="177.55pt" viewBox="0 0 242.64 177.55" xmlns="http://www.w3.org/2000/svg" version="1.1">
 <g>
 <g>
 <path d="M 0 177.55 
L 242.64 177.55 
L 242.64 0 
L 0 0 
L 0 177.55 
z
" style="fill: none"/>
 </g>
 <g>
 <g>
 <path d="M 39.75 145.8 
L 235.05 145.8 
L 235.05 7.2 
L 39.75 7.2 
L 39.75 145.8 
z
" style="fill: none"/>
 </g>
 <g>
 <defs>
 <path d="M 81.92 -147.42 
L 81.92 -74.79 
L 84.18 -74.79 
L 86.44 -74.79 
L 88.71 -74.79 
L 90.97 -74.79 
L 93.24 -74.79 
L 95.50 -74.79 
L 97.77 -74.79 
L 100.03 -74.79 
L 102.30 -74.79 
L 104.56 -74.79 
L 106.83 -74.79 
L 109.09 -74.79 
L 111.35 -74.79 
L 113.62 -74.79 
L 115.88 -74.79 
L 118.15 -74.79 
L 120.41 -74.79 
L 122.68 -74.79 
L 124.94 -74.79 
L 127.21 -74.79 
L 129.47 -74.79 
L 131.74 -74.79 
L 134.00 -74.79 
L 136.27 -74.79 
L 138.53 -74.79 
L 140.79 -74.79 
L 143.06 -74.79 
L 145.32 -74.79 
L 147.59 -74.79 
L 149.85 -74.79 
L 152.12 -74.79 
L 154.38 -74.79 
L 156.65 -74.79 
L 158.91 -74.79 
L 161.18 -74.79 
L 163.44 -74.79 
L 165.71 -74.79 
L 167.97 -74.79 
L 170.23 -74.79 
L 172.50 -74.79 
L 174.76 -74.79 
L 177.03 -74.79 
L 179.29 -74.79 
L 181.56 -74.79 
L 183.82 -74.79 
L 186.09 -74.79 
L 188.35 -74.79 
L 190.62 -74.79 
L 192.88 -74.79 
L 192.88 -147.42 
L 192.88 -147.42 
L 190.62 -141.91 
L 188.35 -136.64 
L 186.09 -131.60 
L 183.82 -126.78 
L 181.56 -122.20 
L 179.29 -117.84 
L 177.03 -113.72 
L 174.76 -109.82 
L 172.50 -106.15 
L 170.23 -102.71 
L 167.97 -99.50 
L 165.71 -96.52 
L 163.44 -93.77 
L 161.18 -91.25 
L 158.91 -88.96 
L 156.65 -86.90 
L 154.38 -85.06 
L 152.12 -83.46 
L 149.85 -82.08 
L 147.59 -80.94 
L 145.32 -80.02 
L 143.06 -79.33 
L 140.79 -78.87 
L 138.53 -78.64 
L 136.27 -78.64 
L 134.00 -78.87 
L 131.74 -79.33 
L 129.47 -80.02 
L 127.21 -80.94 
L 124.94 -82.08 
L 122.68 -83.46 
L 120.41 -85.06 
L 118.15 -86.90 
L 115.88 -88.96 
L 113.62 -91.25 
L 111.35 -93.77 
L 109.09 -96.52 
L 106.83 -99.50 
L 104.56 -102.71 
L 102.30 -106.15 
L 100.03 -109.82 
L 97.77 -113.72 
L 95.50 -117.84 
L 93.24 -122.20 
L 90.97 -126.78 
L 88.71 -131.60 
L 86.44 -136.64 
L 84.18 -141.91 
L 81.92 -147.42 
z
" style="stroke: #2563eb; stroke-opacity: 0.15"/>
 </defs>
 <g>
 <use xlink:href="#m6efdeb2298" x="0" y="177.55" style="fill: #2563eb; fill-opacity: 0.15; stroke: #2563eb; stroke-opacity: 0.15"/>
 </g>
 </g>
 <g>
 <g>
 <g>
 <path d="M 44.93 145.8 
L 44.93 7.2 
" style="fill: none; stroke: #e5e7eb; stroke-opacity: 0.6; stroke-width: 0.5; stroke-linecap: square"/>
 </g>
 <g>
 <defs>
 <path d="M 0 0 
L 0 3.5 
" style="stroke: #9ca3af; stroke-width: 0.8"/>
 </defs>
 <g>
 <use xlink:href="#m9fc074c18f" x="44.93" y="145.8" style="fill: #9ca3af; stroke: #9ca3af; stroke-width: 0.8"/>
 </g>
 </g>
 <g>
 <text style="fill: #9ca3af; font: 7px 'DejaVu Sans', 'Bitstream Vera Sans', 'Computer Modern Sans Serif', 'Lucida Grande', 'Verdana', 'Geneva', 'Lucid', 'Arial', 'Helvetica', 'Avant Garde', sans-serif; text-anchor: middle" x="44.93" y="158.12" transform="rotate(-0 44.93 158.12)">−5.0</text>
 </g>
 </g>
 <g>
 <g>
 <path d="M 91.16 145.8 
L 91.16 7.2 
" style="fill: none; stroke: #e5e7eb; stroke-opacity: 0.6; stroke-width: 0.5; stroke-linecap: square"/>
 </g>
 <g>
 <g>
 <use xlink:href="#m9fc074c18f" x="91.16" y="145.8" style="fill: #9ca3af; stroke: #9ca3af; stroke-width: 0.8"/>
 </g>
 </g>
 <g>
 <text style="fill: #9ca3af; font: 7px 'DejaVu Sans', 'Bitstream Vera Sans', 'Computer Modern Sans Serif', 'Lucida Grande', 'Verdana', 'Geneva', 'Lucid', 'Arial', 'Helvetica', 'Avant Garde', sans-serif; text-anchor: middle" x="91.16" y="158.12" transform="rotate(-0 91.16 158.12)">−2.5</text>
 </g>
 </g>
 <g>
 <g>
 <path d="M 137.40 145.8 
L 137.40 7.2 
" style="fill: none; stroke: #e5e7eb; stroke-opacity: 0.6; stroke-width: 0.5; stroke-linecap: square"/>
 </g>
 <g>
 <g>
 <use xlink:href="#m9fc074c18f" x="137.40" y="145.8" style="fill: #9ca3af; stroke: #9ca3af; stroke-width: 0.8"/>
 </g>
 </g>
 <g>
 <text style="fill: #9ca3af; font: 7px 'DejaVu Sans', 'Bitstream Vera Sans', 'Computer Modern Sans Serif', 'Lucida Grande', 'Verdana', 'Geneva', 'Lucid', 'Arial', 'Helvetica', 'Avant Garde', sans-serif; text-anchor: middle" x="137.40" y="158.12" transform="rotate(-0 137.40 158.12)">0.0</text>
 </g>
 </g>
 <g>
 <g>
 <path d="M 183.63 145.8 
L 183.63 7.2 
" style="fill: none; stroke: #e5e7eb; stroke-opacity: 0.6; stroke-width: 0.5; stroke-linecap: square"/>
 </g>
 <g>
 <g>
 <use xlink:href="#m9fc074c18f" x="183.63" y="145.8" style="fill: #9ca3af; stroke: #9ca3af; stroke-width: 0.8"/>
 </g>
 </g>
 <g>
 <text style="fill: #9ca3af; font: 7px 'DejaVu Sans', 'Bitstream Vera Sans', 'Computer Modern Sans Serif', 'Lucida Grande', 'Verdana', 'Geneva', 'Lucid', 'Arial', 'Helvetica', 'Avant Garde', sans-serif; text-anchor: middle" x="183.63" y="158.12" transform="rotate(-0 183.63 158.12)">2.5</text>
 </g>
 </g>
 <g>
 <g>
 <path d="M 229.87 145.8 
L 229.87 7.2 
" style="fill: none; stroke: #e5e7eb; stroke-opacity: 0.6; stroke-width: 0.5; stroke-linecap: square"/>
 </g>
 <g>
 <g>
 <use xlink:href="#m9fc074c18f" x="229.87" y="145.8" style="fill: #9ca3af; stroke: #9ca3af; stroke-width: 0.8"/>
 </g>
 </g>
 <g>
 <text style="fill: #9ca3af; font: 7px 'DejaVu Sans', 'Bitstream Vera Sans', 'Computer Modern Sans Serif', 'Lucida Grande', 'Verdana', 'Geneva', 'Lucid', 'Arial', 'Helvetica', 'Avant Garde', sans-serif; text-anchor: middle" x="229.87" y="158.12" transform="rotate(-0 229.87 158.12)">5.0</text>
 </g>
 </g>
 <g>
 <text style="fill: #9ca3af; font: 7px 'DejaVu Sans', 'Bitstream Vera Sans', 'Computer Modern Sans Serif', 'Lucida Grande', 'Verdana', 'Geneva', 'Lucid', 'Arial', 'Helvetica', 'Avant Garde', sans-serif; text-anchor: middle" x="137.40" y="168.89" transform="rotate(-0 137.40 168.89)">x</text>
 </g>
 </g>
 <g>
 <g>
 <g>
 <path d="M 39.75 140.98 
L 235.05 140.98 
" style="fill: none; stroke: #e5e7eb; stroke-opacity: 0.6; stroke-width: 0.5; stroke-linecap: square"/>
 </g>
 <g>
 <defs>
 <path d="M 0 0 
L -3.5 0 
" style="stroke: #9ca3af; stroke-width: 0.8"/>
 </defs>
 <g>
 <use xlink:href="#m4180b551bf" x="39.75" y="140.98" style="fill: #9ca3af; stroke: #9ca3af; stroke-width: 0.8"/>
 </g>
 </g>
 <g>
 <text style="fill: #9ca3af; font: 7px 'DejaVu Sans', 'Bitstream Vera Sans', 'Computer Modern Sans Serif', 'Lucida Grande', 'Verdana', 'Geneva', 'Lucid', 'Arial', 'Helvetica', 'Avant Garde', sans-serif; text-anchor: end" x="32.75" y="143.64" transform="rotate(-0 32.75 143.64)">−20</text>
 </g>
 </g>
 <g>
 <g>
 <path d="M 39.75 102.76 
L 235.05 102.76 
" style="fill: none; stroke: #e5e7eb; stroke-opacity: 0.6; stroke-width: 0.5; stroke-linecap: square"/>
 </g>
 <g>
 <g>
 <use xlink:href="#m4180b551bf" x="39.75" y="102.76" style="fill: #9ca3af; stroke: #9ca3af; stroke-width: 0.8"/>
 </g>
 </g>
 <g>
 <text style="fill: #9ca3af; font: 7px 'DejaVu Sans', 'Bitstream Vera Sans', 'Computer Modern Sans Serif', 'Lucida Grande', 'Verdana', 'Geneva', 'Lucid', 'Arial', 'Helvetica', 'Avant Garde', sans-serif; text-anchor: end" x="32.75" y="105.42" transform="rotate(-0 32.75 105.42)">0</text>
 </g>
 </g>
 <g>
 <g>
 <path d="M 39.75 64.53 
L 235.05 64.53 
" style="fill: none; stroke: #e5e7eb; stroke-opacity: 0.6; stroke-width: 0.5; stroke-linecap: square"/>
 </g>
 <g>
 <g>
 <use xlink:href="#m4180b551bf" x="39.75" y="64.53" style="fill: #9ca3af; stroke: #9ca3af; stroke-width: 0.8"/>
 </g>
 </g>
 <g>
 <text style="fill: #9ca3af; font: 7px 'DejaVu Sans', 'Bitstream Vera Sans', 'Computer Modern Sans Serif', 'Lucida Grande', 'Verdana', 'Geneva', 'Lucid', 'Arial', 'Helvetica', 'Avant Garde', sans-serif; text-anchor: end" x="32.75" y="67.19" transform="rotate(-0 32.75 67.19)">20</text>
 </g>
 </g>
 <g>
 <g>
 <path d="M 39.75 26.31 
L 235.05 26.31 
" style="fill: none; stroke: #e5e7eb; stroke-opacity: 0.6; stroke-width: 0.5; stroke-linecap: square"/>
 </g>
 <g>
 <g>
 <use xlink:href="#m4180b551bf" x="39.75" y="26.31" style="fill: #9ca3af; stroke: #9ca3af; stroke-width: 0.8"/>
 </g>
 </g>
 <g>
 <text style="fill: #9ca3af; font: 7px 'DejaVu Sans', 'Bitstream Vera Sans', 'Computer Modern Sans Serif', 'Lucida Grande', 'Verdana', 'Geneva', 'Lucid', 'Arial', 'Helvetica', 'Avant Garde', sans-serif; text-anchor: end" x="32.75" y="28.97" transform="rotate(-0 32.75 28.97)">40</text>
 </g>
 </g>
 <g>
 <text style="fill: #9ca3af; font: 7px 'DejaVu Sans', 'Bitstream Vera Sans', 'Computer Modern Sans Serif', 'Lucida Grande', 'Verdana', 'Geneva', 'Lucid', 'Arial', 'Helvetica', 'Avant Garde', sans-serif; text-anchor: middle" x="12.52" y="76.5" transform="rotate(-90 12.52 76.5)">y</text>
 </g>
 </g>
 <g>
 <path d="M 70.54 -1 
L 71.10 0.70 
L 73.35 7.24 
L 75.59 13.56 
L 77.84 19.66 
L 80.09 25.53 
L 82.34 31.17 
L 84.58 36.59 
L 86.83 41.79 
L 89.08 46.75 
L 91.33 51.49 
L 93.57 56.01 
L 95.82 60.30 
L 98.07 64.36 
L 100.32 68.20 
L 102.56 71.81 
L 104.81 75.20 
L 107.06 78.36 
L 109.31 81.30 
L 111.55 84.01 
L 113.80 86.49 
L 116.05 88.75 
L 118.29 90.78 
L 120.54 92.59 
L 122.79 94.17 
L 125.04 95.52 
L 127.28 96.65 
L 129.53 97.55 
L 131.78 98.23 
L 134.03 98.68 
L 136.27 98.91 
L 138.52 98.91 
L 140.77 98.68 
L 143.02 98.23 
L 145.26 97.55 
L 147.51 96.65 
L 149.76 95.52 
L 152.01 94.17 
L 154.25 92.59 
L 156.50 90.78 
L 158.75 88.75 
L 161.00 86.49 
L 163.24 84.01 
L 165.49 81.30 
L 167.74 78.36 
L 169.99 75.20 
L 172.23 71.81 
L 174.48 68.20 
L 176.73 64.36 
L 178.98 60.30 
L 181.22 56.01 
L 183.47 51.49 
L 185.72 46.75 
L 187.96 41.79 
L 190.21 36.59 
L 192.46 31.17 
L 194.71 25.53 
L 196.95 19.66 
L 199.20 13.56 
L 201.45 7.24 
L 203.70 0.70 
L 204.26 -1 
" style="fill: none; stroke: #2563eb; stroke-width: 1.5; stroke-linecap: square"/>
 </g>
 <g>
 <path d="M 39.75 102.76 
L 235.05 102.76 
" style="fill: none; stroke: #9ca3af; stroke-width: 0.6; stroke-linecap: square"/>
 </g>
 <g>
 <path d="M 81.92 145.8 
L 81.92 7.2 
" style="fill: none; stroke-dasharray: 0.6,0.99; stroke-dashoffset: 0; stroke: #6b7280; stroke-width: 0.6"/>
 </g>
 <g>
 <path d="M 192.88 145.8 
L 192.88 7.2 
" style="fill: none; stroke-dasharray: 0.6,0.99; stroke-dashoffset: 0; stroke: #6b7280; stroke-width: 0.6"/>
 </g>
 <g>
 <path d="M 39.75 145.8 
L 39.75 7.2 
" style="fill: none; stroke: #9ca3af; stroke-width: 0.6; stroke-linejoin: miter; stroke-linecap: square"/>
 </g>
 <g>
 <path d="M 235.05 145.8 
L 235.05 7.2 
" style="fill: none; stroke: #9ca3af; stroke-width: 0.6; stroke-linejoin: miter; stroke-linecap: square"/>
 </g>
 <g>
 <path d="M 39.75 145.8 
L 235.05 145.8 
" style="fill: none; stroke: #9ca3af; stroke-width: 0.6; stroke-linejoin: miter; stroke-linecap: square"/>
 </g>
 <g>
 <path d="M 39.75 7.2 
L 235.05 7.2 
" style="fill: none; stroke: #9ca3af; stroke-width: 0.6; stroke-linejoin: miter; stroke-linecap: square"/>
 </g>
 </g>
 </g>
 <defs>
 </defs>
</svg>