<?xml version="1.0" encoding="utf-8" standalone="no"?>
<!DOCTYPE svg PUBLIC "-//W3C//DTD SVG 1.1//EN"
 "http://www.w3.org/Graphics/SVG/1.1/DTD/svg11.dtd">
<svg xmlns:xlink="http://www.w3.org/1999/xlink" width="231.93pt" height="177.55pt" viewBox="0 0 231.93 177.55" xmlns="http://www.w3.org/2000/svg" version="1.1">
 <g>
 <g>
 <path d="M 0 177.55 
L 231.93 177.55 
L 231.93 0 
L 0 0 
L 0 177.55 
z
" style="fill: none"/>
 </g>
 <g>
 <g>
 <path d="M 29.43 145.8 
L 224.73 145.8 
L 224.73 7.2 
L 29.43 7.2 
L 29.43 145.8 
z
" style="fill: none"/>
 </g>
 <g>
 <defs>
 <path d="M 71.60 -101.05 
L 71.60 -101.05 
L 73.86 -104.28 
L 76.12 -107.37 
L 78.39 -110.32 
L 80.65 -113.15 
L 82.92 -115.83 
L 85.18 -118.39 
L 87.45 -120.81 
L 89.71 -123.09 
L 91.98 -125.24 
L 94.24 -127.26 
L 96.51 -129.14 
L 98.77 -130.89 
L 101.04 -132.50 
L 103.30 -133.98 
L 105.56 -135.32 
L 107.83 -136.53 
L 110.09 -137.61 
L 112.36 -138.55 
L 114.62 -139.36 
L 116.89 -140.03 
L 119.15 -140.57 
L 121.42 -140.97 
L 123.68 -141.24 
L 125.95 -141.37 
L 128.21 -141.37 
L 130.48 -141.24 
L 132.74 -140.97 
L 135.00 -140.57 
L 137.27 -140.03 
L 139.53 -139.36 
L 141.80 -138.55 
L 144.06 -137.61 
L 146.33 -136.53 
L 148.59 -135.32 
L 150.86 -133.98 
L 153.12 -132.50 
L 155.39 -130.89 
L 157.65 -129.14 
L 159.92 -127.26 
L 162.18 -125.24 
L 164.44 -123.09 
L 166.71 -120.81 
L 168.97 -118.39 
L 171.24 -115.83 
L 173.50 -113.15 
L 175.77 -110.32 
L 178.03 -107.37 
L 180.30 -104.28 
L 182.56 -101.05 
L 182.56 -101.05 
L 182.56 -101.05 
L 180.30 -97.82 
L 178.03 -94.73 
L 175.77 -91.77 
L 173.50 -88.95 
L 171.24 -86.26 
L 168.97 -83.71 
L 166.71 -81.29 
L 164.44 -79.01 
L 162.18 -76.86 
L 159.92 -74.84 
L 157.65 -72.96 
L 155.39 -71.21 
L 153.12 -69.60 
L 150.86 -68.12 
L 148.59 -66.77 
L 146.33 -65.56 
L 144.06 -64.49 
L 141.80 -63.55 
L 139.53 -62.74 
L 137.27 -62.07 
L 135.00 -61.53 
L 132.74 -61.13 
L 130.48 -60.86 
L 128.21 -60.73 
L 125.95 -60.73 
L 123.68 -60.86 
L 121.42 -61.13 
L 119.15 -61.53 
L 116.89 -62.07 
L 114.62 -62.74 
L 112.36 -63.55 
L 110.09 -64.49 
L 107.83 -65.56 
L 105.56 -66.77 
L 103.30 -68.12 
L 101.04 -69.60 
L 98.77 -71.21 
L 96.51 -72.96 
L 94.24 -74.84 
L 91.98 -76.86 
L 89.71 -79.01 
L 87.45 -81.29 
L 85.18 -83.71 
L 82.92 -86.26 
L 80.65 -88.95 
L 78.39 -91.77 
L 76.12 -94.73 
L 73.86 -97.82 
L 71.60 -101.05 
z
" style="stroke: #2563eb; stroke-opacity: 0.15"/>
 </defs>
 <g>
 <use xlink:href="#me427f4098d" x="0" y="177.55" style="fill: #2563eb; fill-opacity: 0.15; stroke: #2563eb; stroke-opacity: 0.15"/>
 </g>
 </g>
 <g>
 <g>
 <g>
 <path d="M 48.61 145.8 
L 48.61 7.2 
" style="fill: none; stroke: #e5e7eb; stroke-opacity: 0.6; stroke-width: 0.5; stroke-linecap: square"/>
 </g>
 <g>
 <defs>
 <path d="M 0 0 
L 0 3.5 
" style="stroke: #9ca3af; stroke-width: 0.8"/>
 </defs>
 <g>
 <use xlink:href="#m8912a48e6a" x="48.61" y="145.8" style="fill: #9ca3af; stroke: #9ca3af; stroke-width: 0.8"/>
 </g>
 </g>
 <g>
 <text style="fill: #9ca3af; font: 7px 'DejaVu Sans', 'Bitstream Vera Sans', 'Computer Modern Sans Serif', 'Lucida Grande', 'Verdana', 'Geneva', 'Lucid', 'Arial', 'Helvetica', 'Avant Garde', sans-serif; text-anchor: middle" x="48.61" y="158.12" transform="rotate(-0 48.61 158.12)">−2</text>
 </g>
 </g>
 <g>
 <g>
 <path d="M 87.85 145.8 
L 87.85 7.2 
" style="fill: none; stroke: #e5e7eb; stroke-opacity: 0.6; stroke-width: 0.5; stroke-linecap: square"/>
 </g>
 <g>
 <g>
 <use xlink:href="#m8912a48e6a" x="87.85" y="145.8" style="fill: #9ca3af; stroke: #9ca3af; stroke-width: 0.8"/>
 </g>
 </g>
 <g>
 <text style="fill: #9ca3af; font: 7px 'DejaVu Sans', 'Bitstream Vera Sans', 'Computer Modern Sans Serif', 'Lucida Grande', 'Verdana', 'Geneva', 'Lucid', 'Arial', 'Helvetica', 'Avant Garde', sans-serif; text-anchor: middle" x="87.85" y="158.12" transform="rotate(-0 87.85 158.12)">−1</text>
 </g>
 </g>
 <g>
 <g>
 <path d="M 127.08 145.8 
L 127.08 7.2 
" style="fill: none; stroke: #e5e7eb; stroke-opacity: 0.6; stroke-width: 0.5; stroke-linecap: square"/>
 </g>
 <g>
 <g>
 <use xlink:href="#m8912a48e6a" x="127.08" y="145.8" style="fill: #9ca3af; stroke: #9ca3af; stroke-width: 0.8"/>
 </g>
 </g>
 <g>
 <text style="fill: #9ca3af; font: 7px 'DejaVu Sans', 'Bitstream Vera Sans', 'Computer Modern Sans Serif', 'Lucida Grande', 'Verdana', 'Geneva', 'Lucid', 'Arial', 'Helvetica', 'Avant Garde', sans-serif; text-anchor: middle" x="127.08" y="158.12" transform="rotate(-0 127.08 158.12)">0</text>
 </g>
 </g>
 <g>
 <g>
 <path d="M 166.31 145.8 
L 166.31 7.2 
" style="fill: none; stroke: #e5e7eb; stroke-opacity: 0.6; stroke-width: 0.5; stroke-linecap: square"/>
 </g>
 <g>
 <g>
 <use xlink:href="#m8912a48e6a" x="166.31" y="145.8" style="fill: #9ca3af; stroke: #9ca3af; stroke-width: 0.8"/>
 </g>
 </g>
 <g>
 <text style="fill: #9ca3af; font: 7px 'DejaVu Sans', 'Bitstream Vera Sans', 'Computer Modern Sans Serif', 'Lucida Grande', 'Verdana', 'Geneva', 'Lucid', 'Arial', 'Helvetica', 'Avant Garde', sans-serif; text-anchor: middle" x="166.31" y="158.12" transform="rotate(-0 166.31 158.12)">1</text>
 </g>
 </g>
 <g>
 <g>
 <path d="M 205.54 145.8 
L 205.54 7.2 
" style="fill: none; stroke: #e5e7eb; stroke-opacity: 0.6; stroke-width: 0.5; stroke-linecap: square"/>
 </g>
 <g>
 <g>
 <use xlink:href="#m8912a48e6a" x="205.54" y="145.8" style="fill: #9ca3af; stroke: #9ca3af; stroke-width: 0.8"/>
 </g>
 </g>
 <g>
 <text style="fill: #9ca3af; font: 7px 'DejaVu Sans', 'Bitstream Vera Sans', 'Computer Modern Sans Serif', 'Lucida Grande', 'Verdana', 'Geneva', 'Lucid', 'Arial', 'Helvetica', 'Avant Garde', sans-serif; text-anchor: middle" x="205.54" y="158.12" transform="rotate(-0 205.54 158.12)">2</text>
 </g>
 </g>
 <g>
 <text style="fill: #9ca3af; font: 7px 'DejaVu Sans', 'Bitstream Vera Sans', 'Computer Modern Sans Serif', 'Lucida Grande', 'Verdana', 'Geneva', 'Lucid', 'Arial', 'Helvetica', 'Avant Garde', sans-serif; text-anchor: middle" x="127.08" y="168.89" transform="rotate(-0 127.08 168.89)">x</text>
 </g>
 </g>
 <g>
 <g>
 <g>
 <path d="M 29.43 116.84 
L 224.73 116.84 
" style="fill: none; stroke: #e5e7eb; stroke-opacity: 0.6; stroke-width: 0.5; stroke-linecap: square"/>
 </g>
 <g>
 <defs>
 <path d="M 0 0 
L -3.5 0 
" style="stroke: #9ca3af; stroke-width: 0.8"/>
 </defs>
 <g>
 <use xlink:href="#mbec32d28cf" x="29.43" y="116.84" style="fill: #9ca3af; stroke: #9ca3af; stroke-width: 0.8"/>
 </g>
 </g>
 <g>
 <text style="fill: #9ca3af; font: 7px 'DejaVu Sans', 'Bitstream Vera Sans', 'Computer Modern Sans Serif', 'Lucida Grande', 'Verdana', 'Geneva', 'Lucid', 'Arial', 'Helvetica', 'Avant Garde', sans-serif; text-anchor: end" x="22.43" y="119.50" transform="rotate(-0 22.43 119.50)">0</text>
 </g>
 </g>
 <g>
 <g>
 <path d="M 29.43 76.5 
L 224.73 76.5 
" style="fill: none; stroke: #e5e7eb; stroke-opacity: 0.6; stroke-width: 0.5; stroke-linecap: square"/>
 </g>
 <g>
 <g>
 <use xlink:href="#mbec32d28cf" x="29.43" y="76.5" style="fill: #9ca3af; stroke: #9ca3af; stroke-width: 0.8"/>
 </g>
 </g>
 <g>
 <text style="fill: #9ca3af; font: 7px 'DejaVu Sans', 'Bitstream Vera Sans', 'Computer Modern Sans Serif', 'Lucida Grande', 'Verdana', 'Geneva', 'Lucid', 'Arial', 'Helvetica', 'Avant Garde', sans-serif; text-anchor: end" x="22.43" y="79.16" transform="rotate(-0 22.43 79.16)">2</text>
 </g>
 </g>
 <g>
 <g>
 <path d="M 29.43 36.16 
L 224.73 36.16 
" style="fill: none; stroke: #e5e7eb; stroke-opacity: 0.6; stroke-width: 0.5; stroke-linecap: square"/>
 </g>
 <g>
 <g>
 <use xlink:href="#mbec32d28cf" x="29.43" y="36.16" style="fill: #9ca3af; stroke: #9ca3af; stroke-width: 0.8"/>
 </g>
 </g>
 <g>
 <text style="fill: #9ca3af; font: 7px 'DejaVu Sans', 'Bitstream Vera Sans', 'Computer Modern Sans Serif', 'Lucida Grande', 'Verdana', 'Geneva', 'Lucid', 'Arial', 'Helvetica', 'Avant Garde', sans-serif; text-anchor: end" x="22.43" y="38.82" transform="rotate(-0 22.43 38.82)">4</text>
 </g>
 </g>
 <g>
 <text style="fill: #9ca3af; font: 7px 'DejaVu Sans', 'Bitstream Vera Sans', 'Computer Modern Sans Serif', 'Lucida Grande', 'Verdana', 'Geneva', 'Lucid', 'Arial', 'Helvetica', 'Avant Garde', sans-serif; text-anchor: middle" x="12.52" y="76.5" transform="rotate(-90 12.52 76.5)">y</text>
 </g>
 </g>
 <g>
 <path d="M 38.31 139.43 
L 40.55 134.27 
L 42.80 129.24 
L 45.05 124.34 
L 47.30 119.57 
L 49.54 114.94 
L 51.79 110.44 
L 54.04 106.07 
L 56.28 101.84 
L 58.53 97.73 
L 60.78 93.76 
L 63.03 89.92 
L 65.27 86.22 
L 67.52 82.64 
L 69.77 79.20 
L 72.02 75.89 
L 74.26 72.71 
L 76.51 69.67 
L 78.76 66.76 
L 81.01 63.98 
L 83.25 61.33 
L 85.50 58.81 
L 87.75 56.43 
L 90.00 54.18 
L 92.24 52.06 
L 94.49 50.08 
L 96.74 48.22 
L 98.99 46.50 
L 101.23 44.91 
L 103.48 43.46 
L 105.73 42.13 
L 107.98 40.94 
L 110.22 39.88 
L 112.47 38.96 
L 114.72 38.16 
L 116.97 37.50 
L 119.21 36.97 
L 121.46 36.57 
L 123.71 36.31 
L 125.95 36.18 
L 128.20 36.18 
L 130.45 36.31 
L 132.70 36.57 
L 134.94 36.97 
L 137.19 37.50 
L 139.44 38.16 
L 141.69 38.96 
L 143.93 39.88 
L 146.18 40.94 
L 148.43 42.13 
L 150.68 43.46 
L 152.92 44.91 
L 155.17 46.50 
L 157.42 48.22 
L 159.67 50.08 
L 161.91 52.06 
L 164.16 54.18 
L 166.41 56.43 
L 168.66 58.81 
L 170.90 61.33 
L 173.15 63.98 
L 175.40 66.76 
L 177.65 69.67 
L 179.89 72.71 
L 182.14 75.89 
L 184.39 79.20 
L 186.63 82.64 
L 188.88 86.22 
L 191.13 89.92 
L 193.38 93.76 
L 195.62 97.73 
L 197.87 101.84 
L 200.12 106.07 
L 202.37 110.44 
L 204.61 114.94 
L 206.86 119.57 
L 209.11 124.34 
L 211.36 129.24 
L 213.60 134.27 
L 215.85 139.43 
" style="fill: none; stroke: #2563eb; stroke-width: 1.5; stroke-linecap: square"/>
 </g>
 <g>
 <path d="M 38.31 13.57 
L 40.55 18.73 
L 42.80 23.76 
L 45.05 28.66 
L 47.30 33.43 
L 49.54 38.06 
L 51.79 42.56 
L 54.04 46.93 
L 56.28 51.16 
L 58.53 55.27 
L 60.78 59.24 
L 63.03 63.08 
L 65.27 66.78 
L 67.52 70.36 
L 69.77 73.80 
L 72.02 77.11 
L 74.26 80.29 
L 76.51 83.33 
L 78.76 86.24 
L 81.01 89.02 
L 83.25 91.67 
L 85.50 94.19 
L 87.75 96.57 
L 90.00 98.82 
L 92.24 100.94 
L 94.49 102.92 
L 96.74 104.78 
L 98.99 106.50 
L 101.23 108.09 
L 103.48 109.54 
L 105.73 110.87 
L 107.98 112.06 
L 110.22 113.12 
L 112.47 114.04 
L 114.72 114.84 
L 116.97 115.50 
L 119.21 116.03 
L 121.46 116.43 
L 123.71 116.69 
L 125.95 116.82 
L 128.20 116.82 
L 130.45 116.69 
L 132.70 116.43 
L 134.94 116.03 
L 137.19 115.50 
L 139.44 114.84 
L 141.69 114.04 
L 143.93 113.12 
L 146.18 112.06 
L 148.43 110.87 
L 150.68 109.54 
L 152.92 108.09 
L 155.17 106.50 
L 157.42 104.78 
L 159.67 102.92 
L 161.91 100.94 
L 164.16 98.82 
L 166.41 96.57 
L 168.66 94.19 
L 170.90 91.67 
L 173.15 89.02 
L 175.40 86.24 
L 177.65 83.33 
L 179.89 80.29 
L 182.14 77.11 
L 184.39 73.80 
L 186.63 70.36 
L 188.88 66.78 
L 191.13 63.08 
L 193.38 59.24 
L 195.62 55.27 
L 197.87 51.16 
L 200.12 46.93 
L 202.37 42.56 
L 204.61 38.06 
L 206.86 33.43 
L 209.11 28.66 
L 211.36 23.76 
L 213.60 18.73 
L 215.85 13.57 
" style="fill: none; stroke: #dc2626; stroke-width: 1.5; stroke-linecap: square"/>
 </g>
 <g>
 <path d="M 71.60 145.8 
L 71.60 7.2 
" style="fill: none; stroke-dasharray: 0.6,0.99; stroke-dashoffset: 0; stroke: #6b7280; stroke-width: 0.6"/>
 </g>
 <g>
 <path d="M 182.56 145.8 
L 182.56 7.2 
" style="fill: none; stroke-dasharray: 0.6,0.99; stroke-dashoffset: 0; stroke: #6b7280; stroke-width: 0.6"/>
 </g>
 <g>
 <path d="M 29.43 145.8 
L 29.43 7.2 
" style="fill: none; stroke: #9ca3af; stroke-width: 0.6; stroke-linejoin: miter; stroke-linecap: square"/>
 </g>
 <g>
 <path d="M 224.73 145.8 
L 224.73 7.2 
" style="fill: none; stroke: #9ca3af; stroke-width: 0.6; stroke-linejoin: miter; stroke-linecap: square"/>
 </g>
 <g>
 <path d="M 29.43 145.8 
L 224.73 145.8 
" style="fill: none; stroke: #9ca3af; stroke-width: 0.6; stroke-linejoin: miter; stroke-linecap: square"/>
 </g>
 <g>
 <path d="M 29.43 7.2 
L 224.73 7.2 
" style="fill: none; stroke: #9ca3af; stroke-width: 0.6; stroke-linejoin: miter; stroke-linecap: square"/>
 </g>
 </g>
 </g>
 <defs>
 </defs>
</svg>