<?xml version="1.0" encoding="utf-8" standalone="no"?>
<!DOCTYPE svg PUBLIC "-//W3C//DTD SVG 1.1//EN"
 "http://www.w3.org/Graphics/SVG/1.1/DTD/svg11.dtd">
<svg xmlns:xlink="http://www.w3.org/1999/xlink" width="244.47pt" height="177.55pt" viewBox="0 0 244.47 177.55" xmlns="http://www.w3.org/2000/svg" version="1.1">
 <g>
 <g>
 <path d="M 0 177.55 
L 244.47 177.55 
L 244.47 0 
L 0 0 
L 0 177.55 
z
" style="fill: none"/>
 </g>
 <g>
 <g>
 <path d="M 41.97 145.8 
L 237.27 145.8 
L 237.27 7.2 
L 41.97 7.2 
L 41.97 145.8 
z
" style="fill: none"/>
 </g>
 <g>
 <defs>
 <path d="M 84.14 -107.55 
L 84.14 -107.55 
L 86.40 -107.55 
L 88.67 -107.55 
L 90.93 -107.55 
L 93.20 -107.55 
L 95.46 -107.55 
L 97.73 -107.55 
L 99.99 -107.55 
L 102.26 -107.55 
L 104.52 -107.55 
L 106.79 -107.55 
L 109.05 -107.55 
L 111.32 -107.55 
L 113.58 -107.55 
L 115.84 -107.55 
L 118.11 -107.55 
L 120.37 -107.55 
L 122.64 -107.55 
L 124.90 -107.55 
L 127.17 -107.55 
L 129.43 -107.55 
L 131.70 -107.55 
L 133.96 -107.55 
L 136.23 -107.55 
L 138.49 -107.55 
L 140.75 -107.55 
L 143.02 -107.55 
L 145.28 -107.55 
L 147.55 -107.55 
L 149.81 -107.55 
L 152.08 -107.55 
L 154.34 -107.55 
L 156.61 -107.55 
L 158.87 -107.55 
L 161.14 -107.55 
L 163.40 -107.55 
L 165.67 -107.55 
L 167.93 -107.55 
L 170.19 -107.55 
L 172.46 -107.55 
L 174.72 -107.55 
L 176.99 -107.55 
L 179.25 -107.55 
L 181.52 -107.55 
L 183.78 -107.55 
L 186.05 -107.55 
L 188.31 -107.55 
L 190.58 -107.55 
L 192.84 -107.55 
L 195.11 -107.55 
L 195.11 -107.55 
L 195.11 -107.55 
L 192.84 -104.32 
L 190.58 -101.10 
L 188.31 -97.91 
L 186.05 -94.76 
L 183.78 -91.66 
L 181.52 -88.63 
L 179.25 -85.67 
L 176.99 -82.80 
L 174.72 -80.04 
L 172.46 -77.39 
L 170.19 -74.86 
L 167.93 -72.47 
L 165.67 -70.22 
L 163.40 -68.12 
L 161.14 -66.19 
L 158.87 -64.43 
L 156.61 -62.84 
L 154.34 -61.44 
L 152.08 -60.22 
L 149.81 -59.20 
L 147.55 -58.38 
L 145.28 -57.77 
L 143.02 -57.35 
L 140.75 -57.15 
L 138.49 -57.15 
L 136.23 -57.35 
L 133.96 -57.77 
L 131.70 -58.38 
L 129.43 -59.20 
L 127.17 -60.22 
L 124.90 -61.44 
L 122.64 -62.84 
L 120.37 -64.43 
L 118.11 -66.19 
L 115.84 -68.12 
L 113.58 -70.22 
L 111.32 -72.47 
L 109.05 -74.86 
L 106.79 -77.39 
L 104.52 -80.04 
L 102.26 -82.80 
L 99.99 -85.67 
L 97.73 -88.63 
L 95.46 -91.66 
L 93.20 -94.76 
L 90.93 -97.91 
L 88.67 -101.10 
L 86.40 -104.32 
L 84.14 -107.55 
z
" style="stroke: #2563eb; stroke-opacity: 0.15"/>
 </defs>
 <g>
 <use xlink:href="#m5374e11525" x="0" y="177.55" style="fill: #2563eb; fill-opacity: 0.15; stroke: #2563eb; stroke-opacity: 0.15"/>
 </g>
 </g>
 <g>
 <g>
 <g>
 <path d="M 84.14 145.8 
L 84.14 7.2 
" style="fill: none; stroke: #e5e7eb; stroke-opacity: 0.6; stroke-width: 0.5; stroke-linecap: square"/>
 </g>
 <g>
 <defs>
 <path d="M 0 0 
L 0 3.5 
" style="stroke: #9ca3af; stroke-width: 0.8"/>
 </defs>
 <g>
 <use xlink:href="#m12d37b4677" x="84.14" y="145.8" style="fill: #9ca3af; stroke: #9ca3af; stroke-width: 0.8"/>
 </g>
 </g>
 <g>
 <text style="fill: #9ca3af; font: 7px 'DejaVu Sans', 'Bitstream Vera Sans', 'Computer Modern Sans Serif', 'Lucida Grande', 'Verdana', 'Geneva', 'Lucid', 'Arial', 'Helvetica', 'Avant Garde', sans-serif; text-anchor: middle" x="84.14" y="158.12" transform="rotate(-0 84.14 158.12)">0</text>
 </g>
 </g>
 <g>
 <g>
 <path d="M 154.78 145.8 
L 154.78 7.2 
" style="fill: none; stroke: #e5e7eb; stroke-opacity: 0.6; stroke-width: 0.5; stroke-linecap: square"/>
 </g>
 <g>
 <g>
 <use xlink:href="#m12d37b4677" x="154.78" y="145.8" style="fill: #9ca3af; stroke: #9ca3af; stroke-width: 0.8"/>
 </g>
 </g>
 <g>
 <text style="fill: #9ca3af; font: 7px 'DejaVu Sans', 'Bitstream Vera Sans', 'Computer Modern Sans Serif', 'Lucida Grande', 'Verdana', 'Geneva', 'Lucid', 'Arial', 'Helvetica', 'Avant Garde', sans-serif; text-anchor: middle" x="154.78" y="158.12" transform="rotate(-0 154.78 158.12)">2</text>
 </g>
 </g>
 <g>
 <g>
 <path d="M 225.43 145.8 
L 225.43 7.2 
" style="fill: none; stroke: #e5e7eb; stroke-opacity: 0.6; stroke-width: 0.5; stroke-linecap: square"/>
 </g>
 <g>
 <g>
 <use xlink:href="#m12d37b4677" x="225.43" y="145.8" style="fill: #9ca3af; stroke: #9ca3af; stroke-width: 0.8"/>
 </g>
 </g>
 <g>
 <text style="fill: #9ca3af; font: 7px 'DejaVu Sans', 'Bitstream Vera Sans', 'Computer Modern Sans Serif', 'Lucida Grande', 'Verdana', 'Geneva', 'Lucid', 'Arial', 'Helvetica', 'Avant Garde', sans-serif; text-anchor: middle" x="225.43" y="158.12" transform="rotate(-0 225.43 158.12)">4</text>
 </g>
 </g>
 <g>
 <text style="fill: #9ca3af; font: 7px 'DejaVu Sans', 'Bitstream Vera Sans', 'Computer Modern Sans Serif', 'Lucida Grande', 'Verdana', 'Geneva', 'Lucid', 'Arial', 'Helvetica', 'Avant Garde', sans-serif; text-anchor: middle" x="139.62" y="168.89" transform="rotate(-0 139.62 168.89)">x</text>
 </g>
 </g>
 <g>
 <g>
 <g>
 <path d="M 41.97 133.04 
L 237.27 133.04 
" style="fill: none; stroke: #e5e7eb; stroke-opacity: 0.6; stroke-width: 0.5; stroke-linecap: square"/>
 </g>
 <g>
 <defs>
 <path d="M 0 0 
L -3.5 0 
" style="stroke: #9ca3af; stroke-width: 0.8"/>
 </defs>
 <g>
 <use xlink:href="#mcac9162334" x="41.97" y="133.04" style="fill: #9ca3af; stroke: #9ca3af; stroke-width: 0.8"/>
 </g>
 </g>
 <g>
 <text style="fill: #9ca3af; font: 7px 'DejaVu Sans', 'Bitstream Vera Sans', 'Computer Modern Sans Serif', 'Lucida Grande', 'Verdana', 'Geneva', 'Lucid', 'Arial', 'Helvetica', 'Avant Garde', sans-serif; text-anchor: end" x="34.97" y="135.70" transform="rotate(-0 34.97 135.70)">−5.0</text>
 </g>
 </g>
 <g>
 <g>
 <path d="M 41.97 101.52 
L 237.27 101.52 
" style="fill: none; stroke: #e5e7eb; stroke-opacity: 0.6; stroke-width: 0.5; stroke-linecap: square"/>
 </g>
 <g>
 <g>
 <use xlink:href="#mcac9162334" x="41.97" y="101.52" style="fill: #9ca3af; stroke: #9ca3af; stroke-width: 0.8"/>
 </g>
 </g>
 <g>
 <text style="fill: #9ca3af; font: 7px 'DejaVu Sans', 'Bitstream Vera Sans', 'Computer Modern Sans Serif', 'Lucida Grande', 'Verdana', 'Geneva', 'Lucid', 'Arial', 'Helvetica', 'Avant Garde', sans-serif; text-anchor: end" x="34.97" y="104.18" transform="rotate(-0 34.97 104.18)">−2.5</text>
 </g>
 </g>
 <g>
 <g>
 <path d="M 41.97 70.00 
L 237.27 70.00 
" style="fill: none; stroke: #e5e7eb; stroke-opacity: 0.6; stroke-width: 0.5; stroke-linecap: square"/>
 </g>
 <g>
 <g>
 <use xlink:href="#mcac9162334" x="41.97" y="70.00" style="fill: #9ca3af; stroke: #9ca3af; stroke-width: 0.8"/>
 </g>
 </g>
 <g>
 <text style="fill: #9ca3af; font: 7px 'DejaVu Sans', 'Bitstream Vera Sans', 'Computer Modern Sans Serif', 'Lucida Grande', 'Verdana', 'Geneva', 'Lucid', 'Arial', 'Helvetica', 'Avant Garde', sans-serif; text-anchor: end" x="34.97" y="72.66" transform="rotate(-0 34.97 72.66)">0.0</text>
 </g>
 </g>
 <g>
 <g>
 <path d="M 41.97 38.48 
L 237.27 38.48 
" style="fill: none; stroke: #e5e7eb; stroke-opacity: 0.6; stroke-width: 0.5; stroke-linecap: square"/>
 </g>
 <g>
 <g>
 <use xlink:href="#mcac9162334" x="41.97" y="38.48" style="fill: #9ca3af; stroke: #9ca3af; stroke-width: 0.8"/>
 </g>
 </g>
 <g>
 <text style="fill: #9ca3af; font: 7px 'DejaVu Sans', 'Bitstream Vera Sans', 'Computer Modern Sans Serif', 'Lucida Grande', 'Verdana', 'Geneva', 'Lucid', 'Arial', 'Helvetica', 'Avant Garde', sans-serif; text-anchor: end" x="34.97" y="41.14" transform="rotate(-0 34.97 41.14)">2.5</text>
 </g>
 </g>
 <g>
 <text style="fill: #9ca3af; font: 7px 'DejaVu Sans', 'Bitstream Vera Sans', 'Computer Modern Sans Serif', 'Lucida Grande', 'Verdana', 'Geneva', 'Lucid', 'Arial', 'Helvetica', 'Avant Garde', sans-serif; text-anchor: middle" x="12.52" y="76.5" transform="rotate(-90 12.52 76.5)">y</text>
 </g>
 </g>
 <g>
 <path d="M 50.85 29.20 
L 53.10 31.17 
L 55.34 33.29 
L 57.59 35.57 
L 59.84 37.98 
L 62.09 40.52 
L 64.33 43.18 
L 66.58 45.95 
L 68.83 48.82 
L 71.08 51.77 
L 73.32 54.80 
L 75.57 57.89 
L 77.82 61.02 
L 80.07 64.20 
L 82.31 67.39 
L 84.56 70.60 
L 86.81 73.81 
L 89.06 77.00 
L 91.30 80.16 
L 93.55 83.28 
L 95.80 86.34 
L 98.05 89.34 
L 100.29 92.27 
L 102.54 95.10 
L 104.79 97.83 
L 107.04 100.45 
L 109.28 102.94 
L 111.53 105.30 
L 113.78 107.52 
L 116.02 109.59 
L 118.27 111.49 
L 120.52 113.23 
L 122.77 114.80 
L 125.01 116.18 
L 127.26 117.37 
L 129.51 118.38 
L 131.76 119.18 
L 134.00 119.79 
L 136.25 120.20 
L 138.50 120.40 
L 140.75 120.40 
L 142.99 120.20 
L 145.24 119.79 
L 147.49 119.18 
L 149.74 118.38 
L 151.98 117.37 
L 154.23 116.18 
L 156.48 114.80 
L 158.73 113.23 
L 160.97 111.49 
L 163.22 109.59 
L 165.47 107.52 
L 167.72 105.30 
L 169.96 102.94 
L 172.21 100.45 
L 174.46 97.83 
L 176.70 95.10 
L 178.95 92.27 
L 181.20 89.34 
L 183.45 86.34 
L 185.69 83.28 
L 187.94 80.16 
L 190.19 77.00 
L 192.44 73.81 
L 194.68 70.60 
L 196.93 67.39 
L 199.18 64.20 
L 201.43 61.02 
L 203.67 57.89 
L 205.92 54.80 
L 208.17 51.77 
L 210.42 48.82 
L 212.66 45.95 
L 214.91 43.18 
L 217.16 40.52 
L 219.41 37.98 
L 221.65 35.57 
L 223.90 33.29 
L 226.15 31.17 
L 228.40 29.20 
" style="fill: none; stroke: #2563eb; stroke-width: 1.5; stroke-linecap: square"/>
 </g>
 <g>
 <path d="M 41.97 70.00 
L 237.27 70.00 
" style="fill: none; stroke: #9ca3af; stroke-width: 0.6; stroke-linecap: square"/>
 </g>
 <g>
 <path d="M 84.14 145.8 
L 84.14 7.2 
" style="fill: none; stroke-dasharray: 0.6,0.99; stroke-dashoffset: 0; stroke: #6b7280; stroke-width: 0.6"/>
 </g>
 <g>
 <path d="M 195.11 145.8 
L 195.11 7.2 
" style="fill: none; stroke-dasharray: 0.6,0.99; stroke-dashoffset: 0; stroke: #6b7280; stroke-width: 0.6"/>
 </g>
 <g>
 <path d="M 41.97 145.8 
L 41.97 7.2 
" style="fill: none; stroke: #9ca3af; stroke-width: 0.6; stroke-linejoin: miter; stroke-linecap: square"/>
 </g>
 <g>
 <path d="M 237.27 145.8 
L 237.27 7.2 
" style="fill: none; stroke: #9ca3af; stroke-width: 0.6; stroke-linejoin: miter; stroke-linecap: square"/>
 </g>
 <g>
 <path d="M 41.97 145.8 
L 237.27 145.8 
" style="fill: none; stroke: #9ca3af; stroke-width: 0.6; stroke-linejoin: miter; stroke-linecap: square"/>
 </g>
 <g>
 <path d="M 41.97 7.2 
L 237.27 7.2 
" style="fill: none; stroke: #9ca3af; stroke-width: 0.6; stroke-linejoin: miter; stroke-linecap: square"/>
 </g>
 </g>
 </g>
 <defs>
 </defs>
</svg>