<?xml version="1.0" encoding="utf-8" standalone="no"?>
<!DOCTYPE svg PUBLIC "-//W3C//DTD SVG 1.1//EN"
 "http://www.w3.org/Graphics/SVG/1.1/DTD/svg11.dtd">
<svg xmlns:xlink="http://www.w3.org/1999/xlink" width="238.61pt" height="177.55pt" viewBox="0 0 238.61 177.55" xmlns="http://www.w3.org/2000/svg" version="1.1">
 <g>
 <g>
 <path d="M 0 177.55 
L 238.61 177.55 
L 238.61 0 
L 0 0 
L 0 177.55 
z
" style="fill: none"/>
 </g>
 <g>
 <g>
 <path d="M 36.11 145.8 
L 231.41 145.8 
L 231.41 7.2 
L 36.11 7.2 
L 36.11 145.8 
z
" style="fill: none"/>
 </g>
 <g>
 <defs>
 <path d="M 78.27 -95.50 
L 78.27 -46.50 
L 80.54 -46.50 
L 82.80 -46.50 
L 85.07 -46.50 
L 87.33 -46.50 
L 89.60 -46.50 
L 91.86 -46.50 
L 94.13 -46.50 
L 96.39 -46.50 
L 98.66 -46.50 
L 100.92 -46.50 
L 103.18 -46.50 
L 105.45 -46.50 
L 107.71 -46.50 
L 109.98 -46.50 
L 112.24 -46.50 
L 114.51 -46.50 
L 116.77 -46.50 
L 119.04 -46.50 
L 121.30 -46.50 
L 123.57 -46.50 
L 125.83 -46.50 
L 128.10 -46.50 
L 130.36 -46.50 
L 132.62 -46.50 
L 134.89 -46.50 
L 137.15 -46.50 
L 139.42 -46.50 
L 141.68 -46.50 
L 143.95 -46.50 
L 146.21 -46.50 
L 148.48 -46.50 
L 150.74 -46.50 
L 153.01 -46.50 
L 155.27 -46.50 
L 157.54 -46.50 
L 159.80 -46.50 
L 162.06 -46.50 
L 164.33 -46.50 
L 166.59 -46.50 
L 168.86 -46.50 
L 171.12 -46.50 
L 173.39 -46.50 
L 175.65 -46.50 
L 177.92 -46.50 
L 180.18 -46.50 
L 182.45 -46.50 
L 184.71 -46.50 
L 186.98 -46.50 
L 189.24 -46.50 
L 189.24 -115.80 
L 189.24 -115.80 
L 186.98 -115.79 
L 184.71 -115.76 
L 182.45 -115.72 
L 180.18 -115.65 
L 177.92 -115.57 
L 175.65 -115.48 
L 173.39 -115.36 
L 171.12 -115.23 
L 168.86 -115.08 
L 166.59 -114.91 
L 164.33 -114.72 
L 162.06 -114.52 
L 159.80 -114.30 
L 157.54 -114.06 
L 155.27 -113.80 
L 153.01 -113.53 
L 150.74 -113.24 
L 148.48 -112.93 
L 146.21 -112.61 
L 143.95 -112.27 
L 141.68 -111.91 
L 139.42 -111.53 
L 137.15 -111.14 
L 134.89 -110.73 
L 132.62 -110.31 
L 130.36 -109.87 
L 128.10 -109.41 
L 125.83 -108.93 
L 123.57 -108.44 
L 121.30 -107.94 
L 119.04 -107.42 
L 116.77 -106.88 
L 114.51 -106.33 
L 112.24 -105.76 
L 109.98 -105.17 
L 107.71 -104.58 
L 105.45 -103.96 
L 103.18 -103.33 
L 100.92 -102.69 
L 98.66 -102.03 
L 96.39 -101.36 
L 94.13 -100.68 
L 91.86 -99.98 
L 89.60 -99.26 
L 87.33 -98.54 
L 85.07 -97.80 
L 82.80 -97.04 
L 80.54 -96.28 
L 78.27 -95.50 
z
" style="stroke: #2563eb; stroke-opacity: 0.15"/>
 </defs>
 <g>
 <use xlink:href="#m5f3d205795" x="0" y="177.55" style="fill: #2563eb; fill-opacity: 0.15; stroke: #2563eb; stroke-opacity: 0.15"/>
 </g>
 </g>
 <g>
 <g>
 <g>
 <path d="M 37.95 145.8 
L 37.95 7.2 
" style="fill: none; stroke: #e5e7eb; stroke-opacity: 0.6; stroke-width: 0.5; stroke-linecap: square"/>
 </g>
 <g>
 <defs>
 <path d="M 0 0 
L 0 3.5 
" style="stroke: #9ca3af; stroke-width: 0.8"/>
 </defs>
 <g>
 <use xlink:href="#mbbc05961d8" x="37.95" y="145.8" style="fill: #9ca3af; stroke: #9ca3af; stroke-width: 0.8"/>
 </g>
 </g>
 <g>
 <text style="fill: #9ca3af; font: 7px 'DejaVu Sans', 'Bitstream Vera Sans', 'Computer Modern Sans Serif', 'Lucida Grande', 'Verdana', 'Geneva', 'Lucid', 'Arial', 'Helvetica', 'Avant Garde', sans-serif; text-anchor: middle" x="37.95" y="158.12" transform="rotate(-0 37.95 158.12)">0.5</text>
 </g>
 </g>
 <g>
 <g>
 <path d="M 108.59 145.8 
L 108.59 7.2 
" style="fill: none; stroke: #e5e7eb; stroke-opacity: 0.6; stroke-width: 0.5; stroke-linecap: square"/>
 </g>
 <g>
 <g>
 <use xlink:href="#mbbc05961d8" x="108.59" y="145.8" style="fill: #9ca3af; stroke: #9ca3af; stroke-width: 0.8"/>
 </g>
 </g>
 <g>
 <text style="fill: #9ca3af; font: 7px 'DejaVu Sans', 'Bitstream Vera Sans', 'Computer Modern Sans Serif', 'Lucida Grande', 'Verdana', 'Geneva', 'Lucid', 'Arial', 'Helvetica', 'Avant Garde', sans-serif; text-anchor: middle" x="108.59" y="158.12" transform="rotate(-0 108.59 158.12)">1.0</text>
 </g>
 </g>
 <g>
 <g>
 <path d="M 179.24 145.8 
L 179.24 7.2 
" style="fill: none; stroke: #e5e7eb; stroke-opacity: 0.6; stroke-width: 0.5; stroke-linecap: square"/>
 </g>
 <g>
 <g>
 <use xlink:href="#mbbc05961d8" x="179.24" y="145.8" style="fill: #9ca3af; stroke: #9ca3af; stroke-width: 0.8"/>
 </g>
 </g>
 <g>
 <text style="fill: #9ca3af; font: 7px 'DejaVu Sans', 'Bitstream Vera Sans', 'Computer Modern Sans Serif', 'Lucida Grande', 'Verdana', 'Geneva', 'Lucid', 'Arial', 'Helvetica', 'Avant Garde', sans-serif; text-anchor: middle" x="179.24" y="158.12" transform="rotate(-0 179.24 158.12)">1.5</text>
 </g>
 </g>
 <g>
 <text style="fill: #9ca3af; font: 7px 'DejaVu Sans', 'Bitstream Vera Sans', 'Computer Modern Sans Serif', 'Lucida Grande', 'Verdana', 'Geneva', 'Lucid', 'Arial', 'Helvetica', 'Avant Garde', sans-serif; text-anchor: middle" x="133.76" y="168.89" transform="rotate(-0 133.76 168.89)">x</text>
 </g>
 </g>
 <g>
 <g>
 <g>
 <path d="M 36.11 131.05 
L 231.41 131.05 
" style="fill: none; stroke: #e5e7eb; stroke-opacity: 0.6; stroke-width: 0.5; stroke-linecap: square"/>
 </g>
 <g>
 <defs>
 <path d="M 0 0 
L -3.5 0 
" style="stroke: #9ca3af; stroke-width: 0.8"/>
 </defs>
 <g>
 <use xlink:href="#m5e52d16f41" x="36.11" y="131.05" style="fill: #9ca3af; stroke: #9ca3af; stroke-width: 0.8"/>
 </g>
 </g>
 <g>
 <text style="fill: #9ca3af; font: 7px 'DejaVu Sans', 'Bitstream Vera Sans', 'Computer Modern Sans Serif', 'Lucida Grande', 'Verdana', 'Geneva', 'Lucid', 'Arial', 'Helvetica', 'Avant Garde', sans-serif; text-anchor: end" x="29.11" y="133.71" transform="rotate(-0 29.11 133.71)">0.0</text>
 </g>
 </g>
 <g>
 <g>
 <path d="M 36.11 96.40 
L 231.41 96.40 
" style="fill: none; stroke: #e5e7eb; stroke-opacity: 0.6; stroke-width: 0.5; stroke-linecap: square"/>
 </g>
 <g>
 <g>
 <use xlink:href="#m5e52d16f41" x="36.11" y="96.40" style="fill: #9ca3af; stroke: #9ca3af; stroke-width: 0.8"/>
 </g>
 </g>
 <g>
 <text style="fill: #9ca3af; font: 7px 'DejaVu Sans', 'Bitstream Vera Sans', 'Computer Modern Sans Serif', 'Lucida Grande', 'Verdana', 'Geneva', 'Lucid', 'Arial', 'Helvetica', 'Avant Garde', sans-serif; text-anchor: end" x="29.11" y="99.06" transform="rotate(-0 29.11 99.06)">0.5</text>
 </g>
 </g>
 <g>
 <g>
 <path d="M 36.11 61.75 
L 231.41 61.75 
" style="fill: none; stroke: #e5e7eb; stroke-opacity: 0.6; stroke-width: 0.5; stroke-linecap: square"/>
 </g>
 <g>
 <g>
 <use xlink:href="#m5e52d16f41" x="36.11" y="61.75" style="fill: #9ca3af; stroke: #9ca3af; stroke-width: 0.8"/>
 </g>
 </g>
 <g>
 <text style="fill: #9ca3af; font: 7px 'DejaVu Sans', 'Bitstream Vera Sans', 'Computer Modern Sans Serif', 'Lucida Grande', 'Verdana', 'Geneva', 'Lucid', 'Arial', 'Helvetica', 'Avant Garde', sans-serif; text-anchor: end" x="29.11" y="64.41" transform="rotate(-0 29.11 64.41)">1.0</text>
 </g>
 </g>
 <g>
 <g>
 <path d="M 36.11 27.10 
L 231.41 27.10 
" style="fill: none; stroke: #e5e7eb; stroke-opacity: 0.6; stroke-width: 0.5; stroke-linecap: square"/>
 </g>
 <g>
 <g>
 <use xlink:href="#m5e52d16f41" x="36.11" y="27.10" style="fill: #9ca3af; stroke: #9ca3af; stroke-width: 0.8"/>
 </g>
 </g>
 <g>
 <text style="fill: #9ca3af; font: 7px 'DejaVu Sans', 'Bitstream Vera Sans', 'Computer Modern Sans Serif', 'Lucida Grande', 'Verdana', 'Geneva', 'Lucid', 'Arial', 'Helvetica', 'Avant Garde', sans-serif; text-anchor: end" x="29.11" y="29.76" transform="rotate(-0 29.11 29.76)">1.5</text>
 </g>
 </g>
 <g>
 <text style="fill: #9ca3af; font: 7px 'DejaVu Sans', 'Bitstream Vera Sans', 'Computer Modern Sans Serif', 'Lucida Grande', 'Verdana', 'Geneva', 'Lucid', 'Arial', 'Helvetica', 'Avant Garde', sans-serif; text-anchor: middle" x="12.52" y="76.5" transform="rotate(-90 12.52 76.5)">y</text>
 </g>
 </g>
 <g>
 <path d="M 44.98 94.84 
L 47.23 93.91 
L 49.48 92.98 
L 51.73 92.07 
L 53.97 91.16 
L 56.22 90.26 
L 58.47 89.38 
L 60.72 88.50 
L 62.96 87.64 
L 65.21 86.78 
L 67.46 85.94 
L 69.71 85.11 
L 71.95 84.29 
L 74.20 83.48 
L 76.45 82.69 
L 78.70 81.90 
L 80.94 81.13 
L 83.19 80.38 
L 85.44 79.63 
L 87.68 78.90 
L 89.93 78.18 
L 92.18 77.47 
L 94.43 76.78 
L 96.67 76.10 
L 98.92 75.44 
L 101.17 74.79 
L 103.42 74.15 
L 105.66 73.53 
L 107.91 72.92 
L 110.16 72.33 
L 112.41 71.75 
L 114.65 71.19 
L 116.90 70.64 
L 119.15 70.11 
L 121.40 69.59 
L 123.64 69.09 
L 125.89 68.60 
L 128.14 68.13 
L 130.39 67.68 
L 132.63 67.24 
L 134.88 66.82 
L 137.13 66.41 
L 139.38 66.02 
L 141.62 65.65 
L 143.87 65.30 
L 146.12 64.96 
L 148.37 64.63 
L 150.61 64.33 
L 152.86 64.04 
L 155.11 63.77 
L 157.35 63.51 
L 159.60 63.27 
L 161.85 63.05 
L 164.10 62.85 
L 166.34 62.66 
L 168.59 62.49 
L 170.84 62.34 
L 173.09 62.21 
L 175.33 62.09 
L 177.58 61.99 
L 179.83 61.91 
L 182.08 61.84 
L 184.32 61.80 
L 186.57 61.77 
L 188.82 61.75 
L 191.07 61.76 
L 193.31 61.78 
L 195.56 61.82 
L 197.81 61.88 
L 200.06 61.96 
L 202.30 62.05 
L 204.55 62.16 
L 206.80 62.29 
L 209.05 62.43 
L 211.29 62.60 
L 213.54 62.78 
L 215.79 62.97 
L 218.03 63.19 
L 220.28 63.42 
L 222.53 63.67 
" style="fill: none; stroke: #2563eb; stroke-width: 1.5; stroke-linecap: square"/>
 </g>
 <g>
 <path d="M 36.11 131.05 
L 231.41 131.05 
" style="fill: none; stroke: #9ca3af; stroke-width: 0.6; stroke-linecap: square"/>
 </g>
 <g>
 <path d="M 78.27 145.8 
L 78.27 7.2 
" style="fill: none; stroke-dasharray: 0.6,0.99; stroke-dashoffset: 0; stroke: #6b7280; stroke-width: 0.6"/>
 </g>
 <g>
 <path d="M 189.24 145.8 
L 189.24 7.2 
" style="fill: none; stroke-dasharray: 0.6,0.99; stroke-dashoffset: 0; stroke: #6b7280; stroke-width: 0.6"/>
 </g>
 <g>
 <path d="M 36.11 145.8 
L 36.11 7.2 
" style="fill: none; stroke: #9ca3af; stroke-width: 0.6; stroke-linejoin: miter; stroke-linecap: square"/>
 </g>
 <g>
 <path d="M 231.41 145.8 
L 231.41 7.2 
" style="fill: none; stroke: #9ca3af; stroke-width: 0.6; stroke-linejoin: miter; stroke-linecap: square"/>
 </g>
 <g>
 <path d="M 36.11 145.8 
L 231.41 145.8 
" style="fill: none; stroke: #9ca3af; stroke-width: 0.6; stroke-linejoin: miter; stroke-linecap: square"/>
 </g>
 <g>
 <path d="M 36.11 7.2 
L 231.41 7.2 
" style="fill: none; stroke: #9ca3af; stroke-width: 0.6; stroke-linejoin: miter; stroke-linecap: square"/>
 </g>
 </g>
 </g>
 <defs>
 </defs>
</svg>