<?xml version="1.0" encoding="utf-8" standalone="no"?>
<!DOCTYPE svg PUBLIC "-//W3C//DTD SVG 1.1//EN"
 "http://www.w3.org/Graphics/SVG/1.1/DTD/svg11.dtd">
<svg xmlns:xlink="http://www.w3.org/1999/xlink" width="236.77pt" height="177.55pt" viewBox="0 0 236.77 177.55" xmlns="http://www.w3.org/2000/svg" version="1.1">
 <g>
 <g>
 <path d="M 0 177.55 
L 236.77 177.55 
L 236.77 0 
L 0 0 
L 0 177.55 
z
" style="fill: none"/>
 </g>
 <g>
 <g>
 <path d="M 33.88 145.8 
L 229.18 145.8 
L 229.18 7.2 
L 33.88 7.2 
L 33.88 145.8 
z
" style="fill: none"/>
 </g>
 <g>
 <defs>
 <path d="M 76.05 -98.05 
L 76.05 -60.80 
L 78.31 -60.80 
L 80.58 -60.80 
L 82.84 -60.80 
L 85.11 -60.80 
L 87.37 -60.80 
L 89.64 -60.80 
L 91.90 -60.80 
L 94.17 -60.80 
L 96.43 -60.80 
L 98.70 -60.80 
L 100.96 -60.80 
L 103.22 -60.80 
L 105.49 -60.80 
L 107.75 -60.80 
L 110.02 -60.80 
L 112.28 -60.80 
L 114.55 -60.80 
L 116.81 -60.80 
L 119.08 -60.80 
L 121.34 -60.80 
L 123.61 -60.80 
L 125.87 -60.80 
L 128.14 -60.80 
L 130.40 -60.80 
L 132.66 -60.80 
L 134.93 -60.80 
L 137.19 -60.80 
L 139.46 -60.80 
L 141.72 -60.80 
L 143.99 -60.80 
L 146.25 -60.80 
L 148.52 -60.80 
L 150.78 -60.80 
L 153.05 -60.80 
L 155.31 -60.80 
L 157.58 -60.80 
L 159.84 -60.80 
L 162.10 -60.80 
L 164.37 -60.80 
L 166.63 -60.80 
L 168.90 -60.80 
L 171.16 -60.80 
L 173.43 -60.80 
L 175.69 -60.80 
L 177.96 -60.80 
L 180.22 -60.80 
L 182.49 -60.80 
L 184.75 -60.80 
L 187.02 -60.80 
L 187.02 -98.05 
L 187.02 -98.05 
L 184.75 -94.90 
L 182.49 -91.87 
L 180.22 -88.98 
L 177.96 -86.22 
L 175.69 -83.59 
L 173.43 -81.10 
L 171.16 -78.73 
L 168.90 -76.50 
L 166.63 -74.40 
L 164.37 -72.43 
L 162.10 -70.59 
L 159.84 -68.88 
L 157.58 -67.30 
L 155.31 -65.86 
L 153.05 -64.54 
L 150.78 -63.36 
L 148.52 -62.31 
L 146.25 -61.39 
L 143.99 -60.60 
L 141.72 -59.94 
L 139.46 -59.42 
L 137.19 -59.02 
L 134.93 -58.76 
L 132.66 -58.63 
L 130.40 -58.63 
L 128.14 -58.76 
L 125.87 -59.02 
L 123.61 -59.42 
L 121.34 -59.94 
L 119.08 -60.60 
L 116.81 -61.39 
L 114.55 -62.31 
L 112.28 -63.36 
L 110.02 -64.54 
L 107.75 -65.86 
L 105.49 -67.30 
L 103.22 -68.88 
L 100.96 -70.59 
L 98.70 -72.43 
L 96.43 -74.40 
L 94.17 -76.50 
L 91.90 -78.73 
L 89.64 -81.10 
L 87.37 -83.59 
L 85.11 -86.22 
L 82.84 -88.98 
L 80.58 -91.87 
L 78.31 -94.90 
L 76.05 -98.05 
z
" style="stroke: #2563eb; stroke-opacity: 0.15"/>
 </defs>
 <g>
 <use xlink:href="#m2ad86630ac" x="0" y="177.55" style="fill: #2563eb; fill-opacity: 0.15; stroke: #2563eb; stroke-opacity: 0.15"/>
 </g>
 </g>
 <g>
 <g>
 <g>
 <path d="M 39.06 145.8 
L 39.06 7.2 
" style="fill: none; stroke: #e5e7eb; stroke-opacity: 0.6; stroke-width: 0.5; stroke-linecap: square"/>
 </g>
 <g>
 <defs>
 <path d="M 0 0 
L 0 3.5 
" style="stroke: #9ca3af; stroke-width: 0.8"/>
 </defs>
 <g>
 <use xlink:href="#mde80799572" x="39.06" y="145.8" style="fill: #9ca3af; stroke: #9ca3af; stroke-width: 0.8"/>
 </g>
 </g>
 <g>
 <text style="fill: #9ca3af; font: 7px 'DejaVu Sans', 'Bitstream Vera Sans', 'Computer Modern Sans Serif', 'Lucida Grande', 'Verdana', 'Geneva', 'Lucid', 'Arial', 'Helvetica', 'Avant Garde', sans-serif; text-anchor: middle" x="39.06" y="158.12" transform="rotate(-0 39.06 158.12)">−5.0</text>
 </g>
 </g>
 <g>
 <g>
 <path d="M 85.30 145.8 
L 85.30 7.2 
" style="fill: none; stroke: #e5e7eb; stroke-opacity: 0.6; stroke-width: 0.5; stroke-linecap: square"/>
 </g>
 <g>
 <g>
 <use xlink:href="#mde80799572" x="85.30" y="145.8" style="fill: #9ca3af; stroke: #9ca3af; stroke-width: 0.8"/>
 </g>
 </g>
 <g>
 <text style="fill: #9ca3af; font: 7px 'DejaVu Sans', 'Bitstream Vera Sans', 'Computer Modern Sans Serif', 'Lucida Grande', 'Verdana', 'Geneva', 'Lucid', 'Arial', 'Helvetica', 'Avant Garde', sans-serif; text-anchor: middle" x="85.30" y="158.12" transform="rotate(-0 85.30 158.12)">−2.5</text>
 </g>
 </g>
 <g>
 <g>
 <path d="M 131.53 145.8 
L 131.53 7.2 
" style="fill: none; stroke: #e5e7eb; stroke-opacity: 0.6; stroke-width: 0.5; stroke-linecap: square"/>
 </g>
 <g>
 <g>
 <use xlink:href="#mde80799572" x="131.53" y="145.8" style="fill: #9ca3af; stroke: #9ca3af; stroke-width: 0.8"/>
 </g>
 </g>
 <g>
 <text style="fill: #9ca3af; font: 7px 'DejaVu Sans', 'Bitstream Vera Sans', 'Computer Modern Sans Serif', 'Lucida Grande', 'Verdana', 'Geneva', 'Lucid', 'Arial', 'Helvetica', 'Avant Garde', sans-serif; text-anchor: middle" x="131.53" y="158.12" transform="rotate(-0 131.53 158.12)">0.0</text>
 </g>
 </g>
 <g>
 <g>
 <path d="M 177.77 145.8 
L 177.77 7.2 
" style="fill: none; stroke: #e5e7eb; stroke-opacity: 0.6; stroke-width: 0.5; stroke-linecap: square"/>
 </g>
 <g>
 <g>
 <use xlink:href="#mde80799572" x="177.77" y="145.8" style="fill: #9ca3af; stroke: #9ca3af; stroke-width: 0.8"/>
 </g>
 </g>
 <g>
 <text style="fill: #9ca3af; font: 7px 'DejaVu Sans', 'Bitstream Vera Sans', 'Computer Modern Sans Serif', 'Lucida Grande', 'Verdana', 'Geneva', 'Lucid', 'Arial', 'Helvetica', 'Avant Garde', sans-serif; text-anchor: middle" x="177.77" y="158.12" transform="rotate(-0 177.77 158.12)">2.5</text>
 </g>
 </g>
 <g>
 <g>
 <path d="M 224.00 145.8 
L 224.00 7.2 
" style="fill: none; stroke: #e5e7eb; stroke-opacity: 0.6; stroke-width: 0.5; stroke-linecap: square"/>
 </g>
 <g>
 <g>
 <use xlink:href="#mde80799572" x="224.00" y="145.8" style="fill: #9ca3af; stroke: #9ca3af; stroke-width: 0.8"/>
 </g>
 </g>
 <g>
 <text style="fill: #9ca3af; font: 7px 'DejaVu Sans', 'Bitstream Vera Sans', 'Computer Modern Sans Serif', 'Lucida Grande', 'Verdana', 'Geneva', 'Lucid', 'Arial', 'Helvetica', 'Avant Garde', sans-serif; text-anchor: middle" x="224.00" y="158.12" transform="rotate(-0 224.00 158.12)">5.0</text>
 </g>
 </g>
 <g>
 <text style="fill: #9ca3af; font: 7px 'DejaVu Sans', 'Bitstream Vera Sans', 'Computer Modern Sans Serif', 'Lucida Grande', 'Verdana', 'Geneva', 'Lucid', 'Arial', 'Helvetica', 'Avant Garde', sans-serif; text-anchor: middle" x="131.53" y="168.89" transform="rotate(-0 131.53 168.89)">x</text>
 </g>
 </g>
 <g>
 <g>
 <g>
 <path d="M 33.88 116.75 
L 229.18 116.75 
" style="fill: none; stroke: #e5e7eb; stroke-opacity: 0.6; stroke-width: 0.5; stroke-linecap: square"/>
 </g>
 <g>
 <defs>
 <path d="M 0 0 
L -3.5 0 
" style="stroke: #9ca3af; stroke-width: 0.8"/>
 </defs>
 <g>
 <use xlink:href="#meaf606e401" x="33.88" y="116.75" style="fill: #9ca3af; stroke: #9ca3af; stroke-width: 0.8"/>
 </g>
 </g>
 <g>
 <text style="fill: #9ca3af; font: 7px 'DejaVu Sans', 'Bitstream Vera Sans', 'Computer Modern Sans Serif', 'Lucida Grande', 'Verdana', 'Geneva', 'Lucid', 'Arial', 'Helvetica', 'Avant Garde', sans-serif; text-anchor: end" x="26.88" y="119.41" transform="rotate(-0 26.88 119.41)">0</text>
 </g>
 </g>
 <g>
 <g>
 <path d="M 33.88 72.93 
L 229.18 72.93 
" style="fill: none; stroke: #e5e7eb; stroke-opacity: 0.6; stroke-width: 0.5; stroke-linecap: square"/>
 </g>
 <g>
 <g>
 <use xlink:href="#meaf606e401" x="33.88" y="72.93" style="fill: #9ca3af; stroke: #9ca3af; stroke-width: 0.8"/>
 </g>
 </g>
 <g>
 <text style="fill: #9ca3af; font: 7px 'DejaVu Sans', 'Bitstream Vera Sans', 'Computer Modern Sans Serif', 'Lucida Grande', 'Verdana', 'Geneva', 'Lucid', 'Arial', 'Helvetica', 'Avant Garde', sans-serif; text-anchor: end" x="26.88" y="75.59" transform="rotate(-0 26.88 75.59)">20</text>
 </g>
 </g>
 <g>
 <g>
 <path d="M 33.88 29.11 
L 229.18 29.11 
" style="fill: none; stroke: #e5e7eb; stroke-opacity: 0.6; stroke-width: 0.5; stroke-linecap: square"/>
 </g>
 <g>
 <g>
 <use xlink:href="#meaf606e401" x="33.88" y="29.11" style="fill: #9ca3af; stroke: #9ca3af; stroke-width: 0.8"/>
 </g>
 </g>
 <g>
 <text style="fill: #9ca3af; font: 7px 'DejaVu Sans', 'Bitstream Vera Sans', 'Computer Modern Sans Serif', 'Lucida Grande', 'Verdana', 'Geneva', 'Lucid', 'Arial', 'Helvetica', 'Avant Garde', sans-serif; text-anchor: end" x="26.88" y="31.77" transform="rotate(-0 26.88 31.77)">40</text>
 </g>
 </g>
 <g>
 <text style="fill: #9ca3af; font: 7px 'DejaVu Sans', 'Bitstream Vera Sans', 'Computer Modern Sans Serif', 'Lucida Grande', 'Verdana', 'Geneva', 'Lucid', 'Arial', 'Helvetica', 'Avant Garde', sans-serif; text-anchor: middle" x="12.52" y="76.5" transform="rotate(-90 12.52 76.5)">y</text>
 </g>
 </g>
 <g>
 <path d="M 42.76 17.98 
L 45.01 23.03 
L 47.25 27.94 
L 49.50 32.73 
L 51.75 37.39 
L 54.00 41.92 
L 56.24 46.32 
L 58.49 50.59 
L 60.74 54.73 
L 62.99 58.74 
L 65.23 62.63 
L 67.48 66.38 
L 69.73 70.00 
L 71.98 73.50 
L 74.22 76.86 
L 76.47 80.10 
L 78.72 83.20 
L 80.97 86.18 
L 83.21 89.03 
L 85.46 91.74 
L 87.71 94.33 
L 89.96 96.79 
L 92.20 99.12 
L 94.45 101.32 
L 96.70 103.39 
L 98.94 105.33 
L 101.19 107.14 
L 103.44 108.83 
L 105.69 110.38 
L 107.93 111.80 
L 110.18 113.10 
L 112.43 114.26 
L 114.68 115.30 
L 116.92 116.20 
L 119.17 116.98 
L 121.42 117.63 
L 123.67 118.14 
L 125.91 118.53 
L 128.16 118.79 
L 130.41 118.92 
L 132.66 118.92 
L 134.90 118.79 
L 137.15 118.53 
L 139.40 118.14 
L 141.65 117.63 
L 143.89 116.98 
L 146.14 116.20 
L 148.39 115.30 
L 150.64 114.26 
L 152.88 113.10 
L 155.13 111.80 
L 157.38 110.38 
L 159.62 108.83 
L 161.87 107.14 
L 164.12 105.33 
L 166.37 103.39 
L 168.61 101.32 
L 170.86 99.12 
L 173.11 96.79 
L 175.36 94.33 
L 177.60 91.74 
L 179.85 89.03 
L 182.10 86.18 
L 184.35 83.20 
L 186.59 80.10 
L 188.84 76.86 
L 191.09 73.50 
L 193.34 70.00 
L 195.58 66.38 
L 197.83 62.63 
L 200.08 58.74 
L 202.33 54.73 
L 204.57 50.59 
L 206.82 46.32 
L 209.07 41.92 
L 211.32 37.39 
L 213.56 32.73 
L 215.81 27.94 
L 218.06 23.03 
L 220.30 17.98 
" style="fill: none; stroke: #2563eb; stroke-width: 1.5; stroke-linecap: square"/>
 </g>
 <g>
 <path d="M 33.88 116.75 
L 229.18 116.75 
" style="fill: none; stroke: #9ca3af; stroke-width: 0.6; stroke-linecap: square"/>
 </g>
 <g>
 <path d="M 76.05 145.8 
L 76.05 7.2 
" style="fill: none; stroke-dasharray: 0.6,0.99; stroke-dashoffset: 0; stroke: #6b7280; stroke-width: 0.6"/>
 </g>
 <g>
 <path d="M 187.02 145.8 
L 187.02 7.2 
" style="fill: none; stroke-dasharray: 0.6,0.99; stroke-dashoffset: 0; stroke: #6b7280; stroke-width: 0.6"/>
 </g>
 <g>
 <path d="M 33.88 145.8 
L 33.88 7.2 
" style="fill: none; stroke: #9ca3af; stroke-width: 0.6; stroke-linejoin: miter; stroke-linecap: square"/>
 </g>
 <g>
 <path d="M 229.18 145.8 
L 229.18 7.2 
" style="fill: none; stroke: #9ca3af; stroke-width: 0.6; stroke-linejoin: miter; stroke-linecap: square"/>
 </g>
 <g>
 <path d="M 33.88 145.8 
L 229.18 145.8 
" style="fill: none; stroke: #9ca3af; stroke-width: 0.6; stroke-linejoin: miter; stroke-linecap: square"/>
 </g>
 <g>
 <path d="M 33.88 7.2 
L 229.18 7.2 
" style="fill: none; stroke: #9ca3af; stroke-width: 0.6; stroke-linejoin: miter; stroke-linecap: square"/>
 </g>
 </g>
 </g>
 <defs>
 </defs>
</svg>