<?xml version="1.0" encoding="utf-8" standalone="no"?>
<!DOCTYPE svg PUBLIC "-//W3C//DTD SVG 1.1//EN"
 "http://www.w3.org/Graphics/SVG/1.1/DTD/svg11.dtd">
<svg xmlns:xlink="http://www.w3.org/1999/xlink" width="238.61pt" height="177.55pt" viewBox="0 0 238.61 177.55" xmlns="http://www.w3.org/2000/svg" version="1.1">
 <g>
 <g>
 <path d="M 0 177.55 
L 238.61 177.55 
L 238.61 0 
L 0 0 
L 0 177.55 
z
" style="fill: none"/>
 </g>
 <g>
 <g>
 <path d="M 36.11 145.8 
L 231.41 145.8 
L 231.41 7.2 
L 36.11 7.2 
L 36.11 145.8 
z
" style="fill: none"/>
 </g>
 <g>
 <path d="M 78.27 92.85 
L 78.27 237.18 
L 80.54 237.18 
L 82.80 237.18 
L 85.07 237.18 
L 87.33 237.18 
L 89.60 237.18 
L 91.86 237.18 
L 94.13 237.18 
L 96.39 237.18 
L 98.66 237.18 
L 100.92 237.18 
L 103.18 237.18 
L 105.45 237.18 
L 107.71 237.18 
L 109.98 237.18 
L 112.24 237.18 
L 114.51 237.18 
L 116.77 237.18 
L 119.04 237.18 
L 121.30 237.18 
L 123.57 237.18 
L 125.83 237.18 
L 128.10 237.18 
L 130.36 237.18 
L 132.62 237.18 
L 134.89 237.18 
L 137.15 237.18 
L 139.42 237.18 
L 141.68 237.18 
L 143.95 237.18 
L 146.21 237.18 
L 148.48 237.18 
L 150.74 237.18 
L 153.01 237.18 
L 155.27 237.18 
L 157.54 237.18 
L 159.80 237.18 
L 162.06 237.18 
L 164.33 237.18 
L 166.59 237.18 
L 168.86 237.18 
L 171.12 237.18 
L 173.39 237.18 
L 175.65 237.18 
L 177.92 237.18 
L 180.18 237.18 
L 182.45 237.18 
L 184.71 237.18 
L 186.98 237.18 
L 189.24 237.18 
L 189.24 33.07 
L 189.24 33.07 
L 186.98 33.09 
L 184.71 33.17 
L 182.45 33.30 
L 180.18 33.49 
L 177.92 33.72 
L 175.65 34.01 
L 173.39 34.35 
L 171.12 34.74 
L 168.86 35.19 
L 166.59 35.68 
L 164.33 36.23 
L 162.06 36.83 
L 159.80 37.48 
L 157.54 38.18 
L 155.27 38.94 
L 153.01 39.74 
L 150.74 40.60 
L 148.48 41.50 
L 146.21 42.46 
L 143.95 43.46 
L 141.68 44.52 
L 139.42 45.63 
L 137.15 46.78 
L 134.89 47.98 
L 132.62 49.23 
L 130.36 50.54 
L 128.10 51.88 
L 125.83 53.28 
L 123.57 54.72 
L 121.30 56.21 
L 119.04 57.75 
L 116.77 59.33 
L 114.51 60.96 
L 112.24 62.63 
L 109.98 64.35 
L 107.71 66.11 
L 105.45 67.92 
L 103.18 69.77 
L 100.92 71.66 
L 98.66 73.60 
L 96.39 75.58 
L 94.13 77.60 
L 91.86 79.66 
L 89.60 81.76 
L 87.33 83.90 
L 85.07 86.08 
L 82.80 88.30 
L 80.54 90.55 
L 78.27 92.85 
z
" style="fill: #2563eb; fill-opacity: 0.15; stroke: #2563eb; stroke-opacity: 0.15"/>
 </g>
 <g>
 <g>
 <g>
 <path d="M 37.95 145.8 
L 37.95 7.2 
" style="fill: none; stroke: #e5e7eb; stroke-opacity: 0.6; stroke-width: 0.5; stroke-linecap: square"/>
 </g>
 <g>
 <defs>
 <path d="M 0 0 
L 0 3.5 
" style="stroke: #9ca3af; stroke-width: 0.8"/>
 </defs>
 <g>
 <use xlink:href="#mfe225af474" x="37.95" y="145.8" style="fill: #9ca3af; stroke: #9ca3af; stroke-width: 0.8"/>
 </g>
 </g>
 <g>
 <text style="fill: #9ca3af; font: 7px 'DejaVu Sans', 'Bitstream Vera Sans', 'Computer Modern Sans Serif', 'Lucida Grande', 'Verdana', 'Geneva', 'Lucid', 'Arial', 'Helvetica', 'Avant Garde', sans-serif; text-anchor: middle" x="37.95" y="158.12" transform="rotate(-0 37.95 158.12)">0.5</text>
 </g>
 </g>
 <g>
 <g>
 <path d="M 108.59 145.8 
L 108.59 7.2 
" style="fill: none; stroke: #e5e7eb; stroke-opacity: 0.6; stroke-width: 0.5; stroke-linecap: square"/>
 </g>
 <g>
 <g>
 <use xlink:href="#mfe225af474" x="108.59" y="145.8" style="fill: #9ca3af; stroke: #9ca3af; stroke-width: 0.8"/>
 </g>
 </g>
 <g>
 <text style="fill: #9ca3af; font: 7px 'DejaVu Sans', 'Bitstream Vera Sans', 'Computer Modern Sans Serif', 'Lucida Grande', 'Verdana', 'Geneva', 'Lucid', 'Arial', 'Helvetica', 'Avant Garde', sans-serif; text-anchor: middle" x="108.59" y="158.12" transform="rotate(-0 108.59 158.12)">1.0</text>
 </g>
 </g>
 <g>
 <g>
 <path d="M 179.24 145.8 
L 179.24 7.2 
" style="fill: none; stroke: #e5e7eb; stroke-opacity: 0.6; stroke-width: 0.5; stroke-linecap: square"/>
 </g>
 <g>
 <g>
 <use xlink:href="#mfe225af474" x="179.24" y="145.8" style="fill: #9ca3af; stroke: #9ca3af; stroke-width: 0.8"/>
 </g>
 </g>
 <g>
 <text style="fill: #9ca3af; font: 7px 'DejaVu Sans', 'Bitstream Vera Sans', 'Computer Modern Sans Serif', 'Lucida Grande', 'Verdana', 'Geneva', 'Lucid', 'Arial', 'Helvetica', 'Avant Garde', sans-serif; text-anchor: middle" x="179.24" y="158.12" transform="rotate(-0 179.24 158.12)">1.5</text>
 </g>
 </g>
 <g>
 <text style="fill: #9ca3af; font: 7px 'DejaVu Sans', 'Bitstream Vera Sans', 'Computer Modern Sans Serif', 'Lucida Grande', 'Verdana', 'Geneva', 'Lucid', 'Arial', 'Helvetica', 'Avant Garde', sans-serif; text-anchor: middle" x="133.76" y="168.89" transform="rotate(-0 133.76 168.89)">x</text>
 </g>
 </g>
 <g>
 <g>
 <g>
 <path d="M 36.11 135.12 
L 231.41 135.12 
" style="fill: none; stroke: #e5e7eb; stroke-opacity: 0.6; stroke-width: 0.5; stroke-linecap: square"/>
 </g>
 <g>
 <defs>
 <path d="M 0 0 
L -3.5 0 
" style="stroke: #9ca3af; stroke-width: 0.8"/>
 </defs>
 <g>
 <use xlink:href="#m6120b9730a" x="36.11" y="135.12" style="fill: #9ca3af; stroke: #9ca3af; stroke-width: 0.8"/>
 </g>
 </g>
 <g>
 <text style="fill: #9ca3af; font: 7px 'DejaVu Sans', 'Bitstream Vera Sans', 'Computer Modern Sans Serif', 'Lucida Grande', 'Verdana', 'Geneva', 'Lucid', 'Arial', 'Helvetica', 'Avant Garde', sans-serif; text-anchor: end" x="29.11" y="137.78" transform="rotate(-0 29.11 137.78)">1.0</text>
 </g>
 </g>
 <g>
 <g>
 <path d="M 36.11 84.09 
L 231.41 84.09 
" style="fill: none; stroke: #e5e7eb; stroke-opacity: 0.6; stroke-width: 0.5; stroke-linecap: square"/>
 </g>
 <g>
 <g>
 <use xlink:href="#m6120b9730a" x="36.11" y="84.09" style="fill: #9ca3af; stroke: #9ca3af; stroke-width: 0.8"/>
 </g>
 </g>
 <g>
 <text style="fill: #9ca3af; font: 7px 'DejaVu Sans', 'Bitstream Vera Sans', 'Computer Modern Sans Serif', 'Lucida Grande', 'Verdana', 'Geneva', 'Lucid', 'Arial', 'Helvetica', 'Avant Garde', sans-serif; text-anchor: end" x="29.11" y="86.75" transform="rotate(-0 29.11 86.75)">1.5</text>
 </g>
 </g>
 <g>
 <g>
 <path d="M 36.11 33.07 
L 231.41 33.07 
" style="fill: none; stroke: #e5e7eb; stroke-opacity: 0.6; stroke-width: 0.5; stroke-linecap: square"/>
 </g>
 <g>
 <g>
 <use xlink:href="#m6120b9730a" x="36.11" y="33.07" style="fill: #9ca3af; stroke: #9ca3af; stroke-width: 0.8"/>
 </g>
 </g>
 <g>
 <text style="fill: #9ca3af; font: 7px 'DejaVu Sans', 'Bitstream Vera Sans', 'Computer Modern Sans Serif', 'Lucida Grande', 'Verdana', 'Geneva', 'Lucid', 'Arial', 'Helvetica', 'Avant Garde', sans-serif; text-anchor: end" x="29.11" y="35.73" transform="rotate(-0 29.11 35.73)">2.0</text>
 </g>
 </g>
 <g>
 <text style="fill: #9ca3af; font: 7px 'DejaVu Sans', 'Bitstream Vera Sans', 'Computer Modern Sans Serif', 'Lucida Grande', 'Verdana', 'Geneva', 'Lucid', 'Arial', 'Helvetica', 'Avant Garde', sans-serif; text-anchor: middle" x="12.52" y="76.5" transform="rotate(-90 12.52 76.5)">y</text>
 </g>
 </g>
 <g>
 <path d="M 44.98 130.53 
L 47.23 127.77 
L 49.48 125.05 
L 51.73 122.35 
L 53.97 119.68 
L 56.22 117.04 
L 58.47 114.43 
L 60.72 111.85 
L 62.96 109.30 
L 65.21 106.79 
L 67.46 104.31 
L 69.71 101.86 
L 71.95 99.45 
L 74.20 97.07 
L 76.45 94.73 
L 78.70 92.42 
L 80.94 90.15 
L 83.19 87.91 
L 85.44 85.72 
L 87.68 83.56 
L 89.93 81.44 
L 92.18 79.36 
L 94.43 77.33 
L 96.67 75.33 
L 98.92 73.37 
L 101.17 71.45 
L 103.42 69.58 
L 105.66 67.75 
L 107.91 65.96 
L 110.16 64.21 
L 112.41 62.51 
L 114.65 60.85 
L 116.90 59.24 
L 119.15 57.67 
L 121.40 56.15 
L 123.64 54.67 
L 125.89 53.24 
L 128.14 51.86 
L 130.39 50.52 
L 132.63 49.23 
L 134.88 47.99 
L 137.13 46.79 
L 139.38 45.65 
L 141.62 44.55 
L 143.87 43.50 
L 146.12 42.50 
L 148.37 41.55 
L 150.61 40.65 
L 152.86 39.80 
L 155.11 38.99 
L 157.35 38.24 
L 159.60 37.54 
L 161.85 36.89 
L 164.10 36.29 
L 166.34 35.74 
L 168.59 35.24 
L 170.84 34.79 
L 173.09 34.40 
L 175.33 34.05 
L 177.58 33.76 
L 179.83 33.52 
L 182.08 33.33 
L 184.32 33.19 
L 186.57 33.10 
L 188.82 33.07 
L 191.07 33.08 
L 193.31 33.15 
L 195.56 33.27 
L 197.81 33.44 
L 200.06 33.66 
L 202.30 33.94 
L 204.55 34.26 
L 206.80 34.64 
L 209.05 35.07 
L 211.29 35.55 
L 213.54 36.08 
L 215.79 36.66 
L 218.03 37.29 
L 220.28 37.97 
L 222.53 38.71 
" style="fill: none; stroke: #2563eb; stroke-width: 1.5; stroke-linecap: square"/>
 </g>
 <g>
 <path style="fill: none; stroke: #9ca3af; stroke-width: 0.6; stroke-linecap: square"/>
 </g>
 <g>
 <path d="M 78.27 145.8 
L 78.27 7.2 
" style="fill: none; stroke-dasharray: 0.6,0.99; stroke-dashoffset: 0; stroke: #6b7280; stroke-width: 0.6"/>
 </g>
 <g>
 <path d="M 189.24 145.8 
L 189.24 7.2 
" style="fill: none; stroke-dasharray: 0.6,0.99; stroke-dashoffset: 0; stroke: #6b7280; stroke-width: 0.6"/>
 </g>
 <g>
 <path d="M 36.11 145.8 
L 36.11 7.2 
" style="fill: none; stroke: #9ca3af; stroke-width: 0.6; stroke-linejoin: miter; stroke-linecap: square"/>
 </g>
 <g>
 <path d="M 231.41 145.8 
L 231.41 7.2 
" style="fill: none; stroke: #9ca3af; stroke-width: 0.6; stroke-linejoin: miter; stroke-linecap: square"/>
 </g>
 <g>
 <path d="M 36.11 145.8 
L 231.41 145.8 
" style="fill: none; stroke: #9ca3af; stroke-width: 0.6; stroke-linejoin: miter; stroke-linecap: square"/>
 </g>
 <g>
 <path d="M 36.11 7.2 
L 231.41 7.2 
" style="fill: none; stroke: #9ca3af; stroke-width: 0.6; stroke-linejoin: miter; stroke-linecap: square"/>
 </g>
 </g>
 </g>
 <defs>
 </defs>
</svg>