<?xml version="1.0" encoding="utf-8" standalone="no"?>
<!DOCTYPE svg PUBLIC "-//W3C//DTD SVG 1.1//EN"
 "http://www.w3.org/Graphics/SVG/1.1/DTD/svg11.dtd">
<svg xmlns:xlink="http://www.w3.org/1999/xlink" width="238.61pt" height="177.55pt" viewBox="0 0 238.61 177.55" xmlns="http://www.w3.org/2000/svg" version="1.1">
 <g>
 <g>
 <path d="M 0 177.55 
L 238.61 177.55 
L 238.61 0 
L 0 0 
L 0 177.55 
z
" style="fill: none"/>
 </g>
 <g>
 <g>
 <path d="M 36.11 145.8 
L 231.41 145.8 
L 231.41 7.2 
L 36.11 7.2 
L 36.11 145.8 
z
" style="fill: none"/>
 </g>
 <g>
 <path d="M 44.98 146.47 
L 44.98 248.39 
L 47.77 248.39 
L 50.56 248.39 
L 53.35 248.39 
L 56.13 248.39 
L 58.92 248.39 
L 61.71 248.39 
L 64.49 248.39 
L 67.28 248.39 
L 70.07 248.39 
L 72.86 248.39 
L 75.64 248.39 
L 78.43 248.39 
L 81.22 248.39 
L 84.01 248.39 
L 86.79 248.39 
L 89.58 248.39 
L 92.37 248.39 
L 95.15 248.39 
L 97.94 248.39 
L 100.73 248.39 
L 103.52 248.39 
L 106.30 248.39 
L 109.09 248.39 
L 111.88 248.39 
L 114.66 248.39 
L 117.45 248.39 
L 120.24 248.39 
L 123.03 248.39 
L 125.81 248.39 
L 128.60 248.39 
L 131.39 248.39 
L 134.17 248.39 
L 136.96 248.39 
L 139.75 248.39 
L 142.54 248.39 
L 145.32 248.39 
L 148.11 248.39 
L 150.90 248.39 
L 153.69 248.39 
L 156.47 248.39 
L 159.26 248.39 
L 162.05 248.39 
L 164.83 248.39 
L 167.62 248.39 
L 170.41 248.39 
L 173.20 248.39 
L 175.98 248.39 
L 178.77 248.39 
L 181.56 248.39 
L 181.56 44.54 
L 181.56 44.54 
L 178.77 45.59 
L 175.98 46.64 
L 173.20 47.71 
L 170.41 48.79 
L 167.62 49.88 
L 164.83 50.98 
L 162.05 52.10 
L 159.26 53.23 
L 156.47 54.38 
L 153.69 55.53 
L 150.90 56.71 
L 148.11 57.90 
L 145.32 59.10 
L 142.54 60.32 
L 139.75 61.56 
L 136.96 62.82 
L 134.17 64.10 
L 131.39 65.40 
L 128.60 66.71 
L 125.81 68.05 
L 123.03 69.42 
L 120.24 70.81 
L 117.45 72.22 
L 114.66 73.66 
L 111.88 75.13 
L 109.09 76.64 
L 106.30 78.17 
L 103.52 79.74 
L 100.73 81.35 
L 97.94 83.00 
L 95.15 84.69 
L 92.37 86.43 
L 89.58 88.22 
L 86.79 90.07 
L 84.01 91.99 
L 81.22 93.97 
L 78.43 96.03 
L 75.64 98.17 
L 72.86 100.42 
L 70.07 102.78 
L 67.28 105.28 
L 64.49 107.94 
L 61.71 110.80 
L 58.92 113.91 
L 56.13 117.35 
L 53.35 121.25 
L 50.56 125.87 
L 47.77 131.91 
L 44.98 146.47 
z
" style="fill: #2563eb; fill-opacity: 0.15; stroke: #2563eb; stroke-opacity: 0.15"/>
 </g>
 <g>
 <g>
 <g>
 <path d="M 44.98 145.8 
L 44.98 7.2 
" style="fill: none; stroke: #e5e7eb; stroke-opacity: 0.6; stroke-width: 0.5; stroke-linecap: square"/>
 </g>
 <g>
 <defs>
 <path d="M 0 0 
L 0 3.5 
" style="stroke: #9ca3af; stroke-width: 0.8"/>
 </defs>
 <g>
 <use xlink:href="#mf5844fcae0" x="44.98" y="145.8" style="fill: #9ca3af; stroke: #9ca3af; stroke-width: 0.8"/>
 </g>
 </g>
 <g>
 <text style="fill: #9ca3af; font: 7px 'DejaVu Sans', 'Bitstream Vera Sans', 'Computer Modern Sans Serif', 'Lucida Grande', 'Verdana', 'Geneva', 'Lucid', 'Arial', 'Helvetica', 'Avant Garde', sans-serif; text-anchor: middle" x="44.98" y="158.12" transform="rotate(-0 44.98 158.12)">0.0</text>
 </g>
 </g>
 <g>
 <g>
 <path d="M 113.27 145.8 
L 113.27 7.2 
" style="fill: none; stroke: #e5e7eb; stroke-opacity: 0.6; stroke-width: 0.5; stroke-linecap: square"/>
 </g>
 <g>
 <g>
 <use xlink:href="#mf5844fcae0" x="113.27" y="145.8" style="fill: #9ca3af; stroke: #9ca3af; stroke-width: 0.8"/>
 </g>
 </g>
 <g>
 <text style="fill: #9ca3af; font: 7px 'DejaVu Sans', 'Bitstream Vera Sans', 'Computer Modern Sans Serif', 'Lucida Grande', 'Verdana', 'Geneva', 'Lucid', 'Arial', 'Helvetica', 'Avant Garde', sans-serif; text-anchor: middle" x="113.27" y="158.12" transform="rotate(-0 113.27 158.12)">0.5</text>
 </g>
 </g>
 <g>
 <g>
 <path d="M 181.56 145.8 
L 181.56 7.2 
" style="fill: none; stroke: #e5e7eb; stroke-opacity: 0.6; stroke-width: 0.5; stroke-linecap: square"/>
 </g>
 <g>
 <g>
 <use xlink:href="#mf5844fcae0" x="181.56" y="145.8" style="fill: #9ca3af; stroke: #9ca3af; stroke-width: 0.8"/>
 </g>
 </g>
 <g>
 <text style="fill: #9ca3af; font: 7px 'DejaVu Sans', 'Bitstream Vera Sans', 'Computer Modern Sans Serif', 'Lucida Grande', 'Verdana', 'Geneva', 'Lucid', 'Arial', 'Helvetica', 'Avant Garde', sans-serif; text-anchor: middle" x="181.56" y="158.12" transform="rotate(-0 181.56 158.12)">1.0</text>
 </g>
 </g>
 <g>
 <text style="fill: #9ca3af; font: 7px 'DejaVu Sans', 'Bitstream Vera Sans', 'Computer Modern Sans Serif', 'Lucida Grande', 'Verdana', 'Geneva', 'Lucid', 'Arial', 'Helvetica', 'Avant Garde', sans-serif; text-anchor: middle" x="133.76" y="168.89" transform="rotate(-0 133.76 168.89)">x</text>
 </g>
 </g>
 <g>
 <g>
 <g>
 <path d="M 36.11 95.50 
L 231.41 95.50 
" style="fill: none; stroke: #e5e7eb; stroke-opacity: 0.6; stroke-width: 0.5; stroke-linecap: square"/>
 </g>
 <g>
 <defs>
 <path d="M 0 0 
L -3.5 0 
" style="stroke: #9ca3af; stroke-width: 0.8"/>
 </defs>
 <g>
 <use xlink:href="#m5f319cfbd6" x="36.11" y="95.50" style="fill: #9ca3af; stroke: #9ca3af; stroke-width: 0.8"/>
 </g>
 </g>
 <g>
 <text style="fill: #9ca3af; font: 7px 'DejaVu Sans', 'Bitstream Vera Sans', 'Computer Modern Sans Serif', 'Lucida Grande', 'Verdana', 'Geneva', 'Lucid', 'Arial', 'Helvetica', 'Avant Garde', sans-serif; text-anchor: end" x="29.11" y="98.16" transform="rotate(-0 29.11 98.16)">1.5</text>
 </g>
 </g>
 <g>
 <g>
 <path d="M 36.11 44.54 
L 231.41 44.54 
" style="fill: none; stroke: #e5e7eb; stroke-opacity: 0.6; stroke-width: 0.5; stroke-linecap: square"/>
 </g>
 <g>
 <g>
 <use xlink:href="#m5f319cfbd6" x="36.11" y="44.54" style="fill: #9ca3af; stroke: #9ca3af; stroke-width: 0.8"/>
 </g>
 </g>
 <g>
 <text style="fill: #9ca3af; font: 7px 'DejaVu Sans', 'Bitstream Vera Sans', 'Computer Modern Sans Serif', 'Lucida Grande', 'Verdana', 'Geneva', 'Lucid', 'Arial', 'Helvetica', 'Avant Garde', sans-serif; text-anchor: end" x="29.11" y="47.20" transform="rotate(-0 29.11 47.20)">2.0</text>
 </g>
 </g>
 <g>
 <text style="fill: #9ca3af; font: 7px 'DejaVu Sans', 'Bitstream Vera Sans', 'Computer Modern Sans Serif', 'Lucida Grande', 'Verdana', 'Geneva', 'Lucid', 'Arial', 'Helvetica', 'Avant Garde', sans-serif; text-anchor: middle" x="12.52" y="76.5" transform="rotate(-90 12.52 76.5)">y</text>
 </g>
 </g>
 <g>
 <path d="M 45.50 140.19 
L 48.27 130.66 
L 51.03 125.01 
L 53.80 120.57 
L 56.57 116.78 
L 59.33 113.43 
L 62.10 110.39 
L 64.87 107.58 
L 67.63 104.96 
L 70.40 102.50 
L 73.16 100.17 
L 75.93 97.95 
L 78.70 95.83 
L 81.46 93.79 
L 84.23 91.83 
L 86.99 89.94 
L 89.76 88.11 
L 92.53 86.33 
L 95.29 84.61 
L 98.06 82.93 
L 100.82 81.29 
L 103.59 79.70 
L 106.36 78.14 
L 109.12 76.62 
L 111.89 75.13 
L 114.65 73.67 
L 117.42 72.24 
L 120.19 70.83 
L 122.95 69.45 
L 125.72 68.10 
L 128.48 66.77 
L 131.25 65.46 
L 134.02 64.17 
L 136.78 62.90 
L 139.55 61.65 
L 142.31 60.42 
L 145.08 59.21 
L 147.85 58.01 
L 150.61 56.83 
L 153.38 55.66 
L 156.14 54.51 
L 158.91 53.37 
L 161.68 52.25 
L 164.44 51.14 
L 167.21 50.04 
L 169.97 48.96 
L 172.74 47.89 
L 175.51 46.82 
L 178.27 45.77 
L 181.04 44.73 
L 183.80 43.71 
L 186.57 42.69 
L 189.34 41.68 
L 192.10 40.68 
L 194.87 39.69 
L 197.64 38.71 
L 200.40 37.74 
L 203.17 36.77 
L 205.93 35.82 
L 208.70 34.87 
L 211.47 33.93 
L 214.23 33.00 
L 217.00 32.08 
L 219.76 31.16 
L 222.53 30.25 
" style="fill: none; stroke: #2563eb; stroke-width: 1.5; stroke-linecap: square"/>
 </g>
 <g>
 <path style="fill: none; stroke: #9ca3af; stroke-width: 0.6; stroke-linecap: square"/>
 </g>
 <g>
 <path d="M 44.98 145.8 
L 44.98 7.2 
" style="fill: none; stroke-dasharray: 0.6,0.99; stroke-dashoffset: 0; stroke: #6b7280; stroke-width: 0.6"/>
 </g>
 <g>
 <path d="M 181.56 145.8 
L 181.56 7.2 
" style="fill: none; stroke-dasharray: 0.6,0.99; stroke-dashoffset: 0; stroke: #6b7280; stroke-width: 0.6"/>
 </g>
 <g>
 <path d="M 36.11 145.8 
L 36.11 7.2 
" style="fill: none; stroke: #9ca3af; stroke-width: 0.6; stroke-linejoin: miter; stroke-linecap: square"/>
 </g>
 <g>
 <path d="M 231.41 145.8 
L 231.41 7.2 
" style="fill: none; stroke: #9ca3af; stroke-width: 0.6; stroke-linejoin: miter; stroke-linecap: square"/>
 </g>
 <g>
 <path d="M 36.11 145.8 
L 231.41 145.8 
" style="fill: none; stroke: #9ca3af; stroke-width: 0.6; stroke-linejoin: miter; stroke-linecap: square"/>
 </g>
 <g>
 <path d="M 36.11 7.2 
L 231.41 7.2 
" style="fill: none; stroke: #9ca3af; stroke-width: 0.6; stroke-linejoin: miter; stroke-linecap: square"/>
 </g>
 </g>
 </g>
 <defs>
 </defs>
</svg>