<?xml version="1.0" encoding="utf-8" standalone="no"?>
<!DOCTYPE svg PUBLIC "-//W3C//DTD SVG 1.1//EN"
 "http://www.w3.org/Graphics/SVG/1.1/DTD/svg11.dtd">
<svg xmlns:xlink="http://www.w3.org/1999/xlink" width="242.64pt" height="177.55pt" viewBox="0 0 242.64 177.55" xmlns="http://www.w3.org/2000/svg" version="1.1">
 <g>
 <g>
 <path d="M 0 177.55 
L 242.64 177.55 
L 242.64 0 
L 0 0 
L 0 177.55 
z
" style="fill: none"/>
 </g>
 <g>
 <g>
 <path d="M 39.75 145.8 
L 235.05 145.8 
L 235.05 7.2 
L 39.75 7.2 
L 39.75 145.8 
z
" style="fill: none"/>
 </g>
 <g>
 <defs>
 <path d="M 81.92 -54.68 
L 81.92 -127.31 
L 84.18 -127.31 
L 86.44 -127.31 
L 88.71 -127.31 
L 90.97 -127.31 
L 93.24 -127.31 
L 95.50 -127.31 
L 97.77 -127.31 
L 100.03 -127.31 
L 102.30 -127.31 
L 104.56 -127.31 
L 106.83 -127.31 
L 109.09 -127.31 
L 111.35 -127.31 
L 113.62 -127.31 
L 115.88 -127.31 
L 118.15 -127.31 
L 120.41 -127.31 
L 122.68 -127.31 
L 124.94 -127.31 
L 127.21 -127.31 
L 129.47 -127.31 
L 131.74 -127.31 
L 134.00 -127.31 
L 136.27 -127.31 
L 138.53 -127.31 
L 140.79 -127.31 
L 143.06 -127.31 
L 145.32 -127.31 
L 147.59 -127.31 
L 149.85 -127.31 
L 152.12 -127.31 
L 154.38 -127.31 
L 156.65 -127.31 
L 158.91 -127.31 
L 161.18 -127.31 
L 163.44 -127.31 
L 165.71 -127.31 
L 167.97 -127.31 
L 170.23 -127.31 
L 172.50 -127.31 
L 174.76 -127.31 
L 177.03 -127.31 
L 179.29 -127.31 
L 181.56 -127.31 
L 183.82 -127.31 
L 186.09 -127.31 
L 188.35 -127.31 
L 190.62 -127.31 
L 192.88 -127.31 
L 192.88 -54.68 
L 192.88 -54.68 
L 190.62 -60.18 
L 188.35 -65.46 
L 186.09 -70.50 
L 183.82 -75.31 
L 181.56 -79.90 
L 179.29 -84.26 
L 177.03 -88.38 
L 174.76 -92.28 
L 172.50 -95.95 
L 170.23 -99.39 
L 167.97 -102.59 
L 165.71 -105.57 
L 163.44 -108.33 
L 161.18 -110.85 
L 158.91 -113.14 
L 156.65 -115.20 
L 154.38 -117.04 
L 152.12 -118.64 
L 149.85 -120.02 
L 147.59 -121.16 
L 145.32 -122.08 
L 143.06 -122.77 
L 140.79 -123.23 
L 138.53 -123.46 
L 136.27 -123.46 
L 134.00 -123.23 
L 131.74 -122.77 
L 129.47 -122.08 
L 127.21 -121.16 
L 124.94 -120.02 
L 122.68 -118.64 
L 120.41 -117.04 
L 118.15 -115.20 
L 115.88 -113.14 
L 113.62 -110.85 
L 111.35 -108.33 
L 109.09 -105.57 
L 106.83 -102.59 
L 104.56 -99.39 
L 102.30 -95.95 
L 100.03 -92.28 
L 97.77 -88.38 
L 95.50 -84.26 
L 93.24 -79.90 
L 90.97 -75.31 
L 88.71 -70.50 
L 86.44 -65.46 
L 84.18 -60.18 
L 81.92 -54.68 
z
" style="stroke: #2563eb; stroke-opacity: 0.15"/>
 </defs>
 <g>
 <use xlink:href="#mbf80757973" x="0" y="177.55" style="fill: #2563eb; fill-opacity: 0.15; stroke: #2563eb; stroke-opacity: 0.15"/>
 </g>
 </g>
 <g>
 <g>
 <g>
 <path d="M 44.93 145.8 
L 44.93 7.2 
" style="fill: none; stroke: #e5e7eb; stroke-opacity: 0.6; stroke-width: 0.5; stroke-linecap: square"/>
 </g>
 <g>
 <defs>
 <path d="M 0 0 
L 0 3.5 
" style="stroke: #9ca3af; stroke-width: 0.8"/>
 </defs>
 <g>
 <use xlink:href="#mb79c5328e1" x="44.93" y="145.8" style="fill: #9ca3af; stroke: #9ca3af; stroke-width: 0.8"/>
 </g>
 </g>
 <g>
 <text style="fill: #9ca3af; font: 7px 'DejaVu Sans', 'Bitstream Vera Sans', 'Computer Modern Sans Serif', 'Lucida Grande', 'Verdana', 'Geneva', 'Lucid', 'Arial', 'Helvetica', 'Avant Garde', sans-serif; text-anchor: middle" x="44.93" y="158.12" transform="rotate(-0 44.93 158.12)">−5.0</text>
 </g>
 </g>
 <g>
 <g>
 <path d="M 91.16 145.8 
L 91.16 7.2 
" style="fill: none; stroke: #e5e7eb; stroke-opacity: 0.6; stroke-width: 0.5; stroke-linecap: square"/>
 </g>
 <g>
 <g>
 <use xlink:href="#mb79c5328e1" x="91.16" y="145.8" style="fill: #9ca3af; stroke: #9ca3af; stroke-width: 0.8"/>
 </g>
 </g>
 <g>
 <text style="fill: #9ca3af; font: 7px 'DejaVu Sans', 'Bitstream Vera Sans', 'Computer Modern Sans Serif', 'Lucida Grande', 'Verdana', 'Geneva', 'Lucid', 'Arial', 'Helvetica', 'Avant Garde', sans-serif; text-anchor: middle" x="91.16" y="158.12" transform="rotate(-0 91.16 158.12)">−2.5</text>
 </g>
 </g>
 <g>
 <g>
 <path d="M 137.40 145.8 
L 137.40 7.2 
" style="fill: none; stroke: #e5e7eb; stroke-opacity: 0.6; stroke-width: 0.5; stroke-linecap: square"/>
 </g>
 <g>
 <g>
 <use xlink:href="#mb79c5328e1" x="137.40" y="145.8" style="fill: #9ca3af; stroke: #9ca3af; stroke-width: 0.8"/>
 </g>
 </g>
 <g>
 <text style="fill: #9ca3af; font: 7px 'DejaVu Sans', 'Bitstream Vera Sans', 'Computer Modern Sans Serif', 'Lucida Grande', 'Verdana', 'Geneva', 'Lucid', 'Arial', 'Helvetica', 'Avant Garde', sans-serif; text-anchor: middle" x="137.40" y="158.12" transform="rotate(-0 137.40 158.12)">0.0</text>
 </g>
 </g>
 <g>
 <g>
 <path d="M 183.63 145.8 
L 183.63 7.2 
" style="fill: none; stroke: #e5e7eb; stroke-opacity: 0.6; stroke-width: 0.5; stroke-linecap: square"/>
 </g>
 <g>
 <g>
 <use xlink:href="#mb79c5328e1" x="183.63" y="145.8" style="fill: #9ca3af; stroke: #9ca3af; stroke-width: 0.8"/>
 </g>
 </g>
 <g>
 <text style="fill: #9ca3af; font: 7px 'DejaVu Sans', 'Bitstream Vera Sans', 'Computer Modern Sans Serif', 'Lucida Grande', 'Verdana', 'Geneva', 'Lucid', 'Arial', 'Helvetica', 'Avant Garde', sans-serif; text-anchor: middle" x="183.63" y="158.12" transform="rotate(-0 183.63 158.12)">2.5</text>
 </g>
 </g>
 <g>
 <g>
 <path d="M 229.87 145.8 
L 229.87 7.2 
" style="fill: none; stroke: #e5e7eb; stroke-opacity: 0.6; stroke-width: 0.5; stroke-linecap: square"/>
 </g>
 <g>
 <g>
 <use xlink:href="#mb79c5328e1" x="229.87" y="145.8" style="fill: #9ca3af; stroke: #9ca3af; stroke-width: 0.8"/>
 </g>
 </g>
 <g>
 <text style="fill: #9ca3af; font: 7px 'DejaVu Sans', 'Bitstream Vera Sans', 'Computer Modern Sans Serif', 'Lucida Grande', 'Verdana', 'Geneva', 'Lucid', 'Arial', 'Helvetica', 'Avant Garde', sans-serif; text-anchor: middle" x="229.87" y="158.12" transform="rotate(-0 229.87 158.12)">5.0</text>
 </g>
 </g>
 <g>
 <text style="fill: #9ca3af; font: 7px 'DejaVu Sans', 'Bitstream Vera Sans', 'Computer Modern Sans Serif', 'Lucida Grande', 'Verdana', 'Geneva', 'Lucid', 'Arial', 'Helvetica', 'Avant Garde', sans-serif; text-anchor: middle" x="137.40" y="168.89" transform="rotate(-0 137.40 168.89)">x</text>
 </g>
 </g>
 <g>
 <g>
 <g>
 <path d="M 39.75 126.69 
L 235.05 126.69 
" style="fill: none; stroke: #e5e7eb; stroke-opacity: 0.6; stroke-width: 0.5; stroke-linecap: square"/>
 </g>
 <g>
 <defs>
 <path d="M 0 0 
L -3.5 0 
" style="stroke: #9ca3af; stroke-width: 0.8"/>
 </defs>
 <g>
 <use xlink:href="#m0efebe2160" x="39.75" y="126.69" style="fill: #9ca3af; stroke: #9ca3af; stroke-width: 0.8"/>
 </g>
 </g>
 <g>
 <text style="fill: #9ca3af; font: 7px 'DejaVu Sans', 'Bitstream Vera Sans', 'Computer Modern Sans Serif', 'Lucida Grande', 'Verdana', 'Geneva', 'Lucid', 'Arial', 'Helvetica', 'Avant Garde', sans-serif; text-anchor: end" x="32.75" y="129.35" transform="rotate(-0 32.75 129.35)">−40</text>
 </g>
 </g>
 <g>
 <g>
 <path d="M 39.75 88.47 
L 235.05 88.47 
" style="fill: none; stroke: #e5e7eb; stroke-opacity: 0.6; stroke-width: 0.5; stroke-linecap: square"/>
 </g>
 <g>
 <g>
 <use xlink:href="#m0efebe2160" x="39.75" y="88.47" style="fill: #9ca3af; stroke: #9ca3af; stroke-width: 0.8"/>
 </g>
 </g>
 <g>
 <text style="fill: #9ca3af; font: 7px 'DejaVu Sans', 'Bitstream Vera Sans', 'Computer Modern Sans Serif', 'Lucida Grande', 'Verdana', 'Geneva', 'Lucid', 'Arial', 'Helvetica', 'Avant Garde', sans-serif; text-anchor: end" x="32.75" y="91.13" transform="rotate(-0 32.75 91.13)">−20</text>
 </g>
 </g>
 <g>
 <g>
 <path d="M 39.75 50.24 
L 235.05 50.24 
" style="fill: none; stroke: #e5e7eb; stroke-opacity: 0.6; stroke-width: 0.5; stroke-linecap: square"/>
 </g>
 <g>
 <g>
 <use xlink:href="#m0efebe2160" x="39.75" y="50.24" style="fill: #9ca3af; stroke: #9ca3af; stroke-width: 0.8"/>
 </g>
 </g>
 <g>
 <text style="fill: #9ca3af; font: 7px 'DejaVu Sans', 'Bitstream Vera Sans', 'Computer Modern Sans Serif', 'Lucida Grande', 'Verdana', 'Geneva', 'Lucid', 'Arial', 'Helvetica', 'Avant Garde', sans-serif; text-anchor: end" x="32.75" y="52.90" transform="rotate(-0 32.75 52.90)">0</text>
 </g>
 </g>
 <g>
 <g>
 <path d="M 39.75 12.02 
L 235.05 12.02 
" style="fill: none; stroke: #e5e7eb; stroke-opacity: 0.6; stroke-width: 0.5; stroke-linecap: square"/>
 </g>
 <g>
 <g>
 <use xlink:href="#m0efebe2160" x="39.75" y="12.02" style="fill: #9ca3af; stroke: #9ca3af; stroke-width: 0.8"/>
 </g>
 </g>
 <g>
 <text style="fill: #9ca3af; font: 7px 'DejaVu Sans', 'Bitstream Vera Sans', 'Computer Modern Sans Serif', 'Lucida Grande', 'Verdana', 'Geneva', 'Lucid', 'Arial', 'Helvetica', 'Avant Garde', sans-serif; text-anchor: end" x="32.75" y="14.68" transform="rotate(-0 32.75 14.68)">20</text>
 </g>
 </g>
 <g>
 <text style="fill: #9ca3af; font: 7px 'DejaVu Sans', 'Bitstream Vera Sans', 'Computer Modern Sans Serif', 'Lucida Grande', 'Verdana', 'Geneva', 'Lucid', 'Arial', 'Helvetica', 'Avant Garde', sans-serif; text-anchor: middle" x="12.52" y="76.5" transform="rotate(-90 12.52 76.5)">y</text>
 </g>
 </g>
 <g>
 <path d="M 62.77 178.55 
L 64.36 173.30 
L 66.60 166.08 
L 68.85 159.08 
L 71.10 152.30 
L 73.35 145.76 
L 75.59 139.44 
L 77.84 133.34 
L 80.09 127.47 
L 82.34 121.83 
L 84.58 116.41 
L 86.83 111.21 
L 89.08 106.25 
L 91.33 101.51 
L 93.57 96.99 
L 95.82 92.70 
L 98.07 88.64 
L 100.32 84.80 
L 102.56 81.19 
L 104.81 77.80 
L 107.06 74.64 
L 109.31 71.70 
L 111.55 68.99 
L 113.80 66.51 
L 116.05 64.25 
L 118.29 62.22 
L 120.54 60.41 
L 122.79 58.83 
L 125.04 57.48 
L 127.28 56.35 
L 129.53 55.45 
L 131.78 54.77 
L 134.03 54.32 
L 136.27 54.09 
L 138.52 54.09 
L 140.77 54.32 
L 143.02 54.77 
L 145.26 55.45 
L 147.51 56.35 
L 149.76 57.48 
L 152.01 58.83 
L 154.25 60.41 
L 156.50 62.22 
L 158.75 64.25 
L 161.00 66.51 
L 163.24 68.99 
L 165.49 71.70 
L 167.74 74.64 
L 169.99 77.80 
L 172.23 81.19 
L 174.48 84.80 
L 176.73 88.64 
L 178.98 92.70 
L 181.22 96.99 
L 183.47 101.51 
L 185.72 106.25 
L 187.96 111.21 
L 190.21 116.41 
L 192.46 121.83 
L 194.71 127.47 
L 196.95 133.34 
L 199.20 139.44 
L 201.45 145.76 
L 203.70 152.30 
L 205.94 159.08 
L 208.19 166.08 
L 210.44 173.30 
L 212.02 178.55 
" style="fill: none; stroke: #2563eb; stroke-width: 1.5; stroke-linecap: square"/>
 </g>
 <g>
 <path d="M 39.75 50.24 
L 235.05 50.24 
" style="fill: none; stroke: #9ca3af; stroke-width: 0.6; stroke-linecap: square"/>
 </g>
 <g>
 <path d="M 81.92 145.8 
L 81.92 7.2 
" style="fill: none; stroke-dasharray: 0.6,0.99; stroke-dashoffset: 0; stroke: #6b7280; stroke-width: 0.6"/>
 </g>
 <g>
 <path d="M 192.88 145.8 
L 192.88 7.2 
" style="fill: none; stroke-dasharray: 0.6,0.99; stroke-dashoffset: 0; stroke: #6b7280; stroke-width: 0.6"/>
 </g>
 <g>
 <path d="M 39.75 145.8 
L 39.75 7.2 
" style="fill: none; stroke: #9ca3af; stroke-width: 0.6; stroke-linejoin: miter; stroke-linecap: square"/>
 </g>
 <g>
 <path d="M 235.05 145.8 
L 235.05 7.2 
" style="fill: none; stroke: #9ca3af; stroke-width: 0.6; stroke-linejoin: miter; stroke-linecap: square"/>
 </g>
 <g>
 <path d="M 39.75 145.8 
L 235.05 145.8 
" style="fill: none; stroke: #9ca3af; stroke-width: 0.6; stroke-linejoin: miter; stroke-linecap: square"/>
 </g>
 <g>
 <path d="M 39.75 7.2 
L 235.05 7.2 
" style="fill: none; stroke: #9ca3af; stroke-width: 0.6; stroke-linejoin: miter; stroke-linecap: square"/>
 </g>
 </g>
 </g>
 <defs>
 </defs>
</svg>