<?xml version="1.0" encoding="utf-8" standalone="no"?>
<!DOCTYPE svg PUBLIC "-//W3C//DTD SVG 1.1//EN"
 "http://www.w3.org/Graphics/SVG/1.1/DTD/svg11.dtd">
<svg xmlns:xlink="http://www.w3.org/1999/xlink" width="242.25pt" height="177.55pt" viewBox="0 0 242.25 177.55" xmlns="http://www.w3.org/2000/svg" version="1.1">
 <g>
 <g>
 <path d="M 0 177.55 
L 242.25 177.55 
L 242.25 0 
L 0 0 
L 0 177.55 
z
" style="fill: none"/>
 </g>
 <g>
 <g>
 <path d="M 39.75 145.8 
L 235.05 145.8 
L 235.05 7.2 
L 39.75 7.2 
L 39.75 145.8 
z
" style="fill: none"/>
 </g>
 <g>
 <defs>
 <path d="M 81.92 -94.00 
L 81.92 -92.45 
L 84.18 -92.45 
L 86.44 -92.45 
L 88.71 -92.45 
L 90.97 -92.45 
L 93.24 -92.45 
L 95.50 -92.45 
L 97.77 -92.45 
L 100.03 -92.45 
L 102.30 -92.45 
L 104.56 -92.45 
L 106.83 -92.45 
L 109.09 -92.45 
L 111.35 -92.45 
L 113.62 -92.45 
L 115.88 -92.45 
L 118.15 -92.45 
L 120.41 -92.45 
L 122.68 -92.45 
L 124.94 -92.45 
L 127.21 -92.45 
L 129.47 -92.45 
L 131.74 -92.45 
L 134.00 -92.45 
L 136.27 -92.45 
L 138.53 -92.45 
L 140.79 -92.45 
L 143.06 -92.45 
L 145.32 -92.45 
L 147.59 -92.45 
L 149.85 -92.45 
L 152.12 -92.45 
L 154.38 -92.45 
L 156.65 -92.45 
L 158.91 -92.45 
L 161.18 -92.45 
L 163.44 -92.45 
L 165.71 -92.45 
L 167.97 -92.45 
L 170.23 -92.45 
L 172.50 -92.45 
L 174.76 -92.45 
L 177.03 -92.45 
L 179.29 -92.45 
L 181.56 -92.45 
L 183.82 -92.45 
L 186.09 -92.45 
L 188.35 -92.45 
L 190.62 -92.45 
L 192.88 -92.45 
L 192.88 -177.51 
L 192.88 -177.51 
L 190.62 -170.85 
L 188.35 -164.70 
L 186.09 -159.04 
L 183.82 -153.82 
L 181.56 -149.00 
L 179.29 -144.57 
L 177.03 -140.49 
L 174.76 -136.72 
L 172.50 -133.25 
L 170.23 -130.05 
L 167.97 -127.10 
L 165.71 -124.39 
L 163.44 -121.88 
L 161.18 -119.57 
L 158.91 -117.45 
L 156.65 -115.49 
L 154.38 -113.68 
L 152.12 -112.02 
L 149.85 -110.48 
L 147.59 -109.07 
L 145.32 -107.77 
L 143.06 -106.56 
L 140.79 -105.46 
L 138.53 -104.44 
L 136.27 -103.50 
L 134.00 -102.63 
L 131.74 -101.83 
L 129.47 -101.10 
L 127.21 -100.42 
L 124.94 -99.79 
L 122.68 -99.22 
L 120.41 -98.69 
L 118.15 -98.20 
L 115.88 -97.75 
L 113.62 -97.33 
L 111.35 -96.95 
L 109.09 -96.60 
L 106.83 -96.27 
L 104.56 -95.97 
L 102.30 -95.69 
L 100.03 -95.44 
L 97.77 -95.20 
L 95.50 -94.99 
L 93.24 -94.79 
L 90.97 -94.61 
L 88.71 -94.44 
L 86.44 -94.28 
L 84.18 -94.14 
L 81.92 -94.00 
z
" style="stroke: #2563eb; stroke-opacity: 0.15"/>
 </defs>
 <g>
 <use xlink:href="#m95bdf77863" x="0" y="177.55" style="fill: #2563eb; fill-opacity: 0.15; stroke: #2563eb; stroke-opacity: 0.15"/>
 </g>
 </g>
 <g>
 <g>
 <g>
 <path d="M 81.92 145.8 
L 81.92 7.2 
" style="fill: none; stroke: #e5e7eb; stroke-opacity: 0.6; stroke-width: 0.5; stroke-linecap: square"/>
 </g>
 <g>
 <defs>
 <path d="M 0 0 
L 0 3.5 
" style="stroke: #9ca3af; stroke-width: 0.8"/>
 </defs>
 <g>
 <use xlink:href="#m31f221a7bb" x="81.92" y="145.8" style="fill: #9ca3af; stroke: #9ca3af; stroke-width: 0.8"/>
 </g>
 </g>
 <g>
 <text style="fill: #9ca3af; font: 7px 'DejaVu Sans', 'Bitstream Vera Sans', 'Computer Modern Sans Serif', 'Lucida Grande', 'Verdana', 'Geneva', 'Lucid', 'Arial', 'Helvetica', 'Avant Garde', sans-serif; text-anchor: middle" x="81.92" y="158.12" transform="rotate(-0 81.92 158.12)">0</text>
 </g>
 </g>
 <g>
 <g>
 <path d="M 137.40 145.8 
L 137.40 7.2 
" style="fill: none; stroke: #e5e7eb; stroke-opacity: 0.6; stroke-width: 0.5; stroke-linecap: square"/>
 </g>
 <g>
 <g>
 <use xlink:href="#m31f221a7bb" x="137.40" y="145.8" style="fill: #9ca3af; stroke: #9ca3af; stroke-width: 0.8"/>
 </g>
 </g>
 <g>
 <text style="fill: #9ca3af; font: 7px 'DejaVu Sans', 'Bitstream Vera Sans', 'Computer Modern Sans Serif', 'Lucida Grande', 'Verdana', 'Geneva', 'Lucid', 'Arial', 'Helvetica', 'Avant Garde', sans-serif; text-anchor: middle" x="137.40" y="158.12" transform="rotate(-0 137.40 158.12)">1</text>
 </g>
 </g>
 <g>
 <g>
 <path d="M 192.88 145.8 
L 192.88 7.2 
" style="fill: none; stroke: #e5e7eb; stroke-opacity: 0.6; stroke-width: 0.5; stroke-linecap: square"/>
 </g>
 <g>
 <g>
 <use xlink:href="#m31f221a7bb" x="192.88" y="145.8" style="fill: #9ca3af; stroke: #9ca3af; stroke-width: 0.8"/>
 </g>
 </g>
 <g>
 <text style="fill: #9ca3af; font: 7px 'DejaVu Sans', 'Bitstream Vera Sans', 'Computer Modern Sans Serif', 'Lucida Grande', 'Verdana', 'Geneva', 'Lucid', 'Arial', 'Helvetica', 'Avant Garde', sans-serif; text-anchor: middle" x="192.88" y="158.12" transform="rotate(-0 192.88 158.12)">2</text>
 </g>
 </g>
 <g>
 <text style="fill: #9ca3af; font: 7px 'DejaVu Sans', 'Bitstream Vera Sans', 'Computer Modern Sans Serif', 'Lucida Grande', 'Verdana', 'Geneva', 'Lucid', 'Arial', 'Helvetica', 'Avant Garde', sans-serif; text-anchor: middle" x="137.40" y="168.89" transform="rotate(-0 137.40 168.89)">x</text>
 </g>
 </g>
 <g>
 <g>
 <g>
 <path d="M 39.75 116.26 
L 235.05 116.26 
" style="fill: none; stroke: #e5e7eb; stroke-opacity: 0.6; stroke-width: 0.5; stroke-linecap: square"/>
 </g>
 <g>
 <defs>
 <path d="M 0 0 
L -3.5 0 
" style="stroke: #9ca3af; stroke-width: 0.8"/>
 </defs>
 <g>
 <use xlink:href="#m85eee3466f" x="39.75" y="116.26" style="fill: #9ca3af; stroke: #9ca3af; stroke-width: 0.8"/>
 </g>
 </g>
 <g>
 <text style="fill: #9ca3af; font: 7px 'DejaVu Sans', 'Bitstream Vera Sans', 'Computer Modern Sans Serif', 'Lucida Grande', 'Verdana', 'Geneva', 'Lucid', 'Arial', 'Helvetica', 'Avant Garde', sans-serif; text-anchor: end" x="32.75" y="118.92" transform="rotate(-0 32.75 118.92)">−20</text>
 </g>
 </g>
 <g>
 <g>
 <path d="M 39.75 85.10 
L 235.05 85.10 
" style="fill: none; stroke: #e5e7eb; stroke-opacity: 0.6; stroke-width: 0.5; stroke-linecap: square"/>
 </g>
 <g>
 <g>
 <use xlink:href="#m85eee3466f" x="39.75" y="85.10" style="fill: #9ca3af; stroke: #9ca3af; stroke-width: 0.8"/>
 </g>
 </g>
 <g>
 <text style="fill: #9ca3af; font: 7px 'DejaVu Sans', 'Bitstream Vera Sans', 'Computer Modern Sans Serif', 'Lucida Grande', 'Verdana', 'Geneva', 'Lucid', 'Arial', 'Helvetica', 'Avant Garde', sans-serif; text-anchor: end" x="32.75" y="87.76" transform="rotate(-0 32.75 87.76)">0</text>
 </g>
 </g>
 <g>
 <g>
 <path d="M 39.75 53.94 
L 235.05 53.94 
" style="fill: none; stroke: #e5e7eb; stroke-opacity: 0.6; stroke-width: 0.5; stroke-linecap: square"/>
 </g>
 <g>
 <g>
 <use xlink:href="#m85eee3466f" x="39.75" y="53.94" style="fill: #9ca3af; stroke: #9ca3af; stroke-width: 0.8"/>
 </g>
 </g>
 <g>
 <text style="fill: #9ca3af; font: 7px 'DejaVu Sans', 'Bitstream Vera Sans', 'Computer Modern Sans Serif', 'Lucida Grande', 'Verdana', 'Geneva', 'Lucid', 'Arial', 'Helvetica', 'Avant Garde', sans-serif; text-anchor: end" x="32.75" y="56.60" transform="rotate(-0 32.75 56.60)">20</text>
 </g>
 </g>
 <g>
 <g>
 <path d="M 39.75 22.78 
L 235.05 22.78 
" style="fill: none; stroke: #e5e7eb; stroke-opacity: 0.6; stroke-width: 0.5; stroke-linecap: square"/>
 </g>
 <g>
 <g>
 <use xlink:href="#m85eee3466f" x="39.75" y="22.78" style="fill: #9ca3af; stroke: #9ca3af; stroke-width: 0.8"/>
 </g>
 </g>
 <g>
 <text style="fill: #9ca3af; font: 7px 'DejaVu Sans', 'Bitstream Vera Sans', 'Computer Modern Sans Serif', 'Lucida Grande', 'Verdana', 'Geneva', 'Lucid', 'Arial', 'Helvetica', 'Avant Garde', sans-serif; text-anchor: end" x="32.75" y="25.44" transform="rotate(-0 32.75 25.44)">40</text>
 </g>
 </g>
 <g>
 <text style="fill: #9ca3af; font: 7px 'DejaVu Sans', 'Bitstream Vera Sans', 'Computer Modern Sans Serif', 'Lucida Grande', 'Verdana', 'Geneva', 'Lucid', 'Arial', 'Helvetica', 'Avant Garde', sans-serif; text-anchor: middle" x="12.52" y="76.5" transform="rotate(-90 12.52 76.5)">y</text>
 </g>
 </g>
 <g>
 <path d="M 48.63 84.63 
L 50.87 84.59 
L 53.12 84.55 
L 55.37 84.51 
L 57.61 84.45 
L 59.86 84.40 
L 62.11 84.34 
L 64.36 84.28 
L 66.60 84.21 
L 68.85 84.13 
L 71.10 84.05 
L 73.35 83.96 
L 75.59 83.86 
L 77.84 83.76 
L 80.09 83.64 
L 82.34 83.52 
L 84.58 83.39 
L 86.83 83.24 
L 89.08 83.09 
L 91.33 82.92 
L 93.57 82.73 
L 95.82 82.53 
L 98.07 82.31 
L 100.32 82.08 
L 102.56 81.82 
L 104.81 81.55 
L 107.06 81.25 
L 109.31 80.92 
L 111.55 80.57 
L 113.80 80.19 
L 116.05 79.77 
L 118.29 79.32 
L 120.54 78.83 
L 122.79 78.30 
L 125.04 77.73 
L 127.28 77.11 
L 129.53 76.43 
L 131.78 75.70 
L 134.03 74.91 
L 136.27 74.05 
L 138.52 73.11 
L 140.77 72.10 
L 143.02 71.01 
L 145.26 69.82 
L 147.51 68.53 
L 149.76 67.13 
L 152.01 65.61 
L 154.25 63.97 
L 156.50 62.18 
L 158.75 60.25 
L 161.00 58.15 
L 163.24 55.88 
L 165.49 53.41 
L 167.74 50.74 
L 169.99 47.84 
L 172.23 44.69 
L 174.48 41.28 
L 176.73 37.58 
L 178.98 33.57 
L 181.22 29.22 
L 183.47 24.51 
L 185.72 19.40 
L 187.96 13.85 
L 190.21 7.84 
L 192.46 1.32 
L 193.20 -1 
" style="fill: none; stroke: #2563eb; stroke-width: 1.5; stroke-linecap: square"/>
 </g>
 <g>
 <path d="M 39.75 85.10 
L 235.05 85.10 
" style="fill: none; stroke: #9ca3af; stroke-width: 0.6; stroke-linecap: square"/>
 </g>
 <g>
 <path d="M 81.92 145.8 
L 81.92 7.2 
" style="fill: none; stroke-dasharray: 0.6,0.99; stroke-dashoffset: 0; stroke: #6b7280; stroke-width: 0.6"/>
 </g>
 <g>
 <path d="M 192.88 145.8 
L 192.88 7.2 
" style="fill: none; stroke-dasharray: 0.6,0.99; stroke-dashoffset: 0; stroke: #6b7280; stroke-width: 0.6"/>
 </g>
 <g>
 <path d="M 39.75 145.8 
L 39.75 7.2 
" style="fill: none; stroke: #9ca3af; stroke-width: 0.6; stroke-linejoin: miter; stroke-linecap: square"/>
 </g>
 <g>
 <path d="M 235.05 145.8 
L 235.05 7.2 
" style="fill: none; stroke: #9ca3af; stroke-width: 0.6; stroke-linejoin: miter; stroke-linecap: square"/>
 </g>
 <g>
 <path d="M 39.75 145.8 
L 235.05 145.8 
" style="fill: none; stroke: #9ca3af; stroke-width: 0.6; stroke-linejoin: miter; stroke-linecap: square"/>
 </g>
 <g>
 <path d="M 39.75 7.2 
L 235.05 7.2 
" style="fill: none; stroke: #9ca3af; stroke-width: 0.6; stroke-linejoin: miter; stroke-linecap: square"/>
 </g>
 </g>
 </g>
 <defs>
 </defs>
</svg>