<?xml version="1.0" encoding="utf-8" standalone="no"?>
<!DOCTYPE svg PUBLIC "-//W3C//DTD SVG 1.1//EN"
 "http://www.w3.org/Graphics/SVG/1.1/DTD/svg11.dtd">
<svg xmlns:xlink="http://www.w3.org/1999/xlink" width="242.25pt" height="177.55pt" viewBox="0 0 242.25 177.55" xmlns="http://www.w3.org/2000/svg" version="1.1">
 <g>
 <g>
 <path d="M 0 177.55 
L 242.25 177.55 
L 242.25 0 
L 0 0 
L 0 177.55 
z
" style="fill: none"/>
 </g>
 <g>
 <g>
 <path d="M 39.75 145.8 
L 235.05 145.8 
L 235.05 7.2 
L 39.75 7.2 
L 39.75 145.8 
z
" style="fill: none"/>
 </g>
 <g>
 <defs>
 <path d="M 81.92 -97.59 
L 81.92 -101.79 
L 84.18 -101.79 
L 86.44 -101.79 
L 88.71 -101.79 
L 90.97 -101.79 
L 93.24 -101.79 
L 95.50 -101.79 
L 97.77 -101.79 
L 100.03 -101.79 
L 102.30 -101.79 
L 104.56 -101.79 
L 106.83 -101.79 
L 109.09 -101.79 
L 111.35 -101.79 
L 113.62 -101.79 
L 115.88 -101.79 
L 118.15 -101.79 
L 120.41 -101.79 
L 122.68 -101.79 
L 124.94 -101.79 
L 127.21 -101.79 
L 129.47 -101.79 
L 131.74 -101.79 
L 134.00 -101.79 
L 136.27 -101.79 
L 138.53 -101.79 
L 140.79 -101.79 
L 143.06 -101.79 
L 145.32 -101.79 
L 147.59 -101.79 
L 149.85 -101.79 
L 152.12 -101.79 
L 154.38 -101.79 
L 156.65 -101.79 
L 158.91 -101.79 
L 161.18 -101.79 
L 163.44 -101.79 
L 165.71 -101.79 
L 167.97 -101.79 
L 170.23 -101.79 
L 172.50 -101.79 
L 174.76 -101.79 
L 177.03 -101.79 
L 179.29 -101.79 
L 181.56 -101.79 
L 183.82 -101.79 
L 186.09 -101.79 
L 188.35 -101.79 
L 190.62 -101.79 
L 192.88 -101.79 
L 192.88 48.10 
L 192.88 48.10 
L 190.62 42.01 
L 188.35 36.08 
L 186.09 30.32 
L 183.82 24.72 
L 181.56 19.28 
L 179.29 13.99 
L 177.03 8.86 
L 174.76 3.88 
L 172.50 -0.95 
L 170.23 -5.63 
L 167.97 -10.17 
L 165.71 -14.56 
L 163.44 -18.82 
L 161.18 -22.93 
L 158.91 -26.91 
L 156.65 -30.76 
L 154.38 -34.47 
L 152.12 -38.06 
L 149.85 -41.51 
L 147.59 -44.85 
L 145.32 -48.06 
L 143.06 -51.15 
L 140.79 -54.12 
L 138.53 -56.98 
L 136.27 -59.72 
L 134.00 -62.36 
L 131.74 -64.88 
L 129.47 -67.30 
L 127.21 -69.62 
L 124.94 -71.83 
L 122.68 -73.94 
L 120.41 -75.96 
L 118.15 -77.88 
L 115.88 -79.71 
L 113.62 -81.45 
L 111.35 -83.10 
L 109.09 -84.67 
L 106.83 -86.15 
L 104.56 -87.55 
L 102.30 -88.87 
L 100.03 -90.12 
L 97.77 -91.29 
L 95.50 -92.38 
L 93.24 -93.41 
L 90.97 -94.37 
L 88.71 -95.27 
L 86.44 -96.10 
L 84.18 -96.88 
L 81.92 -97.59 
z
" style="stroke: #2563eb; stroke-opacity: 0.15"/>
 </defs>
 <g>
 <use xlink:href="#mae5f955ef3" x="0" y="177.55" style="fill: #2563eb; fill-opacity: 0.15; stroke: #2563eb; stroke-opacity: 0.15"/>
 </g>
 </g>
 <g>
 <g>
 <g>
 <path d="M 81.92 145.8 
L 81.92 7.2 
" style="fill: none; stroke: #e5e7eb; stroke-opacity: 0.6; stroke-width: 0.5; stroke-linecap: square"/>
 </g>
 <g>
 <defs>
 <path d="M 0 0 
L 0 3.5 
" style="stroke: #9ca3af; stroke-width: 0.8"/>
 </defs>
 <g>
 <use xlink:href="#mb8af40e5cf" x="81.92" y="145.8" style="fill: #9ca3af; stroke: #9ca3af; stroke-width: 0.8"/>
 </g>
 </g>
 <g>
 <text style="fill: #9ca3af; font: 7px 'DejaVu Sans', 'Bitstream Vera Sans', 'Computer Modern Sans Serif', 'Lucida Grande', 'Verdana', 'Geneva', 'Lucid', 'Arial', 'Helvetica', 'Avant Garde', sans-serif; text-anchor: middle" x="81.92" y="158.12" transform="rotate(-0 81.92 158.12)">1</text>
 </g>
 </g>
 <g>
 <g>
 <path d="M 137.40 145.8 
L 137.40 7.2 
" style="fill: none; stroke: #e5e7eb; stroke-opacity: 0.6; stroke-width: 0.5; stroke-linecap: square"/>
 </g>
 <g>
 <g>
 <use xlink:href="#mb8af40e5cf" x="137.40" y="145.8" style="fill: #9ca3af; stroke: #9ca3af; stroke-width: 0.8"/>
 </g>
 </g>
 <g>
 <text style="fill: #9ca3af; font: 7px 'DejaVu Sans', 'Bitstream Vera Sans', 'Computer Modern Sans Serif', 'Lucida Grande', 'Verdana', 'Geneva', 'Lucid', 'Arial', 'Helvetica', 'Avant Garde', sans-serif; text-anchor: middle" x="137.40" y="158.12" transform="rotate(-0 137.40 158.12)">2</text>
 </g>
 </g>
 <g>
 <g>
 <path d="M 192.88 145.8 
L 192.88 7.2 
" style="fill: none; stroke: #e5e7eb; stroke-opacity: 0.6; stroke-width: 0.5; stroke-linecap: square"/>
 </g>
 <g>
 <g>
 <use xlink:href="#mb8af40e5cf" x="192.88" y="145.8" style="fill: #9ca3af; stroke: #9ca3af; stroke-width: 0.8"/>
 </g>
 </g>
 <g>
 <text style="fill: #9ca3af; font: 7px 'DejaVu Sans', 'Bitstream Vera Sans', 'Computer Modern Sans Serif', 'Lucida Grande', 'Verdana', 'Geneva', 'Lucid', 'Arial', 'Helvetica', 'Avant Garde', sans-serif; text-anchor: middle" x="192.88" y="158.12" transform="rotate(-0 192.88 158.12)">3</text>
 </g>
 </g>
 <g>
 <text style="fill: #9ca3af; font: 7px 'DejaVu Sans', 'Bitstream Vera Sans', 'Computer Modern Sans Serif', 'Lucida Grande', 'Verdana', 'Geneva', 'Lucid', 'Arial', 'Helvetica', 'Avant Garde', sans-serif; text-anchor: middle" x="137.40" y="168.89" transform="rotate(-0 137.40 168.89)">x</text>
 </g>
 </g>
 <g>
 <g>
 <g>
 <path d="M 39.75 131.79 
L 235.05 131.79 
" style="fill: none; stroke: #e5e7eb; stroke-opacity: 0.6; stroke-width: 0.5; stroke-linecap: square"/>
 </g>
 <g>
 <defs>
 <path d="M 0 0 
L -3.5 0 
" style="stroke: #9ca3af; stroke-width: 0.8"/>
 </defs>
 <g>
 <use xlink:href="#m4ebb119a2c" x="39.75" y="131.79" style="fill: #9ca3af; stroke: #9ca3af; stroke-width: 0.8"/>
 </g>
 </g>
 <g>
 <text style="fill: #9ca3af; font: 7px 'DejaVu Sans', 'Bitstream Vera Sans', 'Computer Modern Sans Serif', 'Lucida Grande', 'Verdana', 'Geneva', 'Lucid', 'Arial', 'Helvetica', 'Avant Garde', sans-serif; text-anchor: end" x="32.75" y="134.45" transform="rotate(-0 32.75 134.45)">−40</text>
 </g>
 </g>
 <g>
 <g>
 <path d="M 39.75 103.77 
L 235.05 103.77 
" style="fill: none; stroke: #e5e7eb; stroke-opacity: 0.6; stroke-width: 0.5; stroke-linecap: square"/>
 </g>
 <g>
 <g>
 <use xlink:href="#m4ebb119a2c" x="39.75" y="103.77" style="fill: #9ca3af; stroke: #9ca3af; stroke-width: 0.8"/>
 </g>
 </g>
 <g>
 <text style="fill: #9ca3af; font: 7px 'DejaVu Sans', 'Bitstream Vera Sans', 'Computer Modern Sans Serif', 'Lucida Grande', 'Verdana', 'Geneva', 'Lucid', 'Arial', 'Helvetica', 'Avant Garde', sans-serif; text-anchor: end" x="32.75" y="106.43" transform="rotate(-0 32.75 106.43)">−20</text>
 </g>
 </g>
 <g>
 <g>
 <path d="M 39.75 75.75 
L 235.05 75.75 
" style="fill: none; stroke: #e5e7eb; stroke-opacity: 0.6; stroke-width: 0.5; stroke-linecap: square"/>
 </g>
 <g>
 <g>
 <use xlink:href="#m4ebb119a2c" x="39.75" y="75.75" style="fill: #9ca3af; stroke: #9ca3af; stroke-width: 0.8"/>
 </g>
 </g>
 <g>
 <text style="fill: #9ca3af; font: 7px 'DejaVu Sans', 'Bitstream Vera Sans', 'Computer Modern Sans Serif', 'Lucida Grande', 'Verdana', 'Geneva', 'Lucid', 'Arial', 'Helvetica', 'Avant Garde', sans-serif; text-anchor: end" x="32.75" y="78.41" transform="rotate(-0 32.75 78.41)">0</text>
 </g>
 </g>
 <g>
 <g>
 <path d="M 39.75 47.74 
L 235.05 47.74 
" style="fill: none; stroke: #e5e7eb; stroke-opacity: 0.6; stroke-width: 0.5; stroke-linecap: square"/>
 </g>
 <g>
 <g>
 <use xlink:href="#m4ebb119a2c" x="39.75" y="47.74" style="fill: #9ca3af; stroke: #9ca3af; stroke-width: 0.8"/>
 </g>
 </g>
 <g>
 <text style="fill: #9ca3af; font: 7px 'DejaVu Sans', 'Bitstream Vera Sans', 'Computer Modern Sans Serif', 'Lucida Grande', 'Verdana', 'Geneva', 'Lucid', 'Arial', 'Helvetica', 'Avant Garde', sans-serif; text-anchor: end" x="32.75" y="50.40" transform="rotate(-0 32.75 50.40)">20</text>
 </g>
 </g>
 <g>
 <g>
 <path d="M 39.75 19.72 
L 235.05 19.72 
" style="fill: none; stroke: #e5e7eb; stroke-opacity: 0.6; stroke-width: 0.5; stroke-linecap: square"/>
 </g>
 <g>
 <g>
 <use xlink:href="#m4ebb119a2c" x="39.75" y="19.72" style="fill: #9ca3af; stroke: #9ca3af; stroke-width: 0.8"/>
 </g>
 </g>
 <g>
 <text style="fill: #9ca3af; font: 7px 'DejaVu Sans', 'Bitstream Vera Sans', 'Computer Modern Sans Serif', 'Lucida Grande', 'Verdana', 'Geneva', 'Lucid', 'Arial', 'Helvetica', 'Avant Garde', sans-serif; text-anchor: end" x="32.75" y="22.38" transform="rotate(-0 32.75 22.38)">40</text>
 </g>
 </g>
 <g>
 <text style="fill: #9ca3af; font: 7px 'DejaVu Sans', 'Bitstream Vera Sans', 'Computer Modern Sans Serif', 'Lucida Grande', 'Verdana', 'Geneva', 'Lucid', 'Arial', 'Helvetica', 'Avant Garde', sans-serif; text-anchor: middle" x="12.52" y="76.5" transform="rotate(-90 12.52 76.5)">y</text>
 </g>
 </g>
 <g>
 <path d="M 48.63 74.71 
L 50.87 74.83 
L 53.12 74.98 
L 55.37 75.15 
L 57.61 75.35 
L 59.86 75.58 
L 62.11 75.84 
L 64.36 76.14 
L 66.60 76.48 
L 68.85 76.86 
L 71.10 77.28 
L 73.35 77.74 
L 75.59 78.25 
L 77.84 78.81 
L 80.09 79.42 
L 82.34 80.09 
L 84.58 80.81 
L 86.83 81.58 
L 89.08 82.42 
L 91.33 83.32 
L 93.57 84.28 
L 95.82 85.32 
L 98.07 86.42 
L 100.32 87.59 
L 102.56 88.83 
L 104.81 90.15 
L 107.06 91.55 
L 109.31 93.03 
L 111.55 94.59 
L 113.80 96.23 
L 116.05 97.97 
L 118.29 99.79 
L 120.54 101.70 
L 122.79 103.71 
L 125.04 105.81 
L 127.28 108.01 
L 129.53 110.31 
L 131.78 112.71 
L 134.03 115.22 
L 136.27 117.83 
L 138.52 120.56 
L 140.77 123.39 
L 143.02 126.34 
L 145.26 129.41 
L 147.51 132.59 
L 149.76 135.89 
L 152.01 139.32 
L 154.25 142.87 
L 156.50 146.55 
L 158.75 150.36 
L 161.00 154.30 
L 163.24 158.37 
L 165.49 162.58 
L 167.74 166.92 
L 169.99 171.41 
L 172.23 176.04 
L 173.41 178.55 
" style="fill: none; stroke: #2563eb; stroke-width: 1.5; stroke-linecap: square"/>
 </g>
 <g>
 <path d="M 39.75 75.75 
L 235.05 75.75 
" style="fill: none; stroke: #9ca3af; stroke-width: 0.6; stroke-linecap: square"/>
 </g>
 <g>
 <path d="M 81.92 145.8 
L 81.92 7.2 
" style="fill: none; stroke-dasharray: 0.6,0.99; stroke-dashoffset: 0; stroke: #6b7280; stroke-width: 0.6"/>
 </g>
 <g>
 <path d="M 192.88 145.8 
L 192.88 7.2 
" style="fill: none; stroke-dasharray: 0.6,0.99; stroke-dashoffset: 0; stroke: #6b7280; stroke-width: 0.6"/>
 </g>
 <g>
 <path d="M 39.75 145.8 
L 39.75 7.2 
" style="fill: none; stroke: #9ca3af; stroke-width: 0.6; stroke-linejoin: miter; stroke-linecap: square"/>
 </g>
 <g>
 <path d="M 235.05 145.8 
L 235.05 7.2 
" style="fill: none; stroke: #9ca3af; stroke-width: 0.6; stroke-linejoin: miter; stroke-linecap: square"/>
 </g>
 <g>
 <path d="M 39.75 145.8 
L 235.05 145.8 
" style="fill: none; stroke: #9ca3af; stroke-width: 0.6; stroke-linejoin: miter; stroke-linecap: square"/>
 </g>
 <g>
 <path d="M 39.75 7.2 
L 235.05 7.2 
" style="fill: none; stroke: #9ca3af; stroke-width: 0.6; stroke-linejoin: miter; stroke-linecap: square"/>
 </g>
 </g>
 </g>
 <defs>
 </defs>
</svg>