<?xml version="1.0" encoding="utf-8" standalone="no"?>
<!DOCTYPE svg PUBLIC "-//W3C//DTD SVG 1.1//EN"
 "http://www.w3.org/Graphics/SVG/1.1/DTD/svg11.dtd">
<svg xmlns:xlink="http://www.w3.org/1999/xlink" width="242.25pt" height="177.55pt" viewBox="0 0 242.25 177.55" xmlns="http://www.w3.org/2000/svg" version="1.1">
 <g>
 <g>
 <path d="M 0 177.55 
L 242.25 177.55 
L 242.25 0 
L 0 0 
L 0 177.55 
z
" style="fill: none"/>
 </g>
 <g>
 <g>
 <path d="M 39.75 145.8 
L 235.05 145.8 
L 235.05 7.2 
L 39.75 7.2 
L 39.75 145.8 
z
" style="fill: none"/>
 </g>
 <g>
 <defs>
 <path d="M 81.92 -123.32 
L 81.92 -125.19 
L 84.18 -125.19 
L 86.44 -125.19 
L 88.71 -125.19 
L 90.97 -125.19 
L 93.24 -125.19 
L 95.50 -125.19 
L 97.77 -125.19 
L 100.03 -125.19 
L 102.30 -125.19 
L 104.56 -125.19 
L 106.83 -125.19 
L 109.09 -125.19 
L 111.35 -125.19 
L 113.62 -125.19 
L 115.88 -125.19 
L 118.15 -125.19 
L 120.41 -125.19 
L 122.68 -125.19 
L 124.94 -125.19 
L 127.21 -125.19 
L 129.47 -125.19 
L 131.74 -125.19 
L 134.00 -125.19 
L 136.27 -125.19 
L 138.53 -125.19 
L 140.79 -125.19 
L 143.06 -125.19 
L 145.32 -125.19 
L 147.59 -125.19 
L 149.85 -125.19 
L 152.12 -125.19 
L 154.38 -125.19 
L 156.65 -125.19 
L 158.91 -125.19 
L 161.18 -125.19 
L 163.44 -125.19 
L 165.71 -125.19 
L 167.97 -125.19 
L 170.23 -125.19 
L 172.50 -125.19 
L 174.76 -125.19 
L 177.03 -125.19 
L 179.29 -125.19 
L 181.56 -125.19 
L 183.82 -125.19 
L 186.09 -125.19 
L 188.35 -125.19 
L 190.62 -125.19 
L 192.88 -125.19 
L 192.88 -70.99 
L 192.88 -70.99 
L 190.62 -75.00 
L 188.35 -78.79 
L 186.09 -82.37 
L 183.82 -85.74 
L 181.56 -88.91 
L 179.29 -91.89 
L 177.03 -94.68 
L 174.76 -97.29 
L 172.50 -99.73 
L 170.23 -101.99 
L 167.97 -104.09 
L 165.71 -106.04 
L 163.44 -107.83 
L 161.18 -109.48 
L 158.91 -110.99 
L 156.65 -112.37 
L 154.38 -113.62 
L 152.12 -114.75 
L 149.85 -115.77 
L 147.59 -116.67 
L 145.32 -117.48 
L 143.06 -118.19 
L 140.79 -118.81 
L 138.53 -119.35 
L 136.27 -119.80 
L 134.00 -120.19 
L 131.74 -120.51 
L 129.47 -120.77 
L 127.21 -120.98 
L 124.94 -121.14 
L 122.68 -121.26 
L 120.41 -121.34 
L 118.15 -121.40 
L 115.88 -121.43 
L 113.62 -121.45 
L 111.35 -121.45 
L 109.09 -121.45 
L 106.83 -121.45 
L 104.56 -121.46 
L 102.30 -121.49 
L 100.03 -121.53 
L 97.77 -121.60 
L 95.50 -121.70 
L 93.24 -121.84 
L 90.97 -122.02 
L 88.71 -122.26 
L 86.44 -122.55 
L 84.18 -122.90 
L 81.92 -123.32 
z
" style="stroke: #2563eb; stroke-opacity: 0.15"/>
 </defs>
 <g>
 <use xlink:href="#m3f7b0a7fac" x="0" y="177.55" style="fill: #2563eb; fill-opacity: 0.15; stroke: #2563eb; stroke-opacity: 0.15"/>
 </g>
 </g>
 <g>
 <g>
 <g>
 <path d="M 54.17 145.8 
L 54.17 7.2 
" style="fill: none; stroke: #e5e7eb; stroke-opacity: 0.6; stroke-width: 0.5; stroke-linecap: square"/>
 </g>
 <g>
 <defs>
 <path d="M 0 0 
L 0 3.5 
" style="stroke: #9ca3af; stroke-width: 0.8"/>
 </defs>
 <g>
 <use xlink:href="#m448392d723" x="54.17" y="145.8" style="fill: #9ca3af; stroke: #9ca3af; stroke-width: 0.8"/>
 </g>
 </g>
 <g>
 <text style="fill: #9ca3af; font: 7px 'DejaVu Sans', 'Bitstream Vera Sans', 'Computer Modern Sans Serif', 'Lucida Grande', 'Verdana', 'Geneva', 'Lucid', 'Arial', 'Helvetica', 'Avant Garde', sans-serif; text-anchor: middle" x="54.17" y="158.12" transform="rotate(-0 54.17 158.12)">−2</text>
 </g>
 </g>
 <g>
 <g>
 <path d="M 109.66 145.8 
L 109.66 7.2 
" style="fill: none; stroke: #e5e7eb; stroke-opacity: 0.6; stroke-width: 0.5; stroke-linecap: square"/>
 </g>
 <g>
 <g>
 <use xlink:href="#m448392d723" x="109.66" y="145.8" style="fill: #9ca3af; stroke: #9ca3af; stroke-width: 0.8"/>
 </g>
 </g>
 <g>
 <text style="fill: #9ca3af; font: 7px 'DejaVu Sans', 'Bitstream Vera Sans', 'Computer Modern Sans Serif', 'Lucida Grande', 'Verdana', 'Geneva', 'Lucid', 'Arial', 'Helvetica', 'Avant Garde', sans-serif; text-anchor: middle" x="109.66" y="158.12" transform="rotate(-0 109.66 158.12)">0</text>
 </g>
 </g>
 <g>
 <g>
 <path d="M 165.14 145.8 
L 165.14 7.2 
" style="fill: none; stroke: #e5e7eb; stroke-opacity: 0.6; stroke-width: 0.5; stroke-linecap: square"/>
 </g>
 <g>
 <g>
 <use xlink:href="#m448392d723" x="165.14" y="145.8" style="fill: #9ca3af; stroke: #9ca3af; stroke-width: 0.8"/>
 </g>
 </g>
 <g>
 <text style="fill: #9ca3af; font: 7px 'DejaVu Sans', 'Bitstream Vera Sans', 'Computer Modern Sans Serif', 'Lucida Grande', 'Verdana', 'Geneva', 'Lucid', 'Arial', 'Helvetica', 'Avant Garde', sans-serif; text-anchor: middle" x="165.14" y="158.12" transform="rotate(-0 165.14 158.12)">2</text>
 </g>
 </g>
 <g>
 <g>
 <path d="M 220.62 145.8 
L 220.62 7.2 
" style="fill: none; stroke: #e5e7eb; stroke-opacity: 0.6; stroke-width: 0.5; stroke-linecap: square"/>
 </g>
 <g>
 <g>
 <use xlink:href="#m448392d723" x="220.62" y="145.8" style="fill: #9ca3af; stroke: #9ca3af; stroke-width: 0.8"/>
 </g>
 </g>
 <g>
 <text style="fill: #9ca3af; font: 7px 'DejaVu Sans', 'Bitstream Vera Sans', 'Computer Modern Sans Serif', 'Lucida Grande', 'Verdana', 'Geneva', 'Lucid', 'Arial', 'Helvetica', 'Avant Garde', sans-serif; text-anchor: middle" x="220.62" y="158.12" transform="rotate(-0 220.62 158.12)">4</text>
 </g>
 </g>
 <g>
 <text style="fill: #9ca3af; font: 7px 'DejaVu Sans', 'Bitstream Vera Sans', 'Computer Modern Sans Serif', 'Lucida Grande', 'Verdana', 'Geneva', 'Lucid', 'Arial', 'Helvetica', 'Avant Garde', sans-serif; text-anchor: middle" x="137.40" y="168.89" transform="rotate(-0 137.40 168.89)">x</text>
 </g>
 </g>
 <g>
 <g>
 <g>
 <path d="M 39.75 127.11 
L 235.05 127.11 
" style="fill: none; stroke: #e5e7eb; stroke-opacity: 0.6; stroke-width: 0.5; stroke-linecap: square"/>
 </g>
 <g>
 <defs>
 <path d="M 0 0 
L -3.5 0 
" style="stroke: #9ca3af; stroke-width: 0.8"/>
 </defs>
 <g>
 <use xlink:href="#m6900703df6" x="39.75" y="127.11" style="fill: #9ca3af; stroke: #9ca3af; stroke-width: 0.8"/>
 </g>
 </g>
 <g>
 <text style="fill: #9ca3af; font: 7px 'DejaVu Sans', 'Bitstream Vera Sans', 'Computer Modern Sans Serif', 'Lucida Grande', 'Verdana', 'Geneva', 'Lucid', 'Arial', 'Helvetica', 'Avant Garde', sans-serif; text-anchor: end" x="32.75" y="129.77" transform="rotate(-0 32.75 129.77)">−40</text>
 </g>
 </g>
 <g>
 <g>
 <path d="M 39.75 89.74 
L 235.05 89.74 
" style="fill: none; stroke: #e5e7eb; stroke-opacity: 0.6; stroke-width: 0.5; stroke-linecap: square"/>
 </g>
 <g>
 <g>
 <use xlink:href="#m6900703df6" x="39.75" y="89.74" style="fill: #9ca3af; stroke: #9ca3af; stroke-width: 0.8"/>
 </g>
 </g>
 <g>
 <text style="fill: #9ca3af; font: 7px 'DejaVu Sans', 'Bitstream Vera Sans', 'Computer Modern Sans Serif', 'Lucida Grande', 'Verdana', 'Geneva', 'Lucid', 'Arial', 'Helvetica', 'Avant Garde', sans-serif; text-anchor: end" x="32.75" y="92.40" transform="rotate(-0 32.75 92.40)">−20</text>
 </g>
 </g>
 <g>
 <g>
 <path d="M 39.75 52.36 
L 235.05 52.36 
" style="fill: none; stroke: #e5e7eb; stroke-opacity: 0.6; stroke-width: 0.5; stroke-linecap: square"/>
 </g>
 <g>
 <g>
 <use xlink:href="#m6900703df6" x="39.75" y="52.36" style="fill: #9ca3af; stroke: #9ca3af; stroke-width: 0.8"/>
 </g>
 </g>
 <g>
 <text style="fill: #9ca3af; font: 7px 'DejaVu Sans', 'Bitstream Vera Sans', 'Computer Modern Sans Serif', 'Lucida Grande', 'Verdana', 'Geneva', 'Lucid', 'Arial', 'Helvetica', 'Avant Garde', sans-serif; text-anchor: end" x="32.75" y="55.02" transform="rotate(-0 32.75 55.02)">0</text>
 </g>
 </g>
 <g>
 <g>
 <path d="M 39.75 14.98 
L 235.05 14.98 
" style="fill: none; stroke: #e5e7eb; stroke-opacity: 0.6; stroke-width: 0.5; stroke-linecap: square"/>
 </g>
 <g>
 <g>
 <use xlink:href="#m6900703df6" x="39.75" y="14.98" style="fill: #9ca3af; stroke: #9ca3af; stroke-width: 0.8"/>
 </g>
 </g>
 <g>
 <text style="fill: #9ca3af; font: 7px 'DejaVu Sans', 'Bitstream Vera Sans', 'Computer Modern Sans Serif', 'Lucida Grande', 'Verdana', 'Geneva', 'Lucid', 'Arial', 'Helvetica', 'Avant Garde', sans-serif; text-anchor: end" x="32.75" y="17.64" transform="rotate(-0 32.75 17.64)">20</text>
 </g>
 </g>
 <g>
 <text style="fill: #9ca3af; font: 7px 'DejaVu Sans', 'Bitstream Vera Sans', 'Computer Modern Sans Serif', 'Lucida Grande', 'Verdana', 'Geneva', 'Lucid', 'Arial', 'Helvetica', 'Avant Garde', sans-serif; text-anchor: middle" x="12.52" y="76.5" transform="rotate(-90 12.52 76.5)">y</text>
 </g>
 </g>
 <g>
 <path d="M 48.63 36.20 
L 50.87 38.32 
L 53.12 40.28 
L 55.37 42.09 
L 57.61 43.76 
L 59.86 45.29 
L 62.11 46.69 
L 64.36 47.96 
L 66.60 49.11 
L 68.85 50.15 
L 71.10 51.08 
L 73.35 51.91 
L 75.59 52.64 
L 77.84 53.28 
L 80.09 53.83 
L 82.34 54.31 
L 84.58 54.72 
L 86.83 55.06 
L 89.08 55.33 
L 91.33 55.56 
L 93.57 55.73 
L 95.82 55.87 
L 98.07 55.96 
L 100.32 56.03 
L 102.56 56.07 
L 104.81 56.09 
L 107.06 56.10 
L 109.31 56.10 
L 111.55 56.10 
L 113.80 56.10 
L 116.05 56.12 
L 118.29 56.15 
L 120.54 56.21 
L 122.79 56.30 
L 125.04 56.42 
L 127.28 56.58 
L 129.53 56.78 
L 131.78 57.04 
L 134.03 57.36 
L 136.27 57.75 
L 138.52 58.20 
L 140.77 58.73 
L 143.02 59.35 
L 145.26 60.05 
L 147.51 60.85 
L 149.76 61.74 
L 152.01 62.75 
L 154.25 63.86 
L 156.50 65.10 
L 158.75 66.45 
L 161.00 67.94 
L 163.24 69.57 
L 165.49 71.33 
L 167.74 73.25 
L 169.99 75.32 
L 172.23 77.55 
L 174.48 79.94 
L 176.73 82.51 
L 178.98 85.25 
L 181.22 88.18 
L 183.47 91.30 
L 185.72 94.61 
L 187.96 98.13 
L 190.21 101.85 
L 192.46 105.79 
L 194.71 109.95 
L 196.95 114.33 
L 199.20 118.95 
L 201.45 123.80 
L 203.70 128.89 
L 205.94 134.24 
L 208.19 139.84 
L 210.44 145.70 
L 212.69 151.83 
L 214.93 158.23 
L 217.18 164.91 
L 219.43 171.88 
L 221.49 178.55 
" style="fill: none; stroke: #2563eb; stroke-width: 1.5; stroke-linecap: square"/>
 </g>
 <g>
 <path d="M 39.75 52.36 
L 235.05 52.36 
" style="fill: none; stroke: #9ca3af; stroke-width: 0.6; stroke-linecap: square"/>
 </g>
 <g>
 <path d="M 81.92 145.8 
L 81.92 7.2 
" style="fill: none; stroke-dasharray: 0.6,0.99; stroke-dashoffset: 0; stroke: #6b7280; stroke-width: 0.6"/>
 </g>
 <g>
 <path d="M 192.88 145.8 
L 192.88 7.2 
" style="fill: none; stroke-dasharray: 0.6,0.99; stroke-dashoffset: 0; stroke: #6b7280; stroke-width: 0.6"/>
 </g>
 <g>
 <path d="M 39.75 145.8 
L 39.75 7.2 
" style="fill: none; stroke: #9ca3af; stroke-width: 0.6; stroke-linejoin: miter; stroke-linecap: square"/>
 </g>
 <g>
 <path d="M 235.05 145.8 
L 235.05 7.2 
" style="fill: none; stroke: #9ca3af; stroke-width: 0.6; stroke-linejoin: miter; stroke-linecap: square"/>
 </g>
 <g>
 <path d="M 39.75 145.8 
L 235.05 145.8 
" style="fill: none; stroke: #9ca3af; stroke-width: 0.6; stroke-linejoin: miter; stroke-linecap: square"/>
 </g>
 <g>
 <path d="M 39.75 7.2 
L 235.05 7.2 
" style="fill: none; stroke: #9ca3af; stroke-width: 0.6; stroke-linejoin: miter; stroke-linecap: square"/>
 </g>
 </g>
 </g>
 <defs>
 </defs>
</svg>