<?xml version="1.0" encoding="utf-8" standalone="no"?>
<!DOCTYPE svg PUBLIC "-//W3C//DTD SVG 1.1//EN"
 "http://www.w3.org/Graphics/SVG/1.1/DTD/svg11.dtd">
<svg xmlns:xlink="http://www.w3.org/1999/xlink" width="238.61pt" height="177.55pt" viewBox="0 0 238.61 177.55" xmlns="http://www.w3.org/2000/svg" version="1.1">
 <g>
 <g>
 <path d="M 0 177.55 
L 238.61 177.55 
L 238.61 0 
L 0 0 
L 0 177.55 
z
" style="fill: none"/>
 </g>
 <g>
 <g>
 <path d="M 36.11 145.8 
L 231.41 145.8 
L 231.41 7.2 
L 36.11 7.2 
L 36.11 145.8 
z
" style="fill: none"/>
 </g>
 <g>
 <defs>
 <path d="M 78.27 -102.23 
L 78.27 -42.22 
L 80.54 -42.22 
L 82.80 -42.22 
L 85.07 -42.22 
L 87.33 -42.22 
L 89.60 -42.22 
L 91.86 -42.22 
L 94.13 -42.22 
L 96.39 -42.22 
L 98.66 -42.22 
L 100.92 -42.22 
L 103.18 -42.22 
L 105.45 -42.22 
L 107.71 -42.22 
L 109.98 -42.22 
L 112.24 -42.22 
L 114.51 -42.22 
L 116.77 -42.22 
L 119.04 -42.22 
L 121.30 -42.22 
L 123.57 -42.22 
L 125.83 -42.22 
L 128.10 -42.22 
L 130.36 -42.22 
L 132.62 -42.22 
L 134.89 -42.22 
L 137.15 -42.22 
L 139.42 -42.22 
L 141.68 -42.22 
L 143.95 -42.22 
L 146.21 -42.22 
L 148.48 -42.22 
L 150.74 -42.22 
L 153.01 -42.22 
L 155.27 -42.22 
L 157.54 -42.22 
L 159.80 -42.22 
L 162.06 -42.22 
L 164.33 -42.22 
L 166.59 -42.22 
L 168.86 -42.22 
L 171.12 -42.22 
L 173.39 -42.22 
L 175.65 -42.22 
L 177.92 -42.22 
L 180.18 -42.22 
L 182.45 -42.22 
L 184.71 -42.22 
L 186.98 -42.22 
L 189.24 -42.22 
L 189.24 -102.23 
L 189.24 -102.23 
L 186.98 -102.96 
L 184.71 -103.66 
L 182.45 -104.33 
L 180.18 -104.97 
L 177.92 -105.59 
L 175.65 -106.17 
L 173.39 -106.73 
L 171.12 -107.25 
L 168.86 -107.75 
L 166.59 -108.22 
L 164.33 -108.65 
L 162.06 -109.06 
L 159.80 -109.43 
L 157.54 -109.78 
L 155.27 -110.09 
L 153.01 -110.38 
L 150.74 -110.63 
L 148.48 -110.85 
L 146.21 -111.04 
L 143.95 -111.20 
L 141.68 -111.32 
L 139.42 -111.42 
L 137.15 -111.48 
L 134.89 -111.51 
L 132.62 -111.51 
L 130.36 -111.48 
L 128.10 -111.42 
L 125.83 -111.32 
L 123.57 -111.20 
L 121.30 -111.04 
L 119.04 -110.85 
L 116.77 -110.63 
L 114.51 -110.38 
L 112.24 -110.09 
L 109.98 -109.78 
L 107.71 -109.43 
L 105.45 -109.06 
L 103.18 -108.65 
L 100.92 -108.22 
L 98.66 -107.75 
L 96.39 -107.25 
L 94.13 -106.73 
L 91.86 -106.17 
L 89.60 -105.59 
L 87.33 -104.97 
L 85.07 -104.33 
L 82.80 -103.66 
L 80.54 -102.96 
L 78.27 -102.23 
z
" style="stroke: #2563eb; stroke-opacity: 0.15"/>
 </defs>
 <g>
 <use xlink:href="#m6d1b293833" x="0" y="177.55" style="fill: #2563eb; fill-opacity: 0.15; stroke: #2563eb; stroke-opacity: 0.15"/>
 </g>
 </g>
 <g>
 <g>
 <g>
 <path d="M 73.27 145.8 
L 73.27 7.2 
" style="fill: none; stroke: #e5e7eb; stroke-opacity: 0.6; stroke-width: 0.5; stroke-linecap: square"/>
 </g>
 <g>
 <defs>
 <path d="M 0 0 
L 0 3.5 
" style="stroke: #9ca3af; stroke-width: 0.8"/>
 </defs>
 <g>
 <use xlink:href="#m2d02256f4f" x="73.27" y="145.8" style="fill: #9ca3af; stroke: #9ca3af; stroke-width: 0.8"/>
 </g>
 </g>
 <g>
 <text style="fill: #9ca3af; font: 7px 'DejaVu Sans', 'Bitstream Vera Sans', 'Computer Modern Sans Serif', 'Lucida Grande', 'Verdana', 'Geneva', 'Lucid', 'Arial', 'Helvetica', 'Avant Garde', sans-serif; text-anchor: middle" x="73.27" y="158.12" transform="rotate(-0 73.27 158.12)">1.0</text>
 </g>
 </g>
 <g>
 <g>
 <path d="M 126.25 145.8 
L 126.25 7.2 
" style="fill: none; stroke: #e5e7eb; stroke-opacity: 0.6; stroke-width: 0.5; stroke-linecap: square"/>
 </g>
 <g>
 <g>
 <use xlink:href="#m2d02256f4f" x="126.25" y="145.8" style="fill: #9ca3af; stroke: #9ca3af; stroke-width: 0.8"/>
 </g>
 </g>
 <g>
 <text style="fill: #9ca3af; font: 7px 'DejaVu Sans', 'Bitstream Vera Sans', 'Computer Modern Sans Serif', 'Lucida Grande', 'Verdana', 'Geneva', 'Lucid', 'Arial', 'Helvetica', 'Avant Garde', sans-serif; text-anchor: middle" x="126.25" y="158.12" transform="rotate(-0 126.25 158.12)">1.5</text>
 </g>
 </g>
 <g>
 <g>
 <path d="M 179.24 145.8 
L 179.24 7.2 
" style="fill: none; stroke: #e5e7eb; stroke-opacity: 0.6; stroke-width: 0.5; stroke-linecap: square"/>
 </g>
 <g>
 <g>
 <use xlink:href="#m2d02256f4f" x="179.24" y="145.8" style="fill: #9ca3af; stroke: #9ca3af; stroke-width: 0.8"/>
 </g>
 </g>
 <g>
 <text style="fill: #9ca3af; font: 7px 'DejaVu Sans', 'Bitstream Vera Sans', 'Computer Modern Sans Serif', 'Lucida Grande', 'Verdana', 'Geneva', 'Lucid', 'Arial', 'Helvetica', 'Avant Garde', sans-serif; text-anchor: middle" x="179.24" y="158.12" transform="rotate(-0 179.24 158.12)">2.0</text>
 </g>
 </g>
 <g>
 <text style="fill: #9ca3af; font: 7px 'DejaVu Sans', 'Bitstream Vera Sans', 'Computer Modern Sans Serif', 'Lucida Grande', 'Verdana', 'Geneva', 'Lucid', 'Arial', 'Helvetica', 'Avant Garde', sans-serif; text-anchor: middle" x="133.76" y="168.89" transform="rotate(-0 133.76 168.89)">x</text>
 </g>
 </g>
 <g>
 <g>
 <g>
 <path d="M 36.11 135.33 
L 231.41 135.33 
" style="fill: none; stroke: #e5e7eb; stroke-opacity: 0.6; stroke-width: 0.5; stroke-linecap: square"/>
 </g>
 <g>
 <defs>
 <path d="M 0 0 
L -3.5 0 
" style="stroke: #9ca3af; stroke-width: 0.8"/>
 </defs>
 <g>
 <use xlink:href="#mac60f493f8" x="36.11" y="135.33" style="fill: #9ca3af; stroke: #9ca3af; stroke-width: 0.8"/>
 </g>
 </g>
 <g>
 <text style="fill: #9ca3af; font: 7px 'DejaVu Sans', 'Bitstream Vera Sans', 'Computer Modern Sans Serif', 'Lucida Grande', 'Verdana', 'Geneva', 'Lucid', 'Arial', 'Helvetica', 'Avant Garde', sans-serif; text-anchor: end" x="29.11" y="137.99" transform="rotate(-0 29.11 137.99)">0.0</text>
 </g>
 </g>
 <g>
 <g>
 <path d="M 36.11 100.68 
L 231.41 100.68 
" style="fill: none; stroke: #e5e7eb; stroke-opacity: 0.6; stroke-width: 0.5; stroke-linecap: square"/>
 </g>
 <g>
 <g>
 <use xlink:href="#mac60f493f8" x="36.11" y="100.68" style="fill: #9ca3af; stroke: #9ca3af; stroke-width: 0.8"/>
 </g>
 </g>
 <g>
 <text style="fill: #9ca3af; font: 7px 'DejaVu Sans', 'Bitstream Vera Sans', 'Computer Modern Sans Serif', 'Lucida Grande', 'Verdana', 'Geneva', 'Lucid', 'Arial', 'Helvetica', 'Avant Garde', sans-serif; text-anchor: end" x="29.11" y="103.34" transform="rotate(-0 29.11 103.34)">0.5</text>
 </g>
 </g>
 <g>
 <g>
 <path d="M 36.11 66.03 
L 231.41 66.03 
" style="fill: none; stroke: #e5e7eb; stroke-opacity: 0.6; stroke-width: 0.5; stroke-linecap: square"/>
 </g>
 <g>
 <g>
 <use xlink:href="#mac60f493f8" x="36.11" y="66.03" style="fill: #9ca3af; stroke: #9ca3af; stroke-width: 0.8"/>
 </g>
 </g>
 <g>
 <text style="fill: #9ca3af; font: 7px 'DejaVu Sans', 'Bitstream Vera Sans', 'Computer Modern Sans Serif', 'Lucida Grande', 'Verdana', 'Geneva', 'Lucid', 'Arial', 'Helvetica', 'Avant Garde', sans-serif; text-anchor: end" x="29.11" y="68.69" transform="rotate(-0 29.11 68.69)">1.0</text>
 </g>
 </g>
 <g>
 <g>
 <path d="M 36.11 31.38 
L 231.41 31.38 
" style="fill: none; stroke: #e5e7eb; stroke-opacity: 0.6; stroke-width: 0.5; stroke-linecap: square"/>
 </g>
 <g>
 <g>
 <use xlink:href="#mac60f493f8" x="36.11" y="31.38" style="fill: #9ca3af; stroke: #9ca3af; stroke-width: 0.8"/>
 </g>
 </g>
 <g>
 <text style="fill: #9ca3af; font: 7px 'DejaVu Sans', 'Bitstream Vera Sans', 'Computer Modern Sans Serif', 'Lucida Grande', 'Verdana', 'Geneva', 'Lucid', 'Arial', 'Helvetica', 'Avant Garde', sans-serif; text-anchor: end" x="29.11" y="34.04" transform="rotate(-0 29.11 34.04)">1.5</text>
 </g>
 </g>
 <g>
 <text style="fill: #9ca3af; font: 7px 'DejaVu Sans', 'Bitstream Vera Sans', 'Computer Modern Sans Serif', 'Lucida Grande', 'Verdana', 'Geneva', 'Lucid', 'Arial', 'Helvetica', 'Avant Garde', sans-serif; text-anchor: middle" x="12.52" y="76.5" transform="rotate(-90 12.52 76.5)">y</text>
 </g>
 </g>
 <g>
 <path d="M 44.98 88.96 
L 47.23 87.88 
L 49.48 86.82 
L 51.73 85.78 
L 53.97 84.77 
L 56.22 83.77 
L 58.47 82.80 
L 60.72 81.85 
L 62.96 80.93 
L 65.21 80.03 
L 67.46 79.16 
L 69.71 78.31 
L 71.95 77.49 
L 74.20 76.69 
L 76.45 75.92 
L 78.70 75.18 
L 80.94 74.46 
L 83.19 73.77 
L 85.44 73.11 
L 87.68 72.48 
L 89.93 71.88 
L 92.18 71.30 
L 94.43 70.75 
L 96.67 70.23 
L 98.92 69.74 
L 101.17 69.28 
L 103.42 68.85 
L 105.66 68.45 
L 107.91 68.08 
L 110.16 67.74 
L 112.41 67.43 
L 114.65 67.16 
L 116.90 66.91 
L 119.15 66.69 
L 121.40 66.50 
L 123.64 66.35 
L 125.89 66.22 
L 128.14 66.13 
L 130.39 66.07 
L 132.63 66.04 
L 134.88 66.04 
L 137.13 66.07 
L 139.38 66.13 
L 141.62 66.22 
L 143.87 66.35 
L 146.12 66.50 
L 148.37 66.69 
L 150.61 66.91 
L 152.86 67.16 
L 155.11 67.43 
L 157.35 67.74 
L 159.60 68.08 
L 161.85 68.45 
L 164.10 68.85 
L 166.34 69.28 
L 168.59 69.74 
L 170.84 70.23 
L 173.09 70.75 
L 175.33 71.30 
L 177.58 71.88 
L 179.83 72.48 
L 182.08 73.11 
L 184.32 73.77 
L 186.57 74.46 
L 188.82 75.18 
L 191.07 75.92 
L 193.31 76.69 
L 195.56 77.49 
L 197.81 78.31 
L 200.06 79.16 
L 202.30 80.03 
L 204.55 80.93 
L 206.80 81.85 
L 209.05 82.80 
L 211.29 83.77 
L 213.54 84.77 
L 215.79 85.78 
L 218.03 86.82 
L 220.28 87.88 
L 222.53 88.96 
" style="fill: none; stroke: #2563eb; stroke-width: 1.5; stroke-linecap: square"/>
 </g>
 <g>
 <path d="M 36.11 135.33 
L 231.41 135.33 
" style="fill: none; stroke: #9ca3af; stroke-width: 0.6; stroke-linecap: square"/>
 </g>
 <g>
 <path d="M 78.27 145.8 
L 78.27 7.2 
" style="fill: none; stroke-dasharray: 0.6,0.99; stroke-dashoffset: 0; stroke: #6b7280; stroke-width: 0.6"/>
 </g>
 <g>
 <path d="M 189.24 145.8 
L 189.24 7.2 
" style="fill: none; stroke-dasharray: 0.6,0.99; stroke-dashoffset: 0; stroke: #6b7280; stroke-width: 0.6"/>
 </g>
 <g>
 <path d="M 36.11 145.8 
L 36.11 7.2 
" style="fill: none; stroke: #9ca3af; stroke-width: 0.6; stroke-linejoin: miter; stroke-linecap: square"/>
 </g>
 <g>
 <path d="M 231.41 145.8 
L 231.41 7.2 
" style="fill: none; stroke: #9ca3af; stroke-width: 0.6; stroke-linejoin: miter; stroke-linecap: square"/>
 </g>
 <g>
 <path d="M 36.11 145.8 
L 231.41 145.8 
" style="fill: none; stroke: #9ca3af; stroke-width: 0.6; stroke-linejoin: miter; stroke-linecap: square"/>
 </g>
 <g>
 <path d="M 36.11 7.2 
L 231.41 7.2 
" style="fill: none; stroke: #9ca3af; stroke-width: 0.6; stroke-linejoin: miter; stroke-linecap: square"/>
 </g>
 </g>
 </g>
 <defs>
 </defs>
</svg>