<?xml version="1.0" encoding="utf-8" standalone="no"?>
<!DOCTYPE svg PUBLIC "-//W3C//DTD SVG 1.1//EN"
 "http://www.w3.org/Graphics/SVG/1.1/DTD/svg11.dtd">
<svg xmlns:xlink="http://www.w3.org/1999/xlink" width="237.79pt" height="177.55pt" viewBox="0 0 237.79 177.55" xmlns="http://www.w3.org/2000/svg" version="1.1">
 <g>
 <g>
 <path d="M 0 177.55 
L 237.79 177.55 
L 237.79 0 
L 0 0 
L 0 177.55 
z
" style="fill: none"/>
 </g>
 <g>
 <g>
 <path d="M 35.29 145.8 
L 230.59 145.8 
L 230.59 7.2 
L 35.29 7.2 
L 35.29 145.8 
z
" style="fill: none"/>
 </g>
 <g>
 <defs>
 <path d="M 77.46 -144.52 
L 77.46 -79.69 
L 79.73 -79.69 
L 81.99 -79.69 
L 84.26 -79.69 
L 86.52 -79.69 
L 88.78 -79.69 
L 91.05 -79.69 
L 93.31 -79.69 
L 95.58 -79.69 
L 97.84 -79.69 
L 100.11 -79.69 
L 102.37 -79.69 
L 104.64 -79.69 
L 106.90 -79.69 
L 109.17 -79.69 
L 111.43 -79.69 
L 113.70 -79.69 
L 115.96 -79.69 
L 118.22 -79.69 
L 120.49 -79.69 
L 122.75 -79.69 
L 125.02 -79.69 
L 127.28 -79.69 
L 129.55 -79.69 
L 131.81 -79.69 
L 134.08 -79.69 
L 136.34 -79.69 
L 138.61 -79.69 
L 140.87 -79.69 
L 143.13 -79.69 
L 145.40 -79.69 
L 147.66 -79.69 
L 149.93 -79.69 
L 152.19 -79.69 
L 154.46 -79.69 
L 156.72 -79.69 
L 158.99 -79.69 
L 161.25 -79.69 
L 163.52 -79.69 
L 165.78 -79.69 
L 168.05 -79.69 
L 170.31 -79.69 
L 172.57 -79.69 
L 174.84 -79.69 
L 177.10 -79.69 
L 179.37 -79.69 
L 181.63 -79.69 
L 183.90 -79.69 
L 186.16 -79.69 
L 188.43 -79.69 
L 188.43 -79.69 
L 188.43 -79.69 
L 186.16 -81.77 
L 183.90 -83.85 
L 181.63 -85.92 
L 179.37 -87.98 
L 177.10 -90.04 
L 174.84 -92.09 
L 172.57 -94.12 
L 170.31 -96.14 
L 168.05 -98.14 
L 165.78 -100.12 
L 163.52 -102.08 
L 161.25 -104.02 
L 158.99 -105.93 
L 156.72 -107.82 
L 154.46 -109.68 
L 152.19 -111.50 
L 149.93 -113.30 
L 147.66 -115.06 
L 145.40 -116.78 
L 143.13 -118.46 
L 140.87 -120.11 
L 138.61 -121.71 
L 136.34 -123.27 
L 134.08 -124.79 
L 131.81 -126.26 
L 129.55 -127.68 
L 127.28 -129.05 
L 125.02 -130.37 
L 122.75 -131.64 
L 120.49 -132.86 
L 118.22 -134.02 
L 115.96 -135.13 
L 113.70 -136.17 
L 111.43 -137.17 
L 109.17 -138.10 
L 106.90 -138.97 
L 104.64 -139.78 
L 102.37 -140.53 
L 100.11 -141.21 
L 97.84 -141.84 
L 95.58 -142.40 
L 93.31 -142.89 
L 91.05 -143.32 
L 88.78 -143.69 
L 86.52 -143.98 
L 84.26 -144.22 
L 81.99 -144.38 
L 79.73 -144.48 
L 77.46 -144.52 
z
" style="stroke: #2563eb; stroke-opacity: 0.15"/>
 </defs>
 <g>
 <use xlink:href="#mc255da1198" x="0" y="177.55" style="fill: #2563eb; fill-opacity: 0.15; stroke: #2563eb; stroke-opacity: 0.15"/>
 </g>
 </g>
 <g>
 <g>
 <g>
 <path d="M 77.46 145.8 
L 77.46 7.2 
" style="fill: none; stroke: #e5e7eb; stroke-opacity: 0.6; stroke-width: 0.5; stroke-linecap: square"/>
 </g>
 <g>
 <defs>
 <path d="M 0 0 
L 0 3.5 
" style="stroke: #9ca3af; stroke-width: 0.8"/>
 </defs>
 <g>
 <use xlink:href="#m9df403213a" x="77.46" y="145.8" style="fill: #9ca3af; stroke: #9ca3af; stroke-width: 0.8"/>
 </g>
 </g>
 <g>
 <text style="fill: #9ca3af; font: 7px 'DejaVu Sans', 'Bitstream Vera Sans', 'Computer Modern Sans Serif', 'Lucida Grande', 'Verdana', 'Geneva', 'Lucid', 'Arial', 'Helvetica', 'Avant Garde', sans-serif; text-anchor: middle" x="77.46" y="158.12" transform="rotate(-0 77.46 158.12)">0</text>
 </g>
 </g>
 <g>
 <g>
 <path d="M 148.10 145.8 
L 148.10 7.2 
" style="fill: none; stroke: #e5e7eb; stroke-opacity: 0.6; stroke-width: 0.5; stroke-linecap: square"/>
 </g>
 <g>
 <g>
 <use xlink:href="#m9df403213a" x="148.10" y="145.8" style="fill: #9ca3af; stroke: #9ca3af; stroke-width: 0.8"/>
 </g>
 </g>
 <g>
 <text style="fill: #9ca3af; font: 7px 'DejaVu Sans', 'Bitstream Vera Sans', 'Computer Modern Sans Serif', 'Lucida Grande', 'Verdana', 'Geneva', 'Lucid', 'Arial', 'Helvetica', 'Avant Garde', sans-serif; text-anchor: middle" x="148.10" y="158.12" transform="rotate(-0 148.10 158.12)">1</text>
 </g>
 </g>
 <g>
 <g>
 <path d="M 218.75 145.8 
L 218.75 7.2 
" style="fill: none; stroke: #e5e7eb; stroke-opacity: 0.6; stroke-width: 0.5; stroke-linecap: square"/>
 </g>
 <g>
 <g>
 <use xlink:href="#m9df403213a" x="218.75" y="145.8" style="fill: #9ca3af; stroke: #9ca3af; stroke-width: 0.8"/>
 </g>
 </g>
 <g>
 <text style="fill: #9ca3af; font: 7px 'DejaVu Sans', 'Bitstream Vera Sans', 'Computer Modern Sans Serif', 'Lucida Grande', 'Verdana', 'Geneva', 'Lucid', 'Arial', 'Helvetica', 'Avant Garde', sans-serif; text-anchor: middle" x="218.75" y="158.12" transform="rotate(-0 218.75 158.12)">2</text>
 </g>
 </g>
 <g>
 <text style="fill: #9ca3af; font: 7px 'DejaVu Sans', 'Bitstream Vera Sans', 'Computer Modern Sans Serif', 'Lucida Grande', 'Verdana', 'Geneva', 'Lucid', 'Arial', 'Helvetica', 'Avant Garde', sans-serif; text-anchor: middle" x="132.94" y="168.89" transform="rotate(-0 132.94 168.89)">x</text>
 </g>
 </g>
 <g>
 <g>
 <g>
 <path d="M 35.29 130.27 
L 230.59 130.27 
" style="fill: none; stroke: #e5e7eb; stroke-opacity: 0.6; stroke-width: 0.5; stroke-linecap: square"/>
 </g>
 <g>
 <defs>
 <path d="M 0 0 
L -3.5 0 
" style="stroke: #9ca3af; stroke-width: 0.8"/>
 </defs>
 <g>
 <use xlink:href="#m2d8b7fc19a" x="35.29" y="130.27" style="fill: #9ca3af; stroke: #9ca3af; stroke-width: 0.8"/>
 </g>
 </g>
 <g>
 <text style="fill: #9ca3af; font: 7px 'DejaVu Sans', 'Bitstream Vera Sans', 'Computer Modern Sans Serif', 'Lucida Grande', 'Verdana', 'Geneva', 'Lucid', 'Arial', 'Helvetica', 'Avant Garde', sans-serif; text-anchor: end" x="28.29" y="132.93" transform="rotate(-0 28.29 132.93)">−2</text>
 </g>
 </g>
 <g>
 <g>
 <path d="M 35.29 97.86 
L 230.59 97.86 
" style="fill: none; stroke: #e5e7eb; stroke-opacity: 0.6; stroke-width: 0.5; stroke-linecap: square"/>
 </g>
 <g>
 <g>
 <use xlink:href="#m2d8b7fc19a" x="35.29" y="97.86" style="fill: #9ca3af; stroke: #9ca3af; stroke-width: 0.8"/>
 </g>
 </g>
 <g>
 <text style="fill: #9ca3af; font: 7px 'DejaVu Sans', 'Bitstream Vera Sans', 'Computer Modern Sans Serif', 'Lucida Grande', 'Verdana', 'Geneva', 'Lucid', 'Arial', 'Helvetica', 'Avant Garde', sans-serif; text-anchor: end" x="28.29" y="100.51" transform="rotate(-0 28.29 100.51)">0</text>
 </g>
 </g>
 <g>
 <g>
 <path d="M 35.29 65.44 
L 230.59 65.44 
" style="fill: none; stroke: #e5e7eb; stroke-opacity: 0.6; stroke-width: 0.5; stroke-linecap: square"/>
 </g>
 <g>
 <g>
 <use xlink:href="#m2d8b7fc19a" x="35.29" y="65.44" style="fill: #9ca3af; stroke: #9ca3af; stroke-width: 0.8"/>
 </g>
 </g>
 <g>
 <text style="fill: #9ca3af; font: 7px 'DejaVu Sans', 'Bitstream Vera Sans', 'Computer Modern Sans Serif', 'Lucida Grande', 'Verdana', 'Geneva', 'Lucid', 'Arial', 'Helvetica', 'Avant Garde', sans-serif; text-anchor: end" x="28.29" y="68.10" transform="rotate(-0 28.29 68.10)">2</text>
 </g>
 </g>
 <g>
 <g>
 <path d="M 35.29 33.03 
L 230.59 33.03 
" style="fill: none; stroke: #e5e7eb; stroke-opacity: 0.6; stroke-width: 0.5; stroke-linecap: square"/>
 </g>
 <g>
 <g>
 <use xlink:href="#m2d8b7fc19a" x="35.29" y="33.03" style="fill: #9ca3af; stroke: #9ca3af; stroke-width: 0.8"/>
 </g>
 </g>
 <g>
 <text style="fill: #9ca3af; font: 7px 'DejaVu Sans', 'Bitstream Vera Sans', 'Computer Modern Sans Serif', 'Lucida Grande', 'Verdana', 'Geneva', 'Lucid', 'Arial', 'Helvetica', 'Avant Garde', sans-serif; text-anchor: end" x="28.29" y="35.69" transform="rotate(-0 28.29 35.69)">4</text>
 </g>
 </g>
 <g>
 <text style="fill: #9ca3af; font: 7px 'DejaVu Sans', 'Bitstream Vera Sans', 'Computer Modern Sans Serif', 'Lucida Grande', 'Verdana', 'Geneva', 'Lucid', 'Arial', 'Helvetica', 'Avant Garde', sans-serif; text-anchor: middle" x="12.52" y="76.5" transform="rotate(-90 12.52 76.5)">y</text>
 </g>
 </g>
 <g>
 <path d="M 44.17 40.10 
L 46.42 39.19 
L 48.67 38.34 
L 50.91 37.56 
L 53.16 36.83 
L 55.41 36.17 
L 57.66 35.56 
L 59.90 35.02 
L 62.15 34.55 
L 64.40 34.14 
L 66.65 33.79 
L 68.89 33.51 
L 71.14 33.29 
L 73.39 33.14 
L 75.64 33.05 
L 77.88 33.03 
L 80.13 33.08 
L 82.38 33.19 
L 84.62 33.37 
L 86.87 33.61 
L 89.12 33.91 
L 91.37 34.28 
L 93.61 34.72 
L 95.86 35.22 
L 98.11 35.78 
L 100.36 36.41 
L 102.60 37.10 
L 104.85 37.84 
L 107.10 38.65 
L 109.35 39.52 
L 111.59 40.45 
L 113.84 41.44 
L 116.09 42.48 
L 118.34 43.58 
L 120.58 44.74 
L 122.83 45.95 
L 125.08 47.21 
L 127.33 48.52 
L 129.57 49.88 
L 131.82 51.30 
L 134.07 52.75 
L 136.32 54.26 
L 138.56 55.81 
L 140.81 57.40 
L 143.06 59.03 
L 145.30 60.70 
L 147.55 62.41 
L 149.80 64.15 
L 152.05 65.93 
L 154.29 67.74 
L 156.54 69.58 
L 158.79 71.45 
L 161.04 73.35 
L 163.28 75.27 
L 165.53 77.21 
L 167.78 79.18 
L 170.03 81.16 
L 172.27 83.16 
L 174.52 85.18 
L 176.77 87.21 
L 179.02 89.25 
L 181.26 91.29 
L 183.51 93.35 
L 185.76 95.41 
L 188.01 97.47 
L 190.25 99.53 
L 192.50 101.59 
L 194.75 103.65 
L 197.00 105.70 
L 199.24 107.74 
L 201.49 109.77 
L 203.74 111.79 
L 205.99 113.80 
L 208.23 115.79 
L 210.48 117.76 
L 212.73 119.72 
L 214.97 121.65 
L 217.22 123.55 
L 219.47 125.43 
L 221.72 127.28 
" style="fill: none; stroke: #2563eb; stroke-width: 1.5; stroke-linecap: square"/>
 </g>
 <g>
 <path d="M 35.29 97.86 
L 230.59 97.86 
" style="fill: none; stroke: #9ca3af; stroke-width: 0.6; stroke-linecap: square"/>
 </g>
 <g>
 <path d="M 77.46 145.8 
L 77.46 7.2 
" style="fill: none; stroke-dasharray: 0.6,0.99; stroke-dashoffset: 0; stroke: #6b7280; stroke-width: 0.6"/>
 </g>
 <g>
 <path d="M 188.43 145.8 
L 188.43 7.2 
" style="fill: none; stroke-dasharray: 0.6,0.99; stroke-dashoffset: 0; stroke: #6b7280; stroke-width: 0.6"/>
 </g>
 <g>
 <path d="M 35.29 145.8 
L 35.29 7.2 
" style="fill: none; stroke: #9ca3af; stroke-width: 0.6; stroke-linejoin: miter; stroke-linecap: square"/>
 </g>
 <g>
 <path d="M 230.59 145.8 
L 230.59 7.2 
" style="fill: none; stroke: #9ca3af; stroke-width: 0.6; stroke-linejoin: miter; stroke-linecap: square"/>
 </g>
 <g>
 <path d="M 35.29 145.8 
L 230.59 145.8 
" style="fill: none; stroke: #9ca3af; stroke-width: 0.6; stroke-linejoin: miter; stroke-linecap: square"/>
 </g>
 <g>
 <path d="M 35.29 7.2 
L 230.59 7.2 
" style="fill: none; stroke: #9ca3af; stroke-width: 0.6; stroke-linejoin: miter; stroke-linecap: square"/>
 </g>
 </g>
 </g>
 <defs>
 </defs>
</svg>