<?xml version="1.0" encoding="utf-8" standalone="no"?>
<!DOCTYPE svg PUBLIC "-//W3C//DTD SVG 1.1//EN"
 "http://www.w3.org/Graphics/SVG/1.1/DTD/svg11.dtd">
<svg xmlns:xlink="http://www.w3.org/1999/xlink" width="237.79pt" height="177.55pt" viewBox="0 0 237.79 177.55" xmlns="http://www.w3.org/2000/svg" version="1.1">
 <g>
 <g>
 <path d="M 0 177.55 
L 237.79 177.55 
L 237.79 0 
L 0 0 
L 0 177.55 
z
" style="fill: none"/>
 </g>
 <g>
 <g>
 <path d="M 35.29 145.8 
L 230.59 145.8 
L 230.59 7.2 
L 35.29 7.2 
L 35.29 145.8 
z
" style="fill: none"/>
 </g>
 <g>
 <defs>
 <path d="M 77.46 -96.84 
L 77.46 -96.84 
L 79.73 -96.84 
L 81.99 -96.84 
L 84.26 -96.84 
L 86.52 -96.84 
L 88.78 -96.84 
L 91.05 -96.84 
L 93.31 -96.84 
L 95.58 -96.84 
L 97.84 -96.84 
L 100.11 -96.84 
L 102.37 -96.84 
L 104.64 -96.84 
L 106.90 -96.84 
L 109.17 -96.84 
L 111.43 -96.84 
L 113.70 -96.84 
L 115.96 -96.84 
L 118.22 -96.84 
L 120.49 -96.84 
L 122.75 -96.84 
L 125.02 -96.84 
L 127.28 -96.84 
L 129.55 -96.84 
L 131.81 -96.84 
L 134.08 -96.84 
L 136.34 -96.84 
L 138.61 -96.84 
L 140.87 -96.84 
L 143.13 -96.84 
L 145.40 -96.84 
L 147.66 -96.84 
L 149.93 -96.84 
L 152.19 -96.84 
L 154.46 -96.84 
L 156.72 -96.84 
L 158.99 -96.84 
L 161.25 -96.84 
L 163.52 -96.84 
L 165.78 -96.84 
L 168.05 -96.84 
L 170.31 -96.84 
L 172.57 -96.84 
L 174.84 -96.84 
L 177.10 -96.84 
L 179.37 -96.84 
L 181.63 -96.84 
L 183.90 -96.84 
L 186.16 -96.84 
L 188.43 -96.84 
L 188.43 -57.74 
L 188.43 -57.74 
L 186.16 -57.74 
L 183.90 -57.74 
L 181.63 -57.74 
L 179.37 -57.74 
L 177.10 -57.74 
L 174.84 -57.75 
L 172.57 -57.75 
L 170.31 -57.76 
L 168.05 -57.78 
L 165.78 -57.80 
L 163.52 -57.84 
L 161.25 -57.88 
L 158.99 -57.93 
L 156.72 -58.00 
L 154.46 -58.08 
L 152.19 -58.18 
L 149.93 -58.30 
L 147.66 -58.45 
L 145.40 -58.62 
L 143.13 -58.82 
L 140.87 -59.06 
L 138.61 -59.33 
L 136.34 -59.63 
L 134.08 -59.99 
L 131.81 -60.39 
L 129.55 -60.84 
L 127.28 -61.34 
L 125.02 -61.91 
L 122.75 -62.53 
L 120.49 -63.23 
L 118.22 -64.00 
L 115.96 -64.85 
L 113.70 -65.78 
L 111.43 -66.80 
L 109.17 -67.91 
L 106.90 -69.13 
L 104.64 -70.45 
L 102.37 -71.88 
L 100.11 -73.43 
L 97.84 -75.10 
L 95.58 -76.90 
L 93.31 -78.84 
L 91.05 -80.92 
L 88.78 -83.16 
L 86.52 -85.55 
L 84.26 -88.10 
L 81.99 -90.83 
L 79.73 -93.74 
L 77.46 -96.84 
z
" style="stroke: #2563eb; stroke-opacity: 0.15"/>
 </defs>
 <g>
 <use xlink:href="#m8408c81e07" x="0" y="177.55" style="fill: #2563eb; fill-opacity: 0.15; stroke: #2563eb; stroke-opacity: 0.15"/>
 </g>
 </g>
 <g>
 <g>
 <g>
 <path d="M 77.46 145.8 
L 77.46 7.2 
" style="fill: none; stroke: #e5e7eb; stroke-opacity: 0.6; stroke-width: 0.5; stroke-linecap: square"/>
 </g>
 <g>
 <defs>
 <path d="M 0 0 
L 0 3.5 
" style="stroke: #9ca3af; stroke-width: 0.8"/>
 </defs>
 <g>
 <use xlink:href="#m37afd51dcd" x="77.46" y="145.8" style="fill: #9ca3af; stroke: #9ca3af; stroke-width: 0.8"/>
 </g>
 </g>
 <g>
 <text style="fill: #9ca3af; font: 7px 'DejaVu Sans', 'Bitstream Vera Sans', 'Computer Modern Sans Serif', 'Lucida Grande', 'Verdana', 'Geneva', 'Lucid', 'Arial', 'Helvetica', 'Avant Garde', sans-serif; text-anchor: middle" x="77.46" y="158.12" transform="rotate(-0 77.46 158.12)">−1.0</text>
 </g>
 </g>
 <g>
 <g>
 <path d="M 132.94 145.8 
L 132.94 7.2 
" style="fill: none; stroke: #e5e7eb; stroke-opacity: 0.6; stroke-width: 0.5; stroke-linecap: square"/>
 </g>
 <g>
 <g>
 <use xlink:href="#m37afd51dcd" x="132.94" y="145.8" style="fill: #9ca3af; stroke: #9ca3af; stroke-width: 0.8"/>
 </g>
 </g>
 <g>
 <text style="fill: #9ca3af; font: 7px 'DejaVu Sans', 'Bitstream Vera Sans', 'Computer Modern Sans Serif', 'Lucida Grande', 'Verdana', 'Geneva', 'Lucid', 'Arial', 'Helvetica', 'Avant Garde', sans-serif; text-anchor: middle" x="132.94" y="158.12" transform="rotate(-0 132.94 158.12)">−0.5</text>
 </g>
 </g>
 <g>
 <g>
 <path d="M 188.43 145.8 
L 188.43 7.2 
" style="fill: none; stroke: #e5e7eb; stroke-opacity: 0.6; stroke-width: 0.5; stroke-linecap: square"/>
 </g>
 <g>
 <g>
 <use xlink:href="#m37afd51dcd" x="188.43" y="145.8" style="fill: #9ca3af; stroke: #9ca3af; stroke-width: 0.8"/>
 </g>
 </g>
 <g>
 <text style="fill: #9ca3af; font: 7px 'DejaVu Sans', 'Bitstream Vera Sans', 'Computer Modern Sans Serif', 'Lucida Grande', 'Verdana', 'Geneva', 'Lucid', 'Arial', 'Helvetica', 'Avant Garde', sans-serif; text-anchor: middle" x="188.43" y="158.12" transform="rotate(-0 188.43 158.12)">0.0</text>
 </g>
 </g>
 <g>
 <text style="fill: #9ca3af; font: 7px 'DejaVu Sans', 'Bitstream Vera Sans', 'Computer Modern Sans Serif', 'Lucida Grande', 'Verdana', 'Geneva', 'Lucid', 'Arial', 'Helvetica', 'Avant Garde', sans-serif; text-anchor: middle" x="132.94" y="168.89" transform="rotate(-0 132.94 168.89)">x</text>
 </g>
 </g>
 <g>
 <g>
 <g>
 <path d="M 35.29 119.81 
L 230.59 119.81 
" style="fill: none; stroke: #e5e7eb; stroke-opacity: 0.6; stroke-width: 0.5; stroke-linecap: square"/>
 </g>
 <g>
 <defs>
 <path d="M 0 0 
L -3.5 0 
" style="stroke: #9ca3af; stroke-width: 0.8"/>
 </defs>
 <g>
 <use xlink:href="#m4c9324b8d4" x="35.29" y="119.81" style="fill: #9ca3af; stroke: #9ca3af; stroke-width: 0.8"/>
 </g>
 </g>
 <g>
 <text style="fill: #9ca3af; font: 7px 'DejaVu Sans', 'Bitstream Vera Sans', 'Computer Modern Sans Serif', 'Lucida Grande', 'Verdana', 'Geneva', 'Lucid', 'Arial', 'Helvetica', 'Avant Garde', sans-serif; text-anchor: end" x="28.29" y="122.47" transform="rotate(-0 28.29 122.47)">−1</text>
 </g>
 </g>
 <g>
 <g>
 <path d="M 35.29 80.71 
L 230.59 80.71 
" style="fill: none; stroke: #e5e7eb; stroke-opacity: 0.6; stroke-width: 0.5; stroke-linecap: square"/>
 </g>
 <g>
 <g>
 <use xlink:href="#m4c9324b8d4" x="35.29" y="80.71" style="fill: #9ca3af; stroke: #9ca3af; stroke-width: 0.8"/>
 </g>
 </g>
 <g>
 <text style="fill: #9ca3af; font: 7px 'DejaVu Sans', 'Bitstream Vera Sans', 'Computer Modern Sans Serif', 'Lucida Grande', 'Verdana', 'Geneva', 'Lucid', 'Arial', 'Helvetica', 'Avant Garde', sans-serif; text-anchor: end" x="28.29" y="83.37" transform="rotate(-0 28.29 83.37)">0</text>
 </g>
 </g>
 <g>
 <g>
 <path d="M 35.29 41.61 
L 230.59 41.61 
" style="fill: none; stroke: #e5e7eb; stroke-opacity: 0.6; stroke-width: 0.5; stroke-linecap: square"/>
 </g>
 <g>
 <g>
 <use xlink:href="#m4c9324b8d4" x="35.29" y="41.61" style="fill: #9ca3af; stroke: #9ca3af; stroke-width: 0.8"/>
 </g>
 </g>
 <g>
 <text style="fill: #9ca3af; font: 7px 'DejaVu Sans', 'Bitstream Vera Sans', 'Computer Modern Sans Serif', 'Lucida Grande', 'Verdana', 'Geneva', 'Lucid', 'Arial', 'Helvetica', 'Avant Garde', sans-serif; text-anchor: end" x="28.29" y="44.27" transform="rotate(-0 28.29 44.27)">1</text>
 </g>
 </g>
 <g>
 <text style="fill: #9ca3af; font: 7px 'DejaVu Sans', 'Bitstream Vera Sans', 'Computer Modern Sans Serif', 'Lucida Grande', 'Verdana', 'Geneva', 'Lucid', 'Arial', 'Helvetica', 'Avant Garde', sans-serif; text-anchor: middle" x="12.52" y="76.5" transform="rotate(-90 12.52 76.5)">y</text>
 </g>
 </g>
 <g>
 <path d="M 44.17 8.14 
L 46.42 14.94 
L 48.67 21.42 
L 50.91 27.60 
L 53.16 33.48 
L 55.41 39.08 
L 57.66 44.40 
L 59.90 49.45 
L 62.15 54.24 
L 64.40 58.79 
L 66.65 63.09 
L 68.89 67.16 
L 71.14 71.01 
L 73.39 74.65 
L 75.64 78.08 
L 77.88 81.30 
L 80.13 84.34 
L 82.38 87.20 
L 84.62 89.87 
L 86.87 92.38 
L 89.12 94.73 
L 91.37 96.93 
L 93.61 98.97 
L 95.86 100.88 
L 98.11 102.65 
L 100.36 104.30 
L 102.60 105.82 
L 104.85 107.23 
L 107.10 108.53 
L 109.35 109.73 
L 111.59 110.83 
L 113.84 111.83 
L 116.09 112.75 
L 118.34 113.59 
L 120.58 114.35 
L 122.83 115.04 
L 125.08 115.66 
L 127.33 116.22 
L 129.57 116.72 
L 131.82 117.16 
L 134.07 117.56 
L 136.32 117.91 
L 138.56 118.22 
L 140.81 118.49 
L 143.06 118.72 
L 145.30 118.92 
L 147.55 119.09 
L 149.80 119.24 
L 152.05 119.36 
L 154.29 119.46 
L 156.54 119.55 
L 158.79 119.61 
L 161.04 119.67 
L 163.28 119.71 
L 165.53 119.74 
L 167.78 119.77 
L 170.03 119.78 
L 172.27 119.80 
L 174.52 119.80 
L 176.77 119.81 
L 179.02 119.81 
L 181.26 119.81 
L 183.51 119.81 
L 185.76 119.81 
L 188.01 119.81 
L 190.25 119.81 
L 192.50 119.81 
L 194.75 119.81 
L 197.00 119.81 
L 199.24 119.81 
L 201.49 119.81 
L 203.74 119.80 
L 205.99 119.79 
L 208.23 119.77 
L 210.48 119.75 
L 212.73 119.72 
L 214.97 119.68 
L 217.22 119.64 
L 219.47 119.57 
L 221.72 119.50 
" style="fill: none; stroke: #2563eb; stroke-width: 1.5; stroke-linecap: square"/>
 </g>
 <g>
 <path d="M 35.29 80.71 
L 230.59 80.71 
" style="fill: none; stroke: #9ca3af; stroke-width: 0.6; stroke-linecap: square"/>
 </g>
 <g>
 <path d="M 77.46 145.8 
L 77.46 7.2 
" style="fill: none; stroke-dasharray: 0.6,0.99; stroke-dashoffset: 0; stroke: #6b7280; stroke-width: 0.6"/>
 </g>
 <g>
 <path d="M 188.43 145.8 
L 188.43 7.2 
" style="fill: none; stroke-dasharray: 0.6,0.99; stroke-dashoffset: 0; stroke: #6b7280; stroke-width: 0.6"/>
 </g>
 <g>
 <path d="M 35.29 145.8 
L 35.29 7.2 
" style="fill: none; stroke: #9ca3af; stroke-width: 0.6; stroke-linejoin: miter; stroke-linecap: square"/>
 </g>
 <g>
 <path d="M 230.59 145.8 
L 230.59 7.2 
" style="fill: none; stroke: #9ca3af; stroke-width: 0.6; stroke-linejoin: miter; stroke-linecap: square"/>
 </g>
 <g>
 <path d="M 35.29 145.8 
L 230.59 145.8 
" style="fill: none; stroke: #9ca3af; stroke-width: 0.6; stroke-linejoin: miter; stroke-linecap: square"/>
 </g>
 <g>
 <path d="M 35.29 7.2 
L 230.59 7.2 
" style="fill: none; stroke: #9ca3af; stroke-width: 0.6; stroke-linejoin: miter; stroke-linecap: square"/>
 </g>
 </g>
 </g>
 <defs>
 </defs>
</svg>