<?xml version="1.0" encoding="utf-8" standalone="no"?>
<!DOCTYPE svg PUBLIC "-//W3C//DTD SVG 1.1//EN"
 "http://www.w3.org/Graphics/SVG/1.1/DTD/svg11.dtd">
<svg xmlns:xlink="http://www.w3.org/1999/xlink" width="236.38pt" height="177.55pt" viewBox="0 0 236.38 177.55" xmlns="http://www.w3.org/2000/svg" version="1.1">
 <g>
 <g>
 <path d="M 0 177.55 
L 236.38 177.55 
L 236.38 0 
L 0 0 
L 0 177.55 
z
" style="fill: none"/>
 </g>
 <g>
 <g>
 <path d="M 33.88 145.8 
L 229.18 145.8 
L 229.18 7.2 
L 33.88 7.2 
L 33.88 145.8 
z
" style="fill: none"/>
 </g>
 <g>
 <defs>
 <path d="M 76.05 -61.95 
L 76.05 -64.07 
L 78.31 -64.07 
L 80.58 -64.07 
L 82.84 -64.07 
L 85.11 -64.07 
L 87.37 -64.07 
L 89.64 -64.07 
L 91.90 -64.07 
L 94.17 -64.07 
L 96.43 -64.07 
L 98.70 -64.07 
L 100.96 -64.07 
L 103.22 -64.07 
L 105.49 -64.07 
L 107.75 -64.07 
L 110.02 -64.07 
L 112.28 -64.07 
L 114.55 -64.07 
L 116.81 -64.07 
L 119.08 -64.07 
L 121.34 -64.07 
L 123.61 -64.07 
L 125.87 -64.07 
L 128.14 -64.07 
L 130.40 -64.07 
L 132.66 -64.07 
L 134.93 -64.07 
L 137.19 -64.07 
L 139.46 -64.07 
L 141.72 -64.07 
L 143.99 -64.07 
L 146.25 -64.07 
L 148.52 -64.07 
L 150.78 -64.07 
L 153.05 -64.07 
L 155.31 -64.07 
L 157.58 -64.07 
L 159.84 -64.07 
L 162.10 -64.07 
L 164.37 -64.07 
L 166.63 -64.07 
L 168.90 -64.07 
L 171.16 -64.07 
L 173.43 -64.07 
L 175.69 -64.07 
L 177.96 -64.07 
L 180.22 -64.07 
L 182.49 -64.07 
L 184.75 -64.07 
L 187.02 -64.07 
L 187.02 -129.97 
L 187.02 -129.97 
L 184.75 -127.22 
L 182.49 -124.53 
L 180.22 -121.89 
L 177.96 -119.31 
L 175.69 -116.79 
L 173.43 -114.33 
L 171.16 -111.92 
L 168.90 -109.57 
L 166.63 -107.27 
L 164.37 -105.04 
L 162.10 -102.86 
L 159.84 -100.73 
L 157.58 -98.66 
L 155.31 -96.65 
L 153.05 -94.70 
L 150.78 -92.80 
L 148.52 -90.96 
L 146.25 -89.17 
L 143.99 -87.44 
L 141.72 -85.77 
L 139.46 -84.16 
L 137.19 -82.60 
L 134.93 -81.10 
L 132.66 -79.65 
L 130.40 -78.27 
L 128.14 -76.93 
L 125.87 -75.66 
L 123.61 -74.44 
L 121.34 -73.28 
L 119.08 -72.18 
L 116.81 -71.13 
L 114.55 -70.14 
L 112.28 -69.20 
L 110.02 -68.32 
L 107.75 -67.50 
L 105.49 -66.74 
L 103.22 -66.03 
L 100.96 -65.38 
L 98.70 -64.78 
L 96.43 -64.24 
L 94.17 -63.76 
L 91.90 -63.34 
L 89.64 -62.97 
L 87.37 -62.66 
L 85.11 -62.40 
L 82.84 -62.20 
L 80.58 -62.06 
L 78.31 -61.98 
L 76.05 -61.95 
z
" style="stroke: #2563eb; stroke-opacity: 0.15"/>
 </defs>
 <g>
 <use xlink:href="#m4454c671f9" x="0" y="177.55" style="fill: #2563eb; fill-opacity: 0.15; stroke: #2563eb; stroke-opacity: 0.15"/>
 </g>
 </g>
 <g>
 <g>
 <g>
 <path d="M 76.05 145.8 
L 76.05 7.2 
" style="fill: none; stroke: #e5e7eb; stroke-opacity: 0.6; stroke-width: 0.5; stroke-linecap: square"/>
 </g>
 <g>
 <defs>
 <path d="M 0 0 
L 0 3.5 
" style="stroke: #9ca3af; stroke-width: 0.8"/>
 </defs>
 <g>
 <use xlink:href="#m408a0398b8" x="76.05" y="145.8" style="fill: #9ca3af; stroke: #9ca3af; stroke-width: 0.8"/>
 </g>
 </g>
 <g>
 <text style="fill: #9ca3af; font: 7px 'DejaVu Sans', 'Bitstream Vera Sans', 'Computer Modern Sans Serif', 'Lucida Grande', 'Verdana', 'Geneva', 'Lucid', 'Arial', 'Helvetica', 'Avant Garde', sans-serif; text-anchor: middle" x="76.05" y="158.12" transform="rotate(-0 76.05 158.12)">0</text>
 </g>
 </g>
 <g>
 <g>
 <path d="M 131.53 145.8 
L 131.53 7.2 
" style="fill: none; stroke: #e5e7eb; stroke-opacity: 0.6; stroke-width: 0.5; stroke-linecap: square"/>
 </g>
 <g>
 <g>
 <use xlink:href="#m408a0398b8" x="131.53" y="145.8" style="fill: #9ca3af; stroke: #9ca3af; stroke-width: 0.8"/>
 </g>
 </g>
 <g>
 <text style="fill: #9ca3af; font: 7px 'DejaVu Sans', 'Bitstream Vera Sans', 'Computer Modern Sans Serif', 'Lucida Grande', 'Verdana', 'Geneva', 'Lucid', 'Arial', 'Helvetica', 'Avant Garde', sans-serif; text-anchor: middle" x="131.53" y="158.12" transform="rotate(-0 131.53 158.12)">2</text>
 </g>
 </g>
 <g>
 <g>
 <path d="M 187.02 145.8 
L 187.02 7.2 
" style="fill: none; stroke: #e5e7eb; stroke-opacity: 0.6; stroke-width: 0.5; stroke-linecap: square"/>
 </g>
 <g>
 <g>
 <use xlink:href="#m408a0398b8" x="187.02" y="145.8" style="fill: #9ca3af; stroke: #9ca3af; stroke-width: 0.8"/>
 </g>
 </g>
 <g>
 <text style="fill: #9ca3af; font: 7px 'DejaVu Sans', 'Bitstream Vera Sans', 'Computer Modern Sans Serif', 'Lucida Grande', 'Verdana', 'Geneva', 'Lucid', 'Arial', 'Helvetica', 'Avant Garde', sans-serif; text-anchor: middle" x="187.02" y="158.12" transform="rotate(-0 187.02 158.12)">4</text>
 </g>
 </g>
 <g>
 <text style="fill: #9ca3af; font: 7px 'DejaVu Sans', 'Bitstream Vera Sans', 'Computer Modern Sans Serif', 'Lucida Grande', 'Verdana', 'Geneva', 'Lucid', 'Arial', 'Helvetica', 'Avant Garde', sans-serif; text-anchor: middle" x="131.53" y="168.89" transform="rotate(-0 131.53 168.89)">x</text>
 </g>
 </g>
 <g>
 <g>
 <g>
 <path d="M 33.88 113.47 
L 229.18 113.47 
" style="fill: none; stroke: #e5e7eb; stroke-opacity: 0.6; stroke-width: 0.5; stroke-linecap: square"/>
 </g>
 <g>
 <defs>
 <path d="M 0 0 
L -3.5 0 
" style="stroke: #9ca3af; stroke-width: 0.8"/>
 </defs>
 <g>
 <use xlink:href="#m78611632ac" x="33.88" y="113.47" style="fill: #9ca3af; stroke: #9ca3af; stroke-width: 0.8"/>
 </g>
 </g>
 <g>
 <text style="fill: #9ca3af; font: 7px 'DejaVu Sans', 'Bitstream Vera Sans', 'Computer Modern Sans Serif', 'Lucida Grande', 'Verdana', 'Geneva', 'Lucid', 'Arial', 'Helvetica', 'Avant Garde', sans-serif; text-anchor: end" x="26.88" y="116.13" transform="rotate(-0 26.88 116.13)">0</text>
 </g>
 </g>
 <g>
 <g>
 <path d="M 33.88 70.96 
L 229.18 70.96 
" style="fill: none; stroke: #e5e7eb; stroke-opacity: 0.6; stroke-width: 0.5; stroke-linecap: square"/>
 </g>
 <g>
 <g>
 <use xlink:href="#m78611632ac" x="33.88" y="70.96" style="fill: #9ca3af; stroke: #9ca3af; stroke-width: 0.8"/>
 </g>
 </g>
 <g>
 <text style="fill: #9ca3af; font: 7px 'DejaVu Sans', 'Bitstream Vera Sans', 'Computer Modern Sans Serif', 'Lucida Grande', 'Verdana', 'Geneva', 'Lucid', 'Arial', 'Helvetica', 'Avant Garde', sans-serif; text-anchor: end" x="26.88" y="73.62" transform="rotate(-0 26.88 73.62)">20</text>
 </g>
 </g>
 <g>
 <g>
 <path d="M 33.88 28.45 
L 229.18 28.45 
" style="fill: none; stroke: #e5e7eb; stroke-opacity: 0.6; stroke-width: 0.5; stroke-linecap: square"/>
 </g>
 <g>
 <g>
 <use xlink:href="#m78611632ac" x="33.88" y="28.45" style="fill: #9ca3af; stroke: #9ca3af; stroke-width: 0.8"/>
 </g>
 </g>
 <g>
 <text style="fill: #9ca3af; font: 7px 'DejaVu Sans', 'Bitstream Vera Sans', 'Computer Modern Sans Serif', 'Lucida Grande', 'Verdana', 'Geneva', 'Lucid', 'Arial', 'Helvetica', 'Avant Garde', sans-serif; text-anchor: end" x="26.88" y="31.11" transform="rotate(-0 26.88 31.11)">40</text>
 </g>
 </g>
 <g>
 <text style="fill: #9ca3af; font: 7px 'DejaVu Sans', 'Bitstream Vera Sans', 'Computer Modern Sans Serif', 'Lucida Grande', 'Verdana', 'Geneva', 'Lucid', 'Arial', 'Helvetica', 'Avant Garde', sans-serif; text-anchor: middle" x="12.52" y="76.5" transform="rotate(-90 12.52 76.5)">y</text>
 </g>
 </g>
 <g>
 <path d="M 42.76 109.48 
L 45.01 110.28 
L 47.25 111.02 
L 49.50 111.71 
L 51.75 112.34 
L 54.00 112.91 
L 56.24 113.43 
L 58.49 113.90 
L 60.74 114.31 
L 62.99 114.66 
L 65.23 114.95 
L 67.48 115.19 
L 69.73 115.38 
L 71.98 115.51 
L 74.22 115.58 
L 76.47 115.60 
L 78.72 115.56 
L 80.97 115.47 
L 83.21 115.32 
L 85.46 115.11 
L 87.71 114.85 
L 89.96 114.53 
L 92.20 114.16 
L 94.45 113.73 
L 96.70 113.25 
L 98.94 112.70 
L 101.19 112.11 
L 103.44 111.46 
L 105.69 110.75 
L 107.93 109.98 
L 110.18 109.16 
L 112.43 108.29 
L 114.68 107.36 
L 116.92 106.37 
L 119.17 105.33 
L 121.42 104.23 
L 123.67 103.08 
L 125.91 101.87 
L 128.16 100.60 
L 130.41 99.28 
L 132.66 97.90 
L 134.90 96.47 
L 137.15 94.98 
L 139.40 93.43 
L 141.65 91.83 
L 143.89 90.18 
L 146.14 88.46 
L 148.39 86.70 
L 150.64 84.87 
L 152.88 82.99 
L 155.13 81.06 
L 157.38 79.06 
L 159.62 77.02 
L 161.87 74.91 
L 164.12 72.76 
L 166.37 70.54 
L 168.61 68.27 
L 170.86 65.95 
L 173.11 63.56 
L 175.36 61.13 
L 177.60 58.63 
L 179.85 56.08 
L 182.10 53.48 
L 184.35 50.82 
L 186.59 48.10 
L 188.84 45.33 
L 191.09 42.50 
L 193.34 39.62 
L 195.58 36.68 
L 197.83 33.68 
L 200.08 30.63 
L 202.33 27.52 
L 204.57 24.36 
L 206.82 21.14 
L 209.07 17.86 
L 211.32 14.53 
L 213.56 11.15 
L 215.81 7.71 
L 218.06 4.21 
L 220.30 0.65 
" style="fill: none; stroke: #2563eb; stroke-width: 1.5; stroke-linecap: square"/>
 </g>
 <g>
 <path d="M 33.88 113.47 
L 229.18 113.47 
" style="fill: none; stroke: #9ca3af; stroke-width: 0.6; stroke-linecap: square"/>
 </g>
 <g>
 <path d="M 76.05 145.8 
L 76.05 7.2 
" style="fill: none; stroke-dasharray: 0.6,0.99; stroke-dashoffset: 0; stroke: #6b7280; stroke-width: 0.6"/>
 </g>
 <g>
 <path d="M 187.02 145.8 
L 187.02 7.2 
" style="fill: none; stroke-dasharray: 0.6,0.99; stroke-dashoffset: 0; stroke: #6b7280; stroke-width: 0.6"/>
 </g>
 <g>
 <path d="M 33.88 145.8 
L 33.88 7.2 
" style="fill: none; stroke: #9ca3af; stroke-width: 0.6; stroke-linejoin: miter; stroke-linecap: square"/>
 </g>
 <g>
 <path d="M 229.18 145.8 
L 229.18 7.2 
" style="fill: none; stroke: #9ca3af; stroke-width: 0.6; stroke-linejoin: miter; stroke-linecap: square"/>
 </g>
 <g>
 <path d="M 33.88 145.8 
L 229.18 145.8 
" style="fill: none; stroke: #9ca3af; stroke-width: 0.6; stroke-linejoin: miter; stroke-linecap: square"/>
 </g>
 <g>
 <path d="M 33.88 7.2 
L 229.18 7.2 
" style="fill: none; stroke: #9ca3af; stroke-width: 0.6; stroke-linejoin: miter; stroke-linecap: square"/>
 </g>
 </g>
 </g>
 <defs>
 </defs>
</svg>