<?xml version="1.0" encoding="utf-8" standalone="no"?>
<!DOCTYPE svg PUBLIC "-//W3C//DTD SVG 1.1//EN"
 "http://www.w3.org/Graphics/SVG/1.1/DTD/svg11.dtd">
<svg xmlns:xlink="http://www.w3.org/1999/xlink" width="242.25pt" height="177.55pt" viewBox="0 0 242.25 177.55" xmlns="http://www.w3.org/2000/svg" version="1.1">
 <g>
 <g>
 <path d="M 0 177.55 
L 242.25 177.55 
L 242.25 0 
L 0 0 
L 0 177.55 
z
" style="fill: none"/>
 </g>
 <g>
 <g>
 <path d="M 39.75 145.8 
L 235.05 145.8 
L 235.05 7.2 
L 39.75 7.2 
L 39.75 145.8 
z
" style="fill: none"/>
 </g>
 <g>
 <defs>
 <path d="M 81.92 -105.21 
L 81.92 -101.05 
L 84.18 -101.05 
L 86.44 -101.05 
L 88.71 -101.05 
L 90.97 -101.05 
L 93.24 -101.05 
L 95.50 -101.05 
L 97.77 -101.05 
L 100.03 -101.05 
L 102.30 -101.05 
L 104.56 -101.05 
L 106.83 -101.05 
L 109.09 -101.05 
L 111.35 -101.05 
L 113.62 -101.05 
L 115.88 -101.05 
L 118.15 -101.05 
L 120.41 -101.05 
L 122.68 -101.05 
L 124.94 -101.05 
L 127.21 -101.05 
L 129.47 -101.05 
L 131.74 -101.05 
L 134.00 -101.05 
L 136.27 -101.05 
L 138.53 -101.05 
L 140.79 -101.05 
L 143.06 -101.05 
L 145.32 -101.05 
L 147.59 -101.05 
L 149.85 -101.05 
L 152.12 -101.05 
L 154.38 -101.05 
L 156.65 -101.05 
L 158.91 -101.05 
L 161.18 -101.05 
L 163.44 -101.05 
L 165.71 -101.05 
L 167.97 -101.05 
L 170.23 -101.05 
L 172.50 -101.05 
L 174.76 -101.05 
L 177.03 -101.05 
L 179.29 -101.05 
L 181.56 -101.05 
L 183.82 -101.05 
L 186.09 -101.05 
L 188.35 -101.05 
L 190.62 -101.05 
L 192.88 -101.05 
L 192.88 -27.59 
L 192.88 -27.59 
L 190.62 -33.54 
L 188.35 -39.16 
L 186.09 -44.46 
L 183.82 -49.47 
L 181.56 -54.17 
L 179.29 -58.59 
L 177.03 -62.73 
L 174.76 -66.60 
L 172.50 -70.21 
L 170.23 -73.57 
L 167.97 -76.69 
L 165.71 -79.57 
L 163.44 -82.23 
L 161.18 -84.68 
L 158.91 -86.92 
L 156.65 -88.96 
L 154.38 -90.82 
L 152.12 -92.50 
L 149.85 -94.00 
L 147.59 -95.35 
L 145.32 -96.54 
L 143.06 -97.60 
L 140.79 -98.52 
L 138.53 -99.31 
L 136.27 -99.99 
L 134.00 -100.56 
L 131.74 -101.04 
L 129.47 -101.43 
L 127.21 -101.73 
L 124.94 -101.97 
L 122.68 -102.15 
L 120.41 -102.27 
L 118.15 -102.36 
L 115.88 -102.40 
L 113.62 -102.43 
L 111.35 -102.43 
L 109.09 -102.44 
L 106.83 -102.44 
L 104.56 -102.45 
L 102.30 -102.49 
L 100.03 -102.55 
L 97.77 -102.65 
L 95.50 -102.80 
L 93.24 -103.01 
L 90.97 -103.28 
L 88.71 -103.63 
L 86.44 -104.06 
L 84.18 -104.58 
L 81.92 -105.21 
z
" style="stroke: #2563eb; stroke-opacity: 0.15"/>
 </defs>
 <g>
 <use xlink:href="#m90f51fa7f7" x="0" y="177.55" style="fill: #2563eb; fill-opacity: 0.15; stroke: #2563eb; stroke-opacity: 0.15"/>
 </g>
 </g>
 <g>
 <g>
 <g>
 <path d="M 54.17 145.8 
L 54.17 7.2 
" style="fill: none; stroke: #e5e7eb; stroke-opacity: 0.6; stroke-width: 0.5; stroke-linecap: square"/>
 </g>
 <g>
 <defs>
 <path d="M 0 0 
L 0 3.5 
" style="stroke: #9ca3af; stroke-width: 0.8"/>
 </defs>
 <g>
 <use xlink:href="#m0661c4fd6d" x="54.17" y="145.8" style="fill: #9ca3af; stroke: #9ca3af; stroke-width: 0.8"/>
 </g>
 </g>
 <g>
 <text style="fill: #9ca3af; font: 7px 'DejaVu Sans', 'Bitstream Vera Sans', 'Computer Modern Sans Serif', 'Lucida Grande', 'Verdana', 'Geneva', 'Lucid', 'Arial', 'Helvetica', 'Avant Garde', sans-serif; text-anchor: middle" x="54.17" y="158.12" transform="rotate(-0 54.17 158.12)">−2</text>
 </g>
 </g>
 <g>
 <g>
 <path d="M 109.66 145.8 
L 109.66 7.2 
" style="fill: none; stroke: #e5e7eb; stroke-opacity: 0.6; stroke-width: 0.5; stroke-linecap: square"/>
 </g>
 <g>
 <g>
 <use xlink:href="#m0661c4fd6d" x="109.66" y="145.8" style="fill: #9ca3af; stroke: #9ca3af; stroke-width: 0.8"/>
 </g>
 </g>
 <g>
 <text style="fill: #9ca3af; font: 7px 'DejaVu Sans', 'Bitstream Vera Sans', 'Computer Modern Sans Serif', 'Lucida Grande', 'Verdana', 'Geneva', 'Lucid', 'Arial', 'Helvetica', 'Avant Garde', sans-serif; text-anchor: middle" x="109.66" y="158.12" transform="rotate(-0 109.66 158.12)">0</text>
 </g>
 </g>
 <g>
 <g>
 <path d="M 165.14 145.8 
L 165.14 7.2 
" style="fill: none; stroke: #e5e7eb; stroke-opacity: 0.6; stroke-width: 0.5; stroke-linecap: square"/>
 </g>
 <g>
 <g>
 <use xlink:href="#m0661c4fd6d" x="165.14" y="145.8" style="fill: #9ca3af; stroke: #9ca3af; stroke-width: 0.8"/>
 </g>
 </g>
 <g>
 <text style="fill: #9ca3af; font: 7px 'DejaVu Sans', 'Bitstream Vera Sans', 'Computer Modern Sans Serif', 'Lucida Grande', 'Verdana', 'Geneva', 'Lucid', 'Arial', 'Helvetica', 'Avant Garde', sans-serif; text-anchor: middle" x="165.14" y="158.12" transform="rotate(-0 165.14 158.12)">2</text>
 </g>
 </g>
 <g>
 <g>
 <path d="M 220.62 145.8 
L 220.62 7.2 
" style="fill: none; stroke: #e5e7eb; stroke-opacity: 0.6; stroke-width: 0.5; stroke-linecap: square"/>
 </g>
 <g>
 <g>
 <use xlink:href="#m0661c4fd6d" x="220.62" y="145.8" style="fill: #9ca3af; stroke: #9ca3af; stroke-width: 0.8"/>
 </g>
 </g>
 <g>
 <text style="fill: #9ca3af; font: 7px 'DejaVu Sans', 'Bitstream Vera Sans', 'Computer Modern Sans Serif', 'Lucida Grande', 'Verdana', 'Geneva', 'Lucid', 'Arial', 'Helvetica', 'Avant Garde', sans-serif; text-anchor: middle" x="220.62" y="158.12" transform="rotate(-0 220.62 158.12)">4</text>
 </g>
 </g>
 <g>
 <text style="fill: #9ca3af; font: 7px 'DejaVu Sans', 'Bitstream Vera Sans', 'Computer Modern Sans Serif', 'Lucida Grande', 'Verdana', 'Geneva', 'Lucid', 'Arial', 'Helvetica', 'Avant Garde', sans-serif; text-anchor: middle" x="137.40" y="168.89" transform="rotate(-0 137.40 168.89)">x</text>
 </g>
 </g>
 <g>
 <g>
 <g>
 <path d="M 39.75 131.94 
L 235.05 131.94 
" style="fill: none; stroke: #e5e7eb; stroke-opacity: 0.6; stroke-width: 0.5; stroke-linecap: square"/>
 </g>
 <g>
 <defs>
 <path d="M 0 0 
L -3.5 0 
" style="stroke: #9ca3af; stroke-width: 0.8"/>
 </defs>
 <g>
 <use xlink:href="#m32e98af8ed" x="39.75" y="131.94" style="fill: #9ca3af; stroke: #9ca3af; stroke-width: 0.8"/>
 </g>
 </g>
 <g>
 <text style="fill: #9ca3af; font: 7px 'DejaVu Sans', 'Bitstream Vera Sans', 'Computer Modern Sans Serif', 'Lucida Grande', 'Verdana', 'Geneva', 'Lucid', 'Arial', 'Helvetica', 'Avant Garde', sans-serif; text-anchor: end" x="32.75" y="134.60" transform="rotate(-0 32.75 134.60)">−40</text>
 </g>
 </g>
 <g>
 <g>
 <path d="M 39.75 104.22 
L 235.05 104.22 
" style="fill: none; stroke: #e5e7eb; stroke-opacity: 0.6; stroke-width: 0.5; stroke-linecap: square"/>
 </g>
 <g>
 <g>
 <use xlink:href="#m32e98af8ed" x="39.75" y="104.22" style="fill: #9ca3af; stroke: #9ca3af; stroke-width: 0.8"/>
 </g>
 </g>
 <g>
 <text style="fill: #9ca3af; font: 7px 'DejaVu Sans', 'Bitstream Vera Sans', 'Computer Modern Sans Serif', 'Lucida Grande', 'Verdana', 'Geneva', 'Lucid', 'Arial', 'Helvetica', 'Avant Garde', sans-serif; text-anchor: end" x="32.75" y="106.88" transform="rotate(-0 32.75 106.88)">−20</text>
 </g>
 </g>
 <g>
 <g>
 <path d="M 39.75 76.5 
L 235.05 76.5 
" style="fill: none; stroke: #e5e7eb; stroke-opacity: 0.6; stroke-width: 0.5; stroke-linecap: square"/>
 </g>
 <g>
 <g>
 <use xlink:href="#m32e98af8ed" x="39.75" y="76.5" style="fill: #9ca3af; stroke: #9ca3af; stroke-width: 0.8"/>
 </g>
 </g>
 <g>
 <text style="fill: #9ca3af; font: 7px 'DejaVu Sans', 'Bitstream Vera Sans', 'Computer Modern Sans Serif', 'Lucida Grande', 'Verdana', 'Geneva', 'Lucid', 'Arial', 'Helvetica', 'Avant Garde', sans-serif; text-anchor: end" x="32.75" y="79.16" transform="rotate(-0 32.75 79.16)">0</text>
 </g>
 </g>
 <g>
 <g>
 <path d="M 39.75 48.78 
L 235.05 48.78 
" style="fill: none; stroke: #e5e7eb; stroke-opacity: 0.6; stroke-width: 0.5; stroke-linecap: square"/>
 </g>
 <g>
 <g>
 <use xlink:href="#m32e98af8ed" x="39.75" y="48.78" style="fill: #9ca3af; stroke: #9ca3af; stroke-width: 0.8"/>
 </g>
 </g>
 <g>
 <text style="fill: #9ca3af; font: 7px 'DejaVu Sans', 'Bitstream Vera Sans', 'Computer Modern Sans Serif', 'Lucida Grande', 'Verdana', 'Geneva', 'Lucid', 'Arial', 'Helvetica', 'Avant Garde', sans-serif; text-anchor: end" x="32.75" y="51.44" transform="rotate(-0 32.75 51.44)">20</text>
 </g>
 </g>
 <g>
 <g>
 <path d="M 39.75 21.06 
L 235.05 21.06 
" style="fill: none; stroke: #e5e7eb; stroke-opacity: 0.6; stroke-width: 0.5; stroke-linecap: square"/>
 </g>
 <g>
 <g>
 <use xlink:href="#m32e98af8ed" x="39.75" y="21.06" style="fill: #9ca3af; stroke: #9ca3af; stroke-width: 0.8"/>
 </g>
 </g>
 <g>
 <text style="fill: #9ca3af; font: 7px 'DejaVu Sans', 'Bitstream Vera Sans', 'Computer Modern Sans Serif', 'Lucida Grande', 'Verdana', 'Geneva', 'Lucid', 'Arial', 'Helvetica', 'Avant Garde', sans-serif; text-anchor: end" x="32.75" y="23.72" transform="rotate(-0 32.75 23.72)">40</text>
 </g>
 </g>
 <g>
 <text style="fill: #9ca3af; font: 7px 'DejaVu Sans', 'Bitstream Vera Sans', 'Computer Modern Sans Serif', 'Lucida Grande', 'Verdana', 'Geneva', 'Lucid', 'Arial', 'Helvetica', 'Avant Garde', sans-serif; text-anchor: middle" x="12.52" y="76.5" transform="rotate(-90 12.52 76.5)">y</text>
 </g>
 </g>
 <g>
 <path d="M 48.63 45.60 
L 50.87 48.74 
L 53.12 51.65 
L 55.37 54.34 
L 57.61 56.81 
L 59.86 59.08 
L 62.11 61.16 
L 64.36 63.04 
L 66.60 64.75 
L 68.85 66.29 
L 71.10 67.67 
L 73.35 68.90 
L 75.59 69.98 
L 77.84 70.93 
L 80.09 71.76 
L 82.34 72.47 
L 84.58 73.07 
L 86.83 73.57 
L 89.08 73.98 
L 91.33 74.31 
L 93.57 74.57 
L 95.82 74.77 
L 98.07 74.91 
L 100.32 75.01 
L 102.56 75.07 
L 104.81 75.10 
L 107.06 75.11 
L 109.31 75.11 
L 111.55 75.11 
L 113.80 75.12 
L 116.05 75.15 
L 118.29 75.20 
L 120.54 75.28 
L 122.79 75.41 
L 125.04 75.59 
L 127.28 75.83 
L 129.53 76.13 
L 131.78 76.52 
L 134.03 76.99 
L 136.27 77.56 
L 138.52 78.24 
L 140.77 79.02 
L 143.02 79.93 
L 145.26 80.98 
L 147.51 82.16 
L 149.76 83.49 
L 152.01 84.98 
L 154.25 86.63 
L 156.50 88.46 
L 158.75 90.48 
L 161.00 92.68 
L 163.24 95.09 
L 165.49 97.71 
L 167.74 100.55 
L 169.99 103.62 
L 172.23 106.93 
L 174.48 110.48 
L 176.73 114.29 
L 178.98 118.36 
L 181.22 122.70 
L 183.47 127.33 
L 185.72 132.25 
L 187.96 137.46 
L 190.21 142.99 
L 192.46 148.83 
L 194.71 154.99 
L 196.95 161.49 
L 199.20 168.34 
L 201.45 175.54 
L 202.35 178.55 
" style="fill: none; stroke: #2563eb; stroke-width: 1.5; stroke-linecap: square"/>
 </g>
 <g>
 <path d="M 39.75 76.5 
L 235.05 76.5 
" style="fill: none; stroke: #9ca3af; stroke-width: 0.6; stroke-linecap: square"/>
 </g>
 <g>
 <path d="M 81.92 145.8 
L 81.92 7.2 
" style="fill: none; stroke-dasharray: 0.6,0.99; stroke-dashoffset: 0; stroke: #6b7280; stroke-width: 0.6"/>
 </g>
 <g>
 <path d="M 192.88 145.8 
L 192.88 7.2 
" style="fill: none; stroke-dasharray: 0.6,0.99; stroke-dashoffset: 0; stroke: #6b7280; stroke-width: 0.6"/>
 </g>
 <g>
 <path d="M 39.75 145.8 
L 39.75 7.2 
" style="fill: none; stroke: #9ca3af; stroke-width: 0.6; stroke-linejoin: miter; stroke-linecap: square"/>
 </g>
 <g>
 <path d="M 235.05 145.8 
L 235.05 7.2 
" style="fill: none; stroke: #9ca3af; stroke-width: 0.6; stroke-linejoin: miter; stroke-linecap: square"/>
 </g>
 <g>
 <path d="M 39.75 145.8 
L 235.05 145.8 
" style="fill: none; stroke: #9ca3af; stroke-width: 0.6; stroke-linejoin: miter; stroke-linecap: square"/>
 </g>
 <g>
 <path d="M 39.75 7.2 
L 235.05 7.2 
" style="fill: none; stroke: #9ca3af; stroke-width: 0.6; stroke-linejoin: miter; stroke-linecap: square"/>
 </g>
 </g>
 </g>
 <defs>
 </defs>
</svg>