<?xml version="1.0" encoding="utf-8" standalone="no"?>
<!DOCTYPE svg PUBLIC "-//W3C//DTD SVG 1.1//EN"
 "http://www.w3.org/Graphics/SVG/1.1/DTD/svg11.dtd">
<svg xmlns:xlink="http://www.w3.org/1999/xlink" width="243.06pt" height="177.55pt" viewBox="0 0 243.06 177.55" xmlns="http://www.w3.org/2000/svg" version="1.1">
 <g>
 <g>
 <path d="M 0 177.55 
L 243.06 177.55 
L 243.06 0 
L 0 0 
L 0 177.55 
z
" style="fill: none"/>
 </g>
 <g>
 <g>
 <path d="M 40.56 145.8 
L 235.86 145.8 
L 235.86 7.2 
L 40.56 7.2 
L 40.56 145.8 
z
" style="fill: none"/>
 </g>
 <g>
 <defs>
 <path d="M 82.73 -94.97 
L 82.73 -32.29 
L 84.99 -32.29 
L 87.26 -32.29 
L 89.52 -32.29 
L 91.79 -32.29 
L 94.05 -32.29 
L 96.32 -32.29 
L 98.58 -32.29 
L 100.84 -32.29 
L 103.11 -32.29 
L 105.37 -32.29 
L 107.64 -32.29 
L 109.90 -32.29 
L 112.17 -32.29 
L 114.43 -32.29 
L 116.70 -32.29 
L 118.96 -32.29 
L 121.23 -32.29 
L 123.49 -32.29 
L 125.76 -32.29 
L 128.02 -32.29 
L 130.28 -32.29 
L 132.55 -32.29 
L 134.81 -32.29 
L 137.08 -32.29 
L 139.34 -32.29 
L 141.61 -32.29 
L 143.87 -32.29 
L 146.14 -32.29 
L 148.40 -32.29 
L 150.67 -32.29 
L 152.93 -32.29 
L 155.20 -32.29 
L 157.46 -32.29 
L 159.72 -32.29 
L 161.99 -32.29 
L 164.25 -32.29 
L 166.52 -32.29 
L 168.78 -32.29 
L 171.05 -32.29 
L 173.31 -32.29 
L 175.58 -32.29 
L 177.84 -32.29 
L 180.11 -32.29 
L 182.37 -32.29 
L 184.64 -32.29 
L 186.90 -32.29 
L 189.16 -32.29 
L 191.43 -32.29 
L 193.69 -32.29 
L 193.69 -94.97 
L 193.69 -94.97 
L 191.43 -91.96 
L 189.16 -89.08 
L 186.90 -86.32 
L 184.64 -83.69 
L 182.37 -81.19 
L 180.11 -78.80 
L 177.84 -76.55 
L 175.58 -74.42 
L 173.31 -72.41 
L 171.05 -70.54 
L 168.78 -68.78 
L 166.52 -67.15 
L 164.25 -65.65 
L 161.99 -64.27 
L 159.72 -63.02 
L 157.46 -61.89 
L 155.20 -60.89 
L 152.93 -60.01 
L 150.67 -59.26 
L 148.40 -58.63 
L 146.14 -58.13 
L 143.87 -57.76 
L 141.61 -57.50 
L 139.34 -57.38 
L 137.08 -57.38 
L 134.81 -57.50 
L 132.55 -57.76 
L 130.28 -58.13 
L 128.02 -58.63 
L 125.76 -59.26 
L 123.49 -60.01 
L 121.23 -60.89 
L 118.96 -61.89 
L 116.70 -63.02 
L 114.43 -64.27 
L 112.17 -65.65 
L 109.90 -67.15 
L 107.64 -68.78 
L 105.37 -70.54 
L 103.11 -72.41 
L 100.84 -74.42 
L 98.58 -76.55 
L 96.32 -78.80 
L 94.05 -81.19 
L 91.79 -83.69 
L 89.52 -86.32 
L 87.26 -89.08 
L 84.99 -91.96 
L 82.73 -94.97 
z
" style="stroke: #2563eb; stroke-opacity: 0.15"/>
 </defs>
 <g>
 <use xlink:href="#md476163c5e" x="0" y="177.55" style="fill: #2563eb; fill-opacity: 0.15; stroke: #2563eb; stroke-opacity: 0.15"/>
 </g>
 </g>
 <g>
 <g>
 <g>
 <path d="M 82.73 145.8 
L 82.73 7.2 
" style="fill: none; stroke: #e5e7eb; stroke-opacity: 0.6; stroke-width: 0.5; stroke-linecap: square"/>
 </g>
 <g>
 <defs>
 <path d="M 0 0 
L 0 3.5 
" style="stroke: #9ca3af; stroke-width: 0.8"/>
 </defs>
 <g>
 <use xlink:href="#mabf3808780" x="82.73" y="145.8" style="fill: #9ca3af; stroke: #9ca3af; stroke-width: 0.8"/>
 </g>
 </g>
 <g>
 <text style="fill: #9ca3af; font: 7px 'DejaVu Sans', 'Bitstream Vera Sans', 'Computer Modern Sans Serif', 'Lucida Grande', 'Verdana', 'Geneva', 'Lucid', 'Arial', 'Helvetica', 'Avant Garde', sans-serif; text-anchor: middle" x="82.73" y="158.12" transform="rotate(-0 82.73 158.12)">−1</text>
 </g>
 </g>
 <g>
 <g>
 <path d="M 138.21 145.8 
L 138.21 7.2 
" style="fill: none; stroke: #e5e7eb; stroke-opacity: 0.6; stroke-width: 0.5; stroke-linecap: square"/>
 </g>
 <g>
 <g>
 <use xlink:href="#mabf3808780" x="138.21" y="145.8" style="fill: #9ca3af; stroke: #9ca3af; stroke-width: 0.8"/>
 </g>
 </g>
 <g>
 <text style="fill: #9ca3af; font: 7px 'DejaVu Sans', 'Bitstream Vera Sans', 'Computer Modern Sans Serif', 'Lucida Grande', 'Verdana', 'Geneva', 'Lucid', 'Arial', 'Helvetica', 'Avant Garde', sans-serif; text-anchor: middle" x="138.21" y="158.12" transform="rotate(-0 138.21 158.12)">0</text>
 </g>
 </g>
 <g>
 <g>
 <path d="M 193.69 145.8 
L 193.69 7.2 
" style="fill: none; stroke: #e5e7eb; stroke-opacity: 0.6; stroke-width: 0.5; stroke-linecap: square"/>
 </g>
 <g>
 <g>
 <use xlink:href="#mabf3808780" x="193.69" y="145.8" style="fill: #9ca3af; stroke: #9ca3af; stroke-width: 0.8"/>
 </g>
 </g>
 <g>
 <text style="fill: #9ca3af; font: 7px 'DejaVu Sans', 'Bitstream Vera Sans', 'Computer Modern Sans Serif', 'Lucida Grande', 'Verdana', 'Geneva', 'Lucid', 'Arial', 'Helvetica', 'Avant Garde', sans-serif; text-anchor: middle" x="193.69" y="158.12" transform="rotate(-0 193.69 158.12)">1</text>
 </g>
 </g>
 <g>
 <text style="fill: #9ca3af; font: 7px 'DejaVu Sans', 'Bitstream Vera Sans', 'Computer Modern Sans Serif', 'Lucida Grande', 'Verdana', 'Geneva', 'Lucid', 'Arial', 'Helvetica', 'Avant Garde', sans-serif; text-anchor: middle" x="138.21" y="168.89" transform="rotate(-0 138.21 168.89)">x</text>
 </g>
 </g>
 <g>
 <g>
 <g>
 <path d="M 40.56 145.25 
L 235.86 145.25 
" style="fill: none; stroke: #e5e7eb; stroke-opacity: 0.6; stroke-width: 0.5; stroke-linecap: square"/>
 </g>
 <g>
 <defs>
 <path d="M 0 0 
L -3.5 0 
" style="stroke: #9ca3af; stroke-width: 0.8"/>
 </defs>
 <g>
 <use xlink:href="#m17715dca92" x="40.56" y="145.25" style="fill: #9ca3af; stroke: #9ca3af; stroke-width: 0.8"/>
 </g>
 </g>
 <g>
 <text style="fill: #9ca3af; font: 7px 'DejaVu Sans', 'Bitstream Vera Sans', 'Computer Modern Sans Serif', 'Lucida Grande', 'Verdana', 'Geneva', 'Lucid', 'Arial', 'Helvetica', 'Avant Garde', sans-serif; text-anchor: end" x="33.56" y="147.91" transform="rotate(-0 33.56 147.91)">0.0</text>
 </g>
 </g>
 <g>
 <g>
 <path d="M 40.56 113.92 
L 235.86 113.92 
" style="fill: none; stroke: #e5e7eb; stroke-opacity: 0.6; stroke-width: 0.5; stroke-linecap: square"/>
 </g>
 <g>
 <g>
 <use xlink:href="#m17715dca92" x="40.56" y="113.92" style="fill: #9ca3af; stroke: #9ca3af; stroke-width: 0.8"/>
 </g>
 </g>
 <g>
 <text style="fill: #9ca3af; font: 7px 'DejaVu Sans', 'Bitstream Vera Sans', 'Computer Modern Sans Serif', 'Lucida Grande', 'Verdana', 'Geneva', 'Lucid', 'Arial', 'Helvetica', 'Avant Garde', sans-serif; text-anchor: end" x="33.56" y="116.58" transform="rotate(-0 33.56 116.58)">2.5</text>
 </g>
 </g>
 <g>
 <g>
 <path d="M 40.56 82.58 
L 235.86 82.58 
" style="fill: none; stroke: #e5e7eb; stroke-opacity: 0.6; stroke-width: 0.5; stroke-linecap: square"/>
 </g>
 <g>
 <g>
 <use xlink:href="#m17715dca92" x="40.56" y="82.58" style="fill: #9ca3af; stroke: #9ca3af; stroke-width: 0.8"/>
 </g>
 </g>
 <g>
 <text style="fill: #9ca3af; font: 7px 'DejaVu Sans', 'Bitstream Vera Sans', 'Computer Modern Sans Serif', 'Lucida Grande', 'Verdana', 'Geneva', 'Lucid', 'Arial', 'Helvetica', 'Avant Garde', sans-serif; text-anchor: end" x="33.56" y="85.24" transform="rotate(-0 33.56 85.24)">5.0</text>
 </g>
 </g>
 <g>
 <g>
 <path d="M 40.56 51.25 
L 235.86 51.25 
" style="fill: none; stroke: #e5e7eb; stroke-opacity: 0.6; stroke-width: 0.5; stroke-linecap: square"/>
 </g>
 <g>
 <g>
 <use xlink:href="#m17715dca92" x="40.56" y="51.25" style="fill: #9ca3af; stroke: #9ca3af; stroke-width: 0.8"/>
 </g>
 </g>
 <g>
 <text style="fill: #9ca3af; font: 7px 'DejaVu Sans', 'Bitstream Vera Sans', 'Computer Modern Sans Serif', 'Lucida Grande', 'Verdana', 'Geneva', 'Lucid', 'Arial', 'Helvetica', 'Avant Garde', sans-serif; text-anchor: end" x="33.56" y="53.91" transform="rotate(-0 33.56 53.91)">7.5</text>
 </g>
 </g>
 <g>
 <g>
 <path d="M 40.56 19.91 
L 235.86 19.91 
" style="fill: none; stroke: #e5e7eb; stroke-opacity: 0.6; stroke-width: 0.5; stroke-linecap: square"/>
 </g>
 <g>
 <g>
 <use xlink:href="#m17715dca92" x="40.56" y="19.91" style="fill: #9ca3af; stroke: #9ca3af; stroke-width: 0.8"/>
 </g>
 </g>
 <g>
 <text style="fill: #9ca3af; font: 7px 'DejaVu Sans', 'Bitstream Vera Sans', 'Computer Modern Sans Serif', 'Lucida Grande', 'Verdana', 'Geneva', 'Lucid', 'Arial', 'Helvetica', 'Avant Garde', sans-serif; text-anchor: end" x="33.56" y="22.57" transform="rotate(-0 33.56 22.57)">10.0</text>
 </g>
 </g>
 <g>
 <text style="fill: #9ca3af; font: 7px 'DejaVu Sans', 'Bitstream Vera Sans', 'Computer Modern Sans Serif', 'Lucida Grande', 'Verdana', 'Geneva', 'Lucid', 'Arial', 'Helvetica', 'Avant Garde', sans-serif; text-anchor: middle" x="12.52" y="76.5" transform="rotate(-90 12.52 76.5)">y</text>
 </g>
 </g>
 <g>
 <path d="M 49.44 23.92 
L 51.69 28.73 
L 53.93 33.42 
L 56.18 37.99 
L 58.43 42.43 
L 60.67 46.75 
L 62.92 50.94 
L 65.17 55.02 
L 67.42 58.97 
L 69.66 62.79 
L 71.91 66.49 
L 74.16 70.07 
L 76.41 73.53 
L 78.65 76.86 
L 80.90 80.07 
L 83.15 83.15 
L 85.40 86.11 
L 87.64 88.95 
L 89.89 91.67 
L 92.14 94.26 
L 94.39 96.72 
L 96.63 99.07 
L 98.88 101.29 
L 101.13 103.39 
L 103.38 105.36 
L 105.62 107.21 
L 107.87 108.94 
L 110.12 110.55 
L 112.37 112.03 
L 114.61 113.38 
L 116.86 114.62 
L 119.11 115.73 
L 121.36 116.72 
L 123.60 117.58 
L 125.85 118.32 
L 128.10 118.94 
L 130.34 119.43 
L 132.59 119.80 
L 134.84 120.05 
L 137.09 120.17 
L 139.33 120.17 
L 141.58 120.05 
L 143.83 119.80 
L 146.08 119.43 
L 148.32 118.94 
L 150.57 118.32 
L 152.82 117.58 
L 155.07 116.72 
L 157.31 115.73 
L 159.56 114.62 
L 161.81 113.38 
L 164.06 112.03 
L 166.30 110.55 
L 168.55 108.94 
L 170.80 107.21 
L 173.05 105.36 
L 175.29 103.39 
L 177.54 101.29 
L 179.79 99.07 
L 182.04 96.72 
L 184.28 94.26 
L 186.53 91.67 
L 188.78 88.95 
L 191.02 86.11 
L 193.27 83.15 
L 195.52 80.07 
L 197.77 76.86 
L 200.01 73.53 
L 202.26 70.07 
L 204.51 66.49 
L 206.76 62.79 
L 209.00 58.97 
L 211.25 55.02 
L 213.50 50.94 
L 215.75 46.75 
L 217.99 42.43 
L 220.24 37.99 
L 222.49 33.42 
L 224.74 28.73 
L 226.98 23.92 
" style="fill: none; stroke: #2563eb; stroke-width: 1.5; stroke-linecap: square"/>
 </g>
 <g>
 <path d="M 40.56 145.25 
L 235.86 145.25 
" style="fill: none; stroke: #9ca3af; stroke-width: 0.6; stroke-linecap: square"/>
 </g>
 <g>
 <path d="M 82.73 145.8 
L 82.73 7.2 
" style="fill: none; stroke-dasharray: 0.6,0.99; stroke-dashoffset: 0; stroke: #6b7280; stroke-width: 0.6"/>
 </g>
 <g>
 <path d="M 193.69 145.8 
L 193.69 7.2 
" style="fill: none; stroke-dasharray: 0.6,0.99; stroke-dashoffset: 0; stroke: #6b7280; stroke-width: 0.6"/>
 </g>
 <g>
 <path d="M 40.56 145.8 
L 40.56 7.2 
" style="fill: none; stroke: #9ca3af; stroke-width: 0.6; stroke-linejoin: miter; stroke-linecap: square"/>
 </g>
 <g>
 <path d="M 235.86 145.8 
L 235.86 7.2 
" style="fill: none; stroke: #9ca3af; stroke-width: 0.6; stroke-linejoin: miter; stroke-linecap: square"/>
 </g>
 <g>
 <path d="M 40.56 145.8 
L 235.86 145.8 
" style="fill: none; stroke: #9ca3af; stroke-width: 0.6; stroke-linejoin: miter; stroke-linecap: square"/>
 </g>
 <g>
 <path d="M 40.56 7.2 
L 235.86 7.2 
" style="fill: none; stroke: #9ca3af; stroke-width: 0.6; stroke-linejoin: miter; stroke-linecap: square"/>
 </g>
 </g>
 </g>
 <defs>
 </defs>
</svg>