<?xml version="1.0" encoding="utf-8" standalone="no"?>
<!DOCTYPE svg PUBLIC "-//W3C//DTD SVG 1.1//EN"
 "http://www.w3.org/Graphics/SVG/1.1/DTD/svg11.dtd">
<svg xmlns:xlink="http://www.w3.org/1999/xlink" width="242.25pt" height="177.55pt" viewBox="0 0 242.25 177.55" xmlns="http://www.w3.org/2000/svg" version="1.1">
 <g>
 <g>
 <path d="M 0 177.55 
L 242.25 177.55 
L 242.25 0 
L 0 0 
L 0 177.55 
z
" style="fill: none"/>
 </g>
 <g>
 <g>
 <path d="M 39.75 145.8 
L 235.05 145.8 
L 235.05 7.2 
L 39.75 7.2 
L 39.75 145.8 
z
" style="fill: none"/>
 </g>
 <g>
 <path d="M 81.92 299.65 
L 81.92 76.5 
L 84.18 76.5 
L 86.44 76.5 
L 88.71 76.5 
L 90.97 76.5 
L 93.24 76.5 
L 95.50 76.5 
L 97.77 76.5 
L 100.03 76.5 
L 102.30 76.5 
L 104.56 76.5 
L 106.83 76.5 
L 109.09 76.5 
L 111.35 76.5 
L 113.62 76.5 
L 115.88 76.5 
L 118.15 76.5 
L 120.41 76.5 
L 122.68 76.5 
L 124.94 76.5 
L 127.21 76.5 
L 129.47 76.5 
L 131.74 76.5 
L 134.00 76.5 
L 136.27 76.5 
L 138.53 76.5 
L 140.79 76.5 
L 143.06 76.5 
L 145.32 76.5 
L 147.59 76.5 
L 149.85 76.5 
L 152.12 76.5 
L 154.38 76.5 
L 156.65 76.5 
L 158.91 76.5 
L 161.18 76.5 
L 163.44 76.5 
L 165.71 76.5 
L 167.97 76.5 
L 170.23 76.5 
L 172.50 76.5 
L 174.76 76.5 
L 177.03 76.5 
L 179.29 76.5 
L 181.56 76.5 
L 183.82 76.5 
L 186.09 76.5 
L 188.35 76.5 
L 190.62 76.5 
L 192.88 76.5 
L 192.88 75.11 
L 192.88 75.11 
L 190.62 75.11 
L 188.35 75.11 
L 186.09 75.12 
L 183.82 75.12 
L 181.56 75.14 
L 179.29 75.16 
L 177.03 75.21 
L 174.76 75.27 
L 172.50 75.37 
L 170.23 75.50 
L 167.97 75.68 
L 165.71 75.92 
L 163.44 76.23 
L 161.18 76.61 
L 158.91 77.09 
L 156.65 77.67 
L 154.38 78.37 
L 152.12 79.20 
L 149.85 80.19 
L 147.59 81.35 
L 145.32 82.69 
L 143.06 84.24 
L 140.79 86.01 
L 138.53 88.04 
L 136.27 90.33 
L 134.00 92.91 
L 131.74 95.81 
L 129.47 99.05 
L 127.21 102.66 
L 124.94 106.66 
L 122.68 111.08 
L 120.41 115.95 
L 118.15 121.30 
L 115.88 127.16 
L 113.62 133.56 
L 111.35 140.53 
L 109.09 148.11 
L 106.83 156.33 
L 104.56 165.22 
L 102.30 174.82 
L 100.03 185.17 
L 97.77 196.31 
L 95.50 208.27 
L 93.24 221.10 
L 90.97 234.83 
L 88.71 249.51 
L 86.44 265.17 
L 84.18 281.87 
L 81.92 299.65 
z
" style="fill: #2563eb; fill-opacity: 0.15; stroke: #2563eb; stroke-opacity: 0.15"/>
 </g>
 <g>
 <g>
 <g>
 <path d="M 44.93 145.8 
L 44.93 7.2 
" style="fill: none; stroke: #e5e7eb; stroke-opacity: 0.6; stroke-width: 0.5; stroke-linecap: square"/>
 </g>
 <g>
 <defs>
 <path d="M 0 0 
L 0 3.5 
" style="stroke: #9ca3af; stroke-width: 0.8"/>
 </defs>
 <g>
 <use xlink:href="#m3b01fe5f6a" x="44.93" y="145.8" style="fill: #9ca3af; stroke: #9ca3af; stroke-width: 0.8"/>
 </g>
 </g>
 <g>
 <text style="fill: #9ca3af; font: 7px 'DejaVu Sans', 'Bitstream Vera Sans', 'Computer Modern Sans Serif', 'Lucida Grande', 'Verdana', 'Geneva', 'Lucid', 'Arial', 'Helvetica', 'Avant Garde', sans-serif; text-anchor: middle" x="44.93" y="158.12" transform="rotate(-0 44.93 158.12)">−4</text>
 </g>
 </g>
 <g>
 <g>
 <path d="M 118.90 145.8 
L 118.90 7.2 
" style="fill: none; stroke: #e5e7eb; stroke-opacity: 0.6; stroke-width: 0.5; stroke-linecap: square"/>
 </g>
 <g>
 <g>
 <use xlink:href="#m3b01fe5f6a" x="118.90" y="145.8" style="fill: #9ca3af; stroke: #9ca3af; stroke-width: 0.8"/>
 </g>
 </g>
 <g>
 <text style="fill: #9ca3af; font: 7px 'DejaVu Sans', 'Bitstream Vera Sans', 'Computer Modern Sans Serif', 'Lucida Grande', 'Verdana', 'Geneva', 'Lucid', 'Arial', 'Helvetica', 'Avant Garde', sans-serif; text-anchor: middle" x="118.90" y="158.12" transform="rotate(-0 118.90 158.12)">−2</text>
 </g>
 </g>
 <g>
 <g>
 <path d="M 192.88 145.8 
L 192.88 7.2 
" style="fill: none; stroke: #e5e7eb; stroke-opacity: 0.6; stroke-width: 0.5; stroke-linecap: square"/>
 </g>
 <g>
 <g>
 <use xlink:href="#m3b01fe5f6a" x="192.88" y="145.8" style="fill: #9ca3af; stroke: #9ca3af; stroke-width: 0.8"/>
 </g>
 </g>
 <g>
 <text style="fill: #9ca3af; font: 7px 'DejaVu Sans', 'Bitstream Vera Sans', 'Computer Modern Sans Serif', 'Lucida Grande', 'Verdana', 'Geneva', 'Lucid', 'Arial', 'Helvetica', 'Avant Garde', sans-serif; text-anchor: middle" x="192.88" y="158.12" transform="rotate(-0 192.88 158.12)">0</text>
 </g>
 </g>
 <g>
 <text style="fill: #9ca3af; font: 7px 'DejaVu Sans', 'Bitstream Vera Sans', 'Computer Modern Sans Serif', 'Lucida Grande', 'Verdana', 'Geneva', 'Lucid', 'Arial', 'Helvetica', 'Avant Garde', sans-serif; text-anchor: middle" x="137.40" y="168.89" transform="rotate(-0 137.40 168.89)">x</text>
 </g>
 </g>
 <g>
 <g>
 <g>
 <path d="M 39.75 131.94 
L 235.05 131.94 
" style="fill: none; stroke: #e5e7eb; stroke-opacity: 0.6; stroke-width: 0.5; stroke-linecap: square"/>
 </g>
 <g>
 <defs>
 <path d="M 0 0 
L -3.5 0 
" style="stroke: #9ca3af; stroke-width: 0.8"/>
 </defs>
 <g>
 <use xlink:href="#mc16503a66a" x="39.75" y="131.94" style="fill: #9ca3af; stroke: #9ca3af; stroke-width: 0.8"/>
 </g>
 </g>
 <g>
 <text style="fill: #9ca3af; font: 7px 'DejaVu Sans', 'Bitstream Vera Sans', 'Computer Modern Sans Serif', 'Lucida Grande', 'Verdana', 'Geneva', 'Lucid', 'Arial', 'Helvetica', 'Avant Garde', sans-serif; text-anchor: end" x="32.75" y="134.60" transform="rotate(-0 32.75 134.60)">−40</text>
 </g>
 </g>
 <g>
 <g>
 <path d="M 39.75 104.22 
L 235.05 104.22 
" style="fill: none; stroke: #e5e7eb; stroke-opacity: 0.6; stroke-width: 0.5; stroke-linecap: square"/>
 </g>
 <g>
 <g>
 <use xlink:href="#mc16503a66a" x="39.75" y="104.22" style="fill: #9ca3af; stroke: #9ca3af; stroke-width: 0.8"/>
 </g>
 </g>
 <g>
 <text style="fill: #9ca3af; font: 7px 'DejaVu Sans', 'Bitstream Vera Sans', 'Computer Modern Sans Serif', 'Lucida Grande', 'Verdana', 'Geneva', 'Lucid', 'Arial', 'Helvetica', 'Avant Garde', sans-serif; text-anchor: end" x="32.75" y="106.88" transform="rotate(-0 32.75 106.88)">−20</text>
 </g>
 </g>
 <g>
 <g>
 <path d="M 39.75 76.5 
L 235.05 76.5 
" style="fill: none; stroke: #e5e7eb; stroke-opacity: 0.6; stroke-width: 0.5; stroke-linecap: square"/>
 </g>
 <g>
 <g>
 <use xlink:href="#mc16503a66a" x="39.75" y="76.5" style="fill: #9ca3af; stroke: #9ca3af; stroke-width: 0.8"/>
 </g>
 </g>
 <g>
 <text style="fill: #9ca3af; font: 7px 'DejaVu Sans', 'Bitstream Vera Sans', 'Computer Modern Sans Serif', 'Lucida Grande', 'Verdana', 'Geneva', 'Lucid', 'Arial', 'Helvetica', 'Avant Garde', sans-serif; text-anchor: end" x="32.75" y="79.16" transform="rotate(-0 32.75 79.16)">0</text>
 </g>
 </g>
 <g>
 <g>
 <path d="M 39.75 48.78 
L 235.05 48.78 
" style="fill: none; stroke: #e5e7eb; stroke-opacity: 0.6; stroke-width: 0.5; stroke-linecap: square"/>
 </g>
 <g>
 <g>
 <use xlink:href="#mc16503a66a" x="39.75" y="48.78" style="fill: #9ca3af; stroke: #9ca3af; stroke-width: 0.8"/>
 </g>
 </g>
 <g>
 <text style="fill: #9ca3af; font: 7px 'DejaVu Sans', 'Bitstream Vera Sans', 'Computer Modern Sans Serif', 'Lucida Grande', 'Verdana', 'Geneva', 'Lucid', 'Arial', 'Helvetica', 'Avant Garde', sans-serif; text-anchor: end" x="32.75" y="51.44" transform="rotate(-0 32.75 51.44)">20</text>
 </g>
 </g>
 <g>
 <g>
 <path d="M 39.75 21.06 
L 235.05 21.06 
" style="fill: none; stroke: #e5e7eb; stroke-opacity: 0.6; stroke-width: 0.5; stroke-linecap: square"/>
 </g>
 <g>
 <g>
 <use xlink:href="#mc16503a66a" x="39.75" y="21.06" style="fill: #9ca3af; stroke: #9ca3af; stroke-width: 0.8"/>
 </g>
 </g>
 <g>
 <text style="fill: #9ca3af; font: 7px 'DejaVu Sans', 'Bitstream Vera Sans', 'Computer Modern Sans Serif', 'Lucida Grande', 'Verdana', 'Geneva', 'Lucid', 'Arial', 'Helvetica', 'Avant Garde', sans-serif; text-anchor: end" x="32.75" y="23.72" transform="rotate(-0 32.75 23.72)">40</text>
 </g>
 </g>
 <g>
 <text style="fill: #9ca3af; font: 7px 'DejaVu Sans', 'Bitstream Vera Sans', 'Computer Modern Sans Serif', 'Lucida Grande', 'Verdana', 'Geneva', 'Lucid', 'Arial', 'Helvetica', 'Avant Garde', sans-serif; text-anchor: middle" x="12.52" y="76.5" transform="rotate(-90 12.52 76.5)">y</text>
 </g>
 </g>
 <g>
 <path d="M 101.48 178.55 
L 102.56 173.65 
L 104.81 164.21 
L 107.06 155.45 
L 109.31 147.36 
L 111.55 139.90 
L 113.80 133.03 
L 116.05 126.72 
L 118.29 120.94 
L 120.54 115.66 
L 122.79 110.86 
L 125.04 106.49 
L 127.28 102.53 
L 129.53 98.96 
L 131.78 95.75 
L 134.03 92.88 
L 136.27 90.32 
L 138.52 88.04 
L 140.77 86.04 
L 143.02 84.27 
L 145.26 82.73 
L 147.51 81.39 
L 149.76 80.23 
L 152.01 79.25 
L 154.25 78.41 
L 156.50 77.71 
L 158.75 77.12 
L 161.00 76.64 
L 163.24 76.26 
L 165.49 75.95 
L 167.74 75.71 
L 169.99 75.52 
L 172.23 75.38 
L 174.48 75.28 
L 176.73 75.21 
L 178.98 75.17 
L 181.22 75.14 
L 183.47 75.13 
L 185.72 75.12 
L 187.96 75.11 
L 190.21 75.11 
L 192.46 75.11 
L 194.71 75.11 
L 196.95 75.11 
L 199.20 75.12 
L 201.45 75.12 
L 203.70 75.13 
L 205.94 75.16 
L 208.19 75.20 
L 210.44 75.25 
L 212.69 75.34 
L 214.93 75.46 
L 217.18 75.63 
L 219.43 75.85 
L 221.68 76.13 
L 223.92 76.49 
L 226.17 76.93 
" style="fill: none; stroke: #2563eb; stroke-width: 1.5; stroke-linecap: square"/>
 </g>
 <g>
 <path d="M 39.75 76.5 
L 235.05 76.5 
" style="fill: none; stroke: #9ca3af; stroke-width: 0.6; stroke-linecap: square"/>
 </g>
 <g>
 <path d="M 81.92 145.8 
L 81.92 7.2 
" style="fill: none; stroke-dasharray: 0.6,0.99; stroke-dashoffset: 0; stroke: #6b7280; stroke-width: 0.6"/>
 </g>
 <g>
 <path d="M 192.88 145.8 
L 192.88 7.2 
" style="fill: none; stroke-dasharray: 0.6,0.99; stroke-dashoffset: 0; stroke: #6b7280; stroke-width: 0.6"/>
 </g>
 <g>
 <path d="M 39.75 145.8 
L 39.75 7.2 
" style="fill: none; stroke: #9ca3af; stroke-width: 0.6; stroke-linejoin: miter; stroke-linecap: square"/>
 </g>
 <g>
 <path d="M 235.05 145.8 
L 235.05 7.2 
" style="fill: none; stroke: #9ca3af; stroke-width: 0.6; stroke-linejoin: miter; stroke-linecap: square"/>
 </g>
 <g>
 <path d="M 39.75 145.8 
L 235.05 145.8 
" style="fill: none; stroke: #9ca3af; stroke-width: 0.6; stroke-linejoin: miter; stroke-linecap: square"/>
 </g>
 <g>
 <path d="M 39.75 7.2 
L 235.05 7.2 
" style="fill: none; stroke: #9ca3af; stroke-width: 0.6; stroke-linejoin: miter; stroke-linecap: square"/>
 </g>
 </g>
 </g>
 <defs>
 </defs>
</svg>