<?xml version="1.0" encoding="utf-8" standalone="no"?>
<!DOCTYPE svg PUBLIC "-//W3C//DTD SVG 1.1//EN"
 "http://www.w3.org/Graphics/SVG/1.1/DTD/svg11.dtd">
<svg xmlns:xlink="http://www.w3.org/1999/xlink" width="242.25pt" height="177.55pt" viewBox="0 0 242.25 177.55" xmlns="http://www.w3.org/2000/svg" version="1.1">
 <g>
 <g>
 <path d="M 0 177.55 
L 242.25 177.55 
L 242.25 0 
L 0 0 
L 0 177.55 
z
" style="fill: none"/>
 </g>
 <g>
 <g>
 <path d="M 39.75 145.8 
L 235.05 145.8 
L 235.05 7.2 
L 39.75 7.2 
L 39.75 145.8 
z
" style="fill: none"/>
 </g>
 <g>
 <defs>
 <path d="M 81.92 -110.65 
L 81.92 -102.19 
L 84.18 -102.19 
L 86.44 -102.19 
L 88.71 -102.19 
L 90.97 -102.19 
L 93.24 -102.19 
L 95.50 -102.19 
L 97.77 -102.19 
L 100.03 -102.19 
L 102.30 -102.19 
L 104.56 -102.19 
L 106.83 -102.19 
L 109.09 -102.19 
L 111.35 -102.19 
L 113.62 -102.19 
L 115.88 -102.19 
L 118.15 -102.19 
L 120.41 -102.19 
L 122.68 -102.19 
L 124.94 -102.19 
L 127.21 -102.19 
L 129.47 -102.19 
L 131.74 -102.19 
L 134.00 -102.19 
L 136.27 -102.19 
L 138.53 -102.19 
L 140.79 -102.19 
L 143.06 -102.19 
L 145.32 -102.19 
L 147.59 -102.19 
L 149.85 -102.19 
L 152.12 -102.19 
L 154.38 -102.19 
L 156.65 -102.19 
L 158.91 -102.19 
L 161.18 -102.19 
L 163.44 -102.19 
L 165.71 -102.19 
L 167.97 -102.19 
L 170.23 -102.19 
L 172.50 -102.19 
L 174.76 -102.19 
L 177.03 -102.19 
L 179.29 -102.19 
L 181.56 -102.19 
L 183.82 -102.19 
L 186.09 -102.19 
L 188.35 -102.19 
L 190.62 -102.19 
L 192.88 -102.19 
L 192.88 -59.93 
L 192.88 -59.93 
L 190.62 -63.94 
L 188.35 -67.71 
L 186.09 -71.24 
L 183.82 -74.54 
L 181.56 -77.62 
L 179.29 -80.48 
L 177.03 -83.14 
L 174.76 -85.60 
L 172.50 -87.87 
L 170.23 -89.95 
L 167.97 -91.86 
L 165.71 -93.59 
L 163.44 -95.17 
L 161.18 -96.60 
L 158.91 -97.88 
L 156.65 -99.02 
L 154.38 -100.04 
L 152.12 -100.93 
L 149.85 -101.71 
L 147.59 -102.38 
L 145.32 -102.96 
L 143.06 -103.44 
L 140.79 -103.84 
L 138.53 -104.17 
L 136.27 -104.43 
L 134.00 -104.63 
L 131.74 -104.77 
L 129.47 -104.88 
L 127.21 -104.95 
L 124.94 -104.99 
L 122.68 -105.00 
L 120.41 -105.01 
L 118.15 -105.01 
L 115.88 -105.01 
L 113.62 -105.03 
L 111.35 -105.06 
L 109.09 -105.11 
L 106.83 -105.21 
L 104.56 -105.34 
L 102.30 -105.52 
L 100.03 -105.76 
L 97.77 -106.06 
L 95.50 -106.44 
L 93.24 -106.89 
L 90.97 -107.44 
L 88.71 -108.08 
L 86.44 -108.82 
L 84.18 -109.67 
L 81.92 -110.65 
z
" style="stroke: #2563eb; stroke-opacity: 0.15"/>
 </defs>
 <g>
 <use xlink:href="#m6aac9292e5" x="0" y="177.55" style="fill: #2563eb; fill-opacity: 0.15; stroke: #2563eb; stroke-opacity: 0.15"/>
 </g>
 </g>
 <g>
 <g>
 <g>
 <path d="M 44.93 145.8 
L 44.93 7.2 
" style="fill: none; stroke: #e5e7eb; stroke-opacity: 0.6; stroke-width: 0.5; stroke-linecap: square"/>
 </g>
 <g>
 <defs>
 <path d="M 0 0 
L 0 3.5 
" style="stroke: #9ca3af; stroke-width: 0.8"/>
 </defs>
 <g>
 <use xlink:href="#mea0effa3f3" x="44.93" y="145.8" style="fill: #9ca3af; stroke: #9ca3af; stroke-width: 0.8"/>
 </g>
 </g>
 <g>
 <text style="fill: #9ca3af; font: 7px 'DejaVu Sans', 'Bitstream Vera Sans', 'Computer Modern Sans Serif', 'Lucida Grande', 'Verdana', 'Geneva', 'Lucid', 'Arial', 'Helvetica', 'Avant Garde', sans-serif; text-anchor: middle" x="44.93" y="158.12" transform="rotate(-0 44.93 158.12)">−2</text>
 </g>
 </g>
 <g>
 <g>
 <path d="M 118.90 145.8 
L 118.90 7.2 
" style="fill: none; stroke: #e5e7eb; stroke-opacity: 0.6; stroke-width: 0.5; stroke-linecap: square"/>
 </g>
 <g>
 <g>
 <use xlink:href="#mea0effa3f3" x="118.90" y="145.8" style="fill: #9ca3af; stroke: #9ca3af; stroke-width: 0.8"/>
 </g>
 </g>
 <g>
 <text style="fill: #9ca3af; font: 7px 'DejaVu Sans', 'Bitstream Vera Sans', 'Computer Modern Sans Serif', 'Lucida Grande', 'Verdana', 'Geneva', 'Lucid', 'Arial', 'Helvetica', 'Avant Garde', sans-serif; text-anchor: middle" x="118.90" y="158.12" transform="rotate(-0 118.90 158.12)">0</text>
 </g>
 </g>
 <g>
 <g>
 <path d="M 192.88 145.8 
L 192.88 7.2 
" style="fill: none; stroke: #e5e7eb; stroke-opacity: 0.6; stroke-width: 0.5; stroke-linecap: square"/>
 </g>
 <g>
 <g>
 <use xlink:href="#mea0effa3f3" x="192.88" y="145.8" style="fill: #9ca3af; stroke: #9ca3af; stroke-width: 0.8"/>
 </g>
 </g>
 <g>
 <text style="fill: #9ca3af; font: 7px 'DejaVu Sans', 'Bitstream Vera Sans', 'Computer Modern Sans Serif', 'Lucida Grande', 'Verdana', 'Geneva', 'Lucid', 'Arial', 'Helvetica', 'Avant Garde', sans-serif; text-anchor: middle" x="192.88" y="158.12" transform="rotate(-0 192.88 158.12)">2</text>
 </g>
 </g>
 <g>
 <text style="fill: #9ca3af; font: 7px 'DejaVu Sans', 'Bitstream Vera Sans', 'Computer Modern Sans Serif', 'Lucida Grande', 'Verdana', 'Geneva', 'Lucid', 'Arial', 'Helvetica', 'Avant Garde', sans-serif; text-anchor: middle" x="137.40" y="168.89" transform="rotate(-0 137.40 168.89)">x</text>
 </g>
 </g>
 <g>
 <g>
 <g>
 <path d="M 39.75 131.71 
L 235.05 131.71 
" style="fill: none; stroke: #e5e7eb; stroke-opacity: 0.6; stroke-width: 0.5; stroke-linecap: square"/>
 </g>
 <g>
 <defs>
 <path d="M 0 0 
L -3.5 0 
" style="stroke: #9ca3af; stroke-width: 0.8"/>
 </defs>
 <g>
 <use xlink:href="#maf8a176cc9" x="39.75" y="131.71" style="fill: #9ca3af; stroke: #9ca3af; stroke-width: 0.8"/>
 </g>
 </g>
 <g>
 <text style="fill: #9ca3af; font: 7px 'DejaVu Sans', 'Bitstream Vera Sans', 'Computer Modern Sans Serif', 'Lucida Grande', 'Verdana', 'Geneva', 'Lucid', 'Arial', 'Helvetica', 'Avant Garde', sans-serif; text-anchor: end" x="32.75" y="134.37" transform="rotate(-0 32.75 134.37)">−40</text>
 </g>
 </g>
 <g>
 <g>
 <path d="M 39.75 103.53 
L 235.05 103.53 
" style="fill: none; stroke: #e5e7eb; stroke-opacity: 0.6; stroke-width: 0.5; stroke-linecap: square"/>
 </g>
 <g>
 <g>
 <use xlink:href="#maf8a176cc9" x="39.75" y="103.53" style="fill: #9ca3af; stroke: #9ca3af; stroke-width: 0.8"/>
 </g>
 </g>
 <g>
 <text style="fill: #9ca3af; font: 7px 'DejaVu Sans', 'Bitstream Vera Sans', 'Computer Modern Sans Serif', 'Lucida Grande', 'Verdana', 'Geneva', 'Lucid', 'Arial', 'Helvetica', 'Avant Garde', sans-serif; text-anchor: end" x="32.75" y="106.19" transform="rotate(-0 32.75 106.19)">−20</text>
 </g>
 </g>
 <g>
 <g>
 <path d="M 39.75 75.36 
L 235.05 75.36 
" style="fill: none; stroke: #e5e7eb; stroke-opacity: 0.6; stroke-width: 0.5; stroke-linecap: square"/>
 </g>
 <g>
 <g>
 <use xlink:href="#maf8a176cc9" x="39.75" y="75.36" style="fill: #9ca3af; stroke: #9ca3af; stroke-width: 0.8"/>
 </g>
 </g>
 <g>
 <text style="fill: #9ca3af; font: 7px 'DejaVu Sans', 'Bitstream Vera Sans', 'Computer Modern Sans Serif', 'Lucida Grande', 'Verdana', 'Geneva', 'Lucid', 'Arial', 'Helvetica', 'Avant Garde', sans-serif; text-anchor: end" x="32.75" y="78.02" transform="rotate(-0 32.75 78.02)">0</text>
 </g>
 </g>
 <g>
 <g>
 <path d="M 39.75 47.18 
L 235.05 47.18 
" style="fill: none; stroke: #e5e7eb; stroke-opacity: 0.6; stroke-width: 0.5; stroke-linecap: square"/>
 </g>
 <g>
 <g>
 <use xlink:href="#maf8a176cc9" x="39.75" y="47.18" style="fill: #9ca3af; stroke: #9ca3af; stroke-width: 0.8"/>
 </g>
 </g>
 <g>
 <text style="fill: #9ca3af; font: 7px 'DejaVu Sans', 'Bitstream Vera Sans', 'Computer Modern Sans Serif', 'Lucida Grande', 'Verdana', 'Geneva', 'Lucid', 'Arial', 'Helvetica', 'Avant Garde', sans-serif; text-anchor: end" x="32.75" y="49.84" transform="rotate(-0 32.75 49.84)">20</text>
 </g>
 </g>
 <g>
 <g>
 <path d="M 39.75 19.00 
L 235.05 19.00 
" style="fill: none; stroke: #e5e7eb; stroke-opacity: 0.6; stroke-width: 0.5; stroke-linecap: square"/>
 </g>
 <g>
 <g>
 <use xlink:href="#maf8a176cc9" x="39.75" y="19.00" style="fill: #9ca3af; stroke: #9ca3af; stroke-width: 0.8"/>
 </g>
 </g>
 <g>
 <text style="fill: #9ca3af; font: 7px 'DejaVu Sans', 'Bitstream Vera Sans', 'Computer Modern Sans Serif', 'Lucida Grande', 'Verdana', 'Geneva', 'Lucid', 'Arial', 'Helvetica', 'Avant Garde', sans-serif; text-anchor: end" x="32.75" y="21.66" transform="rotate(-0 32.75 21.66)">40</text>
 </g>
 </g>
 <g>
 <text style="fill: #9ca3af; font: 7px 'DejaVu Sans', 'Bitstream Vera Sans', 'Computer Modern Sans Serif', 'Lucida Grande', 'Verdana', 'Geneva', 'Lucid', 'Arial', 'Helvetica', 'Avant Garde', sans-serif; text-anchor: middle" x="12.52" y="76.5" transform="rotate(-90 12.52 76.5)">y</text>
 </g>
 </g>
 <g>
 <path d="M 48.63 33.89 
L 50.87 37.48 
L 53.12 40.84 
L 55.37 43.98 
L 57.61 46.90 
L 59.86 49.62 
L 62.11 52.14 
L 64.36 54.47 
L 66.60 56.61 
L 68.85 58.58 
L 71.10 60.37 
L 73.35 62.01 
L 75.59 63.49 
L 77.84 64.83 
L 80.09 66.03 
L 82.34 67.09 
L 84.58 68.04 
L 86.83 68.87 
L 89.08 69.59 
L 91.33 70.20 
L 93.57 70.73 
L 95.82 71.17 
L 98.07 71.53 
L 100.32 71.82 
L 102.56 72.05 
L 104.81 72.23 
L 107.06 72.35 
L 109.31 72.44 
L 111.55 72.50 
L 113.80 72.52 
L 116.05 72.54 
L 118.29 72.54 
L 120.54 72.54 
L 122.79 72.55 
L 125.04 72.57 
L 127.28 72.61 
L 129.53 72.67 
L 131.78 72.78 
L 134.03 72.92 
L 136.27 73.12 
L 138.52 73.38 
L 140.77 73.70 
L 143.02 74.10 
L 145.26 74.58 
L 147.51 75.15 
L 149.76 75.81 
L 152.01 76.58 
L 154.25 77.46 
L 156.50 78.46 
L 158.75 79.58 
L 161.00 80.84 
L 163.24 82.25 
L 165.49 83.80 
L 167.74 85.51 
L 169.99 87.38 
L 172.23 89.43 
L 174.48 91.66 
L 176.73 94.07 
L 178.98 96.68 
L 181.22 99.49 
L 183.47 102.51 
L 185.72 105.75 
L 187.96 109.22 
L 190.21 112.92 
L 192.46 116.86 
L 194.71 121.04 
L 196.95 125.49 
L 199.20 130.19 
L 201.45 135.17 
L 203.70 140.43 
L 205.94 145.97 
L 208.19 151.81 
L 210.44 157.94 
L 212.69 164.39 
L 214.93 171.15 
L 217.18 178.24 
L 217.27 178.55 
" style="fill: none; stroke: #2563eb; stroke-width: 1.5; stroke-linecap: square"/>
 </g>
 <g>
 <path d="M 39.75 75.36 
L 235.05 75.36 
" style="fill: none; stroke: #9ca3af; stroke-width: 0.6; stroke-linecap: square"/>
 </g>
 <g>
 <path d="M 81.92 145.8 
L 81.92 7.2 
" style="fill: none; stroke-dasharray: 0.6,0.99; stroke-dashoffset: 0; stroke: #6b7280; stroke-width: 0.6"/>
 </g>
 <g>
 <path d="M 192.88 145.8 
L 192.88 7.2 
" style="fill: none; stroke-dasharray: 0.6,0.99; stroke-dashoffset: 0; stroke: #6b7280; stroke-width: 0.6"/>
 </g>
 <g>
 <path d="M 39.75 145.8 
L 39.75 7.2 
" style="fill: none; stroke: #9ca3af; stroke-width: 0.6; stroke-linejoin: miter; stroke-linecap: square"/>
 </g>
 <g>
 <path d="M 235.05 145.8 
L 235.05 7.2 
" style="fill: none; stroke: #9ca3af; stroke-width: 0.6; stroke-linejoin: miter; stroke-linecap: square"/>
 </g>
 <g>
 <path d="M 39.75 145.8 
L 235.05 145.8 
" style="fill: none; stroke: #9ca3af; stroke-width: 0.6; stroke-linejoin: miter; stroke-linecap: square"/>
 </g>
 <g>
 <path d="M 39.75 7.2 
L 235.05 7.2 
" style="fill: none; stroke: #9ca3af; stroke-width: 0.6; stroke-linejoin: miter; stroke-linecap: square"/>
 </g>
 </g>
 </g>
 <defs>
 </defs>
</svg>