<?xml version="1.0" encoding="utf-8" standalone="no"?>
<!DOCTYPE svg PUBLIC "-//W3C//DTD SVG 1.1//EN"
 "http://www.w3.org/Graphics/SVG/1.1/DTD/svg11.dtd">
<svg xmlns:xlink="http://www.w3.org/1999/xlink" width="242.25pt" height="177.55pt" viewBox="0 0 242.25 177.55" xmlns="http://www.w3.org/2000/svg" version="1.1">
 <g>
 <g>
 <path d="M 0 177.55 
L 242.25 177.55 
L 242.25 0 
L 0 0 
L 0 177.55 
z
" style="fill: none"/>
 </g>
 <g>
 <g>
 <path d="M 39.75 145.8 
L 235.05 145.8 
L 235.05 7.2 
L 39.75 7.2 
L 39.75 145.8 
z
" style="fill: none"/>
 </g>
 <g>
 <defs>
 <path d="M 81.92 -69.17 
L 81.92 -101.05 
L 84.18 -101.05 
L 86.44 -101.05 
L 88.71 -101.05 
L 90.97 -101.05 
L 93.24 -101.05 
L 95.50 -101.05 
L 97.77 -101.05 
L 100.03 -101.05 
L 102.30 -101.05 
L 104.56 -101.05 
L 106.83 -101.05 
L 109.09 -101.05 
L 111.35 -101.05 
L 113.62 -101.05 
L 115.88 -101.05 
L 118.15 -101.05 
L 120.41 -101.05 
L 122.68 -101.05 
L 124.94 -101.05 
L 127.21 -101.05 
L 129.47 -101.05 
L 131.74 -101.05 
L 134.00 -101.05 
L 136.27 -101.05 
L 138.53 -101.05 
L 140.79 -101.05 
L 143.06 -101.05 
L 145.32 -101.05 
L 147.59 -101.05 
L 149.85 -101.05 
L 152.12 -101.05 
L 154.38 -101.05 
L 156.65 -101.05 
L 158.91 -101.05 
L 161.18 -101.05 
L 163.44 -101.05 
L 165.71 -101.05 
L 167.97 -101.05 
L 170.23 -101.05 
L 172.50 -101.05 
L 174.76 -101.05 
L 177.03 -101.05 
L 179.29 -101.05 
L 181.56 -101.05 
L 183.82 -101.05 
L 186.09 -101.05 
L 188.35 -101.05 
L 190.62 -101.05 
L 192.88 -101.05 
L 192.88 -214.70 
L 192.88 -214.70 
L 190.62 -203.63 
L 188.35 -193.31 
L 186.09 -183.72 
L 183.82 -174.83 
L 181.56 -166.61 
L 179.29 -159.04 
L 177.03 -152.09 
L 174.76 -145.73 
L 172.50 -139.94 
L 170.23 -134.69 
L 167.97 -129.96 
L 165.71 -125.71 
L 163.44 -121.92 
L 161.18 -118.57 
L 158.91 -115.63 
L 156.65 -113.07 
L 154.38 -110.86 
L 152.12 -108.98 
L 149.85 -107.40 
L 147.59 -106.10 
L 145.32 -105.05 
L 143.06 -104.23 
L 140.79 -103.59 
L 138.53 -103.13 
L 136.27 -102.81 
L 134.00 -102.61 
L 131.74 -102.50 
L 129.47 -102.45 
L 127.21 -102.44 
L 124.94 -102.43 
L 122.68 -102.42 
L 120.41 -102.36 
L 118.15 -102.23 
L 115.88 -102.01 
L 113.62 -101.66 
L 111.35 -101.17 
L 109.09 -100.50 
L 106.83 -99.63 
L 104.56 -98.53 
L 102.30 -97.17 
L 100.03 -95.54 
L 97.77 -93.60 
L 95.50 -91.32 
L 93.24 -88.69 
L 90.97 -85.66 
L 88.71 -82.23 
L 86.44 -78.35 
L 84.18 -74.01 
L 81.92 -69.17 
z
" style="stroke: #2563eb; stroke-opacity: 0.15"/>
 </defs>
 <g>
 <use xlink:href="#m52c5af6f5a" x="0" y="177.55" style="fill: #2563eb; fill-opacity: 0.15; stroke: #2563eb; stroke-opacity: 0.15"/>
 </g>
 </g>
 <g>
 <g>
 <g>
 <path d="M 81.92 145.8 
L 81.92 7.2 
" style="fill: none; stroke: #e5e7eb; stroke-opacity: 0.6; stroke-width: 0.5; stroke-linecap: square"/>
 </g>
 <g>
 <defs>
 <path d="M 0 0 
L 0 3.5 
" style="stroke: #9ca3af; stroke-width: 0.8"/>
 </defs>
 <g>
 <use xlink:href="#mcf83c873f3" x="81.92" y="145.8" style="fill: #9ca3af; stroke: #9ca3af; stroke-width: 0.8"/>
 </g>
 </g>
 <g>
 <text style="fill: #9ca3af; font: 7px 'DejaVu Sans', 'Bitstream Vera Sans', 'Computer Modern Sans Serif', 'Lucida Grande', 'Verdana', 'Geneva', 'Lucid', 'Arial', 'Helvetica', 'Avant Garde', sans-serif; text-anchor: middle" x="81.92" y="158.12" transform="rotate(-0 81.92 158.12)">−2</text>
 </g>
 </g>
 <g>
 <g>
 <path d="M 126.30 145.8 
L 126.30 7.2 
" style="fill: none; stroke: #e5e7eb; stroke-opacity: 0.6; stroke-width: 0.5; stroke-linecap: square"/>
 </g>
 <g>
 <g>
 <use xlink:href="#mcf83c873f3" x="126.30" y="145.8" style="fill: #9ca3af; stroke: #9ca3af; stroke-width: 0.8"/>
 </g>
 </g>
 <g>
 <text style="fill: #9ca3af; font: 7px 'DejaVu Sans', 'Bitstream Vera Sans', 'Computer Modern Sans Serif', 'Lucida Grande', 'Verdana', 'Geneva', 'Lucid', 'Arial', 'Helvetica', 'Avant Garde', sans-serif; text-anchor: middle" x="126.30" y="158.12" transform="rotate(-0 126.30 158.12)">0</text>
 </g>
 </g>
 <g>
 <g>
 <path d="M 170.69 145.8 
L 170.69 7.2 
" style="fill: none; stroke: #e5e7eb; stroke-opacity: 0.6; stroke-width: 0.5; stroke-linecap: square"/>
 </g>
 <g>
 <g>
 <use xlink:href="#mcf83c873f3" x="170.69" y="145.8" style="fill: #9ca3af; stroke: #9ca3af; stroke-width: 0.8"/>
 </g>
 </g>
 <g>
 <text style="fill: #9ca3af; font: 7px 'DejaVu Sans', 'Bitstream Vera Sans', 'Computer Modern Sans Serif', 'Lucida Grande', 'Verdana', 'Geneva', 'Lucid', 'Arial', 'Helvetica', 'Avant Garde', sans-serif; text-anchor: middle" x="170.69" y="158.12" transform="rotate(-0 170.69 158.12)">2</text>
 </g>
 </g>
 <g>
 <g>
 <path d="M 215.07 145.8 
L 215.07 7.2 
" style="fill: none; stroke: #e5e7eb; stroke-opacity: 0.6; stroke-width: 0.5; stroke-linecap: square"/>
 </g>
 <g>
 <g>
 <use xlink:href="#mcf83c873f3" x="215.07" y="145.8" style="fill: #9ca3af; stroke: #9ca3af; stroke-width: 0.8"/>
 </g>
 </g>
 <g>
 <text style="fill: #9ca3af; font: 7px 'DejaVu Sans', 'Bitstream Vera Sans', 'Computer Modern Sans Serif', 'Lucida Grande', 'Verdana', 'Geneva', 'Lucid', 'Arial', 'Helvetica', 'Avant Garde', sans-serif; text-anchor: middle" x="215.07" y="158.12" transform="rotate(-0 215.07 158.12)">4</text>
 </g>
 </g>
 <g>
 <text style="fill: #9ca3af; font: 7px 'DejaVu Sans', 'Bitstream Vera Sans', 'Computer Modern Sans Serif', 'Lucida Grande', 'Verdana', 'Geneva', 'Lucid', 'Arial', 'Helvetica', 'Avant Garde', sans-serif; text-anchor: middle" x="137.40" y="168.89" transform="rotate(-0 137.40 168.89)">x</text>
 </g>
 </g>
 <g>
 <g>
 <g>
 <path d="M 39.75 131.94 
L 235.05 131.94 
" style="fill: none; stroke: #e5e7eb; stroke-opacity: 0.6; stroke-width: 0.5; stroke-linecap: square"/>
 </g>
 <g>
 <defs>
 <path d="M 0 0 
L -3.5 0 
" style="stroke: #9ca3af; stroke-width: 0.8"/>
 </defs>
 <g>
 <use xlink:href="#m0442e36b01" x="39.75" y="131.94" style="fill: #9ca3af; stroke: #9ca3af; stroke-width: 0.8"/>
 </g>
 </g>
 <g>
 <text style="fill: #9ca3af; font: 7px 'DejaVu Sans', 'Bitstream Vera Sans', 'Computer Modern Sans Serif', 'Lucida Grande', 'Verdana', 'Geneva', 'Lucid', 'Arial', 'Helvetica', 'Avant Garde', sans-serif; text-anchor: end" x="32.75" y="134.60" transform="rotate(-0 32.75 134.60)">−40</text>
 </g>
 </g>
 <g>
 <g>
 <path d="M 39.75 104.22 
L 235.05 104.22 
" style="fill: none; stroke: #e5e7eb; stroke-opacity: 0.6; stroke-width: 0.5; stroke-linecap: square"/>
 </g>
 <g>
 <g>
 <use xlink:href="#m0442e36b01" x="39.75" y="104.22" style="fill: #9ca3af; stroke: #9ca3af; stroke-width: 0.8"/>
 </g>
 </g>
 <g>
 <text style="fill: #9ca3af; font: 7px 'DejaVu Sans', 'Bitstream Vera Sans', 'Computer Modern Sans Serif', 'Lucida Grande', 'Verdana', 'Geneva', 'Lucid', 'Arial', 'Helvetica', 'Avant Garde', sans-serif; text-anchor: end" x="32.75" y="106.88" transform="rotate(-0 32.75 106.88)">−20</text>
 </g>
 </g>
 <g>
 <g>
 <path d="M 39.75 76.5 
L 235.05 76.5 
" style="fill: none; stroke: #e5e7eb; stroke-opacity: 0.6; stroke-width: 0.5; stroke-linecap: square"/>
 </g>
 <g>
 <g>
 <use xlink:href="#m0442e36b01" x="39.75" y="76.5" style="fill: #9ca3af; stroke: #9ca3af; stroke-width: 0.8"/>
 </g>
 </g>
 <g>
 <text style="fill: #9ca3af; font: 7px 'DejaVu Sans', 'Bitstream Vera Sans', 'Computer Modern Sans Serif', 'Lucida Grande', 'Verdana', 'Geneva', 'Lucid', 'Arial', 'Helvetica', 'Avant Garde', sans-serif; text-anchor: end" x="32.75" y="79.16" transform="rotate(-0 32.75 79.16)">0</text>
 </g>
 </g>
 <g>
 <g>
 <path d="M 39.75 48.78 
L 235.05 48.78 
" style="fill: none; stroke: #e5e7eb; stroke-opacity: 0.6; stroke-width: 0.5; stroke-linecap: square"/>
 </g>
 <g>
 <g>
 <use xlink:href="#m0442e36b01" x="39.75" y="48.78" style="fill: #9ca3af; stroke: #9ca3af; stroke-width: 0.8"/>
 </g>
 </g>
 <g>
 <text style="fill: #9ca3af; font: 7px 'DejaVu Sans', 'Bitstream Vera Sans', 'Computer Modern Sans Serif', 'Lucida Grande', 'Verdana', 'Geneva', 'Lucid', 'Arial', 'Helvetica', 'Avant Garde', sans-serif; text-anchor: end" x="32.75" y="51.44" transform="rotate(-0 32.75 51.44)">20</text>
 </g>
 </g>
 <g>
 <g>
 <path d="M 39.75 21.06 
L 235.05 21.06 
" style="fill: none; stroke: #e5e7eb; stroke-opacity: 0.6; stroke-width: 0.5; stroke-linecap: square"/>
 </g>
 <g>
 <g>
 <use xlink:href="#m0442e36b01" x="39.75" y="21.06" style="fill: #9ca3af; stroke: #9ca3af; stroke-width: 0.8"/>
 </g>
 </g>
 <g>
 <text style="fill: #9ca3af; font: 7px 'DejaVu Sans', 'Bitstream Vera Sans', 'Computer Modern Sans Serif', 'Lucida Grande', 'Verdana', 'Geneva', 'Lucid', 'Arial', 'Helvetica', 'Avant Garde', sans-serif; text-anchor: end" x="32.75" y="23.72" transform="rotate(-0 32.75 23.72)">40</text>
 </g>
 </g>
 <g>
 <text style="fill: #9ca3af; font: 7px 'DejaVu Sans', 'Bitstream Vera Sans', 'Computer Modern Sans Serif', 'Lucida Grande', 'Verdana', 'Geneva', 'Lucid', 'Arial', 'Helvetica', 'Avant Garde', sans-serif; text-anchor: middle" x="12.52" y="76.5" transform="rotate(-90 12.52 76.5)">y</text>
 </g>
 </g>
 <g>
 <path d="M 61.53 178.55 
L 62.11 175.73 
L 64.36 165.53 
L 66.60 156.04 
L 68.85 147.24 
L 71.10 139.10 
L 73.35 131.60 
L 75.59 124.71 
L 77.84 118.40 
L 80.09 112.65 
L 82.34 107.44 
L 84.58 102.73 
L 86.83 98.50 
L 89.08 94.73 
L 91.33 91.39 
L 93.57 88.45 
L 95.82 85.89 
L 98.07 83.67 
L 100.32 81.79 
L 102.56 80.20 
L 104.81 78.89 
L 107.06 77.82 
L 109.31 76.98 
L 111.55 76.33 
L 113.80 75.86 
L 116.05 75.52 
L 118.29 75.31 
L 120.54 75.19 
L 122.79 75.13 
L 125.04 75.11 
L 127.28 75.11 
L 129.53 75.10 
L 131.78 75.05 
L 134.03 74.94 
L 136.27 74.74 
L 138.52 74.42 
L 140.77 73.96 
L 143.02 73.34 
L 145.26 72.52 
L 147.51 71.48 
L 149.76 70.20 
L 152.01 68.65 
L 154.25 66.81 
L 156.50 64.64 
L 158.75 62.12 
L 161.00 59.23 
L 163.24 55.94 
L 165.49 52.22 
L 167.74 48.05 
L 169.99 43.40 
L 172.23 38.25 
L 174.48 32.57 
L 176.73 26.34 
L 178.98 19.52 
L 181.22 12.10 
L 183.47 4.04 
L 184.77 -1 
" style="fill: none; stroke: #2563eb; stroke-width: 1.5; stroke-linecap: square"/>
 </g>
 <g>
 <path d="M 39.75 76.5 
L 235.05 76.5 
" style="fill: none; stroke: #9ca3af; stroke-width: 0.6; stroke-linecap: square"/>
 </g>
 <g>
 <path d="M 81.92 145.8 
L 81.92 7.2 
" style="fill: none; stroke-dasharray: 0.6,0.99; stroke-dashoffset: 0; stroke: #6b7280; stroke-width: 0.6"/>
 </g>
 <g>
 <path d="M 192.88 145.8 
L 192.88 7.2 
" style="fill: none; stroke-dasharray: 0.6,0.99; stroke-dashoffset: 0; stroke: #6b7280; stroke-width: 0.6"/>
 </g>
 <g>
 <path d="M 39.75 145.8 
L 39.75 7.2 
" style="fill: none; stroke: #9ca3af; stroke-width: 0.6; stroke-linejoin: miter; stroke-linecap: square"/>
 </g>
 <g>
 <path d="M 235.05 145.8 
L 235.05 7.2 
" style="fill: none; stroke: #9ca3af; stroke-width: 0.6; stroke-linejoin: miter; stroke-linecap: square"/>
 </g>
 <g>
 <path d="M 39.75 145.8 
L 235.05 145.8 
" style="fill: none; stroke: #9ca3af; stroke-width: 0.6; stroke-linejoin: miter; stroke-linecap: square"/>
 </g>
 <g>
 <path d="M 39.75 7.2 
L 235.05 7.2 
" style="fill: none; stroke: #9ca3af; stroke-width: 0.6; stroke-linejoin: miter; stroke-linecap: square"/>
 </g>
 </g>
 </g>
 <defs>
 </defs>
</svg>