<?xml version="1.0" encoding="utf-8" standalone="no"?>
<!DOCTYPE svg PUBLIC "-//W3C//DTD SVG 1.1//EN"
 "http://www.w3.org/Graphics/SVG/1.1/DTD/svg11.dtd">
<svg xmlns:xlink="http://www.w3.org/1999/xlink" width="242.25pt" height="177.55pt" viewBox="0 0 242.25 177.55" xmlns="http://www.w3.org/2000/svg" version="1.1">
 <g>
 <g>
 <path d="M 0 177.55 
L 242.25 177.55 
L 242.25 0 
L 0 0 
L 0 177.55 
z
" style="fill: none"/>
 </g>
 <g>
 <g>
 <path d="M 39.75 145.8 
L 235.05 145.8 
L 235.05 7.2 
L 39.75 7.2 
L 39.75 145.8 
z
" style="fill: none"/>
 </g>
 <g>
 <defs>
 <path d="M 81.92 -24.82 
L 81.92 -101.05 
L 84.18 -101.05 
L 86.44 -101.05 
L 88.71 -101.05 
L 90.97 -101.05 
L 93.24 -101.05 
L 95.50 -101.05 
L 97.77 -101.05 
L 100.03 -101.05 
L 102.30 -101.05 
L 104.56 -101.05 
L 106.83 -101.05 
L 109.09 -101.05 
L 111.35 -101.05 
L 113.62 -101.05 
L 115.88 -101.05 
L 118.15 -101.05 
L 120.41 -101.05 
L 122.68 -101.05 
L 124.94 -101.05 
L 127.21 -101.05 
L 129.47 -101.05 
L 131.74 -101.05 
L 134.00 -101.05 
L 136.27 -101.05 
L 138.53 -101.05 
L 140.79 -101.05 
L 143.06 -101.05 
L 145.32 -101.05 
L 147.59 -101.05 
L 149.85 -101.05 
L 152.12 -101.05 
L 154.38 -101.05 
L 156.65 -101.05 
L 158.91 -101.05 
L 161.18 -101.05 
L 163.44 -101.05 
L 165.71 -101.05 
L 167.97 -101.05 
L 170.23 -101.05 
L 172.50 -101.05 
L 174.76 -101.05 
L 177.03 -101.05 
L 179.29 -101.05 
L 181.56 -101.05 
L 183.82 -101.05 
L 186.09 -101.05 
L 188.35 -101.05 
L 190.62 -101.05 
L 192.88 -101.05 
L 192.88 -121.84 
L 192.88 -121.84 
L 190.62 -118.62 
L 188.35 -115.72 
L 186.09 -113.14 
L 183.82 -110.84 
L 181.56 -108.83 
L 179.29 -107.07 
L 177.03 -105.55 
L 174.76 -104.26 
L 172.50 -103.17 
L 170.23 -102.27 
L 167.97 -101.54 
L 165.71 -100.96 
L 163.44 -100.51 
L 161.18 -100.18 
L 158.91 -99.95 
L 156.65 -99.80 
L 154.38 -99.72 
L 152.12 -99.68 
L 149.85 -99.66 
L 147.59 -99.66 
L 145.32 -99.66 
L 143.06 -99.62 
L 140.79 -99.55 
L 138.53 -99.41 
L 136.27 -99.20 
L 134.00 -98.89 
L 131.74 -98.47 
L 129.47 -97.92 
L 127.21 -97.22 
L 124.94 -96.35 
L 122.68 -95.30 
L 120.41 -94.05 
L 118.15 -92.58 
L 115.88 -90.87 
L 113.62 -88.91 
L 111.35 -86.67 
L 109.09 -84.15 
L 106.83 -81.32 
L 104.56 -78.16 
L 102.30 -74.66 
L 100.03 -70.80 
L 97.77 -66.56 
L 95.50 -61.93 
L 93.24 -56.88 
L 90.97 -51.40 
L 88.71 -45.47 
L 86.44 -39.08 
L 84.18 -32.20 
L 81.92 -24.82 
z
" style="stroke: #2563eb; stroke-opacity: 0.15"/>
 </defs>
 <g>
 <use xlink:href="#m7960313fab" x="0" y="177.55" style="fill: #2563eb; fill-opacity: 0.15; stroke: #2563eb; stroke-opacity: 0.15"/>
 </g>
 </g>
 <g>
 <g>
 <g>
 <path d="M 59.72 145.8 
L 59.72 7.2 
" style="fill: none; stroke: #e5e7eb; stroke-opacity: 0.6; stroke-width: 0.5; stroke-linecap: square"/>
 </g>
 <g>
 <defs>
 <path d="M 0 0 
L 0 3.5 
" style="stroke: #9ca3af; stroke-width: 0.8"/>
 </defs>
 <g>
 <use xlink:href="#m2a22fdb4ec" x="59.72" y="145.8" style="fill: #9ca3af; stroke: #9ca3af; stroke-width: 0.8"/>
 </g>
 </g>
 <g>
 <text style="fill: #9ca3af; font: 7px 'DejaVu Sans', 'Bitstream Vera Sans', 'Computer Modern Sans Serif', 'Lucida Grande', 'Verdana', 'Geneva', 'Lucid', 'Arial', 'Helvetica', 'Avant Garde', sans-serif; text-anchor: middle" x="59.72" y="158.12" transform="rotate(-0 59.72 158.12)">−4</text>
 </g>
 </g>
 <g>
 <g>
 <path d="M 104.11 145.8 
L 104.11 7.2 
" style="fill: none; stroke: #e5e7eb; stroke-opacity: 0.6; stroke-width: 0.5; stroke-linecap: square"/>
 </g>
 <g>
 <g>
 <use xlink:href="#m2a22fdb4ec" x="104.11" y="145.8" style="fill: #9ca3af; stroke: #9ca3af; stroke-width: 0.8"/>
 </g>
 </g>
 <g>
 <text style="fill: #9ca3af; font: 7px 'DejaVu Sans', 'Bitstream Vera Sans', 'Computer Modern Sans Serif', 'Lucida Grande', 'Verdana', 'Geneva', 'Lucid', 'Arial', 'Helvetica', 'Avant Garde', sans-serif; text-anchor: middle" x="104.11" y="158.12" transform="rotate(-0 104.11 158.12)">−2</text>
 </g>
 </g>
 <g>
 <g>
 <path d="M 148.49 145.8 
L 148.49 7.2 
" style="fill: none; stroke: #e5e7eb; stroke-opacity: 0.6; stroke-width: 0.5; stroke-linecap: square"/>
 </g>
 <g>
 <g>
 <use xlink:href="#m2a22fdb4ec" x="148.49" y="145.8" style="fill: #9ca3af; stroke: #9ca3af; stroke-width: 0.8"/>
 </g>
 </g>
 <g>
 <text style="fill: #9ca3af; font: 7px 'DejaVu Sans', 'Bitstream Vera Sans', 'Computer Modern Sans Serif', 'Lucida Grande', 'Verdana', 'Geneva', 'Lucid', 'Arial', 'Helvetica', 'Avant Garde', sans-serif; text-anchor: middle" x="148.49" y="158.12" transform="rotate(-0 148.49 158.12)">0</text>
 </g>
 </g>
 <g>
 <g>
 <path d="M 192.88 145.8 
L 192.88 7.2 
" style="fill: none; stroke: #e5e7eb; stroke-opacity: 0.6; stroke-width: 0.5; stroke-linecap: square"/>
 </g>
 <g>
 <g>
 <use xlink:href="#m2a22fdb4ec" x="192.88" y="145.8" style="fill: #9ca3af; stroke: #9ca3af; stroke-width: 0.8"/>
 </g>
 </g>
 <g>
 <text style="fill: #9ca3af; font: 7px 'DejaVu Sans', 'Bitstream Vera Sans', 'Computer Modern Sans Serif', 'Lucida Grande', 'Verdana', 'Geneva', 'Lucid', 'Arial', 'Helvetica', 'Avant Garde', sans-serif; text-anchor: middle" x="192.88" y="158.12" transform="rotate(-0 192.88 158.12)">2</text>
 </g>
 </g>
 <g>
 <text style="fill: #9ca3af; font: 7px 'DejaVu Sans', 'Bitstream Vera Sans', 'Computer Modern Sans Serif', 'Lucida Grande', 'Verdana', 'Geneva', 'Lucid', 'Arial', 'Helvetica', 'Avant Garde', sans-serif; text-anchor: middle" x="137.40" y="168.89" transform="rotate(-0 137.40 168.89)">x</text>
 </g>
 </g>
 <g>
 <g>
 <g>
 <path d="M 39.75 131.94 
L 235.05 131.94 
" style="fill: none; stroke: #e5e7eb; stroke-opacity: 0.6; stroke-width: 0.5; stroke-linecap: square"/>
 </g>
 <g>
 <defs>
 <path d="M 0 0 
L -3.5 0 
" style="stroke: #9ca3af; stroke-width: 0.8"/>
 </defs>
 <g>
 <use xlink:href="#m856e94fde7" x="39.75" y="131.94" style="fill: #9ca3af; stroke: #9ca3af; stroke-width: 0.8"/>
 </g>
 </g>
 <g>
 <text style="fill: #9ca3af; font: 7px 'DejaVu Sans', 'Bitstream Vera Sans', 'Computer Modern Sans Serif', 'Lucida Grande', 'Verdana', 'Geneva', 'Lucid', 'Arial', 'Helvetica', 'Avant Garde', sans-serif; text-anchor: end" x="32.75" y="134.60" transform="rotate(-0 32.75 134.60)">−40</text>
 </g>
 </g>
 <g>
 <g>
 <path d="M 39.75 104.22 
L 235.05 104.22 
" style="fill: none; stroke: #e5e7eb; stroke-opacity: 0.6; stroke-width: 0.5; stroke-linecap: square"/>
 </g>
 <g>
 <g>
 <use xlink:href="#m856e94fde7" x="39.75" y="104.22" style="fill: #9ca3af; stroke: #9ca3af; stroke-width: 0.8"/>
 </g>
 </g>
 <g>
 <text style="fill: #9ca3af; font: 7px 'DejaVu Sans', 'Bitstream Vera Sans', 'Computer Modern Sans Serif', 'Lucida Grande', 'Verdana', 'Geneva', 'Lucid', 'Arial', 'Helvetica', 'Avant Garde', sans-serif; text-anchor: end" x="32.75" y="106.88" transform="rotate(-0 32.75 106.88)">−20</text>
 </g>
 </g>
 <g>
 <g>
 <path d="M 39.75 76.5 
L 235.05 76.5 
" style="fill: none; stroke: #e5e7eb; stroke-opacity: 0.6; stroke-width: 0.5; stroke-linecap: square"/>
 </g>
 <g>
 <g>
 <use xlink:href="#m856e94fde7" x="39.75" y="76.5" style="fill: #9ca3af; stroke: #9ca3af; stroke-width: 0.8"/>
 </g>
 </g>
 <g>
 <text style="fill: #9ca3af; font: 7px 'DejaVu Sans', 'Bitstream Vera Sans', 'Computer Modern Sans Serif', 'Lucida Grande', 'Verdana', 'Geneva', 'Lucid', 'Arial', 'Helvetica', 'Avant Garde', sans-serif; text-anchor: end" x="32.75" y="79.16" transform="rotate(-0 32.75 79.16)">0</text>
 </g>
 </g>
 <g>
 <g>
 <path d="M 39.75 48.78 
L 235.05 48.78 
" style="fill: none; stroke: #e5e7eb; stroke-opacity: 0.6; stroke-width: 0.5; stroke-linecap: square"/>
 </g>
 <g>
 <g>
 <use xlink:href="#m856e94fde7" x="39.75" y="48.78" style="fill: #9ca3af; stroke: #9ca3af; stroke-width: 0.8"/>
 </g>
 </g>
 <g>
 <text style="fill: #9ca3af; font: 7px 'DejaVu Sans', 'Bitstream Vera Sans', 'Computer Modern Sans Serif', 'Lucida Grande', 'Verdana', 'Geneva', 'Lucid', 'Arial', 'Helvetica', 'Avant Garde', sans-serif; text-anchor: end" x="32.75" y="51.44" transform="rotate(-0 32.75 51.44)">20</text>
 </g>
 </g>
 <g>
 <g>
 <path d="M 39.75 21.06 
L 235.05 21.06 
" style="fill: none; stroke: #e5e7eb; stroke-opacity: 0.6; stroke-width: 0.5; stroke-linecap: square"/>
 </g>
 <g>
 <g>
 <use xlink:href="#m856e94fde7" x="39.75" y="21.06" style="fill: #9ca3af; stroke: #9ca3af; stroke-width: 0.8"/>
 </g>
 </g>
 <g>
 <text style="fill: #9ca3af; font: 7px 'DejaVu Sans', 'Bitstream Vera Sans', 'Computer Modern Sans Serif', 'Lucida Grande', 'Verdana', 'Geneva', 'Lucid', 'Arial', 'Helvetica', 'Avant Garde', sans-serif; text-anchor: end" x="32.75" y="23.72" transform="rotate(-0 32.75 23.72)">40</text>
 </g>
 </g>
 <g>
 <text style="fill: #9ca3af; font: 7px 'DejaVu Sans', 'Bitstream Vera Sans', 'Computer Modern Sans Serif', 'Lucida Grande', 'Verdana', 'Geneva', 'Lucid', 'Arial', 'Helvetica', 'Avant Garde', sans-serif; text-anchor: middle" x="12.52" y="76.5" transform="rotate(-90 12.52 76.5)">y</text>
 </g>
 </g>
 <g>
 <path d="M 75.01 178.55 
L 75.59 176.13 
L 77.84 167.32 
L 80.09 159.06 
L 82.34 151.32 
L 84.58 144.09 
L 86.83 137.34 
L 89.08 131.08 
L 91.33 125.27 
L 93.57 119.90 
L 95.82 114.95 
L 98.07 110.40 
L 100.32 106.25 
L 102.56 102.46 
L 104.81 99.03 
L 107.06 95.93 
L 109.31 93.15 
L 111.55 90.67 
L 113.80 88.48 
L 116.05 86.55 
L 118.29 84.87 
L 120.54 83.42 
L 122.79 82.19 
L 125.04 81.16 
L 127.28 80.31 
L 129.53 79.62 
L 131.78 79.07 
L 134.03 78.65 
L 136.27 78.35 
L 138.52 78.14 
L 140.77 78.00 
L 143.02 77.93 
L 145.26 77.89 
L 147.51 77.89 
L 149.76 77.89 
L 152.01 77.88 
L 154.25 77.84 
L 156.50 77.76 
L 158.75 77.61 
L 161.00 77.39 
L 163.24 77.07 
L 165.49 76.64 
L 167.74 76.08 
L 169.99 75.37 
L 172.23 74.49 
L 174.48 73.44 
L 176.73 72.18 
L 178.98 70.70 
L 181.22 69.00 
L 183.47 67.04 
L 185.72 64.81 
L 187.96 62.29 
L 190.21 59.47 
L 192.46 56.34 
L 194.71 52.86 
L 196.95 49.03 
L 199.20 44.82 
L 201.45 40.23 
L 203.70 35.23 
L 205.94 29.80 
L 208.19 23.94 
L 210.44 17.61 
L 212.69 10.81 
L 214.93 3.51 
L 216.23 -1 
" style="fill: none; stroke: #2563eb; stroke-width: 1.5; stroke-linecap: square"/>
 </g>
 <g>
 <path d="M 39.75 76.5 
L 235.05 76.5 
" style="fill: none; stroke: #9ca3af; stroke-width: 0.6; stroke-linecap: square"/>
 </g>
 <g>
 <path d="M 81.92 145.8 
L 81.92 7.2 
" style="fill: none; stroke-dasharray: 0.6,0.99; stroke-dashoffset: 0; stroke: #6b7280; stroke-width: 0.6"/>
 </g>
 <g>
 <path d="M 192.88 145.8 
L 192.88 7.2 
" style="fill: none; stroke-dasharray: 0.6,0.99; stroke-dashoffset: 0; stroke: #6b7280; stroke-width: 0.6"/>
 </g>
 <g>
 <path d="M 39.75 145.8 
L 39.75 7.2 
" style="fill: none; stroke: #9ca3af; stroke-width: 0.6; stroke-linejoin: miter; stroke-linecap: square"/>
 </g>
 <g>
 <path d="M 235.05 145.8 
L 235.05 7.2 
" style="fill: none; stroke: #9ca3af; stroke-width: 0.6; stroke-linejoin: miter; stroke-linecap: square"/>
 </g>
 <g>
 <path d="M 39.75 145.8 
L 235.05 145.8 
" style="fill: none; stroke: #9ca3af; stroke-width: 0.6; stroke-linejoin: miter; stroke-linecap: square"/>
 </g>
 <g>
 <path d="M 39.75 7.2 
L 235.05 7.2 
" style="fill: none; stroke: #9ca3af; stroke-width: 0.6; stroke-linejoin: miter; stroke-linecap: square"/>
 </g>
 </g>
 </g>
 <defs>
 </defs>
</svg>