<?xml version="1.0" encoding="utf-8" standalone="no"?>
<!DOCTYPE svg PUBLIC "-//W3C//DTD SVG 1.1//EN"
 "http://www.w3.org/Graphics/SVG/1.1/DTD/svg11.dtd">
<svg xmlns:xlink="http://www.w3.org/1999/xlink" width="244.47pt" height="177.55pt" viewBox="0 0 244.47 177.55" xmlns="http://www.w3.org/2000/svg" version="1.1">
 <g>
 <g>
 <path d="M 0 177.55 
L 244.47 177.55 
L 244.47 0 
L 0 0 
L 0 177.55 
z
" style="fill: none"/>
 </g>
 <g>
 <g>
 <path d="M 41.97 145.8 
L 237.27 145.8 
L 237.27 7.2 
L 41.97 7.2 
L 41.97 145.8 
z
" style="fill: none"/>
 </g>
 <g>
 <defs>
 <path d="M 84.14 -90.41 
L 84.14 -149.51 
L 86.40 -149.51 
L 88.67 -149.51 
L 90.93 -149.51 
L 93.20 -149.51 
L 95.46 -149.51 
L 97.73 -149.51 
L 99.99 -149.51 
L 102.26 -149.51 
L 104.52 -149.51 
L 106.79 -149.51 
L 109.05 -149.51 
L 111.32 -149.51 
L 113.58 -149.51 
L 115.84 -149.51 
L 118.11 -149.51 
L 120.37 -149.51 
L 122.64 -149.51 
L 124.90 -149.51 
L 127.17 -149.51 
L 129.43 -149.51 
L 131.70 -149.51 
L 133.96 -149.51 
L 136.23 -149.51 
L 138.49 -149.51 
L 140.75 -149.51 
L 143.02 -149.51 
L 145.28 -149.51 
L 147.55 -149.51 
L 149.81 -149.51 
L 152.08 -149.51 
L 154.34 -149.51 
L 156.61 -149.51 
L 158.87 -149.51 
L 161.14 -149.51 
L 163.40 -149.51 
L 165.67 -149.51 
L 167.93 -149.51 
L 170.19 -149.51 
L 172.46 -149.51 
L 174.72 -149.51 
L 176.99 -149.51 
L 179.25 -149.51 
L 181.52 -149.51 
L 183.78 -149.51 
L 186.05 -149.51 
L 188.31 -149.51 
L 190.58 -149.51 
L 192.84 -149.51 
L 195.11 -149.51 
L 195.11 -141.51 
L 195.11 -141.51 
L 192.84 -141.18 
L 190.58 -140.83 
L 188.31 -140.47 
L 186.05 -140.10 
L 183.78 -139.70 
L 181.52 -139.30 
L 179.25 -138.87 
L 176.99 -138.43 
L 174.72 -137.96 
L 172.46 -137.48 
L 170.19 -136.98 
L 167.93 -136.46 
L 165.67 -135.92 
L 163.40 -135.35 
L 161.14 -134.76 
L 158.87 -134.14 
L 156.61 -133.50 
L 154.34 -132.84 
L 152.08 -132.14 
L 149.81 -131.42 
L 147.55 -130.66 
L 145.28 -129.88 
L 143.02 -129.06 
L 140.75 -128.21 
L 138.49 -127.32 
L 136.23 -126.40 
L 133.96 -125.43 
L 131.70 -124.43 
L 129.43 -123.39 
L 127.17 -122.30 
L 124.90 -121.16 
L 122.64 -119.98 
L 120.37 -118.75 
L 118.11 -117.47 
L 115.84 -116.14 
L 113.58 -114.75 
L 111.32 -113.30 
L 109.05 -111.79 
L 106.79 -110.22 
L 104.52 -108.58 
L 102.26 -106.87 
L 99.99 -105.10 
L 97.73 -103.25 
L 95.46 -101.32 
L 93.20 -99.31 
L 90.93 -97.22 
L 88.67 -95.04 
L 86.40 -92.77 
L 84.14 -90.41 
z
" style="stroke: #2563eb; stroke-opacity: 0.15"/>
 </defs>
 <g>
 <use xlink:href="#mab1d3b8858" x="0" y="177.55" style="fill: #2563eb; fill-opacity: 0.15; stroke: #2563eb; stroke-opacity: 0.15"/>
 </g>
 </g>
 <g>
 <g>
 <g>
 <path d="M 84.14 145.8 
L 84.14 7.2 
" style="fill: none; stroke: #e5e7eb; stroke-opacity: 0.6; stroke-width: 0.5; stroke-linecap: square"/>
 </g>
 <g>
 <defs>
 <path d="M 0 0 
L 0 3.5 
" style="stroke: #9ca3af; stroke-width: 0.8"/>
 </defs>
 <g>
 <use xlink:href="#m23f71a5ee7" x="84.14" y="145.8" style="fill: #9ca3af; stroke: #9ca3af; stroke-width: 0.8"/>
 </g>
 </g>
 <g>
 <text style="fill: #9ca3af; font: 7px 'DejaVu Sans', 'Bitstream Vera Sans', 'Computer Modern Sans Serif', 'Lucida Grande', 'Verdana', 'Geneva', 'Lucid', 'Arial', 'Helvetica', 'Avant Garde', sans-serif; text-anchor: middle" x="84.14" y="158.12" transform="rotate(-0 84.14 158.12)">0</text>
 </g>
 </g>
 <g>
 <g>
 <path d="M 139.62 145.8 
L 139.62 7.2 
" style="fill: none; stroke: #e5e7eb; stroke-opacity: 0.6; stroke-width: 0.5; stroke-linecap: square"/>
 </g>
 <g>
 <g>
 <use xlink:href="#m23f71a5ee7" x="139.62" y="145.8" style="fill: #9ca3af; stroke: #9ca3af; stroke-width: 0.8"/>
 </g>
 </g>
 <g>
 <text style="fill: #9ca3af; font: 7px 'DejaVu Sans', 'Bitstream Vera Sans', 'Computer Modern Sans Serif', 'Lucida Grande', 'Verdana', 'Geneva', 'Lucid', 'Arial', 'Helvetica', 'Avant Garde', sans-serif; text-anchor: middle" x="139.62" y="158.12" transform="rotate(-0 139.62 158.12)">1</text>
 </g>
 </g>
 <g>
 <g>
 <path d="M 195.11 145.8 
L 195.11 7.2 
" style="fill: none; stroke: #e5e7eb; stroke-opacity: 0.6; stroke-width: 0.5; stroke-linecap: square"/>
 </g>
 <g>
 <g>
 <use xlink:href="#m23f71a5ee7" x="195.11" y="145.8" style="fill: #9ca3af; stroke: #9ca3af; stroke-width: 0.8"/>
 </g>
 </g>
 <g>
 <text style="fill: #9ca3af; font: 7px 'DejaVu Sans', 'Bitstream Vera Sans', 'Computer Modern Sans Serif', 'Lucida Grande', 'Verdana', 'Geneva', 'Lucid', 'Arial', 'Helvetica', 'Avant Garde', sans-serif; text-anchor: middle" x="195.11" y="158.12" transform="rotate(-0 195.11 158.12)">2</text>
 </g>
 </g>
 <g>
 <text style="fill: #9ca3af; font: 7px 'DejaVu Sans', 'Bitstream Vera Sans', 'Computer Modern Sans Serif', 'Lucida Grande', 'Verdana', 'Geneva', 'Lucid', 'Arial', 'Helvetica', 'Avant Garde', sans-serif; text-anchor: middle" x="139.62" y="168.89" transform="rotate(-0 139.62 168.89)">x</text>
 </g>
 </g>
 <g>
 <g>
 <g>
 <path d="M 41.97 116.69 
L 237.27 116.69 
" style="fill: none; stroke: #e5e7eb; stroke-opacity: 0.6; stroke-width: 0.5; stroke-linecap: square"/>
 </g>
 <g>
 <defs>
 <path d="M 0 0 
L -3.5 0 
" style="stroke: #9ca3af; stroke-width: 0.8"/>
 </defs>
 <g>
 <use xlink:href="#m965a893889" x="41.97" y="116.69" style="fill: #9ca3af; stroke: #9ca3af; stroke-width: 0.8"/>
 </g>
 </g>
 <g>
 <text style="fill: #9ca3af; font: 7px 'DejaVu Sans', 'Bitstream Vera Sans', 'Computer Modern Sans Serif', 'Lucida Grande', 'Verdana', 'Geneva', 'Lucid', 'Arial', 'Helvetica', 'Avant Garde', sans-serif; text-anchor: end" x="34.97" y="119.35" transform="rotate(-0 34.97 119.35)">−1.5</text>
 </g>
 </g>
 <g>
 <g>
 <path d="M 41.97 87.14 
L 237.27 87.14 
" style="fill: none; stroke: #e5e7eb; stroke-opacity: 0.6; stroke-width: 0.5; stroke-linecap: square"/>
 </g>
 <g>
 <g>
 <use xlink:href="#m965a893889" x="41.97" y="87.14" style="fill: #9ca3af; stroke: #9ca3af; stroke-width: 0.8"/>
 </g>
 </g>
 <g>
 <text style="fill: #9ca3af; font: 7px 'DejaVu Sans', 'Bitstream Vera Sans', 'Computer Modern Sans Serif', 'Lucida Grande', 'Verdana', 'Geneva', 'Lucid', 'Arial', 'Helvetica', 'Avant Garde', sans-serif; text-anchor: end" x="34.97" y="89.80" transform="rotate(-0 34.97 89.80)">−1.0</text>
 </g>
 </g>
 <g>
 <g>
 <path d="M 41.97 57.59 
L 237.27 57.59 
" style="fill: none; stroke: #e5e7eb; stroke-opacity: 0.6; stroke-width: 0.5; stroke-linecap: square"/>
 </g>
 <g>
 <g>
 <use xlink:href="#m965a893889" x="41.97" y="57.59" style="fill: #9ca3af; stroke: #9ca3af; stroke-width: 0.8"/>
 </g>
 </g>
 <g>
 <text style="fill: #9ca3af; font: 7px 'DejaVu Sans', 'Bitstream Vera Sans', 'Computer Modern Sans Serif', 'Lucida Grande', 'Verdana', 'Geneva', 'Lucid', 'Arial', 'Helvetica', 'Avant Garde', sans-serif; text-anchor: end" x="34.97" y="60.25" transform="rotate(-0 34.97 60.25)">−0.5</text>
 </g>
 </g>
 <g>
 <g>
 <path d="M 41.97 28.04 
L 237.27 28.04 
" style="fill: none; stroke: #e5e7eb; stroke-opacity: 0.6; stroke-width: 0.5; stroke-linecap: square"/>
 </g>
 <g>
 <g>
 <use xlink:href="#m965a893889" x="41.97" y="28.04" style="fill: #9ca3af; stroke: #9ca3af; stroke-width: 0.8"/>
 </g>
 </g>
 <g>
 <text style="fill: #9ca3af; font: 7px 'DejaVu Sans', 'Bitstream Vera Sans', 'Computer Modern Sans Serif', 'Lucida Grande', 'Verdana', 'Geneva', 'Lucid', 'Arial', 'Helvetica', 'Avant Garde', sans-serif; text-anchor: end" x="34.97" y="30.70" transform="rotate(-0 34.97 30.70)">0.0</text>
 </g>
 </g>
 <g>
 <text style="fill: #9ca3af; font: 7px 'DejaVu Sans', 'Bitstream Vera Sans', 'Computer Modern Sans Serif', 'Lucida Grande', 'Verdana', 'Geneva', 'Lucid', 'Arial', 'Helvetica', 'Avant Garde', sans-serif; text-anchor: middle" x="12.52" y="76.5" transform="rotate(-90 12.52 76.5)">y</text>
 </g>
 </g>
 <g>
 <path d="M 50.85 135.73 
L 53.10 131.46 
L 55.34 127.35 
L 57.59 123.41 
L 59.84 119.62 
L 62.09 115.99 
L 64.33 112.50 
L 66.58 109.14 
L 68.83 105.92 
L 71.08 102.83 
L 73.32 99.86 
L 75.57 97.01 
L 77.82 94.27 
L 80.07 91.64 
L 82.31 89.12 
L 84.56 86.69 
L 86.81 84.37 
L 89.06 82.13 
L 91.30 79.98 
L 93.55 77.92 
L 95.80 75.94 
L 98.05 74.04 
L 100.29 72.21 
L 102.54 70.46 
L 104.79 68.77 
L 107.04 67.16 
L 109.28 65.60 
L 111.53 64.11 
L 113.78 62.68 
L 116.02 61.31 
L 118.27 59.98 
L 120.52 58.72 
L 122.77 57.50 
L 125.01 56.33 
L 127.26 55.21 
L 129.51 54.13 
L 131.76 53.09 
L 134.00 52.10 
L 136.25 51.14 
L 138.50 50.22 
L 140.75 49.34 
L 142.99 48.50 
L 145.24 47.69 
L 147.49 46.91 
L 149.74 46.16 
L 151.98 45.44 
L 154.23 44.75 
L 156.48 44.08 
L 158.73 43.45 
L 160.97 42.83 
L 163.22 42.25 
L 165.47 41.68 
L 167.72 41.14 
L 169.96 40.62 
L 172.21 40.12 
L 174.46 39.64 
L 176.70 39.18 
L 178.95 38.74 
L 181.20 38.31 
L 183.45 37.91 
L 185.69 37.51 
L 187.94 37.14 
L 190.19 36.78 
L 192.44 36.43 
L 194.68 36.10 
L 196.93 35.78 
L 199.18 35.47 
L 201.43 35.17 
L 203.67 34.89 
L 205.92 34.62 
L 208.17 34.36 
L 210.42 34.11 
L 212.66 33.86 
L 214.91 33.63 
L 217.16 33.41 
L 219.41 33.20 
L 221.65 32.99 
L 223.90 32.80 
L 226.15 32.61 
L 228.40 32.43 
" style="fill: none; stroke: #2563eb; stroke-width: 1.5; stroke-linecap: square"/>
 </g>
 <g>
 <path d="M 41.97 28.04 
L 237.27 28.04 
" style="fill: none; stroke: #9ca3af; stroke-width: 0.6; stroke-linecap: square"/>
 </g>
 <g>
 <path d="M 84.14 145.8 
L 84.14 7.2 
" style="fill: none; stroke-dasharray: 0.6,0.99; stroke-dashoffset: 0; stroke: #6b7280; stroke-width: 0.6"/>
 </g>
 <g>
 <path d="M 195.11 145.8 
L 195.11 7.2 
" style="fill: none; stroke-dasharray: 0.6,0.99; stroke-dashoffset: 0; stroke: #6b7280; stroke-width: 0.6"/>
 </g>
 <g>
 <path d="M 41.97 145.8 
L 41.97 7.2 
" style="fill: none; stroke: #9ca3af; stroke-width: 0.6; stroke-linejoin: miter; stroke-linecap: square"/>
 </g>
 <g>
 <path d="M 237.27 145.8 
L 237.27 7.2 
" style="fill: none; stroke: #9ca3af; stroke-width: 0.6; stroke-linejoin: miter; stroke-linecap: square"/>
 </g>
 <g>
 <path d="M 41.97 145.8 
L 237.27 145.8 
" style="fill: none; stroke: #9ca3af; stroke-width: 0.6; stroke-linejoin: miter; stroke-linecap: square"/>
 </g>
 <g>
 <path d="M 41.97 7.2 
L 237.27 7.2 
" style="fill: none; stroke: #9ca3af; stroke-width: 0.6; stroke-linejoin: miter; stroke-linecap: square"/>
 </g>
 </g>
 </g>
 <defs>
 </defs>
</svg>