<?xml version="1.0" encoding="utf-8" standalone="no"?>
<!DOCTYPE svg PUBLIC "-//W3C//DTD SVG 1.1//EN"
 "http://www.w3.org/Graphics/SVG/1.1/DTD/svg11.dtd">
<svg xmlns:xlink="http://www.w3.org/1999/xlink" width="238.61pt" height="177.55pt" viewBox="0 0 238.61 177.55" xmlns="http://www.w3.org/2000/svg" version="1.1">
 <g>
 <g>
 <path d="M 0 177.55 
L 238.61 177.55 
L 238.61 0 
L 0 0 
L 0 177.55 
z
" style="fill: none"/>
 </g>
 <g>
 <g>
 <path d="M 36.11 145.8 
L 231.41 145.8 
L 231.41 7.2 
L 36.11 7.2 
L 36.11 145.8 
z
" style="fill: none"/>
 </g>
 <g>
 <defs>
 <path d="M 78.27 -101.05 
L 78.27 -101.05 
L 80.54 -104.28 
L 82.80 -107.37 
L 85.07 -110.32 
L 87.33 -113.15 
L 89.60 -115.83 
L 91.86 -118.39 
L 94.13 -120.81 
L 96.39 -123.09 
L 98.66 -125.24 
L 100.92 -127.26 
L 103.18 -129.14 
L 105.45 -130.89 
L 107.71 -132.50 
L 109.98 -133.98 
L 112.24 -135.32 
L 114.51 -136.53 
L 116.77 -137.61 
L 119.04 -138.55 
L 121.30 -139.36 
L 123.57 -140.03 
L 125.83 -140.57 
L 128.10 -140.97 
L 130.36 -141.24 
L 132.62 -141.37 
L 134.89 -141.37 
L 137.15 -141.24 
L 139.42 -140.97 
L 141.68 -140.57 
L 143.95 -140.03 
L 146.21 -139.36 
L 148.48 -138.55 
L 150.74 -137.61 
L 153.01 -136.53 
L 155.27 -135.32 
L 157.54 -133.98 
L 159.80 -132.50 
L 162.06 -130.89 
L 164.33 -129.14 
L 166.59 -127.26 
L 168.86 -125.24 
L 171.12 -123.09 
L 173.39 -120.81 
L 175.65 -118.39 
L 177.92 -115.83 
L 180.18 -113.15 
L 182.45 -110.32 
L 184.71 -107.37 
L 186.98 -104.28 
L 189.24 -101.05 
L 189.24 -101.05 
L 189.24 -101.05 
L 186.98 -97.82 
L 184.71 -94.73 
L 182.45 -91.77 
L 180.18 -88.95 
L 177.92 -86.26 
L 175.65 -83.71 
L 173.39 -81.29 
L 171.12 -79.01 
L 168.86 -76.86 
L 166.59 -74.84 
L 164.33 -72.96 
L 162.06 -71.21 
L 159.80 -69.60 
L 157.54 -68.12 
L 155.27 -66.77 
L 153.01 -65.56 
L 150.74 -64.49 
L 148.48 -63.55 
L 146.21 -62.74 
L 143.95 -62.07 
L 141.68 -61.53 
L 139.42 -61.13 
L 137.15 -60.86 
L 134.89 -60.73 
L 132.62 -60.73 
L 130.36 -60.86 
L 128.10 -61.13 
L 125.83 -61.53 
L 123.57 -62.07 
L 121.30 -62.74 
L 119.04 -63.55 
L 116.77 -64.49 
L 114.51 -65.56 
L 112.24 -66.77 
L 109.98 -68.12 
L 107.71 -69.60 
L 105.45 -71.21 
L 103.18 -72.96 
L 100.92 -74.84 
L 98.66 -76.86 
L 96.39 -79.01 
L 94.13 -81.29 
L 91.86 -83.71 
L 89.60 -86.26 
L 87.33 -88.95 
L 85.07 -91.77 
L 82.80 -94.73 
L 80.54 -97.82 
L 78.27 -101.05 
z
" style="stroke: #2563eb; stroke-opacity: 0.15"/>
 </defs>
 <g>
 <use xlink:href="#mbe8b5cee7c" x="0" y="177.55" style="fill: #2563eb; fill-opacity: 0.15; stroke: #2563eb; stroke-opacity: 0.15"/>
 </g>
 </g>
 <g>
 <g>
 <g>
 <path d="M 55.29 145.8 
L 55.29 7.2 
" style="fill: none; stroke: #e5e7eb; stroke-opacity: 0.6; stroke-width: 0.5; stroke-linecap: square"/>
 </g>
 <g>
 <defs>
 <path d="M 0 0 
L 0 3.5 
" style="stroke: #9ca3af; stroke-width: 0.8"/>
 </defs>
 <g>
 <use xlink:href="#md2cb3c1313" x="55.29" y="145.8" style="fill: #9ca3af; stroke: #9ca3af; stroke-width: 0.8"/>
 </g>
 </g>
 <g>
 <text style="fill: #9ca3af; font: 7px 'DejaVu Sans', 'Bitstream Vera Sans', 'Computer Modern Sans Serif', 'Lucida Grande', 'Verdana', 'Geneva', 'Lucid', 'Arial', 'Helvetica', 'Avant Garde', sans-serif; text-anchor: middle" x="55.29" y="158.12" transform="rotate(-0 55.29 158.12)">−1.0</text>
 </g>
 </g>
 <g>
 <g>
 <path d="M 94.52 145.8 
L 94.52 7.2 
" style="fill: none; stroke: #e5e7eb; stroke-opacity: 0.6; stroke-width: 0.5; stroke-linecap: square"/>
 </g>
 <g>
 <g>
 <use xlink:href="#md2cb3c1313" x="94.52" y="145.8" style="fill: #9ca3af; stroke: #9ca3af; stroke-width: 0.8"/>
 </g>
 </g>
 <g>
 <text style="fill: #9ca3af; font: 7px 'DejaVu Sans', 'Bitstream Vera Sans', 'Computer Modern Sans Serif', 'Lucida Grande', 'Verdana', 'Geneva', 'Lucid', 'Arial', 'Helvetica', 'Avant Garde', sans-serif; text-anchor: middle" x="94.52" y="158.12" transform="rotate(-0 94.52 158.12)">−0.5</text>
 </g>
 </g>
 <g>
 <g>
 <path d="M 133.76 145.8 
L 133.76 7.2 
" style="fill: none; stroke: #e5e7eb; stroke-opacity: 0.6; stroke-width: 0.5; stroke-linecap: square"/>
 </g>
 <g>
 <g>
 <use xlink:href="#md2cb3c1313" x="133.76" y="145.8" style="fill: #9ca3af; stroke: #9ca3af; stroke-width: 0.8"/>
 </g>
 </g>
 <g>
 <text style="fill: #9ca3af; font: 7px 'DejaVu Sans', 'Bitstream Vera Sans', 'Computer Modern Sans Serif', 'Lucida Grande', 'Verdana', 'Geneva', 'Lucid', 'Arial', 'Helvetica', 'Avant Garde', sans-serif; text-anchor: middle" x="133.76" y="158.12" transform="rotate(-0 133.76 158.12)">0.0</text>
 </g>
 </g>
 <g>
 <g>
 <path d="M 172.99 145.8 
L 172.99 7.2 
" style="fill: none; stroke: #e5e7eb; stroke-opacity: 0.6; stroke-width: 0.5; stroke-linecap: square"/>
 </g>
 <g>
 <g>
 <use xlink:href="#md2cb3c1313" x="172.99" y="145.8" style="fill: #9ca3af; stroke: #9ca3af; stroke-width: 0.8"/>
 </g>
 </g>
 <g>
 <text style="fill: #9ca3af; font: 7px 'DejaVu Sans', 'Bitstream Vera Sans', 'Computer Modern Sans Serif', 'Lucida Grande', 'Verdana', 'Geneva', 'Lucid', 'Arial', 'Helvetica', 'Avant Garde', sans-serif; text-anchor: middle" x="172.99" y="158.12" transform="rotate(-0 172.99 158.12)">0.5</text>
 </g>
 </g>
 <g>
 <g>
 <path d="M 212.22 145.8 
L 212.22 7.2 
" style="fill: none; stroke: #e5e7eb; stroke-opacity: 0.6; stroke-width: 0.5; stroke-linecap: square"/>
 </g>
 <g>
 <g>
 <use xlink:href="#md2cb3c1313" x="212.22" y="145.8" style="fill: #9ca3af; stroke: #9ca3af; stroke-width: 0.8"/>
 </g>
 </g>
 <g>
 <text style="fill: #9ca3af; font: 7px 'DejaVu Sans', 'Bitstream Vera Sans', 'Computer Modern Sans Serif', 'Lucida Grande', 'Verdana', 'Geneva', 'Lucid', 'Arial', 'Helvetica', 'Avant Garde', sans-serif; text-anchor: middle" x="212.22" y="158.12" transform="rotate(-0 212.22 158.12)">1.0</text>
 </g>
 </g>
 <g>
 <text style="fill: #9ca3af; font: 7px 'DejaVu Sans', 'Bitstream Vera Sans', 'Computer Modern Sans Serif', 'Lucida Grande', 'Verdana', 'Geneva', 'Lucid', 'Arial', 'Helvetica', 'Avant Garde', sans-serif; text-anchor: middle" x="133.76" y="168.89" transform="rotate(-0 133.76 168.89)">x</text>
 </g>
 </g>
 <g>
 <g>
 <g>
 <path d="M 36.11 116.84 
L 231.41 116.84 
" style="fill: none; stroke: #e5e7eb; stroke-opacity: 0.6; stroke-width: 0.5; stroke-linecap: square"/>
 </g>
 <g>
 <defs>
 <path d="M 0 0 
L -3.5 0 
" style="stroke: #9ca3af; stroke-width: 0.8"/>
 </defs>
 <g>
 <use xlink:href="#m7b3cfb1b25" x="36.11" y="116.84" style="fill: #9ca3af; stroke: #9ca3af; stroke-width: 0.8"/>
 </g>
 </g>
 <g>
 <text style="fill: #9ca3af; font: 7px 'DejaVu Sans', 'Bitstream Vera Sans', 'Computer Modern Sans Serif', 'Lucida Grande', 'Verdana', 'Geneva', 'Lucid', 'Arial', 'Helvetica', 'Avant Garde', sans-serif; text-anchor: end" x="29.11" y="119.50" transform="rotate(-0 29.11 119.50)">0.0</text>
 </g>
 </g>
 <g>
 <g>
 <path d="M 36.11 76.5 
L 231.41 76.5 
" style="fill: none; stroke: #e5e7eb; stroke-opacity: 0.6; stroke-width: 0.5; stroke-linecap: square"/>
 </g>
 <g>
 <g>
 <use xlink:href="#m7b3cfb1b25" x="36.11" y="76.5" style="fill: #9ca3af; stroke: #9ca3af; stroke-width: 0.8"/>
 </g>
 </g>
 <g>
 <text style="fill: #9ca3af; font: 7px 'DejaVu Sans', 'Bitstream Vera Sans', 'Computer Modern Sans Serif', 'Lucida Grande', 'Verdana', 'Geneva', 'Lucid', 'Arial', 'Helvetica', 'Avant Garde', sans-serif; text-anchor: end" x="29.11" y="79.16" transform="rotate(-0 29.11 79.16)">0.5</text>
 </g>
 </g>
 <g>
 <g>
 <path d="M 36.11 36.16 
L 231.41 36.16 
" style="fill: none; stroke: #e5e7eb; stroke-opacity: 0.6; stroke-width: 0.5; stroke-linecap: square"/>
 </g>
 <g>
 <g>
 <use xlink:href="#m7b3cfb1b25" x="36.11" y="36.16" style="fill: #9ca3af; stroke: #9ca3af; stroke-width: 0.8"/>
 </g>
 </g>
 <g>
 <text style="fill: #9ca3af; font: 7px 'DejaVu Sans', 'Bitstream Vera Sans', 'Computer Modern Sans Serif', 'Lucida Grande', 'Verdana', 'Geneva', 'Lucid', 'Arial', 'Helvetica', 'Avant Garde', sans-serif; text-anchor: end" x="29.11" y="38.82" transform="rotate(-0 29.11 38.82)">1.0</text>
 </g>
 </g>
 <g>
 <text style="fill: #9ca3af; font: 7px 'DejaVu Sans', 'Bitstream Vera Sans', 'Computer Modern Sans Serif', 'Lucida Grande', 'Verdana', 'Geneva', 'Lucid', 'Arial', 'Helvetica', 'Avant Garde', sans-serif; text-anchor: middle" x="12.52" y="76.5" transform="rotate(-90 12.52 76.5)">y</text>
 </g>
 </g>
 <g>
 <path d="M 44.98 139.43 
L 47.23 134.27 
L 49.48 129.24 
L 51.73 124.34 
L 53.97 119.57 
L 56.22 114.94 
L 58.47 110.44 
L 60.72 106.07 
L 62.96 101.84 
L 65.21 97.73 
L 67.46 93.76 
L 69.71 89.92 
L 71.95 86.22 
L 74.20 82.64 
L 76.45 79.20 
L 78.70 75.89 
L 80.94 72.71 
L 83.19 69.67 
L 85.44 66.76 
L 87.68 63.98 
L 89.93 61.33 
L 92.18 58.81 
L 94.43 56.43 
L 96.67 54.18 
L 98.92 52.06 
L 101.17 50.08 
L 103.42 48.22 
L 105.66 46.50 
L 107.91 44.91 
L 110.16 43.46 
L 112.41 42.13 
L 114.65 40.94 
L 116.90 39.88 
L 119.15 38.96 
L 121.40 38.16 
L 123.64 37.50 
L 125.89 36.97 
L 128.14 36.57 
L 130.39 36.31 
L 132.63 36.18 
L 134.88 36.18 
L 137.13 36.31 
L 139.38 36.57 
L 141.62 36.97 
L 143.87 37.50 
L 146.12 38.16 
L 148.37 38.96 
L 150.61 39.88 
L 152.86 40.94 
L 155.11 42.13 
L 157.35 43.46 
L 159.60 44.91 
L 161.85 46.50 
L 164.10 48.22 
L 166.34 50.08 
L 168.59 52.06 
L 170.84 54.18 
L 173.09 56.43 
L 175.33 58.81 
L 177.58 61.33 
L 179.83 63.98 
L 182.08 66.76 
L 184.32 69.67 
L 186.57 72.71 
L 188.82 75.89 
L 191.07 79.20 
L 193.31 82.64 
L 195.56 86.22 
L 197.81 89.92 
L 200.06 93.76 
L 202.30 97.73 
L 204.55 101.84 
L 206.80 106.07 
L 209.05 110.44 
L 211.29 114.94 
L 213.54 119.57 
L 215.79 124.34 
L 218.03 129.24 
L 220.28 134.27 
L 222.53 139.43 
" style="fill: none; stroke: #2563eb; stroke-width: 1.5; stroke-linecap: square"/>
 </g>
 <g>
 <path d="M 44.98 13.57 
L 47.23 18.73 
L 49.48 23.76 
L 51.73 28.66 
L 53.97 33.43 
L 56.22 38.06 
L 58.47 42.56 
L 60.72 46.93 
L 62.96 51.16 
L 65.21 55.27 
L 67.46 59.24 
L 69.71 63.08 
L 71.95 66.78 
L 74.20 70.36 
L 76.45 73.80 
L 78.70 77.11 
L 80.94 80.29 
L 83.19 83.33 
L 85.44 86.24 
L 87.68 89.02 
L 89.93 91.67 
L 92.18 94.19 
L 94.43 96.57 
L 96.67 98.82 
L 98.92 100.94 
L 101.17 102.92 
L 103.42 104.78 
L 105.66 106.50 
L 107.91 108.09 
L 110.16 109.54 
L 112.41 110.87 
L 114.65 112.06 
L 116.90 113.12 
L 119.15 114.04 
L 121.40 114.84 
L 123.64 115.50 
L 125.89 116.03 
L 128.14 116.43 
L 130.39 116.69 
L 132.63 116.82 
L 134.88 116.82 
L 137.13 116.69 
L 139.38 116.43 
L 141.62 116.03 
L 143.87 115.50 
L 146.12 114.84 
L 148.37 114.04 
L 150.61 113.12 
L 152.86 112.06 
L 155.11 110.87 
L 157.35 109.54 
L 159.60 108.09 
L 161.85 106.50 
L 164.10 104.78 
L 166.34 102.92 
L 168.59 100.94 
L 170.84 98.82 
L 173.09 96.57 
L 175.33 94.19 
L 177.58 91.67 
L 179.83 89.02 
L 182.08 86.24 
L 184.32 83.33 
L 186.57 80.29 
L 188.82 77.11 
L 191.07 73.80 
L 193.31 70.36 
L 195.56 66.78 
L 197.81 63.08 
L 200.06 59.24 
L 202.30 55.27 
L 204.55 51.16 
L 206.80 46.93 
L 209.05 42.56 
L 211.29 38.06 
L 213.54 33.43 
L 215.79 28.66 
L 218.03 23.76 
L 220.28 18.73 
L 222.53 13.57 
" style="fill: none; stroke: #dc2626; stroke-width: 1.5; stroke-linecap: square"/>
 </g>
 <g>
 <path d="M 78.27 145.8 
L 78.27 7.2 
" style="fill: none; stroke-dasharray: 0.6,0.99; stroke-dashoffset: 0; stroke: #6b7280; stroke-width: 0.6"/>
 </g>
 <g>
 <path d="M 189.24 145.8 
L 189.24 7.2 
" style="fill: none; stroke-dasharray: 0.6,0.99; stroke-dashoffset: 0; stroke: #6b7280; stroke-width: 0.6"/>
 </g>
 <g>
 <path d="M 36.11 145.8 
L 36.11 7.2 
" style="fill: none; stroke: #9ca3af; stroke-width: 0.6; stroke-linejoin: miter; stroke-linecap: square"/>
 </g>
 <g>
 <path d="M 231.41 145.8 
L 231.41 7.2 
" style="fill: none; stroke: #9ca3af; stroke-width: 0.6; stroke-linejoin: miter; stroke-linecap: square"/>
 </g>
 <g>
 <path d="M 36.11 145.8 
L 231.41 145.8 
" style="fill: none; stroke: #9ca3af; stroke-width: 0.6; stroke-linejoin: miter; stroke-linecap: square"/>
 </g>
 <g>
 <path d="M 36.11 7.2 
L 231.41 7.2 
" style="fill: none; stroke: #9ca3af; stroke-width: 0.6; stroke-linejoin: miter; stroke-linecap: square"/>
 </g>
 </g>
 </g>
 <defs>
 </defs>
</svg>