<?xml version="1.0" encoding="utf-8" standalone="no"?>
<!DOCTYPE svg PUBLIC "-//W3C//DTD SVG 1.1//EN"
 "http://www.w3.org/Graphics/SVG/1.1/DTD/svg11.dtd">
<svg xmlns:xlink="http://www.w3.org/1999/xlink" width="236.38pt" height="177.55pt" viewBox="0 0 236.38 177.55" xmlns="http://www.w3.org/2000/svg" version="1.1">
 <g>
 <g>
 <path d="M 0 177.55 
L 236.38 177.55 
L 236.38 0 
L 0 0 
L 0 177.55 
z
" style="fill: none"/>
 </g>
 <g>
 <g>
 <path d="M 33.88 145.8 
L 229.18 145.8 
L 229.18 7.2 
L 33.88 7.2 
L 33.88 145.8 
z
" style="fill: none"/>
 </g>
 <g>
 <defs>
 <path d="M 76.05 -103.29 
L 76.05 -68.74 
L 78.31 -68.74 
L 80.58 -68.74 
L 82.84 -68.74 
L 85.11 -68.74 
L 87.37 -68.74 
L 89.64 -68.74 
L 91.90 -68.74 
L 94.17 -68.74 
L 96.43 -68.74 
L 98.70 -68.74 
L 100.96 -68.74 
L 103.22 -68.74 
L 105.49 -68.74 
L 107.75 -68.74 
L 110.02 -68.74 
L 112.28 -68.74 
L 114.55 -68.74 
L 116.81 -68.74 
L 119.08 -68.74 
L 121.34 -68.74 
L 123.61 -68.74 
L 125.87 -68.74 
L 128.14 -68.74 
L 130.40 -68.74 
L 132.66 -68.74 
L 134.93 -68.74 
L 137.19 -68.74 
L 139.46 -68.74 
L 141.72 -68.74 
L 143.99 -68.74 
L 146.25 -68.74 
L 148.52 -68.74 
L 150.78 -68.74 
L 153.05 -68.74 
L 155.31 -68.74 
L 157.58 -68.74 
L 159.84 -68.74 
L 162.10 -68.74 
L 164.37 -68.74 
L 166.63 -68.74 
L 168.90 -68.74 
L 171.16 -68.74 
L 173.43 -68.74 
L 175.69 -68.74 
L 177.96 -68.74 
L 180.22 -68.74 
L 182.49 -68.74 
L 184.75 -68.74 
L 187.02 -68.74 
L 187.02 -235.38 
L 187.02 -235.38 
L 184.75 -230.95 
L 182.49 -226.60 
L 180.22 -222.35 
L 177.96 -218.18 
L 175.69 -214.10 
L 173.43 -210.11 
L 171.16 -206.20 
L 168.90 -202.37 
L 166.63 -198.62 
L 164.37 -194.96 
L 162.10 -191.37 
L 159.84 -187.86 
L 157.58 -184.43 
L 155.31 -181.08 
L 153.05 -177.79 
L 150.78 -174.59 
L 148.52 -171.45 
L 146.25 -168.39 
L 143.99 -165.40 
L 141.72 -162.48 
L 139.46 -159.62 
L 137.19 -156.84 
L 134.93 -154.11 
L 132.66 -151.46 
L 130.40 -148.87 
L 128.14 -146.34 
L 125.87 -143.87 
L 123.61 -141.46 
L 121.34 -139.12 
L 119.08 -136.83 
L 116.81 -134.60 
L 114.55 -132.43 
L 112.28 -130.31 
L 110.02 -128.25 
L 107.75 -126.24 
L 105.49 -124.29 
L 103.22 -122.38 
L 100.96 -120.53 
L 98.70 -118.73 
L 96.43 -116.98 
L 94.17 -115.28 
L 91.90 -113.62 
L 89.64 -112.01 
L 87.37 -110.45 
L 85.11 -108.93 
L 82.84 -107.45 
L 80.58 -106.02 
L 78.31 -104.63 
L 76.05 -103.29 
z
" style="stroke: #2563eb; stroke-opacity: 0.15"/>
 </defs>
 <g>
 <use xlink:href="#m7e0517e701" x="0" y="177.55" style="fill: #2563eb; fill-opacity: 0.15; stroke: #2563eb; stroke-opacity: 0.15"/>
 </g>
 </g>
 <g>
 <g>
 <g>
 <path d="M 76.05 145.8 
L 76.05 7.2 
" style="fill: none; stroke: #e5e7eb; stroke-opacity: 0.6; stroke-width: 0.5; stroke-linecap: square"/>
 </g>
 <g>
 <defs>
 <path d="M 0 0 
L 0 3.5 
" style="stroke: #9ca3af; stroke-width: 0.8"/>
 </defs>
 <g>
 <use xlink:href="#m0170afc352" x="76.05" y="145.8" style="fill: #9ca3af; stroke: #9ca3af; stroke-width: 0.8"/>
 </g>
 </g>
 <g>
 <text style="fill: #9ca3af; font: 7px 'DejaVu Sans', 'Bitstream Vera Sans', 'Computer Modern Sans Serif', 'Lucida Grande', 'Verdana', 'Geneva', 'Lucid', 'Arial', 'Helvetica', 'Avant Garde', sans-serif; text-anchor: middle" x="76.05" y="158.12" transform="rotate(-0 76.05 158.12)">2.0</text>
 </g>
 </g>
 <g>
 <g>
 <path d="M 131.53 145.8 
L 131.53 7.2 
" style="fill: none; stroke: #e5e7eb; stroke-opacity: 0.6; stroke-width: 0.5; stroke-linecap: square"/>
 </g>
 <g>
 <g>
 <use xlink:href="#m0170afc352" x="131.53" y="145.8" style="fill: #9ca3af; stroke: #9ca3af; stroke-width: 0.8"/>
 </g>
 </g>
 <g>
 <text style="fill: #9ca3af; font: 7px 'DejaVu Sans', 'Bitstream Vera Sans', 'Computer Modern Sans Serif', 'Lucida Grande', 'Verdana', 'Geneva', 'Lucid', 'Arial', 'Helvetica', 'Avant Garde', sans-serif; text-anchor: middle" x="131.53" y="158.12" transform="rotate(-0 131.53 158.12)">2.5</text>
 </g>
 </g>
 <g>
 <g>
 <path d="M 187.02 145.8 
L 187.02 7.2 
" style="fill: none; stroke: #e5e7eb; stroke-opacity: 0.6; stroke-width: 0.5; stroke-linecap: square"/>
 </g>
 <g>
 <g>
 <use xlink:href="#m0170afc352" x="187.02" y="145.8" style="fill: #9ca3af; stroke: #9ca3af; stroke-width: 0.8"/>
 </g>
 </g>
 <g>
 <text style="fill: #9ca3af; font: 7px 'DejaVu Sans', 'Bitstream Vera Sans', 'Computer Modern Sans Serif', 'Lucida Grande', 'Verdana', 'Geneva', 'Lucid', 'Arial', 'Helvetica', 'Avant Garde', sans-serif; text-anchor: middle" x="187.02" y="158.12" transform="rotate(-0 187.02 158.12)">3.0</text>
 </g>
 </g>
 <g>
 <text style="fill: #9ca3af; font: 7px 'DejaVu Sans', 'Bitstream Vera Sans', 'Computer Modern Sans Serif', 'Lucida Grande', 'Verdana', 'Geneva', 'Lucid', 'Arial', 'Helvetica', 'Avant Garde', sans-serif; text-anchor: middle" x="131.53" y="168.89" transform="rotate(-0 131.53 168.89)">x</text>
 </g>
 </g>
 <g>
 <g>
 <g>
 <path d="M 33.88 108.81 
L 229.18 108.81 
" style="fill: none; stroke: #e5e7eb; stroke-opacity: 0.6; stroke-width: 0.5; stroke-linecap: square"/>
 </g>
 <g>
 <defs>
 <path d="M 0 0 
L -3.5 0 
" style="stroke: #9ca3af; stroke-width: 0.8"/>
 </defs>
 <g>
 <use xlink:href="#m7adfaddbdd" x="33.88" y="108.81" style="fill: #9ca3af; stroke: #9ca3af; stroke-width: 0.8"/>
 </g>
 </g>
 <g>
 <text style="fill: #9ca3af; font: 7px 'DejaVu Sans', 'Bitstream Vera Sans', 'Computer Modern Sans Serif', 'Lucida Grande', 'Verdana', 'Geneva', 'Lucid', 'Arial', 'Helvetica', 'Avant Garde', sans-serif; text-anchor: end" x="26.88" y="111.47" transform="rotate(-0 26.88 111.47)">0</text>
 </g>
 </g>
 <g>
 <g>
 <path d="M 33.88 68.17 
L 229.18 68.17 
" style="fill: none; stroke: #e5e7eb; stroke-opacity: 0.6; stroke-width: 0.5; stroke-linecap: square"/>
 </g>
 <g>
 <g>
 <use xlink:href="#m7adfaddbdd" x="33.88" y="68.17" style="fill: #9ca3af; stroke: #9ca3af; stroke-width: 0.8"/>
 </g>
 </g>
 <g>
 <text style="fill: #9ca3af; font: 7px 'DejaVu Sans', 'Bitstream Vera Sans', 'Computer Modern Sans Serif', 'Lucida Grande', 'Verdana', 'Geneva', 'Lucid', 'Arial', 'Helvetica', 'Avant Garde', sans-serif; text-anchor: end" x="26.88" y="70.83" transform="rotate(-0 26.88 70.83)">20</text>
 </g>
 </g>
 <g>
 <g>
 <path d="M 33.88 27.52 
L 229.18 27.52 
" style="fill: none; stroke: #e5e7eb; stroke-opacity: 0.6; stroke-width: 0.5; stroke-linecap: square"/>
 </g>
 <g>
 <g>
 <use xlink:href="#m7adfaddbdd" x="33.88" y="27.52" style="fill: #9ca3af; stroke: #9ca3af; stroke-width: 0.8"/>
 </g>
 </g>
 <g>
 <text style="fill: #9ca3af; font: 7px 'DejaVu Sans', 'Bitstream Vera Sans', 'Computer Modern Sans Serif', 'Lucida Grande', 'Verdana', 'Geneva', 'Lucid', 'Arial', 'Helvetica', 'Avant Garde', sans-serif; text-anchor: end" x="26.88" y="30.18" transform="rotate(-0 26.88 30.18)">40</text>
 </g>
 </g>
 <g>
 <text style="fill: #9ca3af; font: 7px 'DejaVu Sans', 'Bitstream Vera Sans', 'Computer Modern Sans Serif', 'Lucida Grande', 'Verdana', 'Geneva', 'Lucid', 'Arial', 'Helvetica', 'Avant Garde', sans-serif; text-anchor: middle" x="12.52" y="76.5" transform="rotate(-90 12.52 76.5)">y</text>
 </g>
 </g>
 <g>
 <path d="M 42.76 89.81 
L 45.01 88.98 
L 47.25 88.13 
L 49.50 87.25 
L 51.75 86.33 
L 54.00 85.39 
L 56.24 84.41 
L 58.49 83.40 
L 60.74 82.35 
L 62.99 81.27 
L 65.23 80.15 
L 67.48 79.00 
L 69.73 77.81 
L 71.98 76.59 
L 74.22 75.32 
L 76.47 74.02 
L 78.72 72.67 
L 80.97 71.29 
L 83.21 69.86 
L 85.46 68.39 
L 87.71 66.87 
L 89.96 65.32 
L 92.20 63.71 
L 94.45 62.06 
L 96.70 60.37 
L 98.94 58.62 
L 101.19 56.83 
L 103.44 54.99 
L 105.69 53.10 
L 107.93 51.15 
L 110.18 49.15 
L 112.43 47.10 
L 114.68 45.00 
L 116.92 42.84 
L 119.17 40.63 
L 121.42 38.35 
L 123.67 36.02 
L 125.91 33.63 
L 128.16 31.18 
L 130.41 28.67 
L 132.66 26.10 
L 134.90 23.47 
L 137.15 20.77 
L 139.40 18.00 
L 141.65 15.17 
L 143.89 12.27 
L 146.14 9.31 
L 148.39 6.27 
L 150.64 3.17 
L 152.88 -0.01 
L 153.57 -1 
" style="fill: none; stroke: #2563eb; stroke-width: 1.5; stroke-linecap: square"/>
 </g>
 <g>
 <path d="M 33.88 108.81 
L 229.18 108.81 
" style="fill: none; stroke: #9ca3af; stroke-width: 0.6; stroke-linecap: square"/>
 </g>
 <g>
 <path d="M 76.05 145.8 
L 76.05 7.2 
" style="fill: none; stroke-dasharray: 0.6,0.99; stroke-dashoffset: 0; stroke: #6b7280; stroke-width: 0.6"/>
 </g>
 <g>
 <path d="M 187.02 145.8 
L 187.02 7.2 
" style="fill: none; stroke-dasharray: 0.6,0.99; stroke-dashoffset: 0; stroke: #6b7280; stroke-width: 0.6"/>
 </g>
 <g>
 <path d="M 33.88 145.8 
L 33.88 7.2 
" style="fill: none; stroke: #9ca3af; stroke-width: 0.6; stroke-linejoin: miter; stroke-linecap: square"/>
 </g>
 <g>
 <path d="M 229.18 145.8 
L 229.18 7.2 
" style="fill: none; stroke: #9ca3af; stroke-width: 0.6; stroke-linejoin: miter; stroke-linecap: square"/>
 </g>
 <g>
 <path d="M 33.88 145.8 
L 229.18 145.8 
" style="fill: none; stroke: #9ca3af; stroke-width: 0.6; stroke-linejoin: miter; stroke-linecap: square"/>
 </g>
 <g>
 <path d="M 33.88 7.2 
L 229.18 7.2 
" style="fill: none; stroke: #9ca3af; stroke-width: 0.6; stroke-linejoin: miter; stroke-linecap: square"/>
 </g>
 </g>
 </g>
 <defs>
 </defs>
</svg>