<?xml version="1.0" encoding="utf-8" standalone="no"?>
<!DOCTYPE svg PUBLIC "-//W3C//DTD SVG 1.1//EN"
 "http://www.w3.org/Graphics/SVG/1.1/DTD/svg11.dtd">
<svg xmlns:xlink="http://www.w3.org/1999/xlink" width="236.38pt" height="177.55pt" viewBox="0 0 236.38 177.55" xmlns="http://www.w3.org/2000/svg" version="1.1">
 <g>
 <g>
 <path d="M 0 177.55 
L 236.38 177.55 
L 236.38 0 
L 0 0 
L 0 177.55 
z
" style="fill: none"/>
 </g>
 <g>
 <g>
 <path d="M 33.88 145.8 
L 229.18 145.8 
L 229.18 7.2 
L 33.88 7.2 
L 33.88 145.8 
z
" style="fill: none"/>
 </g>
 <g>
 <defs>
 <path d="M 76.05 -57.62 
L 76.05 -43.06 
L 78.31 -43.06 
L 80.58 -43.06 
L 82.84 -43.06 
L 85.11 -43.06 
L 87.37 -43.06 
L 89.64 -43.06 
L 91.90 -43.06 
L 94.17 -43.06 
L 96.43 -43.06 
L 98.70 -43.06 
L 100.96 -43.06 
L 103.22 -43.06 
L 105.49 -43.06 
L 107.75 -43.06 
L 110.02 -43.06 
L 112.28 -43.06 
L 114.55 -43.06 
L 116.81 -43.06 
L 119.08 -43.06 
L 121.34 -43.06 
L 123.61 -43.06 
L 125.87 -43.06 
L 128.14 -43.06 
L 130.40 -43.06 
L 132.66 -43.06 
L 134.93 -43.06 
L 137.19 -43.06 
L 139.46 -43.06 
L 141.72 -43.06 
L 143.99 -43.06 
L 146.25 -43.06 
L 148.52 -43.06 
L 150.78 -43.06 
L 153.05 -43.06 
L 155.31 -43.06 
L 157.58 -43.06 
L 159.84 -43.06 
L 162.10 -43.06 
L 164.37 -43.06 
L 166.63 -43.06 
L 168.90 -43.06 
L 171.16 -43.06 
L 173.43 -43.06 
L 175.69 -43.06 
L 177.96 -43.06 
L 180.22 -43.06 
L 182.49 -43.06 
L 184.75 -43.06 
L 187.02 -43.06 
L 187.02 -115.90 
L 187.02 -115.90 
L 184.75 -113.54 
L 182.49 -111.24 
L 180.22 -108.98 
L 177.96 -106.77 
L 175.69 -104.61 
L 173.43 -102.50 
L 171.16 -100.44 
L 168.90 -98.42 
L 166.63 -96.46 
L 164.37 -94.54 
L 162.10 -92.67 
L 159.84 -90.85 
L 157.58 -89.08 
L 155.31 -87.36 
L 153.05 -85.68 
L 150.78 -84.06 
L 148.52 -82.48 
L 146.25 -80.95 
L 143.99 -79.47 
L 141.72 -78.04 
L 139.46 -76.65 
L 137.19 -75.32 
L 134.93 -74.03 
L 132.66 -72.79 
L 130.40 -71.60 
L 128.14 -70.46 
L 125.87 -69.37 
L 123.61 -68.33 
L 121.34 -67.33 
L 119.08 -66.39 
L 116.81 -65.49 
L 114.55 -64.64 
L 112.28 -63.84 
L 110.02 -63.09 
L 107.75 -62.38 
L 105.49 -61.73 
L 103.22 -61.12 
L 100.96 -60.56 
L 98.70 -60.05 
L 96.43 -59.59 
L 94.17 -59.18 
L 91.90 -58.81 
L 89.64 -58.50 
L 87.37 -58.23 
L 85.11 -58.01 
L 82.84 -57.84 
L 80.58 -57.72 
L 78.31 -57.65 
L 76.05 -57.62 
z
" style="stroke: #2563eb; stroke-opacity: 0.15"/>
 </defs>
 <g>
 <use xlink:href="#mfb08c02000" x="0" y="177.55" style="fill: #2563eb; fill-opacity: 0.15; stroke: #2563eb; stroke-opacity: 0.15"/>
 </g>
 </g>
 <g>
 <g>
 <g>
 <path d="M 76.05 145.8 
L 76.05 7.2 
" style="fill: none; stroke: #e5e7eb; stroke-opacity: 0.6; stroke-width: 0.5; stroke-linecap: square"/>
 </g>
 <g>
 <defs>
 <path d="M 0 0 
L 0 3.5 
" style="stroke: #9ca3af; stroke-width: 0.8"/>
 </defs>
 <g>
 <use xlink:href="#m4449d9b6d8" x="76.05" y="145.8" style="fill: #9ca3af; stroke: #9ca3af; stroke-width: 0.8"/>
 </g>
 </g>
 <g>
 <text style="fill: #9ca3af; font: 7px 'DejaVu Sans', 'Bitstream Vera Sans', 'Computer Modern Sans Serif', 'Lucida Grande', 'Verdana', 'Geneva', 'Lucid', 'Arial', 'Helvetica', 'Avant Garde', sans-serif; text-anchor: middle" x="76.05" y="158.12" transform="rotate(-0 76.05 158.12)">0</text>
 </g>
 </g>
 <g>
 <g>
 <path d="M 131.53 145.8 
L 131.53 7.2 
" style="fill: none; stroke: #e5e7eb; stroke-opacity: 0.6; stroke-width: 0.5; stroke-linecap: square"/>
 </g>
 <g>
 <g>
 <use xlink:href="#m4449d9b6d8" x="131.53" y="145.8" style="fill: #9ca3af; stroke: #9ca3af; stroke-width: 0.8"/>
 </g>
 </g>
 <g>
 <text style="fill: #9ca3af; font: 7px 'DejaVu Sans', 'Bitstream Vera Sans', 'Computer Modern Sans Serif', 'Lucida Grande', 'Verdana', 'Geneva', 'Lucid', 'Arial', 'Helvetica', 'Avant Garde', sans-serif; text-anchor: middle" x="131.53" y="158.12" transform="rotate(-0 131.53 158.12)">1</text>
 </g>
 </g>
 <g>
 <g>
 <path d="M 187.02 145.8 
L 187.02 7.2 
" style="fill: none; stroke: #e5e7eb; stroke-opacity: 0.6; stroke-width: 0.5; stroke-linecap: square"/>
 </g>
 <g>
 <g>
 <use xlink:href="#m4449d9b6d8" x="187.02" y="145.8" style="fill: #9ca3af; stroke: #9ca3af; stroke-width: 0.8"/>
 </g>
 </g>
 <g>
 <text style="fill: #9ca3af; font: 7px 'DejaVu Sans', 'Bitstream Vera Sans', 'Computer Modern Sans Serif', 'Lucida Grande', 'Verdana', 'Geneva', 'Lucid', 'Arial', 'Helvetica', 'Avant Garde', sans-serif; text-anchor: middle" x="187.02" y="158.12" transform="rotate(-0 187.02 158.12)">2</text>
 </g>
 </g>
 <g>
 <text style="fill: #9ca3af; font: 7px 'DejaVu Sans', 'Bitstream Vera Sans', 'Computer Modern Sans Serif', 'Lucida Grande', 'Verdana', 'Geneva', 'Lucid', 'Arial', 'Helvetica', 'Avant Garde', sans-serif; text-anchor: middle" x="131.53" y="168.89" transform="rotate(-0 131.53 168.89)">x</text>
 </g>
 </g>
 <g>
 <g>
 <g>
 <path d="M 33.88 134.49 
L 229.18 134.49 
" style="fill: none; stroke: #e5e7eb; stroke-opacity: 0.6; stroke-width: 0.5; stroke-linecap: square"/>
 </g>
 <g>
 <defs>
 <path d="M 0 0 
L -3.5 0 
" style="stroke: #9ca3af; stroke-width: 0.8"/>
 </defs>
 <g>
 <use xlink:href="#m08e4c61f19" x="33.88" y="134.49" style="fill: #9ca3af; stroke: #9ca3af; stroke-width: 0.8"/>
 </g>
 </g>
 <g>
 <text style="fill: #9ca3af; font: 7px 'DejaVu Sans', 'Bitstream Vera Sans', 'Computer Modern Sans Serif', 'Lucida Grande', 'Verdana', 'Geneva', 'Lucid', 'Arial', 'Helvetica', 'Avant Garde', sans-serif; text-anchor: end" x="26.88" y="137.15" transform="rotate(-0 26.88 137.15)">0</text>
 </g>
 </g>
 <g>
 <g>
 <path d="M 33.88 98.07 
L 229.18 98.07 
" style="fill: none; stroke: #e5e7eb; stroke-opacity: 0.6; stroke-width: 0.5; stroke-linecap: square"/>
 </g>
 <g>
 <g>
 <use xlink:href="#m08e4c61f19" x="33.88" y="98.07" style="fill: #9ca3af; stroke: #9ca3af; stroke-width: 0.8"/>
 </g>
 </g>
 <g>
 <text style="fill: #9ca3af; font: 7px 'DejaVu Sans', 'Bitstream Vera Sans', 'Computer Modern Sans Serif', 'Lucida Grande', 'Verdana', 'Geneva', 'Lucid', 'Arial', 'Helvetica', 'Avant Garde', sans-serif; text-anchor: end" x="26.88" y="100.73" transform="rotate(-0 26.88 100.73)">5</text>
 </g>
 </g>
 <g>
 <g>
 <path d="M 33.88 61.65 
L 229.18 61.65 
" style="fill: none; stroke: #e5e7eb; stroke-opacity: 0.6; stroke-width: 0.5; stroke-linecap: square"/>
 </g>
 <g>
 <g>
 <use xlink:href="#m08e4c61f19" x="33.88" y="61.65" style="fill: #9ca3af; stroke: #9ca3af; stroke-width: 0.8"/>
 </g>
 </g>
 <g>
 <text style="fill: #9ca3af; font: 7px 'DejaVu Sans', 'Bitstream Vera Sans', 'Computer Modern Sans Serif', 'Lucida Grande', 'Verdana', 'Geneva', 'Lucid', 'Arial', 'Helvetica', 'Avant Garde', sans-serif; text-anchor: end" x="26.88" y="64.31" transform="rotate(-0 26.88 64.31)">10</text>
 </g>
 </g>
 <g>
 <g>
 <path d="M 33.88 25.23 
L 229.18 25.23 
" style="fill: none; stroke: #e5e7eb; stroke-opacity: 0.6; stroke-width: 0.5; stroke-linecap: square"/>
 </g>
 <g>
 <g>
 <use xlink:href="#m08e4c61f19" x="33.88" y="25.23" style="fill: #9ca3af; stroke: #9ca3af; stroke-width: 0.8"/>
 </g>
 </g>
 <g>
 <text style="fill: #9ca3af; font: 7px 'DejaVu Sans', 'Bitstream Vera Sans', 'Computer Modern Sans Serif', 'Lucida Grande', 'Verdana', 'Geneva', 'Lucid', 'Arial', 'Helvetica', 'Avant Garde', sans-serif; text-anchor: end" x="26.88" y="27.89" transform="rotate(-0 26.88 27.89)">15</text>
 </g>
 </g>
 <g>
 <text style="fill: #9ca3af; font: 7px 'DejaVu Sans', 'Bitstream Vera Sans', 'Computer Modern Sans Serif', 'Lucida Grande', 'Verdana', 'Geneva', 'Lucid', 'Arial', 'Helvetica', 'Avant Garde', sans-serif; text-anchor: middle" x="12.52" y="76.5" transform="rotate(-90 12.52 76.5)">y</text>
 </g>
 </g>
 <g>
 <path d="M 42.76 114.68 
L 45.01 115.36 
L 47.25 116.00 
L 49.50 116.59 
L 51.75 117.13 
L 54.00 117.62 
L 56.24 118.07 
L 58.49 118.47 
L 60.74 118.82 
L 62.99 119.12 
L 65.23 119.37 
L 67.48 119.58 
L 69.73 119.74 
L 71.98 119.85 
L 74.22 119.91 
L 76.47 119.92 
L 78.72 119.89 
L 80.97 119.81 
L 83.21 119.68 
L 85.46 119.51 
L 87.71 119.28 
L 89.96 119.01 
L 92.20 118.69 
L 94.45 118.32 
L 96.70 117.91 
L 98.94 117.44 
L 101.19 116.93 
L 103.44 116.37 
L 105.69 115.77 
L 107.93 115.11 
L 110.18 114.41 
L 112.43 113.66 
L 114.68 112.86 
L 116.92 112.02 
L 119.17 111.12 
L 121.42 110.18 
L 123.67 109.19 
L 125.91 108.16 
L 128.16 107.07 
L 130.41 105.94 
L 132.66 104.76 
L 134.90 103.53 
L 137.15 102.26 
L 139.40 100.93 
L 141.65 99.56 
L 143.89 98.14 
L 146.14 96.67 
L 148.39 95.16 
L 150.64 93.60 
L 152.88 91.99 
L 155.13 90.33 
L 157.38 88.62 
L 159.62 86.87 
L 161.87 85.07 
L 164.12 83.22 
L 166.37 81.32 
L 168.61 79.37 
L 170.86 77.38 
L 173.11 75.34 
L 175.36 73.25 
L 177.60 71.12 
L 179.85 68.93 
L 182.10 66.70 
L 184.35 64.42 
L 186.59 62.09 
L 188.84 59.72 
L 191.09 57.29 
L 193.34 54.82 
L 195.58 52.30 
L 197.83 49.74 
L 200.08 47.12 
L 202.33 44.46 
L 204.57 41.75 
L 206.82 38.99 
L 209.07 36.19 
L 211.32 33.33 
L 213.56 30.43 
L 215.81 27.48 
L 218.06 24.49 
L 220.30 21.44 
" style="fill: none; stroke: #2563eb; stroke-width: 1.5; stroke-linecap: square"/>
 </g>
 <g>
 <path d="M 33.88 134.49 
L 229.18 134.49 
" style="fill: none; stroke: #9ca3af; stroke-width: 0.6; stroke-linecap: square"/>
 </g>
 <g>
 <path d="M 76.05 145.8 
L 76.05 7.2 
" style="fill: none; stroke-dasharray: 0.6,0.99; stroke-dashoffset: 0; stroke: #6b7280; stroke-width: 0.6"/>
 </g>
 <g>
 <path d="M 187.02 145.8 
L 187.02 7.2 
" style="fill: none; stroke-dasharray: 0.6,0.99; stroke-dashoffset: 0; stroke: #6b7280; stroke-width: 0.6"/>
 </g>
 <g>
 <path d="M 33.88 145.8 
L 33.88 7.2 
" style="fill: none; stroke: #9ca3af; stroke-width: 0.6; stroke-linejoin: miter; stroke-linecap: square"/>
 </g>
 <g>
 <path d="M 229.18 145.8 
L 229.18 7.2 
" style="fill: none; stroke: #9ca3af; stroke-width: 0.6; stroke-linejoin: miter; stroke-linecap: square"/>
 </g>
 <g>
 <path d="M 33.88 145.8 
L 229.18 145.8 
" style="fill: none; stroke: #9ca3af; stroke-width: 0.6; stroke-linejoin: miter; stroke-linecap: square"/>
 </g>
 <g>
 <path d="M 33.88 7.2 
L 229.18 7.2 
" style="fill: none; stroke: #9ca3af; stroke-width: 0.6; stroke-linejoin: miter; stroke-linecap: square"/>
 </g>
 </g>
 </g>
 <defs>
 </defs>
</svg>