<?xml version="1.0" encoding="utf-8" standalone="no"?>
<!DOCTYPE svg PUBLIC "-//W3C//DTD SVG 1.1//EN"
 "http://www.w3.org/Graphics/SVG/1.1/DTD/svg11.dtd">
<svg xmlns:xlink="http://www.w3.org/1999/xlink" width="242.25pt" height="177.55pt" viewBox="0 0 242.25 177.55" xmlns="http://www.w3.org/2000/svg" version="1.1">
 <g>
 <g>
 <path d="M 0 177.55 
L 242.25 177.55 
L 242.25 0 
L 0 0 
L 0 177.55 
z
" style="fill: none"/>
 </g>
 <g>
 <g>
 <path d="M 39.75 145.8 
L 235.05 145.8 
L 235.05 7.2 
L 39.75 7.2 
L 39.75 145.8 
z
" style="fill: none"/>
 </g>
 <g>
 <defs>
 <path d="M 81.92 -144.36 
L 81.92 -146.81 
L 84.18 -146.81 
L 86.44 -146.81 
L 88.71 -146.81 
L 90.97 -146.81 
L 93.24 -146.81 
L 95.50 -146.81 
L 97.77 -146.81 
L 100.03 -146.81 
L 102.30 -146.81 
L 104.56 -146.81 
L 106.83 -146.81 
L 109.09 -146.81 
L 111.35 -146.81 
L 113.62 -146.81 
L 115.88 -146.81 
L 118.15 -146.81 
L 120.41 -146.81 
L 122.68 -146.81 
L 124.94 -146.81 
L 127.21 -146.81 
L 129.47 -146.81 
L 131.74 -146.81 
L 134.00 -146.81 
L 136.27 -146.81 
L 138.53 -146.81 
L 140.79 -146.81 
L 143.06 -146.81 
L 145.32 -146.81 
L 147.59 -146.81 
L 149.85 -146.81 
L 152.12 -146.81 
L 154.38 -146.81 
L 156.65 -146.81 
L 158.91 -146.81 
L 161.18 -146.81 
L 163.44 -146.81 
L 165.71 -146.81 
L 167.97 -146.81 
L 170.23 -146.81 
L 172.50 -146.81 
L 174.76 -146.81 
L 177.03 -146.81 
L 179.29 -146.81 
L 181.56 -146.81 
L 183.82 -146.81 
L 186.09 -146.81 
L 188.35 -146.81 
L 190.62 -146.81 
L 192.88 -146.81 
L 192.88 -105.26 
L 192.88 -105.26 
L 190.62 -108.36 
L 188.35 -111.27 
L 186.09 -113.99 
L 183.82 -116.55 
L 181.56 -118.94 
L 179.29 -121.17 
L 177.03 -123.26 
L 174.76 -125.20 
L 172.50 -127.00 
L 170.23 -128.67 
L 167.97 -130.22 
L 165.71 -131.65 
L 163.44 -132.97 
L 161.18 -134.18 
L 158.91 -135.30 
L 156.65 -136.32 
L 154.38 -137.25 
L 152.12 -138.10 
L 149.85 -138.87 
L 147.59 -139.56 
L 145.32 -140.19 
L 143.06 -140.76 
L 140.79 -141.26 
L 138.53 -141.71 
L 136.27 -142.11 
L 134.00 -142.46 
L 131.74 -142.77 
L 129.47 -143.04 
L 127.21 -143.28 
L 124.94 -143.48 
L 122.68 -143.65 
L 120.41 -143.80 
L 118.15 -143.92 
L 115.88 -144.02 
L 113.62 -144.10 
L 111.35 -144.17 
L 109.09 -144.22 
L 106.83 -144.26 
L 104.56 -144.29 
L 102.30 -144.32 
L 100.03 -144.33 
L 97.77 -144.35 
L 95.50 -144.35 
L 93.24 -144.36 
L 90.97 -144.36 
L 88.71 -144.36 
L 86.44 -144.36 
L 84.18 -144.36 
L 81.92 -144.36 
z
" style="stroke: #2563eb; stroke-opacity: 0.15"/>
 </defs>
 <g>
 <use xlink:href="#md199197324" x="0" y="177.55" style="fill: #2563eb; fill-opacity: 0.15; stroke: #2563eb; stroke-opacity: 0.15"/>
 </g>
 </g>
 <g>
 <g>
 <g>
 <path d="M 81.92 145.8 
L 81.92 7.2 
" style="fill: none; stroke: #e5e7eb; stroke-opacity: 0.6; stroke-width: 0.5; stroke-linecap: square"/>
 </g>
 <g>
 <defs>
 <path d="M 0 0 
L 0 3.5 
" style="stroke: #9ca3af; stroke-width: 0.8"/>
 </defs>
 <g>
 <use xlink:href="#ma22c903920" x="81.92" y="145.8" style="fill: #9ca3af; stroke: #9ca3af; stroke-width: 0.8"/>
 </g>
 </g>
 <g>
 <text style="fill: #9ca3af; font: 7px 'DejaVu Sans', 'Bitstream Vera Sans', 'Computer Modern Sans Serif', 'Lucida Grande', 'Verdana', 'Geneva', 'Lucid', 'Arial', 'Helvetica', 'Avant Garde', sans-serif; text-anchor: middle" x="81.92" y="158.12" transform="rotate(-0 81.92 158.12)">0</text>
 </g>
 </g>
 <g>
 <g>
 <path d="M 137.40 145.8 
L 137.40 7.2 
" style="fill: none; stroke: #e5e7eb; stroke-opacity: 0.6; stroke-width: 0.5; stroke-linecap: square"/>
 </g>
 <g>
 <g>
 <use xlink:href="#ma22c903920" x="137.40" y="145.8" style="fill: #9ca3af; stroke: #9ca3af; stroke-width: 0.8"/>
 </g>
 </g>
 <g>
 <text style="fill: #9ca3af; font: 7px 'DejaVu Sans', 'Bitstream Vera Sans', 'Computer Modern Sans Serif', 'Lucida Grande', 'Verdana', 'Geneva', 'Lucid', 'Arial', 'Helvetica', 'Avant Garde', sans-serif; text-anchor: middle" x="137.40" y="158.12" transform="rotate(-0 137.40 158.12)">1</text>
 </g>
 </g>
 <g>
 <g>
 <path d="M 192.88 145.8 
L 192.88 7.2 
" style="fill: none; stroke: #e5e7eb; stroke-opacity: 0.6; stroke-width: 0.5; stroke-linecap: square"/>
 </g>
 <g>
 <g>
 <use xlink:href="#ma22c903920" x="192.88" y="145.8" style="fill: #9ca3af; stroke: #9ca3af; stroke-width: 0.8"/>
 </g>
 </g>
 <g>
 <text style="fill: #9ca3af; font: 7px 'DejaVu Sans', 'Bitstream Vera Sans', 'Computer Modern Sans Serif', 'Lucida Grande', 'Verdana', 'Geneva', 'Lucid', 'Arial', 'Helvetica', 'Avant Garde', sans-serif; text-anchor: middle" x="192.88" y="158.12" transform="rotate(-0 192.88 158.12)">2</text>
 </g>
 </g>
 <g>
 <text style="fill: #9ca3af; font: 7px 'DejaVu Sans', 'Bitstream Vera Sans', 'Computer Modern Sans Serif', 'Lucida Grande', 'Verdana', 'Geneva', 'Lucid', 'Arial', 'Helvetica', 'Avant Garde', sans-serif; text-anchor: middle" x="137.40" y="168.89" transform="rotate(-0 137.40 168.89)">x</text>
 </g>
 </g>
 <g>
 <g>
 <g>
 <path d="M 39.75 128.49 
L 235.05 128.49 
" style="fill: none; stroke: #e5e7eb; stroke-opacity: 0.6; stroke-width: 0.5; stroke-linecap: square"/>
 </g>
 <g>
 <defs>
 <path d="M 0 0 
L -3.5 0 
" style="stroke: #9ca3af; stroke-width: 0.8"/>
 </defs>
 <g>
 <use xlink:href="#m3979842c31" x="39.75" y="128.49" style="fill: #9ca3af; stroke: #9ca3af; stroke-width: 0.8"/>
 </g>
 </g>
 <g>
 <text style="fill: #9ca3af; font: 7px 'DejaVu Sans', 'Bitstream Vera Sans', 'Computer Modern Sans Serif', 'Lucida Grande', 'Verdana', 'Geneva', 'Lucid', 'Arial', 'Helvetica', 'Avant Garde', sans-serif; text-anchor: end" x="32.75" y="131.15" transform="rotate(-0 32.75 131.15)">−40</text>
 </g>
 </g>
 <g>
 <g>
 <path d="M 39.75 79.62 
L 235.05 79.62 
" style="fill: none; stroke: #e5e7eb; stroke-opacity: 0.6; stroke-width: 0.5; stroke-linecap: square"/>
 </g>
 <g>
 <g>
 <use xlink:href="#m3979842c31" x="39.75" y="79.62" style="fill: #9ca3af; stroke: #9ca3af; stroke-width: 0.8"/>
 </g>
 </g>
 <g>
 <text style="fill: #9ca3af; font: 7px 'DejaVu Sans', 'Bitstream Vera Sans', 'Computer Modern Sans Serif', 'Lucida Grande', 'Verdana', 'Geneva', 'Lucid', 'Arial', 'Helvetica', 'Avant Garde', sans-serif; text-anchor: end" x="32.75" y="82.28" transform="rotate(-0 32.75 82.28)">−20</text>
 </g>
 </g>
 <g>
 <g>
 <path d="M 39.75 30.74 
L 235.05 30.74 
" style="fill: none; stroke: #e5e7eb; stroke-opacity: 0.6; stroke-width: 0.5; stroke-linecap: square"/>
 </g>
 <g>
 <g>
 <use xlink:href="#m3979842c31" x="39.75" y="30.74" style="fill: #9ca3af; stroke: #9ca3af; stroke-width: 0.8"/>
 </g>
 </g>
 <g>
 <text style="fill: #9ca3af; font: 7px 'DejaVu Sans', 'Bitstream Vera Sans', 'Computer Modern Sans Serif', 'Lucida Grande', 'Verdana', 'Geneva', 'Lucid', 'Arial', 'Helvetica', 'Avant Garde', sans-serif; text-anchor: end" x="32.75" y="33.40" transform="rotate(-0 32.75 33.40)">0</text>
 </g>
 </g>
 <g>
 <text style="fill: #9ca3af; font: 7px 'DejaVu Sans', 'Bitstream Vera Sans', 'Computer Modern Sans Serif', 'Lucida Grande', 'Verdana', 'Geneva', 'Lucid', 'Arial', 'Helvetica', 'Avant Garde', sans-serif; text-anchor: middle" x="12.52" y="76.5" transform="rotate(-90 12.52 76.5)">y</text>
 </g>
 </g>
 <g>
 <path d="M 48.63 33.50 
L 50.87 33.43 
L 53.12 33.36 
L 55.37 33.32 
L 57.61 33.28 
L 59.86 33.25 
L 62.11 33.23 
L 64.36 33.21 
L 66.60 33.20 
L 68.85 33.19 
L 71.10 33.19 
L 73.35 33.19 
L 75.59 33.19 
L 77.84 33.19 
L 80.09 33.19 
L 82.34 33.19 
L 84.58 33.19 
L 86.83 33.19 
L 89.08 33.19 
L 91.33 33.19 
L 93.57 33.19 
L 95.82 33.20 
L 98.07 33.20 
L 100.32 33.22 
L 102.56 33.23 
L 104.81 33.26 
L 107.06 33.29 
L 109.31 33.33 
L 111.55 33.39 
L 113.80 33.45 
L 116.05 33.54 
L 118.29 33.64 
L 120.54 33.76 
L 122.79 33.91 
L 125.04 34.08 
L 127.28 34.28 
L 129.53 34.51 
L 131.78 34.78 
L 134.03 35.09 
L 136.27 35.44 
L 138.52 35.84 
L 140.77 36.28 
L 143.02 36.78 
L 145.26 37.34 
L 147.51 37.96 
L 149.76 38.65 
L 152.01 39.41 
L 154.25 40.25 
L 156.50 41.17 
L 158.75 42.17 
L 161.00 43.27 
L 163.24 44.47 
L 165.49 45.77 
L 167.74 47.18 
L 169.99 48.70 
L 172.23 50.35 
L 174.48 52.12 
L 176.73 54.03 
L 178.98 56.07 
L 181.22 58.27 
L 183.47 60.62 
L 185.72 63.13 
L 187.96 65.80 
L 190.21 68.66 
L 192.46 71.70 
L 194.71 74.92 
L 196.95 78.35 
L 199.20 81.99 
L 201.45 85.84 
L 203.70 89.91 
L 205.94 94.21 
L 208.19 98.76 
L 210.44 103.55 
L 212.69 108.60 
L 214.93 113.92 
L 217.18 119.52 
L 219.43 125.40 
L 221.68 131.58 
L 223.92 138.06 
L 226.17 144.86 
" style="fill: none; stroke: #2563eb; stroke-width: 1.5; stroke-linecap: square"/>
 </g>
 <g>
 <path d="M 39.75 30.74 
L 235.05 30.74 
" style="fill: none; stroke: #9ca3af; stroke-width: 0.6; stroke-linecap: square"/>
 </g>
 <g>
 <path d="M 81.92 145.8 
L 81.92 7.2 
" style="fill: none; stroke-dasharray: 0.6,0.99; stroke-dashoffset: 0; stroke: #6b7280; stroke-width: 0.6"/>
 </g>
 <g>
 <path d="M 192.88 145.8 
L 192.88 7.2 
" style="fill: none; stroke-dasharray: 0.6,0.99; stroke-dashoffset: 0; stroke: #6b7280; stroke-width: 0.6"/>
 </g>
 <g>
 <path d="M 39.75 145.8 
L 39.75 7.2 
" style="fill: none; stroke: #9ca3af; stroke-width: 0.6; stroke-linejoin: miter; stroke-linecap: square"/>
 </g>
 <g>
 <path d="M 235.05 145.8 
L 235.05 7.2 
" style="fill: none; stroke: #9ca3af; stroke-width: 0.6; stroke-linejoin: miter; stroke-linecap: square"/>
 </g>
 <g>
 <path d="M 39.75 145.8 
L 235.05 145.8 
" style="fill: none; stroke: #9ca3af; stroke-width: 0.6; stroke-linejoin: miter; stroke-linecap: square"/>
 </g>
 <g>
 <path d="M 39.75 7.2 
L 235.05 7.2 
" style="fill: none; stroke: #9ca3af; stroke-width: 0.6; stroke-linejoin: miter; stroke-linecap: square"/>
 </g>
 </g>
 </g>
 <defs>
 </defs>
</svg>