<?xml version="1.0" encoding="utf-8" standalone="no"?>
<!DOCTYPE svg PUBLIC "-//W3C//DTD SVG 1.1//EN"
 "http://www.w3.org/Graphics/SVG/1.1/DTD/svg11.dtd">
<svg xmlns:xlink="http://www.w3.org/1999/xlink" width="231.93pt" height="177.55pt" viewBox="0 0 231.93 177.55" xmlns="http://www.w3.org/2000/svg" version="1.1">
 <g>
 <g>
 <path d="M 0 177.55 
L 231.93 177.55 
L 231.93 0 
L 0 0 
L 0 177.55 
z
" style="fill: none"/>
 </g>
 <g>
 <g>
 <path d="M 29.43 145.8 
L 224.73 145.8 
L 224.73 7.2 
L 29.43 7.2 
L 29.43 145.8 
z
" style="fill: none"/>
 </g>
 <g>
 <path d="M 71.60 106.58 
L 71.60 226.89 
L 73.86 226.89 
L 76.12 226.89 
L 78.39 226.89 
L 80.65 226.89 
L 82.92 226.89 
L 85.18 226.89 
L 87.45 226.89 
L 89.71 226.89 
L 91.98 226.89 
L 94.24 226.89 
L 96.51 226.89 
L 98.77 226.89 
L 101.04 226.89 
L 103.30 226.89 
L 105.56 226.89 
L 107.83 226.89 
L 110.09 226.89 
L 112.36 226.89 
L 114.62 226.89 
L 116.89 226.89 
L 119.15 226.89 
L 121.42 226.89 
L 123.68 226.89 
L 125.95 226.89 
L 128.21 226.89 
L 130.48 226.89 
L 132.74 226.89 
L 135.00 226.89 
L 137.27 226.89 
L 139.53 226.89 
L 141.80 226.89 
L 144.06 226.89 
L 146.33 226.89 
L 148.59 226.89 
L 150.86 226.89 
L 153.12 226.89 
L 155.39 226.89 
L 157.65 226.89 
L 159.92 226.89 
L 162.18 226.89 
L 164.44 226.89 
L 166.71 226.89 
L 168.97 226.89 
L 171.24 226.89 
L 173.50 226.89 
L 175.77 226.89 
L 178.03 226.89 
L 180.30 226.89 
L 182.56 226.89 
L 182.56 46.42 
L 182.56 46.42 
L 180.30 47.65 
L 178.03 48.88 
L 175.77 50.10 
L 173.50 51.33 
L 171.24 52.56 
L 168.97 53.79 
L 166.71 55.02 
L 164.44 56.24 
L 162.18 57.47 
L 159.92 58.70 
L 157.65 59.93 
L 155.39 61.15 
L 153.12 62.38 
L 150.86 63.61 
L 148.59 64.84 
L 146.33 66.06 
L 144.06 67.29 
L 141.80 68.52 
L 139.53 69.75 
L 137.27 70.98 
L 135.00 72.20 
L 132.74 73.43 
L 130.48 74.66 
L 128.21 75.89 
L 125.95 77.11 
L 123.68 78.34 
L 121.42 79.57 
L 119.15 80.80 
L 116.89 82.02 
L 114.62 83.25 
L 112.36 84.48 
L 110.09 85.71 
L 107.83 86.94 
L 105.56 88.16 
L 103.30 89.39 
L 101.04 90.62 
L 98.77 91.85 
L 96.51 93.07 
L 94.24 94.30 
L 91.98 95.53 
L 89.71 96.76 
L 87.45 97.98 
L 85.18 99.21 
L 82.92 100.44 
L 80.65 101.67 
L 78.39 102.90 
L 76.12 104.12 
L 73.86 105.35 
L 71.60 106.58 
z
" style="fill: #2563eb; fill-opacity: 0.15; stroke: #2563eb; stroke-opacity: 0.15"/>
 </g>
 <g>
 <g>
 <g>
 <path d="M 71.60 145.8 
L 71.60 7.2 
" style="fill: none; stroke: #e5e7eb; stroke-opacity: 0.6; stroke-width: 0.5; stroke-linecap: square"/>
 </g>
 <g>
 <defs>
 <path d="M 0 0 
L 0 3.5 
" style="stroke: #9ca3af; stroke-width: 0.8"/>
 </defs>
 <g>
 <use xlink:href="#md2cf645c56" x="71.60" y="145.8" style="fill: #9ca3af; stroke: #9ca3af; stroke-width: 0.8"/>
 </g>
 </g>
 <g>
 <text style="fill: #9ca3af; font: 7px 'DejaVu Sans', 'Bitstream Vera Sans', 'Computer Modern Sans Serif', 'Lucida Grande', 'Verdana', 'Geneva', 'Lucid', 'Arial', 'Helvetica', 'Avant Garde', sans-serif; text-anchor: middle" x="71.60" y="158.12" transform="rotate(-0 71.60 158.12)">1.0</text>
 </g>
 </g>
 <g>
 <g>
 <path d="M 127.08 145.8 
L 127.08 7.2 
" style="fill: none; stroke: #e5e7eb; stroke-opacity: 0.6; stroke-width: 0.5; stroke-linecap: square"/>
 </g>
 <g>
 <g>
 <use xlink:href="#md2cf645c56" x="127.08" y="145.8" style="fill: #9ca3af; stroke: #9ca3af; stroke-width: 0.8"/>
 </g>
 </g>
 <g>
 <text style="fill: #9ca3af; font: 7px 'DejaVu Sans', 'Bitstream Vera Sans', 'Computer Modern Sans Serif', 'Lucida Grande', 'Verdana', 'Geneva', 'Lucid', 'Arial', 'Helvetica', 'Avant Garde', sans-serif; text-anchor: middle" x="127.08" y="158.12" transform="rotate(-0 127.08 158.12)">1.5</text>
 </g>
 </g>
 <g>
 <g>
 <path d="M 182.56 145.8 
L 182.56 7.2 
" style="fill: none; stroke: #e5e7eb; stroke-opacity: 0.6; stroke-width: 0.5; stroke-linecap: square"/>
 </g>
 <g>
 <g>
 <use xlink:href="#md2cf645c56" x="182.56" y="145.8" style="fill: #9ca3af; stroke: #9ca3af; stroke-width: 0.8"/>
 </g>
 </g>
 <g>
 <text style="fill: #9ca3af; font: 7px 'DejaVu Sans', 'Bitstream Vera Sans', 'Computer Modern Sans Serif', 'Lucida Grande', 'Verdana', 'Geneva', 'Lucid', 'Arial', 'Helvetica', 'Avant Garde', sans-serif; text-anchor: middle" x="182.56" y="158.12" transform="rotate(-0 182.56 158.12)">2.0</text>
 </g>
 </g>
 <g>
 <text style="fill: #9ca3af; font: 7px 'DejaVu Sans', 'Bitstream Vera Sans', 'Computer Modern Sans Serif', 'Lucida Grande', 'Verdana', 'Geneva', 'Lucid', 'Arial', 'Helvetica', 'Avant Garde', sans-serif; text-anchor: middle" x="127.08" y="168.89" transform="rotate(-0 127.08 168.89)">x</text>
 </g>
 </g>
 <g>
 <g>
 <g>
 <path d="M 29.43 136.66 
L 224.73 136.66 
" style="fill: none; stroke: #e5e7eb; stroke-opacity: 0.6; stroke-width: 0.5; stroke-linecap: square"/>
 </g>
 <g>
 <defs>
 <path d="M 0 0 
L -3.5 0 
" style="stroke: #9ca3af; stroke-width: 0.8"/>
 </defs>
 <g>
 <use xlink:href="#mc995419d17" x="29.43" y="136.66" style="fill: #9ca3af; stroke: #9ca3af; stroke-width: 0.8"/>
 </g>
 </g>
 <g>
 <text style="fill: #9ca3af; font: 7px 'DejaVu Sans', 'Bitstream Vera Sans', 'Computer Modern Sans Serif', 'Lucida Grande', 'Verdana', 'Geneva', 'Lucid', 'Arial', 'Helvetica', 'Avant Garde', sans-serif; text-anchor: end" x="22.43" y="139.32" transform="rotate(-0 22.43 139.32)">3</text>
 </g>
 </g>
 <g>
 <g>
 <path d="M 29.43 106.58 
L 224.73 106.58 
" style="fill: none; stroke: #e5e7eb; stroke-opacity: 0.6; stroke-width: 0.5; stroke-linecap: square"/>
 </g>
 <g>
 <g>
 <use xlink:href="#mc995419d17" x="29.43" y="106.58" style="fill: #9ca3af; stroke: #9ca3af; stroke-width: 0.8"/>
 </g>
 </g>
 <g>
 <text style="fill: #9ca3af; font: 7px 'DejaVu Sans', 'Bitstream Vera Sans', 'Computer Modern Sans Serif', 'Lucida Grande', 'Verdana', 'Geneva', 'Lucid', 'Arial', 'Helvetica', 'Avant Garde', sans-serif; text-anchor: end" x="22.43" y="109.24" transform="rotate(-0 22.43 109.24)">4</text>
 </g>
 </g>
 <g>
 <g>
 <path d="M 29.43 76.5 
L 224.73 76.5 
" style="fill: none; stroke: #e5e7eb; stroke-opacity: 0.6; stroke-width: 0.5; stroke-linecap: square"/>
 </g>
 <g>
 <g>
 <use xlink:href="#mc995419d17" x="29.43" y="76.5" style="fill: #9ca3af; stroke: #9ca3af; stroke-width: 0.8"/>
 </g>
 </g>
 <g>
 <text style="fill: #9ca3af; font: 7px 'DejaVu Sans', 'Bitstream Vera Sans', 'Computer Modern Sans Serif', 'Lucida Grande', 'Verdana', 'Geneva', 'Lucid', 'Arial', 'Helvetica', 'Avant Garde', sans-serif; text-anchor: end" x="22.43" y="79.16" transform="rotate(-0 22.43 79.16)">5</text>
 </g>
 </g>
 <g>
 <g>
 <path d="M 29.43 46.42 
L 224.73 46.42 
" style="fill: none; stroke: #e5e7eb; stroke-opacity: 0.6; stroke-width: 0.5; stroke-linecap: square"/>
 </g>
 <g>
 <g>
 <use xlink:href="#mc995419d17" x="29.43" y="46.42" style="fill: #9ca3af; stroke: #9ca3af; stroke-width: 0.8"/>
 </g>
 </g>
 <g>
 <text style="fill: #9ca3af; font: 7px 'DejaVu Sans', 'Bitstream Vera Sans', 'Computer Modern Sans Serif', 'Lucida Grande', 'Verdana', 'Geneva', 'Lucid', 'Arial', 'Helvetica', 'Avant Garde', sans-serif; text-anchor: end" x="22.43" y="49.08" transform="rotate(-0 22.43 49.08)">6</text>
 </g>
 </g>
 <g>
 <g>
 <path d="M 29.43 16.34 
L 224.73 16.34 
" style="fill: none; stroke: #e5e7eb; stroke-opacity: 0.6; stroke-width: 0.5; stroke-linecap: square"/>
 </g>
 <g>
 <g>
 <use xlink:href="#mc995419d17" x="29.43" y="16.34" style="fill: #9ca3af; stroke: #9ca3af; stroke-width: 0.8"/>
 </g>
 </g>
 <g>
 <text style="fill: #9ca3af; font: 7px 'DejaVu Sans', 'Bitstream Vera Sans', 'Computer Modern Sans Serif', 'Lucida Grande', 'Verdana', 'Geneva', 'Lucid', 'Arial', 'Helvetica', 'Avant Garde', sans-serif; text-anchor: end" x="22.43" y="19.00" transform="rotate(-0 22.43 19.00)">7</text>
 </g>
 </g>
 <g>
 <text style="fill: #9ca3af; font: 7px 'DejaVu Sans', 'Bitstream Vera Sans', 'Computer Modern Sans Serif', 'Lucida Grande', 'Verdana', 'Geneva', 'Lucid', 'Arial', 'Helvetica', 'Avant Garde', sans-serif; text-anchor: middle" x="12.52" y="76.5" transform="rotate(-90 12.52 76.5)">y</text>
 </g>
 </g>
 <g>
 <path d="M 38.31 124.62 
L 40.55 123.41 
L 42.80 122.19 
L 45.05 120.97 
L 47.30 119.75 
L 49.54 118.53 
L 51.79 117.31 
L 54.04 116.10 
L 56.28 114.88 
L 58.53 113.66 
L 60.78 112.44 
L 63.03 111.22 
L 65.27 110.00 
L 67.52 108.79 
L 69.77 107.57 
L 72.02 106.35 
L 74.26 105.13 
L 76.51 103.91 
L 78.76 102.69 
L 81.01 101.48 
L 83.25 100.26 
L 85.50 99.04 
L 87.75 97.82 
L 90.00 96.60 
L 92.24 95.38 
L 94.49 94.17 
L 96.74 92.95 
L 98.99 91.73 
L 101.23 90.51 
L 103.48 89.29 
L 105.73 88.07 
L 107.98 86.86 
L 110.22 85.64 
L 112.47 84.42 
L 114.72 83.20 
L 116.97 81.98 
L 119.21 80.76 
L 121.46 79.55 
L 123.71 78.33 
L 125.95 77.11 
L 128.20 75.89 
L 130.45 74.67 
L 132.70 73.45 
L 134.94 72.24 
L 137.19 71.02 
L 139.44 69.80 
L 141.69 68.58 
L 143.93 67.36 
L 146.18 66.14 
L 148.43 64.93 
L 150.68 63.71 
L 152.92 62.49 
L 155.17 61.27 
L 157.42 60.05 
L 159.67 58.83 
L 161.91 57.62 
L 164.16 56.40 
L 166.41 55.18 
L 168.66 53.96 
L 170.90 52.74 
L 173.15 51.52 
L 175.40 50.31 
L 177.65 49.09 
L 179.89 47.87 
L 182.14 46.65 
L 184.39 45.43 
L 186.63 44.21 
L 188.88 43.00 
L 191.13 41.78 
L 193.38 40.56 
L 195.62 39.34 
L 197.87 38.12 
L 200.12 36.90 
L 202.37 35.69 
L 204.61 34.47 
L 206.86 33.25 
L 209.11 32.03 
L 211.36 30.81 
L 213.60 29.59 
L 215.85 28.38 
" style="fill: none; stroke: #2563eb; stroke-width: 1.5; stroke-linecap: square"/>
 </g>
 <g>
 <path style="fill: none; stroke: #9ca3af; stroke-width: 0.6; stroke-linecap: square"/>
 </g>
 <g>
 <path d="M 71.60 145.8 
L 71.60 7.2 
" style="fill: none; stroke-dasharray: 0.6,0.99; stroke-dashoffset: 0; stroke: #6b7280; stroke-width: 0.6"/>
 </g>
 <g>
 <path d="M 182.56 145.8 
L 182.56 7.2 
" style="fill: none; stroke-dasharray: 0.6,0.99; stroke-dashoffset: 0; stroke: #6b7280; stroke-width: 0.6"/>
 </g>
 <g>
 <path d="M 29.43 145.8 
L 29.43 7.2 
" style="fill: none; stroke: #9ca3af; stroke-width: 0.6; stroke-linejoin: miter; stroke-linecap: square"/>
 </g>
 <g>
 <path d="M 224.73 145.8 
L 224.73 7.2 
" style="fill: none; stroke: #9ca3af; stroke-width: 0.6; stroke-linejoin: miter; stroke-linecap: square"/>
 </g>
 <g>
 <path d="M 29.43 145.8 
L 224.73 145.8 
" style="fill: none; stroke: #9ca3af; stroke-width: 0.6; stroke-linejoin: miter; stroke-linecap: square"/>
 </g>
 <g>
 <path d="M 29.43 7.2 
L 224.73 7.2 
" style="fill: none; stroke: #9ca3af; stroke-width: 0.6; stroke-linejoin: miter; stroke-linecap: square"/>
 </g>
 </g>
 </g>
 <defs>
 </defs>
</svg>