<?xml version="1.0" encoding="utf-8" standalone="no"?>
<!DOCTYPE svg PUBLIC "-//W3C//DTD SVG 1.1//EN"
 "http://www.w3.org/Graphics/SVG/1.1/DTD/svg11.dtd">
<svg xmlns:xlink="http://www.w3.org/1999/xlink" width="231.93pt" height="177.55pt" viewBox="0 0 231.93 177.55" xmlns="http://www.w3.org/2000/svg" version="1.1">
 <g>
 <g>
 <path d="M 0 177.55 
L 231.93 177.55 
L 231.93 0 
L 0 0 
L 0 177.55 
z
" style="fill: none"/>
 </g>
 <g>
 <g>
 <path d="M 29.43 145.8 
L 224.73 145.8 
L 224.73 7.2 
L 29.43 7.2 
L 29.43 145.8 
z
" style="fill: none"/>
 </g>
 <g>
 <defs>
 <path d="M 71.60 -57.74 
L 71.60 -108.21 
L 73.86 -105.30 
L 76.12 -102.71 
L 78.39 -100.38 
L 80.65 -98.28 
L 82.92 -96.38 
L 85.18 -94.65 
L 87.45 -93.07 
L 89.71 -91.62 
L 91.98 -90.28 
L 94.24 -89.05 
L 96.51 -87.90 
L 98.77 -86.84 
L 101.04 -85.84 
L 103.30 -84.92 
L 105.56 -84.05 
L 107.83 -83.24 
L 110.09 -82.47 
L 112.36 -81.75 
L 114.62 -81.07 
L 116.89 -80.43 
L 119.15 -79.82 
L 121.42 -79.24 
L 123.68 -78.70 
L 125.95 -78.18 
L 128.21 -77.68 
L 130.48 -77.21 
L 132.74 -76.76 
L 135.00 -76.33 
L 137.27 -75.92 
L 139.53 -75.53 
L 141.80 -75.15 
L 144.06 -74.79 
L 146.33 -74.45 
L 148.59 -74.12 
L 150.86 -73.80 
L 153.12 -73.49 
L 155.39 -73.20 
L 157.65 -72.91 
L 159.92 -72.64 
L 162.18 -72.37 
L 164.44 -72.12 
L 166.71 -71.87 
L 168.97 -71.63 
L 171.24 -71.40 
L 173.50 -71.18 
L 175.77 -70.96 
L 178.03 -70.75 
L 180.30 -70.55 
L 182.56 -70.36 
L 182.56 -57.74 
L 182.56 -57.74 
L 180.30 -57.74 
L 178.03 -57.74 
L 175.77 -57.74 
L 173.50 -57.74 
L 171.24 -57.74 
L 168.97 -57.74 
L 166.71 -57.74 
L 164.44 -57.74 
L 162.18 -57.74 
L 159.92 -57.74 
L 157.65 -57.74 
L 155.39 -57.74 
L 153.12 -57.74 
L 150.86 -57.74 
L 148.59 -57.74 
L 146.33 -57.74 
L 144.06 -57.74 
L 141.80 -57.74 
L 139.53 -57.74 
L 137.27 -57.74 
L 135.00 -57.74 
L 132.74 -57.74 
L 130.48 -57.74 
L 128.21 -57.74 
L 125.95 -57.74 
L 123.68 -57.74 
L 121.42 -57.74 
L 119.15 -57.74 
L 116.89 -57.74 
L 114.62 -57.74 
L 112.36 -57.74 
L 110.09 -57.74 
L 107.83 -57.74 
L 105.56 -57.74 
L 103.30 -57.74 
L 101.04 -57.74 
L 98.77 -57.74 
L 96.51 -57.74 
L 94.24 -57.74 
L 91.98 -57.74 
L 89.71 -57.74 
L 87.45 -57.74 
L 85.18 -57.74 
L 82.92 -57.74 
L 80.65 -57.74 
L 78.39 -57.74 
L 76.12 -57.74 
L 73.86 -57.74 
L 71.60 -57.74 
z
" style="stroke: #2563eb; stroke-opacity: 0.15"/>
 </defs>
 <g>
 <use xlink:href="#m60583813d3" x="0" y="177.55" style="fill: #2563eb; fill-opacity: 0.15; stroke: #2563eb; stroke-opacity: 0.15"/>
 </g>
 </g>
 <g>
 <g>
 <g>
 <path d="M 34.61 145.8 
L 34.61 7.2 
" style="fill: none; stroke: #e5e7eb; stroke-opacity: 0.6; stroke-width: 0.5; stroke-linecap: square"/>
 </g>
 <g>
 <defs>
 <path d="M 0 0 
L 0 3.5 
" style="stroke: #9ca3af; stroke-width: 0.8"/>
 </defs>
 <g>
 <use xlink:href="#m755250f932" x="34.61" y="145.8" style="fill: #9ca3af; stroke: #9ca3af; stroke-width: 0.8"/>
 </g>
 </g>
 <g>
 <text style="fill: #9ca3af; font: 7px 'DejaVu Sans', 'Bitstream Vera Sans', 'Computer Modern Sans Serif', 'Lucida Grande', 'Verdana', 'Geneva', 'Lucid', 'Arial', 'Helvetica', 'Avant Garde', sans-serif; text-anchor: middle" x="34.61" y="158.12" transform="rotate(-0 34.61 158.12)">0</text>
 </g>
 </g>
 <g>
 <g>
 <path d="M 108.58 145.8 
L 108.58 7.2 
" style="fill: none; stroke: #e5e7eb; stroke-opacity: 0.6; stroke-width: 0.5; stroke-linecap: square"/>
 </g>
 <g>
 <g>
 <use xlink:href="#m755250f932" x="108.58" y="145.8" style="fill: #9ca3af; stroke: #9ca3af; stroke-width: 0.8"/>
 </g>
 </g>
 <g>
 <text style="fill: #9ca3af; font: 7px 'DejaVu Sans', 'Bitstream Vera Sans', 'Computer Modern Sans Serif', 'Lucida Grande', 'Verdana', 'Geneva', 'Lucid', 'Arial', 'Helvetica', 'Avant Garde', sans-serif; text-anchor: middle" x="108.58" y="158.12" transform="rotate(-0 108.58 158.12)">2</text>
 </g>
 </g>
 <g>
 <g>
 <path d="M 182.56 145.8 
L 182.56 7.2 
" style="fill: none; stroke: #e5e7eb; stroke-opacity: 0.6; stroke-width: 0.5; stroke-linecap: square"/>
 </g>
 <g>
 <g>
 <use xlink:href="#m755250f932" x="182.56" y="145.8" style="fill: #9ca3af; stroke: #9ca3af; stroke-width: 0.8"/>
 </g>
 </g>
 <g>
 <text style="fill: #9ca3af; font: 7px 'DejaVu Sans', 'Bitstream Vera Sans', 'Computer Modern Sans Serif', 'Lucida Grande', 'Verdana', 'Geneva', 'Lucid', 'Arial', 'Helvetica', 'Avant Garde', sans-serif; text-anchor: middle" x="182.56" y="158.12" transform="rotate(-0 182.56 158.12)">4</text>
 </g>
 </g>
 <g>
 <text style="fill: #9ca3af; font: 7px 'DejaVu Sans', 'Bitstream Vera Sans', 'Computer Modern Sans Serif', 'Lucida Grande', 'Verdana', 'Geneva', 'Lucid', 'Arial', 'Helvetica', 'Avant Garde', sans-serif; text-anchor: middle" x="127.08" y="168.89" transform="rotate(-0 127.08 168.89)">x</text>
 </g>
 </g>
 <g>
 <g>
 <g>
 <path d="M 29.43 119.81 
L 224.73 119.81 
" style="fill: none; stroke: #e5e7eb; stroke-opacity: 0.6; stroke-width: 0.5; stroke-linecap: square"/>
 </g>
 <g>
 <defs>
 <path d="M 0 0 
L -3.5 0 
" style="stroke: #9ca3af; stroke-width: 0.8"/>
 </defs>
 <g>
 <use xlink:href="#m2fe4d7f3b9" x="29.43" y="119.81" style="fill: #9ca3af; stroke: #9ca3af; stroke-width: 0.8"/>
 </g>
 </g>
 <g>
 <text style="fill: #9ca3af; font: 7px 'DejaVu Sans', 'Bitstream Vera Sans', 'Computer Modern Sans Serif', 'Lucida Grande', 'Verdana', 'Geneva', 'Lucid', 'Arial', 'Helvetica', 'Avant Garde', sans-serif; text-anchor: end" x="22.43" y="122.47" transform="rotate(-0 22.43 122.47)">0</text>
 </g>
 </g>
 <g>
 <g>
 <path d="M 29.43 69.34 
L 224.73 69.34 
" style="fill: none; stroke: #e5e7eb; stroke-opacity: 0.6; stroke-width: 0.5; stroke-linecap: square"/>
 </g>
 <g>
 <g>
 <use xlink:href="#m2fe4d7f3b9" x="29.43" y="69.34" style="fill: #9ca3af; stroke: #9ca3af; stroke-width: 0.8"/>
 </g>
 </g>
 <g>
 <text style="fill: #9ca3af; font: 7px 'DejaVu Sans', 'Bitstream Vera Sans', 'Computer Modern Sans Serif', 'Lucida Grande', 'Verdana', 'Geneva', 'Lucid', 'Arial', 'Helvetica', 'Avant Garde', sans-serif; text-anchor: end" x="22.43" y="72.00" transform="rotate(-0 22.43 72.00)">2</text>
 </g>
 </g>
 <g>
 <g>
 <path d="M 29.43 18.86 
L 224.73 18.86 
" style="fill: none; stroke: #e5e7eb; stroke-opacity: 0.6; stroke-width: 0.5; stroke-linecap: square"/>
 </g>
 <g>
 <g>
 <use xlink:href="#m2fe4d7f3b9" x="29.43" y="18.86" style="fill: #9ca3af; stroke: #9ca3af; stroke-width: 0.8"/>
 </g>
 </g>
 <g>
 <text style="fill: #9ca3af; font: 7px 'DejaVu Sans', 'Bitstream Vera Sans', 'Computer Modern Sans Serif', 'Lucida Grande', 'Verdana', 'Geneva', 'Lucid', 'Arial', 'Helvetica', 'Avant Garde', sans-serif; text-anchor: end" x="22.43" y="21.52" transform="rotate(-0 22.43 21.52)">4</text>
 </g>
 </g>
 <g>
 <text style="fill: #9ca3af; font: 7px 'DejaVu Sans', 'Bitstream Vera Sans', 'Computer Modern Sans Serif', 'Lucida Grande', 'Verdana', 'Geneva', 'Lucid', 'Arial', 'Helvetica', 'Avant Garde', sans-serif; text-anchor: middle" x="12.52" y="76.5" transform="rotate(-90 12.52 76.5)">y</text>
 </g>
 </g>
 <g>
 <path d="M 50.12 -1 
L 51.79 11.16 
L 54.04 23.72 
L 56.28 33.69 
L 58.53 41.78 
L 60.78 48.48 
L 63.03 54.12 
L 65.27 58.93 
L 67.52 63.09 
L 69.77 66.71 
L 72.02 69.90 
L 74.26 72.73 
L 76.51 75.26 
L 78.76 77.53 
L 81.01 79.57 
L 83.25 81.43 
L 85.50 83.13 
L 87.75 84.68 
L 90.00 86.10 
L 92.24 87.42 
L 94.49 88.63 
L 96.74 89.76 
L 98.99 90.81 
L 101.23 91.79 
L 103.48 92.70 
L 105.73 93.56 
L 107.98 94.36 
L 110.22 95.12 
L 112.47 95.83 
L 114.72 96.51 
L 116.97 97.14 
L 119.21 97.74 
L 121.46 98.32 
L 123.71 98.86 
L 125.95 99.37 
L 128.20 99.86 
L 130.45 100.33 
L 132.70 100.78 
L 134.94 101.20 
L 137.19 101.61 
L 139.44 102.00 
L 141.69 102.38 
L 143.93 102.73 
L 146.18 103.08 
L 148.43 103.41 
L 150.68 103.73 
L 152.92 104.03 
L 155.17 104.33 
L 157.42 104.61 
L 159.67 104.88 
L 161.91 105.15 
L 164.16 105.40 
L 166.41 105.65 
L 168.66 105.88 
L 170.90 106.11 
L 173.15 106.34 
L 175.40 106.55 
L 177.65 106.76 
L 179.89 106.96 
L 182.14 107.16 
L 184.39 107.35 
L 186.63 107.53 
L 188.88 107.71 
L 191.13 107.88 
L 193.38 108.05 
L 195.62 108.22 
L 197.87 108.38 
L 200.12 108.53 
L 202.37 108.68 
L 204.61 108.83 
L 206.86 108.97 
L 209.11 109.11 
L 211.36 109.25 
L 213.60 109.38 
L 215.85 109.51 
" style="fill: none; stroke: #2563eb; stroke-width: 1.5; stroke-linecap: square"/>
 </g>
 <g>
 <path d="M 38.31 119.81 
L 40.55 119.81 
L 42.80 119.81 
L 45.05 119.81 
L 47.30 119.81 
L 49.54 119.81 
L 51.79 119.81 
L 54.04 119.81 
L 56.28 119.81 
L 58.53 119.81 
L 60.78 119.81 
L 63.03 119.81 
L 65.27 119.81 
L 67.52 119.81 
L 69.77 119.81 
L 72.02 119.81 
L 74.26 119.81 
L 76.51 119.81 
L 78.76 119.81 
L 81.01 119.81 
L 83.25 119.81 
L 85.50 119.81 
L 87.75 119.81 
L 90.00 119.81 
L 92.24 119.81 
L 94.49 119.81 
L 96.74 119.81 
L 98.99 119.81 
L 101.23 119.81 
L 103.48 119.81 
L 105.73 119.81 
L 107.98 119.81 
L 110.22 119.81 
L 112.47 119.81 
L 114.72 119.81 
L 116.97 119.81 
L 119.21 119.81 
L 121.46 119.81 
L 123.71 119.81 
L 125.95 119.81 
L 128.20 119.81 
L 130.45 119.81 
L 132.70 119.81 
L 134.94 119.81 
L 137.19 119.81 
L 139.44 119.81 
L 141.69 119.81 
L 143.93 119.81 
L 146.18 119.81 
L 148.43 119.81 
L 150.68 119.81 
L 152.92 119.81 
L 155.17 119.81 
L 157.42 119.81 
L 159.67 119.81 
L 161.91 119.81 
L 164.16 119.81 
L 166.41 119.81 
L 168.66 119.81 
L 170.90 119.81 
L 173.15 119.81 
L 175.40 119.81 
L 177.65 119.81 
L 179.89 119.81 
L 182.14 119.81 
L 184.39 119.81 
L 186.63 119.81 
L 188.88 119.81 
L 191.13 119.81 
L 193.38 119.81 
L 195.62 119.81 
L 197.87 119.81 
L 200.12 119.81 
L 202.37 119.81 
L 204.61 119.81 
L 206.86 119.81 
L 209.11 119.81 
L 211.36 119.81 
L 213.60 119.81 
L 215.85 119.81 
" style="fill: none; stroke: #dc2626; stroke-width: 1.5; stroke-linecap: square"/>
 </g>
 <g>
 <path d="M 71.60 145.8 
L 71.60 7.2 
" style="fill: none; stroke-dasharray: 0.6,0.99; stroke-dashoffset: 0; stroke: #6b7280; stroke-width: 0.6"/>
 </g>
 <g>
 <path d="M 182.56 145.8 
L 182.56 7.2 
" style="fill: none; stroke-dasharray: 0.6,0.99; stroke-dashoffset: 0; stroke: #6b7280; stroke-width: 0.6"/>
 </g>
 <g>
 <path d="M 29.43 145.8 
L 29.43 7.2 
" style="fill: none; stroke: #9ca3af; stroke-width: 0.6; stroke-linejoin: miter; stroke-linecap: square"/>
 </g>
 <g>
 <path d="M 224.73 145.8 
L 224.73 7.2 
" style="fill: none; stroke: #9ca3af; stroke-width: 0.6; stroke-linejoin: miter; stroke-linecap: square"/>
 </g>
 <g>
 <path d="M 29.43 145.8 
L 224.73 145.8 
" style="fill: none; stroke: #9ca3af; stroke-width: 0.6; stroke-linejoin: miter; stroke-linecap: square"/>
 </g>
 <g>
 <path d="M 29.43 7.2 
L 224.73 7.2 
" style="fill: none; stroke: #9ca3af; stroke-width: 0.6; stroke-linejoin: miter; stroke-linecap: square"/>
 </g>
 </g>
 </g>
 <defs>
 </defs>
</svg>