<?xml version="1.0" encoding="utf-8" standalone="no"?>
<!DOCTYPE svg PUBLIC "-//W3C//DTD SVG 1.1//EN"
 "http://www.w3.org/Graphics/SVG/1.1/DTD/svg11.dtd">
<svg xmlns:xlink="http://www.w3.org/1999/xlink" width="244.47pt" height="177.55pt" viewBox="0 0 244.47 177.55" xmlns="http://www.w3.org/2000/svg" version="1.1">
 <g>
 <g>
 <path d="M 0 177.55 
L 244.47 177.55 
L 244.47 0 
L 0 0 
L 0 177.55 
z
" style="fill: none"/>
 </g>
 <g>
 <g>
 <path d="M 41.97 145.8 
L 237.27 145.8 
L 237.27 7.2 
L 41.97 7.2 
L 41.97 145.8 
z
" style="fill: none"/>
 </g>
 <g>
 <defs>
 <path d="M 84.14 -108.60 
L 84.14 -144.64 
L 86.40 -144.64 
L 88.67 -144.64 
L 90.93 -144.64 
L 93.20 -144.64 
L 95.46 -144.64 
L 97.73 -144.64 
L 99.99 -144.64 
L 102.26 -144.64 
L 104.52 -144.64 
L 106.79 -144.64 
L 109.05 -144.64 
L 111.32 -144.64 
L 113.58 -144.64 
L 115.84 -144.64 
L 118.11 -144.64 
L 120.37 -144.64 
L 122.64 -144.64 
L 124.90 -144.64 
L 127.17 -144.64 
L 129.43 -144.64 
L 131.70 -144.64 
L 133.96 -144.64 
L 136.23 -144.64 
L 138.49 -144.64 
L 140.75 -144.64 
L 143.02 -144.64 
L 145.28 -144.64 
L 147.55 -144.64 
L 149.81 -144.64 
L 152.08 -144.64 
L 154.34 -144.64 
L 156.61 -144.64 
L 158.87 -144.64 
L 161.14 -144.64 
L 163.40 -144.64 
L 165.67 -144.64 
L 167.93 -144.64 
L 170.19 -144.64 
L 172.46 -144.64 
L 174.72 -144.64 
L 176.99 -144.64 
L 179.25 -144.64 
L 181.52 -144.64 
L 183.78 -144.64 
L 186.05 -144.64 
L 188.31 -144.64 
L 190.58 -144.64 
L 192.84 -144.64 
L 195.11 -144.64 
L 195.11 -143.98 
L 195.11 -143.98 
L 192.84 -143.92 
L 190.58 -143.86 
L 188.31 -143.79 
L 186.05 -143.72 
L 183.78 -143.64 
L 181.52 -143.56 
L 179.25 -143.47 
L 176.99 -143.37 
L 174.72 -143.26 
L 172.46 -143.14 
L 170.19 -143.02 
L 167.93 -142.88 
L 165.67 -142.73 
L 163.40 -142.57 
L 161.14 -142.39 
L 158.87 -142.20 
L 156.61 -141.99 
L 154.34 -141.77 
L 152.08 -141.52 
L 149.81 -141.26 
L 147.55 -140.97 
L 145.28 -140.66 
L 143.02 -140.32 
L 140.75 -139.95 
L 138.49 -139.56 
L 136.23 -139.12 
L 133.96 -138.65 
L 131.70 -138.15 
L 129.43 -137.59 
L 127.17 -136.99 
L 124.90 -136.34 
L 122.64 -135.64 
L 120.37 -134.87 
L 118.11 -134.04 
L 115.84 -133.14 
L 113.58 -132.17 
L 111.32 -131.10 
L 109.05 -129.95 
L 106.79 -128.70 
L 104.52 -127.35 
L 102.26 -125.88 
L 99.99 -124.28 
L 97.73 -122.55 
L 95.46 -120.67 
L 93.20 -118.64 
L 90.93 -116.43 
L 88.67 -114.03 
L 86.40 -111.42 
L 84.14 -108.60 
z
" style="stroke: #2563eb; stroke-opacity: 0.15"/>
 </defs>
 <g>
 <use xlink:href="#m7b88e0ecb6" x="0" y="177.55" style="fill: #2563eb; fill-opacity: 0.15; stroke: #2563eb; stroke-opacity: 0.15"/>
 </g>
 </g>
 <g>
 <g>
 <g>
 <path d="M 84.14 145.8 
L 84.14 7.2 
" style="fill: none; stroke: #e5e7eb; stroke-opacity: 0.6; stroke-width: 0.5; stroke-linecap: square"/>
 </g>
 <g>
 <defs>
 <path d="M 0 0 
L 0 3.5 
" style="stroke: #9ca3af; stroke-width: 0.8"/>
 </defs>
 <g>
 <use xlink:href="#m5b2a3ac8cc" x="84.14" y="145.8" style="fill: #9ca3af; stroke: #9ca3af; stroke-width: 0.8"/>
 </g>
 </g>
 <g>
 <text style="fill: #9ca3af; font: 7px 'DejaVu Sans', 'Bitstream Vera Sans', 'Computer Modern Sans Serif', 'Lucida Grande', 'Verdana', 'Geneva', 'Lucid', 'Arial', 'Helvetica', 'Avant Garde', sans-serif; text-anchor: middle" x="84.14" y="158.12" transform="rotate(-0 84.14 158.12)">0</text>
 </g>
 </g>
 <g>
 <g>
 <path d="M 139.62 145.8 
L 139.62 7.2 
" style="fill: none; stroke: #e5e7eb; stroke-opacity: 0.6; stroke-width: 0.5; stroke-linecap: square"/>
 </g>
 <g>
 <g>
 <use xlink:href="#m5b2a3ac8cc" x="139.62" y="145.8" style="fill: #9ca3af; stroke: #9ca3af; stroke-width: 0.8"/>
 </g>
 </g>
 <g>
 <text style="fill: #9ca3af; font: 7px 'DejaVu Sans', 'Bitstream Vera Sans', 'Computer Modern Sans Serif', 'Lucida Grande', 'Verdana', 'Geneva', 'Lucid', 'Arial', 'Helvetica', 'Avant Garde', sans-serif; text-anchor: middle" x="139.62" y="158.12" transform="rotate(-0 139.62 158.12)">1</text>
 </g>
 </g>
 <g>
 <g>
 <path d="M 195.11 145.8 
L 195.11 7.2 
" style="fill: none; stroke: #e5e7eb; stroke-opacity: 0.6; stroke-width: 0.5; stroke-linecap: square"/>
 </g>
 <g>
 <g>
 <use xlink:href="#m5b2a3ac8cc" x="195.11" y="145.8" style="fill: #9ca3af; stroke: #9ca3af; stroke-width: 0.8"/>
 </g>
 </g>
 <g>
 <text style="fill: #9ca3af; font: 7px 'DejaVu Sans', 'Bitstream Vera Sans', 'Computer Modern Sans Serif', 'Lucida Grande', 'Verdana', 'Geneva', 'Lucid', 'Arial', 'Helvetica', 'Avant Garde', sans-serif; text-anchor: middle" x="195.11" y="158.12" transform="rotate(-0 195.11 158.12)">2</text>
 </g>
 </g>
 <g>
 <text style="fill: #9ca3af; font: 7px 'DejaVu Sans', 'Bitstream Vera Sans', 'Computer Modern Sans Serif', 'Lucida Grande', 'Verdana', 'Geneva', 'Lucid', 'Arial', 'Helvetica', 'Avant Garde', sans-serif; text-anchor: middle" x="139.62" y="168.89" transform="rotate(-0 139.62 168.89)">x</text>
 </g>
 </g>
 <g>
 <g>
 <g>
 <path d="M 41.97 123.01 
L 237.27 123.01 
" style="fill: none; stroke: #e5e7eb; stroke-opacity: 0.6; stroke-width: 0.5; stroke-linecap: square"/>
 </g>
 <g>
 <defs>
 <path d="M 0 0 
L -3.5 0 
" style="stroke: #9ca3af; stroke-width: 0.8"/>
 </defs>
 <g>
 <use xlink:href="#m261ceb6173" x="41.97" y="123.01" style="fill: #9ca3af; stroke: #9ca3af; stroke-width: 0.8"/>
 </g>
 </g>
 <g>
 <text style="fill: #9ca3af; font: 7px 'DejaVu Sans', 'Bitstream Vera Sans', 'Computer Modern Sans Serif', 'Lucida Grande', 'Verdana', 'Geneva', 'Lucid', 'Arial', 'Helvetica', 'Avant Garde', sans-serif; text-anchor: end" x="34.97" y="125.67" transform="rotate(-0 34.97 125.67)">−7.5</text>
 </g>
 </g>
 <g>
 <g>
 <path d="M 41.97 92.98 
L 237.27 92.98 
" style="fill: none; stroke: #e5e7eb; stroke-opacity: 0.6; stroke-width: 0.5; stroke-linecap: square"/>
 </g>
 <g>
 <g>
 <use xlink:href="#m261ceb6173" x="41.97" y="92.98" style="fill: #9ca3af; stroke: #9ca3af; stroke-width: 0.8"/>
 </g>
 </g>
 <g>
 <text style="fill: #9ca3af; font: 7px 'DejaVu Sans', 'Bitstream Vera Sans', 'Computer Modern Sans Serif', 'Lucida Grande', 'Verdana', 'Geneva', 'Lucid', 'Arial', 'Helvetica', 'Avant Garde', sans-serif; text-anchor: end" x="34.97" y="95.64" transform="rotate(-0 34.97 95.64)">−5.0</text>
 </g>
 </g>
 <g>
 <g>
 <path d="M 41.97 62.95 
L 237.27 62.95 
" style="fill: none; stroke: #e5e7eb; stroke-opacity: 0.6; stroke-width: 0.5; stroke-linecap: square"/>
 </g>
 <g>
 <g>
 <use xlink:href="#m261ceb6173" x="41.97" y="62.95" style="fill: #9ca3af; stroke: #9ca3af; stroke-width: 0.8"/>
 </g>
 </g>
 <g>
 <text style="fill: #9ca3af; font: 7px 'DejaVu Sans', 'Bitstream Vera Sans', 'Computer Modern Sans Serif', 'Lucida Grande', 'Verdana', 'Geneva', 'Lucid', 'Arial', 'Helvetica', 'Avant Garde', sans-serif; text-anchor: end" x="34.97" y="65.61" transform="rotate(-0 34.97 65.61)">−2.5</text>
 </g>
 </g>
 <g>
 <g>
 <path d="M 41.97 32.91 
L 237.27 32.91 
" style="fill: none; stroke: #e5e7eb; stroke-opacity: 0.6; stroke-width: 0.5; stroke-linecap: square"/>
 </g>
 <g>
 <g>
 <use xlink:href="#m261ceb6173" x="41.97" y="32.91" style="fill: #9ca3af; stroke: #9ca3af; stroke-width: 0.8"/>
 </g>
 </g>
 <g>
 <text style="fill: #9ca3af; font: 7px 'DejaVu Sans', 'Bitstream Vera Sans', 'Computer Modern Sans Serif', 'Lucida Grande', 'Verdana', 'Geneva', 'Lucid', 'Arial', 'Helvetica', 'Avant Garde', sans-serif; text-anchor: end" x="34.97" y="35.57" transform="rotate(-0 34.97 35.57)">0.0</text>
 </g>
 </g>
 <g>
 <text style="fill: #9ca3af; font: 7px 'DejaVu Sans', 'Bitstream Vera Sans', 'Computer Modern Sans Serif', 'Lucida Grande', 'Verdana', 'Geneva', 'Lucid', 'Arial', 'Helvetica', 'Avant Garde', sans-serif; text-anchor: middle" x="12.52" y="76.5" transform="rotate(-90 12.52 76.5)">y</text>
 </g>
 </g>
 <g>
 <path d="M 50.85 152.57 
L 53.10 143.25 
L 55.34 134.67 
L 57.59 126.75 
L 59.84 119.45 
L 62.09 112.71 
L 64.33 106.50 
L 66.58 100.78 
L 68.83 95.50 
L 71.08 90.63 
L 73.32 86.13 
L 75.57 81.99 
L 77.82 78.17 
L 80.07 74.65 
L 82.31 71.40 
L 84.56 68.41 
L 86.81 65.65 
L 89.06 63.10 
L 91.30 60.75 
L 93.55 58.58 
L 95.80 56.59 
L 98.05 54.74 
L 100.29 53.05 
L 102.54 51.48 
L 104.79 50.03 
L 107.04 48.70 
L 109.28 47.47 
L 111.53 46.34 
L 113.78 45.30 
L 116.02 44.33 
L 118.27 43.44 
L 120.52 42.62 
L 122.77 41.87 
L 125.01 41.17 
L 127.26 40.53 
L 129.51 39.94 
L 131.76 39.39 
L 134.00 38.89 
L 136.25 38.42 
L 138.50 37.99 
L 140.75 37.60 
L 142.99 37.23 
L 145.24 36.90 
L 147.49 36.59 
L 149.74 36.30 
L 151.98 36.04 
L 154.23 35.79 
L 156.48 35.57 
L 158.73 35.36 
L 160.97 35.17 
L 163.22 35.00 
L 165.47 34.83 
L 167.72 34.69 
L 169.96 34.55 
L 172.21 34.42 
L 174.46 34.30 
L 176.70 34.19 
L 178.95 34.10 
L 181.20 34.00 
L 183.45 33.92 
L 185.69 33.84 
L 187.94 33.77 
L 190.19 33.70 
L 192.44 33.64 
L 194.68 33.58 
L 196.93 33.53 
L 199.18 33.48 
L 201.43 33.44 
L 203.67 33.40 
L 205.92 33.36 
L 208.17 33.33 
L 210.42 33.29 
L 212.66 33.26 
L 214.91 33.24 
L 217.16 33.21 
L 219.41 33.19 
L 221.65 33.17 
L 223.90 33.15 
L 226.15 33.13 
L 228.40 33.11 
" style="fill: none; stroke: #2563eb; stroke-width: 1.5; stroke-linecap: square"/>
 </g>
 <g>
 <path d="M 41.97 32.91 
L 237.27 32.91 
" style="fill: none; stroke: #9ca3af; stroke-width: 0.6; stroke-linecap: square"/>
 </g>
 <g>
 <path d="M 84.14 145.8 
L 84.14 7.2 
" style="fill: none; stroke-dasharray: 0.6,0.99; stroke-dashoffset: 0; stroke: #6b7280; stroke-width: 0.6"/>
 </g>
 <g>
 <path d="M 195.11 145.8 
L 195.11 7.2 
" style="fill: none; stroke-dasharray: 0.6,0.99; stroke-dashoffset: 0; stroke: #6b7280; stroke-width: 0.6"/>
 </g>
 <g>
 <path d="M 41.97 145.8 
L 41.97 7.2 
" style="fill: none; stroke: #9ca3af; stroke-width: 0.6; stroke-linejoin: miter; stroke-linecap: square"/>
 </g>
 <g>
 <path d="M 237.27 145.8 
L 237.27 7.2 
" style="fill: none; stroke: #9ca3af; stroke-width: 0.6; stroke-linejoin: miter; stroke-linecap: square"/>
 </g>
 <g>
 <path d="M 41.97 145.8 
L 237.27 145.8 
" style="fill: none; stroke: #9ca3af; stroke-width: 0.6; stroke-linejoin: miter; stroke-linecap: square"/>
 </g>
 <g>
 <path d="M 41.97 7.2 
L 237.27 7.2 
" style="fill: none; stroke: #9ca3af; stroke-width: 0.6; stroke-linejoin: miter; stroke-linecap: square"/>
 </g>
 </g>
 </g>
 <defs>
 </defs>
</svg>