<?xml version="1.0" encoding="utf-8" standalone="no"?>
<!DOCTYPE svg PUBLIC "-//W3C//DTD SVG 1.1//EN"
 "http://www.w3.org/Graphics/SVG/1.1/DTD/svg11.dtd">
<svg xmlns:xlink="http://www.w3.org/1999/xlink" width="238.61pt" height="177.55pt" viewBox="0 0 238.61 177.55" xmlns="http://www.w3.org/2000/svg" version="1.1">
 <g>
 <g>
 <path d="M 0 177.55 
L 238.61 177.55 
L 238.61 0 
L 0 0 
L 0 177.55 
z
" style="fill: none"/>
 </g>
 <g>
 <g>
 <path d="M 36.11 145.8 
L 231.41 145.8 
L 231.41 7.2 
L 36.11 7.2 
L 36.11 145.8 
z
" style="fill: none"/>
 </g>
 <g>
 <defs>
 <path d="M 78.27 -57.74 
L 78.27 -120.27 
L 80.54 -117.82 
L 82.80 -115.55 
L 85.07 -113.45 
L 87.33 -111.50 
L 89.60 -109.67 
L 91.86 -107.97 
L 94.13 -106.38 
L 96.39 -104.88 
L 98.66 -103.47 
L 100.92 -102.15 
L 103.18 -100.90 
L 105.45 -99.71 
L 107.71 -98.59 
L 109.98 -97.53 
L 112.24 -96.52 
L 114.51 -95.57 
L 116.77 -94.66 
L 119.04 -93.79 
L 121.30 -92.96 
L 123.57 -92.17 
L 125.83 -91.41 
L 128.10 -90.69 
L 130.36 -89.99 
L 132.62 -89.33 
L 134.89 -88.69 
L 137.15 -88.08 
L 139.42 -87.49 
L 141.68 -86.92 
L 143.95 -86.37 
L 146.21 -85.85 
L 148.48 -85.34 
L 150.74 -84.85 
L 153.01 -84.38 
L 155.27 -83.93 
L 157.54 -83.49 
L 159.80 -83.06 
L 162.06 -82.65 
L 164.33 -82.25 
L 166.59 -81.86 
L 168.86 -81.49 
L 171.12 -81.13 
L 173.39 -80.78 
L 175.65 -80.43 
L 177.92 -80.10 
L 180.18 -79.78 
L 182.45 -79.47 
L 184.71 -79.17 
L 186.98 -78.87 
L 189.24 -78.58 
L 189.24 -57.74 
L 189.24 -57.74 
L 186.98 -57.74 
L 184.71 -57.74 
L 182.45 -57.74 
L 180.18 -57.74 
L 177.92 -57.74 
L 175.65 -57.74 
L 173.39 -57.74 
L 171.12 -57.74 
L 168.86 -57.74 
L 166.59 -57.74 
L 164.33 -57.74 
L 162.06 -57.74 
L 159.80 -57.74 
L 157.54 -57.74 
L 155.27 -57.74 
L 153.01 -57.74 
L 150.74 -57.74 
L 148.48 -57.74 
L 146.21 -57.74 
L 143.95 -57.74 
L 141.68 -57.74 
L 139.42 -57.74 
L 137.15 -57.74 
L 134.89 -57.74 
L 132.62 -57.74 
L 130.36 -57.74 
L 128.10 -57.74 
L 125.83 -57.74 
L 123.57 -57.74 
L 121.30 -57.74 
L 119.04 -57.74 
L 116.77 -57.74 
L 114.51 -57.74 
L 112.24 -57.74 
L 109.98 -57.74 
L 107.71 -57.74 
L 105.45 -57.74 
L 103.18 -57.74 
L 100.92 -57.74 
L 98.66 -57.74 
L 96.39 -57.74 
L 94.13 -57.74 
L 91.86 -57.74 
L 89.60 -57.74 
L 87.33 -57.74 
L 85.07 -57.74 
L 82.80 -57.74 
L 80.54 -57.74 
L 78.27 -57.74 
z
" style="stroke: #2563eb; stroke-opacity: 0.15"/>
 </defs>
 <g>
 <use xlink:href="#mf103fa487e" x="0" y="177.55" style="fill: #2563eb; fill-opacity: 0.15; stroke: #2563eb; stroke-opacity: 0.15"/>
 </g>
 </g>
 <g>
 <g>
 <g>
 <path d="M 78.27 145.8 
L 78.27 7.2 
" style="fill: none; stroke: #e5e7eb; stroke-opacity: 0.6; stroke-width: 0.5; stroke-linecap: square"/>
 </g>
 <g>
 <defs>
 <path d="M 0 0 
L 0 3.5 
" style="stroke: #9ca3af; stroke-width: 0.8"/>
 </defs>
 <g>
 <use xlink:href="#mb753d93e0a" x="78.27" y="145.8" style="fill: #9ca3af; stroke: #9ca3af; stroke-width: 0.8"/>
 </g>
 </g>
 <g>
 <text style="fill: #9ca3af; font: 7px 'DejaVu Sans', 'Bitstream Vera Sans', 'Computer Modern Sans Serif', 'Lucida Grande', 'Verdana', 'Geneva', 'Lucid', 'Arial', 'Helvetica', 'Avant Garde', sans-serif; text-anchor: middle" x="78.27" y="158.12" transform="rotate(-0 78.27 158.12)">1</text>
 </g>
 </g>
 <g>
 <g>
 <path d="M 133.76 145.8 
L 133.76 7.2 
" style="fill: none; stroke: #e5e7eb; stroke-opacity: 0.6; stroke-width: 0.5; stroke-linecap: square"/>
 </g>
 <g>
 <g>
 <use xlink:href="#mb753d93e0a" x="133.76" y="145.8" style="fill: #9ca3af; stroke: #9ca3af; stroke-width: 0.8"/>
 </g>
 </g>
 <g>
 <text style="fill: #9ca3af; font: 7px 'DejaVu Sans', 'Bitstream Vera Sans', 'Computer Modern Sans Serif', 'Lucida Grande', 'Verdana', 'Geneva', 'Lucid', 'Arial', 'Helvetica', 'Avant Garde', sans-serif; text-anchor: middle" x="133.76" y="158.12" transform="rotate(-0 133.76 158.12)">2</text>
 </g>
 </g>
 <g>
 <g>
 <path d="M 189.24 145.8 
L 189.24 7.2 
" style="fill: none; stroke: #e5e7eb; stroke-opacity: 0.6; stroke-width: 0.5; stroke-linecap: square"/>
 </g>
 <g>
 <g>
 <use xlink:href="#mb753d93e0a" x="189.24" y="145.8" style="fill: #9ca3af; stroke: #9ca3af; stroke-width: 0.8"/>
 </g>
 </g>
 <g>
 <text style="fill: #9ca3af; font: 7px 'DejaVu Sans', 'Bitstream Vera Sans', 'Computer Modern Sans Serif', 'Lucida Grande', 'Verdana', 'Geneva', 'Lucid', 'Arial', 'Helvetica', 'Avant Garde', sans-serif; text-anchor: middle" x="189.24" y="158.12" transform="rotate(-0 189.24 158.12)">3</text>
 </g>
 </g>
 <g>
 <text style="fill: #9ca3af; font: 7px 'DejaVu Sans', 'Bitstream Vera Sans', 'Computer Modern Sans Serif', 'Lucida Grande', 'Verdana', 'Geneva', 'Lucid', 'Arial', 'Helvetica', 'Avant Garde', sans-serif; text-anchor: middle" x="133.76" y="168.89" transform="rotate(-0 133.76 168.89)">x</text>
 </g>
 </g>
 <g>
 <g>
 <g>
 <path d="M 36.11 119.81 
L 231.41 119.81 
" style="fill: none; stroke: #e5e7eb; stroke-opacity: 0.6; stroke-width: 0.5; stroke-linecap: square"/>
 </g>
 <g>
 <defs>
 <path d="M 0 0 
L -3.5 0 
" style="stroke: #9ca3af; stroke-width: 0.8"/>
 </defs>
 <g>
 <use xlink:href="#m01e06e887a" x="36.11" y="119.81" style="fill: #9ca3af; stroke: #9ca3af; stroke-width: 0.8"/>
 </g>
 </g>
 <g>
 <text style="fill: #9ca3af; font: 7px 'DejaVu Sans', 'Bitstream Vera Sans', 'Computer Modern Sans Serif', 'Lucida Grande', 'Verdana', 'Geneva', 'Lucid', 'Arial', 'Helvetica', 'Avant Garde', sans-serif; text-anchor: end" x="29.11" y="122.47" transform="rotate(-0 29.11 122.47)">0.0</text>
 </g>
 </g>
 <g>
 <g>
 <path d="M 36.11 88.54 
L 231.41 88.54 
" style="fill: none; stroke: #e5e7eb; stroke-opacity: 0.6; stroke-width: 0.5; stroke-linecap: square"/>
 </g>
 <g>
 <g>
 <use xlink:href="#m01e06e887a" x="36.11" y="88.54" style="fill: #9ca3af; stroke: #9ca3af; stroke-width: 0.8"/>
 </g>
 </g>
 <g>
 <text style="fill: #9ca3af; font: 7px 'DejaVu Sans', 'Bitstream Vera Sans', 'Computer Modern Sans Serif', 'Lucida Grande', 'Verdana', 'Geneva', 'Lucid', 'Arial', 'Helvetica', 'Avant Garde', sans-serif; text-anchor: end" x="29.11" y="91.20" transform="rotate(-0 29.11 91.20)">0.5</text>
 </g>
 </g>
 <g>
 <g>
 <path d="M 36.11 57.28 
L 231.41 57.28 
" style="fill: none; stroke: #e5e7eb; stroke-opacity: 0.6; stroke-width: 0.5; stroke-linecap: square"/>
 </g>
 <g>
 <g>
 <use xlink:href="#m01e06e887a" x="36.11" y="57.28" style="fill: #9ca3af; stroke: #9ca3af; stroke-width: 0.8"/>
 </g>
 </g>
 <g>
 <text style="fill: #9ca3af; font: 7px 'DejaVu Sans', 'Bitstream Vera Sans', 'Computer Modern Sans Serif', 'Lucida Grande', 'Verdana', 'Geneva', 'Lucid', 'Arial', 'Helvetica', 'Avant Garde', sans-serif; text-anchor: end" x="29.11" y="59.94" transform="rotate(-0 29.11 59.94)">1.0</text>
 </g>
 </g>
 <g>
 <g>
 <path d="M 36.11 26.01 
L 231.41 26.01 
" style="fill: none; stroke: #e5e7eb; stroke-opacity: 0.6; stroke-width: 0.5; stroke-linecap: square"/>
 </g>
 <g>
 <g>
 <use xlink:href="#m01e06e887a" x="36.11" y="26.01" style="fill: #9ca3af; stroke: #9ca3af; stroke-width: 0.8"/>
 </g>
 </g>
 <g>
 <text style="fill: #9ca3af; font: 7px 'DejaVu Sans', 'Bitstream Vera Sans', 'Computer Modern Sans Serif', 'Lucida Grande', 'Verdana', 'Geneva', 'Lucid', 'Arial', 'Helvetica', 'Avant Garde', sans-serif; text-anchor: end" x="29.11" y="28.67" transform="rotate(-0 29.11 28.67)">1.5</text>
 </g>
 </g>
 <g>
 <text style="fill: #9ca3af; font: 7px 'DejaVu Sans', 'Bitstream Vera Sans', 'Computer Modern Sans Serif', 'Lucida Grande', 'Verdana', 'Geneva', 'Lucid', 'Arial', 'Helvetica', 'Avant Garde', sans-serif; text-anchor: middle" x="12.52" y="76.5" transform="rotate(-90 12.52 76.5)">y</text>
 </g>
 </g>
 <g>
 <path d="M 51.53 -1 
L 51.73 -0.10 
L 53.97 8.54 
L 56.22 16.02 
L 58.47 22.56 
L 60.72 28.33 
L 62.96 33.44 
L 65.21 38.02 
L 67.46 42.13 
L 69.71 45.86 
L 71.95 49.24 
L 74.20 52.32 
L 76.45 55.15 
L 78.70 57.75 
L 80.94 60.15 
L 83.19 62.37 
L 85.44 64.43 
L 87.68 66.35 
L 89.93 68.14 
L 92.18 69.81 
L 94.43 71.38 
L 96.67 72.85 
L 98.92 74.24 
L 101.17 75.54 
L 103.42 76.78 
L 105.66 77.95 
L 107.91 79.05 
L 110.16 80.10 
L 112.41 81.10 
L 114.65 82.04 
L 116.90 82.94 
L 119.15 83.80 
L 121.40 84.63 
L 123.64 85.41 
L 125.89 86.16 
L 128.14 86.88 
L 130.39 87.57 
L 132.63 88.22 
L 134.88 88.86 
L 137.13 89.47 
L 139.38 90.05 
L 141.62 90.61 
L 143.87 91.16 
L 146.12 91.68 
L 148.37 92.18 
L 150.61 92.67 
L 152.86 93.14 
L 155.11 93.59 
L 157.35 94.03 
L 159.60 94.45 
L 161.85 94.86 
L 164.10 95.26 
L 166.34 95.64 
L 168.59 96.02 
L 170.84 96.38 
L 173.09 96.73 
L 175.33 97.07 
L 177.58 97.40 
L 179.83 97.72 
L 182.08 98.03 
L 184.32 98.33 
L 186.57 98.63 
L 188.82 98.91 
L 191.07 99.19 
L 193.31 99.47 
L 195.56 99.73 
L 197.81 99.99 
L 200.06 100.24 
L 202.30 100.48 
L 204.55 100.72 
L 206.80 100.96 
L 209.05 101.18 
L 211.29 101.41 
L 213.54 101.62 
L 215.79 101.83 
L 218.03 102.04 
L 220.28 102.24 
L 222.53 102.44 
" style="fill: none; stroke: #2563eb; stroke-width: 1.5; stroke-linecap: square"/>
 </g>
 <g>
 <path d="M 44.98 119.81 
L 47.23 119.81 
L 49.48 119.81 
L 51.73 119.81 
L 53.97 119.81 
L 56.22 119.81 
L 58.47 119.81 
L 60.72 119.81 
L 62.96 119.81 
L 65.21 119.81 
L 67.46 119.81 
L 69.71 119.81 
L 71.95 119.81 
L 74.20 119.81 
L 76.45 119.81 
L 78.70 119.81 
L 80.94 119.81 
L 83.19 119.81 
L 85.44 119.81 
L 87.68 119.81 
L 89.93 119.81 
L 92.18 119.81 
L 94.43 119.81 
L 96.67 119.81 
L 98.92 119.81 
L 101.17 119.81 
L 103.42 119.81 
L 105.66 119.81 
L 107.91 119.81 
L 110.16 119.81 
L 112.41 119.81 
L 114.65 119.81 
L 116.90 119.81 
L 119.15 119.81 
L 121.40 119.81 
L 123.64 119.81 
L 125.89 119.81 
L 128.14 119.81 
L 130.39 119.81 
L 132.63 119.81 
L 134.88 119.81 
L 137.13 119.81 
L 139.38 119.81 
L 141.62 119.81 
L 143.87 119.81 
L 146.12 119.81 
L 148.37 119.81 
L 150.61 119.81 
L 152.86 119.81 
L 155.11 119.81 
L 157.35 119.81 
L 159.60 119.81 
L 161.85 119.81 
L 164.10 119.81 
L 166.34 119.81 
L 168.59 119.81 
L 170.84 119.81 
L 173.09 119.81 
L 175.33 119.81 
L 177.58 119.81 
L 179.83 119.81 
L 182.08 119.81 
L 184.32 119.81 
L 186.57 119.81 
L 188.82 119.81 
L 191.07 119.81 
L 193.31 119.81 
L 195.56 119.81 
L 197.81 119.81 
L 200.06 119.81 
L 202.30 119.81 
L 204.55 119.81 
L 206.80 119.81 
L 209.05 119.81 
L 211.29 119.81 
L 213.54 119.81 
L 215.79 119.81 
L 218.03 119.81 
L 220.28 119.81 
L 222.53 119.81 
" style="fill: none; stroke: #dc2626; stroke-width: 1.5; stroke-linecap: square"/>
 </g>
 <g>
 <path d="M 78.27 145.8 
L 78.27 7.2 
" style="fill: none; stroke-dasharray: 0.6,0.99; stroke-dashoffset: 0; stroke: #6b7280; stroke-width: 0.6"/>
 </g>
 <g>
 <path d="M 189.24 145.8 
L 189.24 7.2 
" style="fill: none; stroke-dasharray: 0.6,0.99; stroke-dashoffset: 0; stroke: #6b7280; stroke-width: 0.6"/>
 </g>
 <g>
 <path d="M 36.11 145.8 
L 36.11 7.2 
" style="fill: none; stroke: #9ca3af; stroke-width: 0.6; stroke-linejoin: miter; stroke-linecap: square"/>
 </g>
 <g>
 <path d="M 231.41 145.8 
L 231.41 7.2 
" style="fill: none; stroke: #9ca3af; stroke-width: 0.6; stroke-linejoin: miter; stroke-linecap: square"/>
 </g>
 <g>
 <path d="M 36.11 145.8 
L 231.41 145.8 
" style="fill: none; stroke: #9ca3af; stroke-width: 0.6; stroke-linejoin: miter; stroke-linecap: square"/>
 </g>
 <g>
 <path d="M 36.11 7.2 
L 231.41 7.2 
" style="fill: none; stroke: #9ca3af; stroke-width: 0.6; stroke-linejoin: miter; stroke-linecap: square"/>
 </g>
 </g>
 </g>
 <defs>
 </defs>
</svg>