<?xml version="1.0" encoding="utf-8" standalone="no"?>
<!DOCTYPE svg PUBLIC "-//W3C//DTD SVG 1.1//EN"
 "http://www.w3.org/Graphics/SVG/1.1/DTD/svg11.dtd">
<svg xmlns:xlink="http://www.w3.org/1999/xlink" width="231.93pt" height="177.55pt" viewBox="0 0 231.93 177.55" xmlns="http://www.w3.org/2000/svg" version="1.1">
 <g>
 <g>
 <path d="M 0 177.55 
L 231.93 177.55 
L 231.93 0 
L 0 0 
L 0 177.55 
z
" style="fill: none"/>
 </g>
 <g>
 <g>
 <path d="M 29.43 145.8 
L 224.73 145.8 
L 224.73 7.2 
L 29.43 7.2 
L 29.43 145.8 
z
" style="fill: none"/>
 </g>
 <g>
 <defs>
 <path d="M 71.60 -64.36 
L 71.60 -30.84 
L 73.86 -30.84 
L 76.12 -30.84 
L 78.39 -30.84 
L 80.65 -30.84 
L 82.92 -30.84 
L 85.18 -30.84 
L 87.45 -30.84 
L 89.71 -30.84 
L 91.98 -30.84 
L 94.24 -30.84 
L 96.51 -30.84 
L 98.77 -30.84 
L 101.04 -30.84 
L 103.30 -30.84 
L 105.56 -30.84 
L 107.83 -30.84 
L 110.09 -30.84 
L 112.36 -30.84 
L 114.62 -30.84 
L 116.89 -30.84 
L 119.15 -30.84 
L 121.42 -30.84 
L 123.68 -30.84 
L 125.95 -30.84 
L 128.21 -30.84 
L 130.48 -30.84 
L 132.74 -30.84 
L 135.00 -30.84 
L 137.27 -30.84 
L 139.53 -30.84 
L 141.80 -30.84 
L 144.06 -30.84 
L 146.33 -30.84 
L 148.59 -30.84 
L 150.86 -30.84 
L 153.12 -30.84 
L 155.39 -30.84 
L 157.65 -30.84 
L 159.92 -30.84 
L 162.18 -30.84 
L 164.44 -30.84 
L 166.71 -30.84 
L 168.97 -30.84 
L 171.24 -30.84 
L 173.50 -30.84 
L 175.77 -30.84 
L 178.03 -30.84 
L 180.30 -30.84 
L 182.56 -30.84 
L 182.56 -121.94 
L 182.56 -121.94 
L 180.30 -120.10 
L 178.03 -118.30 
L 175.77 -116.53 
L 173.50 -114.80 
L 171.24 -113.11 
L 168.97 -111.44 
L 166.71 -109.81 
L 164.44 -108.22 
L 162.18 -106.66 
L 159.92 -105.12 
L 157.65 -103.62 
L 155.39 -102.15 
L 153.12 -100.71 
L 150.86 -99.30 
L 148.59 -97.92 
L 146.33 -96.56 
L 144.06 -95.24 
L 141.80 -93.94 
L 139.53 -92.66 
L 137.27 -91.41 
L 135.00 -90.19 
L 132.74 -88.99 
L 130.48 -87.81 
L 128.21 -86.66 
L 125.95 -85.54 
L 123.68 -84.43 
L 121.42 -83.35 
L 119.15 -82.29 
L 116.89 -81.25 
L 114.62 -80.23 
L 112.36 -79.23 
L 110.09 -78.25 
L 107.83 -77.30 
L 105.56 -76.36 
L 103.30 -75.44 
L 101.04 -74.54 
L 98.77 -73.66 
L 96.51 -72.79 
L 94.24 -71.94 
L 91.98 -71.11 
L 89.71 -70.30 
L 87.45 -69.50 
L 85.18 -68.72 
L 82.92 -67.96 
L 80.65 -67.21 
L 78.39 -66.47 
L 76.12 -65.75 
L 73.86 -65.05 
L 71.60 -64.36 
z
" style="stroke: #2563eb; stroke-opacity: 0.15"/>
 </defs>
 <g>
 <use xlink:href="#m2756adff41" x="0" y="177.55" style="fill: #2563eb; fill-opacity: 0.15; stroke: #2563eb; stroke-opacity: 0.15"/>
 </g>
 </g>
 <g>
 <g>
 <g>
 <path d="M 71.60 145.8 
L 71.60 7.2 
" style="fill: none; stroke: #e5e7eb; stroke-opacity: 0.6; stroke-width: 0.5; stroke-linecap: square"/>
 </g>
 <g>
 <defs>
 <path d="M 0 0 
L 0 3.5 
" style="stroke: #9ca3af; stroke-width: 0.8"/>
 </defs>
 <g>
 <use xlink:href="#m4c7383be34" x="71.60" y="145.8" style="fill: #9ca3af; stroke: #9ca3af; stroke-width: 0.8"/>
 </g>
 </g>
 <g>
 <text style="fill: #9ca3af; font: 7px 'DejaVu Sans', 'Bitstream Vera Sans', 'Computer Modern Sans Serif', 'Lucida Grande', 'Verdana', 'Geneva', 'Lucid', 'Arial', 'Helvetica', 'Avant Garde', sans-serif; text-anchor: middle" x="71.60" y="158.12" transform="rotate(-0 71.60 158.12)">0.0</text>
 </g>
 </g>
 <g>
 <g>
 <path d="M 127.08 145.8 
L 127.08 7.2 
" style="fill: none; stroke: #e5e7eb; stroke-opacity: 0.6; stroke-width: 0.5; stroke-linecap: square"/>
 </g>
 <g>
 <g>
 <use xlink:href="#m4c7383be34" x="127.08" y="145.8" style="fill: #9ca3af; stroke: #9ca3af; stroke-width: 0.8"/>
 </g>
 </g>
 <g>
 <text style="fill: #9ca3af; font: 7px 'DejaVu Sans', 'Bitstream Vera Sans', 'Computer Modern Sans Serif', 'Lucida Grande', 'Verdana', 'Geneva', 'Lucid', 'Arial', 'Helvetica', 'Avant Garde', sans-serif; text-anchor: middle" x="127.08" y="158.12" transform="rotate(-0 127.08 158.12)">0.5</text>
 </g>
 </g>
 <g>
 <g>
 <path d="M 182.56 145.8 
L 182.56 7.2 
" style="fill: none; stroke: #e5e7eb; stroke-opacity: 0.6; stroke-width: 0.5; stroke-linecap: square"/>
 </g>
 <g>
 <g>
 <use xlink:href="#m4c7383be34" x="182.56" y="145.8" style="fill: #9ca3af; stroke: #9ca3af; stroke-width: 0.8"/>
 </g>
 </g>
 <g>
 <text style="fill: #9ca3af; font: 7px 'DejaVu Sans', 'Bitstream Vera Sans', 'Computer Modern Sans Serif', 'Lucida Grande', 'Verdana', 'Geneva', 'Lucid', 'Arial', 'Helvetica', 'Avant Garde', sans-serif; text-anchor: middle" x="182.56" y="158.12" transform="rotate(-0 182.56 158.12)">1.0</text>
 </g>
 </g>
 <g>
 <text style="fill: #9ca3af; font: 7px 'DejaVu Sans', 'Bitstream Vera Sans', 'Computer Modern Sans Serif', 'Lucida Grande', 'Verdana', 'Geneva', 'Lucid', 'Arial', 'Helvetica', 'Avant Garde', sans-serif; text-anchor: middle" x="127.08" y="168.89" transform="rotate(-0 127.08 168.89)">x</text>
 </g>
 </g>
 <g>
 <g>
 <g>
 <path d="M 29.43 113.19 
L 224.73 113.19 
" style="fill: none; stroke: #e5e7eb; stroke-opacity: 0.6; stroke-width: 0.5; stroke-linecap: square"/>
 </g>
 <g>
 <defs>
 <path d="M 0 0 
L -3.5 0 
" style="stroke: #9ca3af; stroke-width: 0.8"/>
 </defs>
 <g>
 <use xlink:href="#m7b7071ec95" x="29.43" y="113.19" style="fill: #9ca3af; stroke: #9ca3af; stroke-width: 0.8"/>
 </g>
 </g>
 <g>
 <text style="fill: #9ca3af; font: 7px 'DejaVu Sans', 'Bitstream Vera Sans', 'Computer Modern Sans Serif', 'Lucida Grande', 'Verdana', 'Geneva', 'Lucid', 'Arial', 'Helvetica', 'Avant Garde', sans-serif; text-anchor: end" x="22.43" y="115.85" transform="rotate(-0 22.43 115.85)">2</text>
 </g>
 </g>
 <g>
 <g>
 <path d="M 29.43 79.68 
L 224.73 79.68 
" style="fill: none; stroke: #e5e7eb; stroke-opacity: 0.6; stroke-width: 0.5; stroke-linecap: square"/>
 </g>
 <g>
 <g>
 <use xlink:href="#m7b7071ec95" x="29.43" y="79.68" style="fill: #9ca3af; stroke: #9ca3af; stroke-width: 0.8"/>
 </g>
 </g>
 <g>
 <text style="fill: #9ca3af; font: 7px 'DejaVu Sans', 'Bitstream Vera Sans', 'Computer Modern Sans Serif', 'Lucida Grande', 'Verdana', 'Geneva', 'Lucid', 'Arial', 'Helvetica', 'Avant Garde', sans-serif; text-anchor: end" x="22.43" y="82.34" transform="rotate(-0 22.43 82.34)">4</text>
 </g>
 </g>
 <g>
 <g>
 <path d="M 29.43 46.17 
L 224.73 46.17 
" style="fill: none; stroke: #e5e7eb; stroke-opacity: 0.6; stroke-width: 0.5; stroke-linecap: square"/>
 </g>
 <g>
 <g>
 <use xlink:href="#m7b7071ec95" x="29.43" y="46.17" style="fill: #9ca3af; stroke: #9ca3af; stroke-width: 0.8"/>
 </g>
 </g>
 <g>
 <text style="fill: #9ca3af; font: 7px 'DejaVu Sans', 'Bitstream Vera Sans', 'Computer Modern Sans Serif', 'Lucida Grande', 'Verdana', 'Geneva', 'Lucid', 'Arial', 'Helvetica', 'Avant Garde', sans-serif; text-anchor: end" x="22.43" y="48.82" transform="rotate(-0 22.43 48.82)">6</text>
 </g>
 </g>
 <g>
 <g>
 <path d="M 29.43 12.65 
L 224.73 12.65 
" style="fill: none; stroke: #e5e7eb; stroke-opacity: 0.6; stroke-width: 0.5; stroke-linecap: square"/>
 </g>
 <g>
 <g>
 <use xlink:href="#m7b7071ec95" x="29.43" y="12.65" style="fill: #9ca3af; stroke: #9ca3af; stroke-width: 0.8"/>
 </g>
 </g>
 <g>
 <text style="fill: #9ca3af; font: 7px 'DejaVu Sans', 'Bitstream Vera Sans', 'Computer Modern Sans Serif', 'Lucida Grande', 'Verdana', 'Geneva', 'Lucid', 'Arial', 'Helvetica', 'Avant Garde', sans-serif; text-anchor: end" x="22.43" y="15.31" transform="rotate(-0 22.43 15.31)">8</text>
 </g>
 </g>
 <g>
 <text style="fill: #9ca3af; font: 7px 'DejaVu Sans', 'Bitstream Vera Sans', 'Computer Modern Sans Serif', 'Lucida Grande', 'Verdana', 'Geneva', 'Lucid', 'Arial', 'Helvetica', 'Avant Garde', sans-serif; text-anchor: middle" x="12.52" y="76.5" transform="rotate(-90 12.52 76.5)">y</text>
 </g>
 </g>
 <g>
 <path d="M 38.31 121.88 
L 40.55 121.37 
L 42.80 120.85 
L 45.05 120.33 
L 47.30 119.79 
L 49.54 119.23 
L 51.79 118.67 
L 54.04 118.10 
L 56.28 117.51 
L 58.53 116.92 
L 60.78 116.31 
L 63.03 115.68 
L 65.27 115.05 
L 67.52 114.40 
L 69.77 113.74 
L 72.02 113.07 
L 74.26 112.38 
L 76.51 111.68 
L 78.76 110.96 
L 81.01 110.23 
L 83.25 109.48 
L 85.50 108.72 
L 87.75 107.94 
L 90.00 107.15 
L 92.24 106.34 
L 94.49 105.51 
L 96.74 104.67 
L 98.99 103.81 
L 101.23 102.93 
L 103.48 102.04 
L 105.73 101.12 
L 107.98 100.19 
L 110.22 99.24 
L 112.47 98.27 
L 114.72 97.28 
L 116.97 96.27 
L 119.21 95.23 
L 121.46 94.18 
L 123.71 93.11 
L 125.95 92.01 
L 128.20 90.89 
L 130.45 89.75 
L 132.70 88.58 
L 134.94 87.39 
L 137.19 86.18 
L 139.44 84.94 
L 141.69 83.68 
L 143.93 82.39 
L 146.18 81.07 
L 148.43 79.73 
L 150.68 78.36 
L 152.92 76.96 
L 155.17 75.53 
L 157.42 74.08 
L 159.67 72.59 
L 161.91 71.07 
L 164.16 69.53 
L 166.41 67.95 
L 168.66 66.34 
L 170.90 64.69 
L 173.15 63.01 
L 175.40 61.30 
L 177.65 59.55 
L 179.89 57.77 
L 182.14 55.95 
L 184.39 54.10 
L 186.63 52.20 
L 188.88 50.27 
L 191.13 48.29 
L 193.38 46.28 
L 195.62 44.23 
L 197.87 42.13 
L 200.12 39.99 
L 202.37 37.81 
L 204.61 35.58 
L 206.86 33.30 
L 209.11 30.98 
L 211.36 28.62 
L 213.60 26.20 
L 215.85 23.73 
" style="fill: none; stroke: #2563eb; stroke-width: 1.5; stroke-linecap: square"/>
 </g>
 <g>
 <path d="M 29.43 146.71 
L 224.73 146.71 
" style="fill: none; stroke: #9ca3af; stroke-width: 0.6; stroke-linecap: square"/>
 </g>
 <g>
 <path d="M 71.60 145.8 
L 71.60 7.2 
" style="fill: none; stroke-dasharray: 0.6,0.99; stroke-dashoffset: 0; stroke: #6b7280; stroke-width: 0.6"/>
 </g>
 <g>
 <path d="M 182.56 145.8 
L 182.56 7.2 
" style="fill: none; stroke-dasharray: 0.6,0.99; stroke-dashoffset: 0; stroke: #6b7280; stroke-width: 0.6"/>
 </g>
 <g>
 <path d="M 29.43 145.8 
L 29.43 7.2 
" style="fill: none; stroke: #9ca3af; stroke-width: 0.6; stroke-linejoin: miter; stroke-linecap: square"/>
 </g>
 <g>
 <path d="M 224.73 145.8 
L 224.73 7.2 
" style="fill: none; stroke: #9ca3af; stroke-width: 0.6; stroke-linejoin: miter; stroke-linecap: square"/>
 </g>
 <g>
 <path d="M 29.43 145.8 
L 224.73 145.8 
" style="fill: none; stroke: #9ca3af; stroke-width: 0.6; stroke-linejoin: miter; stroke-linecap: square"/>
 </g>
 <g>
 <path d="M 29.43 7.2 
L 224.73 7.2 
" style="fill: none; stroke: #9ca3af; stroke-width: 0.6; stroke-linejoin: miter; stroke-linecap: square"/>
 </g>
 </g>
 </g>
 <defs>
 </defs>
</svg>