<?xml version="1.0" encoding="utf-8" standalone="no"?>
<!DOCTYPE svg PUBLIC "-//W3C//DTD SVG 1.1//EN"
 "http://www.w3.org/Graphics/SVG/1.1/DTD/svg11.dtd">
<svg xmlns:xlink="http://www.w3.org/1999/xlink" width="231.93pt" height="177.55pt" viewBox="0 0 231.93 177.55" xmlns="http://www.w3.org/2000/svg" version="1.1">
 <g>
 <g>
 <path d="M 0 177.55 
L 231.93 177.55 
L 231.93 0 
L 0 0 
L 0 177.55 
z
" style="fill: none"/>
 </g>
 <g>
 <g>
 <path d="M 29.43 145.8 
L 224.73 145.8 
L 224.73 7.2 
L 29.43 7.2 
L 29.43 145.8 
z
" style="fill: none"/>
 </g>
 <g>
 <defs>
 <path d="M 71.60 -93.50 
L 71.60 -57.46 
L 73.86 -57.46 
L 76.12 -57.46 
L 78.39 -57.46 
L 80.65 -57.46 
L 82.92 -57.46 
L 85.18 -57.46 
L 87.45 -57.46 
L 89.71 -57.46 
L 91.98 -57.46 
L 94.24 -57.46 
L 96.51 -57.46 
L 98.77 -57.46 
L 101.04 -57.46 
L 103.30 -57.46 
L 105.56 -57.46 
L 107.83 -57.46 
L 110.09 -57.46 
L 112.36 -57.46 
L 114.62 -57.46 
L 116.89 -57.46 
L 119.15 -57.46 
L 121.42 -57.46 
L 123.68 -57.46 
L 125.95 -57.46 
L 128.21 -57.46 
L 130.48 -57.46 
L 132.74 -57.46 
L 135.00 -57.46 
L 137.27 -57.46 
L 139.53 -57.46 
L 141.80 -57.46 
L 144.06 -57.46 
L 146.33 -57.46 
L 148.59 -57.46 
L 150.86 -57.46 
L 153.12 -57.46 
L 155.39 -57.46 
L 157.65 -57.46 
L 159.92 -57.46 
L 162.18 -57.46 
L 164.44 -57.46 
L 166.71 -57.46 
L 168.97 -57.46 
L 171.24 -57.46 
L 173.50 -57.46 
L 175.77 -57.46 
L 178.03 -57.46 
L 180.30 -57.46 
L 182.56 -57.46 
L 182.56 -58.12 
L 182.56 -58.12 
L 180.30 -58.18 
L 178.03 -58.24 
L 175.77 -58.31 
L 173.50 -58.38 
L 171.24 -58.46 
L 168.97 -58.54 
L 166.71 -58.63 
L 164.44 -58.73 
L 162.18 -58.84 
L 159.92 -58.96 
L 157.65 -59.08 
L 155.39 -59.22 
L 153.12 -59.37 
L 150.86 -59.53 
L 148.59 -59.71 
L 146.33 -59.90 
L 144.06 -60.11 
L 141.80 -60.33 
L 139.53 -60.58 
L 137.27 -60.84 
L 135.00 -61.13 
L 132.74 -61.44 
L 130.48 -61.78 
L 128.21 -62.15 
L 125.95 -62.54 
L 123.68 -62.98 
L 121.42 -63.44 
L 119.15 -63.95 
L 116.89 -64.51 
L 114.62 -65.10 
L 112.36 -65.75 
L 110.09 -66.46 
L 107.83 -67.22 
L 105.56 -68.06 
L 103.30 -68.96 
L 101.04 -69.93 
L 98.77 -70.99 
L 96.51 -72.15 
L 94.24 -73.39 
L 91.98 -74.75 
L 89.71 -76.22 
L 87.45 -77.81 
L 85.18 -79.55 
L 82.92 -81.42 
L 80.65 -83.46 
L 78.39 -85.67 
L 76.12 -88.07 
L 73.86 -90.68 
L 71.60 -93.50 
z
" style="stroke: #2563eb; stroke-opacity: 0.15"/>
 </defs>
 <g>
 <use xlink:href="#m15c92e3fd9" x="0" y="177.55" style="fill: #2563eb; fill-opacity: 0.15; stroke: #2563eb; stroke-opacity: 0.15"/>
 </g>
 </g>
 <g>
 <g>
 <g>
 <path d="M 71.60 145.8 
L 71.60 7.2 
" style="fill: none; stroke: #e5e7eb; stroke-opacity: 0.6; stroke-width: 0.5; stroke-linecap: square"/>
 </g>
 <g>
 <defs>
 <path d="M 0 0 
L 0 3.5 
" style="stroke: #9ca3af; stroke-width: 0.8"/>
 </defs>
 <g>
 <use xlink:href="#me4ecee1472" x="71.60" y="145.8" style="fill: #9ca3af; stroke: #9ca3af; stroke-width: 0.8"/>
 </g>
 </g>
 <g>
 <text style="fill: #9ca3af; font: 7px 'DejaVu Sans', 'Bitstream Vera Sans', 'Computer Modern Sans Serif', 'Lucida Grande', 'Verdana', 'Geneva', 'Lucid', 'Arial', 'Helvetica', 'Avant Garde', sans-serif; text-anchor: middle" x="71.60" y="158.12" transform="rotate(-0 71.60 158.12)">0</text>
 </g>
 </g>
 <g>
 <g>
 <path d="M 127.08 145.8 
L 127.08 7.2 
" style="fill: none; stroke: #e5e7eb; stroke-opacity: 0.6; stroke-width: 0.5; stroke-linecap: square"/>
 </g>
 <g>
 <g>
 <use xlink:href="#me4ecee1472" x="127.08" y="145.8" style="fill: #9ca3af; stroke: #9ca3af; stroke-width: 0.8"/>
 </g>
 </g>
 <g>
 <text style="fill: #9ca3af; font: 7px 'DejaVu Sans', 'Bitstream Vera Sans', 'Computer Modern Sans Serif', 'Lucida Grande', 'Verdana', 'Geneva', 'Lucid', 'Arial', 'Helvetica', 'Avant Garde', sans-serif; text-anchor: middle" x="127.08" y="158.12" transform="rotate(-0 127.08 158.12)">1</text>
 </g>
 </g>
 <g>
 <g>
 <path d="M 182.56 145.8 
L 182.56 7.2 
" style="fill: none; stroke: #e5e7eb; stroke-opacity: 0.6; stroke-width: 0.5; stroke-linecap: square"/>
 </g>
 <g>
 <g>
 <use xlink:href="#me4ecee1472" x="182.56" y="145.8" style="fill: #9ca3af; stroke: #9ca3af; stroke-width: 0.8"/>
 </g>
 </g>
 <g>
 <text style="fill: #9ca3af; font: 7px 'DejaVu Sans', 'Bitstream Vera Sans', 'Computer Modern Sans Serif', 'Lucida Grande', 'Verdana', 'Geneva', 'Lucid', 'Arial', 'Helvetica', 'Avant Garde', sans-serif; text-anchor: middle" x="182.56" y="158.12" transform="rotate(-0 182.56 158.12)">2</text>
 </g>
 </g>
 <g>
 <text style="fill: #9ca3af; font: 7px 'DejaVu Sans', 'Bitstream Vera Sans', 'Computer Modern Sans Serif', 'Lucida Grande', 'Verdana', 'Geneva', 'Lucid', 'Arial', 'Helvetica', 'Avant Garde', sans-serif; text-anchor: middle" x="127.08" y="168.89" transform="rotate(-0 127.08 168.89)">x</text>
 </g>
 </g>
 <g>
 <g>
 <g>
 <path d="M 29.43 120.09 
L 224.73 120.09 
" style="fill: none; stroke: #e5e7eb; stroke-opacity: 0.6; stroke-width: 0.5; stroke-linecap: square"/>
 </g>
 <g>
 <defs>
 <path d="M 0 0 
L -3.5 0 
" style="stroke: #9ca3af; stroke-width: 0.8"/>
 </defs>
 <g>
 <use xlink:href="#m8d9922e500" x="29.43" y="120.09" style="fill: #9ca3af; stroke: #9ca3af; stroke-width: 0.8"/>
 </g>
 </g>
 <g>
 <text style="fill: #9ca3af; font: 7px 'DejaVu Sans', 'Bitstream Vera Sans', 'Computer Modern Sans Serif', 'Lucida Grande', 'Verdana', 'Geneva', 'Lucid', 'Arial', 'Helvetica', 'Avant Garde', sans-serif; text-anchor: end" x="22.43" y="122.75" transform="rotate(-0 22.43 122.75)">0</text>
 </g>
 </g>
 <g>
 <g>
 <path d="M 29.43 84.05 
L 224.73 84.05 
" style="fill: none; stroke: #e5e7eb; stroke-opacity: 0.6; stroke-width: 0.5; stroke-linecap: square"/>
 </g>
 <g>
 <g>
 <use xlink:href="#m8d9922e500" x="29.43" y="84.05" style="fill: #9ca3af; stroke: #9ca3af; stroke-width: 0.8"/>
 </g>
 </g>
 <g>
 <text style="fill: #9ca3af; font: 7px 'DejaVu Sans', 'Bitstream Vera Sans', 'Computer Modern Sans Serif', 'Lucida Grande', 'Verdana', 'Geneva', 'Lucid', 'Arial', 'Helvetica', 'Avant Garde', sans-serif; text-anchor: end" x="22.43" y="86.71" transform="rotate(-0 22.43 86.71)">2</text>
 </g>
 </g>
 <g>
 <g>
 <path d="M 29.43 48.01 
L 224.73 48.01 
" style="fill: none; stroke: #e5e7eb; stroke-opacity: 0.6; stroke-width: 0.5; stroke-linecap: square"/>
 </g>
 <g>
 <g>
 <use xlink:href="#m8d9922e500" x="29.43" y="48.01" style="fill: #9ca3af; stroke: #9ca3af; stroke-width: 0.8"/>
 </g>
 </g>
 <g>
 <text style="fill: #9ca3af; font: 7px 'DejaVu Sans', 'Bitstream Vera Sans', 'Computer Modern Sans Serif', 'Lucida Grande', 'Verdana', 'Geneva', 'Lucid', 'Arial', 'Helvetica', 'Avant Garde', sans-serif; text-anchor: end" x="22.43" y="50.67" transform="rotate(-0 22.43 50.67)">4</text>
 </g>
 </g>
 <g>
 <g>
 <path d="M 29.43 11.97 
L 224.73 11.97 
" style="fill: none; stroke: #e5e7eb; stroke-opacity: 0.6; stroke-width: 0.5; stroke-linecap: square"/>
 </g>
 <g>
 <g>
 <use xlink:href="#m8d9922e500" x="29.43" y="11.97" style="fill: #9ca3af; stroke: #9ca3af; stroke-width: 0.8"/>
 </g>
 </g>
 <g>
 <text style="fill: #9ca3af; font: 7px 'DejaVu Sans', 'Bitstream Vera Sans', 'Computer Modern Sans Serif', 'Lucida Grande', 'Verdana', 'Geneva', 'Lucid', 'Arial', 'Helvetica', 'Avant Garde', sans-serif; text-anchor: end" x="22.43" y="14.63" transform="rotate(-0 22.43 14.63)">6</text>
 </g>
 </g>
 <g>
 <text style="fill: #9ca3af; font: 7px 'DejaVu Sans', 'Bitstream Vera Sans', 'Computer Modern Sans Serif', 'Lucida Grande', 'Verdana', 'Geneva', 'Lucid', 'Arial', 'Helvetica', 'Avant Garde', sans-serif; text-anchor: middle" x="12.52" y="76.5" transform="rotate(-90 12.52 76.5)">y</text>
 </g>
 </g>
 <g>
 <path d="M 38.31 0.43 
L 40.55 9.75 
L 42.80 18.33 
L 45.05 26.25 
L 47.30 33.55 
L 49.54 40.29 
L 51.79 46.50 
L 54.04 52.22 
L 56.28 57.50 
L 58.53 62.37 
L 60.78 66.87 
L 63.03 71.01 
L 65.27 74.83 
L 67.52 78.35 
L 69.77 81.60 
L 72.02 84.59 
L 74.26 87.35 
L 76.51 89.90 
L 78.76 92.25 
L 81.01 94.42 
L 83.25 96.41 
L 85.50 98.26 
L 87.75 99.95 
L 90.00 101.52 
L 92.24 102.97 
L 94.49 104.30 
L 96.74 105.53 
L 98.99 106.66 
L 101.23 107.70 
L 103.48 108.67 
L 105.73 109.56 
L 107.98 110.38 
L 110.22 111.13 
L 112.47 111.83 
L 114.72 112.47 
L 116.97 113.06 
L 119.21 113.61 
L 121.46 114.11 
L 123.71 114.58 
L 125.95 115.01 
L 128.20 115.40 
L 130.45 115.77 
L 132.70 116.10 
L 134.94 116.41 
L 137.19 116.70 
L 139.44 116.96 
L 141.69 117.21 
L 143.93 117.43 
L 146.18 117.64 
L 148.43 117.83 
L 150.68 118.00 
L 152.92 118.17 
L 155.17 118.31 
L 157.42 118.45 
L 159.67 118.58 
L 161.91 118.70 
L 164.16 118.81 
L 166.41 118.90 
L 168.66 119.00 
L 170.90 119.08 
L 173.15 119.16 
L 175.40 119.23 
L 177.65 119.30 
L 179.89 119.36 
L 182.14 119.42 
L 184.39 119.47 
L 186.63 119.52 
L 188.88 119.56 
L 191.13 119.60 
L 193.38 119.64 
L 195.62 119.67 
L 197.87 119.71 
L 200.12 119.74 
L 202.37 119.76 
L 204.61 119.79 
L 206.86 119.81 
L 209.11 119.83 
L 211.36 119.85 
L 213.60 119.87 
L 215.85 119.89 
" style="fill: none; stroke: #2563eb; stroke-width: 1.5; stroke-linecap: square"/>
 </g>
 <g>
 <path d="M 29.43 120.09 
L 224.73 120.09 
" style="fill: none; stroke: #9ca3af; stroke-width: 0.6; stroke-linecap: square"/>
 </g>
 <g>
 <path d="M 71.60 145.8 
L 71.60 7.2 
" style="fill: none; stroke-dasharray: 0.6,0.99; stroke-dashoffset: 0; stroke: #6b7280; stroke-width: 0.6"/>
 </g>
 <g>
 <path d="M 182.56 145.8 
L 182.56 7.2 
" style="fill: none; stroke-dasharray: 0.6,0.99; stroke-dashoffset: 0; stroke: #6b7280; stroke-width: 0.6"/>
 </g>
 <g>
 <path d="M 29.43 145.8 
L 29.43 7.2 
" style="fill: none; stroke: #9ca3af; stroke-width: 0.6; stroke-linejoin: miter; stroke-linecap: square"/>
 </g>
 <g>
 <path d="M 224.73 145.8 
L 224.73 7.2 
" style="fill: none; stroke: #9ca3af; stroke-width: 0.6; stroke-linejoin: miter; stroke-linecap: square"/>
 </g>
 <g>
 <path d="M 29.43 145.8 
L 224.73 145.8 
" style="fill: none; stroke: #9ca3af; stroke-width: 0.6; stroke-linejoin: miter; stroke-linecap: square"/>
 </g>
 <g>
 <path d="M 29.43 7.2 
L 224.73 7.2 
" style="fill: none; stroke: #9ca3af; stroke-width: 0.6; stroke-linejoin: miter; stroke-linecap: square"/>
 </g>
 </g>
 </g>
 <defs>
 </defs>
</svg>