<?xml version="1.0" encoding="utf-8" standalone="no"?>
<!DOCTYPE svg PUBLIC "-//W3C//DTD SVG 1.1//EN"
 "http://www.w3.org/Graphics/SVG/1.1/DTD/svg11.dtd">
<svg xmlns:xlink="http://www.w3.org/1999/xlink" width="238.61pt" height="177.55pt" viewBox="0 0 238.61 177.55" xmlns="http://www.w3.org/2000/svg" version="1.1">
 <g>
 <g>
 <path d="M 0 177.55 
L 238.61 177.55 
L 238.61 0 
L 0 0 
L 0 177.55 
z
" style="fill: none"/>
 </g>
 <g>
 <g>
 <path d="M 36.11 145.8 
L 231.41 145.8 
L 231.41 7.2 
L 36.11 7.2 
L 36.11 145.8 
z
" style="fill: none"/>
 </g>
 <g>
 <defs>
 <path d="M 78.27 -93.50 
L 78.27 -57.46 
L 80.54 -57.46 
L 82.80 -57.46 
L 85.07 -57.46 
L 87.33 -57.46 
L 89.60 -57.46 
L 91.86 -57.46 
L 94.13 -57.46 
L 96.39 -57.46 
L 98.66 -57.46 
L 100.92 -57.46 
L 103.18 -57.46 
L 105.45 -57.46 
L 107.71 -57.46 
L 109.98 -57.46 
L 112.24 -57.46 
L 114.51 -57.46 
L 116.77 -57.46 
L 119.04 -57.46 
L 121.30 -57.46 
L 123.57 -57.46 
L 125.83 -57.46 
L 128.10 -57.46 
L 130.36 -57.46 
L 132.62 -57.46 
L 134.89 -57.46 
L 137.15 -57.46 
L 139.42 -57.46 
L 141.68 -57.46 
L 143.95 -57.46 
L 146.21 -57.46 
L 148.48 -57.46 
L 150.74 -57.46 
L 153.01 -57.46 
L 155.27 -57.46 
L 157.54 -57.46 
L 159.80 -57.46 
L 162.06 -57.46 
L 164.33 -57.46 
L 166.59 -57.46 
L 168.86 -57.46 
L 171.12 -57.46 
L 173.39 -57.46 
L 175.65 -57.46 
L 177.92 -57.46 
L 180.18 -57.46 
L 182.45 -57.46 
L 184.71 -57.46 
L 186.98 -57.46 
L 189.24 -57.46 
L 189.24 -58.12 
L 189.24 -58.12 
L 186.98 -58.18 
L 184.71 -58.24 
L 182.45 -58.31 
L 180.18 -58.38 
L 177.92 -58.46 
L 175.65 -58.54 
L 173.39 -58.63 
L 171.12 -58.73 
L 168.86 -58.84 
L 166.59 -58.96 
L 164.33 -59.08 
L 162.06 -59.22 
L 159.80 -59.37 
L 157.54 -59.53 
L 155.27 -59.71 
L 153.01 -59.90 
L 150.74 -60.11 
L 148.48 -60.33 
L 146.21 -60.58 
L 143.95 -60.84 
L 141.68 -61.13 
L 139.42 -61.44 
L 137.15 -61.78 
L 134.89 -62.15 
L 132.62 -62.54 
L 130.36 -62.98 
L 128.10 -63.44 
L 125.83 -63.95 
L 123.57 -64.51 
L 121.30 -65.10 
L 119.04 -65.75 
L 116.77 -66.46 
L 114.51 -67.22 
L 112.24 -68.06 
L 109.98 -68.96 
L 107.71 -69.93 
L 105.45 -70.99 
L 103.18 -72.15 
L 100.92 -73.39 
L 98.66 -74.75 
L 96.39 -76.22 
L 94.13 -77.81 
L 91.86 -79.55 
L 89.60 -81.42 
L 87.33 -83.46 
L 85.07 -85.67 
L 82.80 -88.07 
L 80.54 -90.68 
L 78.27 -93.50 
z
" style="stroke: #2563eb; stroke-opacity: 0.15"/>
 </defs>
 <g>
 <use xlink:href="#m831191bea2" x="0" y="177.55" style="fill: #2563eb; fill-opacity: 0.15; stroke: #2563eb; stroke-opacity: 0.15"/>
 </g>
 </g>
 <g>
 <g>
 <g>
 <path d="M 78.27 145.8 
L 78.27 7.2 
" style="fill: none; stroke: #e5e7eb; stroke-opacity: 0.6; stroke-width: 0.5; stroke-linecap: square"/>
 </g>
 <g>
 <defs>
 <path d="M 0 0 
L 0 3.5 
" style="stroke: #9ca3af; stroke-width: 0.8"/>
 </defs>
 <g>
 <use xlink:href="#mf304d32041" x="78.27" y="145.8" style="fill: #9ca3af; stroke: #9ca3af; stroke-width: 0.8"/>
 </g>
 </g>
 <g>
 <text style="fill: #9ca3af; font: 7px 'DejaVu Sans', 'Bitstream Vera Sans', 'Computer Modern Sans Serif', 'Lucida Grande', 'Verdana', 'Geneva', 'Lucid', 'Arial', 'Helvetica', 'Avant Garde', sans-serif; text-anchor: middle" x="78.27" y="158.12" transform="rotate(-0 78.27 158.12)">0</text>
 </g>
 </g>
 <g>
 <g>
 <path d="M 133.76 145.8 
L 133.76 7.2 
" style="fill: none; stroke: #e5e7eb; stroke-opacity: 0.6; stroke-width: 0.5; stroke-linecap: square"/>
 </g>
 <g>
 <g>
 <use xlink:href="#mf304d32041" x="133.76" y="145.8" style="fill: #9ca3af; stroke: #9ca3af; stroke-width: 0.8"/>
 </g>
 </g>
 <g>
 <text style="fill: #9ca3af; font: 7px 'DejaVu Sans', 'Bitstream Vera Sans', 'Computer Modern Sans Serif', 'Lucida Grande', 'Verdana', 'Geneva', 'Lucid', 'Arial', 'Helvetica', 'Avant Garde', sans-serif; text-anchor: middle" x="133.76" y="158.12" transform="rotate(-0 133.76 158.12)">1</text>
 </g>
 </g>
 <g>
 <g>
 <path d="M 189.24 145.8 
L 189.24 7.2 
" style="fill: none; stroke: #e5e7eb; stroke-opacity: 0.6; stroke-width: 0.5; stroke-linecap: square"/>
 </g>
 <g>
 <g>
 <use xlink:href="#mf304d32041" x="189.24" y="145.8" style="fill: #9ca3af; stroke: #9ca3af; stroke-width: 0.8"/>
 </g>
 </g>
 <g>
 <text style="fill: #9ca3af; font: 7px 'DejaVu Sans', 'Bitstream Vera Sans', 'Computer Modern Sans Serif', 'Lucida Grande', 'Verdana', 'Geneva', 'Lucid', 'Arial', 'Helvetica', 'Avant Garde', sans-serif; text-anchor: middle" x="189.24" y="158.12" transform="rotate(-0 189.24 158.12)">2</text>
 </g>
 </g>
 <g>
 <text style="fill: #9ca3af; font: 7px 'DejaVu Sans', 'Bitstream Vera Sans', 'Computer Modern Sans Serif', 'Lucida Grande', 'Verdana', 'Geneva', 'Lucid', 'Arial', 'Helvetica', 'Avant Garde', sans-serif; text-anchor: middle" x="133.76" y="168.89" transform="rotate(-0 133.76 168.89)">x</text>
 </g>
 </g>
 <g>
 <g>
 <g>
 <path d="M 36.11 120.09 
L 231.41 120.09 
" style="fill: none; stroke: #e5e7eb; stroke-opacity: 0.6; stroke-width: 0.5; stroke-linecap: square"/>
 </g>
 <g>
 <defs>
 <path d="M 0 0 
L -3.5 0 
" style="stroke: #9ca3af; stroke-width: 0.8"/>
 </defs>
 <g>
 <use xlink:href="#m90bc84b3c5" x="36.11" y="120.09" style="fill: #9ca3af; stroke: #9ca3af; stroke-width: 0.8"/>
 </g>
 </g>
 <g>
 <text style="fill: #9ca3af; font: 7px 'DejaVu Sans', 'Bitstream Vera Sans', 'Computer Modern Sans Serif', 'Lucida Grande', 'Verdana', 'Geneva', 'Lucid', 'Arial', 'Helvetica', 'Avant Garde', sans-serif; text-anchor: end" x="29.11" y="122.75" transform="rotate(-0 29.11 122.75)">0.0</text>
 </g>
 </g>
 <g>
 <g>
 <path d="M 36.11 90.05 
L 231.41 90.05 
" style="fill: none; stroke: #e5e7eb; stroke-opacity: 0.6; stroke-width: 0.5; stroke-linecap: square"/>
 </g>
 <g>
 <g>
 <use xlink:href="#m90bc84b3c5" x="36.11" y="90.05" style="fill: #9ca3af; stroke: #9ca3af; stroke-width: 0.8"/>
 </g>
 </g>
 <g>
 <text style="fill: #9ca3af; font: 7px 'DejaVu Sans', 'Bitstream Vera Sans', 'Computer Modern Sans Serif', 'Lucida Grande', 'Verdana', 'Geneva', 'Lucid', 'Arial', 'Helvetica', 'Avant Garde', sans-serif; text-anchor: end" x="29.11" y="92.71" transform="rotate(-0 29.11 92.71)">2.5</text>
 </g>
 </g>
 <g>
 <g>
 <path d="M 36.11 60.02 
L 231.41 60.02 
" style="fill: none; stroke: #e5e7eb; stroke-opacity: 0.6; stroke-width: 0.5; stroke-linecap: square"/>
 </g>
 <g>
 <g>
 <use xlink:href="#m90bc84b3c5" x="36.11" y="60.02" style="fill: #9ca3af; stroke: #9ca3af; stroke-width: 0.8"/>
 </g>
 </g>
 <g>
 <text style="fill: #9ca3af; font: 7px 'DejaVu Sans', 'Bitstream Vera Sans', 'Computer Modern Sans Serif', 'Lucida Grande', 'Verdana', 'Geneva', 'Lucid', 'Arial', 'Helvetica', 'Avant Garde', sans-serif; text-anchor: end" x="29.11" y="62.68" transform="rotate(-0 29.11 62.68)">5.0</text>
 </g>
 </g>
 <g>
 <g>
 <path d="M 36.11 29.99 
L 231.41 29.99 
" style="fill: none; stroke: #e5e7eb; stroke-opacity: 0.6; stroke-width: 0.5; stroke-linecap: square"/>
 </g>
 <g>
 <g>
 <use xlink:href="#m90bc84b3c5" x="36.11" y="29.99" style="fill: #9ca3af; stroke: #9ca3af; stroke-width: 0.8"/>
 </g>
 </g>
 <g>
 <text style="fill: #9ca3af; font: 7px 'DejaVu Sans', 'Bitstream Vera Sans', 'Computer Modern Sans Serif', 'Lucida Grande', 'Verdana', 'Geneva', 'Lucid', 'Arial', 'Helvetica', 'Avant Garde', sans-serif; text-anchor: end" x="29.11" y="32.65" transform="rotate(-0 29.11 32.65)">7.5</text>
 </g>
 </g>
 <g>
 <text style="fill: #9ca3af; font: 7px 'DejaVu Sans', 'Bitstream Vera Sans', 'Computer Modern Sans Serif', 'Lucida Grande', 'Verdana', 'Geneva', 'Lucid', 'Arial', 'Helvetica', 'Avant Garde', sans-serif; text-anchor: middle" x="12.52" y="76.5" transform="rotate(-90 12.52 76.5)">y</text>
 </g>
 </g>
 <g>
 <path d="M 44.98 0.43 
L 47.23 9.75 
L 49.48 18.33 
L 51.73 26.25 
L 53.97 33.55 
L 56.22 40.29 
L 58.47 46.50 
L 60.72 52.22 
L 62.96 57.50 
L 65.21 62.37 
L 67.46 66.87 
L 69.71 71.01 
L 71.95 74.83 
L 74.20 78.35 
L 76.45 81.60 
L 78.70 84.59 
L 80.94 87.35 
L 83.19 89.90 
L 85.44 92.25 
L 87.68 94.42 
L 89.93 96.41 
L 92.18 98.26 
L 94.43 99.95 
L 96.67 101.52 
L 98.92 102.97 
L 101.17 104.30 
L 103.42 105.53 
L 105.66 106.66 
L 107.91 107.70 
L 110.16 108.67 
L 112.41 109.56 
L 114.65 110.38 
L 116.90 111.13 
L 119.15 111.83 
L 121.40 112.47 
L 123.64 113.06 
L 125.89 113.61 
L 128.14 114.11 
L 130.39 114.58 
L 132.63 115.01 
L 134.88 115.40 
L 137.13 115.77 
L 139.38 116.10 
L 141.62 116.41 
L 143.87 116.70 
L 146.12 116.96 
L 148.37 117.21 
L 150.61 117.43 
L 152.86 117.64 
L 155.11 117.83 
L 157.35 118.00 
L 159.60 118.17 
L 161.85 118.31 
L 164.10 118.45 
L 166.34 118.58 
L 168.59 118.70 
L 170.84 118.81 
L 173.09 118.90 
L 175.33 119.00 
L 177.58 119.08 
L 179.83 119.16 
L 182.08 119.23 
L 184.32 119.30 
L 186.57 119.36 
L 188.82 119.42 
L 191.07 119.47 
L 193.31 119.52 
L 195.56 119.56 
L 197.81 119.60 
L 200.06 119.64 
L 202.30 119.67 
L 204.55 119.71 
L 206.80 119.74 
L 209.05 119.76 
L 211.29 119.79 
L 213.54 119.81 
L 215.79 119.83 
L 218.03 119.85 
L 220.28 119.87 
L 222.53 119.89 
" style="fill: none; stroke: #2563eb; stroke-width: 1.5; stroke-linecap: square"/>
 </g>
 <g>
 <path d="M 36.11 120.09 
L 231.41 120.09 
" style="fill: none; stroke: #9ca3af; stroke-width: 0.6; stroke-linecap: square"/>
 </g>
 <g>
 <path d="M 78.27 145.8 
L 78.27 7.2 
" style="fill: none; stroke-dasharray: 0.6,0.99; stroke-dashoffset: 0; stroke: #6b7280; stroke-width: 0.6"/>
 </g>
 <g>
 <path d="M 189.24 145.8 
L 189.24 7.2 
" style="fill: none; stroke-dasharray: 0.6,0.99; stroke-dashoffset: 0; stroke: #6b7280; stroke-width: 0.6"/>
 </g>
 <g>
 <path d="M 36.11 145.8 
L 36.11 7.2 
" style="fill: none; stroke: #9ca3af; stroke-width: 0.6; stroke-linejoin: miter; stroke-linecap: square"/>
 </g>
 <g>
 <path d="M 231.41 145.8 
L 231.41 7.2 
" style="fill: none; stroke: #9ca3af; stroke-width: 0.6; stroke-linejoin: miter; stroke-linecap: square"/>
 </g>
 <g>
 <path d="M 36.11 145.8 
L 231.41 145.8 
" style="fill: none; stroke: #9ca3af; stroke-width: 0.6; stroke-linejoin: miter; stroke-linecap: square"/>
 </g>
 <g>
 <path d="M 36.11 7.2 
L 231.41 7.2 
" style="fill: none; stroke: #9ca3af; stroke-width: 0.6; stroke-linejoin: miter; stroke-linecap: square"/>
 </g>
 </g>
 </g>
 <defs>
 </defs>
</svg>