<?xml version="1.0" encoding="utf-8" standalone="no"?>
<!DOCTYPE svg PUBLIC "-//W3C//DTD SVG 1.1//EN"
 "http://www.w3.org/Graphics/SVG/1.1/DTD/svg11.dtd">
<svg xmlns:xlink="http://www.w3.org/1999/xlink" width="231.93pt" height="177.55pt" viewBox="0 0 231.93 177.55" xmlns="http://www.w3.org/2000/svg" version="1.1">
 <g>
 <g>
 <path d="M 0 177.55 
L 231.93 177.55 
L 231.93 0 
L 0 0 
L 0 177.55 
z
" style="fill: none"/>
 </g>
 <g>
 <g>
 <path d="M 29.43 145.8 
L 224.73 145.8 
L 224.73 7.2 
L 29.43 7.2 
L 29.43 145.8 
z
" style="fill: none"/>
 </g>
 <g>
 <defs>
 <path d="M 71.60 -132.64 
L 71.60 -71.74 
L 73.86 -71.74 
L 76.12 -71.74 
L 78.39 -71.74 
L 80.65 -71.74 
L 82.92 -71.74 
L 85.18 -71.74 
L 87.45 -71.74 
L 89.71 -71.74 
L 91.98 -71.74 
L 94.24 -71.74 
L 96.51 -71.74 
L 98.77 -71.74 
L 101.04 -71.74 
L 103.30 -71.74 
L 105.56 -71.74 
L 107.83 -71.74 
L 110.09 -71.74 
L 112.36 -71.74 
L 114.62 -71.74 
L 116.89 -71.74 
L 119.15 -71.74 
L 121.42 -71.74 
L 123.68 -71.74 
L 125.95 -71.74 
L 128.21 -71.74 
L 130.48 -71.74 
L 132.74 -71.74 
L 135.00 -71.74 
L 137.27 -71.74 
L 139.53 -71.74 
L 141.80 -71.74 
L 144.06 -71.74 
L 146.33 -71.74 
L 148.59 -71.74 
L 150.86 -71.74 
L 153.12 -71.74 
L 155.39 -71.74 
L 157.65 -71.74 
L 159.92 -71.74 
L 162.18 -71.74 
L 164.44 -71.74 
L 166.71 -71.74 
L 168.97 -71.74 
L 171.24 -71.74 
L 173.50 -71.74 
L 175.77 -71.74 
L 178.03 -71.74 
L 180.30 -71.74 
L 182.56 -71.74 
L 182.56 -71.74 
L 182.56 -71.74 
L 180.30 -73.04 
L 178.03 -74.34 
L 175.77 -75.64 
L 173.50 -76.94 
L 171.24 -78.24 
L 168.97 -79.54 
L 166.71 -80.84 
L 164.44 -82.14 
L 162.18 -83.43 
L 159.92 -84.73 
L 157.65 -86.02 
L 155.39 -87.31 
L 153.12 -88.60 
L 150.86 -89.89 
L 148.59 -91.18 
L 146.33 -92.46 
L 144.06 -93.74 
L 141.80 -95.02 
L 139.53 -96.30 
L 137.27 -97.57 
L 135.00 -98.84 
L 132.74 -100.11 
L 130.48 -101.37 
L 128.21 -102.63 
L 125.95 -103.89 
L 123.68 -105.15 
L 121.42 -106.39 
L 119.15 -107.64 
L 116.89 -108.88 
L 114.62 -110.12 
L 112.36 -111.35 
L 110.09 -112.58 
L 107.83 -113.81 
L 105.56 -115.02 
L 103.30 -116.24 
L 101.04 -117.45 
L 98.77 -118.65 
L 96.51 -119.85 
L 94.24 -121.04 
L 91.98 -122.23 
L 89.71 -123.41 
L 87.45 -124.59 
L 85.18 -125.76 
L 82.92 -126.92 
L 80.65 -128.08 
L 78.39 -129.23 
L 76.12 -130.37 
L 73.86 -131.51 
L 71.60 -132.64 
z
" style="stroke: #2563eb; stroke-opacity: 0.15"/>
 </defs>
 <g>
 <use xlink:href="#m67057658c1" x="0" y="177.55" style="fill: #2563eb; fill-opacity: 0.15; stroke: #2563eb; stroke-opacity: 0.15"/>
 </g>
 </g>
 <g>
 <g>
 <g>
 <path d="M 61.59 145.8 
L 61.59 7.2 
" style="fill: none; stroke: #e5e7eb; stroke-opacity: 0.6; stroke-width: 0.5; stroke-linecap: square"/>
 </g>
 <g>
 <defs>
 <path d="M 0 0 
L 0 3.5 
" style="stroke: #9ca3af; stroke-width: 0.8"/>
 </defs>
 <g>
 <use xlink:href="#m60d9ea0399" x="61.59" y="145.8" style="fill: #9ca3af; stroke: #9ca3af; stroke-width: 0.8"/>
 </g>
 </g>
 <g>
 <text style="fill: #9ca3af; font: 7px 'DejaVu Sans', 'Bitstream Vera Sans', 'Computer Modern Sans Serif', 'Lucida Grande', 'Verdana', 'Geneva', 'Lucid', 'Arial', 'Helvetica', 'Avant Garde', sans-serif; text-anchor: middle" x="61.59" y="158.12" transform="rotate(-0 61.59 158.12)">1.0</text>
 </g>
 </g>
 <g>
 <g>
 <path d="M 103.98 145.8 
L 103.98 7.2 
" style="fill: none; stroke: #e5e7eb; stroke-opacity: 0.6; stroke-width: 0.5; stroke-linecap: square"/>
 </g>
 <g>
 <g>
 <use xlink:href="#m60d9ea0399" x="103.98" y="145.8" style="fill: #9ca3af; stroke: #9ca3af; stroke-width: 0.8"/>
 </g>
 </g>
 <g>
 <text style="fill: #9ca3af; font: 7px 'DejaVu Sans', 'Bitstream Vera Sans', 'Computer Modern Sans Serif', 'Lucida Grande', 'Verdana', 'Geneva', 'Lucid', 'Arial', 'Helvetica', 'Avant Garde', sans-serif; text-anchor: middle" x="103.98" y="158.12" transform="rotate(-0 103.98 158.12)">1.2</text>
 </g>
 </g>
 <g>
 <g>
 <path d="M 146.36 145.8 
L 146.36 7.2 
" style="fill: none; stroke: #e5e7eb; stroke-opacity: 0.6; stroke-width: 0.5; stroke-linecap: square"/>
 </g>
 <g>
 <g>
 <use xlink:href="#m60d9ea0399" x="146.36" y="145.8" style="fill: #9ca3af; stroke: #9ca3af; stroke-width: 0.8"/>
 </g>
 </g>
 <g>
 <text style="fill: #9ca3af; font: 7px 'DejaVu Sans', 'Bitstream Vera Sans', 'Computer Modern Sans Serif', 'Lucida Grande', 'Verdana', 'Geneva', 'Lucid', 'Arial', 'Helvetica', 'Avant Garde', sans-serif; text-anchor: middle" x="146.36" y="158.12" transform="rotate(-0 146.36 158.12)">1.4</text>
 </g>
 </g>
 <g>
 <g>
 <path d="M 188.75 145.8 
L 188.75 7.2 
" style="fill: none; stroke: #e5e7eb; stroke-opacity: 0.6; stroke-width: 0.5; stroke-linecap: square"/>
 </g>
 <g>
 <g>
 <use xlink:href="#m60d9ea0399" x="188.75" y="145.8" style="fill: #9ca3af; stroke: #9ca3af; stroke-width: 0.8"/>
 </g>
 </g>
 <g>
 <text style="fill: #9ca3af; font: 7px 'DejaVu Sans', 'Bitstream Vera Sans', 'Computer Modern Sans Serif', 'Lucida Grande', 'Verdana', 'Geneva', 'Lucid', 'Arial', 'Helvetica', 'Avant Garde', sans-serif; text-anchor: middle" x="188.75" y="158.12" transform="rotate(-0 188.75 158.12)">1.6</text>
 </g>
 </g>
 <g>
 <text style="fill: #9ca3af; font: 7px 'DejaVu Sans', 'Bitstream Vera Sans', 'Computer Modern Sans Serif', 'Lucida Grande', 'Verdana', 'Geneva', 'Lucid', 'Arial', 'Helvetica', 'Avant Garde', sans-serif; text-anchor: middle" x="127.08" y="168.89" transform="rotate(-0 127.08 168.89)">x</text>
 </g>
 </g>
 <g>
 <g>
 <g>
 <path d="M 29.43 105.81 
L 224.73 105.81 
" style="fill: none; stroke: #e5e7eb; stroke-opacity: 0.6; stroke-width: 0.5; stroke-linecap: square"/>
 </g>
 <g>
 <defs>
 <path d="M 0 0 
L -3.5 0 
" style="stroke: #9ca3af; stroke-width: 0.8"/>
 </defs>
 <g>
 <use xlink:href="#md672a3a783" x="29.43" y="105.81" style="fill: #9ca3af; stroke: #9ca3af; stroke-width: 0.8"/>
 </g>
 </g>
 <g>
 <text style="fill: #9ca3af; font: 7px 'DejaVu Sans', 'Bitstream Vera Sans', 'Computer Modern Sans Serif', 'Lucida Grande', 'Verdana', 'Geneva', 'Lucid', 'Arial', 'Helvetica', 'Avant Garde', sans-serif; text-anchor: end" x="22.43" y="108.47" transform="rotate(-0 22.43 108.47)">0</text>
 </g>
 </g>
 <g>
 <g>
 <path d="M 29.43 65.21 
L 224.73 65.21 
" style="fill: none; stroke: #e5e7eb; stroke-opacity: 0.6; stroke-width: 0.5; stroke-linecap: square"/>
 </g>
 <g>
 <g>
 <use xlink:href="#md672a3a783" x="29.43" y="65.21" style="fill: #9ca3af; stroke: #9ca3af; stroke-width: 0.8"/>
 </g>
 </g>
 <g>
 <text style="fill: #9ca3af; font: 7px 'DejaVu Sans', 'Bitstream Vera Sans', 'Computer Modern Sans Serif', 'Lucida Grande', 'Verdana', 'Geneva', 'Lucid', 'Arial', 'Helvetica', 'Avant Garde', sans-serif; text-anchor: end" x="22.43" y="67.87" transform="rotate(-0 22.43 67.87)">1</text>
 </g>
 </g>
 <g>
 <g>
 <path d="M 29.43 24.61 
L 224.73 24.61 
" style="fill: none; stroke: #e5e7eb; stroke-opacity: 0.6; stroke-width: 0.5; stroke-linecap: square"/>
 </g>
 <g>
 <g>
 <use xlink:href="#md672a3a783" x="29.43" y="24.61" style="fill: #9ca3af; stroke: #9ca3af; stroke-width: 0.8"/>
 </g>
 </g>
 <g>
 <text style="fill: #9ca3af; font: 7px 'DejaVu Sans', 'Bitstream Vera Sans', 'Computer Modern Sans Serif', 'Lucida Grande', 'Verdana', 'Geneva', 'Lucid', 'Arial', 'Helvetica', 'Avant Garde', sans-serif; text-anchor: end" x="22.43" y="27.27" transform="rotate(-0 22.43 27.27)">2</text>
 </g>
 </g>
 <g>
 <text style="fill: #9ca3af; font: 7px 'DejaVu Sans', 'Bitstream Vera Sans', 'Computer Modern Sans Serif', 'Lucida Grande', 'Verdana', 'Geneva', 'Lucid', 'Arial', 'Helvetica', 'Avant Garde', sans-serif; text-anchor: middle" x="12.52" y="76.5" transform="rotate(-90 12.52 76.5)">y</text>
 </g>
 </g>
 <g>
 <path d="M 38.31 29.16 
L 40.55 30.16 
L 42.80 31.18 
L 45.05 32.21 
L 47.30 33.24 
L 49.54 34.28 
L 51.79 35.33 
L 54.04 36.39 
L 56.28 37.45 
L 58.53 38.53 
L 60.78 39.61 
L 63.03 40.69 
L 65.27 41.79 
L 67.52 42.89 
L 69.77 44.00 
L 72.02 45.12 
L 74.26 46.24 
L 76.51 47.37 
L 78.76 48.51 
L 81.01 49.65 
L 83.25 50.80 
L 85.50 51.96 
L 87.75 53.12 
L 90.00 54.29 
L 92.24 55.46 
L 94.49 56.64 
L 96.74 57.82 
L 98.99 59.01 
L 101.23 60.21 
L 103.48 61.41 
L 105.73 62.61 
L 107.98 63.82 
L 110.22 65.04 
L 112.47 66.26 
L 114.72 67.48 
L 116.97 68.71 
L 119.21 69.94 
L 121.46 71.18 
L 123.71 72.42 
L 125.95 73.66 
L 128.20 74.91 
L 130.45 76.16 
L 132.70 77.42 
L 134.94 78.67 
L 137.19 79.93 
L 139.44 81.20 
L 141.69 82.46 
L 143.93 83.73 
L 146.18 85.01 
L 148.43 86.28 
L 150.68 87.56 
L 152.92 88.83 
L 155.17 90.11 
L 157.42 91.40 
L 159.67 92.68 
L 161.91 93.96 
L 164.16 95.25 
L 166.41 96.54 
L 168.66 97.83 
L 170.90 99.11 
L 173.15 100.40 
L 175.40 101.70 
L 177.65 102.99 
L 179.89 104.28 
L 182.14 105.57 
L 184.39 106.86 
L 186.63 108.15 
L 188.88 109.44 
L 191.13 110.74 
L 193.38 112.03 
L 195.62 113.32 
L 197.87 114.60 
L 200.12 115.89 
L 202.37 117.18 
L 204.61 118.46 
L 206.86 119.75 
L 209.11 121.03 
L 211.36 122.31 
L 213.60 123.59 
L 215.85 124.87 
" style="fill: none; stroke: #2563eb; stroke-width: 1.5; stroke-linecap: square"/>
 </g>
 <g>
 <path d="M 29.43 105.81 
L 224.73 105.81 
" style="fill: none; stroke: #9ca3af; stroke-width: 0.6; stroke-linecap: square"/>
 </g>
 <g>
 <path d="M 71.60 145.8 
L 71.60 7.2 
" style="fill: none; stroke-dasharray: 0.6,0.99; stroke-dashoffset: 0; stroke: #6b7280; stroke-width: 0.6"/>
 </g>
 <g>
 <path d="M 182.56 145.8 
L 182.56 7.2 
" style="fill: none; stroke-dasharray: 0.6,0.99; stroke-dashoffset: 0; stroke: #6b7280; stroke-width: 0.6"/>
 </g>
 <g>
 <path d="M 29.43 145.8 
L 29.43 7.2 
" style="fill: none; stroke: #9ca3af; stroke-width: 0.6; stroke-linejoin: miter; stroke-linecap: square"/>
 </g>
 <g>
 <path d="M 224.73 145.8 
L 224.73 7.2 
" style="fill: none; stroke: #9ca3af; stroke-width: 0.6; stroke-linejoin: miter; stroke-linecap: square"/>
 </g>
 <g>
 <path d="M 29.43 145.8 
L 224.73 145.8 
" style="fill: none; stroke: #9ca3af; stroke-width: 0.6; stroke-linejoin: miter; stroke-linecap: square"/>
 </g>
 <g>
 <path d="M 29.43 7.2 
L 224.73 7.2 
" style="fill: none; stroke: #9ca3af; stroke-width: 0.6; stroke-linejoin: miter; stroke-linecap: square"/>
 </g>
 </g>
 </g>
 <defs>
 </defs>
</svg>