<?xml version="1.0" encoding="utf-8" standalone="no"?>
<!DOCTYPE svg PUBLIC "-//W3C//DTD SVG 1.1//EN"
 "http://www.w3.org/Graphics/SVG/1.1/DTD/svg11.dtd">
<svg xmlns:xlink="http://www.w3.org/1999/xlink" width="237.79pt" height="177.55pt" viewBox="0 0 237.79 177.55" xmlns="http://www.w3.org/2000/svg" version="1.1">
 <g>
 <g>
 <path d="M 0 177.55 
L 237.79 177.55 
L 237.79 0 
L 0 0 
L 0 177.55 
z
" style="fill: none"/>
 </g>
 <g>
 <g>
 <path d="M 35.29 145.8 
L 230.59 145.8 
L 230.59 7.2 
L 35.29 7.2 
L 35.29 145.8 
z
" style="fill: none"/>
 </g>
 <g>
 <defs>
 <path d="M 77.46 -71.74 
L 77.46 -71.74 
L 79.73 -72.66 
L 81.99 -73.57 
L 84.26 -74.49 
L 86.52 -75.41 
L 88.78 -76.33 
L 91.05 -77.25 
L 93.31 -78.17 
L 95.58 -79.08 
L 97.84 -80.00 
L 100.11 -80.92 
L 102.37 -81.84 
L 104.64 -82.76 
L 106.90 -83.68 
L 109.17 -84.59 
L 111.43 -85.51 
L 113.70 -86.43 
L 115.96 -87.35 
L 118.22 -88.27 
L 120.49 -89.19 
L 122.75 -90.10 
L 125.02 -91.02 
L 127.28 -91.94 
L 129.55 -92.86 
L 131.81 -93.78 
L 134.08 -94.70 
L 136.34 -95.61 
L 138.61 -96.53 
L 140.87 -97.45 
L 143.13 -98.37 
L 145.40 -99.29 
L 147.66 -100.21 
L 149.93 -101.12 
L 152.19 -102.04 
L 154.46 -102.96 
L 156.72 -103.88 
L 158.99 -104.80 
L 161.25 -105.72 
L 163.52 -106.63 
L 165.78 -107.55 
L 168.05 -108.47 
L 170.31 -109.39 
L 172.57 -110.31 
L 174.84 -111.23 
L 177.10 -112.14 
L 179.37 -113.06 
L 181.63 -113.98 
L 183.90 -114.90 
L 186.16 -115.82 
L 188.43 -116.74 
L 188.43 -116.74 
L 188.43 -116.74 
L 186.16 -113.12 
L 183.90 -109.61 
L 181.63 -106.22 
L 179.37 -102.94 
L 177.10 -99.77 
L 174.84 -96.72 
L 172.57 -93.78 
L 170.31 -90.95 
L 168.05 -88.23 
L 165.78 -85.63 
L 163.52 -83.13 
L 161.25 -80.75 
L 158.99 -78.48 
L 156.72 -76.33 
L 154.46 -74.29 
L 152.19 -72.36 
L 149.93 -70.54 
L 147.66 -68.83 
L 145.40 -67.24 
L 143.13 -65.76 
L 140.87 -64.39 
L 138.61 -63.14 
L 136.34 -61.99 
L 134.08 -60.96 
L 131.81 -60.04 
L 129.55 -59.24 
L 127.28 -58.54 
L 125.02 -57.96 
L 122.75 -57.49 
L 120.49 -57.14 
L 118.22 -56.90 
L 115.96 -56.76 
L 113.70 -56.75 
L 111.43 -56.84 
L 109.17 -57.04 
L 106.90 -57.36 
L 104.64 -57.79 
L 102.37 -58.34 
L 100.11 -58.99 
L 97.84 -59.76 
L 95.58 -60.64 
L 93.31 -61.64 
L 91.05 -62.74 
L 88.78 -63.96 
L 86.52 -65.29 
L 84.26 -66.73 
L 81.99 -68.29 
L 79.73 -69.96 
L 77.46 -71.74 
z
" style="stroke: #2563eb; stroke-opacity: 0.15"/>
 </defs>
 <g>
 <use xlink:href="#m97947b3585" x="0" y="177.55" style="fill: #2563eb; fill-opacity: 0.15; stroke: #2563eb; stroke-opacity: 0.15"/>
 </g>
 </g>
 <g>
 <g>
 <g>
 <path d="M 40.47 145.8 
L 40.47 7.2 
" style="fill: none; stroke: #e5e7eb; stroke-opacity: 0.6; stroke-width: 0.5; stroke-linecap: square"/>
 </g>
 <g>
 <defs>
 <path d="M 0 0 
L 0 3.5 
" style="stroke: #9ca3af; stroke-width: 0.8"/>
 </defs>
 <g>
 <use xlink:href="#m4df25fc659" x="40.47" y="145.8" style="fill: #9ca3af; stroke: #9ca3af; stroke-width: 0.8"/>
 </g>
 </g>
 <g>
 <text style="fill: #9ca3af; font: 7px 'DejaVu Sans', 'Bitstream Vera Sans', 'Computer Modern Sans Serif', 'Lucida Grande', 'Verdana', 'Geneva', 'Lucid', 'Arial', 'Helvetica', 'Avant Garde', sans-serif; text-anchor: middle" x="40.47" y="158.12" transform="rotate(-0 40.47 158.12)">−2</text>
 </g>
 </g>
 <g>
 <g>
 <path d="M 114.45 145.8 
L 114.45 7.2 
" style="fill: none; stroke: #e5e7eb; stroke-opacity: 0.6; stroke-width: 0.5; stroke-linecap: square"/>
 </g>
 <g>
 <g>
 <use xlink:href="#m4df25fc659" x="114.45" y="145.8" style="fill: #9ca3af; stroke: #9ca3af; stroke-width: 0.8"/>
 </g>
 </g>
 <g>
 <text style="fill: #9ca3af; font: 7px 'DejaVu Sans', 'Bitstream Vera Sans', 'Computer Modern Sans Serif', 'Lucida Grande', 'Verdana', 'Geneva', 'Lucid', 'Arial', 'Helvetica', 'Avant Garde', sans-serif; text-anchor: middle" x="114.45" y="158.12" transform="rotate(-0 114.45 158.12)">0</text>
 </g>
 </g>
 <g>
 <g>
 <path d="M 188.43 145.8 
L 188.43 7.2 
" style="fill: none; stroke: #e5e7eb; stroke-opacity: 0.6; stroke-width: 0.5; stroke-linecap: square"/>
 </g>
 <g>
 <g>
 <use xlink:href="#m4df25fc659" x="188.43" y="145.8" style="fill: #9ca3af; stroke: #9ca3af; stroke-width: 0.8"/>
 </g>
 </g>
 <g>
 <text style="fill: #9ca3af; font: 7px 'DejaVu Sans', 'Bitstream Vera Sans', 'Computer Modern Sans Serif', 'Lucida Grande', 'Verdana', 'Geneva', 'Lucid', 'Arial', 'Helvetica', 'Avant Garde', sans-serif; text-anchor: middle" x="188.43" y="158.12" transform="rotate(-0 188.43 158.12)">2</text>
 </g>
 </g>
 <g>
 <text style="fill: #9ca3af; font: 7px 'DejaVu Sans', 'Bitstream Vera Sans', 'Computer Modern Sans Serif', 'Lucida Grande', 'Verdana', 'Geneva', 'Lucid', 'Arial', 'Helvetica', 'Avant Garde', sans-serif; text-anchor: middle" x="132.94" y="168.89" transform="rotate(-0 132.94 168.89)">x</text>
 </g>
 </g>
 <g>
 <g>
 <g>
 <path d="M 35.29 120.81 
L 230.59 120.81 
" style="fill: none; stroke: #e5e7eb; stroke-opacity: 0.6; stroke-width: 0.5; stroke-linecap: square"/>
 </g>
 <g>
 <defs>
 <path d="M 0 0 
L -3.5 0 
" style="stroke: #9ca3af; stroke-width: 0.8"/>
 </defs>
 <g>
 <use xlink:href="#m94fb1ee5a4" x="35.29" y="120.81" style="fill: #9ca3af; stroke: #9ca3af; stroke-width: 0.8"/>
 </g>
 </g>
 <g>
 <text style="fill: #9ca3af; font: 7px 'DejaVu Sans', 'Bitstream Vera Sans', 'Computer Modern Sans Serif', 'Lucida Grande', 'Verdana', 'Geneva', 'Lucid', 'Arial', 'Helvetica', 'Avant Garde', sans-serif; text-anchor: end" x="28.29" y="123.47" transform="rotate(-0 28.29 123.47)">−2</text>
 </g>
 </g>
 <g>
 <g>
 <path d="M 35.29 90.81 
L 230.59 90.81 
" style="fill: none; stroke: #e5e7eb; stroke-opacity: 0.6; stroke-width: 0.5; stroke-linecap: square"/>
 </g>
 <g>
 <g>
 <use xlink:href="#m94fb1ee5a4" x="35.29" y="90.81" style="fill: #9ca3af; stroke: #9ca3af; stroke-width: 0.8"/>
 </g>
 </g>
 <g>
 <text style="fill: #9ca3af; font: 7px 'DejaVu Sans', 'Bitstream Vera Sans', 'Computer Modern Sans Serif', 'Lucida Grande', 'Verdana', 'Geneva', 'Lucid', 'Arial', 'Helvetica', 'Avant Garde', sans-serif; text-anchor: end" x="28.29" y="93.47" transform="rotate(-0 28.29 93.47)">0</text>
 </g>
 </g>
 <g>
 <g>
 <path d="M 35.29 60.81 
L 230.59 60.81 
" style="fill: none; stroke: #e5e7eb; stroke-opacity: 0.6; stroke-width: 0.5; stroke-linecap: square"/>
 </g>
 <g>
 <g>
 <use xlink:href="#m94fb1ee5a4" x="35.29" y="60.81" style="fill: #9ca3af; stroke: #9ca3af; stroke-width: 0.8"/>
 </g>
 </g>
 <g>
 <text style="fill: #9ca3af; font: 7px 'DejaVu Sans', 'Bitstream Vera Sans', 'Computer Modern Sans Serif', 'Lucida Grande', 'Verdana', 'Geneva', 'Lucid', 'Arial', 'Helvetica', 'Avant Garde', sans-serif; text-anchor: end" x="28.29" y="63.47" transform="rotate(-0 28.29 63.47)">2</text>
 </g>
 </g>
 <g>
 <g>
 <path d="M 35.29 30.82 
L 230.59 30.82 
" style="fill: none; stroke: #e5e7eb; stroke-opacity: 0.6; stroke-width: 0.5; stroke-linecap: square"/>
 </g>
 <g>
 <g>
 <use xlink:href="#m94fb1ee5a4" x="35.29" y="30.82" style="fill: #9ca3af; stroke: #9ca3af; stroke-width: 0.8"/>
 </g>
 </g>
 <g>
 <text style="fill: #9ca3af; font: 7px 'DejaVu Sans', 'Bitstream Vera Sans', 'Computer Modern Sans Serif', 'Lucida Grande', 'Verdana', 'Geneva', 'Lucid', 'Arial', 'Helvetica', 'Avant Garde', sans-serif; text-anchor: end" x="28.29" y="33.48" transform="rotate(-0 28.29 33.48)">4</text>
 </g>
 </g>
 <g>
 <text style="fill: #9ca3af; font: 7px 'DejaVu Sans', 'Bitstream Vera Sans', 'Computer Modern Sans Serif', 'Lucida Grande', 'Verdana', 'Geneva', 'Lucid', 'Arial', 'Helvetica', 'Avant Garde', sans-serif; text-anchor: middle" x="12.52" y="76.5" transform="rotate(-90 12.52 76.5)">y</text>
 </g>
 </g>
 <g>
 <path d="M 44.17 119.31 
L 46.42 118.40 
L 48.67 117.49 
L 50.91 116.58 
L 53.16 115.67 
L 55.41 114.75 
L 57.66 113.84 
L 59.90 112.93 
L 62.15 112.02 
L 64.40 111.11 
L 66.65 110.20 
L 68.89 109.29 
L 71.14 108.37 
L 73.39 107.46 
L 75.64 106.55 
L 77.88 105.64 
L 80.13 104.73 
L 82.38 103.82 
L 84.62 102.91 
L 86.87 102.00 
L 89.12 101.08 
L 91.37 100.17 
L 93.61 99.26 
L 95.86 98.35 
L 98.11 97.44 
L 100.36 96.53 
L 102.60 95.62 
L 104.85 94.70 
L 107.10 93.79 
L 109.35 92.88 
L 111.59 91.97 
L 113.84 91.06 
L 116.09 90.15 
L 118.34 89.24 
L 120.58 88.33 
L 122.83 87.41 
L 125.08 86.50 
L 127.33 85.59 
L 129.57 84.68 
L 131.82 83.77 
L 134.07 82.86 
L 136.32 81.95 
L 138.56 81.03 
L 140.81 80.12 
L 143.06 79.21 
L 145.30 78.30 
L 147.55 77.39 
L 149.80 76.48 
L 152.05 75.57 
L 154.29 74.66 
L 156.54 73.74 
L 158.79 72.83 
L 161.04 71.92 
L 163.28 71.01 
L 165.53 70.10 
L 167.78 69.19 
L 170.03 68.28 
L 172.27 67.36 
L 174.52 66.45 
L 176.77 65.54 
L 179.02 64.63 
L 181.26 63.72 
L 183.51 62.81 
L 185.76 61.90 
L 188.01 60.98 
L 190.25 60.07 
L 192.50 59.16 
L 194.75 58.25 
L 197.00 57.34 
L 199.24 56.43 
L 201.49 55.52 
L 203.74 54.61 
L 205.99 53.69 
L 208.23 52.78 
L 210.48 51.87 
L 212.73 50.96 
L 214.97 50.05 
L 217.22 49.14 
L 219.47 48.23 
L 221.72 47.31 
" style="fill: none; stroke: #2563eb; stroke-width: 1.5; stroke-linecap: square"/>
 </g>
 <g>
 <path d="M 44.17 66.66 
L 46.42 70.07 
L 48.67 73.37 
L 50.91 76.55 
L 53.16 79.63 
L 55.41 82.59 
L 57.66 85.45 
L 59.90 88.19 
L 62.15 90.82 
L 64.40 93.35 
L 66.65 95.76 
L 68.89 98.06 
L 71.14 100.25 
L 73.39 102.33 
L 75.64 104.29 
L 77.88 106.15 
L 80.13 107.90 
L 82.38 109.53 
L 84.62 111.06 
L 86.87 112.47 
L 89.12 113.78 
L 91.37 114.97 
L 93.61 116.05 
L 95.86 117.02 
L 98.11 117.88 
L 100.36 118.63 
L 102.60 119.27 
L 104.85 119.80 
L 107.10 120.22 
L 109.35 120.52 
L 111.59 120.72 
L 113.84 120.81 
L 116.09 120.78 
L 118.34 120.64 
L 120.58 120.40 
L 122.83 120.04 
L 125.08 119.57 
L 127.33 118.99 
L 129.57 118.30 
L 131.82 117.50 
L 134.07 116.59 
L 136.32 115.57 
L 138.56 114.44 
L 140.81 113.19 
L 143.06 111.84 
L 145.30 110.37 
L 147.55 108.80 
L 149.80 107.11 
L 152.05 105.31 
L 154.29 103.41 
L 156.54 101.39 
L 158.79 99.26 
L 161.04 97.02 
L 163.28 94.67 
L 165.53 92.20 
L 167.78 89.63 
L 170.03 86.95 
L 172.27 84.15 
L 174.52 81.25 
L 176.77 78.23 
L 179.02 75.11 
L 181.26 71.87 
L 183.51 68.52 
L 185.76 65.06 
L 188.01 61.50 
L 190.25 57.82 
L 192.50 54.02 
L 194.75 50.12 
L 197.00 46.11 
L 199.24 41.99 
L 201.49 37.75 
L 203.74 33.41 
L 205.99 28.96 
L 208.23 24.39 
L 210.48 19.71 
L 212.73 14.93 
L 214.97 10.03 
L 217.22 5.02 
L 219.47 -0.10 
L 219.86 -1 
" style="fill: none; stroke: #dc2626; stroke-width: 1.5; stroke-linecap: square"/>
 </g>
 <g>
 <path d="M 77.46 145.8 
L 77.46 7.2 
" style="fill: none; stroke-dasharray: 0.6,0.99; stroke-dashoffset: 0; stroke: #6b7280; stroke-width: 0.6"/>
 </g>
 <g>
 <path d="M 188.43 145.8 
L 188.43 7.2 
" style="fill: none; stroke-dasharray: 0.6,0.99; stroke-dashoffset: 0; stroke: #6b7280; stroke-width: 0.6"/>
 </g>
 <g>
 <path d="M 35.29 145.8 
L 35.29 7.2 
" style="fill: none; stroke: #9ca3af; stroke-width: 0.6; stroke-linejoin: miter; stroke-linecap: square"/>
 </g>
 <g>
 <path d="M 230.59 145.8 
L 230.59 7.2 
" style="fill: none; stroke: #9ca3af; stroke-width: 0.6; stroke-linejoin: miter; stroke-linecap: square"/>
 </g>
 <g>
 <path d="M 35.29 145.8 
L 230.59 145.8 
" style="fill: none; stroke: #9ca3af; stroke-width: 0.6; stroke-linejoin: miter; stroke-linecap: square"/>
 </g>
 <g>
 <path d="M 35.29 7.2 
L 230.59 7.2 
" style="fill: none; stroke: #9ca3af; stroke-width: 0.6; stroke-linejoin: miter; stroke-linecap: square"/>
 </g>
 </g>
 </g>
 <defs>
 </defs>
</svg>