<?xml version="1.0" encoding="utf-8" standalone="no"?>
<!DOCTYPE svg PUBLIC "-//W3C//DTD SVG 1.1//EN"
 "http://www.w3.org/Graphics/SVG/1.1/DTD/svg11.dtd">
<svg xmlns:xlink="http://www.w3.org/1999/xlink" width="242.25pt" height="177.55pt" viewBox="0 0 242.25 177.55" xmlns="http://www.w3.org/2000/svg" version="1.1">
 <g>
 <g>
 <path d="M 0 177.55 
L 242.25 177.55 
L 242.25 0 
L 0 0 
L 0 177.55 
z
" style="fill: none"/>
 </g>
 <g>
 <g>
 <path d="M 39.75 145.8 
L 235.05 145.8 
L 235.05 7.2 
L 39.75 7.2 
L 39.75 145.8 
z
" style="fill: none"/>
 </g>
 <g>
 <defs>
 <path d="M 81.92 -140.01 
L 81.92 -153.81 
L 84.18 -153.81 
L 86.44 -153.81 
L 88.71 -153.81 
L 90.97 -153.81 
L 93.24 -153.81 
L 95.50 -153.81 
L 97.77 -153.81 
L 100.03 -153.81 
L 102.30 -153.81 
L 104.56 -153.81 
L 106.83 -153.81 
L 109.09 -153.81 
L 111.35 -153.81 
L 113.62 -153.81 
L 115.88 -153.81 
L 118.15 -153.81 
L 120.41 -153.81 
L 122.68 -153.81 
L 124.94 -153.81 
L 127.21 -153.81 
L 129.47 -153.81 
L 131.74 -153.81 
L 134.00 -153.81 
L 136.27 -153.81 
L 138.53 -153.81 
L 140.79 -153.81 
L 143.06 -153.81 
L 145.32 -153.81 
L 147.59 -153.81 
L 149.85 -153.81 
L 152.12 -153.81 
L 154.38 -153.81 
L 156.65 -153.81 
L 158.91 -153.81 
L 161.18 -153.81 
L 163.44 -153.81 
L 165.71 -153.81 
L 167.97 -153.81 
L 170.23 -153.81 
L 172.50 -153.81 
L 174.76 -153.81 
L 177.03 -153.81 
L 179.29 -153.81 
L 181.56 -153.81 
L 183.82 -153.81 
L 186.09 -153.81 
L 188.35 -153.81 
L 190.62 -153.81 
L 192.88 -153.81 
L 192.88 -82.08 
L 192.88 -82.08 
L 190.62 -84.09 
L 188.35 -86.05 
L 186.09 -87.98 
L 183.82 -89.86 
L 181.56 -91.71 
L 179.29 -93.51 
L 177.03 -95.28 
L 174.76 -97.01 
L 172.50 -98.70 
L 170.23 -100.35 
L 167.97 -101.97 
L 165.71 -103.54 
L 163.44 -105.09 
L 161.18 -106.59 
L 158.91 -108.07 
L 156.65 -109.50 
L 154.38 -110.90 
L 152.12 -112.27 
L 149.85 -113.61 
L 147.59 -114.91 
L 145.32 -116.17 
L 143.06 -117.41 
L 140.79 -118.61 
L 138.53 -119.78 
L 136.27 -120.92 
L 134.00 -122.03 
L 131.74 -123.11 
L 129.47 -124.16 
L 127.21 -125.18 
L 124.94 -126.17 
L 122.68 -127.13 
L 120.41 -128.07 
L 118.15 -128.97 
L 115.88 -129.85 
L 113.62 -130.70 
L 111.35 -131.52 
L 109.09 -132.32 
L 106.83 -133.09 
L 104.56 -133.84 
L 102.30 -134.56 
L 100.03 -135.26 
L 97.77 -135.94 
L 95.50 -136.59 
L 93.24 -137.21 
L 90.97 -137.82 
L 88.71 -138.40 
L 86.44 -138.96 
L 84.18 -139.50 
L 81.92 -140.01 
z
" style="stroke: #2563eb; stroke-opacity: 0.15"/>
 </defs>
 <g>
 <use xlink:href="#m4e5a61c937" x="0" y="177.55" style="fill: #2563eb; fill-opacity: 0.15; stroke: #2563eb; stroke-opacity: 0.15"/>
 </g>
 </g>
 <g>
 <g>
 <g>
 <path d="M 81.92 145.8 
L 81.92 7.2 
" style="fill: none; stroke: #e5e7eb; stroke-opacity: 0.6; stroke-width: 0.5; stroke-linecap: square"/>
 </g>
 <g>
 <defs>
 <path d="M 0 0 
L 0 3.5 
" style="stroke: #9ca3af; stroke-width: 0.8"/>
 </defs>
 <g>
 <use xlink:href="#md511bf286c" x="81.92" y="145.8" style="fill: #9ca3af; stroke: #9ca3af; stroke-width: 0.8"/>
 </g>
 </g>
 <g>
 <text style="fill: #9ca3af; font: 7px 'DejaVu Sans', 'Bitstream Vera Sans', 'Computer Modern Sans Serif', 'Lucida Grande', 'Verdana', 'Geneva', 'Lucid', 'Arial', 'Helvetica', 'Avant Garde', sans-serif; text-anchor: middle" x="81.92" y="158.12" transform="rotate(-0 81.92 158.12)">1.0</text>
 </g>
 </g>
 <g>
 <g>
 <path d="M 137.40 145.8 
L 137.40 7.2 
" style="fill: none; stroke: #e5e7eb; stroke-opacity: 0.6; stroke-width: 0.5; stroke-linecap: square"/>
 </g>
 <g>
 <g>
 <use xlink:href="#md511bf286c" x="137.40" y="145.8" style="fill: #9ca3af; stroke: #9ca3af; stroke-width: 0.8"/>
 </g>
 </g>
 <g>
 <text style="fill: #9ca3af; font: 7px 'DejaVu Sans', 'Bitstream Vera Sans', 'Computer Modern Sans Serif', 'Lucida Grande', 'Verdana', 'Geneva', 'Lucid', 'Arial', 'Helvetica', 'Avant Garde', sans-serif; text-anchor: middle" x="137.40" y="158.12" transform="rotate(-0 137.40 158.12)">1.5</text>
 </g>
 </g>
 <g>
 <g>
 <path d="M 192.88 145.8 
L 192.88 7.2 
" style="fill: none; stroke: #e5e7eb; stroke-opacity: 0.6; stroke-width: 0.5; stroke-linecap: square"/>
 </g>
 <g>
 <g>
 <use xlink:href="#md511bf286c" x="192.88" y="145.8" style="fill: #9ca3af; stroke: #9ca3af; stroke-width: 0.8"/>
 </g>
 </g>
 <g>
 <text style="fill: #9ca3af; font: 7px 'DejaVu Sans', 'Bitstream Vera Sans', 'Computer Modern Sans Serif', 'Lucida Grande', 'Verdana', 'Geneva', 'Lucid', 'Arial', 'Helvetica', 'Avant Garde', sans-serif; text-anchor: middle" x="192.88" y="158.12" transform="rotate(-0 192.88 158.12)">2.0</text>
 </g>
 </g>
 <g>
 <text style="fill: #9ca3af; font: 7px 'DejaVu Sans', 'Bitstream Vera Sans', 'Computer Modern Sans Serif', 'Lucida Grande', 'Verdana', 'Geneva', 'Lucid', 'Arial', 'Helvetica', 'Avant Garde', sans-serif; text-anchor: middle" x="137.40" y="168.89" transform="rotate(-0 137.40 168.89)">x</text>
 </g>
 </g>
 <g>
 <g>
 <g>
 <path d="M 39.75 134.09 
L 235.05 134.09 
" style="fill: none; stroke: #e5e7eb; stroke-opacity: 0.6; stroke-width: 0.5; stroke-linecap: square"/>
 </g>
 <g>
 <defs>
 <path d="M 0 0 
L -3.5 0 
" style="stroke: #9ca3af; stroke-width: 0.8"/>
 </defs>
 <g>
 <use xlink:href="#mcbe742e3b4" x="39.75" y="134.09" style="fill: #9ca3af; stroke: #9ca3af; stroke-width: 0.8"/>
 </g>
 </g>
 <g>
 <text style="fill: #9ca3af; font: 7px 'DejaVu Sans', 'Bitstream Vera Sans', 'Computer Modern Sans Serif', 'Lucida Grande', 'Verdana', 'Geneva', 'Lucid', 'Arial', 'Helvetica', 'Avant Garde', sans-serif; text-anchor: end" x="32.75" y="136.75" transform="rotate(-0 32.75 136.75)">−40</text>
 </g>
 </g>
 <g>
 <g>
 <path d="M 39.75 78.92 
L 235.05 78.92 
" style="fill: none; stroke: #e5e7eb; stroke-opacity: 0.6; stroke-width: 0.5; stroke-linecap: square"/>
 </g>
 <g>
 <g>
 <use xlink:href="#mcbe742e3b4" x="39.75" y="78.92" style="fill: #9ca3af; stroke: #9ca3af; stroke-width: 0.8"/>
 </g>
 </g>
 <g>
 <text style="fill: #9ca3af; font: 7px 'DejaVu Sans', 'Bitstream Vera Sans', 'Computer Modern Sans Serif', 'Lucida Grande', 'Verdana', 'Geneva', 'Lucid', 'Arial', 'Helvetica', 'Avant Garde', sans-serif; text-anchor: end" x="32.75" y="81.58" transform="rotate(-0 32.75 81.58)">−20</text>
 </g>
 </g>
 <g>
 <g>
 <path d="M 39.75 23.74 
L 235.05 23.74 
" style="fill: none; stroke: #e5e7eb; stroke-opacity: 0.6; stroke-width: 0.5; stroke-linecap: square"/>
 </g>
 <g>
 <g>
 <use xlink:href="#mcbe742e3b4" x="39.75" y="23.74" style="fill: #9ca3af; stroke: #9ca3af; stroke-width: 0.8"/>
 </g>
 </g>
 <g>
 <text style="fill: #9ca3af; font: 7px 'DejaVu Sans', 'Bitstream Vera Sans', 'Computer Modern Sans Serif', 'Lucida Grande', 'Verdana', 'Geneva', 'Lucid', 'Arial', 'Helvetica', 'Avant Garde', sans-serif; text-anchor: end" x="32.75" y="26.40" transform="rotate(-0 32.75 26.40)">0</text>
 </g>
 </g>
 <g>
 <text style="fill: #9ca3af; font: 7px 'DejaVu Sans', 'Bitstream Vera Sans', 'Computer Modern Sans Serif', 'Lucida Grande', 'Verdana', 'Geneva', 'Lucid', 'Arial', 'Helvetica', 'Avant Garde', sans-serif; text-anchor: middle" x="12.52" y="76.5" transform="rotate(-90 12.52 76.5)">y</text>
 </g>
 </g>
 <g>
 <path d="M 48.63 32.10 
L 50.87 32.35 
L 53.12 32.62 
L 55.37 32.90 
L 57.61 33.20 
L 59.86 33.52 
L 62.11 33.85 
L 64.36 34.20 
L 66.60 34.56 
L 68.85 34.94 
L 71.10 35.34 
L 73.35 35.76 
L 75.59 36.20 
L 77.84 36.66 
L 80.09 37.13 
L 82.34 37.63 
L 84.58 38.15 
L 86.83 38.69 
L 89.08 39.24 
L 91.33 39.83 
L 93.57 40.43 
L 95.82 41.05 
L 98.07 41.70 
L 100.32 42.37 
L 102.56 43.07 
L 104.81 43.79 
L 107.06 44.53 
L 109.31 45.30 
L 111.55 46.10 
L 113.80 46.92 
L 116.05 47.76 
L 118.29 48.64 
L 120.54 49.54 
L 122.79 50.46 
L 125.04 51.42 
L 127.28 52.40 
L 129.53 53.42 
L 131.78 54.46 
L 134.03 55.53 
L 136.27 56.63 
L 138.52 57.76 
L 140.77 58.92 
L 143.02 60.12 
L 145.26 61.34 
L 147.51 62.60 
L 149.76 63.89 
L 152.01 65.21 
L 154.25 66.57 
L 156.50 67.96 
L 158.75 69.38 
L 161.00 70.84 
L 163.24 72.33 
L 165.49 73.86 
L 167.74 75.42 
L 169.99 77.02 
L 172.23 78.66 
L 174.48 80.33 
L 176.73 82.04 
L 178.98 83.79 
L 181.22 85.57 
L 183.47 87.40 
L 185.72 89.26 
L 187.96 91.17 
L 190.21 93.11 
L 192.46 95.09 
L 194.71 97.12 
L 196.95 99.18 
L 199.20 101.29 
L 201.45 103.44 
L 203.70 105.63 
L 205.94 107.86 
L 208.19 110.14 
L 210.44 112.46 
L 212.69 114.83 
L 214.93 117.23 
L 217.18 119.69 
L 219.43 122.19 
L 221.68 124.73 
L 223.92 127.32 
L 226.17 129.96 
" style="fill: none; stroke: #2563eb; stroke-width: 1.5; stroke-linecap: square"/>
 </g>
 <g>
 <path d="M 39.75 23.74 
L 235.05 23.74 
" style="fill: none; stroke: #9ca3af; stroke-width: 0.6; stroke-linecap: square"/>
 </g>
 <g>
 <path d="M 81.92 145.8 
L 81.92 7.2 
" style="fill: none; stroke-dasharray: 0.6,0.99; stroke-dashoffset: 0; stroke: #6b7280; stroke-width: 0.6"/>
 </g>
 <g>
 <path d="M 192.88 145.8 
L 192.88 7.2 
" style="fill: none; stroke-dasharray: 0.6,0.99; stroke-dashoffset: 0; stroke: #6b7280; stroke-width: 0.6"/>
 </g>
 <g>
 <path d="M 39.75 145.8 
L 39.75 7.2 
" style="fill: none; stroke: #9ca3af; stroke-width: 0.6; stroke-linejoin: miter; stroke-linecap: square"/>
 </g>
 <g>
 <path d="M 235.05 145.8 
L 235.05 7.2 
" style="fill: none; stroke: #9ca3af; stroke-width: 0.6; stroke-linejoin: miter; stroke-linecap: square"/>
 </g>
 <g>
 <path d="M 39.75 145.8 
L 235.05 145.8 
" style="fill: none; stroke: #9ca3af; stroke-width: 0.6; stroke-linejoin: miter; stroke-linecap: square"/>
 </g>
 <g>
 <path d="M 39.75 7.2 
L 235.05 7.2 
" style="fill: none; stroke: #9ca3af; stroke-width: 0.6; stroke-linejoin: miter; stroke-linecap: square"/>
 </g>
 </g>
 </g>
 <defs>
 </defs>
</svg>