<?xml version="1.0" encoding="utf-8" standalone="no"?>
<!DOCTYPE svg PUBLIC "-//W3C//DTD SVG 1.1//EN"
 "http://www.w3.org/Graphics/SVG/1.1/DTD/svg11.dtd">
<svg xmlns:xlink="http://www.w3.org/1999/xlink" width="231.93pt" height="177.55pt" viewBox="0 0 231.93 177.55" xmlns="http://www.w3.org/2000/svg" version="1.1">
 <g>
 <g>
 <path d="M 0 177.55 
L 231.93 177.55 
L 231.93 0 
L 0 0 
L 0 177.55 
z
" style="fill: none"/>
 </g>
 <g>
 <g>
 <path d="M 29.43 145.8 
L 224.73 145.8 
L 224.73 7.2 
L 29.43 7.2 
L 29.43 145.8 
z
" style="fill: none"/>
 </g>
 <g>
 <defs>
 <path d="M 71.60 -57.74 
L 71.60 -117.21 
L 73.86 -112.72 
L 76.12 -108.86 
L 78.39 -105.51 
L 80.65 -102.57 
L 82.92 -99.97 
L 85.18 -97.66 
L 87.45 -95.58 
L 89.71 -93.72 
L 91.98 -92.02 
L 94.24 -90.48 
L 96.51 -89.07 
L 98.77 -87.78 
L 101.04 -86.59 
L 103.30 -85.49 
L 105.56 -84.47 
L 107.83 -83.53 
L 110.09 -82.65 
L 112.36 -81.82 
L 114.62 -81.05 
L 116.89 -80.33 
L 119.15 -79.65 
L 121.42 -79.01 
L 123.68 -78.41 
L 125.95 -77.84 
L 128.21 -77.30 
L 130.48 -76.78 
L 132.74 -76.30 
L 135.00 -75.84 
L 137.27 -75.40 
L 139.53 -74.98 
L 141.80 -74.58 
L 144.06 -74.20 
L 146.33 -73.84 
L 148.59 -73.49 
L 150.86 -73.16 
L 153.12 -72.84 
L 155.39 -72.53 
L 157.65 -72.24 
L 159.92 -71.95 
L 162.18 -71.68 
L 164.44 -71.42 
L 166.71 -71.17 
L 168.97 -70.92 
L 171.24 -70.69 
L 173.50 -70.46 
L 175.77 -70.24 
L 178.03 -70.03 
L 180.30 -69.83 
L 182.56 -69.63 
L 182.56 -57.74 
L 182.56 -57.74 
L 180.30 -57.74 
L 178.03 -57.74 
L 175.77 -57.74 
L 173.50 -57.74 
L 171.24 -57.74 
L 168.97 -57.74 
L 166.71 -57.74 
L 164.44 -57.74 
L 162.18 -57.74 
L 159.92 -57.74 
L 157.65 -57.74 
L 155.39 -57.74 
L 153.12 -57.74 
L 150.86 -57.74 
L 148.59 -57.74 
L 146.33 -57.74 
L 144.06 -57.74 
L 141.80 -57.74 
L 139.53 -57.74 
L 137.27 -57.74 
L 135.00 -57.74 
L 132.74 -57.74 
L 130.48 -57.74 
L 128.21 -57.74 
L 125.95 -57.74 
L 123.68 -57.74 
L 121.42 -57.74 
L 119.15 -57.74 
L 116.89 -57.74 
L 114.62 -57.74 
L 112.36 -57.74 
L 110.09 -57.74 
L 107.83 -57.74 
L 105.56 -57.74 
L 103.30 -57.74 
L 101.04 -57.74 
L 98.77 -57.74 
L 96.51 -57.74 
L 94.24 -57.74 
L 91.98 -57.74 
L 89.71 -57.74 
L 87.45 -57.74 
L 85.18 -57.74 
L 82.92 -57.74 
L 80.65 -57.74 
L 78.39 -57.74 
L 76.12 -57.74 
L 73.86 -57.74 
L 71.60 -57.74 
z
" style="stroke: #2563eb; stroke-opacity: 0.15"/>
 </defs>
 <g>
 <use xlink:href="#medba1d36dc" x="0" y="177.55" style="fill: #2563eb; fill-opacity: 0.15; stroke: #2563eb; stroke-opacity: 0.15"/>
 </g>
 </g>
 <g>
 <g>
 <g>
 <path d="M 43.85 145.8 
L 43.85 7.2 
" style="fill: none; stroke: #e5e7eb; stroke-opacity: 0.6; stroke-width: 0.5; stroke-linecap: square"/>
 </g>
 <g>
 <defs>
 <path d="M 0 0 
L 0 3.5 
" style="stroke: #9ca3af; stroke-width: 0.8"/>
 </defs>
 <g>
 <use xlink:href="#m0b831da463" x="43.85" y="145.8" style="fill: #9ca3af; stroke: #9ca3af; stroke-width: 0.8"/>
 </g>
 </g>
 <g>
 <text style="fill: #9ca3af; font: 7px 'DejaVu Sans', 'Bitstream Vera Sans', 'Computer Modern Sans Serif', 'Lucida Grande', 'Verdana', 'Geneva', 'Lucid', 'Arial', 'Helvetica', 'Avant Garde', sans-serif; text-anchor: middle" x="43.85" y="158.12" transform="rotate(-0 43.85 158.12)">0</text>
 </g>
 </g>
 <g>
 <g>
 <path d="M 99.34 145.8 
L 99.34 7.2 
" style="fill: none; stroke: #e5e7eb; stroke-opacity: 0.6; stroke-width: 0.5; stroke-linecap: square"/>
 </g>
 <g>
 <g>
 <use xlink:href="#m0b831da463" x="99.34" y="145.8" style="fill: #9ca3af; stroke: #9ca3af; stroke-width: 0.8"/>
 </g>
 </g>
 <g>
 <text style="fill: #9ca3af; font: 7px 'DejaVu Sans', 'Bitstream Vera Sans', 'Computer Modern Sans Serif', 'Lucida Grande', 'Verdana', 'Geneva', 'Lucid', 'Arial', 'Helvetica', 'Avant Garde', sans-serif; text-anchor: middle" x="99.34" y="158.12" transform="rotate(-0 99.34 158.12)">2</text>
 </g>
 </g>
 <g>
 <g>
 <path d="M 154.82 145.8 
L 154.82 7.2 
" style="fill: none; stroke: #e5e7eb; stroke-opacity: 0.6; stroke-width: 0.5; stroke-linecap: square"/>
 </g>
 <g>
 <g>
 <use xlink:href="#m0b831da463" x="154.82" y="145.8" style="fill: #9ca3af; stroke: #9ca3af; stroke-width: 0.8"/>
 </g>
 </g>
 <g>
 <text style="fill: #9ca3af; font: 7px 'DejaVu Sans', 'Bitstream Vera Sans', 'Computer Modern Sans Serif', 'Lucida Grande', 'Verdana', 'Geneva', 'Lucid', 'Arial', 'Helvetica', 'Avant Garde', sans-serif; text-anchor: middle" x="154.82" y="158.12" transform="rotate(-0 154.82 158.12)">4</text>
 </g>
 </g>
 <g>
 <g>
 <path d="M 210.30 145.8 
L 210.30 7.2 
" style="fill: none; stroke: #e5e7eb; stroke-opacity: 0.6; stroke-width: 0.5; stroke-linecap: square"/>
 </g>
 <g>
 <g>
 <use xlink:href="#m0b831da463" x="210.30" y="145.8" style="fill: #9ca3af; stroke: #9ca3af; stroke-width: 0.8"/>
 </g>
 </g>
 <g>
 <text style="fill: #9ca3af; font: 7px 'DejaVu Sans', 'Bitstream Vera Sans', 'Computer Modern Sans Serif', 'Lucida Grande', 'Verdana', 'Geneva', 'Lucid', 'Arial', 'Helvetica', 'Avant Garde', sans-serif; text-anchor: middle" x="210.30" y="158.12" transform="rotate(-0 210.30 158.12)">6</text>
 </g>
 </g>
 <g>
 <text style="fill: #9ca3af; font: 7px 'DejaVu Sans', 'Bitstream Vera Sans', 'Computer Modern Sans Serif', 'Lucida Grande', 'Verdana', 'Geneva', 'Lucid', 'Arial', 'Helvetica', 'Avant Garde', sans-serif; text-anchor: middle" x="127.08" y="168.89" transform="rotate(-0 127.08 168.89)">x</text>
 </g>
 </g>
 <g>
 <g>
 <g>
 <path d="M 29.43 119.81 
L 224.73 119.81 
" style="fill: none; stroke: #e5e7eb; stroke-opacity: 0.6; stroke-width: 0.5; stroke-linecap: square"/>
 </g>
 <g>
 <defs>
 <path d="M 0 0 
L -3.5 0 
" style="stroke: #9ca3af; stroke-width: 0.8"/>
 </defs>
 <g>
 <use xlink:href="#ma9ef61b288" x="29.43" y="119.81" style="fill: #9ca3af; stroke: #9ca3af; stroke-width: 0.8"/>
 </g>
 </g>
 <g>
 <text style="fill: #9ca3af; font: 7px 'DejaVu Sans', 'Bitstream Vera Sans', 'Computer Modern Sans Serif', 'Lucida Grande', 'Verdana', 'Geneva', 'Lucid', 'Arial', 'Helvetica', 'Avant Garde', sans-serif; text-anchor: end" x="22.43" y="122.47" transform="rotate(-0 22.43 122.47)">0</text>
 </g>
 </g>
 <g>
 <g>
 <path d="M 29.43 90.07 
L 224.73 90.07 
" style="fill: none; stroke: #e5e7eb; stroke-opacity: 0.6; stroke-width: 0.5; stroke-linecap: square"/>
 </g>
 <g>
 <g>
 <use xlink:href="#ma9ef61b288" x="29.43" y="90.07" style="fill: #9ca3af; stroke: #9ca3af; stroke-width: 0.8"/>
 </g>
 </g>
 <g>
 <text style="fill: #9ca3af; font: 7px 'DejaVu Sans', 'Bitstream Vera Sans', 'Computer Modern Sans Serif', 'Lucida Grande', 'Verdana', 'Geneva', 'Lucid', 'Arial', 'Helvetica', 'Avant Garde', sans-serif; text-anchor: end" x="22.43" y="92.73" transform="rotate(-0 22.43 92.73)">1</text>
 </g>
 </g>
 <g>
 <g>
 <path d="M 29.43 60.34 
L 224.73 60.34 
" style="fill: none; stroke: #e5e7eb; stroke-opacity: 0.6; stroke-width: 0.5; stroke-linecap: square"/>
 </g>
 <g>
 <g>
 <use xlink:href="#ma9ef61b288" x="29.43" y="60.34" style="fill: #9ca3af; stroke: #9ca3af; stroke-width: 0.8"/>
 </g>
 </g>
 <g>
 <text style="fill: #9ca3af; font: 7px 'DejaVu Sans', 'Bitstream Vera Sans', 'Computer Modern Sans Serif', 'Lucida Grande', 'Verdana', 'Geneva', 'Lucid', 'Arial', 'Helvetica', 'Avant Garde', sans-serif; text-anchor: end" x="22.43" y="63.00" transform="rotate(-0 22.43 63.00)">2</text>
 </g>
 </g>
 <g>
 <g>
 <path d="M 29.43 30.60 
L 224.73 30.60 
" style="fill: none; stroke: #e5e7eb; stroke-opacity: 0.6; stroke-width: 0.5; stroke-linecap: square"/>
 </g>
 <g>
 <g>
 <use xlink:href="#ma9ef61b288" x="29.43" y="30.60" style="fill: #9ca3af; stroke: #9ca3af; stroke-width: 0.8"/>
 </g>
 </g>
 <g>
 <text style="fill: #9ca3af; font: 7px 'DejaVu Sans', 'Bitstream Vera Sans', 'Computer Modern Sans Serif', 'Lucida Grande', 'Verdana', 'Geneva', 'Lucid', 'Arial', 'Helvetica', 'Avant Garde', sans-serif; text-anchor: end" x="22.43" y="33.26" transform="rotate(-0 22.43 33.26)">3</text>
 </g>
 </g>
 <g>
 <text style="fill: #9ca3af; font: 7px 'DejaVu Sans', 'Bitstream Vera Sans', 'Computer Modern Sans Serif', 'Lucida Grande', 'Verdana', 'Geneva', 'Lucid', 'Arial', 'Helvetica', 'Avant Garde', sans-serif; text-anchor: middle" x="12.52" y="76.5" transform="rotate(-90 12.52 76.5)">y</text>
 </g>
 </g>
 <g>
 <path d="M 43.95 178.55 
L 44.09 -1 
M 57.60 -1 
L 58.53 7.41 
L 60.78 22.33 
L 63.03 33.76 
L 65.27 42.79 
L 67.52 50.10 
L 69.77 56.15 
L 72.02 61.23 
L 74.26 65.56 
L 76.51 69.29 
L 78.76 72.54 
L 81.01 75.40 
L 83.25 77.94 
L 85.50 80.20 
L 87.75 82.22 
L 90.00 84.06 
L 92.24 85.72 
L 94.49 87.23 
L 96.74 88.61 
L 98.99 89.89 
L 101.23 91.06 
L 103.48 92.14 
L 105.73 93.15 
L 107.98 94.08 
L 110.22 94.95 
L 112.47 95.77 
L 114.72 96.53 
L 116.97 97.25 
L 119.21 97.92 
L 121.46 98.55 
L 123.71 99.15 
L 125.95 99.72 
L 128.20 100.25 
L 130.45 100.76 
L 132.70 101.24 
L 134.94 101.70 
L 137.19 102.14 
L 139.44 102.55 
L 141.69 102.95 
L 143.93 103.33 
L 146.18 103.69 
L 148.43 104.04 
L 150.68 104.37 
L 152.92 104.69 
L 155.17 104.99 
L 157.42 105.28 
L 159.67 105.57 
L 161.91 105.84 
L 164.16 106.10 
L 166.41 106.35 
L 168.66 106.59 
L 170.90 106.83 
L 173.15 107.05 
L 175.40 107.27 
L 177.65 107.48 
L 179.89 107.68 
L 182.14 107.88 
L 184.39 108.07 
L 186.63 108.26 
L 188.88 108.44 
L 191.13 108.61 
L 193.38 108.78 
L 195.62 108.94 
L 197.87 109.10 
L 200.12 109.25 
L 202.37 109.40 
L 204.61 109.55 
L 206.86 109.69 
L 209.11 109.83 
L 211.36 109.96 
L 213.60 110.09 
L 215.85 110.22 
" style="fill: none; stroke: #2563eb; stroke-width: 1.5; stroke-linecap: square"/>
 </g>
 <g>
 <path d="M 38.31 119.81 
L 40.55 119.81 
L 42.80 119.81 
L 45.05 119.81 
L 47.30 119.81 
L 49.54 119.81 
L 51.79 119.81 
L 54.04 119.81 
L 56.28 119.81 
L 58.53 119.81 
L 60.78 119.81 
L 63.03 119.81 
L 65.27 119.81 
L 67.52 119.81 
L 69.77 119.81 
L 72.02 119.81 
L 74.26 119.81 
L 76.51 119.81 
L 78.76 119.81 
L 81.01 119.81 
L 83.25 119.81 
L 85.50 119.81 
L 87.75 119.81 
L 90.00 119.81 
L 92.24 119.81 
L 94.49 119.81 
L 96.74 119.81 
L 98.99 119.81 
L 101.23 119.81 
L 103.48 119.81 
L 105.73 119.81 
L 107.98 119.81 
L 110.22 119.81 
L 112.47 119.81 
L 114.72 119.81 
L 116.97 119.81 
L 119.21 119.81 
L 121.46 119.81 
L 123.71 119.81 
L 125.95 119.81 
L 128.20 119.81 
L 130.45 119.81 
L 132.70 119.81 
L 134.94 119.81 
L 137.19 119.81 
L 139.44 119.81 
L 141.69 119.81 
L 143.93 119.81 
L 146.18 119.81 
L 148.43 119.81 
L 150.68 119.81 
L 152.92 119.81 
L 155.17 119.81 
L 157.42 119.81 
L 159.67 119.81 
L 161.91 119.81 
L 164.16 119.81 
L 166.41 119.81 
L 168.66 119.81 
L 170.90 119.81 
L 173.15 119.81 
L 175.40 119.81 
L 177.65 119.81 
L 179.89 119.81 
L 182.14 119.81 
L 184.39 119.81 
L 186.63 119.81 
L 188.88 119.81 
L 191.13 119.81 
L 193.38 119.81 
L 195.62 119.81 
L 197.87 119.81 
L 200.12 119.81 
L 202.37 119.81 
L 204.61 119.81 
L 206.86 119.81 
L 209.11 119.81 
L 211.36 119.81 
L 213.60 119.81 
L 215.85 119.81 
" style="fill: none; stroke: #dc2626; stroke-width: 1.5; stroke-linecap: square"/>
 </g>
 <g>
 <path d="M 71.60 145.8 
L 71.60 7.2 
" style="fill: none; stroke-dasharray: 0.6,0.99; stroke-dashoffset: 0; stroke: #6b7280; stroke-width: 0.6"/>
 </g>
 <g>
 <path d="M 182.56 145.8 
L 182.56 7.2 
" style="fill: none; stroke-dasharray: 0.6,0.99; stroke-dashoffset: 0; stroke: #6b7280; stroke-width: 0.6"/>
 </g>
 <g>
 <path d="M 29.43 145.8 
L 29.43 7.2 
" style="fill: none; stroke: #9ca3af; stroke-width: 0.6; stroke-linejoin: miter; stroke-linecap: square"/>
 </g>
 <g>
 <path d="M 224.73 145.8 
L 224.73 7.2 
" style="fill: none; stroke: #9ca3af; stroke-width: 0.6; stroke-linejoin: miter; stroke-linecap: square"/>
 </g>
 <g>
 <path d="M 29.43 145.8 
L 224.73 145.8 
" style="fill: none; stroke: #9ca3af; stroke-width: 0.6; stroke-linejoin: miter; stroke-linecap: square"/>
 </g>
 <g>
 <path d="M 29.43 7.2 
L 224.73 7.2 
" style="fill: none; stroke: #9ca3af; stroke-width: 0.6; stroke-linejoin: miter; stroke-linecap: square"/>
 </g>
 </g>
 </g>
 <defs>
 </defs>
</svg>