<?xml version="1.0" encoding="utf-8" standalone="no"?>
<!DOCTYPE svg PUBLIC "-//W3C//DTD SVG 1.1//EN"
 "http://www.w3.org/Graphics/SVG/1.1/DTD/svg11.dtd">
<svg xmlns:xlink="http://www.w3.org/1999/xlink" width="238.61pt" height="177.55pt" viewBox="0 0 238.61 177.55" xmlns="http://www.w3.org/2000/svg" version="1.1">
 <g>
 <g>
 <path d="M 0 177.55 
L 238.61 177.55 
L 238.61 0 
L 0 0 
L 0 177.55 
z
" style="fill: none"/>
 </g>
 <g>
 <g>
 <path d="M 36.11 145.8 
L 231.41 145.8 
L 231.41 7.2 
L 36.11 7.2 
L 36.11 145.8 
z
" style="fill: none"/>
 </g>
 <g>
 <defs>
 <path d="M 78.27 -57.33 
L 78.27 -57.33 
L 80.54 -66.66 
L 82.80 -70.53 
L 85.07 -73.50 
L 87.33 -76.00 
L 89.60 -78.20 
L 91.86 -80.19 
L 94.13 -82.02 
L 96.39 -83.73 
L 98.66 -85.33 
L 100.92 -86.84 
L 103.18 -88.28 
L 105.45 -89.66 
L 107.71 -90.98 
L 109.98 -92.25 
L 112.24 -93.48 
L 114.51 -94.66 
L 116.77 -95.81 
L 119.04 -96.93 
L 121.30 -98.01 
L 123.57 -99.07 
L 125.83 -100.10 
L 128.10 -101.11 
L 130.36 -102.09 
L 132.62 -103.05 
L 134.89 -103.99 
L 137.15 -104.92 
L 139.42 -105.83 
L 141.68 -106.72 
L 143.95 -107.59 
L 146.21 -108.45 
L 148.48 -109.29 
L 150.74 -110.13 
L 153.01 -110.94 
L 155.27 -111.75 
L 157.54 -112.54 
L 159.80 -113.33 
L 162.06 -114.10 
L 164.33 -114.86 
L 166.59 -115.61 
L 168.86 -116.36 
L 171.12 -117.09 
L 173.39 -117.81 
L 175.65 -118.53 
L 177.92 -119.24 
L 180.18 -119.94 
L 182.45 -120.63 
L 184.71 -121.31 
L 186.98 -121.99 
L 189.24 -122.66 
L 189.24 -122.66 
L 189.24 -122.66 
L 186.98 -120.02 
L 184.71 -117.44 
L 182.45 -114.91 
L 180.18 -112.43 
L 177.92 -110.01 
L 175.65 -107.64 
L 173.39 -105.33 
L 171.12 -103.07 
L 168.86 -100.87 
L 166.59 -98.72 
L 164.33 -96.62 
L 162.06 -94.58 
L 159.80 -92.59 
L 157.54 -90.66 
L 155.27 -88.78 
L 153.01 -86.96 
L 150.74 -85.19 
L 148.48 -83.48 
L 146.21 -81.82 
L 143.95 -80.21 
L 141.68 -78.66 
L 139.42 -77.17 
L 137.15 -75.72 
L 134.89 -74.34 
L 132.62 -73.00 
L 130.36 -71.72 
L 128.10 -70.50 
L 125.83 -69.33 
L 123.57 -68.21 
L 121.30 -67.15 
L 119.04 -66.15 
L 116.77 -65.19 
L 114.51 -64.30 
L 112.24 -63.45 
L 109.98 -62.66 
L 107.71 -61.93 
L 105.45 -61.25 
L 103.18 -60.62 
L 100.92 -60.05 
L 98.66 -59.54 
L 96.39 -59.07 
L 94.13 -58.66 
L 91.86 -58.31 
L 89.60 -58.01 
L 87.33 -57.77 
L 85.07 -57.58 
L 82.80 -57.44 
L 80.54 -57.36 
L 78.27 -57.33 
z
" style="stroke: #2563eb; stroke-opacity: 0.15"/>
 </defs>
 <g>
 <use xlink:href="#mc587e47438" x="0" y="177.55" style="fill: #2563eb; fill-opacity: 0.15; stroke: #2563eb; stroke-opacity: 0.15"/>
 </g>
 </g>
 <g>
 <g>
 <g>
 <path d="M 78.27 145.8 
L 78.27 7.2 
" style="fill: none; stroke: #e5e7eb; stroke-opacity: 0.6; stroke-width: 0.5; stroke-linecap: square"/>
 </g>
 <g>
 <defs>
 <path d="M 0 0 
L 0 3.5 
" style="stroke: #9ca3af; stroke-width: 0.8"/>
 </defs>
 <g>
 <use xlink:href="#m4ef71ab270" x="78.27" y="145.8" style="fill: #9ca3af; stroke: #9ca3af; stroke-width: 0.8"/>
 </g>
 </g>
 <g>
 <text style="fill: #9ca3af; font: 7px 'DejaVu Sans', 'Bitstream Vera Sans', 'Computer Modern Sans Serif', 'Lucida Grande', 'Verdana', 'Geneva', 'Lucid', 'Arial', 'Helvetica', 'Avant Garde', sans-serif; text-anchor: middle" x="78.27" y="158.12" transform="rotate(-0 78.27 158.12)">0.0</text>
 </g>
 </g>
 <g>
 <g>
 <path d="M 133.76 145.8 
L 133.76 7.2 
" style="fill: none; stroke: #e5e7eb; stroke-opacity: 0.6; stroke-width: 0.5; stroke-linecap: square"/>
 </g>
 <g>
 <g>
 <use xlink:href="#m4ef71ab270" x="133.76" y="145.8" style="fill: #9ca3af; stroke: #9ca3af; stroke-width: 0.8"/>
 </g>
 </g>
 <g>
 <text style="fill: #9ca3af; font: 7px 'DejaVu Sans', 'Bitstream Vera Sans', 'Computer Modern Sans Serif', 'Lucida Grande', 'Verdana', 'Geneva', 'Lucid', 'Arial', 'Helvetica', 'Avant Garde', sans-serif; text-anchor: middle" x="133.76" y="158.12" transform="rotate(-0 133.76 158.12)">0.5</text>
 </g>
 </g>
 <g>
 <g>
 <path d="M 189.24 145.8 
L 189.24 7.2 
" style="fill: none; stroke: #e5e7eb; stroke-opacity: 0.6; stroke-width: 0.5; stroke-linecap: square"/>
 </g>
 <g>
 <g>
 <use xlink:href="#m4ef71ab270" x="189.24" y="145.8" style="fill: #9ca3af; stroke: #9ca3af; stroke-width: 0.8"/>
 </g>
 </g>
 <g>
 <text style="fill: #9ca3af; font: 7px 'DejaVu Sans', 'Bitstream Vera Sans', 'Computer Modern Sans Serif', 'Lucida Grande', 'Verdana', 'Geneva', 'Lucid', 'Arial', 'Helvetica', 'Avant Garde', sans-serif; text-anchor: middle" x="189.24" y="158.12" transform="rotate(-0 189.24 158.12)">1.0</text>
 </g>
 </g>
 <g>
 <text style="fill: #9ca3af; font: 7px 'DejaVu Sans', 'Bitstream Vera Sans', 'Computer Modern Sans Serif', 'Lucida Grande', 'Verdana', 'Geneva', 'Lucid', 'Arial', 'Helvetica', 'Avant Garde', sans-serif; text-anchor: middle" x="133.76" y="168.89" transform="rotate(-0 133.76 168.89)">x</text>
 </g>
 </g>
 <g>
 <g>
 <g>
 <path d="M 36.11 120.22 
L 231.41 120.22 
" style="fill: none; stroke: #e5e7eb; stroke-opacity: 0.6; stroke-width: 0.5; stroke-linecap: square"/>
 </g>
 <g>
 <defs>
 <path d="M 0 0 
L -3.5 0 
" style="stroke: #9ca3af; stroke-width: 0.8"/>
 </defs>
 <g>
 <use xlink:href="#mb2d2c2f8df" x="36.11" y="120.22" style="fill: #9ca3af; stroke: #9ca3af; stroke-width: 0.8"/>
 </g>
 </g>
 <g>
 <text style="fill: #9ca3af; font: 7px 'DejaVu Sans', 'Bitstream Vera Sans', 'Computer Modern Sans Serif', 'Lucida Grande', 'Verdana', 'Geneva', 'Lucid', 'Arial', 'Helvetica', 'Avant Garde', sans-serif; text-anchor: end" x="29.11" y="122.88" transform="rotate(-0 29.11 122.88)">0.0</text>
 </g>
 </g>
 <g>
 <g>
 <path d="M 36.11 87.55 
L 231.41 87.55 
" style="fill: none; stroke: #e5e7eb; stroke-opacity: 0.6; stroke-width: 0.5; stroke-linecap: square"/>
 </g>
 <g>
 <g>
 <use xlink:href="#mb2d2c2f8df" x="36.11" y="87.55" style="fill: #9ca3af; stroke: #9ca3af; stroke-width: 0.8"/>
 </g>
 </g>
 <g>
 <text style="fill: #9ca3af; font: 7px 'DejaVu Sans', 'Bitstream Vera Sans', 'Computer Modern Sans Serif', 'Lucida Grande', 'Verdana', 'Geneva', 'Lucid', 'Arial', 'Helvetica', 'Avant Garde', sans-serif; text-anchor: end" x="29.11" y="90.21" transform="rotate(-0 29.11 90.21)">0.5</text>
 </g>
 </g>
 <g>
 <g>
 <path d="M 36.11 54.89 
L 231.41 54.89 
" style="fill: none; stroke: #e5e7eb; stroke-opacity: 0.6; stroke-width: 0.5; stroke-linecap: square"/>
 </g>
 <g>
 <g>
 <use xlink:href="#mb2d2c2f8df" x="36.11" y="54.89" style="fill: #9ca3af; stroke: #9ca3af; stroke-width: 0.8"/>
 </g>
 </g>
 <g>
 <text style="fill: #9ca3af; font: 7px 'DejaVu Sans', 'Bitstream Vera Sans', 'Computer Modern Sans Serif', 'Lucida Grande', 'Verdana', 'Geneva', 'Lucid', 'Arial', 'Helvetica', 'Avant Garde', sans-serif; text-anchor: end" x="29.11" y="57.55" transform="rotate(-0 29.11 57.55)">1.0</text>
 </g>
 </g>
 <g>
 <g>
 <path d="M 36.11 22.22 
L 231.41 22.22 
" style="fill: none; stroke: #e5e7eb; stroke-opacity: 0.6; stroke-width: 0.5; stroke-linecap: square"/>
 </g>
 <g>
 <g>
 <use xlink:href="#mb2d2c2f8df" x="36.11" y="22.22" style="fill: #9ca3af; stroke: #9ca3af; stroke-width: 0.8"/>
 </g>
 </g>
 <g>
 <text style="fill: #9ca3af; font: 7px 'DejaVu Sans', 'Bitstream Vera Sans', 'Computer Modern Sans Serif', 'Lucida Grande', 'Verdana', 'Geneva', 'Lucid', 'Arial', 'Helvetica', 'Avant Garde', sans-serif; text-anchor: end" x="29.11" y="24.88" transform="rotate(-0 29.11 24.88)">1.5</text>
 </g>
 </g>
 <g>
 <text style="fill: #9ca3af; font: 7px 'DejaVu Sans', 'Bitstream Vera Sans', 'Computer Modern Sans Serif', 'Lucida Grande', 'Verdana', 'Geneva', 'Lucid', 'Arial', 'Helvetica', 'Avant Garde', sans-serif; text-anchor: middle" x="12.52" y="76.5" transform="rotate(-90 12.52 76.5)">y</text>
 </g>
 </g>
 <g>
 <path d="M 78.70 116.19 
L 80.94 110.09 
L 83.19 106.47 
L 85.44 103.62 
L 87.68 101.19 
L 89.93 99.04 
L 92.18 97.09 
L 94.43 95.29 
L 96.67 93.62 
L 98.92 92.04 
L 101.17 90.54 
L 103.42 89.12 
L 105.66 87.76 
L 107.91 86.46 
L 110.16 85.20 
L 112.41 83.99 
L 114.65 82.81 
L 116.90 81.67 
L 119.15 80.57 
L 121.40 79.49 
L 123.64 78.45 
L 125.89 77.42 
L 128.14 76.42 
L 130.39 75.45 
L 132.63 74.49 
L 134.88 73.56 
L 137.13 72.64 
L 139.38 71.74 
L 141.62 70.86 
L 143.87 69.99 
L 146.12 69.14 
L 148.37 68.30 
L 150.61 67.47 
L 152.86 66.66 
L 155.11 65.86 
L 157.35 65.07 
L 159.60 64.29 
L 161.85 63.52 
L 164.10 62.77 
L 166.34 62.02 
L 168.59 61.28 
L 170.84 60.55 
L 173.09 59.83 
L 175.33 59.12 
L 177.58 58.42 
L 179.83 57.72 
L 182.08 57.03 
L 184.32 56.35 
L 186.57 55.68 
L 188.82 55.01 
L 191.07 54.35 
L 193.31 53.70 
L 195.56 53.05 
L 197.81 52.41 
L 200.06 51.78 
L 202.30 51.15 
L 204.55 50.53 
L 206.80 49.91 
L 209.05 49.30 
L 211.29 48.69 
L 213.54 48.09 
L 215.79 47.49 
L 218.03 46.90 
L 220.28 46.31 
L 222.53 45.73 
" style="fill: none; stroke: #2563eb; stroke-width: 1.5; stroke-linecap: square"/>
 </g>
 <g>
 <path d="M 44.98 114.34 
L 47.23 115.11 
L 49.48 115.82 
L 51.73 116.48 
L 53.97 117.09 
L 56.22 117.64 
L 58.47 118.14 
L 60.72 118.58 
L 62.96 118.97 
L 65.21 119.31 
L 67.46 119.60 
L 69.71 119.83 
L 71.95 120.01 
L 74.20 120.13 
L 76.45 120.20 
L 78.70 120.22 
L 80.94 120.18 
L 83.19 120.09 
L 85.44 119.95 
L 87.68 119.75 
L 89.93 119.50 
L 92.18 119.19 
L 94.43 118.83 
L 96.67 118.42 
L 98.92 117.96 
L 101.17 117.44 
L 103.42 116.86 
L 105.66 116.24 
L 107.91 115.56 
L 110.16 114.82 
L 112.41 114.04 
L 114.65 113.20 
L 116.90 112.30 
L 119.15 111.35 
L 121.40 110.35 
L 123.64 109.30 
L 125.89 108.19 
L 128.14 107.03 
L 130.39 105.81 
L 132.63 104.54 
L 134.88 103.22 
L 137.13 101.84 
L 139.38 100.41 
L 141.62 98.93 
L 143.87 97.39 
L 146.12 95.80 
L 148.37 94.15 
L 150.61 92.46 
L 152.86 90.70 
L 155.11 88.90 
L 157.35 87.04 
L 159.60 85.13 
L 161.85 83.16 
L 164.10 81.14 
L 166.34 79.07 
L 168.59 76.94 
L 170.84 74.76 
L 173.09 72.52 
L 175.33 70.24 
L 177.58 67.90 
L 179.83 65.50 
L 182.08 63.05 
L 184.32 60.55 
L 186.57 57.99 
L 188.82 55.38 
L 191.07 52.72 
L 193.31 50.00 
L 195.56 47.23 
L 197.81 44.41 
L 200.06 41.53 
L 202.30 38.60 
L 204.55 35.62 
L 206.80 32.58 
L 209.05 29.49 
L 211.29 26.34 
L 213.54 23.14 
L 215.79 19.89 
L 218.03 16.59 
L 220.28 13.23 
L 222.53 9.81 
" style="fill: none; stroke: #dc2626; stroke-width: 1.5; stroke-linecap: square"/>
 </g>
 <g>
 <path d="M 78.27 145.8 
L 78.27 7.2 
" style="fill: none; stroke-dasharray: 0.6,0.99; stroke-dashoffset: 0; stroke: #6b7280; stroke-width: 0.6"/>
 </g>
 <g>
 <path d="M 189.24 145.8 
L 189.24 7.2 
" style="fill: none; stroke-dasharray: 0.6,0.99; stroke-dashoffset: 0; stroke: #6b7280; stroke-width: 0.6"/>
 </g>
 <g>
 <path d="M 36.11 145.8 
L 36.11 7.2 
" style="fill: none; stroke: #9ca3af; stroke-width: 0.6; stroke-linejoin: miter; stroke-linecap: square"/>
 </g>
 <g>
 <path d="M 231.41 145.8 
L 231.41 7.2 
" style="fill: none; stroke: #9ca3af; stroke-width: 0.6; stroke-linejoin: miter; stroke-linecap: square"/>
 </g>
 <g>
 <path d="M 36.11 145.8 
L 231.41 145.8 
" style="fill: none; stroke: #9ca3af; stroke-width: 0.6; stroke-linejoin: miter; stroke-linecap: square"/>
 </g>
 <g>
 <path d="M 36.11 7.2 
L 231.41 7.2 
" style="fill: none; stroke: #9ca3af; stroke-width: 0.6; stroke-linejoin: miter; stroke-linecap: square"/>
 </g>
 </g>
 </g>
 <defs>
 </defs>
</svg>