<?xml version="1.0" encoding="utf-8" standalone="no"?>
<!DOCTYPE svg PUBLIC "-//W3C//DTD SVG 1.1//EN"
 "http://www.w3.org/Graphics/SVG/1.1/DTD/svg11.dtd">
<svg xmlns:xlink="http://www.w3.org/1999/xlink" width="231.93pt" height="177.55pt" viewBox="0 0 231.93 177.55" xmlns="http://www.w3.org/2000/svg" version="1.1">
 <g>
 <g>
 <path d="M 0 177.55 
L 231.93 177.55 
L 231.93 0 
L 0 0 
L 0 177.55 
z
" style="fill: none"/>
 </g>
 <g>
 <g>
 <path d="M 29.43 145.8 
L 224.73 145.8 
L 224.73 7.2 
L 29.43 7.2 
L 29.43 145.8 
z
" style="fill: none"/>
 </g>
 <g>
 <path d="M 71.60 92.85 
L 71.60 237.18 
L 73.86 237.18 
L 76.12 237.18 
L 78.39 237.18 
L 80.65 237.18 
L 82.92 237.18 
L 85.18 237.18 
L 87.45 237.18 
L 89.71 237.18 
L 91.98 237.18 
L 94.24 237.18 
L 96.51 237.18 
L 98.77 237.18 
L 101.04 237.18 
L 103.30 237.18 
L 105.56 237.18 
L 107.83 237.18 
L 110.09 237.18 
L 112.36 237.18 
L 114.62 237.18 
L 116.89 237.18 
L 119.15 237.18 
L 121.42 237.18 
L 123.68 237.18 
L 125.95 237.18 
L 128.21 237.18 
L 130.48 237.18 
L 132.74 237.18 
L 135.00 237.18 
L 137.27 237.18 
L 139.53 237.18 
L 141.80 237.18 
L 144.06 237.18 
L 146.33 237.18 
L 148.59 237.18 
L 150.86 237.18 
L 153.12 237.18 
L 155.39 237.18 
L 157.65 237.18 
L 159.92 237.18 
L 162.18 237.18 
L 164.44 237.18 
L 166.71 237.18 
L 168.97 237.18 
L 171.24 237.18 
L 173.50 237.18 
L 175.77 237.18 
L 178.03 237.18 
L 180.30 237.18 
L 182.56 237.18 
L 182.56 33.07 
L 182.56 33.07 
L 180.30 33.09 
L 178.03 33.17 
L 175.77 33.30 
L 173.50 33.49 
L 171.24 33.72 
L 168.97 34.01 
L 166.71 34.35 
L 164.44 34.74 
L 162.18 35.19 
L 159.92 35.68 
L 157.65 36.23 
L 155.39 36.83 
L 153.12 37.48 
L 150.86 38.18 
L 148.59 38.94 
L 146.33 39.74 
L 144.06 40.60 
L 141.80 41.50 
L 139.53 42.46 
L 137.27 43.46 
L 135.00 44.52 
L 132.74 45.63 
L 130.48 46.78 
L 128.21 47.98 
L 125.95 49.23 
L 123.68 50.54 
L 121.42 51.88 
L 119.15 53.28 
L 116.89 54.72 
L 114.62 56.21 
L 112.36 57.75 
L 110.09 59.33 
L 107.83 60.96 
L 105.56 62.63 
L 103.30 64.35 
L 101.04 66.11 
L 98.77 67.92 
L 96.51 69.77 
L 94.24 71.66 
L 91.98 73.60 
L 89.71 75.58 
L 87.45 77.60 
L 85.18 79.66 
L 82.92 81.76 
L 80.65 83.90 
L 78.39 86.08 
L 76.12 88.30 
L 73.86 90.55 
L 71.60 92.85 
z
" style="fill: #2563eb; fill-opacity: 0.15; stroke: #2563eb; stroke-opacity: 0.15"/>
 </g>
 <g>
 <g>
 <g>
 <path d="M 31.27 145.8 
L 31.27 7.2 
" style="fill: none; stroke: #e5e7eb; stroke-opacity: 0.6; stroke-width: 0.5; stroke-linecap: square"/>
 </g>
 <g>
 <defs>
 <path d="M 0 0 
L 0 3.5 
" style="stroke: #9ca3af; stroke-width: 0.8"/>
 </defs>
 <g>
 <use xlink:href="#m29e2419ab9" x="31.27" y="145.8" style="fill: #9ca3af; stroke: #9ca3af; stroke-width: 0.8"/>
 </g>
 </g>
 <g>
 <text style="fill: #9ca3af; font: 7px 'DejaVu Sans', 'Bitstream Vera Sans', 'Computer Modern Sans Serif', 'Lucida Grande', 'Verdana', 'Geneva', 'Lucid', 'Arial', 'Helvetica', 'Avant Garde', sans-serif; text-anchor: middle" x="31.27" y="158.12" transform="rotate(-0 31.27 158.12)">0.5</text>
 </g>
 </g>
 <g>
 <g>
 <path d="M 101.92 145.8 
L 101.92 7.2 
" style="fill: none; stroke: #e5e7eb; stroke-opacity: 0.6; stroke-width: 0.5; stroke-linecap: square"/>
 </g>
 <g>
 <g>
 <use xlink:href="#m29e2419ab9" x="101.92" y="145.8" style="fill: #9ca3af; stroke: #9ca3af; stroke-width: 0.8"/>
 </g>
 </g>
 <g>
 <text style="fill: #9ca3af; font: 7px 'DejaVu Sans', 'Bitstream Vera Sans', 'Computer Modern Sans Serif', 'Lucida Grande', 'Verdana', 'Geneva', 'Lucid', 'Arial', 'Helvetica', 'Avant Garde', sans-serif; text-anchor: middle" x="101.92" y="158.12" transform="rotate(-0 101.92 158.12)">1.0</text>
 </g>
 </g>
 <g>
 <g>
 <path d="M 172.56 145.8 
L 172.56 7.2 
" style="fill: none; stroke: #e5e7eb; stroke-opacity: 0.6; stroke-width: 0.5; stroke-linecap: square"/>
 </g>
 <g>
 <g>
 <use xlink:href="#m29e2419ab9" x="172.56" y="145.8" style="fill: #9ca3af; stroke: #9ca3af; stroke-width: 0.8"/>
 </g>
 </g>
 <g>
 <text style="fill: #9ca3af; font: 7px 'DejaVu Sans', 'Bitstream Vera Sans', 'Computer Modern Sans Serif', 'Lucida Grande', 'Verdana', 'Geneva', 'Lucid', 'Arial', 'Helvetica', 'Avant Garde', sans-serif; text-anchor: middle" x="172.56" y="158.12" transform="rotate(-0 172.56 158.12)">1.5</text>
 </g>
 </g>
 <g>
 <text style="fill: #9ca3af; font: 7px 'DejaVu Sans', 'Bitstream Vera Sans', 'Computer Modern Sans Serif', 'Lucida Grande', 'Verdana', 'Geneva', 'Lucid', 'Arial', 'Helvetica', 'Avant Garde', sans-serif; text-anchor: middle" x="127.08" y="168.89" transform="rotate(-0 127.08 168.89)">x</text>
 </g>
 </g>
 <g>
 <g>
 <g>
 <path d="M 29.43 135.12 
L 224.73 135.12 
" style="fill: none; stroke: #e5e7eb; stroke-opacity: 0.6; stroke-width: 0.5; stroke-linecap: square"/>
 </g>
 <g>
 <defs>
 <path d="M 0 0 
L -3.5 0 
" style="stroke: #9ca3af; stroke-width: 0.8"/>
 </defs>
 <g>
 <use xlink:href="#m8c9545f6a9" x="29.43" y="135.12" style="fill: #9ca3af; stroke: #9ca3af; stroke-width: 0.8"/>
 </g>
 </g>
 <g>
 <text style="fill: #9ca3af; font: 7px 'DejaVu Sans', 'Bitstream Vera Sans', 'Computer Modern Sans Serif', 'Lucida Grande', 'Verdana', 'Geneva', 'Lucid', 'Arial', 'Helvetica', 'Avant Garde', sans-serif; text-anchor: end" x="22.43" y="137.78" transform="rotate(-0 22.43 137.78)">2</text>
 </g>
 </g>
 <g>
 <g>
 <path d="M 29.43 84.09 
L 224.73 84.09 
" style="fill: none; stroke: #e5e7eb; stroke-opacity: 0.6; stroke-width: 0.5; stroke-linecap: square"/>
 </g>
 <g>
 <g>
 <use xlink:href="#m8c9545f6a9" x="29.43" y="84.09" style="fill: #9ca3af; stroke: #9ca3af; stroke-width: 0.8"/>
 </g>
 </g>
 <g>
 <text style="fill: #9ca3af; font: 7px 'DejaVu Sans', 'Bitstream Vera Sans', 'Computer Modern Sans Serif', 'Lucida Grande', 'Verdana', 'Geneva', 'Lucid', 'Arial', 'Helvetica', 'Avant Garde', sans-serif; text-anchor: end" x="22.43" y="86.75" transform="rotate(-0 22.43 86.75)">3</text>
 </g>
 </g>
 <g>
 <g>
 <path d="M 29.43 33.07 
L 224.73 33.07 
" style="fill: none; stroke: #e5e7eb; stroke-opacity: 0.6; stroke-width: 0.5; stroke-linecap: square"/>
 </g>
 <g>
 <g>
 <use xlink:href="#m8c9545f6a9" x="29.43" y="33.07" style="fill: #9ca3af; stroke: #9ca3af; stroke-width: 0.8"/>
 </g>
 </g>
 <g>
 <text style="fill: #9ca3af; font: 7px 'DejaVu Sans', 'Bitstream Vera Sans', 'Computer Modern Sans Serif', 'Lucida Grande', 'Verdana', 'Geneva', 'Lucid', 'Arial', 'Helvetica', 'Avant Garde', sans-serif; text-anchor: end" x="22.43" y="35.73" transform="rotate(-0 22.43 35.73)">4</text>
 </g>
 </g>
 <g>
 <text style="fill: #9ca3af; font: 7px 'DejaVu Sans', 'Bitstream Vera Sans', 'Computer Modern Sans Serif', 'Lucida Grande', 'Verdana', 'Geneva', 'Lucid', 'Arial', 'Helvetica', 'Avant Garde', sans-serif; text-anchor: middle" x="12.52" y="76.5" transform="rotate(-90 12.52 76.5)">y</text>
 </g>
 </g>
 <g>
 <path d="M 38.31 130.53 
L 40.55 127.77 
L 42.80 125.05 
L 45.05 122.35 
L 47.30 119.68 
L 49.54 117.04 
L 51.79 114.43 
L 54.04 111.85 
L 56.28 109.30 
L 58.53 106.79 
L 60.78 104.31 
L 63.03 101.86 
L 65.27 99.45 
L 67.52 97.07 
L 69.77 94.73 
L 72.02 92.42 
L 74.26 90.15 
L 76.51 87.91 
L 78.76 85.72 
L 81.01 83.56 
L 83.25 81.44 
L 85.50 79.36 
L 87.75 77.33 
L 90.00 75.33 
L 92.24 73.37 
L 94.49 71.45 
L 96.74 69.58 
L 98.99 67.75 
L 101.23 65.96 
L 103.48 64.21 
L 105.73 62.51 
L 107.98 60.85 
L 110.22 59.24 
L 112.47 57.67 
L 114.72 56.15 
L 116.97 54.67 
L 119.21 53.24 
L 121.46 51.86 
L 123.71 50.52 
L 125.95 49.23 
L 128.20 47.99 
L 130.45 46.79 
L 132.70 45.65 
L 134.94 44.55 
L 137.19 43.50 
L 139.44 42.50 
L 141.69 41.55 
L 143.93 40.65 
L 146.18 39.80 
L 148.43 38.99 
L 150.68 38.24 
L 152.92 37.54 
L 155.17 36.89 
L 157.42 36.29 
L 159.67 35.74 
L 161.91 35.24 
L 164.16 34.79 
L 166.41 34.40 
L 168.66 34.05 
L 170.90 33.76 
L 173.15 33.52 
L 175.40 33.33 
L 177.65 33.19 
L 179.89 33.10 
L 182.14 33.07 
L 184.39 33.08 
L 186.63 33.15 
L 188.88 33.27 
L 191.13 33.44 
L 193.38 33.66 
L 195.62 33.94 
L 197.87 34.26 
L 200.12 34.64 
L 202.37 35.07 
L 204.61 35.55 
L 206.86 36.08 
L 209.11 36.66 
L 211.36 37.29 
L 213.60 37.97 
L 215.85 38.71 
" style="fill: none; stroke: #2563eb; stroke-width: 1.5; stroke-linecap: square"/>
 </g>
 <g>
 <path style="fill: none; stroke: #9ca3af; stroke-width: 0.6; stroke-linecap: square"/>
 </g>
 <g>
 <path d="M 71.60 145.8 
L 71.60 7.2 
" style="fill: none; stroke-dasharray: 0.6,0.99; stroke-dashoffset: 0; stroke: #6b7280; stroke-width: 0.6"/>
 </g>
 <g>
 <path d="M 182.56 145.8 
L 182.56 7.2 
" style="fill: none; stroke-dasharray: 0.6,0.99; stroke-dashoffset: 0; stroke: #6b7280; stroke-width: 0.6"/>
 </g>
 <g>
 <path d="M 29.43 145.8 
L 29.43 7.2 
" style="fill: none; stroke: #9ca3af; stroke-width: 0.6; stroke-linejoin: miter; stroke-linecap: square"/>
 </g>
 <g>
 <path d="M 224.73 145.8 
L 224.73 7.2 
" style="fill: none; stroke: #9ca3af; stroke-width: 0.6; stroke-linejoin: miter; stroke-linecap: square"/>
 </g>
 <g>
 <path d="M 29.43 145.8 
L 224.73 145.8 
" style="fill: none; stroke: #9ca3af; stroke-width: 0.6; stroke-linejoin: miter; stroke-linecap: square"/>
 </g>
 <g>
 <path d="M 29.43 7.2 
L 224.73 7.2 
" style="fill: none; stroke: #9ca3af; stroke-width: 0.6; stroke-linejoin: miter; stroke-linecap: square"/>
 </g>
 </g>
 </g>
 <defs>
 </defs>
</svg>