<?xml version="1.0" encoding="utf-8" standalone="no"?>
<!DOCTYPE svg PUBLIC "-//W3C//DTD SVG 1.1//EN"
 "http://www.w3.org/Graphics/SVG/1.1/DTD/svg11.dtd">
<svg xmlns:xlink="http://www.w3.org/1999/xlink" width="237.79pt" height="177.55pt" viewBox="0 0 237.79 177.55" xmlns="http://www.w3.org/2000/svg" version="1.1">
 <g>
 <g>
 <path d="M 0 177.55 
L 237.79 177.55 
L 237.79 0 
L 0 0 
L 0 177.55 
z
" style="fill: none"/>
 </g>
 <g>
 <g>
 <path d="M 35.29 145.8 
L 230.59 145.8 
L 230.59 7.2 
L 35.29 7.2 
L 35.29 145.8 
z
" style="fill: none"/>
 </g>
 <g>
 <defs>
 <path d="M 77.46 -67.45 
L 77.46 -129.32 
L 79.73 -129.32 
L 81.99 -129.32 
L 84.26 -129.32 
L 86.52 -129.32 
L 88.78 -129.32 
L 91.05 -129.32 
L 93.31 -129.32 
L 95.58 -129.32 
L 97.84 -129.32 
L 100.11 -129.32 
L 102.37 -129.32 
L 104.64 -129.32 
L 106.90 -129.32 
L 109.17 -129.32 
L 111.43 -129.32 
L 113.70 -129.32 
L 115.96 -129.32 
L 118.22 -129.32 
L 120.49 -129.32 
L 122.75 -129.32 
L 125.02 -129.32 
L 127.28 -129.32 
L 129.55 -129.32 
L 131.81 -129.32 
L 134.08 -129.32 
L 136.34 -129.32 
L 138.61 -129.32 
L 140.87 -129.32 
L 143.13 -129.32 
L 145.40 -129.32 
L 147.66 -129.32 
L 149.93 -129.32 
L 152.19 -129.32 
L 154.46 -129.32 
L 156.72 -129.32 
L 158.99 -129.32 
L 161.25 -129.32 
L 163.52 -129.32 
L 165.78 -129.32 
L 168.05 -129.32 
L 170.31 -129.32 
L 172.57 -129.32 
L 174.84 -129.32 
L 177.10 -129.32 
L 179.37 -129.32 
L 181.63 -129.32 
L 183.90 -129.32 
L 186.16 -129.32 
L 188.43 -129.32 
L 188.43 -129.32 
L 188.43 -129.32 
L 186.16 -127.92 
L 183.90 -126.51 
L 181.63 -125.11 
L 179.37 -123.71 
L 177.10 -122.31 
L 174.84 -120.92 
L 172.57 -119.52 
L 170.31 -118.13 
L 168.05 -116.74 
L 165.78 -115.36 
L 163.52 -113.97 
L 161.25 -112.59 
L 158.99 -111.22 
L 156.72 -109.85 
L 154.46 -108.49 
L 152.19 -107.13 
L 149.93 -105.77 
L 147.66 -104.42 
L 145.40 -103.08 
L 143.13 -101.75 
L 140.87 -100.42 
L 138.61 -99.10 
L 136.34 -97.79 
L 134.08 -96.49 
L 131.81 -95.19 
L 129.55 -93.90 
L 127.28 -92.63 
L 125.02 -91.36 
L 122.75 -90.10 
L 120.49 -88.85 
L 118.22 -87.61 
L 115.96 -86.38 
L 113.70 -85.17 
L 111.43 -83.96 
L 109.17 -82.77 
L 106.90 -81.59 
L 104.64 -80.42 
L 102.37 -79.26 
L 100.11 -78.12 
L 97.84 -76.99 
L 95.58 -75.87 
L 93.31 -74.77 
L 91.05 -73.68 
L 88.78 -72.60 
L 86.52 -71.54 
L 84.26 -70.50 
L 81.99 -69.47 
L 79.73 -68.45 
L 77.46 -67.45 
z
" style="stroke: #2563eb; stroke-opacity: 0.15"/>
 </defs>
 <g>
 <use xlink:href="#m265829ccf0" x="0" y="177.55" style="fill: #2563eb; fill-opacity: 0.15; stroke: #2563eb; stroke-opacity: 0.15"/>
 </g>
 </g>
 <g>
 <g>
 <g>
 <path d="M 37.14 145.8 
L 37.14 7.2 
" style="fill: none; stroke: #e5e7eb; stroke-opacity: 0.6; stroke-width: 0.5; stroke-linecap: square"/>
 </g>
 <g>
 <defs>
 <path d="M 0 0 
L 0 3.5 
" style="stroke: #9ca3af; stroke-width: 0.8"/>
 </defs>
 <g>
 <use xlink:href="#m2816209f63" x="37.14" y="145.8" style="fill: #9ca3af; stroke: #9ca3af; stroke-width: 0.8"/>
 </g>
 </g>
 <g>
 <text style="fill: #9ca3af; font: 7px 'DejaVu Sans', 'Bitstream Vera Sans', 'Computer Modern Sans Serif', 'Lucida Grande', 'Verdana', 'Geneva', 'Lucid', 'Arial', 'Helvetica', 'Avant Garde', sans-serif; text-anchor: middle" x="37.14" y="158.12" transform="rotate(-0 37.14 158.12)">0.5</text>
 </g>
 </g>
 <g>
 <g>
 <path d="M 107.78 145.8 
L 107.78 7.2 
" style="fill: none; stroke: #e5e7eb; stroke-opacity: 0.6; stroke-width: 0.5; stroke-linecap: square"/>
 </g>
 <g>
 <g>
 <use xlink:href="#m2816209f63" x="107.78" y="145.8" style="fill: #9ca3af; stroke: #9ca3af; stroke-width: 0.8"/>
 </g>
 </g>
 <g>
 <text style="fill: #9ca3af; font: 7px 'DejaVu Sans', 'Bitstream Vera Sans', 'Computer Modern Sans Serif', 'Lucida Grande', 'Verdana', 'Geneva', 'Lucid', 'Arial', 'Helvetica', 'Avant Garde', sans-serif; text-anchor: middle" x="107.78" y="158.12" transform="rotate(-0 107.78 158.12)">1.0</text>
 </g>
 </g>
 <g>
 <g>
 <path d="M 178.42 145.8 
L 178.42 7.2 
" style="fill: none; stroke: #e5e7eb; stroke-opacity: 0.6; stroke-width: 0.5; stroke-linecap: square"/>
 </g>
 <g>
 <g>
 <use xlink:href="#m2816209f63" x="178.42" y="145.8" style="fill: #9ca3af; stroke: #9ca3af; stroke-width: 0.8"/>
 </g>
 </g>
 <g>
 <text style="fill: #9ca3af; font: 7px 'DejaVu Sans', 'Bitstream Vera Sans', 'Computer Modern Sans Serif', 'Lucida Grande', 'Verdana', 'Geneva', 'Lucid', 'Arial', 'Helvetica', 'Avant Garde', sans-serif; text-anchor: middle" x="178.42" y="158.12" transform="rotate(-0 178.42 158.12)">1.5</text>
 </g>
 </g>
 <g>
 <text style="fill: #9ca3af; font: 7px 'DejaVu Sans', 'Bitstream Vera Sans', 'Computer Modern Sans Serif', 'Lucida Grande', 'Verdana', 'Geneva', 'Lucid', 'Arial', 'Helvetica', 'Avant Garde', sans-serif; text-anchor: middle" x="132.94" y="168.89" transform="rotate(-0 132.94 168.89)">x</text>
 </g>
 </g>
 <g>
 <g>
 <g>
 <path d="M 35.29 135.72 
L 230.59 135.72 
" style="fill: none; stroke: #e5e7eb; stroke-opacity: 0.6; stroke-width: 0.5; stroke-linecap: square"/>
 </g>
 <g>
 <defs>
 <path d="M 0 0 
L -3.5 0 
" style="stroke: #9ca3af; stroke-width: 0.8"/>
 </defs>
 <g>
 <use xlink:href="#m0ca9b415cd" x="35.29" y="135.72" style="fill: #9ca3af; stroke: #9ca3af; stroke-width: 0.8"/>
 </g>
 </g>
 <g>
 <text style="fill: #9ca3af; font: 7px 'DejaVu Sans', 'Bitstream Vera Sans', 'Computer Modern Sans Serif', 'Lucida Grande', 'Verdana', 'Geneva', 'Lucid', 'Arial', 'Helvetica', 'Avant Garde', sans-serif; text-anchor: end" x="28.29" y="138.38" transform="rotate(-0 28.29 138.38)">−4</text>
 </g>
 </g>
 <g>
 <g>
 <path d="M 35.29 91.98 
L 230.59 91.98 
" style="fill: none; stroke: #e5e7eb; stroke-opacity: 0.6; stroke-width: 0.5; stroke-linecap: square"/>
 </g>
 <g>
 <g>
 <use xlink:href="#m0ca9b415cd" x="35.29" y="91.98" style="fill: #9ca3af; stroke: #9ca3af; stroke-width: 0.8"/>
 </g>
 </g>
 <g>
 <text style="fill: #9ca3af; font: 7px 'DejaVu Sans', 'Bitstream Vera Sans', 'Computer Modern Sans Serif', 'Lucida Grande', 'Verdana', 'Geneva', 'Lucid', 'Arial', 'Helvetica', 'Avant Garde', sans-serif; text-anchor: end" x="28.29" y="94.64" transform="rotate(-0 28.29 94.64)">−2</text>
 </g>
 </g>
 <g>
 <g>
 <path d="M 35.29 48.23 
L 230.59 48.23 
" style="fill: none; stroke: #e5e7eb; stroke-opacity: 0.6; stroke-width: 0.5; stroke-linecap: square"/>
 </g>
 <g>
 <g>
 <use xlink:href="#m0ca9b415cd" x="35.29" y="48.23" style="fill: #9ca3af; stroke: #9ca3af; stroke-width: 0.8"/>
 </g>
 </g>
 <g>
 <text style="fill: #9ca3af; font: 7px 'DejaVu Sans', 'Bitstream Vera Sans', 'Computer Modern Sans Serif', 'Lucida Grande', 'Verdana', 'Geneva', 'Lucid', 'Arial', 'Helvetica', 'Avant Garde', sans-serif; text-anchor: end" x="28.29" y="50.89" transform="rotate(-0 28.29 50.89)">0</text>
 </g>
 </g>
 <g>
 <text style="fill: #9ca3af; font: 7px 'DejaVu Sans', 'Bitstream Vera Sans', 'Computer Modern Sans Serif', 'Lucida Grande', 'Verdana', 'Geneva', 'Lucid', 'Arial', 'Helvetica', 'Avant Garde', sans-serif; text-anchor: middle" x="12.52" y="76.5" transform="rotate(-90 12.52 76.5)">y</text>
 </g>
 </g>
 <g>
 <path d="M 44.17 122.83 
L 46.42 122.09 
L 48.67 121.34 
L 50.91 120.56 
L 53.16 119.77 
L 55.41 118.96 
L 57.66 118.13 
L 59.90 117.29 
L 62.15 116.43 
L 64.40 115.55 
L 66.65 114.65 
L 68.89 113.73 
L 71.14 112.80 
L 73.39 111.86 
L 75.64 110.89 
L 77.88 109.91 
L 80.13 108.92 
L 82.38 107.91 
L 84.62 106.88 
L 86.87 105.84 
L 89.12 104.79 
L 91.37 103.72 
L 93.61 102.64 
L 95.86 101.54 
L 98.11 100.43 
L 100.36 99.31 
L 102.60 98.17 
L 104.85 97.02 
L 107.10 95.86 
L 109.35 94.68 
L 111.59 93.50 
L 113.84 92.30 
L 116.09 91.10 
L 118.34 89.88 
L 120.58 88.65 
L 122.83 87.41 
L 125.08 86.16 
L 127.33 84.90 
L 129.57 83.63 
L 131.82 82.35 
L 134.07 81.07 
L 136.32 79.77 
L 138.56 78.47 
L 140.81 77.16 
L 143.06 75.85 
L 145.30 74.52 
L 147.55 73.19 
L 149.80 71.85 
L 152.05 70.51 
L 154.29 69.16 
L 156.54 67.81 
L 158.79 66.45 
L 161.04 65.09 
L 163.28 63.72 
L 165.53 62.35 
L 167.78 60.97 
L 170.03 59.59 
L 172.27 58.21 
L 174.52 56.83 
L 176.77 55.44 
L 179.02 54.05 
L 181.26 52.66 
L 183.51 51.27 
L 185.76 49.88 
L 188.01 48.49 
L 190.25 47.10 
L 192.50 45.71 
L 194.75 44.32 
L 197.00 42.93 
L 199.24 41.54 
L 201.49 40.15 
L 203.74 38.77 
L 205.99 37.39 
L 208.23 36.01 
L 210.48 34.63 
L 212.73 33.26 
L 214.97 31.89 
L 217.22 30.52 
L 219.47 29.16 
L 221.72 27.81 
" style="fill: none; stroke: #2563eb; stroke-width: 1.5; stroke-linecap: square"/>
 </g>
 <g>
 <path d="M 35.29 48.23 
L 230.59 48.23 
" style="fill: none; stroke: #9ca3af; stroke-width: 0.6; stroke-linecap: square"/>
 </g>
 <g>
 <path d="M 77.46 145.8 
L 77.46 7.2 
" style="fill: none; stroke-dasharray: 0.6,0.99; stroke-dashoffset: 0; stroke: #6b7280; stroke-width: 0.6"/>
 </g>
 <g>
 <path d="M 188.43 145.8 
L 188.43 7.2 
" style="fill: none; stroke-dasharray: 0.6,0.99; stroke-dashoffset: 0; stroke: #6b7280; stroke-width: 0.6"/>
 </g>
 <g>
 <path d="M 35.29 145.8 
L 35.29 7.2 
" style="fill: none; stroke: #9ca3af; stroke-width: 0.6; stroke-linejoin: miter; stroke-linecap: square"/>
 </g>
 <g>
 <path d="M 230.59 145.8 
L 230.59 7.2 
" style="fill: none; stroke: #9ca3af; stroke-width: 0.6; stroke-linejoin: miter; stroke-linecap: square"/>
 </g>
 <g>
 <path d="M 35.29 145.8 
L 230.59 145.8 
" style="fill: none; stroke: #9ca3af; stroke-width: 0.6; stroke-linejoin: miter; stroke-linecap: square"/>
 </g>
 <g>
 <path d="M 35.29 7.2 
L 230.59 7.2 
" style="fill: none; stroke: #9ca3af; stroke-width: 0.6; stroke-linejoin: miter; stroke-linecap: square"/>
 </g>
 </g>
 </g>
 <defs>
 </defs>
</svg>