<?xml version="1.0" encoding="utf-8" standalone="no"?>
<!DOCTYPE svg PUBLIC "-//W3C//DTD SVG 1.1//EN"
 "http://www.w3.org/Graphics/SVG/1.1/DTD/svg11.dtd">
<svg xmlns:xlink="http://www.w3.org/1999/xlink" width="242.25pt" height="177.55pt" viewBox="0 0 242.25 177.55" xmlns="http://www.w3.org/2000/svg" version="1.1">
 <g>
 <g>
 <path d="M 0 177.55 
L 242.25 177.55 
L 242.25 0 
L 0 0 
L 0 177.55 
z
" style="fill: none"/>
 </g>
 <g>
 <g>
 <path d="M 39.75 145.8 
L 235.05 145.8 
L 235.05 7.2 
L 39.75 7.2 
L 39.75 145.8 
z
" style="fill: none"/>
 </g>
 <g>
 <defs>
 <path d="M 81.92 8.44 
L 81.92 -101.05 
L 84.18 -101.05 
L 86.44 -101.05 
L 88.71 -101.05 
L 90.97 -101.05 
L 93.24 -101.05 
L 95.50 -101.05 
L 97.77 -101.05 
L 100.03 -101.05 
L 102.30 -101.05 
L 104.56 -101.05 
L 106.83 -101.05 
L 109.09 -101.05 
L 111.35 -101.05 
L 113.62 -101.05 
L 115.88 -101.05 
L 118.15 -101.05 
L 120.41 -101.05 
L 122.68 -101.05 
L 124.94 -101.05 
L 127.21 -101.05 
L 129.47 -101.05 
L 131.74 -101.05 
L 134.00 -101.05 
L 136.27 -101.05 
L 138.53 -101.05 
L 140.79 -101.05 
L 143.06 -101.05 
L 145.32 -101.05 
L 147.59 -101.05 
L 149.85 -101.05 
L 152.12 -101.05 
L 154.38 -101.05 
L 156.65 -101.05 
L 158.91 -101.05 
L 161.18 -101.05 
L 163.44 -101.05 
L 165.71 -101.05 
L 167.97 -101.05 
L 170.23 -101.05 
L 172.50 -101.05 
L 174.76 -101.05 
L 177.03 -101.05 
L 179.29 -101.05 
L 181.56 -101.05 
L 183.82 -101.05 
L 186.09 -101.05 
L 188.35 -101.05 
L 190.62 -101.05 
L 192.88 -101.05 
L 192.88 -81.65 
L 192.88 -81.65 
L 190.62 -85.84 
L 188.35 -89.40 
L 186.09 -92.41 
L 183.82 -94.92 
L 181.56 -96.99 
L 179.29 -98.68 
L 177.03 -100.03 
L 174.76 -101.10 
L 172.50 -101.92 
L 170.23 -102.55 
L 167.97 -103.00 
L 165.71 -103.32 
L 163.44 -103.54 
L 161.18 -103.67 
L 158.91 -103.75 
L 156.65 -103.80 
L 154.38 -103.81 
L 152.12 -103.82 
L 149.85 -103.82 
L 147.59 -103.82 
L 145.32 -103.82 
L 143.06 -103.82 
L 140.79 -103.80 
L 138.53 -103.77 
L 136.27 -103.69 
L 134.00 -103.57 
L 131.74 -103.37 
L 129.47 -103.07 
L 127.21 -102.65 
L 124.94 -102.06 
L 122.68 -101.28 
L 120.41 -100.27 
L 118.15 -98.98 
L 115.88 -97.36 
L 113.62 -95.37 
L 111.35 -92.95 
L 109.09 -90.05 
L 106.83 -86.60 
L 104.56 -82.54 
L 102.30 -77.80 
L 100.03 -72.31 
L 97.77 -65.99 
L 95.50 -58.77 
L 93.24 -50.56 
L 90.97 -41.28 
L 88.71 -30.83 
L 86.44 -19.13 
L 84.18 -6.07 
L 81.92 8.44 
z
" style="stroke: #2563eb; stroke-opacity: 0.15"/>
 </defs>
 <g>
 <use xlink:href="#m5038f127f4" x="0" y="177.55" style="fill: #2563eb; fill-opacity: 0.15; stroke: #2563eb; stroke-opacity: 0.15"/>
 </g>
 </g>
 <g>
 <g>
 <g>
 <path d="M 59.72 145.8 
L 59.72 7.2 
" style="fill: none; stroke: #e5e7eb; stroke-opacity: 0.6; stroke-width: 0.5; stroke-linecap: square"/>
 </g>
 <g>
 <defs>
 <path d="M 0 0 
L 0 3.5 
" style="stroke: #9ca3af; stroke-width: 0.8"/>
 </defs>
 <g>
 <use xlink:href="#mc0bcad347a" x="59.72" y="145.8" style="fill: #9ca3af; stroke: #9ca3af; stroke-width: 0.8"/>
 </g>
 </g>
 <g>
 <text style="fill: #9ca3af; font: 7px 'DejaVu Sans', 'Bitstream Vera Sans', 'Computer Modern Sans Serif', 'Lucida Grande', 'Verdana', 'Geneva', 'Lucid', 'Arial', 'Helvetica', 'Avant Garde', sans-serif; text-anchor: middle" x="59.72" y="158.12" transform="rotate(-0 59.72 158.12)">−4</text>
 </g>
 </g>
 <g>
 <g>
 <path d="M 104.11 145.8 
L 104.11 7.2 
" style="fill: none; stroke: #e5e7eb; stroke-opacity: 0.6; stroke-width: 0.5; stroke-linecap: square"/>
 </g>
 <g>
 <g>
 <use xlink:href="#mc0bcad347a" x="104.11" y="145.8" style="fill: #9ca3af; stroke: #9ca3af; stroke-width: 0.8"/>
 </g>
 </g>
 <g>
 <text style="fill: #9ca3af; font: 7px 'DejaVu Sans', 'Bitstream Vera Sans', 'Computer Modern Sans Serif', 'Lucida Grande', 'Verdana', 'Geneva', 'Lucid', 'Arial', 'Helvetica', 'Avant Garde', sans-serif; text-anchor: middle" x="104.11" y="158.12" transform="rotate(-0 104.11 158.12)">−2</text>
 </g>
 </g>
 <g>
 <g>
 <path d="M 148.49 145.8 
L 148.49 7.2 
" style="fill: none; stroke: #e5e7eb; stroke-opacity: 0.6; stroke-width: 0.5; stroke-linecap: square"/>
 </g>
 <g>
 <g>
 <use xlink:href="#mc0bcad347a" x="148.49" y="145.8" style="fill: #9ca3af; stroke: #9ca3af; stroke-width: 0.8"/>
 </g>
 </g>
 <g>
 <text style="fill: #9ca3af; font: 7px 'DejaVu Sans', 'Bitstream Vera Sans', 'Computer Modern Sans Serif', 'Lucida Grande', 'Verdana', 'Geneva', 'Lucid', 'Arial', 'Helvetica', 'Avant Garde', sans-serif; text-anchor: middle" x="148.49" y="158.12" transform="rotate(-0 148.49 158.12)">0</text>
 </g>
 </g>
 <g>
 <g>
 <path d="M 192.88 145.8 
L 192.88 7.2 
" style="fill: none; stroke: #e5e7eb; stroke-opacity: 0.6; stroke-width: 0.5; stroke-linecap: square"/>
 </g>
 <g>
 <g>
 <use xlink:href="#mc0bcad347a" x="192.88" y="145.8" style="fill: #9ca3af; stroke: #9ca3af; stroke-width: 0.8"/>
 </g>
 </g>
 <g>
 <text style="fill: #9ca3af; font: 7px 'DejaVu Sans', 'Bitstream Vera Sans', 'Computer Modern Sans Serif', 'Lucida Grande', 'Verdana', 'Geneva', 'Lucid', 'Arial', 'Helvetica', 'Avant Garde', sans-serif; text-anchor: middle" x="192.88" y="158.12" transform="rotate(-0 192.88 158.12)">2</text>
 </g>
 </g>
 <g>
 <text style="fill: #9ca3af; font: 7px 'DejaVu Sans', 'Bitstream Vera Sans', 'Computer Modern Sans Serif', 'Lucida Grande', 'Verdana', 'Geneva', 'Lucid', 'Arial', 'Helvetica', 'Avant Garde', sans-serif; text-anchor: middle" x="137.40" y="168.89" transform="rotate(-0 137.40 168.89)">x</text>
 </g>
 </g>
 <g>
 <g>
 <g>
 <path d="M 39.75 131.94 
L 235.05 131.94 
" style="fill: none; stroke: #e5e7eb; stroke-opacity: 0.6; stroke-width: 0.5; stroke-linecap: square"/>
 </g>
 <g>
 <defs>
 <path d="M 0 0 
L -3.5 0 
" style="stroke: #9ca3af; stroke-width: 0.8"/>
 </defs>
 <g>
 <use xlink:href="#m263469704c" x="39.75" y="131.94" style="fill: #9ca3af; stroke: #9ca3af; stroke-width: 0.8"/>
 </g>
 </g>
 <g>
 <text style="fill: #9ca3af; font: 7px 'DejaVu Sans', 'Bitstream Vera Sans', 'Computer Modern Sans Serif', 'Lucida Grande', 'Verdana', 'Geneva', 'Lucid', 'Arial', 'Helvetica', 'Avant Garde', sans-serif; text-anchor: end" x="32.75" y="134.60" transform="rotate(-0 32.75 134.60)">−40</text>
 </g>
 </g>
 <g>
 <g>
 <path d="M 39.75 104.22 
L 235.05 104.22 
" style="fill: none; stroke: #e5e7eb; stroke-opacity: 0.6; stroke-width: 0.5; stroke-linecap: square"/>
 </g>
 <g>
 <g>
 <use xlink:href="#m263469704c" x="39.75" y="104.22" style="fill: #9ca3af; stroke: #9ca3af; stroke-width: 0.8"/>
 </g>
 </g>
 <g>
 <text style="fill: #9ca3af; font: 7px 'DejaVu Sans', 'Bitstream Vera Sans', 'Computer Modern Sans Serif', 'Lucida Grande', 'Verdana', 'Geneva', 'Lucid', 'Arial', 'Helvetica', 'Avant Garde', sans-serif; text-anchor: end" x="32.75" y="106.88" transform="rotate(-0 32.75 106.88)">−20</text>
 </g>
 </g>
 <g>
 <g>
 <path d="M 39.75 76.5 
L 235.05 76.5 
" style="fill: none; stroke: #e5e7eb; stroke-opacity: 0.6; stroke-width: 0.5; stroke-linecap: square"/>
 </g>
 <g>
 <g>
 <use xlink:href="#m263469704c" x="39.75" y="76.5" style="fill: #9ca3af; stroke: #9ca3af; stroke-width: 0.8"/>
 </g>
 </g>
 <g>
 <text style="fill: #9ca3af; font: 7px 'DejaVu Sans', 'Bitstream Vera Sans', 'Computer Modern Sans Serif', 'Lucida Grande', 'Verdana', 'Geneva', 'Lucid', 'Arial', 'Helvetica', 'Avant Garde', sans-serif; text-anchor: end" x="32.75" y="79.16" transform="rotate(-0 32.75 79.16)">0</text>
 </g>
 </g>
 <g>
 <g>
 <path d="M 39.75 48.78 
L 235.05 48.78 
" style="fill: none; stroke: #e5e7eb; stroke-opacity: 0.6; stroke-width: 0.5; stroke-linecap: square"/>
 </g>
 <g>
 <g>
 <use xlink:href="#m263469704c" x="39.75" y="48.78" style="fill: #9ca3af; stroke: #9ca3af; stroke-width: 0.8"/>
 </g>
 </g>
 <g>
 <text style="fill: #9ca3af; font: 7px 'DejaVu Sans', 'Bitstream Vera Sans', 'Computer Modern Sans Serif', 'Lucida Grande', 'Verdana', 'Geneva', 'Lucid', 'Arial', 'Helvetica', 'Avant Garde', sans-serif; text-anchor: end" x="32.75" y="51.44" transform="rotate(-0 32.75 51.44)">20</text>
 </g>
 </g>
 <g>
 <g>
 <path d="M 39.75 21.06 
L 235.05 21.06 
" style="fill: none; stroke: #e5e7eb; stroke-opacity: 0.6; stroke-width: 0.5; stroke-linecap: square"/>
 </g>
 <g>
 <g>
 <use xlink:href="#m263469704c" x="39.75" y="21.06" style="fill: #9ca3af; stroke: #9ca3af; stroke-width: 0.8"/>
 </g>
 </g>
 <g>
 <text style="fill: #9ca3af; font: 7px 'DejaVu Sans', 'Bitstream Vera Sans', 'Computer Modern Sans Serif', 'Lucida Grande', 'Verdana', 'Geneva', 'Lucid', 'Arial', 'Helvetica', 'Avant Garde', sans-serif; text-anchor: end" x="32.75" y="23.72" transform="rotate(-0 32.75 23.72)">40</text>
 </g>
 </g>
 <g>
 <text style="fill: #9ca3af; font: 7px 'DejaVu Sans', 'Bitstream Vera Sans', 'Computer Modern Sans Serif', 'Lucida Grande', 'Verdana', 'Geneva', 'Lucid', 'Arial', 'Helvetica', 'Avant Garde', sans-serif; text-anchor: middle" x="12.52" y="76.5" transform="rotate(-90 12.52 76.5)">y</text>
 </g>
 </g>
 <g>
 <path d="M 83.07 178.55 
L 84.58 169.05 
L 86.83 156.33 
L 89.08 144.93 
L 91.33 134.75 
L 93.57 125.71 
L 95.82 117.71 
L 98.07 110.67 
L 100.32 104.51 
L 102.56 99.16 
L 104.81 94.53 
L 107.06 90.57 
L 109.31 87.20 
L 111.55 84.37 
L 113.80 82.01 
L 116.05 80.06 
L 118.29 78.48 
L 120.54 77.22 
L 122.79 76.22 
L 125.04 75.46 
L 127.28 74.88 
L 129.53 74.47 
L 131.78 74.17 
L 134.03 73.98 
L 136.27 73.86 
L 138.52 73.78 
L 140.77 73.75 
L 143.02 73.73 
L 145.26 73.73 
L 147.51 73.73 
L 149.76 73.73 
L 152.01 73.73 
L 154.25 73.73 
L 156.50 73.75 
L 158.75 73.79 
L 161.00 73.87 
L 163.24 74.00 
L 165.49 74.20 
L 167.74 74.51 
L 169.99 74.95 
L 172.23 75.54 
L 174.48 76.33 
L 176.73 77.36 
L 178.98 78.66 
L 181.22 80.28 
L 183.47 82.28 
L 185.72 84.70 
L 187.96 87.59 
L 190.21 91.03 
L 192.46 95.07 
L 194.71 99.78 
L 196.95 105.24 
L 199.20 111.50 
L 201.45 118.65 
L 203.70 126.78 
L 205.94 135.96 
L 208.19 146.29 
L 210.44 157.85 
L 212.69 170.73 
L 213.91 178.55 
" style="fill: none; stroke: #2563eb; stroke-width: 1.5; stroke-linecap: square"/>
 </g>
 <g>
 <path d="M 39.75 76.5 
L 235.05 76.5 
" style="fill: none; stroke: #9ca3af; stroke-width: 0.6; stroke-linecap: square"/>
 </g>
 <g>
 <path d="M 81.92 145.8 
L 81.92 7.2 
" style="fill: none; stroke-dasharray: 0.6,0.99; stroke-dashoffset: 0; stroke: #6b7280; stroke-width: 0.6"/>
 </g>
 <g>
 <path d="M 192.88 145.8 
L 192.88 7.2 
" style="fill: none; stroke-dasharray: 0.6,0.99; stroke-dashoffset: 0; stroke: #6b7280; stroke-width: 0.6"/>
 </g>
 <g>
 <path d="M 39.75 145.8 
L 39.75 7.2 
" style="fill: none; stroke: #9ca3af; stroke-width: 0.6; stroke-linejoin: miter; stroke-linecap: square"/>
 </g>
 <g>
 <path d="M 235.05 145.8 
L 235.05 7.2 
" style="fill: none; stroke: #9ca3af; stroke-width: 0.6; stroke-linejoin: miter; stroke-linecap: square"/>
 </g>
 <g>
 <path d="M 39.75 145.8 
L 235.05 145.8 
" style="fill: none; stroke: #9ca3af; stroke-width: 0.6; stroke-linejoin: miter; stroke-linecap: square"/>
 </g>
 <g>
 <path d="M 39.75 7.2 
L 235.05 7.2 
" style="fill: none; stroke: #9ca3af; stroke-width: 0.6; stroke-linejoin: miter; stroke-linecap: square"/>
 </g>
 </g>
 </g>
 <defs>
 </defs>
</svg>