<?xml version="1.0" encoding="utf-8" standalone="no"?>
<!DOCTYPE svg PUBLIC "-//W3C//DTD SVG 1.1//EN"
 "http://www.w3.org/Graphics/SVG/1.1/DTD/svg11.dtd">
<svg xmlns:xlink="http://www.w3.org/1999/xlink" width="236.38pt" height="177.55pt" viewBox="0 0 236.38 177.55" xmlns="http://www.w3.org/2000/svg" version="1.1">
 <g>
 <g>
 <path d="M 0 177.55 
L 236.38 177.55 
L 236.38 0 
L 0 0 
L 0 177.55 
z
" style="fill: none"/>
 </g>
 <g>
 <g>
 <path d="M 33.88 145.8 
L 229.18 145.8 
L 229.18 7.2 
L 33.88 7.2 
L 33.88 145.8 
z
" style="fill: none"/>
 </g>
 <g>
 <defs>
 <path d="M 76.05 -66.37 
L 76.05 -62.04 
L 78.31 -62.04 
L 80.58 -62.04 
L 82.84 -62.04 
L 85.11 -62.04 
L 87.37 -62.04 
L 89.64 -62.04 
L 91.90 -62.04 
L 94.17 -62.04 
L 96.43 -62.04 
L 98.70 -62.04 
L 100.96 -62.04 
L 103.22 -62.04 
L 105.49 -62.04 
L 107.75 -62.04 
L 110.02 -62.04 
L 112.28 -62.04 
L 114.55 -62.04 
L 116.81 -62.04 
L 119.08 -62.04 
L 121.34 -62.04 
L 123.61 -62.04 
L 125.87 -62.04 
L 128.14 -62.04 
L 130.40 -62.04 
L 132.66 -62.04 
L 134.93 -62.04 
L 137.19 -62.04 
L 139.46 -62.04 
L 141.72 -62.04 
L 143.99 -62.04 
L 146.25 -62.04 
L 148.52 -62.04 
L 150.78 -62.04 
L 153.05 -62.04 
L 155.31 -62.04 
L 157.58 -62.04 
L 159.84 -62.04 
L 162.10 -62.04 
L 164.37 -62.04 
L 166.63 -62.04 
L 168.90 -62.04 
L 171.16 -62.04 
L 173.43 -62.04 
L 175.69 -62.04 
L 177.96 -62.04 
L 180.22 -62.04 
L 182.49 -62.04 
L 184.75 -62.04 
L 187.02 -62.04 
L 187.02 -144.36 
L 187.02 -144.36 
L 184.75 -141.21 
L 182.49 -138.12 
L 180.22 -135.10 
L 177.96 -132.14 
L 175.69 -129.25 
L 173.43 -126.43 
L 171.16 -123.67 
L 168.90 -120.97 
L 166.63 -118.34 
L 164.37 -115.77 
L 162.10 -113.27 
L 159.84 -110.84 
L 157.58 -108.47 
L 155.31 -106.16 
L 153.05 -103.92 
L 150.78 -101.74 
L 148.52 -99.63 
L 146.25 -97.59 
L 143.99 -95.61 
L 141.72 -93.69 
L 139.46 -91.84 
L 137.19 -90.05 
L 134.93 -88.33 
L 132.66 -86.67 
L 130.40 -85.08 
L 128.14 -83.56 
L 125.87 -82.09 
L 123.61 -80.70 
L 121.34 -79.37 
L 119.08 -78.10 
L 116.81 -76.90 
L 114.55 -75.76 
L 112.28 -74.69 
L 110.02 -73.68 
L 107.75 -72.74 
L 105.49 -71.86 
L 103.22 -71.05 
L 100.96 -70.30 
L 98.70 -69.62 
L 96.43 -69.00 
L 94.17 -68.45 
L 91.90 -67.97 
L 89.64 -67.54 
L 87.37 -67.19 
L 85.11 -66.89 
L 82.84 -66.67 
L 80.58 -66.50 
L 78.31 -66.41 
L 76.05 -66.37 
z
" style="stroke: #2563eb; stroke-opacity: 0.15"/>
 </defs>
 <g>
 <use xlink:href="#m1c0ca0f219" x="0" y="177.55" style="fill: #2563eb; fill-opacity: 0.15; stroke: #2563eb; stroke-opacity: 0.15"/>
 </g>
 </g>
 <g>
 <g>
 <g>
 <path d="M 76.05 145.8 
L 76.05 7.2 
" style="fill: none; stroke: #e5e7eb; stroke-opacity: 0.6; stroke-width: 0.5; stroke-linecap: square"/>
 </g>
 <g>
 <defs>
 <path d="M 0 0 
L 0 3.5 
" style="stroke: #9ca3af; stroke-width: 0.8"/>
 </defs>
 <g>
 <use xlink:href="#m2a518b2d0b" x="76.05" y="145.8" style="fill: #9ca3af; stroke: #9ca3af; stroke-width: 0.8"/>
 </g>
 </g>
 <g>
 <text style="fill: #9ca3af; font: 7px 'DejaVu Sans', 'Bitstream Vera Sans', 'Computer Modern Sans Serif', 'Lucida Grande', 'Verdana', 'Geneva', 'Lucid', 'Arial', 'Helvetica', 'Avant Garde', sans-serif; text-anchor: middle" x="76.05" y="158.12" transform="rotate(-0 76.05 158.12)">0</text>
 </g>
 </g>
 <g>
 <g>
 <path d="M 150.03 145.8 
L 150.03 7.2 
" style="fill: none; stroke: #e5e7eb; stroke-opacity: 0.6; stroke-width: 0.5; stroke-linecap: square"/>
 </g>
 <g>
 <g>
 <use xlink:href="#m2a518b2d0b" x="150.03" y="145.8" style="fill: #9ca3af; stroke: #9ca3af; stroke-width: 0.8"/>
 </g>
 </g>
 <g>
 <text style="fill: #9ca3af; font: 7px 'DejaVu Sans', 'Bitstream Vera Sans', 'Computer Modern Sans Serif', 'Lucida Grande', 'Verdana', 'Geneva', 'Lucid', 'Arial', 'Helvetica', 'Avant Garde', sans-serif; text-anchor: middle" x="150.03" y="158.12" transform="rotate(-0 150.03 158.12)">2</text>
 </g>
 </g>
 <g>
 <g>
 <path d="M 224.00 145.8 
L 224.00 7.2 
" style="fill: none; stroke: #e5e7eb; stroke-opacity: 0.6; stroke-width: 0.5; stroke-linecap: square"/>
 </g>
 <g>
 <g>
 <use xlink:href="#m2a518b2d0b" x="224.00" y="145.8" style="fill: #9ca3af; stroke: #9ca3af; stroke-width: 0.8"/>
 </g>
 </g>
 <g>
 <text style="fill: #9ca3af; font: 7px 'DejaVu Sans', 'Bitstream Vera Sans', 'Computer Modern Sans Serif', 'Lucida Grande', 'Verdana', 'Geneva', 'Lucid', 'Arial', 'Helvetica', 'Avant Garde', sans-serif; text-anchor: middle" x="224.00" y="158.12" transform="rotate(-0 224.00 158.12)">4</text>
 </g>
 </g>
 <g>
 <text style="fill: #9ca3af; font: 7px 'DejaVu Sans', 'Bitstream Vera Sans', 'Computer Modern Sans Serif', 'Lucida Grande', 'Verdana', 'Geneva', 'Lucid', 'Arial', 'Helvetica', 'Avant Garde', sans-serif; text-anchor: middle" x="131.53" y="168.89" transform="rotate(-0 131.53 168.89)">x</text>
 </g>
 </g>
 <g>
 <g>
 <g>
 <path d="M 33.88 115.51 
L 229.18 115.51 
" style="fill: none; stroke: #e5e7eb; stroke-opacity: 0.6; stroke-width: 0.5; stroke-linecap: square"/>
 </g>
 <g>
 <defs>
 <path d="M 0 0 
L -3.5 0 
" style="stroke: #9ca3af; stroke-width: 0.8"/>
 </defs>
 <g>
 <use xlink:href="#m647332da8b" x="33.88" y="115.51" style="fill: #9ca3af; stroke: #9ca3af; stroke-width: 0.8"/>
 </g>
 </g>
 <g>
 <text style="fill: #9ca3af; font: 7px 'DejaVu Sans', 'Bitstream Vera Sans', 'Computer Modern Sans Serif', 'Lucida Grande', 'Verdana', 'Geneva', 'Lucid', 'Arial', 'Helvetica', 'Avant Garde', sans-serif; text-anchor: end" x="26.88" y="118.17" transform="rotate(-0 26.88 118.17)">0</text>
 </g>
 </g>
 <g>
 <g>
 <path d="M 33.88 72.18 
L 229.18 72.18 
" style="fill: none; stroke: #e5e7eb; stroke-opacity: 0.6; stroke-width: 0.5; stroke-linecap: square"/>
 </g>
 <g>
 <g>
 <use xlink:href="#m647332da8b" x="33.88" y="72.18" style="fill: #9ca3af; stroke: #9ca3af; stroke-width: 0.8"/>
 </g>
 </g>
 <g>
 <text style="fill: #9ca3af; font: 7px 'DejaVu Sans', 'Bitstream Vera Sans', 'Computer Modern Sans Serif', 'Lucida Grande', 'Verdana', 'Geneva', 'Lucid', 'Arial', 'Helvetica', 'Avant Garde', sans-serif; text-anchor: end" x="26.88" y="74.84" transform="rotate(-0 26.88 74.84)">20</text>
 </g>
 </g>
 <g>
 <g>
 <path d="M 33.88 28.86 
L 229.18 28.86 
" style="fill: none; stroke: #e5e7eb; stroke-opacity: 0.6; stroke-width: 0.5; stroke-linecap: square"/>
 </g>
 <g>
 <g>
 <use xlink:href="#m647332da8b" x="33.88" y="28.86" style="fill: #9ca3af; stroke: #9ca3af; stroke-width: 0.8"/>
 </g>
 </g>
 <g>
 <text style="fill: #9ca3af; font: 7px 'DejaVu Sans', 'Bitstream Vera Sans', 'Computer Modern Sans Serif', 'Lucida Grande', 'Verdana', 'Geneva', 'Lucid', 'Arial', 'Helvetica', 'Avant Garde', sans-serif; text-anchor: end" x="26.88" y="31.52" transform="rotate(-0 26.88 31.52)">40</text>
 </g>
 </g>
 <g>
 <text style="fill: #9ca3af; font: 7px 'DejaVu Sans', 'Bitstream Vera Sans', 'Computer Modern Sans Serif', 'Lucida Grande', 'Verdana', 'Geneva', 'Lucid', 'Arial', 'Helvetica', 'Avant Garde', sans-serif; text-anchor: middle" x="12.52" y="76.5" transform="rotate(-90 12.52 76.5)">y</text>
 </g>
 </g>
 <g>
 <path d="M 42.76 104.16 
L 45.01 105.07 
L 47.25 105.92 
L 49.50 106.71 
L 51.75 107.44 
L 54.00 108.10 
L 56.24 108.69 
L 58.49 109.22 
L 60.74 109.69 
L 62.99 110.09 
L 65.23 110.43 
L 67.48 110.71 
L 69.73 110.92 
L 71.98 111.07 
L 74.22 111.15 
L 76.47 111.17 
L 78.72 111.13 
L 80.97 111.02 
L 83.21 110.85 
L 85.46 110.61 
L 87.71 110.31 
L 89.96 109.95 
L 92.20 109.52 
L 94.45 109.03 
L 96.70 108.48 
L 98.94 107.86 
L 101.19 107.17 
L 103.44 106.42 
L 105.69 105.61 
L 107.93 104.74 
L 110.18 103.80 
L 112.43 102.79 
L 114.68 101.73 
L 116.92 100.59 
L 119.17 99.40 
L 121.42 98.14 
L 123.67 96.82 
L 125.91 95.43 
L 128.16 93.98 
L 130.41 92.46 
L 132.66 90.88 
L 134.90 89.24 
L 137.15 87.53 
L 139.40 85.76 
L 141.65 83.92 
L 143.89 82.03 
L 146.14 80.06 
L 148.39 78.04 
L 150.64 75.94 
L 152.88 73.79 
L 155.13 71.57 
L 157.38 69.29 
L 159.62 66.94 
L 161.87 64.53 
L 164.12 62.05 
L 166.37 59.51 
L 168.61 56.91 
L 170.86 54.24 
L 173.11 51.51 
L 175.36 48.72 
L 177.60 45.86 
L 179.85 42.94 
L 182.10 39.95 
L 184.35 36.90 
L 186.59 33.78 
L 188.84 30.61 
L 191.09 27.36 
L 193.34 24.06 
L 195.58 20.69 
L 197.83 17.25 
L 200.08 13.75 
L 202.33 10.19 
L 204.57 6.56 
L 206.82 2.87 
L 209.07 -0.88 
L 209.14 -1 
" style="fill: none; stroke: #2563eb; stroke-width: 1.5; stroke-linecap: square"/>
 </g>
 <g>
 <path d="M 33.88 115.51 
L 229.18 115.51 
" style="fill: none; stroke: #9ca3af; stroke-width: 0.6; stroke-linecap: square"/>
 </g>
 <g>
 <path d="M 76.05 145.8 
L 76.05 7.2 
" style="fill: none; stroke-dasharray: 0.6,0.99; stroke-dashoffset: 0; stroke: #6b7280; stroke-width: 0.6"/>
 </g>
 <g>
 <path d="M 187.02 145.8 
L 187.02 7.2 
" style="fill: none; stroke-dasharray: 0.6,0.99; stroke-dashoffset: 0; stroke: #6b7280; stroke-width: 0.6"/>
 </g>
 <g>
 <path d="M 33.88 145.8 
L 33.88 7.2 
" style="fill: none; stroke: #9ca3af; stroke-width: 0.6; stroke-linejoin: miter; stroke-linecap: square"/>
 </g>
 <g>
 <path d="M 229.18 145.8 
L 229.18 7.2 
" style="fill: none; stroke: #9ca3af; stroke-width: 0.6; stroke-linejoin: miter; stroke-linecap: square"/>
 </g>
 <g>
 <path d="M 33.88 145.8 
L 229.18 145.8 
" style="fill: none; stroke: #9ca3af; stroke-width: 0.6; stroke-linejoin: miter; stroke-linecap: square"/>
 </g>
 <g>
 <path d="M 33.88 7.2 
L 229.18 7.2 
" style="fill: none; stroke: #9ca3af; stroke-width: 0.6; stroke-linejoin: miter; stroke-linecap: square"/>
 </g>
 </g>
 </g>
 <defs>
 </defs>
</svg>