<svg xmlns="http://www.w3.org/2000/svg" width="1200" height="630" viewBox="0 0 1200 630">
  <defs>
    <linearGradient id="bg" x1="0%" y1="0%" x2="100%" y2="100%">
      <stop offset="0%" style="stop-color:#0f172a"/>
      <stop offset="50%" style="stop-color:#1e293b"/>
      <stop offset="100%" style="stop-color:#0f172a"/>
    </linearGradient>
    <linearGradient id="accent" x1="0%" y1="0%" x2="100%" y2="0%">
      <stop offset="0%" style="stop-color:#6366f1"/>
      <stop offset="100%" style="stop-color:#8b5cf6"/>
    </linearGradient>
    <linearGradient id="glow" x1="0%" y1="0%" x2="100%" y2="100%">
      <stop offset="0%" style="stop-color:#6366f1;stop-opacity:0.3"/>
      <stop offset="100%" style="stop-color:#8b5cf6;stop-opacity:0"/>
    </linearGradient>
  </defs>

  <!-- Background -->
  <rect width="1200" height="630" fill="url(#bg)"/>

  <!-- Subtle grid pattern -->
  <g opacity="0.04" stroke="#fff" stroke-width="1">
    <line x1="0" y1="0" x2="0" y2="630"/><line x1="60" y1="0" x2="60" y2="630"/>
    <line x1="120" y1="0" x2="120" y2="630"/><line x1="180" y1="0" x2="180" y2="630"/>
    <line x1="240" y1="0" x2="240" y2="630"/><line x1="300" y1="0" x2="300" y2="630"/>
    <line x1="360" y1="0" x2="360" y2="630"/><line x1="420" y1="0" x2="420" y2="630"/>
    <line x1="480" y1="0" x2="480" y2="630"/><line x1="540" y1="0" x2="540" y2="630"/>
    <line x1="600" y1="0" x2="600" y2="630"/><line x1="660" y1="0" x2="660" y2="630"/>
    <line x1="720" y1="0" x2="720" y2="630"/><line x1="780" y1="0" x2="780" y2="630"/>
    <line x1="840" y1="0" x2="840" y2="630"/><line x1="900" y1="0" x2="900" y2="630"/>
    <line x1="960" y1="0" x2="960" y2="630"/><line x1="1020" y1="0" x2="1020" y2="630"/>
    <line x1="1080" y1="0" x2="1080" y2="630"/><line x1="1140" y1="0" x2="1140" y2="630"/>
    <line x1="0" y1="60" x2="1200" y2="60"/><line x1="0" y1="120" x2="1200" y2="120"/>
    <line x1="0" y1="180" x2="1200" y2="180"/><line x1="0" y1="240" x2="1200" y2="240"/>
    <line x1="0" y1="300" x2="1200" y2="300"/><line x1="0" y1="360" x2="1200" y2="360"/>
    <line x1="0" y1="420" x2="1200" y2="420"/><line x1="0" y1="480" x2="1200" y2="480"/>
    <line x1="0" y1="540" x2="1200" y2="540"/>
  </g>

  <!-- Decorative glow circles -->
  <circle cx="200" cy="315" r="280" fill="url(#glow)" opacity="0.5"/>
  <circle cx="1000" cy="315" r="250" fill="url(#glow)" opacity="0.3"/>

  <!-- Floating math symbols (decorative) -->
  <g fill="#6366f1" opacity="0.12" font-family="Georgia, serif" font-size="48">
    <text x="80" y="120">+</text>
    <text x="180" y="520">÷</text>
    <text x="320" y="100">×</text>
    <text x="950" y="140">π</text>
    <text x="1060" y="520">∑</text>
    <text x="1100" y="180">√</text>
    <text x="60" y="380">∞</text>
    <text x="1080" y="360">%</text>
  </g>
  <g fill="#8b5cf6" opacity="0.08" font-family="Georgia, serif" font-size="36">
    <text x="450" y="80">²</text>
    <text x="750" y="580">θ</text>
    <text x="350" y="560">Δ</text>
    <text x="850" y="90">∫</text>
  </g>

  <!-- Accent bar top -->
  <rect x="0" y="0" width="1200" height="4" fill="url(#accent)"/>

  <!-- Main content area -->
  <!-- Icon cluster: brain + lightning -->
  <g transform="translate(600, 200)">
    <!-- Brain icon (simplified) -->
    <circle cx="-60" cy="0" r="44" fill="none" stroke="#6366f1" stroke-width="2.5" opacity="0.6"/>
    <text x="-60" y="16" text-anchor="middle" font-size="44" fill="#6366f1" opacity="0.8">🧠</text>
    <!-- Lightning icon -->
    <circle cx="60" cy="0" r="44" fill="none" stroke="#8b5cf6" stroke-width="2.5" opacity="0.6"/>
    <text x="60" y="16" text-anchor="middle" font-size="44" fill="#8b5cf6" opacity="0.8">⚡</text>
    <!-- Connecting line -->
    <line x1="-14" y1="0" x2="14" y2="0" stroke="#7c3aed" stroke-width="2" stroke-dasharray="4,4" opacity="0.4"/>
  </g>

  <!-- Title -->
  <text x="600" y="310" text-anchor="middle" font-family="-apple-system, BlinkMacSystemFont, 'Segoe UI', sans-serif" font-size="52" font-weight="700" fill="#f8fafc" letter-spacing="-1">
    Practice Math. Train Your Brain.
  </text>

  <!-- Subtitle -->
  <text x="600" y="365" text-anchor="middle" font-family="-apple-system, BlinkMacSystemFont, 'Segoe UI', sans-serif" font-size="24" fill="#94a3b8" letter-spacing="0.5">
    150+ Mental Math Tricks &amp; 16 Memory Games — 100% Free
  </text>

  <!-- Feature pills -->
  <g transform="translate(600, 430)">
    <!-- Pill 1 -->
    <rect x="-340" y="-20" width="180" height="40" rx="20" fill="#6366f1" opacity="0.15"/>
    <rect x="-340" y="-20" width="180" height="40" rx="20" fill="none" stroke="#6366f1" stroke-width="1" opacity="0.3"/>
    <text x="-250" y="7" text-anchor="middle" font-family="-apple-system, sans-serif" font-size="15" fill="#a5b4fc" font-weight="500">Quick Math</text>

    <!-- Pill 2 -->
    <rect x="-90" y="-20" width="180" height="40" rx="20" fill="#8b5cf6" opacity="0.15"/>
    <rect x="-90" y="-20" width="180" height="40" rx="20" fill="none" stroke="#8b5cf6" stroke-width="1" opacity="0.3"/>
    <text x="0" y="7" text-anchor="middle" font-family="-apple-system, sans-serif" font-size="15" fill="#c4b5fd" font-weight="500">Memory Games</text>

    <!-- Pill 3 -->
    <rect x="160" y="-20" width="180" height="40" rx="20" fill="#6366f1" opacity="0.15"/>
    <rect x="160" y="-20" width="180" height="40" rx="20" fill="none" stroke="#6366f1" stroke-width="1" opacity="0.3"/>
    <text x="250" y="7" text-anchor="middle" font-family="-apple-system, sans-serif" font-size="15" fill="#a5b4fc" font-weight="500">No Signup</text>
  </g>

  <!-- Site branding -->
  <text x="600" y="540" text-anchor="middle" font-family="-apple-system, sans-serif" font-size="18" fill="#475569" font-weight="600" letter-spacing="2">
    8GWIFI.ORG
  </text>

  <!-- Bottom accent bar -->
  <rect x="0" y="626" width="1200" height="4" fill="url(#accent)"/>
</svg>
