<svg xmlns="http://www.w3.org/2000/svg" width="1200" height="630" viewBox="0 0 1200 630">
  <defs>
    <linearGradient id="bg" x1="0%" y1="0%" x2="100%" y2="100%">
      <stop offset="0%" style="stop-color:#0f172a"/>
      <stop offset="50%" style="stop-color:#1e293b"/>
      <stop offset="100%" style="stop-color:#0f172a"/>
    </linearGradient>
    <linearGradient id="accent" x1="0%" y1="0%" x2="100%" y2="0%">
      <stop offset="0%" style="stop-color:#ef4444"/>
      <stop offset="100%" style="stop-color:#f97316"/>
    </linearGradient>
    <linearGradient id="glow" x1="0%" y1="0%" x2="100%" y2="100%">
      <stop offset="0%" style="stop-color:#ef4444;stop-opacity:0.2"/>
      <stop offset="100%" style="stop-color:#ef4444;stop-opacity:0"/>
    </linearGradient>
  </defs>
  <rect width="1200" height="630" fill="url(#bg)"/>
  <rect x="0" y="0" width="1200" height="4" fill="url(#accent)"/>
  <circle cx="200" cy="315" r="300" fill="url(#glow)" opacity="0.4"/>
  <circle cx="1000" cy="350" r="250" fill="url(#glow)" opacity="0.3"/>

  <!-- Decorative physics elements -->
  <g opacity="0.08" stroke="#ef4444" stroke-width="1.5" fill="none">
    <!-- Parabola (projectile) -->
    <path d="M 100 450 Q 300 100 500 450" />
    <!-- Wave -->
    <path d="M 700 300 Q 750 200 800 300 Q 850 400 900 300 Q 950 200 1000 300 Q 1050 400 1100 300"/>
    <!-- Orbit ellipse -->
    <ellipse cx="600" cy="150" rx="120" ry="40"/>
  </g>

  <!-- Simulation icons -->
  <g transform="translate(600, 180)" text-anchor="middle" font-size="44">
    <text x="-200" y="0" opacity="0.7">🚀</text>
    <text x="-100" y="0" opacity="0.7">🔭</text>
    <text x="0" y="0" opacity="0.7">⚡</text>
    <text x="100" y="0" opacity="0.7">🌊</text>
    <text x="200" y="0" opacity="0.7">🔬</text>
  </g>

  <!-- Title -->
  <text x="600" y="295" text-anchor="middle" font-family="-apple-system, BlinkMacSystemFont, 'Segoe UI', sans-serif" font-size="52" font-weight="700" fill="#f8fafc" letter-spacing="-1">
    Visual Physics Lab
  </text>

  <!-- Subtitle -->
  <text x="600" y="355" text-anchor="middle" font-family="-apple-system, BlinkMacSystemFont, 'Segoe UI', sans-serif" font-size="24" fill="#94a3b8">
    19 Interactive Simulations — Mechanics, Optics, Waves &amp; More
  </text>

  <!-- Feature pills -->
  <g transform="translate(600, 430)">
    <rect x="-360" y="-20" width="180" height="38" rx="19" fill="#ef4444" opacity="0.15" stroke="#ef4444" stroke-width="1" stroke-opacity="0.3"/>
    <text x="-270" y="6" text-anchor="middle" font-family="-apple-system, sans-serif" font-size="14" fill="#fca5a5" font-weight="500">19 Simulations</text>

    <rect x="-120" y="-20" width="170" height="38" rx="19" fill="#f97316" opacity="0.12" stroke="#f97316" stroke-width="1" stroke-opacity="0.3"/>
    <text x="-35" y="6" text-anchor="middle" font-family="-apple-system, sans-serif" font-size="14" fill="#fdba74" font-weight="500">Real-Time Physics</text>

    <rect x="110" y="-20" width="160" height="38" rx="19" fill="#ef4444" opacity="0.12" stroke="#ef4444" stroke-width="1" stroke-opacity="0.3"/>
    <text x="190" y="6" text-anchor="middle" font-family="-apple-system, sans-serif" font-size="14" fill="#fca5a5" font-weight="500">No Install Needed</text>
  </g>

  <text x="600" y="540" text-anchor="middle" font-family="-apple-system, sans-serif" font-size="18" fill="#475569" font-weight="600" letter-spacing="2">8GWIFI.ORG</text>
  <rect x="0" y="626" width="1200" height="4" fill="url(#accent)"/>
</svg>
