<svg viewBox="0 0 128 128" xmlns="http://www.w3.org/2000/svg">
  <path fill="#00ADD8" d="M20.08 68.89c-.2 0-.31-.12-.27-.31l.65-4.07c.04-.2.21-.31.41-.31H43.7c.2 0 .31.16.27.35l-.54 4c-.04.2-.24.35-.43.35l-22.92-.01zm-10.24 7.93c-.2 0-.31-.12-.27-.31l.66-4.07c.04-.2.21-.31.41-.31h30.13c.2 0 .35.16.31.35l-.27 3.88c-.04.2-.2.39-.43.39l-30.54.07zm16.39 7.93c-.2 0-.27-.16-.24-.31l.47-3.96c.04-.2.24-.35.43-.35h13.13c.2 0 .31.12.31.31l-.12 3.88c0 .2-.16.39-.39.43H26.23z"/>
  <path fill="#00ADD8" d="M73.77 65.01c-3.45.9-5.81 1.58-9.22 2.48-3.41.9-6.83 1.77-10.24 2.67-.31.08-.39.04-.51-.2-.12-.2-.16-.32-.31-.59-.31-.55-.59-.98-.82-1.26-.2-.24-.55-.55-1.06-.9-.2-.12-.2-.24 0-.28 1.53-.43 3.1-.86 4.55-1.26 1.49-.43 3.02-.86 4.59-1.34.23-.08.39-.04.54.12.16.2.35.39.59.59.2.16.43.35.74.55.24.16.43.27.78.51l.82.59c.31.2.43.16.63 0l5.85-3.57c.16-.12.31-.2.47-.2.16 0 .35.12.51.27l7.1 6.91c.27.27.35.47.35.78v33.86c0 .31-.27.47-.59.31l-7.73-4.71c-.35-.2-.51-.47-.51-.86V69.35l-.04-.67c0-.2-.04-.35-.16-.47l-5.81-5.04c-.23-.2-.35-.35-.35-.55s.04-.31.16-.43l9.48-5.77c.31-.2.63-.2.98.04l9.49 9.25c.2.2.31.39.31.59 0 .16-.04.31-.16.47l-9.56 5.77c-.23.16-.47.2-.7.12l-.12-.08-7.77-7.57z"/>
  <path fill="#00ADD8" d="M99.62 67.53c-5.85 0-10.55 2.87-12.95 7.38-2.4 4.51-2.12 10.04.94 14.04 2.83 3.69 7.26 5.5 11.85 5.23 4.67-.27 8.82-2.63 11.38-6.4 2.71-3.96 3.06-9.02 1.02-13.25-2.24-4.67-6.67-6.99-12.24-7z"/>
  <path fill="#fff" d="M109.51 81.17c-.55 3.14-2.79 5.73-5.77 6.75-2.99 1.02-6.28.39-8.63-1.69-2.36-2.08-3.37-5.27-2.63-8.35.78-3.22 3.22-5.77 6.36-6.67 3.14-.9 6.55.08 8.78 2.51 2.28 2.48 2.83 6.16 1.89 9.45z"/>
  <text x="98%" y="96%" text-anchor="end" font-size="8" fill="#666" opacity="0.5" font-family="sans-serif">8gwifi.org/tutorials/go</text>
</svg>
