<svg xmlns="http://www.w3.org/2000/svg" viewBox="0 0 800 450">
  <!-- Background -->
  <rect width="800" height="450" fill="#ffffff"/>

  <!-- Title -->
  <text x="400" y="40" font-family="Arial, sans-serif" font-size="24" font-weight="bold" text-anchor="middle" fill="#333">Java String Immutability</text>
  <text x="400" y="70" font-family="Arial, sans-serif" font-size="16" text-anchor="middle" fill="#666">String Constant Pool vs Heap Memory</text>

  <!-- Heap Memory Box -->
  <rect x="350" y="100" width="400" height="300" rx="10" fill="#f3e5f5" stroke="#7b1fa2" stroke-width="2"/>
  <text x="550" y="130" text-anchor="middle" font-weight="bold" fill="#7b1fa2">Heap Memory</text>

  <!-- String Constant Pool Box -->
  <rect x="380" y="150" width="340" height="230" rx="10" fill="#e1bee7" stroke="#7b1fa2" stroke-width="2" stroke-dasharray="5,5"/>
  <text x="550" y="180" text-anchor="middle" font-weight="bold" font-size="14" fill="#4a148c">String Constant Pool</text>

  <!-- Stack Memory Box (Left) -->
  <rect x="50" y="100" width="200" height="300" rx="10" fill="#e3f2fd" stroke="#1976d2" stroke-width="2"/>
  <text x="150" y="130" text-anchor="middle" font-weight="bold" fill="#1565c0">Stack (Variables)</text>

  <!-- Variables -->
  <g transform="translate(80, 160)">
    <rect x="0" y="0" width="140" height="40" rx="5" fill="#bbdefb" stroke="#1976d2" stroke-width="1"/>
    <text x="70" y="25" text-anchor="middle" font-family="Monospace" font-weight="bold" fill="#0d47a1">String s1</text>
  </g>

  <g transform="translate(80, 220)">
    <rect x="0" y="0" width="140" height="40" rx="5" fill="#bbdefb" stroke="#1976d2" stroke-width="1"/>
    <text x="70" y="25" text-anchor="middle" font-family="Monospace" font-weight="bold" fill="#0d47a1">String s2</text>
  </g>
  
  <g transform="translate(80, 320)">
    <rect x="0" y="0" width="140" height="40" rx="5" fill="#bbdefb" stroke="#1976d2" stroke-width="1"/>
    <text x="70" y="25" text-anchor="middle" font-family="Monospace" font-weight="bold" fill="#0d47a1">if (s1 == s2)</text>
    <text x="70" y="55" text-anchor="middle" font-size="10" fill="#d32f2f">Returns true!</text>
  </g>

  <!-- String Objects in Pool -->
  <g transform="translate(480, 220)">
    <circle cx="70" cy="0" r="40" fill="#ba68c8" stroke="#4a148c" stroke-width="2"/>
    <text x="70" y="5" text-anchor="middle" font-family="Monospace" font-weight="bold" fill="#ffffff" font-size="16">"Hello"</text>
  </g>

  <!-- Pointers -->
  <!-- s1 -> "Hello" -->
  <path d="M220,180 Q350,180 440,210" stroke="#000" stroke-width="2" marker-end="url(#arrow)"/>
  
  <!-- s2 -> "Hello" -->
  <path d="M220,240 Q350,240 440,230" stroke="#000" stroke-width="2" marker-end="url(#arrow)"/>

  <!-- Code Snippet -->
  <text x="150" y="380" text-anchor="middle" font-family="Monospace" font-size="12" fill="#555">s1 = "Hello";</text>
  <text x="150" y="395" text-anchor="middle" font-family="Monospace" font-size="12" fill="#555">s2 = "Hello";</text>

  <!-- Definition -->
  <defs>
    <marker id="arrow" markerWidth="10" markerHeight="10" refX="9" refY="3" orient="auto" markerUnits="strokeWidth">
      <path d="M0,0 L0,6 L9,3 z" fill="#000" />
    </marker>
  </defs>

  <!-- Watermark -->
  <text x="790" y="440" font-family="Arial, sans-serif" font-size="12" fill="#999" text-anchor="end">8gwifi.org/tutorials</text>
</svg>
