<svg viewBox="0 0 128 128" xmlns="http://www.w3.org/2000/svg">
  <ellipse cx="64" cy="64" rx="60" ry="36" fill="#8993be"/>
  <path fill="#232531" d="M30.5 54h8.6l-1.5 7.5h4.7c3.5 0 5.8.6 6.9 1.9 1.1 1.3 1.3 3.4.6 6.3l-2.3 11.3h-8.7l2.1-10.3c.3-1.4.2-2.3-.2-2.9-.4-.5-1.3-.8-2.6-.8h-3.9l-2.9 14h-8.6l7.8-27z"/>
  <path fill="#232531" d="M54 54h8.6l-1.5 7.5h4.7c3.5 0 5.8.6 6.9 1.9 1.1 1.3 1.3 3.4.6 6.3l-2.3 11.3h-8.7l2.1-10.3c.3-1.4.2-2.3-.2-2.9-.4-.5-1.3-.8-2.6-.8h-3.9l-2.9 14h-8.6l7.8-27z"/>
  <path fill="#232531" d="M82 54h17c4.3 0 7.4 1.1 9.2 3.2s2.2 5.3 1.2 9.4c-.6 2.5-1.6 4.7-3.1 6.5-1.5 1.8-3.3 3.2-5.4 4.1-1.6.7-3.8 1.2-6.4 1.4l-1.4 2.4h-8.6l2.4-4.3c-2.7-.4-4.6-1.3-5.7-2.7-1.2-1.5-1.5-3.5-.9-6.1l2.7-13.9zm8.9 6.2l-2 9.8c-.2.8-.1 1.4.3 1.9.4.4 1.2.7 2.3.7h2c1.7 0 3-.4 4-1.2 1-.8 1.7-2 2.1-3.8l.7-3.3c.4-1.7.2-2.9-.5-3.6-.7-.6-2-.9-3.8-.9h-2c-.9 0-1.8.1-3.1.4z"/>
</svg>
