<?xml version="1.0" encoding="utf-8" standalone="no"?>
<!DOCTYPE svg PUBLIC "-//W3C//DTD SVG 1.1//EN"
 "http://www.w3.org/Graphics/SVG/1.1/DTD/svg11.dtd">
<svg xmlns:xlink="http://www.w3.org/1999/xlink" width="242.25pt" height="177.55pt" viewBox="0 0 242.25 177.55" xmlns="http://www.w3.org/2000/svg" version="1.1">
 <g>
 <g>
 <path d="M 0 177.55 
L 242.25 177.55 
L 242.25 0 
L 0 0 
L 0 177.55 
z
" style="fill: none"/>
 </g>
 <g>
 <g>
 <path d="M 39.75 145.8 
L 235.05 145.8 
L 235.05 7.2 
L 39.75 7.2 
L 39.75 145.8 
z
" style="fill: none"/>
 </g>
 <g>
 <g>
 <g>
 <path d="M 69.07 145.8 
L 69.07 7.2 
" style="fill: none; stroke: #e5e7eb; stroke-opacity: 0.6; stroke-width: 0.5; stroke-linecap: square"/>
 </g>
 <g>
 <defs>
 <path d="M 0 0 
L 0 3.5 
" style="stroke: #9ca3af; stroke-width: 0.8"/>
 </defs>
 <g>
 <use xlink:href="#mb6842ab4a0" x="69.07" y="145.8" style="fill: #9ca3af; stroke: #9ca3af; stroke-width: 0.8"/>
 </g>
 </g>
 <g>
 <text style="fill: #9ca3af; font: 7px 'DejaVu Sans', 'Bitstream Vera Sans', 'Computer Modern Sans Serif', 'Lucida Grande', 'Verdana', 'Geneva', 'Lucid', 'Arial', 'Helvetica', 'Avant Garde', sans-serif; text-anchor: middle" x="69.07" y="158.12" transform="rotate(-0 69.07 158.12)">−5.0</text>
 </g>
 </g>
 <g>
 <g>
 <path d="M 115.66 145.8 
L 115.66 7.2 
" style="fill: none; stroke: #e5e7eb; stroke-opacity: 0.6; stroke-width: 0.5; stroke-linecap: square"/>
 </g>
 <g>
 <g>
 <use xlink:href="#mb6842ab4a0" x="115.66" y="145.8" style="fill: #9ca3af; stroke: #9ca3af; stroke-width: 0.8"/>
 </g>
 </g>
 <g>
 <text style="fill: #9ca3af; font: 7px 'DejaVu Sans', 'Bitstream Vera Sans', 'Computer Modern Sans Serif', 'Lucida Grande', 'Verdana', 'Geneva', 'Lucid', 'Arial', 'Helvetica', 'Avant Garde', sans-serif; text-anchor: middle" x="115.66" y="158.12" transform="rotate(-0 115.66 158.12)">−2.5</text>
 </g>
 </g>
 <g>
 <g>
 <path d="M 162.24 145.8 
L 162.24 7.2 
" style="fill: none; stroke: #e5e7eb; stroke-opacity: 0.6; stroke-width: 0.5; stroke-linecap: square"/>
 </g>
 <g>
 <g>
 <use xlink:href="#mb6842ab4a0" x="162.24" y="145.8" style="fill: #9ca3af; stroke: #9ca3af; stroke-width: 0.8"/>
 </g>
 </g>
 <g>
 <text style="fill: #9ca3af; font: 7px 'DejaVu Sans', 'Bitstream Vera Sans', 'Computer Modern Sans Serif', 'Lucida Grande', 'Verdana', 'Geneva', 'Lucid', 'Arial', 'Helvetica', 'Avant Garde', sans-serif; text-anchor: middle" x="162.24" y="158.12" transform="rotate(-0 162.24 158.12)">0.0</text>
 </g>
 </g>
 <g>
 <g>
 <path d="M 208.83 145.8 
L 208.83 7.2 
" style="fill: none; stroke: #e5e7eb; stroke-opacity: 0.6; stroke-width: 0.5; stroke-linecap: square"/>
 </g>
 <g>
 <g>
 <use xlink:href="#mb6842ab4a0" x="208.83" y="145.8" style="fill: #9ca3af; stroke: #9ca3af; stroke-width: 0.8"/>
 </g>
 </g>
 <g>
 <text style="fill: #9ca3af; font: 7px 'DejaVu Sans', 'Bitstream Vera Sans', 'Computer Modern Sans Serif', 'Lucida Grande', 'Verdana', 'Geneva', 'Lucid', 'Arial', 'Helvetica', 'Avant Garde', sans-serif; text-anchor: middle" x="208.83" y="158.12" transform="rotate(-0 208.83 158.12)">2.5</text>
 </g>
 </g>
 <g>
 <text style="fill: #9ca3af; font: 7px 'DejaVu Sans', 'Bitstream Vera Sans', 'Computer Modern Sans Serif', 'Lucida Grande', 'Verdana', 'Geneva', 'Lucid', 'Arial', 'Helvetica', 'Avant Garde', sans-serif; text-anchor: middle" x="137.40" y="168.89" transform="rotate(-0 137.40 168.89)">x</text>
 </g>
 </g>
 <g>
 <g>
 <g>
 <path d="M 39.75 131.94 
L 235.05 131.94 
" style="fill: none; stroke: #e5e7eb; stroke-opacity: 0.6; stroke-width: 0.5; stroke-linecap: square"/>
 </g>
 <g>
 <defs>
 <path d="M 0 0 
L -3.5 0 
" style="stroke: #9ca3af; stroke-width: 0.8"/>
 </defs>
 <g>
 <use xlink:href="#meb9204bb4c" x="39.75" y="131.94" style="fill: #9ca3af; stroke: #9ca3af; stroke-width: 0.8"/>
 </g>
 </g>
 <g>
 <text style="fill: #9ca3af; font: 7px 'DejaVu Sans', 'Bitstream Vera Sans', 'Computer Modern Sans Serif', 'Lucida Grande', 'Verdana', 'Geneva', 'Lucid', 'Arial', 'Helvetica', 'Avant Garde', sans-serif; text-anchor: end" x="32.75" y="134.60" transform="rotate(-0 32.75 134.60)">−40</text>
 </g>
 </g>
 <g>
 <g>
 <path d="M 39.75 104.22 
L 235.05 104.22 
" style="fill: none; stroke: #e5e7eb; stroke-opacity: 0.6; stroke-width: 0.5; stroke-linecap: square"/>
 </g>
 <g>
 <g>
 <use xlink:href="#meb9204bb4c" x="39.75" y="104.22" style="fill: #9ca3af; stroke: #9ca3af; stroke-width: 0.8"/>
 </g>
 </g>
 <g>
 <text style="fill: #9ca3af; font: 7px 'DejaVu Sans', 'Bitstream Vera Sans', 'Computer Modern Sans Serif', 'Lucida Grande', 'Verdana', 'Geneva', 'Lucid', 'Arial', 'Helvetica', 'Avant Garde', sans-serif; text-anchor: end" x="32.75" y="106.88" transform="rotate(-0 32.75 106.88)">−20</text>
 </g>
 </g>
 <g>
 <g>
 <path d="M 39.75 76.5 
L 235.05 76.5 
" style="fill: none; stroke: #e5e7eb; stroke-opacity: 0.6; stroke-width: 0.5; stroke-linecap: square"/>
 </g>
 <g>
 <g>
 <use xlink:href="#meb9204bb4c" x="39.75" y="76.5" style="fill: #9ca3af; stroke: #9ca3af; stroke-width: 0.8"/>
 </g>
 </g>
 <g>
 <text style="fill: #9ca3af; font: 7px 'DejaVu Sans', 'Bitstream Vera Sans', 'Computer Modern Sans Serif', 'Lucida Grande', 'Verdana', 'Geneva', 'Lucid', 'Arial', 'Helvetica', 'Avant Garde', sans-serif; text-anchor: end" x="32.75" y="79.16" transform="rotate(-0 32.75 79.16)">0</text>
 </g>
 </g>
 <g>
 <g>
 <path d="M 39.75 48.78 
L 235.05 48.78 
" style="fill: none; stroke: #e5e7eb; stroke-opacity: 0.6; stroke-width: 0.5; stroke-linecap: square"/>
 </g>
 <g>
 <g>
 <use xlink:href="#meb9204bb4c" x="39.75" y="48.78" style="fill: #9ca3af; stroke: #9ca3af; stroke-width: 0.8"/>
 </g>
 </g>
 <g>
 <text style="fill: #9ca3af; font: 7px 'DejaVu Sans', 'Bitstream Vera Sans', 'Computer Modern Sans Serif', 'Lucida Grande', 'Verdana', 'Geneva', 'Lucid', 'Arial', 'Helvetica', 'Avant Garde', sans-serif; text-anchor: end" x="32.75" y="51.44" transform="rotate(-0 32.75 51.44)">20</text>
 </g>
 </g>
 <g>
 <g>
 <path d="M 39.75 21.06 
L 235.05 21.06 
" style="fill: none; stroke: #e5e7eb; stroke-opacity: 0.6; stroke-width: 0.5; stroke-linecap: square"/>
 </g>
 <g>
 <g>
 <use xlink:href="#meb9204bb4c" x="39.75" y="21.06" style="fill: #9ca3af; stroke: #9ca3af; stroke-width: 0.8"/>
 </g>
 </g>
 <g>
 <text style="fill: #9ca3af; font: 7px 'DejaVu Sans', 'Bitstream Vera Sans', 'Computer Modern Sans Serif', 'Lucida Grande', 'Verdana', 'Geneva', 'Lucid', 'Arial', 'Helvetica', 'Avant Garde', sans-serif; text-anchor: end" x="32.75" y="23.72" transform="rotate(-0 32.75 23.72)">40</text>
 </g>
 </g>
 <g>
 <text style="fill: #9ca3af; font: 7px 'DejaVu Sans', 'Bitstream Vera Sans', 'Computer Modern Sans Serif', 'Lucida Grande', 'Verdana', 'Geneva', 'Lucid', 'Arial', 'Helvetica', 'Avant Garde', sans-serif; text-anchor: middle" x="12.52" y="76.5" transform="rotate(-90 12.52 76.5)">y</text>
 </g>
 </g>
 <g>
 <path d="M 48.63 153.53 
L 50.87 143.99 
L 53.12 135.02 
L 55.37 126.59 
L 57.61 118.70 
L 59.86 111.32 
L 62.11 104.45 
L 64.36 98.07 
L 66.60 92.16 
L 68.85 86.71 
L 71.10 81.70 
L 73.35 77.13 
L 75.59 72.97 
L 77.84 69.21 
L 80.09 65.84 
L 82.34 62.84 
L 84.58 60.20 
L 86.83 57.90 
L 89.08 55.93 
L 91.33 54.27 
L 93.57 52.91 
L 95.82 51.84 
L 98.07 51.04 
L 100.32 50.49 
L 102.56 50.18 
L 104.81 50.10 
L 107.06 50.23 
L 109.31 50.56 
L 111.55 51.07 
L 113.80 51.74 
L 116.05 52.57 
L 118.29 53.54 
L 120.54 54.63 
L 122.79 55.84 
L 125.04 57.13 
L 127.28 58.51 
L 129.53 59.95 
L 131.78 61.45 
L 134.03 62.98 
L 136.27 64.53 
L 138.52 66.09 
L 140.77 67.64 
L 143.02 69.17 
L 145.26 70.67 
L 147.51 72.11 
L 149.76 73.49 
L 152.01 74.78 
L 154.25 75.98 
L 156.50 77.08 
L 158.75 78.05 
L 161.00 78.88 
L 163.24 79.55 
L 165.49 80.06 
L 167.74 80.39 
L 169.99 80.52 
L 172.23 80.44 
L 174.48 80.13 
L 176.73 79.58 
L 178.98 78.78 
L 181.22 77.70 
L 183.47 76.35 
L 185.72 74.69 
L 187.96 72.72 
L 190.21 70.42 
L 192.46 67.78 
L 194.71 64.78 
L 196.95 61.41 
L 199.20 57.65 
L 201.45 53.49 
L 203.70 48.92 
L 205.94 43.91 
L 208.19 38.46 
L 210.44 32.55 
L 212.69 26.17 
L 214.93 19.29 
L 217.18 11.92 
L 219.43 4.03 
L 220.77 -1 
" style="fill: none; stroke: #2563eb; stroke-width: 1.5; stroke-linecap: square"/>
 </g>
 <g>
 <path d="M 39.75 145.8 
L 39.75 7.2 
" style="fill: none; stroke: #9ca3af; stroke-width: 0.6; stroke-linejoin: miter; stroke-linecap: square"/>
 </g>
 <g>
 <path d="M 235.05 145.8 
L 235.05 7.2 
" style="fill: none; stroke: #9ca3af; stroke-width: 0.6; stroke-linejoin: miter; stroke-linecap: square"/>
 </g>
 <g>
 <path d="M 39.75 145.8 
L 235.05 145.8 
" style="fill: none; stroke: #9ca3af; stroke-width: 0.6; stroke-linejoin: miter; stroke-linecap: square"/>
 </g>
 <g>
 <path d="M 39.75 7.2 
L 235.05 7.2 
" style="fill: none; stroke: #9ca3af; stroke-width: 0.6; stroke-linejoin: miter; stroke-linecap: square"/>
 </g>
 <g>
 <text style="fill: #111827; font: 5.5px 'DejaVu Sans', 'Bitstream Vera Sans', 'Computer Modern Sans Serif', 'Lucida Grande', 'Verdana', 'Geneva', 'Lucid', 'Arial', 'Helvetica', 'Avant Garde', sans-serif; text-anchor: start" x="175.27" y="72.52" transform="rotate(-0 175.27 72.52)">(0.43, -2.9)</text>
 </g>
 <g>
 <text style="fill: #111827; font: 5.5px 'DejaVu Sans', 'Bitstream Vera Sans', 'Computer Modern Sans Serif', 'Lucida Grande', 'Verdana', 'Geneva', 'Lucid', 'Arial', 'Helvetica', 'Avant Garde', sans-serif; text-anchor: start" x="109.53" y="42.10" transform="rotate(-0 109.53 42.10)">(-3.1, 19)</text>
 </g>
 <g>
 <defs>
 <path d="M 0 2.5 
C 0.66 2.5 1.30 2.24 1.77 1.77 
C 2.24 1.30 2.5 0.66 2.5 0 
C 2.5 -0.66 2.24 -1.30 1.77 -1.77 
C 1.30 -2.24 0.66 -2.5 0 -2.5 
C -0.66 -2.5 -1.30 -2.24 -1.77 -1.77 
C -2.24 -1.30 -2.5 -0.66 -2.5 0 
C -2.5 0.66 -2.24 1.30 -1.77 1.77 
C -1.30 2.24 -0.66 2.5 0 2.5 
z
" style="stroke: #111827"/>
 </defs>
 <g>
 <use xlink:href="#m0acfe10fa9" x="170.27" y="80.52" style="fill: #111827; stroke: #111827"/>
 </g>
 </g>
 <g>
 <g>
 <use xlink:href="#m0acfe10fa9" x="104.53" y="50.10" style="fill: #111827; stroke: #111827"/>
 </g>
 </g>
 </g>
 </g>
 <defs>
 </defs>
</svg>