<?xml version="1.0" encoding="utf-8" standalone="no"?>
<!DOCTYPE svg PUBLIC "-//W3C//DTD SVG 1.1//EN"
 "http://www.w3.org/Graphics/SVG/1.1/DTD/svg11.dtd">
<svg xmlns:xlink="http://www.w3.org/1999/xlink" width="242.25pt" height="177.55pt" viewBox="0 0 242.25 177.55" xmlns="http://www.w3.org/2000/svg" version="1.1">
 <g>
 <g>
 <path d="M 0 177.55 
L 242.25 177.55 
L 242.25 0 
L 0 0 
L 0 177.55 
z
" style="fill: none"/>
 </g>
 <g>
 <g>
 <path d="M 39.75 145.8 
L 235.05 145.8 
L 235.05 7.2 
L 39.75 7.2 
L 39.75 145.8 
z
" style="fill: none"/>
 </g>
 <g>
 <g>
 <g>
 <path d="M 62.95 145.8 
L 62.95 7.2 
" style="fill: none; stroke: #e5e7eb; stroke-opacity: 0.6; stroke-width: 0.5; stroke-linecap: square"/>
 </g>
 <g>
 <defs>
 <path d="M 0 0 
L 0 3.5 
" style="stroke: #9ca3af; stroke-width: 0.8"/>
 </defs>
 <g>
 <use xlink:href="#m5d5c42baf8" x="62.95" y="145.8" style="fill: #9ca3af; stroke: #9ca3af; stroke-width: 0.8"/>
 </g>
 </g>
 <g>
 <text style="fill: #9ca3af; font: 7px 'DejaVu Sans', 'Bitstream Vera Sans', 'Computer Modern Sans Serif', 'Lucida Grande', 'Verdana', 'Geneva', 'Lucid', 'Arial', 'Helvetica', 'Avant Garde', sans-serif; text-anchor: middle" x="62.95" y="158.12" transform="rotate(-0 62.95 158.12)">−4</text>
 </g>
 </g>
 <g>
 <g>
 <path d="M 112.58 145.8 
L 112.58 7.2 
" style="fill: none; stroke: #e5e7eb; stroke-opacity: 0.6; stroke-width: 0.5; stroke-linecap: square"/>
 </g>
 <g>
 <g>
 <use xlink:href="#m5d5c42baf8" x="112.58" y="145.8" style="fill: #9ca3af; stroke: #9ca3af; stroke-width: 0.8"/>
 </g>
 </g>
 <g>
 <text style="fill: #9ca3af; font: 7px 'DejaVu Sans', 'Bitstream Vera Sans', 'Computer Modern Sans Serif', 'Lucida Grande', 'Verdana', 'Geneva', 'Lucid', 'Arial', 'Helvetica', 'Avant Garde', sans-serif; text-anchor: middle" x="112.58" y="158.12" transform="rotate(-0 112.58 158.12)">−2</text>
 </g>
 </g>
 <g>
 <g>
 <path d="M 162.21 145.8 
L 162.21 7.2 
" style="fill: none; stroke: #e5e7eb; stroke-opacity: 0.6; stroke-width: 0.5; stroke-linecap: square"/>
 </g>
 <g>
 <g>
 <use xlink:href="#m5d5c42baf8" x="162.21" y="145.8" style="fill: #9ca3af; stroke: #9ca3af; stroke-width: 0.8"/>
 </g>
 </g>
 <g>
 <text style="fill: #9ca3af; font: 7px 'DejaVu Sans', 'Bitstream Vera Sans', 'Computer Modern Sans Serif', 'Lucida Grande', 'Verdana', 'Geneva', 'Lucid', 'Arial', 'Helvetica', 'Avant Garde', sans-serif; text-anchor: middle" x="162.21" y="158.12" transform="rotate(-0 162.21 158.12)">0</text>
 </g>
 </g>
 <g>
 <g>
 <path d="M 211.84 145.8 
L 211.84 7.2 
" style="fill: none; stroke: #e5e7eb; stroke-opacity: 0.6; stroke-width: 0.5; stroke-linecap: square"/>
 </g>
 <g>
 <g>
 <use xlink:href="#m5d5c42baf8" x="211.84" y="145.8" style="fill: #9ca3af; stroke: #9ca3af; stroke-width: 0.8"/>
 </g>
 </g>
 <g>
 <text style="fill: #9ca3af; font: 7px 'DejaVu Sans', 'Bitstream Vera Sans', 'Computer Modern Sans Serif', 'Lucida Grande', 'Verdana', 'Geneva', 'Lucid', 'Arial', 'Helvetica', 'Avant Garde', sans-serif; text-anchor: middle" x="211.84" y="158.12" transform="rotate(-0 211.84 158.12)">2</text>
 </g>
 </g>
 <g>
 <text style="fill: #9ca3af; font: 7px 'DejaVu Sans', 'Bitstream Vera Sans', 'Computer Modern Sans Serif', 'Lucida Grande', 'Verdana', 'Geneva', 'Lucid', 'Arial', 'Helvetica', 'Avant Garde', sans-serif; text-anchor: middle" x="137.40" y="168.89" transform="rotate(-0 137.40 168.89)">x</text>
 </g>
 </g>
 <g>
 <g>
 <g>
 <path d="M 39.75 136.80 
L 235.05 136.80 
" style="fill: none; stroke: #e5e7eb; stroke-opacity: 0.6; stroke-width: 0.5; stroke-linecap: square"/>
 </g>
 <g>
 <defs>
 <path d="M 0 0 
L -3.5 0 
" style="stroke: #9ca3af; stroke-width: 0.8"/>
 </defs>
 <g>
 <use xlink:href="#m06f5284751" x="39.75" y="136.80" style="fill: #9ca3af; stroke: #9ca3af; stroke-width: 0.8"/>
 </g>
 </g>
 <g>
 <text style="fill: #9ca3af; font: 7px 'DejaVu Sans', 'Bitstream Vera Sans', 'Computer Modern Sans Serif', 'Lucida Grande', 'Verdana', 'Geneva', 'Lucid', 'Arial', 'Helvetica', 'Avant Garde', sans-serif; text-anchor: end" x="32.75" y="139.45" transform="rotate(-0 32.75 139.45)">−40</text>
 </g>
 </g>
 <g>
 <g>
 <path d="M 39.75 108.00 
L 235.05 108.00 
" style="fill: none; stroke: #e5e7eb; stroke-opacity: 0.6; stroke-width: 0.5; stroke-linecap: square"/>
 </g>
 <g>
 <g>
 <use xlink:href="#m06f5284751" x="39.75" y="108.00" style="fill: #9ca3af; stroke: #9ca3af; stroke-width: 0.8"/>
 </g>
 </g>
 <g>
 <text style="fill: #9ca3af; font: 7px 'DejaVu Sans', 'Bitstream Vera Sans', 'Computer Modern Sans Serif', 'Lucida Grande', 'Verdana', 'Geneva', 'Lucid', 'Arial', 'Helvetica', 'Avant Garde', sans-serif; text-anchor: end" x="32.75" y="110.66" transform="rotate(-0 32.75 110.66)">−20</text>
 </g>
 </g>
 <g>
 <g>
 <path d="M 39.75 79.20 
L 235.05 79.20 
" style="fill: none; stroke: #e5e7eb; stroke-opacity: 0.6; stroke-width: 0.5; stroke-linecap: square"/>
 </g>
 <g>
 <g>
 <use xlink:href="#m06f5284751" x="39.75" y="79.20" style="fill: #9ca3af; stroke: #9ca3af; stroke-width: 0.8"/>
 </g>
 </g>
 <g>
 <text style="fill: #9ca3af; font: 7px 'DejaVu Sans', 'Bitstream Vera Sans', 'Computer Modern Sans Serif', 'Lucida Grande', 'Verdana', 'Geneva', 'Lucid', 'Arial', 'Helvetica', 'Avant Garde', sans-serif; text-anchor: end" x="32.75" y="81.86" transform="rotate(-0 32.75 81.86)">0</text>
 </g>
 </g>
 <g>
 <g>
 <path d="M 39.75 50.40 
L 235.05 50.40 
" style="fill: none; stroke: #e5e7eb; stroke-opacity: 0.6; stroke-width: 0.5; stroke-linecap: square"/>
 </g>
 <g>
 <g>
 <use xlink:href="#m06f5284751" x="39.75" y="50.40" style="fill: #9ca3af; stroke: #9ca3af; stroke-width: 0.8"/>
 </g>
 </g>
 <g>
 <text style="fill: #9ca3af; font: 7px 'DejaVu Sans', 'Bitstream Vera Sans', 'Computer Modern Sans Serif', 'Lucida Grande', 'Verdana', 'Geneva', 'Lucid', 'Arial', 'Helvetica', 'Avant Garde', sans-serif; text-anchor: end" x="32.75" y="53.06" transform="rotate(-0 32.75 53.06)">20</text>
 </g>
 </g>
 <g>
 <g>
 <path d="M 39.75 21.60 
L 235.05 21.60 
" style="fill: none; stroke: #e5e7eb; stroke-opacity: 0.6; stroke-width: 0.5; stroke-linecap: square"/>
 </g>
 <g>
 <g>
 <use xlink:href="#m06f5284751" x="39.75" y="21.60" style="fill: #9ca3af; stroke: #9ca3af; stroke-width: 0.8"/>
 </g>
 </g>
 <g>
 <text style="fill: #9ca3af; font: 7px 'DejaVu Sans', 'Bitstream Vera Sans', 'Computer Modern Sans Serif', 'Lucida Grande', 'Verdana', 'Geneva', 'Lucid', 'Arial', 'Helvetica', 'Avant Garde', sans-serif; text-anchor: end" x="32.75" y="24.26" transform="rotate(-0 32.75 24.26)">40</text>
 </g>
 </g>
 <g>
 <text style="fill: #9ca3af; font: 7px 'DejaVu Sans', 'Bitstream Vera Sans', 'Computer Modern Sans Serif', 'Lucida Grande', 'Verdana', 'Geneva', 'Lucid', 'Arial', 'Helvetica', 'Avant Garde', sans-serif; text-anchor: middle" x="12.52" y="76.5" transform="rotate(-90 12.52 76.5)">y</text>
 </g>
 </g>
 <g>
 <path d="M 48.63 15.55 
L 50.87 20.30 
L 53.12 24.80 
L 55.37 29.06 
L 57.61 33.09 
L 59.86 36.89 
L 62.11 40.47 
L 64.36 43.84 
L 66.60 46.99 
L 68.85 49.95 
L 71.10 52.70 
L 73.35 55.27 
L 75.59 57.66 
L 77.84 59.87 
L 80.09 61.91 
L 82.34 63.78 
L 84.58 65.50 
L 86.83 67.07 
L 89.08 68.49 
L 91.33 69.78 
L 93.57 70.93 
L 95.82 71.96 
L 98.07 72.87 
L 100.32 73.66 
L 102.56 74.36 
L 104.81 74.95 
L 107.06 75.45 
L 109.31 75.86 
L 111.55 76.19 
L 113.80 76.45 
L 116.05 76.64 
L 118.29 76.77 
L 120.54 76.84 
L 122.79 76.87 
L 125.04 76.86 
L 127.28 76.81 
L 129.53 76.73 
L 131.78 76.63 
L 134.03 76.51 
L 136.27 76.38 
L 138.52 76.25 
L 140.77 76.13 
L 143.02 76.01 
L 145.26 75.91 
L 147.51 75.83 
L 149.76 75.78 
L 152.01 75.76 
L 154.25 75.79 
L 156.50 75.87 
L 158.75 76.00 
L 161.00 76.19 
L 163.24 76.44 
L 165.49 76.78 
L 167.74 77.19 
L 169.99 77.69 
L 172.23 78.28 
L 174.48 78.97 
L 176.73 79.77 
L 178.98 80.68 
L 181.22 81.71 
L 183.47 82.86 
L 185.72 84.14 
L 187.96 85.57 
L 190.21 87.13 
L 192.46 88.85 
L 194.71 90.73 
L 196.95 92.77 
L 199.20 94.98 
L 201.45 97.36 
L 203.70 99.93 
L 205.94 102.69 
L 208.19 105.64 
L 210.44 108.80 
L 212.69 112.16 
L 214.93 115.74 
L 217.18 119.54 
L 219.43 123.57 
L 221.68 127.83 
L 223.92 132.34 
L 226.17 137.09 
" style="fill: none; stroke: #2563eb; stroke-width: 1.5; stroke-linecap: square"/>
 </g>
 <g>
 <path d="M 39.75 145.8 
L 39.75 7.2 
" style="fill: none; stroke: #9ca3af; stroke-width: 0.6; stroke-linejoin: miter; stroke-linecap: square"/>
 </g>
 <g>
 <path d="M 235.05 145.8 
L 235.05 7.2 
" style="fill: none; stroke: #9ca3af; stroke-width: 0.6; stroke-linejoin: miter; stroke-linecap: square"/>
 </g>
 <g>
 <path d="M 39.75 145.8 
L 235.05 145.8 
" style="fill: none; stroke: #9ca3af; stroke-width: 0.6; stroke-linejoin: miter; stroke-linecap: square"/>
 </g>
 <g>
 <path d="M 39.75 7.2 
L 235.05 7.2 
" style="fill: none; stroke: #9ca3af; stroke-width: 0.6; stroke-linejoin: miter; stroke-linecap: square"/>
 </g>
 <g>
 <text style="fill: #111827; font: 5.5px 'DejaVu Sans', 'Bitstream Vera Sans', 'Computer Modern Sans Serif', 'Lucida Grande', 'Verdana', 'Geneva', 'Lucid', 'Arial', 'Helvetica', 'Avant Garde', sans-serif; text-anchor: start" x="128.07" y="68.87" transform="rotate(-0 128.07 68.87)">(-1.6, 1.6)</text>
 </g>
 <g>
 <text style="fill: #111827; font: 5.5px 'DejaVu Sans', 'Bitstream Vera Sans', 'Computer Modern Sans Serif', 'Lucida Grande', 'Verdana', 'Geneva', 'Lucid', 'Arial', 'Helvetica', 'Avant Garde', sans-serif; text-anchor: start" x="156.73" y="67.76" transform="rotate(-0 156.73 67.76)">(-0.42, 2.4)</text>
 </g>
 <g>
 <defs>
 <path d="M 0 2.5 
C 0.66 2.5 1.30 2.24 1.77 1.77 
C 2.24 1.30 2.5 0.66 2.5 0 
C 2.5 -0.66 2.24 -1.30 1.77 -1.77 
C 1.30 -2.24 0.66 -2.5 0 -2.5 
C -0.66 -2.5 -1.30 -2.24 -1.77 -1.77 
C -2.24 -1.30 -2.5 -0.66 -2.5 0 
C -2.5 0.66 -2.24 1.30 -1.77 1.77 
C -1.30 2.24 -0.66 2.5 0 2.5 
z
" style="stroke: #111827"/>
 </defs>
 <g>
 <use xlink:href="#ma401600112" x="123.07" y="76.87" style="fill: #111827; stroke: #111827"/>
 </g>
 </g>
 <g>
 <g>
 <use xlink:href="#ma401600112" x="151.73" y="75.76" style="fill: #111827; stroke: #111827"/>
 </g>
 </g>
 </g>
 </g>
 <defs>
 </defs>
</svg>