<?xml version="1.0" encoding="utf-8" standalone="no"?>
<!DOCTYPE svg PUBLIC "-//W3C//DTD SVG 1.1//EN"
 "http://www.w3.org/Graphics/SVG/1.1/DTD/svg11.dtd">
<svg xmlns:xlink="http://www.w3.org/1999/xlink" width="242.25pt" height="177.55pt" viewBox="0 0 242.25 177.55" xmlns="http://www.w3.org/2000/svg" version="1.1">
 <g>
 <g>
 <path d="M 0 177.55 
L 242.25 177.55 
L 242.25 0 
L 0 0 
L 0 177.55 
z
" style="fill: none"/>
 </g>
 <g>
 <g>
 <path d="M 39.75 145.8 
L 235.05 145.8 
L 235.05 7.2 
L 39.75 7.2 
L 39.75 145.8 
z
" style="fill: none"/>
 </g>
 <g>
 <g>
 <g>
 <path d="M 70.82 145.8 
L 70.82 7.2 
" style="fill: none; stroke: #e5e7eb; stroke-opacity: 0.6; stroke-width: 0.5; stroke-linecap: square"/>
 </g>
 <g>
 <defs>
 <path d="M 0 0 
L 0 3.5 
" style="stroke: #9ca3af; stroke-width: 0.8"/>
 </defs>
 <g>
 <use xlink:href="#mebf984d251" x="70.82" y="145.8" style="fill: #9ca3af; stroke: #9ca3af; stroke-width: 0.8"/>
 </g>
 </g>
 <g>
 <text style="fill: #9ca3af; font: 7px 'DejaVu Sans', 'Bitstream Vera Sans', 'Computer Modern Sans Serif', 'Lucida Grande', 'Verdana', 'Geneva', 'Lucid', 'Arial', 'Helvetica', 'Avant Garde', sans-serif; text-anchor: middle" x="70.82" y="158.12" transform="rotate(-0 70.82 158.12)">−4</text>
 </g>
 </g>
 <g>
 <g>
 <path d="M 115.20 145.8 
L 115.20 7.2 
" style="fill: none; stroke: #e5e7eb; stroke-opacity: 0.6; stroke-width: 0.5; stroke-linecap: square"/>
 </g>
 <g>
 <g>
 <use xlink:href="#mebf984d251" x="115.20" y="145.8" style="fill: #9ca3af; stroke: #9ca3af; stroke-width: 0.8"/>
 </g>
 </g>
 <g>
 <text style="fill: #9ca3af; font: 7px 'DejaVu Sans', 'Bitstream Vera Sans', 'Computer Modern Sans Serif', 'Lucida Grande', 'Verdana', 'Geneva', 'Lucid', 'Arial', 'Helvetica', 'Avant Garde', sans-serif; text-anchor: middle" x="115.20" y="158.12" transform="rotate(-0 115.20 158.12)">−2</text>
 </g>
 </g>
 <g>
 <g>
 <path d="M 159.59 145.8 
L 159.59 7.2 
" style="fill: none; stroke: #e5e7eb; stroke-opacity: 0.6; stroke-width: 0.5; stroke-linecap: square"/>
 </g>
 <g>
 <g>
 <use xlink:href="#mebf984d251" x="159.59" y="145.8" style="fill: #9ca3af; stroke: #9ca3af; stroke-width: 0.8"/>
 </g>
 </g>
 <g>
 <text style="fill: #9ca3af; font: 7px 'DejaVu Sans', 'Bitstream Vera Sans', 'Computer Modern Sans Serif', 'Lucida Grande', 'Verdana', 'Geneva', 'Lucid', 'Arial', 'Helvetica', 'Avant Garde', sans-serif; text-anchor: middle" x="159.59" y="158.12" transform="rotate(-0 159.59 158.12)">0</text>
 </g>
 </g>
 <g>
 <g>
 <path d="M 203.98 145.8 
L 203.98 7.2 
" style="fill: none; stroke: #e5e7eb; stroke-opacity: 0.6; stroke-width: 0.5; stroke-linecap: square"/>
 </g>
 <g>
 <g>
 <use xlink:href="#mebf984d251" x="203.98" y="145.8" style="fill: #9ca3af; stroke: #9ca3af; stroke-width: 0.8"/>
 </g>
 </g>
 <g>
 <text style="fill: #9ca3af; font: 7px 'DejaVu Sans', 'Bitstream Vera Sans', 'Computer Modern Sans Serif', 'Lucida Grande', 'Verdana', 'Geneva', 'Lucid', 'Arial', 'Helvetica', 'Avant Garde', sans-serif; text-anchor: middle" x="203.98" y="158.12" transform="rotate(-0 203.98 158.12)">2</text>
 </g>
 </g>
 <g>
 <text style="fill: #9ca3af; font: 7px 'DejaVu Sans', 'Bitstream Vera Sans', 'Computer Modern Sans Serif', 'Lucida Grande', 'Verdana', 'Geneva', 'Lucid', 'Arial', 'Helvetica', 'Avant Garde', sans-serif; text-anchor: middle" x="137.40" y="168.89" transform="rotate(-0 137.40 168.89)">x</text>
 </g>
 </g>
 <g>
 <g>
 <g>
 <path d="M 39.75 131.94 
L 235.05 131.94 
" style="fill: none; stroke: #e5e7eb; stroke-opacity: 0.6; stroke-width: 0.5; stroke-linecap: square"/>
 </g>
 <g>
 <defs>
 <path d="M 0 0 
L -3.5 0 
" style="stroke: #9ca3af; stroke-width: 0.8"/>
 </defs>
 <g>
 <use xlink:href="#md085ff826c" x="39.75" y="131.94" style="fill: #9ca3af; stroke: #9ca3af; stroke-width: 0.8"/>
 </g>
 </g>
 <g>
 <text style="fill: #9ca3af; font: 7px 'DejaVu Sans', 'Bitstream Vera Sans', 'Computer Modern Sans Serif', 'Lucida Grande', 'Verdana', 'Geneva', 'Lucid', 'Arial', 'Helvetica', 'Avant Garde', sans-serif; text-anchor: end" x="32.75" y="134.60" transform="rotate(-0 32.75 134.60)">−40</text>
 </g>
 </g>
 <g>
 <g>
 <path d="M 39.75 104.22 
L 235.05 104.22 
" style="fill: none; stroke: #e5e7eb; stroke-opacity: 0.6; stroke-width: 0.5; stroke-linecap: square"/>
 </g>
 <g>
 <g>
 <use xlink:href="#md085ff826c" x="39.75" y="104.22" style="fill: #9ca3af; stroke: #9ca3af; stroke-width: 0.8"/>
 </g>
 </g>
 <g>
 <text style="fill: #9ca3af; font: 7px 'DejaVu Sans', 'Bitstream Vera Sans', 'Computer Modern Sans Serif', 'Lucida Grande', 'Verdana', 'Geneva', 'Lucid', 'Arial', 'Helvetica', 'Avant Garde', sans-serif; text-anchor: end" x="32.75" y="106.88" transform="rotate(-0 32.75 106.88)">−20</text>
 </g>
 </g>
 <g>
 <g>
 <path d="M 39.75 76.5 
L 235.05 76.5 
" style="fill: none; stroke: #e5e7eb; stroke-opacity: 0.6; stroke-width: 0.5; stroke-linecap: square"/>
 </g>
 <g>
 <g>
 <use xlink:href="#md085ff826c" x="39.75" y="76.5" style="fill: #9ca3af; stroke: #9ca3af; stroke-width: 0.8"/>
 </g>
 </g>
 <g>
 <text style="fill: #9ca3af; font: 7px 'DejaVu Sans', 'Bitstream Vera Sans', 'Computer Modern Sans Serif', 'Lucida Grande', 'Verdana', 'Geneva', 'Lucid', 'Arial', 'Helvetica', 'Avant Garde', sans-serif; text-anchor: end" x="32.75" y="79.16" transform="rotate(-0 32.75 79.16)">0</text>
 </g>
 </g>
 <g>
 <g>
 <path d="M 39.75 48.78 
L 235.05 48.78 
" style="fill: none; stroke: #e5e7eb; stroke-opacity: 0.6; stroke-width: 0.5; stroke-linecap: square"/>
 </g>
 <g>
 <g>
 <use xlink:href="#md085ff826c" x="39.75" y="48.78" style="fill: #9ca3af; stroke: #9ca3af; stroke-width: 0.8"/>
 </g>
 </g>
 <g>
 <text style="fill: #9ca3af; font: 7px 'DejaVu Sans', 'Bitstream Vera Sans', 'Computer Modern Sans Serif', 'Lucida Grande', 'Verdana', 'Geneva', 'Lucid', 'Arial', 'Helvetica', 'Avant Garde', sans-serif; text-anchor: end" x="32.75" y="51.44" transform="rotate(-0 32.75 51.44)">20</text>
 </g>
 </g>
 <g>
 <g>
 <path d="M 39.75 21.06 
L 235.05 21.06 
" style="fill: none; stroke: #e5e7eb; stroke-opacity: 0.6; stroke-width: 0.5; stroke-linecap: square"/>
 </g>
 <g>
 <g>
 <use xlink:href="#md085ff826c" x="39.75" y="21.06" style="fill: #9ca3af; stroke: #9ca3af; stroke-width: 0.8"/>
 </g>
 </g>
 <g>
 <text style="fill: #9ca3af; font: 7px 'DejaVu Sans', 'Bitstream Vera Sans', 'Computer Modern Sans Serif', 'Lucida Grande', 'Verdana', 'Geneva', 'Lucid', 'Arial', 'Helvetica', 'Avant Garde', sans-serif; text-anchor: end" x="32.75" y="23.72" transform="rotate(-0 32.75 23.72)">40</text>
 </g>
 </g>
 <g>
 <text style="fill: #9ca3af; font: 7px 'DejaVu Sans', 'Bitstream Vera Sans', 'Computer Modern Sans Serif', 'Lucida Grande', 'Verdana', 'Geneva', 'Lucid', 'Arial', 'Helvetica', 'Avant Garde', sans-serif; text-anchor: middle" x="12.52" y="76.5" transform="rotate(-90 12.52 76.5)">y</text>
 </g>
 </g>
 <g>
 <path d="M 93.06 -1 
L 93.57 0.52 
L 95.82 6.87 
L 98.07 12.88 
L 100.32 18.57 
L 102.56 23.95 
L 104.81 29.02 
L 107.06 33.80 
L 109.31 38.29 
L 111.55 42.51 
L 113.80 46.45 
L 116.05 50.13 
L 118.29 53.56 
L 120.54 56.74 
L 122.79 59.69 
L 125.04 62.42 
L 127.28 64.92 
L 129.53 67.22 
L 131.78 69.31 
L 134.03 71.22 
L 136.27 72.93 
L 138.52 74.48 
L 140.77 75.86 
L 143.02 77.08 
L 145.26 78.15 
L 147.51 79.08 
L 149.76 79.88 
L 152.01 80.56 
L 154.25 81.12 
L 156.50 81.57 
L 158.75 81.93 
L 161.00 82.20 
L 163.24 82.39 
L 165.49 82.51 
L 167.74 82.57 
L 169.99 82.57 
L 172.23 82.53 
L 174.48 82.45 
L 176.73 82.34 
L 178.98 82.22 
L 181.22 82.08 
L 183.47 81.94 
L 185.72 81.81 
L 187.96 81.69 
L 190.21 81.59 
L 192.46 81.53 
L 194.71 81.51 
L 196.95 81.54 
L 199.20 81.63 
L 201.45 81.78 
L 203.70 82.01 
L 205.94 82.32 
L 208.19 82.73 
L 210.44 83.24 
L 212.69 83.86 
L 214.93 84.59 
L 217.18 85.46 
L 219.43 86.46 
L 221.68 87.60 
L 223.92 88.90 
L 226.17 90.36 
" style="fill: none; stroke: #2563eb; stroke-width: 1.5; stroke-linecap: square"/>
 </g>
 <g>
 <path d="M 75.26 31.04 
L 199.54 116.42 
" style="fill: none; stroke-dasharray: 4.44,1.92; stroke-dashoffset: 0; stroke: #16a34a; stroke-width: 1.2"/>
 </g>
 <g>
 <path d="M 39.75 145.8 
L 39.75 7.2 
" style="fill: none; stroke: #9ca3af; stroke-width: 0.6; stroke-linejoin: miter; stroke-linecap: square"/>
 </g>
 <g>
 <path d="M 235.05 145.8 
L 235.05 7.2 
" style="fill: none; stroke: #9ca3af; stroke-width: 0.6; stroke-linejoin: miter; stroke-linecap: square"/>
 </g>
 <g>
 <path d="M 39.75 145.8 
L 235.05 145.8 
" style="fill: none; stroke: #9ca3af; stroke-width: 0.6; stroke-linejoin: miter; stroke-linecap: square"/>
 </g>
 <g>
 <path d="M 39.75 7.2 
L 235.05 7.2 
" style="fill: none; stroke: #9ca3af; stroke-width: 0.6; stroke-linejoin: miter; stroke-linecap: square"/>
 </g>
 <g>
 <text style="fill: #111827; font: 6px 'DejaVu Sans', 'Bitstream Vera Sans', 'Computer Modern Sans Serif', 'Lucida Grande', 'Verdana', 'Geneva', 'Lucid', 'Arial', 'Helvetica', 'Avant Garde', sans-serif; text-anchor: start" x="142.40" y="65.73" transform="rotate(-0 142.40 65.73)">x = -1</text>
 </g>
 <g>
 <defs>
 <path d="M 0 2.5 
C 0.66 2.5 1.30 2.24 1.77 1.77 
C 2.24 1.30 2.5 0.66 2.5 0 
C 2.5 -0.66 2.24 -1.30 1.77 -1.77 
C 1.30 -2.24 0.66 -2.5 0 -2.5 
C -0.66 -2.5 -1.30 -2.24 -1.77 -1.77 
C -2.24 -1.30 -2.5 -0.66 -2.5 0 
C -2.5 0.66 -2.24 1.30 -1.77 1.77 
C -1.30 2.24 -0.66 2.5 0 2.5 
z
" style="stroke: #111827"/>
 </defs>
 <g>
 <use xlink:href="#md8e66a4d2f" x="137.40" y="73.73" style="fill: #111827; stroke: #111827"/>
 </g>
 </g>
 </g>
 </g>
 <defs>
 </defs>
</svg>