<?xml version="1.0" encoding="utf-8" standalone="no"?>
<!DOCTYPE svg PUBLIC "-//W3C//DTD SVG 1.1//EN"
 "http://www.w3.org/Graphics/SVG/1.1/DTD/svg11.dtd">
<svg xmlns:xlink="http://www.w3.org/1999/xlink" width="236.38pt" height="179.07pt" viewBox="0 0 236.38 179.07" xmlns="http://www.w3.org/2000/svg" version="1.1">
 <g>
 <g>
 <path d="M 0 179.07 
L 236.38 179.07 
L 236.38 0 
L 0 0 
L 0 179.07 
z
" style="fill: none"/>
 </g>
 <g>
 <g>
 <path d="M 33.88 147.32 
L 229.18 147.32 
L 229.18 8.72 
L 33.88 8.72 
L 33.88 147.32 
z
" style="fill: none"/>
 </g>
 <g>
 <g>
 <g>
 <path d="M 64.95 147.32 
L 64.95 8.72 
" style="fill: none; stroke: #e5e7eb; stroke-opacity: 0.6; stroke-width: 0.5; stroke-linecap: square"/>
 </g>
 <g>
 <defs>
 <path d="M 0 0 
L 0 3.5 
" style="stroke: #9ca3af; stroke-width: 0.8"/>
 </defs>
 <g>
 <use xlink:href="#m36322477a3" x="64.95" y="147.32" style="fill: #9ca3af; stroke: #9ca3af; stroke-width: 0.8"/>
 </g>
 </g>
 <g>
 <text style="fill: #9ca3af; font: 7px 'DejaVu Sans', 'Bitstream Vera Sans', 'Computer Modern Sans Serif', 'Lucida Grande', 'Verdana', 'Geneva', 'Lucid', 'Arial', 'Helvetica', 'Avant Garde', sans-serif; text-anchor: middle" x="64.95" y="159.64" transform="rotate(-0 64.95 159.64)">−4</text>
 </g>
 </g>
 <g>
 <g>
 <path d="M 109.34 147.32 
L 109.34 8.72 
" style="fill: none; stroke: #e5e7eb; stroke-opacity: 0.6; stroke-width: 0.5; stroke-linecap: square"/>
 </g>
 <g>
 <g>
 <use xlink:href="#m36322477a3" x="109.34" y="147.32" style="fill: #9ca3af; stroke: #9ca3af; stroke-width: 0.8"/>
 </g>
 </g>
 <g>
 <text style="fill: #9ca3af; font: 7px 'DejaVu Sans', 'Bitstream Vera Sans', 'Computer Modern Sans Serif', 'Lucida Grande', 'Verdana', 'Geneva', 'Lucid', 'Arial', 'Helvetica', 'Avant Garde', sans-serif; text-anchor: middle" x="109.34" y="159.64" transform="rotate(-0 109.34 159.64)">−2</text>
 </g>
 </g>
 <g>
 <g>
 <path d="M 153.73 147.32 
L 153.73 8.72 
" style="fill: none; stroke: #e5e7eb; stroke-opacity: 0.6; stroke-width: 0.5; stroke-linecap: square"/>
 </g>
 <g>
 <g>
 <use xlink:href="#m36322477a3" x="153.73" y="147.32" style="fill: #9ca3af; stroke: #9ca3af; stroke-width: 0.8"/>
 </g>
 </g>
 <g>
 <text style="fill: #9ca3af; font: 7px 'DejaVu Sans', 'Bitstream Vera Sans', 'Computer Modern Sans Serif', 'Lucida Grande', 'Verdana', 'Geneva', 'Lucid', 'Arial', 'Helvetica', 'Avant Garde', sans-serif; text-anchor: middle" x="153.73" y="159.64" transform="rotate(-0 153.73 159.64)">0</text>
 </g>
 </g>
 <g>
 <g>
 <path d="M 198.11 147.32 
L 198.11 8.72 
" style="fill: none; stroke: #e5e7eb; stroke-opacity: 0.6; stroke-width: 0.5; stroke-linecap: square"/>
 </g>
 <g>
 <g>
 <use xlink:href="#m36322477a3" x="198.11" y="147.32" style="fill: #9ca3af; stroke: #9ca3af; stroke-width: 0.8"/>
 </g>
 </g>
 <g>
 <text style="fill: #9ca3af; font: 7px 'DejaVu Sans', 'Bitstream Vera Sans', 'Computer Modern Sans Serif', 'Lucida Grande', 'Verdana', 'Geneva', 'Lucid', 'Arial', 'Helvetica', 'Avant Garde', sans-serif; text-anchor: middle" x="198.11" y="159.64" transform="rotate(-0 198.11 159.64)">2</text>
 </g>
 </g>
 <g>
 <text style="fill: #9ca3af; font: 7px 'DejaVu Sans', 'Bitstream Vera Sans', 'Computer Modern Sans Serif', 'Lucida Grande', 'Verdana', 'Geneva', 'Lucid', 'Arial', 'Helvetica', 'Avant Garde', sans-serif; text-anchor: middle" x="131.53" y="170.41" transform="rotate(-0 131.53 170.41)">x</text>
 </g>
 </g>
 <g>
 <g>
 <g>
 <path d="M 33.88 127.07 
L 229.18 127.07 
" style="fill: none; stroke: #e5e7eb; stroke-opacity: 0.6; stroke-width: 0.5; stroke-linecap: square"/>
 </g>
 <g>
 <defs>
 <path d="M 0 0 
L -3.5 0 
" style="stroke: #9ca3af; stroke-width: 0.8"/>
 </defs>
 <g>
 <use xlink:href="#m55cda733c2" x="33.88" y="127.07" style="fill: #9ca3af; stroke: #9ca3af; stroke-width: 0.8"/>
 </g>
 </g>
 <g>
 <text style="fill: #9ca3af; font: 7px 'DejaVu Sans', 'Bitstream Vera Sans', 'Computer Modern Sans Serif', 'Lucida Grande', 'Verdana', 'Geneva', 'Lucid', 'Arial', 'Helvetica', 'Avant Garde', sans-serif; text-anchor: end" x="26.88" y="129.73" transform="rotate(-0 26.88 129.73)">0</text>
 </g>
 </g>
 <g>
 <g>
 <path d="M 33.88 97.77 
L 229.18 97.77 
" style="fill: none; stroke: #e5e7eb; stroke-opacity: 0.6; stroke-width: 0.5; stroke-linecap: square"/>
 </g>
 <g>
 <g>
 <use xlink:href="#m55cda733c2" x="33.88" y="97.77" style="fill: #9ca3af; stroke: #9ca3af; stroke-width: 0.8"/>
 </g>
 </g>
 <g>
 <text style="fill: #9ca3af; font: 7px 'DejaVu Sans', 'Bitstream Vera Sans', 'Computer Modern Sans Serif', 'Lucida Grande', 'Verdana', 'Geneva', 'Lucid', 'Arial', 'Helvetica', 'Avant Garde', sans-serif; text-anchor: end" x="26.88" y="100.43" transform="rotate(-0 26.88 100.43)">10</text>
 </g>
 </g>
 <g>
 <g>
 <path d="M 33.88 68.47 
L 229.18 68.47 
" style="fill: none; stroke: #e5e7eb; stroke-opacity: 0.6; stroke-width: 0.5; stroke-linecap: square"/>
 </g>
 <g>
 <g>
 <use xlink:href="#m55cda733c2" x="33.88" y="68.47" style="fill: #9ca3af; stroke: #9ca3af; stroke-width: 0.8"/>
 </g>
 </g>
 <g>
 <text style="fill: #9ca3af; font: 7px 'DejaVu Sans', 'Bitstream Vera Sans', 'Computer Modern Sans Serif', 'Lucida Grande', 'Verdana', 'Geneva', 'Lucid', 'Arial', 'Helvetica', 'Avant Garde', sans-serif; text-anchor: end" x="26.88" y="71.13" transform="rotate(-0 26.88 71.13)">20</text>
 </g>
 </g>
 <g>
 <g>
 <path d="M 33.88 39.16 
L 229.18 39.16 
" style="fill: none; stroke: #e5e7eb; stroke-opacity: 0.6; stroke-width: 0.5; stroke-linecap: square"/>
 </g>
 <g>
 <g>
 <use xlink:href="#m55cda733c2" x="33.88" y="39.16" style="fill: #9ca3af; stroke: #9ca3af; stroke-width: 0.8"/>
 </g>
 </g>
 <g>
 <text style="fill: #9ca3af; font: 7px 'DejaVu Sans', 'Bitstream Vera Sans', 'Computer Modern Sans Serif', 'Lucida Grande', 'Verdana', 'Geneva', 'Lucid', 'Arial', 'Helvetica', 'Avant Garde', sans-serif; text-anchor: end" x="26.88" y="41.82" transform="rotate(-0 26.88 41.82)">30</text>
 </g>
 </g>
 <g>
 <g>
 <path d="M 33.88 9.86 
L 229.18 9.86 
" style="fill: none; stroke: #e5e7eb; stroke-opacity: 0.6; stroke-width: 0.5; stroke-linecap: square"/>
 </g>
 <g>
 <g>
 <use xlink:href="#m55cda733c2" x="33.88" y="9.86" style="fill: #9ca3af; stroke: #9ca3af; stroke-width: 0.8"/>
 </g>
 </g>
 <g>
 <text style="fill: #9ca3af; font: 7px 'DejaVu Sans', 'Bitstream Vera Sans', 'Computer Modern Sans Serif', 'Lucida Grande', 'Verdana', 'Geneva', 'Lucid', 'Arial', 'Helvetica', 'Avant Garde', sans-serif; text-anchor: end" x="26.88" y="12.52" transform="rotate(-0 26.88 12.52)">40</text>
 </g>
 </g>
 <g>
 <text style="fill: #9ca3af; font: 7px 'DejaVu Sans', 'Bitstream Vera Sans', 'Computer Modern Sans Serif', 'Lucida Grande', 'Verdana', 'Geneva', 'Lucid', 'Arial', 'Helvetica', 'Avant Garde', sans-serif; text-anchor: middle" x="12.52" y="78.02" transform="rotate(-90 12.52 78.02)">y</text>
 </g>
 </g>
 <g>
 <path d="M 42.76 15.72 
L 45.01 20.70 
L 47.25 25.57 
L 49.50 30.31 
L 51.75 34.94 
L 54.00 39.44 
L 56.24 43.82 
L 58.49 48.09 
L 60.74 52.23 
L 62.99 56.25 
L 65.23 60.16 
L 67.48 63.94 
L 69.73 67.60 
L 71.98 71.14 
L 74.22 74.57 
L 76.47 77.87 
L 78.72 81.05 
L 80.97 84.11 
L 83.21 87.05 
L 85.46 89.87 
L 87.71 92.57 
L 89.96 95.15 
L 92.20 97.61 
L 94.45 99.95 
L 96.70 102.17 
L 98.94 104.27 
L 101.19 106.25 
L 103.44 108.11 
L 105.69 109.85 
L 107.93 111.47 
L 110.18 112.97 
L 112.43 114.35 
L 114.68 115.61 
L 116.92 116.74 
L 119.17 117.76 
L 121.42 118.66 
L 123.67 119.44 
L 125.91 120.09 
L 128.16 120.63 
L 130.41 121.05 
L 132.66 121.34 
L 134.90 121.52 
L 137.15 121.58 
L 139.40 121.51 
L 141.65 121.33 
L 143.89 121.03 
L 146.14 120.60 
L 148.39 120.06 
L 150.64 119.39 
L 152.88 118.61 
L 155.13 117.70 
L 157.38 116.68 
L 159.62 115.53 
L 161.87 114.26 
L 164.12 112.88 
L 166.37 111.37 
L 168.61 109.75 
L 170.86 108.00 
L 173.11 106.13 
L 175.36 104.15 
L 177.60 102.04 
L 179.85 99.81 
L 182.10 97.46 
L 184.35 95.00 
L 186.59 92.41 
L 188.84 89.70 
L 191.09 86.87 
L 193.34 83.92 
L 195.58 80.85 
L 197.83 77.66 
L 200.08 74.35 
L 202.33 70.93 
L 204.57 67.38 
L 206.82 63.71 
L 209.07 59.92 
L 211.32 56.01 
L 213.56 51.98 
L 215.81 47.82 
L 218.06 43.55 
L 220.30 39.16 
" style="fill: none; stroke: #2563eb; stroke-width: 1.5; stroke-linecap: square"/>
 </g>
 <g>
 <path d="M 69.39 113.01 
L 193.67 129.42 
" style="fill: none; stroke-dasharray: 4.44,1.92; stroke-dashoffset: 0; stroke: #16a34a; stroke-width: 1.2"/>
 </g>
 <g>
 <path d="M 33.88 147.32 
L 33.88 8.72 
" style="fill: none; stroke: #9ca3af; stroke-width: 0.6; stroke-linejoin: miter; stroke-linecap: square"/>
 </g>
 <g>
 <path d="M 229.18 147.32 
L 229.18 8.72 
" style="fill: none; stroke: #9ca3af; stroke-width: 0.6; stroke-linejoin: miter; stroke-linecap: square"/>
 </g>
 <g>
 <path d="M 33.88 147.32 
L 229.18 147.32 
" style="fill: none; stroke: #9ca3af; stroke-width: 0.6; stroke-linejoin: miter; stroke-linecap: square"/>
 </g>
 <g>
 <path d="M 33.88 8.72 
L 229.18 8.72 
" style="fill: none; stroke: #9ca3af; stroke-width: 0.6; stroke-linejoin: miter; stroke-linecap: square"/>
 </g>
 <g>
 <text style="fill: #111827; font: 6px 'DejaVu Sans', 'Bitstream Vera Sans', 'Computer Modern Sans Serif', 'Lucida Grande', 'Verdana', 'Geneva', 'Lucid', 'Arial', 'Helvetica', 'Avant Garde', sans-serif; text-anchor: start" x="136.53" y="113.21" transform="rotate(-0 136.53 113.21)">x = -1</text>
 </g>
 <g>
 <defs>
 <path d="M 0 2.5 
C 0.66 2.5 1.30 2.24 1.77 1.77 
C 2.24 1.30 2.5 0.66 2.5 0 
C 2.5 -0.66 2.24 -1.30 1.77 -1.77 
C 1.30 -2.24 0.66 -2.5 0 -2.5 
C -0.66 -2.5 -1.30 -2.24 -1.77 -1.77 
C -2.24 -1.30 -2.5 -0.66 -2.5 0 
C -2.5 0.66 -2.24 1.30 -1.77 1.77 
C -1.30 2.24 -0.66 2.5 0 2.5 
z
" style="stroke: #111827"/>
 </defs>
 <g>
 <use xlink:href="#mb7631d3b57" x="131.53" y="121.21" style="fill: #111827; stroke: #111827"/>
 </g>
 </g>
 </g>
 </g>
 <defs>
 </defs>
</svg>