<?xml version="1.0" encoding="utf-8" standalone="no"?>
<!DOCTYPE svg PUBLIC "-//W3C//DTD SVG 1.1//EN"
 "http://www.w3.org/Graphics/SVG/1.1/DTD/svg11.dtd">
<svg xmlns:xlink="http://www.w3.org/1999/xlink" width="242.25pt" height="177.55pt" viewBox="0 0 242.25 177.55" xmlns="http://www.w3.org/2000/svg" version="1.1">
 <g>
 <g>
 <path d="M 0 177.55 
L 242.25 177.55 
L 242.25 0 
L 0 0 
L 0 177.55 
z
" style="fill: none"/>
 </g>
 <g>
 <g>
 <path d="M 39.75 145.8 
L 235.05 145.8 
L 235.05 7.2 
L 39.75 7.2 
L 39.75 145.8 
z
" style="fill: none"/>
 </g>
 <g>
 <g>
 <g>
 <path d="M 70.82 145.8 
L 70.82 7.2 
" style="fill: none; stroke: #e5e7eb; stroke-opacity: 0.6; stroke-width: 0.5; stroke-linecap: square"/>
 </g>
 <g>
 <defs>
 <path d="M 0 0 
L 0 3.5 
" style="stroke: #9ca3af; stroke-width: 0.8"/>
 </defs>
 <g>
 <use xlink:href="#ma79ee95ef3" x="70.82" y="145.8" style="fill: #9ca3af; stroke: #9ca3af; stroke-width: 0.8"/>
 </g>
 </g>
 <g>
 <text style="fill: #9ca3af; font: 7px 'DejaVu Sans', 'Bitstream Vera Sans', 'Computer Modern Sans Serif', 'Lucida Grande', 'Verdana', 'Geneva', 'Lucid', 'Arial', 'Helvetica', 'Avant Garde', sans-serif; text-anchor: middle" x="70.82" y="158.12" transform="rotate(-0 70.82 158.12)">−4</text>
 </g>
 </g>
 <g>
 <g>
 <path d="M 115.20 145.8 
L 115.20 7.2 
" style="fill: none; stroke: #e5e7eb; stroke-opacity: 0.6; stroke-width: 0.5; stroke-linecap: square"/>
 </g>
 <g>
 <g>
 <use xlink:href="#ma79ee95ef3" x="115.20" y="145.8" style="fill: #9ca3af; stroke: #9ca3af; stroke-width: 0.8"/>
 </g>
 </g>
 <g>
 <text style="fill: #9ca3af; font: 7px 'DejaVu Sans', 'Bitstream Vera Sans', 'Computer Modern Sans Serif', 'Lucida Grande', 'Verdana', 'Geneva', 'Lucid', 'Arial', 'Helvetica', 'Avant Garde', sans-serif; text-anchor: middle" x="115.20" y="158.12" transform="rotate(-0 115.20 158.12)">−2</text>
 </g>
 </g>
 <g>
 <g>
 <path d="M 159.59 145.8 
L 159.59 7.2 
" style="fill: none; stroke: #e5e7eb; stroke-opacity: 0.6; stroke-width: 0.5; stroke-linecap: square"/>
 </g>
 <g>
 <g>
 <use xlink:href="#ma79ee95ef3" x="159.59" y="145.8" style="fill: #9ca3af; stroke: #9ca3af; stroke-width: 0.8"/>
 </g>
 </g>
 <g>
 <text style="fill: #9ca3af; font: 7px 'DejaVu Sans', 'Bitstream Vera Sans', 'Computer Modern Sans Serif', 'Lucida Grande', 'Verdana', 'Geneva', 'Lucid', 'Arial', 'Helvetica', 'Avant Garde', sans-serif; text-anchor: middle" x="159.59" y="158.12" transform="rotate(-0 159.59 158.12)">0</text>
 </g>
 </g>
 <g>
 <g>
 <path d="M 203.98 145.8 
L 203.98 7.2 
" style="fill: none; stroke: #e5e7eb; stroke-opacity: 0.6; stroke-width: 0.5; stroke-linecap: square"/>
 </g>
 <g>
 <g>
 <use xlink:href="#ma79ee95ef3" x="203.98" y="145.8" style="fill: #9ca3af; stroke: #9ca3af; stroke-width: 0.8"/>
 </g>
 </g>
 <g>
 <text style="fill: #9ca3af; font: 7px 'DejaVu Sans', 'Bitstream Vera Sans', 'Computer Modern Sans Serif', 'Lucida Grande', 'Verdana', 'Geneva', 'Lucid', 'Arial', 'Helvetica', 'Avant Garde', sans-serif; text-anchor: middle" x="203.98" y="158.12" transform="rotate(-0 203.98 158.12)">2</text>
 </g>
 </g>
 <g>
 <text style="fill: #9ca3af; font: 7px 'DejaVu Sans', 'Bitstream Vera Sans', 'Computer Modern Sans Serif', 'Lucida Grande', 'Verdana', 'Geneva', 'Lucid', 'Arial', 'Helvetica', 'Avant Garde', sans-serif; text-anchor: middle" x="137.40" y="168.89" transform="rotate(-0 137.40 168.89)">x</text>
 </g>
 </g>
 <g>
 <g>
 <g>
 <path d="M 39.75 133.53 
L 235.05 133.53 
" style="fill: none; stroke: #e5e7eb; stroke-opacity: 0.6; stroke-width: 0.5; stroke-linecap: square"/>
 </g>
 <g>
 <defs>
 <path d="M 0 0 
L -3.5 0 
" style="stroke: #9ca3af; stroke-width: 0.8"/>
 </defs>
 <g>
 <use xlink:href="#m26530c0f81" x="39.75" y="133.53" style="fill: #9ca3af; stroke: #9ca3af; stroke-width: 0.8"/>
 </g>
 </g>
 <g>
 <text style="fill: #9ca3af; font: 7px 'DejaVu Sans', 'Bitstream Vera Sans', 'Computer Modern Sans Serif', 'Lucida Grande', 'Verdana', 'Geneva', 'Lucid', 'Arial', 'Helvetica', 'Avant Garde', sans-serif; text-anchor: end" x="32.75" y="136.19" transform="rotate(-0 32.75 136.19)">−40</text>
 </g>
 </g>
 <g>
 <g>
 <path d="M 39.75 98.97 
L 235.05 98.97 
" style="fill: none; stroke: #e5e7eb; stroke-opacity: 0.6; stroke-width: 0.5; stroke-linecap: square"/>
 </g>
 <g>
 <g>
 <use xlink:href="#m26530c0f81" x="39.75" y="98.97" style="fill: #9ca3af; stroke: #9ca3af; stroke-width: 0.8"/>
 </g>
 </g>
 <g>
 <text style="fill: #9ca3af; font: 7px 'DejaVu Sans', 'Bitstream Vera Sans', 'Computer Modern Sans Serif', 'Lucida Grande', 'Verdana', 'Geneva', 'Lucid', 'Arial', 'Helvetica', 'Avant Garde', sans-serif; text-anchor: end" x="32.75" y="101.63" transform="rotate(-0 32.75 101.63)">−20</text>
 </g>
 </g>
 <g>
 <g>
 <path d="M 39.75 64.40 
L 235.05 64.40 
" style="fill: none; stroke: #e5e7eb; stroke-opacity: 0.6; stroke-width: 0.5; stroke-linecap: square"/>
 </g>
 <g>
 <g>
 <use xlink:href="#m26530c0f81" x="39.75" y="64.40" style="fill: #9ca3af; stroke: #9ca3af; stroke-width: 0.8"/>
 </g>
 </g>
 <g>
 <text style="fill: #9ca3af; font: 7px 'DejaVu Sans', 'Bitstream Vera Sans', 'Computer Modern Sans Serif', 'Lucida Grande', 'Verdana', 'Geneva', 'Lucid', 'Arial', 'Helvetica', 'Avant Garde', sans-serif; text-anchor: end" x="32.75" y="67.06" transform="rotate(-0 32.75 67.06)">0</text>
 </g>
 </g>
 <g>
 <g>
 <path d="M 39.75 29.84 
L 235.05 29.84 
" style="fill: none; stroke: #e5e7eb; stroke-opacity: 0.6; stroke-width: 0.5; stroke-linecap: square"/>
 </g>
 <g>
 <g>
 <use xlink:href="#m26530c0f81" x="39.75" y="29.84" style="fill: #9ca3af; stroke: #9ca3af; stroke-width: 0.8"/>
 </g>
 </g>
 <g>
 <text style="fill: #9ca3af; font: 7px 'DejaVu Sans', 'Bitstream Vera Sans', 'Computer Modern Sans Serif', 'Lucida Grande', 'Verdana', 'Geneva', 'Lucid', 'Arial', 'Helvetica', 'Avant Garde', sans-serif; text-anchor: end" x="32.75" y="32.50" transform="rotate(-0 32.75 32.50)">20</text>
 </g>
 </g>
 <g>
 <text style="fill: #9ca3af; font: 7px 'DejaVu Sans', 'Bitstream Vera Sans', 'Computer Modern Sans Serif', 'Lucida Grande', 'Verdana', 'Geneva', 'Lucid', 'Arial', 'Helvetica', 'Avant Garde', sans-serif; text-anchor: middle" x="12.52" y="76.5" transform="rotate(-90 12.52 76.5)">y</text>
 </g>
 </g>
 <g>
 <path d="M 48.63 7.37 
L 50.87 14.51 
L 53.12 21.23 
L 55.37 27.56 
L 57.61 33.48 
L 59.86 39.03 
L 62.11 44.20 
L 64.36 49.02 
L 66.60 53.48 
L 68.85 57.61 
L 71.10 61.40 
L 73.35 64.88 
L 75.59 68.05 
L 77.84 70.93 
L 80.09 73.52 
L 82.34 75.83 
L 84.58 77.89 
L 86.83 79.68 
L 89.08 81.24 
L 91.33 82.56 
L 93.57 83.67 
L 95.82 84.56 
L 98.07 85.26 
L 100.32 85.76 
L 102.56 86.09 
L 104.81 86.25 
L 107.06 86.26 
L 109.31 86.12 
L 111.55 85.85 
L 113.80 85.45 
L 116.05 84.94 
L 118.29 84.32 
L 120.54 83.62 
L 122.79 82.83 
L 125.04 81.98 
L 127.28 81.06 
L 129.53 80.10 
L 131.78 79.10 
L 134.03 78.07 
L 136.27 77.02 
L 138.52 75.98 
L 140.77 74.93 
L 143.02 73.90 
L 145.26 72.90 
L 147.51 71.94 
L 149.76 71.02 
L 152.01 70.17 
L 154.25 69.38 
L 156.50 68.68 
L 158.75 68.06 
L 161.00 67.55 
L 163.24 67.15 
L 165.49 66.88 
L 167.74 66.74 
L 169.99 66.75 
L 172.23 66.91 
L 174.48 67.24 
L 176.73 67.74 
L 178.98 68.44 
L 181.22 69.33 
L 183.47 70.44 
L 185.72 71.76 
L 187.96 73.32 
L 190.21 75.11 
L 192.46 77.17 
L 194.71 79.48 
L 196.95 82.07 
L 199.20 84.95 
L 201.45 88.12 
L 203.70 91.60 
L 205.94 95.39 
L 208.19 99.52 
L 210.44 103.98 
L 212.69 108.80 
L 214.93 113.97 
L 217.18 119.52 
L 219.43 125.44 
L 221.68 131.77 
L 223.92 138.49 
L 226.17 145.63 
" style="fill: none; stroke: #2563eb; stroke-width: 1.5; stroke-linecap: square"/>
 </g>
 <g>
 <path d="M 75.26 105.53 
L 199.54 47.47 
" style="fill: none; stroke-dasharray: 4.44,1.92; stroke-dashoffset: 0; stroke: #16a34a; stroke-width: 1.2"/>
 </g>
 <g>
 <path d="M 39.75 145.8 
L 39.75 7.2 
" style="fill: none; stroke: #9ca3af; stroke-width: 0.6; stroke-linejoin: miter; stroke-linecap: square"/>
 </g>
 <g>
 <path d="M 235.05 145.8 
L 235.05 7.2 
" style="fill: none; stroke: #9ca3af; stroke-width: 0.6; stroke-linejoin: miter; stroke-linecap: square"/>
 </g>
 <g>
 <path d="M 39.75 145.8 
L 235.05 145.8 
" style="fill: none; stroke: #9ca3af; stroke-width: 0.6; stroke-linejoin: miter; stroke-linecap: square"/>
 </g>
 <g>
 <path d="M 39.75 7.2 
L 235.05 7.2 
" style="fill: none; stroke: #9ca3af; stroke-width: 0.6; stroke-linejoin: miter; stroke-linecap: square"/>
 </g>
 <g>
 <text style="fill: #111827; font: 6px 'DejaVu Sans', 'Bitstream Vera Sans', 'Computer Modern Sans Serif', 'Lucida Grande', 'Verdana', 'Geneva', 'Lucid', 'Arial', 'Helvetica', 'Avant Garde', sans-serif; text-anchor: start" x="142.40" y="68.5" transform="rotate(-0 142.40 68.5)">x = -1</text>
 </g>
 <g>
 <defs>
 <path d="M 0 2.5 
C 0.66 2.5 1.30 2.24 1.77 1.77 
C 2.24 1.30 2.5 0.66 2.5 0 
C 2.5 -0.66 2.24 -1.30 1.77 -1.77 
C 1.30 -2.24 0.66 -2.5 0 -2.5 
C -0.66 -2.5 -1.30 -2.24 -1.77 -1.77 
C -2.24 -1.30 -2.5 -0.66 -2.5 0 
C -2.5 0.66 -2.24 1.30 -1.77 1.77 
C -1.30 2.24 -0.66 2.5 0 2.5 
z
" style="stroke: #111827"/>
 </defs>
 <g>
 <use xlink:href="#mb54b53b767" x="137.40" y="76.5" style="fill: #111827; stroke: #111827"/>
 </g>
 </g>
 </g>
 </g>
 <defs>
 </defs>
</svg>