<?xml version="1.0" encoding="utf-8" standalone="no"?>
<!DOCTYPE svg PUBLIC "-//W3C//DTD SVG 1.1//EN"
 "http://www.w3.org/Graphics/SVG/1.1/DTD/svg11.dtd">
<svg xmlns:xlink="http://www.w3.org/1999/xlink" width="236.38pt" height="177.55pt" viewBox="0 0 236.38 177.55" xmlns="http://www.w3.org/2000/svg" version="1.1">
 <g>
 <g>
 <path d="M 0 177.55 
L 236.38 177.55 
L 236.38 0 
L 0 0 
L 0 177.55 
z
" style="fill: none"/>
 </g>
 <g>
 <g>
 <path d="M 33.88 145.8 
L 229.18 145.8 
L 229.18 7.2 
L 33.88 7.2 
L 33.88 145.8 
z
" style="fill: none"/>
 </g>
 <g>
 <g>
 <g>
 <path d="M 42.76 145.8 
L 42.76 7.2 
" style="fill: none; stroke: #e5e7eb; stroke-opacity: 0.6; stroke-width: 0.5; stroke-linecap: square"/>
 </g>
 <g>
 <defs>
 <path d="M 0 0 
L 0 3.5 
" style="stroke: #9ca3af; stroke-width: 0.8"/>
 </defs>
 <g>
 <use xlink:href="#m2cd3c31bef" x="42.76" y="145.8" style="fill: #9ca3af; stroke: #9ca3af; stroke-width: 0.8"/>
 </g>
 </g>
 <g>
 <text style="fill: #9ca3af; font: 7px 'DejaVu Sans', 'Bitstream Vera Sans', 'Computer Modern Sans Serif', 'Lucida Grande', 'Verdana', 'Geneva', 'Lucid', 'Arial', 'Helvetica', 'Avant Garde', sans-serif; text-anchor: middle" x="42.76" y="158.12" transform="rotate(-0 42.76 158.12)">−4</text>
 </g>
 </g>
 <g>
 <g>
 <path d="M 87.15 145.8 
L 87.15 7.2 
" style="fill: none; stroke: #e5e7eb; stroke-opacity: 0.6; stroke-width: 0.5; stroke-linecap: square"/>
 </g>
 <g>
 <g>
 <use xlink:href="#m2cd3c31bef" x="87.15" y="145.8" style="fill: #9ca3af; stroke: #9ca3af; stroke-width: 0.8"/>
 </g>
 </g>
 <g>
 <text style="fill: #9ca3af; font: 7px 'DejaVu Sans', 'Bitstream Vera Sans', 'Computer Modern Sans Serif', 'Lucida Grande', 'Verdana', 'Geneva', 'Lucid', 'Arial', 'Helvetica', 'Avant Garde', sans-serif; text-anchor: middle" x="87.15" y="158.12" transform="rotate(-0 87.15 158.12)">−2</text>
 </g>
 </g>
 <g>
 <g>
 <path d="M 131.53 145.8 
L 131.53 7.2 
" style="fill: none; stroke: #e5e7eb; stroke-opacity: 0.6; stroke-width: 0.5; stroke-linecap: square"/>
 </g>
 <g>
 <g>
 <use xlink:href="#m2cd3c31bef" x="131.53" y="145.8" style="fill: #9ca3af; stroke: #9ca3af; stroke-width: 0.8"/>
 </g>
 </g>
 <g>
 <text style="fill: #9ca3af; font: 7px 'DejaVu Sans', 'Bitstream Vera Sans', 'Computer Modern Sans Serif', 'Lucida Grande', 'Verdana', 'Geneva', 'Lucid', 'Arial', 'Helvetica', 'Avant Garde', sans-serif; text-anchor: middle" x="131.53" y="158.12" transform="rotate(-0 131.53 158.12)">0</text>
 </g>
 </g>
 <g>
 <g>
 <path d="M 175.92 145.8 
L 175.92 7.2 
" style="fill: none; stroke: #e5e7eb; stroke-opacity: 0.6; stroke-width: 0.5; stroke-linecap: square"/>
 </g>
 <g>
 <g>
 <use xlink:href="#m2cd3c31bef" x="175.92" y="145.8" style="fill: #9ca3af; stroke: #9ca3af; stroke-width: 0.8"/>
 </g>
 </g>
 <g>
 <text style="fill: #9ca3af; font: 7px 'DejaVu Sans', 'Bitstream Vera Sans', 'Computer Modern Sans Serif', 'Lucida Grande', 'Verdana', 'Geneva', 'Lucid', 'Arial', 'Helvetica', 'Avant Garde', sans-serif; text-anchor: middle" x="175.92" y="158.12" transform="rotate(-0 175.92 158.12)">2</text>
 </g>
 </g>
 <g>
 <g>
 <path d="M 220.30 145.8 
L 220.30 7.2 
" style="fill: none; stroke: #e5e7eb; stroke-opacity: 0.6; stroke-width: 0.5; stroke-linecap: square"/>
 </g>
 <g>
 <g>
 <use xlink:href="#m2cd3c31bef" x="220.30" y="145.8" style="fill: #9ca3af; stroke: #9ca3af; stroke-width: 0.8"/>
 </g>
 </g>
 <g>
 <text style="fill: #9ca3af; font: 7px 'DejaVu Sans', 'Bitstream Vera Sans', 'Computer Modern Sans Serif', 'Lucida Grande', 'Verdana', 'Geneva', 'Lucid', 'Arial', 'Helvetica', 'Avant Garde', sans-serif; text-anchor: middle" x="220.30" y="158.12" transform="rotate(-0 220.30 158.12)">4</text>
 </g>
 </g>
 <g>
 <text style="fill: #9ca3af; font: 7px 'DejaVu Sans', 'Bitstream Vera Sans', 'Computer Modern Sans Serif', 'Lucida Grande', 'Verdana', 'Geneva', 'Lucid', 'Arial', 'Helvetica', 'Avant Garde', sans-serif; text-anchor: middle" x="131.53" y="168.89" transform="rotate(-0 131.53 168.89)">x</text>
 </g>
 </g>
 <g>
 <g>
 <g>
 <path d="M 33.88 108.60 
L 229.18 108.60 
" style="fill: none; stroke: #e5e7eb; stroke-opacity: 0.6; stroke-width: 0.5; stroke-linecap: square"/>
 </g>
 <g>
 <defs>
 <path d="M 0 0 
L -3.5 0 
" style="stroke: #9ca3af; stroke-width: 0.8"/>
 </defs>
 <g>
 <use xlink:href="#ma0b086589f" x="33.88" y="108.60" style="fill: #9ca3af; stroke: #9ca3af; stroke-width: 0.8"/>
 </g>
 </g>
 <g>
 <text style="fill: #9ca3af; font: 7px 'DejaVu Sans', 'Bitstream Vera Sans', 'Computer Modern Sans Serif', 'Lucida Grande', 'Verdana', 'Geneva', 'Lucid', 'Arial', 'Helvetica', 'Avant Garde', sans-serif; text-anchor: end" x="26.88" y="111.26" transform="rotate(-0 26.88 111.26)">0</text>
 </g>
 </g>
 <g>
 <g>
 <path d="M 33.88 68.04 
L 229.18 68.04 
" style="fill: none; stroke: #e5e7eb; stroke-opacity: 0.6; stroke-width: 0.5; stroke-linecap: square"/>
 </g>
 <g>
 <g>
 <use xlink:href="#ma0b086589f" x="33.88" y="68.04" style="fill: #9ca3af; stroke: #9ca3af; stroke-width: 0.8"/>
 </g>
 </g>
 <g>
 <text style="fill: #9ca3af; font: 7px 'DejaVu Sans', 'Bitstream Vera Sans', 'Computer Modern Sans Serif', 'Lucida Grande', 'Verdana', 'Geneva', 'Lucid', 'Arial', 'Helvetica', 'Avant Garde', sans-serif; text-anchor: end" x="26.88" y="70.70" transform="rotate(-0 26.88 70.70)">20</text>
 </g>
 </g>
 <g>
 <g>
 <path d="M 33.88 27.48 
L 229.18 27.48 
" style="fill: none; stroke: #e5e7eb; stroke-opacity: 0.6; stroke-width: 0.5; stroke-linecap: square"/>
 </g>
 <g>
 <g>
 <use xlink:href="#ma0b086589f" x="33.88" y="27.48" style="fill: #9ca3af; stroke: #9ca3af; stroke-width: 0.8"/>
 </g>
 </g>
 <g>
 <text style="fill: #9ca3af; font: 7px 'DejaVu Sans', 'Bitstream Vera Sans', 'Computer Modern Sans Serif', 'Lucida Grande', 'Verdana', 'Geneva', 'Lucid', 'Arial', 'Helvetica', 'Avant Garde', sans-serif; text-anchor: end" x="26.88" y="30.14" transform="rotate(-0 26.88 30.14)">40</text>
 </g>
 </g>
 <g>
 <text style="fill: #9ca3af; font: 7px 'DejaVu Sans', 'Bitstream Vera Sans', 'Computer Modern Sans Serif', 'Lucida Grande', 'Verdana', 'Geneva', 'Lucid', 'Arial', 'Helvetica', 'Avant Garde', sans-serif; text-anchor: middle" x="12.52" y="76.5" transform="rotate(-90 12.52 76.5)">y</text>
 </g>
 </g>
 <g>
 <path d="M 51.94 -1 
L 54.00 4.53 
L 56.24 10.39 
L 58.49 16.09 
L 60.74 21.62 
L 62.99 26.98 
L 65.23 32.18 
L 67.48 37.21 
L 69.73 42.07 
L 71.98 46.77 
L 74.22 51.30 
L 76.47 55.67 
L 78.72 59.86 
L 80.97 63.90 
L 83.21 67.76 
L 85.46 71.46 
L 87.71 74.99 
L 89.96 78.36 
L 92.20 81.56 
L 94.45 84.59 
L 96.70 87.46 
L 98.94 90.16 
L 101.19 92.70 
L 103.44 95.07 
L 105.69 97.27 
L 107.93 99.30 
L 110.18 101.17 
L 112.43 102.87 
L 114.68 104.41 
L 116.92 105.78 
L 119.17 106.99 
L 121.42 108.02 
L 123.67 108.89 
L 125.91 109.60 
L 128.16 110.14 
L 130.41 110.51 
L 132.66 110.71 
L 134.90 110.75 
L 137.15 110.62 
L 139.40 110.33 
L 141.65 109.87 
L 143.89 109.24 
L 146.14 108.45 
L 148.39 107.49 
L 150.64 106.37 
L 152.88 105.07 
L 155.13 103.62 
L 157.38 101.99 
L 159.62 100.20 
L 161.87 98.24 
L 164.12 96.12 
L 166.37 93.83 
L 168.61 91.37 
L 170.86 88.75 
L 173.11 85.96 
L 175.36 83.00 
L 177.60 79.88 
L 179.85 76.59 
L 182.10 73.14 
L 184.35 69.52 
L 186.59 65.73 
L 188.84 61.77 
L 191.09 57.65 
L 193.34 53.37 
L 195.58 48.91 
L 197.83 44.29 
L 200.08 39.51 
L 202.33 34.56 
L 204.57 29.44 
L 206.82 24.15 
L 209.07 18.70 
L 211.32 13.08 
L 213.56 7.30 
L 215.81 1.35 
L 216.67 -1 
" style="fill: none; stroke: #2563eb; stroke-width: 1.5; stroke-linecap: square"/>
 </g>
 <g>
 <path d="M 69.39 104.95 
L 193.67 116.31 
" style="fill: none; stroke-dasharray: 4.44,1.92; stroke-dashoffset: 0; stroke: #16a34a; stroke-width: 1.2"/>
 </g>
 <g>
 <path d="M 33.88 145.8 
L 33.88 7.2 
" style="fill: none; stroke: #9ca3af; stroke-width: 0.6; stroke-linejoin: miter; stroke-linecap: square"/>
 </g>
 <g>
 <path d="M 229.18 145.8 
L 229.18 7.2 
" style="fill: none; stroke: #9ca3af; stroke-width: 0.6; stroke-linejoin: miter; stroke-linecap: square"/>
 </g>
 <g>
 <path d="M 33.88 145.8 
L 229.18 145.8 
" style="fill: none; stroke: #9ca3af; stroke-width: 0.6; stroke-linejoin: miter; stroke-linecap: square"/>
 </g>
 <g>
 <path d="M 33.88 7.2 
L 229.18 7.2 
" style="fill: none; stroke: #9ca3af; stroke-width: 0.6; stroke-linejoin: miter; stroke-linecap: square"/>
 </g>
 <g>
 <text style="fill: #111827; font: 6px 'DejaVu Sans', 'Bitstream Vera Sans', 'Computer Modern Sans Serif', 'Lucida Grande', 'Verdana', 'Geneva', 'Lucid', 'Arial', 'Helvetica', 'Avant Garde', sans-serif; text-anchor: start" x="136.53" y="102.63" transform="rotate(-0 136.53 102.63)">x = 0</text>
 </g>
 <g>
 <defs>
 <path d="M 0 2.5 
C 0.66 2.5 1.30 2.24 1.77 1.77 
C 2.24 1.30 2.5 0.66 2.5 0 
C 2.5 -0.66 2.24 -1.30 1.77 -1.77 
C 1.30 -2.24 0.66 -2.5 0 -2.5 
C -0.66 -2.5 -1.30 -2.24 -1.77 -1.77 
C -2.24 -1.30 -2.5 -0.66 -2.5 0 
C -2.5 0.66 -2.24 1.30 -1.77 1.77 
C -1.30 2.24 -0.66 2.5 0 2.5 
z
" style="stroke: #111827"/>
 </defs>
 <g>
 <use xlink:href="#m61b3eb1357" x="131.53" y="110.63" style="fill: #111827; stroke: #111827"/>
 </g>
 </g>
 </g>
 </g>
 <defs>
 </defs>
</svg>